<?xml version="1.0" standalone="no"?>
<!DOCTYPE svg PUBLIC "-//W3C//DTD SVG 1.1//EN" "http://www.w3.org/Graphics/SVG/1.1/DTD/svg11.dtd" >
<svg xmlns="http://www.w3.org/2000/svg" xmlns:xlink="http://www.w3.org/1999/xlink" version="1.1">
<metadata>
Created by FontForge 20201107 at Wed Nov 18 16:24:02 2020
 By 
Copyright 2020 The JetBrains Mono Project Authors (https://github.com/JetBrains/JetBrainsMono)
</metadata>
<defs>
<font id="JetBrainsMono-ExtraLightItalic" horiz-adv-x="600" >
  <font-face 
    font-family="JetBrains Mono ExtraLight"
    font-weight="250"
    font-style="italic"
    font-stretch="normal"
    units-per-em="1000"
    panose-1="2 0 0 9 0 0 0 0 0 0"
    ascent="800"
    descent="-200"
    x-height="550"
    cap-height="730"
    bbox="-1746 -300 1170 1020"
    underline-thickness="50"
    underline-position="-180"
    slope="-9"
    unicode-range="U+000D-FEFF"
  />
<missing-glyph 
d="M90 0v730h420v-730h-420zM160 50h300v571zM140 109l300 571h-300v-571z" />
    <glyph glyph-name=".notdef" 
d="M90 0v730h420v-730h-420zM160 50h300v571zM140 109l300 571h-300v-571z" />
    <glyph glyph-name=".null" horiz-adv-x="0" 
 />
    <glyph glyph-name="nonmarkingreturn" horiz-adv-x="333" 
 />
    <glyph glyph-name="CR" unicode="&#xd;" 
 />
    <glyph glyph-name="space" unicode=" " 
 />
    <glyph glyph-name="exclam" unicode="!" 
d="M267 209l42 377l23 144h80l-23 -144l-78 -377h-44zM250 -5q-26 0 -39 16t-9 41t22.5 41t43.5 16h15q27 0 39.5 -15.5t8.5 -41.5q-4 -25 -22.5 -41t-43.5 -16h-15z" />
    <glyph glyph-name="quotedbl" unicode="&#x22;" 
d="M396 430l22 210l15 90h79l-15 -90l-43 -210h-58zM195 430l22 210l15 90h79l-15 -90l-43 -210h-58z" />
    <glyph glyph-name="numbersign" unicode="#" 
d="M42 0l72 206h-90l8 52h100l73 214h-104l8 52h115l72 206h60l-72 -206h170l72 206h62l-74 -206h90l-8 -52h-101l-73 -214h105l-8 -52h-115l-72 -206h-60l72 206h-171l-71 -206h-60zM192 258h170l74 214h-171z" />
    <glyph glyph-name="dollar" unicode="$" 
d="M215 -140l21 131q-92 6 -137.5 58.5t-33.5 137.5h66q-9 -58 21.5 -94.5t92.5 -42.5l47 297l-26 8q-69 22 -101.5 74.5t-20.5 124.5q12 79 69 128.5t141 56.5l21 131h48l-21 -131q83 -6 123.5 -57.5t27.5 -134.5h-66q9 56 -16 91t-78 42l-45 -280l32 -10
q70 -23 103.5 -78.5t21.5 -129.5q-8 -54 -38.5 -95.5t-77 -66t-105.5 -29.5l-21 -131h-48zM293 50q60 7 98.5 41t47.5 90q8 53 -15 92t-72 54l-15 5zM300 399l45 281q-55 -6 -90.5 -38t-44.5 -83q-8 -53 17.5 -91.5t78.5 -52.5z" />
    <glyph glyph-name="percent" unicode="%" 
d="M-26 0l621 730h59l-621 -730h-59zM397 -5q-60 0 -90 35.5t-20 96.5l11 71q10 61 51 96.5t101 35.5q61 0 91 -35.5t20 -96.5l-11 -71q-6 -41 -27 -70.5t-53.5 -45.5t-72.5 -16zM406 48q75 0 88 79l11 71q6 39 -10 59.5t-53 20.5q-75 0 -88 -80l-11 -71q-12 -79 63 -79z
M177 400q-60 0 -90 35.5t-20 96.5l11 71q7 41 27.5 70.5t52.5 45.5t72 16q61 0 91 -35.5t20 -96.5l-11 -71q-6 -41 -27 -70.5t-53.5 -45.5t-72.5 -16zM186 452q75 0 88 80l11 71q12 80 -63 80q-36 0 -58.5 -20.5t-29.5 -59.5l-11 -71q-6 -39 10 -59.5t53 -20.5z" />
    <glyph glyph-name="ampersand" unicode="&#x26;" 
d="M178 -10q-76 0 -112.5 44t-23.5 121l18 117q10 63 48.5 103.5t97.5 50.5l-6 -7q-29 47 -38.5 86t-3.5 75q7 47 34.5 83t69 56.5t92.5 20.5q54 0 90.5 -22t52.5 -60t8 -88h-66q5 32 -5 57t-33 40t-56 15q-31 0 -56.5 -13.5t-42.5 -36.5t-22 -52t4 -61t28 -65l139 -240
l103 146h68l-141 -199l94 -161h-71l-63 106q-93 -116 -207 -116zM193 49q41 0 83 27.5t79 80.5l-129 218q-39 -4 -66 -31t-34 -72l-18 -117q-8 -48 15 -77t70 -29z" />
    <glyph glyph-name="quotesingle" unicode="'" 
d="M293 430l12 138l26 162h78l-26 -162l-32 -138h-58z" />
    <glyph glyph-name="parenleft" unicode="(" 
d="M421 -125q-134 35 -192.5 134t-34.5 250l32 202q16 100 62 178t119 130.5t168 75.5l-10 -64q-72 -17 -128 -60.5t-92 -109.5t-50 -150l-32 -202q-13 -82 3 -148t58 -110t107 -60z" />
    <glyph glyph-name="parenright" unicode=")" 
d="M51 -125l10 66q72 16 127.5 60t92.5 110t50 148l32 202q14 84 -2 150t-58 109.5t-108 60.5l10 64q89 -23 145 -75.5t77 -130.5t5 -178l-32 -202q-16 -101 -61.5 -179t-118 -130t-169.5 -75z" />
    <glyph glyph-name="asterisk" unicode="*" 
d="M144 100l-50 39l80 93q21 23 39 40t34 29t28 23l-2 11q-13 2 -31 4t-38.5 7t-44.5 14l-101 39l33 63l101 -38q24 -9 42 -19t32 -20t25 -19l8 5q-1 15 -2.5 33t-1 40.5t5.5 49.5l18 116h68l-19 -116q-4 -27 -10.5 -49.5t-13.5 -40.5t-13 -33l6 -6q14 9 30.5 19t37.5 20.5
t46 18.5l115 39l14 -65l-115 -39q-25 -9 -47 -13.5t-40.5 -6.5t-33.5 -4l-6 -11q10 -11 21.5 -23.5t24.5 -29t25 -38.5l51 -94l-61 -39l-51 94q-12 23 -19.5 43.5t-12 38t-7.5 31.5h-10l-18 -31.5t-23.5 -38t-33.5 -43.5z" />
    <glyph glyph-name="plus" unicode="+" 
d="M239 98l32 204h-196l9 59h197l31 204h66l-32 -204h196l-9 -59h-197l-32 -204h-65z" />
    <glyph glyph-name="comma" unicode="," 
d="M110 -160l126 311h110l-176 -311h-60z" />
    <glyph glyph-name="hyphen" unicode="-" 
d="M144 301l9 59h320l-9 -59h-320z" />
    <glyph glyph-name="period" unicode="." 
d="M254 -10q-36 0 -53 21t-12 56q6 36 30.5 57t59.5 21q36 0 53 -21t11 -57q-5 -35 -29 -56t-60 -21z" />
    <glyph glyph-name="slash" unicode="/" 
d="M26 -110l502 940h72l-502 -940h-72z" />
    <glyph glyph-name="zero" unicode="0" 
d="M255 -10q-66 0 -109.5 26t-61.5 74.5t-8 114.5l51 320q11 67 44 115t85 74t118 26q65 0 108.5 -26t61.5 -74t7 -115l-51 -320q-10 -66 -43.5 -114.5t-85 -74.5t-116.5 -26zM265 51q66 0 111 41.5t56 112.5l51 320q12 71 -20 112.5t-99 41.5t-112.5 -41.5t-56.5 -112.5
l-51 -320q-12 -70 21 -112t100 -42zM316 313q-24 0 -39 15.5t-15 39.5q0 25 15 39.5t39 14.5t39 -14.5t15 -39.5q0 -24 -15 -39.5t-39 -15.5z" />
    <glyph glyph-name="one" unicode="1" 
d="M52 0l9 60h204l97 613l-222 -147l12 74l197 130h88l-106 -670h168l-9 -60h-438z" />
    <glyph glyph-name="two" unicode="2" 
d="M50 0l12 70l265 235q73 65 111.5 120.5t47.5 107.5q11 69 -22.5 109t-101.5 40q-71 0 -118.5 -40.5t-58.5 -110.5h-66q12 64 46.5 111t87.5 72.5t118 25.5t109 -25t63 -70.5t9 -109.5q-10 -66 -55.5 -133t-132.5 -142l-231 -200h361l-10 -60h-434z" />
    <glyph glyph-name="three" unicode="3" 
d="M244 -10q-63 0 -106 25.5t-61 71t-8 107.5h66q-11 -68 21 -106.5t98 -38.5q67 0 111 39.5t54 105.5l10 66q11 67 -20.5 104.5t-98.5 37.5h-61l10 63l216 205h-304l10 60h373l-11 -66l-226 -214l1 11q96 0 144 -54.5t33 -146.5l-10 -66q-10 -62 -43 -107.5t-84 -71
t-114 -25.5z" />
    <glyph glyph-name="four" unicode="4" 
d="M381 0l26 166h-333l19 116l361 447h74l-371 -463l-7 -40h267l31 194h66l-67 -420h-66z" />
    <glyph glyph-name="five" unicode="5" 
d="M253 -10q-88 0 -135 46.5t-42 127.5h66q-4 -54 27.5 -84.5t94.5 -30.5q67 0 109.5 40.5t54.5 112.5l11 68q11 72 -18.5 111.5t-97.5 39.5q-47 0 -83.5 -25t-56.5 -70h-66l69 404h370l-10 -60h-306l-48 -280h24l-31 -30q9 55 55 87.5t115 32.5q88 0 127 -54.5t23 -155.5
l-11 -68q-15 -97 -79.5 -154.5t-161.5 -57.5z" />
    <glyph glyph-name="six" unicode="6" 
d="M254 -10q-66 0 -111.5 29t-64.5 81.5t-8 121.5q8 50 30 99t58 97l237 312h74l-261 -339l4 -3q20 22 57.5 39.5t83.5 17.5q60 0 99 -27.5t55.5 -77.5t5.5 -118q-11 -69 -47 -121.5t-90.5 -81t-121.5 -29.5zM264 49q70 0 120.5 47.5t62.5 125.5q12 75 -23.5 121.5
t-105.5 46.5t-120 -46t-62 -122q-14 -78 21.5 -125.5t106.5 -47.5z" />
    <glyph glyph-name="seven" unicode="7" 
d="M155 0l367 667h-308l-22 -135h-69l32 198h446l-11 -68l-359 -662h-76z" />
    <glyph glyph-name="eight" unicode="8" 
d="M254 -10q-99 0 -148 51t-36 138q11 65 54.5 112t130.5 85l101 46q59 26 89.5 61t37.5 78q9 54 -24 87t-95 33q-61 0 -101.5 -32.5t-49.5 -88.5q-7 -43 12 -78t65 -59l85 -46q76 -40 105 -86.5t18 -111.5q-9 -58 -42 -100.5t-84.5 -65.5t-117.5 -23zM264 49q69 0 114 35
t55 94q7 49 -14.5 88t-71.5 66l-85 45q-68 36 -95.5 81.5t-18.5 104.5q9 53 40 93t79 62t106 22q59 0 101.5 -22.5t62.5 -62.5t12 -92q-10 -58 -54 -103.5t-126 -83.5l-100 -44q-58 -26 -91.5 -65t-41.5 -87q-10 -60 25 -95.5t103 -35.5z" />
    <glyph glyph-name="nine" unicode="9" 
d="M159 0l262 339l-3 3q-20 -22 -58.5 -39.5t-84.5 -17.5q-59 0 -98.5 27.5t-56 78t-5.5 117.5q11 70 46.5 122t90.5 81t121 29q67 0 112 -29t64.5 -81t8.5 -122q-7 -50 -29.5 -99t-58.5 -97l-237 -312h-74zM310 340q70 0 120 46.5t63 122.5q13 77 -22 124.5t-107 47.5
q-70 0 -120 -47.5t-63 -125.5q-12 -75 23.5 -121.5t105.5 -46.5z" />
    <glyph glyph-name="colon" unicode=":" 
d="M321 414q-34 0 -52 20t-13 53t29.5 53t59.5 20t52.5 -20t12.5 -53t-29 -53t-60 -20zM254 -10q-35 0 -52.5 20t-12.5 53t29.5 53t58.5 20q35 0 53 -20t13 -53t-29.5 -53t-59.5 -20z" />
    <glyph glyph-name="semicolon" unicode=";" 
d="M113 -160l126 311h108l-176 -311h-58zM315 416q-32 0 -49 20t-12 52t28.5 52t55.5 20h14q32 0 49 -20t12 -52t-28 -52t-56 -20h-14z" />
    <glyph glyph-name="less" unicode="&#x3c;" 
d="M480 74l-389 222l11 68l459 222l-11 -70l-323 -153q-21 -11 -43.5 -20.5t-34.5 -14.5q11 -5 30.5 -15t37.5 -20l274 -155z" />
    <glyph glyph-name="equal" unicode="=" 
d="M113 417l10 59h418l-10 -59h-418zM76 185l10 59h418l-10 -59h-418z" />
    <glyph glyph-name="greater" unicode="&#x3e;" 
d="M56 74l10 69l323 154q22 10 44 19.5t35 14.5q-12 5 -31 15t-37 20l-274 155l11 65l389 -222l-11 -68z" />
    <glyph glyph-name="question" unicode="?" 
d="M217 205l28 174h50q69 0 116.5 39.5t57.5 105.5t-25 105.5t-104 39.5h-122l10 61h122q99 0 149.5 -56t35.5 -150q-9 -59 -41.5 -104.5t-81.5 -71t-110 -26.5l-19 -117h-66zM208 -5q-26 0 -39 16t-9 41t22.5 41t43.5 16h15q27 0 39.5 -15.5t8.5 -41.5q-4 -25 -22.5 -41
t-43.5 -16h-15z" />
    <glyph glyph-name="at" unicode="@" 
d="M253 -179q-83 0 -137.5 36t-76.5 101.5t-8 155.5l52 333q15 91 56 156.5t104.5 101t144.5 35.5q73 0 121 -30.5t68 -87t7 -133.5l-67 -424h-55l10 61h-26l22 20q-6 -41 -41 -66t-86 -25q-64 0 -92.5 40t-16.5 115l20 126q12 73 52.5 111t104.5 38q53 0 79 -24t19 -67
l-15 20h26l4 70v5q11 62 -3 106t-49 67.5t-91 23.5q-94 0 -154.5 -63t-79.5 -176l-52 -333q-18 -109 27 -172.5t142 -63.5h73l-9 -57h-73zM370 107q45 0 73 27.5t36 79.5l19 122q8 48 -11.5 72.5t-64.5 24.5q-46 0 -73 -24t-35 -73l-20 -126q-8 -52 11.5 -77.5t64.5 -25.5z
" />
    <glyph glyph-name="A" unicode="A" 
d="M17 0l312 730h86l80 -730h-65l-21 204h-238l-85 -204h-69zM194 261h210l-28 267q-6 58 -8 97t-3 51q-4 -12 -18.5 -51t-39.5 -97z" />
    <glyph glyph-name="B" unicode="B" 
d="M59 0l116 730h196q94 0 141.5 -50.5t33.5 -137.5q-8 -51 -34 -89t-66 -59t-91 -21l2 12q55 1 92.5 -21.5t53.5 -64t7 -98.5q-10 -61 -43.5 -106.5t-85.5 -70t-118 -24.5h-204zM134 60h134q71 0 118 38t58 104t-24 106t-106 40h-134zM189 406h130q65 0 108 35.5t53 96.5
q10 62 -22 97t-97 35h-131z" />
    <glyph glyph-name="C" unicode="C" 
d="M259 -10q-63 0 -105.5 25t-60 71t-8.5 108l54 342q11 63 43 109t82.5 70.5t113.5 24.5q64 0 106.5 -26t60.5 -73t8 -111h-66q11 71 -20.5 111t-97.5 40t-109.5 -38.5t-54.5 -106.5l-54 -342q-11 -68 21 -106.5t97 -38.5q67 0 111 40.5t55 110.5h66q-10 -64 -43.5 -111
t-84 -73t-114.5 -26z" />
    <glyph glyph-name="D" unicode="D" 
d="M59 0l116 730h171q70 0 116.5 -27.5t67 -76.5t9.5 -116l-46 -290q-10 -66 -46.5 -115.5t-91.5 -77t-125 -27.5h-171zM134 60h106q74 0 124.5 43t62.5 117l46 290q11 73 -26 116.5t-111 43.5h-105z" />
    <glyph glyph-name="E" unicode="E" 
d="M68 0l116 730h402l-10 -60h-336l-41 -259h301l-9 -60h-302l-46 -291h336l-9 -60h-402z" />
    <glyph glyph-name="F" unicode="F" 
d="M63 0l116 730h418l-10 -60h-353l-43 -272h321l-9 -61h-321l-53 -337h-66z" />
    <glyph glyph-name="G" unicode="G" 
d="M259 -10q-63 0 -105.5 25t-60 71t-8.5 108l54 342q11 63 43 109t82.5 70.5t113.5 24.5q64 0 106.5 -26t60.5 -73t8 -111h-66q11 71 -20.5 111t-97.5 40t-109.5 -38.5t-54.5 -106.5l-54 -342q-11 -68 21 -106.5t97 -38.5q67 0 111 40.5t55 110.5l16 102h-163l9 60h229
l-25 -162q-10 -64 -43.5 -111t-84 -73t-114.5 -26z" />
    <glyph glyph-name="H" unicode="H" 
d="M59 0l116 730h66l-51 -322h262l51 322h66l-116 -730h-66l55 348h-262l-55 -348h-66z" />
    <glyph glyph-name="I" unicode="I" 
d="M70 0l9 60h154l96 610h-153l10 61h372l-10 -61h-152l-97 -610h152l-9 -60h-372z" />
    <glyph glyph-name="J" unicode="J" 
d="M227 -10q-100 0 -147.5 57t-31.5 157h66q-11 -73 21.5 -114t101.5 -41t114.5 41t56.5 113l74 466h-182l10 61h248l-84 -527q-10 -66 -43.5 -114t-85.5 -73.5t-118 -25.5z" />
    <glyph glyph-name="K" unicode="K" 
d="M59 0l116 731h66l-51 -324h133l212 324h75l-231 -354l125 -377h-74l-114 349h-136l-55 -349h-66z" />
    <glyph glyph-name="L" unicode="L" 
d="M74 0l116 730h66l-107 -670h345l-9 -60h-411z" />
    <glyph glyph-name="M" unicode="M" 
d="M42 0l116 730h90l49 -262q5 -26 10 -54.5t7 -45.5q8 17 21.5 45.5t25.5 54.5l132 262h93l-116 -730h-64l59 370q6 42 14.5 87.5t18 89.5t18.5 83t16 67l-189 -374h-70l-72 374q-1 -28 -5 -66t-8.5 -82.5t-10 -90.5t-12.5 -88l-59 -370h-64z" />
    <glyph glyph-name="N" unicode="N" 
d="M58 0l116 730h88l147 -655q2 22 5 51t6.5 57t6.5 47l79 500h64l-116 -730h-88l-145 655q-2 -15 -5 -40t-6.5 -55t-8.5 -60l-79 -500h-64z" />
    <glyph glyph-name="O" unicode="O" 
d="M254 -10q-61 0 -102.5 24.5t-58.5 70.5t-8 109l54 342q11 63 42.5 108.5t81 70.5t110.5 25q62 0 103.5 -25t59 -70.5t7.5 -108.5l-54 -342q-10 -63 -42 -109t-81.5 -70.5t-111.5 -24.5zM263 49q65 0 106.5 38t53.5 107l54 342q11 69 -19 107t-94 38t-106 -38t-53 -107
l-54 -342q-11 -69 18.5 -107t93.5 -38z" />
    <glyph glyph-name="P" unicode="P" 
d="M59 0l116 730h223q65 0 109.5 -25.5t63.5 -72t9 -110.5q-10 -62 -44 -109t-86.5 -73t-117.5 -26h-157l-50 -314h-66zM184 374h157q68 0 114.5 40.5t56.5 107.5q12 69 -22 108.5t-102 39.5h-157z" />
    <glyph glyph-name="Q" unicode="Q" 
d="M370 -180l-80 179l10 -5q-8 -1 -20.5 -2.5t-24.5 -1.5q-63 0 -105.5 25.5t-60 72t-7.5 108.5l54 338q10 63 42.5 109t82.5 71.5t113 25.5t104.5 -26t59.5 -72.5t8 -107.5l-54 -338q-11 -70 -51 -120.5t-101 -70.5l3 34l97 -219h-70zM265 49q64 0 107 39.5t54 107.5
l54 338q11 69 -20 108t-95 39q-65 0 -108.5 -39t-54.5 -108l-54 -338q-11 -68 20.5 -107.5t96.5 -39.5z" />
    <glyph glyph-name="R" unicode="R" 
d="M59 0l116 730h213q65 0 108.5 -25.5t62.5 -71.5t9 -108q-8 -55 -36.5 -98t-72.5 -69.5t-99 -33.5l7 31l123 -355h-74l-106 322h-134l-51 -322h-66zM185 381h147q67 0 113 40t56 105q11 66 -23 105t-100 39h-147z" />
    <glyph glyph-name="S" unicode="S" 
d="M259 -10q-104 0 -155.5 53t-38.5 144h66q-9 -63 28 -100.5t110 -37.5q70 0 115 35t55 97q8 56 -14.5 94.5t-71.5 53.5l-86 27q-69 22 -101.5 74.5t-21.5 123.5q9 57 40.5 98.5t81.5 64.5t113 23q94 0 141 -52t33 -141h-66q10 62 -22 98t-96 36q-65 0 -107.5 -32
t-51.5 -90q-7 -52 14.5 -90t68.5 -53l86 -28q71 -22 104.5 -77.5t22.5 -126.5q-9 -59 -43 -102.5t-86.5 -67.5t-117.5 -24z" />
    <glyph glyph-name="T" unicode="T" 
d="M224 0l106 670h-210l10 60h484l-10 -60h-208l-106 -670h-66z" />
    <glyph glyph-name="U" unicode="U" 
d="M255 -10q-94 0 -138 55.5t-29 148.5l85 536h66l-85 -536q-11 -68 17.5 -106.5t93.5 -38.5q64 0 104 38.5t51 106.5l85 536h66l-85 -536q-9 -62 -40.5 -108t-80 -71t-110.5 -25z" />
    <glyph glyph-name="V" unicode="V" 
d="M212 0l-79 730h66l55 -528q5 -47 7.5 -88t2.5 -62q7 21 22 62t34 88l223 528h68l-311 -730h-88z" />
    <glyph glyph-name="W" unicode="W" 
d="M78 0l28 730h60l-23 -540q-1 -20 -2.5 -46l-3 -52t-2.5 -45q6 19 13 45t14.5 52t13.5 46l159 540h76l-16 -540q-1 -20 -1.5 -46t-1.5 -52t-2 -45q6 19 13 45l14 52t13 46l146 540h62l-205 -730h-88l16 538q1 25 2 51.5t2 51t1 40.5q-4 -16 -11 -40.5t-15 -51t-15 -51.5
l-160 -538h-87z" />
    <glyph glyph-name="X" unicode="X" 
d="M4 0l274 377l-145 353h73l83 -220q6 -17 16.5 -41t17.5 -41q12 17 28.5 41t28.5 41l156 220h75l-257 -352l154 -378h-72l-93 244q-6 16 -16.5 40.5t-16.5 41.5q-13 -17 -30 -41t-28 -41l-172 -244h-76z" />
    <glyph glyph-name="Y" unicode="Y" 
d="M223 0l44 277l-151 453h66l106 -318q8 -23 13.5 -41.5t7.5 -27.5q6 8 16.5 27t25.5 42l207 318h70l-295 -453l-44 -277h-66z" />
    <glyph glyph-name="Z" unicode="Z" 
d="M45 0l10 66l438 604h-338l10 60h406l-11 -70l-436 -600h352l-9 -60h-422z" />
    <glyph glyph-name="bracketleft" unicode="[" 
d="M153 -110l148 940h233l-9 -59h-167l-130 -822h167l-9 -59h-233z" />
    <glyph glyph-name="backslash" unicode="\" 
d="M385 -110l-211 940h67l211 -940h-67z" />
    <glyph glyph-name="bracketright" unicode="]" 
d="M92 -110l9 59h167l130 822h-167l9 59h233l-148 -940h-233z" />
    <glyph glyph-name="asciicircum" unicode="^" 
d="M102 340l239 390h66l111 -390h-64l-71 259q-5 20 -9.5 41t-6.5 33q-6 -12 -17.5 -33t-22.5 -41l-155 -259h-70z" />
    <glyph glyph-name="underscore" unicode="_" 
d="M3 -82l9 57h480l-9 -57h-480z" />
    <glyph glyph-name="grave" unicode="`" 
d="M367 645l-91 140h72l86 -140h-67z" />
    <glyph glyph-name="a" unicode="a" 
d="M234 -10q-82 0 -122.5 54.5t-26.5 146.5l26 167q10 62 39.5 107t74.5 70t100 25q70 0 107.5 -39.5t26.5 -104.5l-16 47h18l14 87h66l-87 -550h-66l14 87h-24l37 47q-10 -66 -60.5 -105t-120.5 -39zM261 47q63 0 105 39t52 107l26 163q11 69 -18 108t-93 39
q-63 0 -104 -38.5t-52 -108.5l-26 -163q-10 -69 18.5 -107.5t91.5 -38.5z" />
    <glyph glyph-name="b" unicode="b" 
d="M275 -10q-71 0 -108 39t-27 105l23 -47h-24l-14 -87h-66l116 730h66l-25 -154l-19 -113h19l-31 -47q10 65 60.5 104.5t120.5 39.5q83 0 123 -55t25 -147l-26 -167q-9 -61 -39 -106t-74.5 -70t-99.5 -25zM266 47q63 0 104 38.5t53 107.5l25 163q12 70 -17.5 108.5
t-92.5 38.5t-104 -39t-53 -108l-25 -163q-12 -68 18 -107t92 -39z" />
    <glyph glyph-name="c" unicode="c" 
d="M257 -10q-63 0 -105 24.5t-59 70.5t-8 109l25 162q11 63 43 108.5t82 70.5t113 25q92 0 139.5 -51.5t34.5 -138.5h-66q9 62 -22.5 96t-95.5 34q-65 0 -108 -37.5t-53 -106.5l-26 -162q-11 -68 20 -106t96 -38q64 0 106 34.5t53 95.5h66q-15 -87 -79 -138.5t-156 -51.5z
" />
    <glyph glyph-name="d" unicode="d" 
d="M234 -10q-82 0 -122.5 54.5t-26.5 146.5l26 167q10 62 39.5 107t74.5 70t100 25q70 0 107.5 -39.5t26.5 -104.5l-16 47h18l18 113l25 154h66l-116 -730h-66l14 87h-24l37 47q-10 -66 -60.5 -105t-120.5 -39zM261 47q63 0 104.5 39t52.5 107l26 163q11 69 -18 108t-93 39
q-63 0 -104 -38.5t-52 -108.5l-26 -163q-11 -69 18 -107.5t92 -38.5z" />
    <glyph glyph-name="e" unicode="e" 
d="M255 -10q-63 0 -104 25t-58 71t-8 108l25 162q11 62 42.5 107.5t81 71t112.5 25.5q62 0 103 -25.5t58 -71t7 -107.5l-15 -96h-338l-11 -66q-10 -69 18.5 -108t95.5 -39q54 0 91.5 23.5t56.5 66.5h66q-16 -45 -47.5 -78t-76.5 -51t-99 -18zM441 305l8 51
q11 69 -17.5 108.5t-94.5 39.5q-67 0 -108.5 -39t-52.5 -109l-7 -43h283z" />
    <glyph glyph-name="f" unicode="f" 
d="M-34 -180l10 60h113q39 0 62.5 20t29.5 59l76 476h-166l9 59h166l16 97q7 43 29.5 74t58 48t81.5 17h161l-10 -60h-162q-39 0 -62.5 -20t-29.5 -59l-16 -97h230l-10 -59h-229l-76 -476q-9 -64 -54.5 -101.5t-114.5 -37.5h-112z" />
    <glyph glyph-name="g" unicode="g" 
d="M97 -180l10 60h157q52 0 82.5 26t38.5 77l9 55l18 109h-18l27 33q-10 -65 -59 -103.5t-119 -38.5q-83 0 -123.5 55t-26.5 146l19 119q10 62 39.5 107t74.5 70t100 25q70 0 106.5 -38.5t25.5 -103.5l-13 33h14l16 99h66l-90 -567q-12 -79 -63.5 -121t-134.5 -42h-156z
M269 95q63 0 105 39t52 107l18 115q11 69 -18 108t-92 39t-104.5 -38.5t-52.5 -108.5l-18 -115q-10 -69 18.5 -107.5t91.5 -38.5z" />
    <glyph glyph-name="h" unicode="h" 
d="M59 0l116 730h66l-26 -162l-18 -108h22l-33 -44q11 66 59.5 105t118.5 39q82 0 123 -51.5t27 -140.5l-59 -368h-66l57 360q11 68 -17.5 106t-89.5 38q-62 0 -104.5 -39.5t-53.5 -108.5l-56 -356h-66z" />
    <glyph glyph-name="i" unicode="i" 
d="M45 0l9 60h199l68 430h-173l9 60h240l-78 -490h187l-9 -60h-452zM379 653q-28 0 -44 15.5t-15 42.5q2 27 20.5 43t46.5 16q29 0 45.5 -16t14.5 -43t-20.5 -42.5t-47.5 -15.5z" />
    <glyph glyph-name="j" unicode="j" 
d="M18 -180l10 60h133q67 0 108.5 36t52.5 102l74 472h-242l9 60h308l-83 -532q-10 -61 -42 -105.5t-82 -68.5t-113 -24h-133zM454 653q-28 0 -44 15.5t-15 42.5q2 27 20.5 43t46.5 16q29 0 45.5 -16t14.5 -43t-20.5 -42.5t-47.5 -15.5z" />
    <glyph glyph-name="k" unicode="k" 
d="M62 0l116 730h66l-66 -415h116l204 235h79l-229 -266l145 -284h-76l-129 256h-119l-41 -256h-66z" />
    <glyph glyph-name="l" unicode="l" 
d="M321 0q-69 0 -102.5 38t-22.5 105l83 527h-171l10 60h237l-93 -587q-7 -40 11 -61.5t57 -21.5h179l-9 -60h-179z" />
    <glyph glyph-name="m" unicode="m" 
d="M30 0l87 550h58l-11 -71h10l-9 -18q7 45 36 72t72 27q44 0 65.5 -29t16.5 -82l-9 30h22l-12 -18q7 45 36 72t73 27q50 0 72.5 -36.5t11.5 -97.5l-67 -426h-62l66 423q6 39 -7 61.5t-44 22.5q-32 0 -54.5 -22.5t-28.5 -61.5l-67 -423h-58l67 423q6 39 -8 61.5t-45 22.5
t-52.5 -22.5t-29.5 -61.5l-67 -423h-62z" />
    <glyph glyph-name="n" unicode="n" 
d="M59 0l87 550h66l-16 -99h21l-31 -39q11 69 59 108.5t119 39.5q82 0 123 -51.5t27 -140.5l-59 -368h-66l57 360q11 68 -17.5 106t-89.5 38q-62 0 -104.5 -39.5t-53.5 -108.5l-56 -356h-66z" />
    <glyph glyph-name="o" unicode="o" 
d="M254 -10q-61 0 -102.5 24.5t-58.5 70.5t-8 109l25 162q11 63 42.5 108.5t81.5 70.5t111 25q62 0 103 -25t58.5 -70.5t7.5 -108.5l-25 -162q-10 -63 -42 -109t-81.5 -70.5t-111.5 -24.5zM263 48q65 0 106.5 38t53.5 108l25 162q12 70 -18 108t-94 38t-106 -38t-54 -108
l-25 -162q-11 -70 18.5 -108t93.5 -38z" />
    <glyph glyph-name="p" unicode="p" 
d="M30 -180l116 730h66l-14 -87h24l-37 -47q10 66 60 105t121 39q83 0 123 -54.5t25 -146.5l-26 -167q-9 -61 -38.5 -106.5t-74.5 -70.5t-100 -25q-71 0 -108 39.5t-27 104.5l17 -47h-19l-14 -95l-28 -172h-66zM266 47q63 0 104 38.5t53 108.5l25 163q12 70 -17 108t-92 38
t-104.5 -38.5t-53.5 -107.5l-25 -163q-12 -69 18 -108t92 -39z" />
    <glyph glyph-name="q" unicode="q" 
d="M358 -180l25 154l19 113h-19l31 47q-10 -65 -60 -104.5t-121 -39.5q-82 0 -122.5 55t-25.5 147l26 167q10 61 39.5 106.5t74 70t99.5 24.5q71 0 108.5 -39t26.5 -105l-23 47h24l14 87h66l-116 -730h-66zM261 47q63 0 104.5 39t52.5 108l25 163q12 69 -17.5 107.5
t-92.5 38.5t-104 -38t-53 -108l-25 -163q-11 -69 18 -108t92 -39z" />
    <glyph glyph-name="r" unicode="r" 
d="M77 0l87 550h65l-14 -87h21l-39 -65q13 78 60.5 120t121.5 42q88 0 130 -54t28 -147l-5 -31h-69l5 28q11 70 -18 109t-93 39q-63 0 -105 -39t-53 -109l-56 -356h-66z" />
    <glyph glyph-name="s" unicode="s" 
d="M228 -10q-79 0 -121.5 40t-39.5 105h66q1 -37 29 -61.5t76 -24.5h57q55 0 88.5 26t40.5 69q6 40 -14.5 67t-64.5 33l-91 14q-72 11 -106 48t-23 102q11 70 65 111t139 41h40q77 0 118 -37.5t40 -99.5h-66q0 34 -26.5 56t-74.5 22h-41q-54 0 -87.5 -25t-40.5 -68
q-5 -39 14.5 -60.5t67.5 -29.5l90 -14q72 -11 105 -51t23 -107q-12 -72 -66 -114t-140 -42h-57z" />
    <glyph glyph-name="t" unicode="t" 
d="M316 0q-66 0 -96.5 34.5t-20.5 98.5l57 357h-158l9 60h158l24 150h66l-24 -150h223l-9 -60h-223l-57 -357q-11 -73 60 -73h141l-9 -60h-141z" />
    <glyph glyph-name="u" unicode="u" 
d="M253 -10q-91 0 -135.5 55.5t-29.5 150.5l56 354h66l-56 -354q-11 -69 18 -108t91 -39q63 0 104.5 39t53.5 108l55 354h66l-55 -354q-10 -63 -42 -109.5t-81 -71.5t-111 -25z" />
    <glyph glyph-name="v" unicode="v" 
d="M213 0l-100 550h65l68 -394q5 -29 9.5 -59t6.5 -47q8 17 21.5 47t28.5 59l191 394h70l-274 -550h-86z" />
    <glyph glyph-name="w" unicode="w" 
d="M91 0l-4 550h58l-1 -401q0 -22 -0.5 -51.5t-1.5 -48.5q5 19 14.5 48t16.5 51l136 402h66l9 -402q0 -22 0.5 -51t-0.5 -48q5 19 13 48.5t15 51.5l128 401h59l-180 -550h-79l-4 387q-1 27 -1 58.5v50.5q-6 -19 -16.5 -50.5l-19.5 -58.5l-129 -387h-79z" />
    <glyph glyph-name="x" unicode="x" 
d="M23 0l239 284l-140 266h75l93 -188q5 -9 9.5 -20.5t8.5 -18.5q5 7 13 18.5t14 20.5l151 188h79l-224 -270l148 -280h-75l-99 198q-4 10 -10.5 22.5t-9.5 19.5q-6 -7 -15 -19.5t-17 -22.5l-161 -198h-79z" />
    <glyph glyph-name="y" unicode="y" 
d="M92 -180l10 60h157q53 0 83.5 26t38.5 77l11 69l16 97h-22l32 39q-11 -68 -59 -108t-120 -40q-81 0 -122 52t-27 140l50 318h66l-49 -310q-11 -68 18.5 -106t89.5 -38q62 0 104.5 39.5t53.5 108.5l48 306h66l-90 -567q-12 -79 -63.5 -121t-134.5 -42h-157z" />
    <glyph glyph-name="z" unicode="z" 
d="M54 0l10 64l382 426h-306l9 60h384l-10 -64l-385 -426h330l-10 -60h-404z" />
    <glyph glyph-name="braceleft" unicode="{" 
d="M394 -110q-52 0 -87.5 18.5t-49.5 53.5t-3 84l43 184q11 53 -4.5 76.5t-80.5 23.5h-110l10 59h110q63 0 87 23t28 77l17 185q5 50 29.5 84.5t65.5 53t93 18.5h51l-9 -59h-51q-46 0 -77.5 -25.5t-35.5 -71.5l-17 -185q-5 -59 -42 -95.5t-93 -36.5l1 7q55 0 81.5 -37
t12.5 -97l-43 -184q-10 -46 13.5 -71.5t69.5 -25.5h51l-9 -59h-51z" />
    <glyph glyph-name="bar" unicode="|" 
d="M206 -110l148 940h66l-148 -940h-66z" />
    <glyph glyph-name="braceright" unicode="}" 
d="M33 -110l9 59h50q47 0 78.5 25.5t35.5 71.5l17 184q5 60 42.5 97t93.5 37l-1 -7q-56 0 -82 36.5t-13 95.5l42 185q10 46 -13 71.5t-70 25.5h-50l9 59h50q53 0 88 -18.5t49.5 -53t2.5 -84.5l-42 -185q-11 -54 5.5 -77t79.5 -23h110l-10 -59h-110q-64 0 -87 -23.5
t-28 -76.5l-17 -184q-5 -49 -30 -84t-65.5 -53.5t-93.5 -18.5h-50z" />
    <glyph glyph-name="asciitilde" unicode="~" 
d="M74 258l12 73q9 54 45 86t88 32q36 0 58.5 -14t38.5 -34.5t29 -41t29.5 -34.5t40.5 -14q25 0 41.5 16.5t20.5 46.5l11 73h61l-11 -73q-7 -54 -43 -86t-87 -32q-36 0 -59.5 14t-39.5 34.5t-28.5 41t-29 34.5t-39.5 14q-26 0 -43 -16.5t-22 -46.5l-11 -73h-62z" />
    <glyph glyph-name="uni00A0" unicode="&#xa0;" 
 />
    <glyph glyph-name="exclamdown" unicode="&#xa1;" 
d="M189 -180l24 146l77 375h44l-42 -375l-23 -146h-80zM320 441q-27 0 -40.5 16t-9.5 42t23 41t45 15h11q27 0 41 -15t9 -41q-4 -26 -23 -42t-45 -16h-11z" />
    <glyph glyph-name="cent" unicode="&#xa2;" 
d="M218 -140l131 830h48l-131 -830h-48zM257 -10q-63 0 -105 24.5t-59 70.5t-8 109l25 162q11 63 43 108.5t82 70.5t113 25q92 0 139.5 -51.5t34.5 -138.5h-66q9 62 -22.5 96t-95.5 34q-65 0 -108 -37.5t-53 -106.5l-26 -162q-11 -68 20 -106t96 -38q64 0 106 34.5t53 95.5
h66q-15 -87 -79 -138.5t-156 -51.5z" />
    <glyph glyph-name="sterling" unicode="&#xa3;" 
d="M31 0l11 70q29 17 61.5 45t57 61t29.5 67q7 41 2 72.5t-15.5 58.5t-21 52.5t-15.5 55t1 68.5q9 58 40 101t80.5 66t111.5 23q66 0 110.5 -23t64.5 -65.5t11 -101.5h-68q9 61 -25.5 96t-102.5 35q-63 0 -104.5 -35.5t-51.5 -98.5q-6 -35 0 -62.5t16.5 -53t21 -52t15 -58.5
t-2.5 -75q-6 -42 -31 -78.5t-57 -64.5t-60 -44h391l-9 -59h-460zM81 314l9 59h360l-9 -59h-360z" />
    <glyph glyph-name="currency" unicode="&#xa4;" 
d="M479 123l-91 108l34 -12q-29 -22 -64.5 -33.5t-72.5 -11.5q-40 0 -71.5 12.5t-54.5 34.5l37 8l-121 -105l-39 47l119 104l-13 -36q-18 26 -26.5 60t-1.5 74q7 39 25 73t45 59l6 -35l-91 108l52 46l93 -110l-34 12q28 22 63.5 34t73.5 12q40 0 72 -12.5t55 -35.5l-38 -8
l121 105l39 -46l-120 -104l13 36q19 -26 27.5 -60t1.5 -74q-7 -39 -25 -73t-46 -61l-6 36l90 -106zM293 230q40 0 75 19t59 51.5t30 72.5q6 41 -7 73t-42 51t-69 19t-75 -19t-59 -51t-31 -73q-6 -40 7.5 -72.5t42.5 -51.5t69 -19z" />
    <glyph glyph-name="yen" unicode="&#xa5;" 
d="M59 270l10 60h480l-10 -60h-480zM37 135l10 60h480l-10 -60h-480zM223 0l44 277l-151 453h66l106 -318q8 -23 13.5 -41.5t7.5 -27.5q6 8 16.5 27t25.5 42l207 318h70l-295 -453l-44 -277h-66z" />
    <glyph glyph-name="brokenbar" unicode="&#xa6;" 
d="M294 450l60 380h66l-60 -380h-66zM206 -110l60 380h66l-60 -380h-66z" />
    <glyph glyph-name="section" unicode="&#xa7;" 
d="M209 -155q-78 0 -123.5 41.5t-44.5 107.5h68q3 -39 32 -64.5t77 -25.5h52q56 0 91.5 26.5t42.5 70.5q6 41 -15 70t-65 39l-98 23q-67 16 -100.5 59t-23.5 103q6 37 25.5 67.5t49.5 51t66 27.5l1 5q-24 3 -49 18.5t-38.5 45.5t-6.5 76q11 71 67 112.5t141 41.5h37
q77 0 121 -38t43 -101h-68q-2 35 -30 57.5t-75 22.5h-37q-54 0 -89.5 -25.5t-42.5 -69.5q-6 -37 16.5 -63t68.5 -38l96 -22q63 -15 95.5 -58t22.5 -104q-5 -36 -24.5 -67t-49 -51t-65.5 -24l-1 -6q25 -4 49.5 -21t38.5 -48t6 -77q-11 -74 -67.5 -118t-141.5 -44h-52z
M317 177q29 -7 57.5 7.5t49 43.5t25.5 65q7 40 -12.5 70.5t-58.5 39.5l-71 16q-29 7 -58.5 -8t-51 -44t-27.5 -65q-7 -40 13.5 -69.5t63.5 -39.5z" />
    <glyph glyph-name="dieresis" unicode="&#xa8;" 
d="M468 653q-26 0 -39.5 15.5t-9.5 42.5q5 27 23 43t44 16q25 0 38.5 -16t8.5 -43q-4 -27 -22 -42.5t-43 -15.5zM250 653q-25 0 -38.5 15.5t-9.5 42.5q5 27 23 43t43 16t39 -16t9 -43q-4 -27 -22 -42.5t-44 -15.5z" />
    <glyph glyph-name="copyright" unicode="&#xa9;" 
d="M273 110q-75 0 -127 30t-74.5 84t-11.5 126l24 150q12 73 52 126.5t101 83.5t136 30q76 0 127.5 -30t74.5 -83.5t11 -126.5l-24 -150q-11 -72 -51.5 -126t-101 -84t-136.5 -30zM280 153q61 0 110 24.5t82 69t42 103.5l24 150q10 59 -9 103t-60.5 69t-102.5 25
q-60 0 -109.5 -25t-82 -69t-42.5 -103l-24 -150q-9 -59 9.5 -103.5t60.5 -69t102 -24.5zM300 245q-54 0 -81.5 31.5t-19.5 83.5l21 130q8 52 45.5 83.5t91.5 31.5q53 0 80.5 -31.5t19.5 -83.5h-53q5 31 -10.5 50t-44.5 19t-50.5 -19t-25.5 -50l-21 -130q-5 -31 10.5 -50
t44.5 -19t50.5 19t25.5 50h53q-8 -52 -45.5 -83.5t-90.5 -31.5z" />
    <glyph glyph-name="ordfeminine" unicode="&#xaa;" 
d="M407 455l9 55h-3l22 140q5 25 -12.5 40.5t-49.5 15.5q-28 0 -49.5 -12.5t-28.5 -33.5h-41q12 37 45.5 58.5t78.5 21.5q51 0 78 -24.5t20 -65.5l-31 -195h-38zM301 450q-44 0 -66.5 23t-15.5 62q6 39 36.5 62t75.5 23h110l-5 -34h-110q-27 0 -44.5 -13.5t-21.5 -37.5
t12 -38.5t47 -14.5q41 0 68 20t33 53h11l-7 -45h-11q-14 -27 -44.5 -43.5t-67.5 -16.5z" />
    <glyph glyph-name="guillemotleft" unicode="&#xab;" 
d="M443 40l-170 240l243 240h82l-247 -242l167 -238h-75zM211 40l-169 240l243 240h81l-247 -242l168 -238h-76z" />
    <glyph glyph-name="logicalnot" unicode="&#xac;" 
d="M455 211l22 136h-396l9 59h460l-31 -195h-64z" />
    <glyph glyph-name="uni00AD" unicode="&#xad;" 
d="M144 301l9 59h320l-9 -59h-320z" />
    <glyph glyph-name="registered" unicode="&#xae;" 
d="M273 110q-75 0 -127 30t-74.5 84t-11.5 126l24 150q12 73 52 126.5t101 83.5t136 30q76 0 127.5 -30t74.5 -83.5t11 -126.5l-24 -150q-11 -72 -51.5 -126t-101 -84t-136.5 -30zM280 153q60 0 109.5 24.5t82.5 69t42 103.5l24 150q10 59 -9 103t-60.5 69t-102.5 25
q-60 0 -109.5 -25t-82 -69t-42.5 -103l-24 -150q-9 -59 9.5 -103.5t60.5 -69t102 -24.5zM192 250l55 350h109q50 0 76 -28t18 -75q-7 -39 -32.5 -66t-65.5 -35l11 34l53 -180h-54l-39 143h-57l-23 -143h-51zM272 437h58q28 0 48 16t24 43q5 27 -10 43.5t-43 16.5h-58z" />
    <glyph glyph-name="macron" unicode="&#xaf;" 
d="M215 678l9 56h296l-9 -56h-296z" />
    <glyph glyph-name="degree" unicode="&#xb0;" 
d="M327 450q-66 0 -100 40t-24 105q11 66 57.5 105.5t112.5 39.5t100.5 -40t23.5 -105q-10 -65 -57 -105t-113 -40zM334 494q43 0 74 28t38 73q8 46 -14.5 74t-65.5 28t-73.5 -28t-38.5 -74q-7 -45 15 -73t65 -28z" />
    <glyph glyph-name="plusminus" unicode="&#xb1;" 
d="M26 0l9 55h196l40 252h-198l9 59h198l32 204h65l-32 -204h201l-9 -59h-201l-41 -252h200l-9 -55h-460z" />
    <glyph glyph-name="uni00B2" unicode="&#xb2;" 
d="M188 405l11 65l173 120q32 23 53.5 52.5t25.5 56.5q7 43 -12.5 67.5t-59.5 24.5q-39 0 -66.5 -25t-34.5 -69h-55q12 66 56 104.5t108 38.5q66 0 98 -37.5t22 -100.5q-7 -40 -36.5 -81t-74.5 -72l-141 -94h225l-8 -50h-284z" />
    <glyph glyph-name="uni00B3" unicode="&#xb3;" 
d="M303 395q-66 0 -99 37.5t-23 99.5h55q-7 -40 13.5 -64t61.5 -24q39 0 66 24t34 64q6 40 -13.5 64.5t-58.5 24.5h-30l9 54l110 106h-178l8 49h229l-9 -57l-134 -127l3 21q64 0 96.5 -36.5t22.5 -98.5t-54 -99.5t-109 -37.5z" />
    <glyph glyph-name="acute" unicode="&#xb4;" 
d="M281 645l128 140h78l-133 -140h-73z" />
    <glyph glyph-name="uni00B5" unicode="&#xb5;" 
d="M23 -180l116 730h69l-56 -356q-11 -70 16 -106t95 -36q69 0 108.5 36t50.5 106l56 356h69l-56 -356q-16 -97 -76.5 -150.5t-153.5 -53.5q-41 0 -71.5 10.5t-49 29.5t-25.5 41h-3q1 0 2 -12t1 -29.5t-3 -36.5l-20 -173h-69z" />
    <glyph glyph-name="paragraph" unicode="&#xb6;" 
d="M191 -180l78 490q-80 0 -122 43.5t-31 114.5l17 104q7 47 35 83t71.5 55.5t96.5 19.5h62l-145 -910h-62zM361 -180l145 910h62l-145 -910h-62z" />
    <glyph glyph-name="periodcentered" unicode="&#xb7;" 
d="M254 263q-36 0 -53 21t-12 56q6 36 30.5 57t59.5 21q36 0 53 -21t11 -57q-5 -35 -29 -56t-60 -21z" />
    <glyph glyph-name="cedilla" unicode="&#xb8;" 
d="M133 -198l7 43h76q23 0 39 12.5t18 26.5q4 22 -24 36t-80 14l49 92h48l-31 -60q24 -2 49 -11.5t40.5 -27.5t10.5 -46q-4 -33 -38 -56t-82 -23h-82z" />
    <glyph glyph-name="uni00B9" unicode="&#xb9;" 
d="M184 405l8 50h129l53 329l-136 -92l10 62l110 76h78l-60 -375h106l-8 -50h-290z" />
    <glyph glyph-name="ordmasculine" unicode="&#xba;" 
d="M326 445q-50 0 -76 27.5t-19 71.5l15 95q7 45 41.5 72t85.5 27q50 0 76.5 -27t19.5 -72l-15 -95q-7 -45 -42.5 -72t-85.5 -27zM332 479q32 0 54.5 18t26.5 47l15 95q5 29 -12 47t-49 18t-54 -18t-27 -47l-15 -95q-4 -29 12.5 -47t48.5 -18z" />
    <glyph glyph-name="guillemotright" unicode="&#xbb;" 
d="M234 40l246 245l-167 235h76l169 -240l-243 -240h-81zM3 40l245 245l-166 235h75l170 -240l-243 -240h-81z" />
    <glyph glyph-name="onequarter" unicode="&#xbc;" 
d="M50 405l7 44h118l40 247q-5 -5 -15.5 -14.5t-23.5 -19.5l-71 -54l10 61l81 61h76l-46 -281h106l-7 -44h-275zM442 0l11 70h-178l12 74l158 181h57l-166 -195l-3 -16h127l16 99h51l-34 -213h-51zM26 0l537 730h56l-538 -730h-55z" />
    <glyph glyph-name="onehalf" unicode="&#xbd;" 
d="M280 0l9 56l128 73q78 44 85 92q5 29 -10.5 47t-45.5 18q-31 0 -53.5 -19.5t-27.5 -50.5h-51q9 51 47 82.5t92 31.5q52 0 80 -30t21 -77q-6 -34 -34.5 -66.5t-77.5 -59.5l-91 -50l-1 -6q14 1 33 2t32 1h118l-7 -44h-246zM55 405l7 44h118l40 247q-5 -5 -15.5 -14.5
t-23.5 -19.5l-71 -54l10 61l80 61h76l-45 -281h116l-7 -44h-285zM26 0l537 730h56l-538 -730h-55z" />
    <glyph glyph-name="threequarters" unicode="&#xbe;" 
d="M442 0l11 70h-178l12 74l158 181h57l-166 -195l-3 -16h127l16 99h51l-34 -213h-51zM173 400q-55 0 -83.5 29t-21.5 76h51q-4 -27 12.5 -44t48.5 -17t53.5 17.5t26.5 46.5q5 27 -11.5 44t-47.5 17h-30l8 49l96 68h-156l7 44h206l-8 -49l-117 -85l2 13q52 0 80.5 -28
t21.5 -73q-8 -48 -45.5 -78t-92.5 -30zM26 0l537 730h56l-538 -730h-55z" />
    <glyph glyph-name="questiondown" unicode="&#xbf;" 
d="M251 -169q-66 0 -111 24t-65 69.5t-10 107.5q9 59 41 102.5t81 68t110 26.5l19 116h66l-28 -173h-50q-69 0 -116 -37t-57 -103t25 -103t105 -37h122l-10 -61h-122zM361 442q-27 0 -41 15.5t-10 41.5q5 26 23.5 41.5t44.5 15.5h11q27 0 41 -15.5t9 -41.5
q-4 -26 -22.5 -41.5t-44.5 -15.5h-11z" />
    <glyph glyph-name="Agrave" unicode="&#xc0;" 
d="M17 0l312 730h86l80 -730h-65l-21 204h-238l-85 -204h-69zM194 261h210l-28 267q-6 58 -8 97t-3 51q-4 -12 -18.5 -51t-39.5 -97zM362 810l-91 140h73l85 -140h-67z" />
    <glyph glyph-name="Aacute" unicode="&#xc1;" 
d="M17 0l312 730h86l80 -730h-65l-21 204h-238l-85 -204h-69zM194 261h210l-28 267q-6 58 -8 97t-3 51q-4 -12 -18.5 -51t-39.5 -97zM337 810l128 140h78l-133 -140h-73z" />
    <glyph glyph-name="Acircumflex" unicode="&#xc2;" 
d="M17 0l312 730h86l80 -730h-65l-21 204h-238l-85 -204h-69zM194 261h210l-28 267q-6 58 -8 97t-3 51q-4 -12 -18.5 -51t-39.5 -97zM222 810l149 140h69l106 -140h-67l-77 97l-107 -97h-73z" />
    <glyph glyph-name="Atilde" unicode="&#xc3;" 
d="M17 0l312 730h86l80 -730h-65l-21 204h-238l-85 -204h-69zM194 261h210l-28 267q-6 58 -8 97t-3 51q-4 -12 -18.5 -51t-39.5 -97zM458 815q-29 0 -46 12.5t-29 29t-24 29t-29 12.5q-19 0 -32.5 -12t-16.5 -33l-5 -33h-50l5 33q7 43 35.5 67.5t69.5 24.5q29 0 46 -12.5
t29 -29t23.5 -29t29.5 -12.5t30 12t15 33l6 33h50l-6 -33q-7 -43 -34 -67.5t-67 -24.5z" />
    <glyph glyph-name="Adieresis" unicode="&#xc4;" 
d="M17 0l312 730h86l80 -730h-65l-21 204h-238l-85 -204h-69zM194 261h210l-28 267q-6 58 -8 97t-3 51q-4 -12 -18.5 -51t-39.5 -97zM496 822q-26 0 -39 15.5t-9 42.5q5 27 23 43t44 16q25 0 38 -16t8 -43q-4 -27 -21.5 -42.5t-43.5 -15.5zM279 822q-26 0 -39 15.5t-9 42.5
q5 27 23 43t43 16q26 0 39 -16t8 -43q-4 -27 -22 -42.5t-43 -15.5z" />
    <glyph glyph-name="Aring" unicode="&#xc5;" 
d="M17 0l312 730h86l80 -730h-65l-21 204h-238l-85 -204h-69zM194 261h210l-28 267q-6 58 -8 97t-3 51q-4 -12 -18.5 -51t-39.5 -97zM379 774q-49 0 -75.5 29.5t-19.5 76.5q8 47 43 76.5t85 29.5t76 -29.5t18 -76.5q-7 -47 -42 -76.5t-85 -29.5zM385 817q29 0 49 17t24 46
q5 29 -9.5 46.5t-42.5 17.5q-29 0 -49 -17.5t-25 -46.5q-4 -29 10.5 -46t42.5 -17z" />
    <glyph glyph-name="AE" unicode="&#xc6;" 
d="M-12 0l287 730h366l-10 -60h-198l-41 -261h167l-9 -60h-167l-46 -289h198l-10 -60h-262l33 210h-158l-83 -210h-67zM160 267h145l64 403h-53z" />
    <glyph glyph-name="Ccedilla" unicode="&#xc7;" 
d="M153 -198l7 43h76q23 0 39 12.5t18 26.5q4 22 -24 36t-80 14l49 92h48l-32 -60q25 -2 50 -11.5t40.5 -27.5t10.5 -46q-5 -33 -38.5 -56t-81.5 -23h-82zM259 -10q-63 0 -105.5 25t-60 71t-8.5 108l54 342q11 63 43 109t82.5 70.5t113.5 24.5q64 0 106.5 -26t60.5 -73
t8 -111h-66q11 71 -20.5 111t-97.5 40t-109.5 -38.5t-54.5 -106.5l-54 -342q-11 -68 21 -106.5t97 -38.5q67 0 111 40.5t55 110.5h66q-10 -64 -43.5 -111t-84 -73t-114.5 -26z" />
    <glyph glyph-name="Egrave" unicode="&#xc8;" 
d="M68 0l116 730h402l-10 -60h-336l-41 -259h301l-9 -60h-302l-46 -291h336l-9 -60h-402zM382 810l-91 140h73l85 -140h-67z" />
    <glyph glyph-name="Eacute" unicode="&#xc9;" 
d="M68 0l116 730h402l-10 -60h-336l-41 -259h301l-9 -60h-302l-46 -291h336l-9 -60h-402zM357 810l128 140h78l-133 -140h-73z" />
    <glyph glyph-name="Ecircumflex" unicode="&#xca;" 
d="M68 0l116 730h402l-10 -60h-336l-41 -259h301l-9 -60h-302l-46 -291h336l-9 -60h-402zM242 810l149 140h69l106 -140h-67l-77 97l-107 -97h-73z" />
    <glyph glyph-name="Edieresis" unicode="&#xcb;" 
d="M68 0l116 730h402l-10 -60h-336l-41 -259h301l-9 -60h-302l-46 -291h336l-9 -60h-402zM516 822q-26 0 -39 15.5t-9 42.5q5 27 23 43t44 16q25 0 38 -16t8 -43q-4 -27 -21.5 -42.5t-43.5 -15.5zM299 822q-26 0 -39 15.5t-9 42.5q5 27 23 43t43 16q26 0 39 -16t8 -43
q-4 -27 -22 -42.5t-43 -15.5z" />
    <glyph glyph-name="Igrave" unicode="&#xcc;" 
d="M70 0l9 60h154l96 610h-153l10 61h372l-10 -61h-152l-97 -610h152l-9 -60h-372zM362 810l-91 140h73l85 -140h-67z" />
    <glyph glyph-name="Iacute" unicode="&#xcd;" 
d="M70 0l9 60h154l96 610h-153l10 61h372l-10 -61h-152l-97 -610h152l-9 -60h-372zM337 810l128 140h78l-133 -140h-73z" />
    <glyph glyph-name="Icircumflex" unicode="&#xce;" 
d="M70 0l9 60h154l96 610h-153l10 61h372l-10 -61h-152l-97 -610h152l-9 -60h-372zM222 810l149 140h69l106 -140h-67l-77 97l-107 -97h-73z" />
    <glyph glyph-name="Idieresis" unicode="&#xcf;" 
d="M70 0l9 60h154l96 610h-153l10 61h372l-10 -61h-152l-97 -610h152l-9 -60h-372zM496 822q-26 0 -39 15.5t-9 42.5q5 27 23 43t44 16q25 0 38 -16t8 -43q-4 -27 -21.5 -42.5t-43.5 -15.5zM279 822q-26 0 -39 15.5t-9 42.5q5 27 23 43t43 16q26 0 39 -16t8 -43
q-4 -27 -22 -42.5t-43 -15.5z" />
    <glyph glyph-name="Eth" unicode="&#xd0;" 
d="M10 345v56h280v-56h-280zM59 0l116 730h171q70 0 116.5 -27.5t67 -76.5t9.5 -116l-46 -290q-10 -66 -46.5 -115.5t-91.5 -77t-125 -27.5h-171zM134 60h106q74 0 124.5 43t62.5 117l46 290q11 73 -26 116.5t-111 43.5h-105z" />
    <glyph glyph-name="Ntilde" unicode="&#xd1;" 
d="M58 0l116 730h88l147 -655q2 22 5 51t6.5 57t6.5 47l79 500h64l-116 -730h-88l-145 655q-2 -15 -5 -40t-6.5 -55t-8.5 -60l-79 -500h-64zM458 815q-29 0 -46 12.5t-29 29t-24 29t-29 12.5q-19 0 -32.5 -12t-16.5 -33l-5 -33h-50l5 33q7 43 35.5 67.5t69.5 24.5
q29 0 46 -12.5t29 -29t23.5 -29t29.5 -12.5t30 12t15 33l6 33h50l-6 -33q-7 -43 -34 -67.5t-67 -24.5z" />
    <glyph glyph-name="Ograve" unicode="&#xd2;" 
d="M254 -10q-61 0 -102.5 24.5t-58.5 70.5t-8 109l54 342q11 63 42.5 108.5t81 70.5t110.5 25q62 0 103.5 -25t59 -70.5t7.5 -108.5l-54 -342q-10 -63 -42 -109t-81.5 -70.5t-111.5 -24.5zM263 49q65 0 106.5 38t53.5 107l54 342q11 69 -19 107t-94 38t-106 -38t-53 -107
l-54 -342q-11 -69 18.5 -107t93.5 -38zM362 810l-91 140h73l85 -140h-67z" />
    <glyph glyph-name="Oacute" unicode="&#xd3;" 
d="M254 -10q-61 0 -102.5 24.5t-58.5 70.5t-8 109l54 342q11 63 42.5 108.5t81 70.5t110.5 25q62 0 103.5 -25t59 -70.5t7.5 -108.5l-54 -342q-10 -63 -42 -109t-81.5 -70.5t-111.5 -24.5zM263 49q65 0 106.5 38t53.5 107l54 342q11 69 -19 107t-94 38t-106 -38t-53 -107
l-54 -342q-11 -69 18.5 -107t93.5 -38zM337 810l128 140h78l-133 -140h-73z" />
    <glyph glyph-name="Ocircumflex" unicode="&#xd4;" 
d="M254 -10q-61 0 -102.5 24.5t-58.5 70.5t-8 109l54 342q11 63 42.5 108.5t81 70.5t110.5 25q62 0 103.5 -25t59 -70.5t7.5 -108.5l-54 -342q-10 -63 -42 -109t-81.5 -70.5t-111.5 -24.5zM263 49q65 0 106.5 38t53.5 107l54 342q11 69 -19 107t-94 38t-106 -38t-53 -107
l-54 -342q-11 -69 18.5 -107t93.5 -38zM222 810l149 140h69l106 -140h-67l-77 97l-107 -97h-73z" />
    <glyph glyph-name="Otilde" unicode="&#xd5;" 
d="M254 -10q-61 0 -102.5 24.5t-58.5 70.5t-8 109l54 342q11 63 42.5 108.5t81 70.5t110.5 25q62 0 103.5 -25t59 -70.5t7.5 -108.5l-54 -342q-10 -63 -42 -109t-81.5 -70.5t-111.5 -24.5zM263 49q65 0 106.5 38t53.5 107l54 342q11 69 -19 107t-94 38t-106 -38t-53 -107
l-54 -342q-11 -69 18.5 -107t93.5 -38zM458 815q-29 0 -46 12.5t-29 29t-24 29t-29 12.5q-19 0 -32.5 -12t-16.5 -33l-5 -33h-50l5 33q7 43 35.5 67.5t69.5 24.5q29 0 46 -12.5t29 -29t23.5 -29t29.5 -12.5t30 12t15 33l6 33h50l-6 -33q-7 -43 -34 -67.5t-67 -24.5z" />
    <glyph glyph-name="Odieresis" unicode="&#xd6;" 
d="M254 -10q-61 0 -102.5 24.5t-58.5 70.5t-8 109l54 342q11 63 42.5 108.5t81 70.5t110.5 25q62 0 103.5 -25t59 -70.5t7.5 -108.5l-54 -342q-10 -63 -42 -109t-81.5 -70.5t-111.5 -24.5zM263 49q65 0 106.5 38t53.5 107l54 342q11 69 -19 107t-94 38t-106 -38t-53 -107
l-54 -342q-11 -69 18.5 -107t93.5 -38zM496 822q-26 0 -39 15.5t-9 42.5q5 27 23 43t44 16q25 0 38 -16t8 -43q-4 -27 -21.5 -42.5t-43.5 -15.5zM279 822q-26 0 -39 15.5t-9 42.5q5 27 23 43t43 16q26 0 39 -16t8 -43q-4 -27 -22 -42.5t-43 -15.5z" />
    <glyph glyph-name="multiply" unicode="&#xd7;" 
d="M130 139l-37 44l172 148l-123 147l47 40l123 -147l173 151l37 -44l-173 -150l124 -147l-47 -40l-124 147z" />
    <glyph glyph-name="Oslash" unicode="&#xd8;" 
d="M-6 -40l573 790h64l-573 -790h-64zM254 -10q-61 0 -102.5 24.5t-59 70.5t-7.5 109l54 342q11 63 42.5 108.5t81 70.5t110.5 25q62 0 103 -25t59 -70.5t8 -108.5l-54 -342q-10 -63 -42 -109t-81.5 -70.5t-111.5 -24.5zM263 49q65 0 106.5 38t53.5 107l54 342
q11 69 -19 107t-94 38t-105.5 -38t-53.5 -107l-54 -342q-11 -69 18.5 -107t93.5 -38z" />
    <glyph glyph-name="Ugrave" unicode="&#xd9;" 
d="M255 -10q-94 0 -138 55.5t-29 148.5l85 536h66l-85 -536q-11 -68 17.5 -106.5t93.5 -38.5q64 0 104 38.5t51 106.5l85 536h66l-85 -536q-9 -62 -40.5 -108t-80 -71t-110.5 -25zM362 810l-91 140h73l85 -140h-67z" />
    <glyph glyph-name="Uacute" unicode="&#xda;" 
d="M255 -10q-94 0 -138 55.5t-29 148.5l85 536h66l-85 -536q-11 -68 17.5 -106.5t93.5 -38.5q64 0 104 38.5t51 106.5l85 536h66l-85 -536q-9 -62 -40.5 -108t-80 -71t-110.5 -25zM337 810l128 140h78l-133 -140h-73z" />
    <glyph glyph-name="Ucircumflex" unicode="&#xdb;" 
d="M255 -10q-94 0 -138 55.5t-29 148.5l85 536h66l-85 -536q-11 -68 17.5 -106.5t93.5 -38.5q64 0 104 38.5t51 106.5l85 536h66l-85 -536q-9 -62 -40.5 -108t-80 -71t-110.5 -25zM222 810l149 140h69l106 -140h-67l-77 97l-107 -97h-73z" />
    <glyph glyph-name="Udieresis" unicode="&#xdc;" 
d="M255 -10q-94 0 -138 55.5t-29 148.5l85 536h66l-85 -536q-11 -68 17.5 -106.5t93.5 -38.5q64 0 104 38.5t51 106.5l85 536h66l-85 -536q-9 -62 -40.5 -108t-80 -71t-110.5 -25zM496 822q-26 0 -39 15.5t-9 42.5q5 27 23 43t44 16q25 0 38 -16t8 -43q-4 -27 -21.5 -42.5
t-43.5 -15.5zM279 822q-26 0 -39 15.5t-9 42.5q5 27 23 43t43 16q26 0 39 -16t8 -43q-4 -27 -22 -42.5t-43 -15.5z" />
    <glyph glyph-name="Yacute" unicode="&#xdd;" 
d="M223 0l44 277l-151 453h66l106 -318q8 -23 13.5 -41.5t7.5 -27.5q6 8 16.5 27t25.5 42l207 318h70l-295 -453l-44 -277h-66zM337 810l128 140h78l-133 -140h-73z" />
    <glyph glyph-name="Thorn" unicode="&#xde;" 
d="M55 0l116 730h66l-26 -159h168q94 0 141.5 -51.5t33.5 -139.5q-9 -59 -41 -101.5t-81.5 -66t-112.5 -23.5h-168l-30 -189h-66zM160 249h168q64 0 106.5 35.5t52.5 95.5q10 61 -22 96.5t-95 35.5h-168z" />
    <glyph glyph-name="germandbls" unicode="&#xdf;" 
d="M-132 -180l10 60h81q40 0 63.5 20t29.5 59l92 580q10 61 42 106t81.5 70t109.5 25q62 0 104 -22.5t60 -65t9 -100.5q-8 -52 -35.5 -92t-68.5 -62.5t-90 -22.5l1 12q56 1 93 -21t53 -62.5t7 -95.5q-10 -63 -43 -109.5t-84.5 -72.5t-117.5 -26h-64l10 60h59
q72 0 116.5 38.5t54.5 105.5q11 67 -21 104t-104 37h-42l9 58h41q63 0 105 39t51 99q11 65 -19 102t-93 37q-62 0 -104.5 -38t-53.5 -103l-92 -580q-10 -64 -55 -101.5t-114 -37.5h-81z" />
    <glyph glyph-name="agrave" unicode="&#xe0;" 
d="M234 -10q-82 0 -122.5 54.5t-26.5 146.5l26 167q10 62 39.5 107t74.5 70t100 25q70 0 107.5 -39.5t26.5 -104.5l-16 47h18l14 87h66l-87 -550h-66l14 87h-24l37 47q-10 -66 -60.5 -105t-120.5 -39zM261 47q63 0 105 39t52 107l26 163q11 69 -18 108t-93 39
q-63 0 -104 -38.5t-52 -108.5l-26 -163q-10 -69 18.5 -107.5t91.5 -38.5zM342 645l-91 140h72l86 -140h-67z" />
    <glyph glyph-name="aacute" unicode="&#xe1;" 
d="M234 -10q-82 0 -122.5 54.5t-26.5 146.5l26 167q10 62 39.5 107t74.5 70t100 25q70 0 107.5 -39.5t26.5 -104.5l-16 47h18l14 87h66l-87 -550h-66l14 87h-24l37 47q-10 -66 -60.5 -105t-120.5 -39zM261 47q63 0 105 39t52 107l26 163q11 69 -18 108t-93 39
q-63 0 -104 -38.5t-52 -108.5l-26 -163q-10 -69 18.5 -107.5t91.5 -38.5zM322 645l128 140h78l-133 -140h-73z" />
    <glyph glyph-name="acircumflex" unicode="&#xe2;" 
d="M234 -10q-82 0 -122.5 54.5t-26.5 146.5l26 167q10 62 39.5 107t74.5 70t100 25q70 0 107.5 -39.5t26.5 -104.5l-16 47h18l14 87h66l-87 -550h-66l14 87h-24l37 47q-10 -66 -60.5 -105t-120.5 -39zM261 47q63 0 105 39t52 107l26 163q11 69 -18 108t-93 39
q-63 0 -104 -38.5t-52 -108.5l-26 -163q-10 -69 18.5 -107.5t91.5 -38.5zM201 645l149 140h69l106 -140h-67l-78 97l-106 -97h-73z" />
    <glyph glyph-name="atilde" unicode="&#xe3;" 
d="M234 -10q-82 0 -122.5 54.5t-26.5 146.5l26 167q10 62 39.5 107t74.5 70t100 25q70 0 107.5 -39.5t26.5 -104.5l-16 47h18l14 87h66l-87 -550h-66l14 87h-24l37 47q-10 -66 -60.5 -105t-120.5 -39zM261 47q63 0 105 39t52 107l26 163q11 69 -18 108t-93 39
q-63 0 -104 -38.5t-52 -108.5l-26 -163q-10 -69 18.5 -107.5t91.5 -38.5zM437 650q-29 0 -46 12.5t-29 29t-24 29t-29 12.5q-19 0 -32.5 -12t-16.5 -33l-5 -33h-50l5 33q7 43 35.5 67.5t69.5 24.5q29 0 46 -12.5t28.5 -29t23.5 -29t29 -12.5q18 0 30.5 12t15.5 33l6 33h50
l-6 -33q-7 -43 -34 -67.5t-67 -24.5z" />
    <glyph glyph-name="adieresis" unicode="&#xe4;" 
d="M234 -10q-82 0 -122.5 54.5t-26.5 146.5l26 167q10 62 39.5 107t74.5 70t100 25q70 0 107.5 -39.5t26.5 -104.5l-16 47h18l14 87h66l-87 -550h-66l14 87h-24l37 47q-10 -66 -60.5 -105t-120.5 -39zM261 47q63 0 105 39t52 107l26 163q11 69 -18 108t-93 39
q-63 0 -104 -38.5t-52 -108.5l-26 -163q-10 -69 18.5 -107.5t91.5 -38.5zM474 653q-26 0 -39.5 15.5t-9.5 42.5q5 27 23 43t44 16q25 0 38.5 -16t8.5 -43q-4 -27 -22 -42.5t-43 -15.5zM256 653q-25 0 -38.5 15.5t-9.5 42.5q5 27 23 43t43 16t39 -16t9 -43q-4 -27 -22 -42.5
t-44 -15.5z" />
    <glyph glyph-name="aring" unicode="&#xe5;" 
d="M234 -10q-82 0 -122.5 54.5t-26.5 146.5l26 167q10 62 39.5 107t74.5 70t100 25q70 0 107.5 -39.5t26.5 -104.5l-16 47h18l14 87h66l-87 -550h-66l14 87h-24l37 47q-10 -66 -60.5 -105t-120.5 -39zM261 47q63 0 105 39t52 107l26 163q11 69 -18 108t-93 39
q-63 0 -104 -38.5t-52 -108.5l-26 -163q-10 -69 18.5 -107.5t91.5 -38.5zM358 612q-50 0 -76 29.5t-19 76.5q8 47 43.5 76t85.5 29t75.5 -29t17.5 -76q-7 -48 -42 -77t-85 -29zM365 654q28 0 48 17.5t24 46.5q5 29 -9.5 46.5t-42.5 17.5t-48.5 -18t-25.5 -46
q-4 -29 11 -46.5t43 -17.5z" />
    <glyph glyph-name="ae" unicode="&#xe6;" 
d="M126 -10q-62 0 -91 40t-19 105l7 52q10 60 53 95.5t108 35.5h94l14 88q7 45 -11 71t-58 26q-34 0 -59.5 -22t-33.5 -58h-64q13 62 55.5 99.5t103.5 37.5q39 0 62.5 -13.5t34.5 -32.5t11 -38h3q7 19 24 38t44 32.5t63 13.5q65 0 96 -42t19 -112l-23 -143h-228l-18 -119
q-7 -42 12 -69t57 -27q36 0 60.5 21.5t32.5 57.5h64q-13 -62 -56 -99.5t-105 -37.5q-38 0 -61.5 13.5t-33.5 32.5t-11 37h-3q-6 -18 -24 -37t-47.5 -32.5t-71.5 -13.5zM149 46q38 0 66.5 28t34.5 70l19 119h-94q-33 0 -56.5 -21t-29.5 -55l-7 -52q-7 -39 11.5 -64t55.5 -25z
M340 318h164l14 88q7 42 -11 69.5t-55 27.5t-64 -27.5t-34 -69.5z" />
    <glyph glyph-name="ccedilla" unicode="&#xe7;" 
d="M135 -198l8 43h76q23 0 39 12.5t18 26.5q4 22 -24.5 36t-79.5 14l49 92h48l-32 -60q25 -2 50 -11.5t40 -27.5t11 -46q-5 -33 -38.5 -56t-82.5 -23h-82zM257 -10q-63 0 -105 24.5t-59 70.5t-8 109l25 162q11 63 43 108.5t82 70.5t113 25q92 0 139.5 -51.5t34.5 -138.5h-66
q9 62 -22.5 96t-95.5 34q-65 0 -108 -37.5t-53 -106.5l-26 -162q-11 -68 20 -106t96 -38q64 0 106 34.5t53 95.5h66q-15 -87 -79 -138.5t-156 -51.5z" />
    <glyph glyph-name="egrave" unicode="&#xe8;" 
d="M255 -10q-63 0 -104 25t-58 71t-8 108l25 162q11 62 42.5 107.5t81 71t112.5 25.5q62 0 103 -25.5t58 -71t7 -107.5l-15 -96h-338l-11 -66q-10 -69 18.5 -108t95.5 -39q54 0 91.5 23.5t56.5 66.5h66q-16 -45 -47.5 -78t-76.5 -51t-99 -18zM441 305l8 51
q11 69 -17.5 108.5t-94.5 39.5q-67 0 -108.5 -39t-52.5 -109l-7 -43h283zM337 645l-91 140h72l86 -140h-67z" />
    <glyph glyph-name="eacute" unicode="&#xe9;" 
d="M255 -10q-63 0 -104 25t-58 71t-8 108l25 162q11 62 42.5 107.5t81 71t112.5 25.5q62 0 103 -25.5t58 -71t7 -107.5l-15 -96h-338l-11 -66q-10 -69 18.5 -108t95.5 -39q54 0 91.5 23.5t56.5 66.5h66q-16 -45 -47.5 -78t-76.5 -51t-99 -18zM441 305l8 51
q11 69 -17.5 108.5t-94.5 39.5q-67 0 -108.5 -39t-52.5 -109l-7 -43h283zM317 645l128 140h78l-133 -140h-73z" />
    <glyph glyph-name="ecircumflex" unicode="&#xea;" 
d="M255 -10q-63 0 -104 25t-58 71t-8 108l25 162q11 62 42.5 107.5t81 71t112.5 25.5q62 0 103 -25.5t58 -71t7 -107.5l-15 -96h-338l-11 -66q-10 -69 18.5 -108t95.5 -39q54 0 91.5 23.5t56.5 66.5h66q-16 -45 -47.5 -78t-76.5 -51t-99 -18zM441 305l8 51
q11 69 -17.5 108.5t-94.5 39.5q-67 0 -108.5 -39t-52.5 -109l-7 -43h283zM196 645l149 140h69l106 -140h-67l-78 97l-106 -97h-73z" />
    <glyph glyph-name="edieresis" unicode="&#xeb;" 
d="M255 -10q-63 0 -104 25t-58 71t-8 108l25 162q11 62 42.5 107.5t81 71t112.5 25.5q62 0 103 -25.5t58 -71t7 -107.5l-15 -96h-338l-11 -66q-10 -69 18.5 -108t95.5 -39q54 0 91.5 23.5t56.5 66.5h66q-16 -45 -47.5 -78t-76.5 -51t-99 -18zM441 305l8 51
q11 69 -17.5 108.5t-94.5 39.5q-67 0 -108.5 -39t-52.5 -109l-7 -43h283zM469 653q-26 0 -39.5 15.5t-9.5 42.5q5 27 23 43t44 16q25 0 38.5 -16t8.5 -43q-4 -27 -22 -42.5t-43 -15.5zM251 653q-25 0 -38.5 15.5t-9.5 42.5q5 27 23 43t43 16t39 -16t9 -43q-4 -27 -22 -42.5
t-44 -15.5z" />
    <glyph glyph-name="igrave" unicode="&#xec;" 
d="M45 0l9 60h199l68 430h-173l9 60h240l-78 -490h187l-9 -60h-452zM352 645l-91 140h72l86 -140h-67z" />
    <glyph glyph-name="iacute" unicode="&#xed;" 
d="M45 0l9 60h199l68 430h-173l9 60h240l-78 -490h187l-9 -60h-452zM332 645l128 140h78l-133 -140h-73z" />
    <glyph glyph-name="icircumflex" unicode="&#xee;" 
d="M45 0l9 60h199l68 430h-173l9 60h240l-78 -490h187l-9 -60h-452zM211 645l149 140h69l106 -140h-67l-78 97l-106 -97h-73z" />
    <glyph glyph-name="idieresis" unicode="&#xef;" 
d="M45 0l9 60h199l68 430h-173l9 60h240l-78 -490h187l-9 -60h-452zM484 653q-26 0 -39.5 15.5t-9.5 42.5q5 27 23 43t44 16q25 0 38.5 -16t8.5 -43q-4 -27 -22 -42.5t-43 -15.5zM266 653q-25 0 -38.5 15.5t-9.5 42.5q5 27 23 43t43 16t39 -16t9 -43q-4 -27 -22 -42.5
t-44 -15.5z" />
    <glyph glyph-name="eth" unicode="&#xf0;" 
d="M254 -10q-67 0 -113 28t-65.5 78.5t-9.5 118.5q11 68 44.5 117.5t85.5 76.5t115 27q34 0 59.5 -12.5t42 -30t23.5 -33.5h8q-3 13 -16 46t-38 81l-54 97l-183 -78l9 59l149 65l-58 100h68l41 -76l169 70l-8 -59l-135 -57l58 -101q45 -75 62 -149.5t6 -140.5
q-11 -68 -46.5 -119.5t-90.5 -79.5t-123 -28zM264 52q70 0 119.5 45t61.5 119q8 48 -6 84.5t-45.5 57t-77.5 20.5q-71 0 -120 -44.5t-61 -118.5t23 -118.5t106 -44.5z" />
    <glyph glyph-name="ntilde" unicode="&#xf1;" 
d="M59 0l87 550h66l-16 -99h21l-31 -39q11 69 59 108.5t119 39.5q82 0 123 -51.5t27 -140.5l-59 -368h-66l57 360q11 68 -17.5 106t-89.5 38q-62 0 -104.5 -39.5t-53.5 -108.5l-56 -356h-66zM432 650q-29 0 -46 12.5t-29 29t-24 29t-29 12.5q-19 0 -32.5 -12t-16.5 -33
l-5 -33h-50l5 33q7 43 35.5 67.5t69.5 24.5q29 0 46 -12.5t28.5 -29t23.5 -29t29 -12.5q18 0 30.5 12t15.5 33l6 33h50l-6 -33q-7 -43 -34 -67.5t-67 -24.5z" />
    <glyph glyph-name="ograve" unicode="&#xf2;" 
d="M254 -10q-61 0 -102.5 24.5t-58.5 70.5t-8 109l25 162q11 63 42.5 108.5t81.5 70.5t111 25q62 0 103 -25t58.5 -70.5t7.5 -108.5l-25 -162q-10 -63 -42 -109t-81.5 -70.5t-111.5 -24.5zM263 48q65 0 106.5 38t53.5 108l25 162q12 70 -18 108t-94 38t-106 -38t-54 -108
l-25 -162q-11 -70 18.5 -108t93.5 -38zM337 645l-91 140h72l86 -140h-67z" />
    <glyph glyph-name="oacute" unicode="&#xf3;" 
d="M254 -10q-61 0 -102.5 24.5t-58.5 70.5t-8 109l25 162q11 63 42.5 108.5t81.5 70.5t111 25q62 0 103 -25t58.5 -70.5t7.5 -108.5l-25 -162q-10 -63 -42 -109t-81.5 -70.5t-111.5 -24.5zM263 48q65 0 106.5 38t53.5 108l25 162q12 70 -18 108t-94 38t-106 -38t-54 -108
l-25 -162q-11 -70 18.5 -108t93.5 -38zM317 645l128 140h78l-133 -140h-73z" />
    <glyph glyph-name="ocircumflex" unicode="&#xf4;" 
d="M254 -10q-61 0 -102.5 24.5t-58.5 70.5t-8 109l25 162q11 63 42.5 108.5t81.5 70.5t111 25q62 0 103 -25t58.5 -70.5t7.5 -108.5l-25 -162q-10 -63 -42 -109t-81.5 -70.5t-111.5 -24.5zM263 48q65 0 106.5 38t53.5 108l25 162q12 70 -18 108t-94 38t-106 -38t-54 -108
l-25 -162q-11 -70 18.5 -108t93.5 -38zM196 645l149 140h69l106 -140h-67l-78 97l-106 -97h-73z" />
    <glyph glyph-name="otilde" unicode="&#xf5;" 
d="M254 -10q-61 0 -102.5 24.5t-58.5 70.5t-8 109l25 162q11 63 42.5 108.5t81.5 70.5t111 25q62 0 103 -25t58.5 -70.5t7.5 -108.5l-25 -162q-10 -63 -42 -109t-81.5 -70.5t-111.5 -24.5zM263 48q65 0 106.5 38t53.5 108l25 162q12 70 -18 108t-94 38t-106 -38t-54 -108
l-25 -162q-11 -70 18.5 -108t93.5 -38zM432 650q-29 0 -46 12.5t-29 29t-24 29t-29 12.5q-19 0 -32.5 -12t-16.5 -33l-5 -33h-50l5 33q7 43 35.5 67.5t69.5 24.5q29 0 46 -12.5t28.5 -29t23.5 -29t29 -12.5q18 0 30.5 12t15.5 33l6 33h50l-6 -33q-7 -43 -34 -67.5t-67 -24.5
z" />
    <glyph glyph-name="odieresis" unicode="&#xf6;" 
d="M254 -10q-61 0 -102.5 24.5t-58.5 70.5t-8 109l25 162q11 63 42.5 108.5t81.5 70.5t111 25q62 0 103 -25t58.5 -70.5t7.5 -108.5l-25 -162q-10 -63 -42 -109t-81.5 -70.5t-111.5 -24.5zM263 48q65 0 106.5 38t53.5 108l25 162q12 70 -18 108t-94 38t-106 -38t-54 -108
l-25 -162q-11 -70 18.5 -108t93.5 -38zM469 653q-26 0 -39.5 15.5t-9.5 42.5q5 27 23 43t44 16q25 0 38.5 -16t8.5 -43q-4 -27 -22 -42.5t-43 -15.5zM251 653q-25 0 -38.5 15.5t-9.5 42.5q5 27 23 43t43 16t39 -16t9 -43q-4 -27 -22 -42.5t-44 -15.5z" />
    <glyph glyph-name="divide" unicode="&#xf7;" 
d="M104 303l10 60h400l-10 -60h-400zM264 94q-27 0 -40.5 15t-9.5 42q5 25 23 41t45 16h11q26 0 40.5 -16t9.5 -41q-4 -26 -23 -41.5t-45 -15.5h-11zM321 457q-26 0 -40 15t-10 42q5 25 23.5 41t44.5 16h11q27 0 41 -16t9 -41q-4 -26 -22.5 -41.5t-45.5 -15.5h-11z" />
    <glyph glyph-name="oslash" unicode="&#xf8;" 
d="M0 -30l532 620h68l-532 -620h-68zM254 -10q-61 0 -102.5 24.5t-58.5 70.5t-8 109l25 162q10 63 42 108.5t82 70.5t111 25q62 0 103.5 -25t59 -70.5t6.5 -108.5l-25 -162q-10 -63 -42 -109t-81.5 -70.5t-111.5 -24.5zM263 48q66 0 108 38.5t54 107.5l25 162
q11 69 -19.5 107.5t-94.5 38.5q-65 0 -107.5 -38.5t-54.5 -107.5l-25 -162q-11 -69 19 -107.5t95 -38.5z" />
    <glyph glyph-name="ugrave" unicode="&#xf9;" 
d="M253 -10q-91 0 -135.5 55.5t-29.5 150.5l56 354h66l-56 -354q-11 -69 18 -108t91 -39q63 0 104.5 39t53.5 108l55 354h66l-55 -354q-10 -63 -42 -109.5t-81 -71.5t-111 -25zM337 645l-91 140h72l86 -140h-67z" />
    <glyph glyph-name="uacute" unicode="&#xfa;" 
d="M253 -10q-91 0 -135.5 55.5t-29.5 150.5l56 354h66l-56 -354q-11 -69 18 -108t91 -39q63 0 104.5 39t53.5 108l55 354h66l-55 -354q-10 -63 -42 -109.5t-81 -71.5t-111 -25zM317 645l128 140h78l-133 -140h-73z" />
    <glyph glyph-name="ucircumflex" unicode="&#xfb;" 
d="M253 -10q-91 0 -135.5 55.5t-29.5 150.5l56 354h66l-56 -354q-11 -69 18 -108t91 -39q63 0 104.5 39t53.5 108l55 354h66l-55 -354q-10 -63 -42 -109.5t-81 -71.5t-111 -25zM196 645l149 140h69l106 -140h-67l-78 97l-106 -97h-73z" />
    <glyph glyph-name="udieresis" unicode="&#xfc;" 
d="M253 -10q-91 0 -135.5 55.5t-29.5 150.5l56 354h66l-56 -354q-11 -69 18 -108t91 -39q63 0 104.5 39t53.5 108l55 354h66l-55 -354q-10 -63 -42 -109.5t-81 -71.5t-111 -25zM469 653q-26 0 -39.5 15.5t-9.5 42.5q5 27 23 43t44 16q25 0 38.5 -16t8.5 -43
q-4 -27 -22 -42.5t-43 -15.5zM251 653q-25 0 -38.5 15.5t-9.5 42.5q5 27 23 43t43 16t39 -16t9 -43q-4 -27 -22 -42.5t-44 -15.5z" />
    <glyph glyph-name="yacute" unicode="&#xfd;" 
d="M92 -180l10 60h157q53 0 83.5 26t38.5 77l11 69l16 97h-22l32 39q-11 -68 -59 -108t-120 -40q-81 0 -122 52t-27 140l50 318h66l-49 -310q-11 -68 18.5 -106t89.5 -38q62 0 104.5 39.5t53.5 108.5l48 306h66l-90 -567q-12 -79 -63.5 -121t-134.5 -42h-157zM317 645
l128 140h78l-133 -140h-73z" />
    <glyph glyph-name="thorn" unicode="&#xfe;" 
d="M28 -180l38 239h66l-38 -239h-66zM273 -10q-71 0 -108 39t-27 105l23 -47h-24l-14 -87h-66l116 730h66l-25 -154l-19 -113h19l-31 -47q10 65 60.5 104.5t120.5 39.5q83 0 123 -55t25 -147l-26 -167q-9 -61 -39 -106t-74.5 -70t-99.5 -25zM264 47q63 0 104 38.5t53 107.5
l25 163q12 70 -17.5 108.5t-92.5 38.5t-104 -39t-53 -108l-25 -163q-12 -68 18 -107t92 -39z" />
    <glyph glyph-name="ydieresis" unicode="&#xff;" 
d="M92 -180l10 60h157q53 0 83.5 26t38.5 77l11 69l16 97h-22l32 39q-11 -68 -59 -108t-120 -40q-81 0 -122 52t-27 140l50 318h66l-49 -310q-11 -68 18.5 -106t89.5 -38q62 0 104.5 39.5t53.5 108.5l48 306h66l-90 -567q-12 -79 -63.5 -121t-134.5 -42h-157zM469 653
q-26 0 -39.5 15.5t-9.5 42.5q5 27 23 43t44 16q25 0 38.5 -16t8.5 -43q-4 -27 -22 -42.5t-43 -15.5zM251 653q-25 0 -38.5 15.5t-9.5 42.5q5 27 23 43t43 16t39 -16t9 -43q-4 -27 -22 -42.5t-44 -15.5z" />
    <glyph glyph-name="Amacron" unicode="&#x100;" 
d="M17 0l312 730h86l80 -730h-65l-21 204h-238l-85 -204h-69zM194 261h210l-28 267q-6 58 -8 97t-3 51q-4 -12 -18.5 -51t-39.5 -97zM242 848l9 56h296l-9 -56h-296z" />
    <glyph glyph-name="amacron" unicode="&#x101;" 
d="M234 -10q-82 0 -122.5 54.5t-26.5 146.5l26 167q10 62 39.5 107t74.5 70t100 25q70 0 107.5 -39.5t26.5 -104.5l-16 47h18l14 87h66l-87 -550h-66l14 87h-24l37 47q-10 -66 -60.5 -105t-120.5 -39zM261 47q63 0 105 39t52 107l26 163q11 69 -18 108t-93 39
q-63 0 -104 -38.5t-52 -108.5l-26 -163q-10 -69 18.5 -107.5t91.5 -38.5zM220 678l9 56h296l-9 -56h-296z" />
    <glyph glyph-name="Abreve" unicode="&#x102;" 
d="M17 0l312 730h86l80 -730h-65l-21 204h-238l-85 -204h-69zM194 261h210l-28 267q-6 58 -8 97t-3 51q-4 -12 -18.5 -51t-39.5 -97zM384 807q-69 0 -104 39t-25 104h55q-7 -44 14.5 -70t65.5 -26t74.5 26t36.5 70h56q-10 -65 -57 -104t-116 -39z" />
    <glyph glyph-name="abreve" unicode="&#x103;" 
d="M234 -10q-82 0 -122.5 54.5t-26.5 146.5l26 167q10 62 39.5 107t74.5 70t100 25q70 0 107.5 -39.5t26.5 -104.5l-16 47h18l14 87h66l-87 -550h-66l14 87h-24l37 47q-10 -66 -60.5 -105t-120.5 -39zM261 47q63 0 105 39t52 107l26 163q11 69 -18 108t-93 39
q-63 0 -104 -38.5t-52 -108.5l-26 -163q-10 -69 18.5 -107.5t91.5 -38.5zM363 642q-69 0 -104 39t-25 104h55q-7 -44 14.5 -70t65.5 -26t74.5 26t36.5 70h56q-10 -65 -57 -104t-116 -39z" />
    <glyph glyph-name="Aogonek" unicode="&#x104;" 
d="M427 -198q-47 0 -71 23.5t-18 61.5q5 30 31 61.5t72 61.5h52l-13 -10q-35 -27 -54.5 -52.5t-22.5 -46.5q-4 -23 8 -36.5t36 -13.5h63l-8 -49h-75zM17 0l312 730h86l80 -730h-65l-21 204h-238l-85 -204h-69zM194 261h210l-28 267q-6 58 -8 97t-3 51q-4 -12 -18.5 -51
t-39.5 -97z" />
    <glyph glyph-name="aogonek" unicode="&#x105;" 
d="M400 -198q-47 0 -71 23.5t-18 61.5q5 30 30.5 61.5t71.5 61.5l40 -10q-35 -27 -54.5 -52.5t-23.5 -46.5q-3 -23 9 -36.5t36 -13.5h62l-7 -49h-75zM234 -10q-82 0 -122.5 54.5t-26.5 146.5l26 167q10 62 39.5 107t74.5 70t100 25q70 0 107.5 -39.5t26.5 -104.5l-16 47h18
l14 87h66l-87 -550h-66l14 87h-24l37 47q-10 -66 -60.5 -105t-120.5 -39zM261 47q63 0 105 39t52 107l26 163q11 69 -18 108t-93 39q-63 0 -104 -38.5t-52 -108.5l-26 -163q-10 -69 18.5 -107.5t91.5 -38.5z" />
    <glyph glyph-name="Cacute" unicode="&#x106;" 
d="M259 -10q-63 0 -105.5 25t-60 71t-8.5 108l54 342q11 63 43 109t82.5 70.5t113.5 24.5q64 0 106.5 -26t60.5 -73t8 -111h-66q11 71 -20.5 111t-97.5 40t-109.5 -38.5t-54.5 -106.5l-54 -342q-11 -68 21 -106.5t97 -38.5q67 0 111 40.5t55 110.5h66q-10 -64 -43.5 -111
t-84 -73t-114.5 -26zM342 810l128 140h78l-133 -140h-73z" />
    <glyph glyph-name="cacute" unicode="&#x107;" 
d="M257 -10q-63 0 -105 24.5t-59 70.5t-8 109l25 162q11 63 43 108.5t82 70.5t113 25q92 0 139.5 -51.5t34.5 -138.5h-66q9 62 -22.5 96t-95.5 34q-65 0 -108 -37.5t-53 -106.5l-26 -162q-11 -68 20 -106t96 -38q64 0 106 34.5t53 95.5h66q-15 -87 -79 -138.5t-156 -51.5z
M320 645l128 140h78l-133 -140h-73z" />
    <glyph glyph-name="Ccircumflex" unicode="&#x108;" 
d="M259 -10q-63 0 -105.5 25t-60 71t-8.5 108l54 342q11 63 43 109t82.5 70.5t113.5 24.5q64 0 106.5 -26t60.5 -73t8 -111h-66q11 71 -20.5 111t-97.5 40t-109.5 -38.5t-54.5 -106.5l-54 -342q-11 -68 21 -106.5t97 -38.5q67 0 111 40.5t55 110.5h66q-10 -64 -43.5 -111
t-84 -73t-114.5 -26zM227 810l149 140h69l106 -140h-67l-77 97l-107 -97h-73z" />
    <glyph glyph-name="ccircumflex" unicode="&#x109;" 
d="M257 -10q-63 0 -105 24.5t-59 70.5t-8 109l25 162q11 63 43 108.5t82 70.5t113 25q92 0 139.5 -51.5t34.5 -138.5h-66q9 62 -22.5 96t-95.5 34q-65 0 -108 -37.5t-53 -106.5l-26 -162q-11 -68 20 -106t96 -38q64 0 106 34.5t53 95.5h66q-15 -87 -79 -138.5t-156 -51.5z
M196 645l149 140h69l106 -140h-67l-78 97l-106 -97h-73z" />
    <glyph glyph-name="Cdotaccent" unicode="&#x10a;" 
d="M259 -10q-63 0 -105.5 25t-60 71t-8.5 108l54 342q11 63 43 109t82.5 70.5t113.5 24.5q64 0 106.5 -26t60.5 -73t8 -111h-66q11 71 -20.5 111t-97.5 40t-109.5 -38.5t-54.5 -106.5l-54 -342q-11 -68 21 -106.5t97 -38.5q67 0 111 40.5t55 110.5h66q-10 -64 -43.5 -111
t-84 -73t-114.5 -26zM391 821q-29 0 -43.5 16t-10.5 43q5 27 24.5 43t48.5 16t43.5 -16t9.5 -43q-4 -27 -23.5 -43t-48.5 -16z" />
    <glyph glyph-name="cdotaccent" unicode="&#x10b;" 
d="M257 -10q-63 0 -105 24.5t-59 70.5t-8 109l25 162q11 63 43 108.5t82 70.5t113 25q92 0 139.5 -51.5t34.5 -138.5h-66q9 62 -22.5 96t-95.5 34q-65 0 -108 -37.5t-53 -106.5l-26 -162q-11 -68 20 -106t96 -38q64 0 106 34.5t53 95.5h66q-15 -87 -79 -138.5t-156 -51.5z
M364 653q-28 0 -44 15.5t-15 42.5q2 27 20.5 43t46.5 16q29 0 45.5 -16t14.5 -43t-20.5 -42.5t-47.5 -15.5z" />
    <glyph glyph-name="Ccaron" unicode="&#x10c;" 
d="M259 -10q-63 0 -105.5 25t-60 71t-8.5 108l54 342q11 63 43 109t82.5 70.5t113.5 24.5q64 0 106.5 -26t60.5 -73t8 -111h-66q11 71 -20.5 111t-97.5 40t-109.5 -38.5t-54.5 -106.5l-54 -342q-11 -68 21 -106.5t97 -38.5q67 0 111 40.5t55 110.5h66q-10 -64 -43.5 -111
t-84 -73t-114.5 -26zM355 810l-106 140h68l78 -97l107 97h71l-149 -140h-69z" />
    <glyph glyph-name="ccaron" unicode="&#x10d;" 
d="M257 -10q-63 0 -105 24.5t-59 70.5t-8 109l25 162q11 63 43 108.5t82 70.5t113 25q92 0 139.5 -51.5t34.5 -138.5h-66q9 62 -22.5 96t-95.5 34q-65 0 -108 -37.5t-53 -106.5l-26 -162q-11 -68 20 -106t96 -38q64 0 106 34.5t53 95.5h66q-15 -87 -79 -138.5t-156 -51.5z
M328 645l-106 140h68l78 -97l107 97h71l-149 -140h-69z" />
    <glyph glyph-name="Dcaron" unicode="&#x10e;" 
d="M59 0l116 730h171q70 0 116.5 -27.5t67 -76.5t9.5 -116l-46 -290q-10 -66 -46.5 -115.5t-91.5 -77t-125 -27.5h-171zM134 60h106q74 0 124.5 43t62.5 117l46 290q11 73 -26 116.5t-111 43.5h-105zM350 810l-106 140h68l78 -97l107 97h71l-149 -140h-69z" />
    <glyph glyph-name="dcaron" unicode="&#x10f;" 
d="M553 550l35 180h66l-42 -180h-59zM202 -10q-77 0 -114 54t-23 145l27 171q14 92 69 146t132 54q68 0 101 -39t22 -105l-17 47h19l17 113l25 154h66l-116 -730h-66l14 87h-24l37 47q-10 -66 -55.5 -105t-113.5 -39zM230 47q57 0 95.5 38.5t49.5 105.5l26 167
q10 67 -16 106t-83 39q-56 0 -95 -39t-49 -106l-26 -167q-11 -67 15.5 -105.5t82.5 -38.5z" />
    <glyph glyph-name="Dcroat" unicode="&#x110;" 
d="M10 345v56h280v-56h-280zM59 0l116 730h171q70 0 116.5 -27.5t67 -76.5t9.5 -116l-46 -290q-10 -66 -46.5 -115.5t-91.5 -77t-125 -27.5h-171zM134 60h106q74 0 124.5 43t62.5 117l46 290q11 73 -26 116.5t-111 43.5h-105z" />
    <glyph glyph-name="dcroat" unicode="&#x111;" 
d="M85 191l18 107q10 62 39 107t73 70t99 25q57 0 92.5 -26t41.5 -71h3l17 113l10 64h-174l9 57h174l15 93h66l-15 -93h98l-9 -57h-98l-92 -580h-66l14 87h-3q-20 -46 -63.5 -71.5t-100.5 -25.5q-82 0 -122 54.5t-26 146.5zM152 193q-11 -69 17.5 -107.5t91.5 -38.5t104 39
t52 107l17 103q10 69 -18.5 108t-92.5 39q-63 0 -103.5 -38.5t-51.5 -108.5z" />
    <glyph glyph-name="Emacron" unicode="&#x112;" 
d="M68 0l116 730h402l-10 -60h-336l-41 -259h301l-9 -60h-302l-46 -291h336l-9 -60h-402zM262 848l9 56h296l-9 -56h-296z" />
    <glyph glyph-name="emacron" unicode="&#x113;" 
d="M255 -10q-63 0 -104 25t-58 71t-8 108l25 162q11 62 42.5 107.5t81 71t112.5 25.5q62 0 103 -25.5t58 -71t7 -107.5l-15 -96h-338l-11 -66q-10 -69 18.5 -108t95.5 -39q54 0 91.5 23.5t56.5 66.5h66q-16 -45 -47.5 -78t-76.5 -51t-99 -18zM441 305l8 51
q11 69 -17.5 108.5t-94.5 39.5q-67 0 -108.5 -39t-52.5 -109l-7 -43h283zM215 678l9 56h296l-9 -56h-296z" />
    <glyph glyph-name="Ebreve" unicode="&#x114;" 
d="M68 0l116 730h402l-10 -60h-336l-41 -259h301l-9 -60h-302l-46 -291h336l-9 -60h-402zM404 807q-69 0 -104 39t-25 104h55q-7 -44 14.5 -70t65.5 -26t74.5 26t36.5 70h56q-10 -65 -57 -104t-116 -39z" />
    <glyph glyph-name="ebreve" unicode="&#x115;" 
d="M255 -10q-63 0 -104 25t-58 71t-8 108l25 162q11 62 42.5 107.5t81 71t112.5 25.5q62 0 103 -25.5t58 -71t7 -107.5l-15 -96h-338l-11 -66q-10 -69 18.5 -108t95.5 -39q54 0 91.5 23.5t56.5 66.5h66q-16 -45 -47.5 -78t-76.5 -51t-99 -18zM441 305l8 51
q11 69 -17.5 108.5t-94.5 39.5q-67 0 -108.5 -39t-52.5 -109l-7 -43h283zM358 642q-69 0 -104 39t-25 104h55q-7 -44 14.5 -70t65.5 -26t74.5 26t36.5 70h56q-10 -65 -57 -104t-116 -39z" />
    <glyph glyph-name="Edotaccent" unicode="&#x116;" 
d="M68 0l116 730h402l-10 -60h-336l-41 -259h301l-9 -60h-302l-46 -291h336l-9 -60h-402zM406 821q-29 0 -43.5 16t-10.5 43q5 27 24.5 43t48.5 16t43.5 -16t9.5 -43q-4 -27 -23.5 -43t-48.5 -16z" />
    <glyph glyph-name="edotaccent" unicode="&#x117;" 
d="M255 -10q-63 0 -104 25t-58 71t-8 108l25 162q11 62 42.5 107.5t81 71t112.5 25.5q62 0 103 -25.5t58 -71t7 -107.5l-15 -96h-338l-11 -66q-10 -69 18.5 -108t95.5 -39q54 0 91.5 23.5t56.5 66.5h66q-16 -45 -47.5 -78t-76.5 -51t-99 -18zM441 305l8 51
q11 69 -17.5 108.5t-94.5 39.5q-67 0 -108.5 -39t-52.5 -109l-7 -43h283zM364 653q-28 0 -44 15.5t-15 42.5q2 27 20.5 43t46.5 16q29 0 45.5 -16t14.5 -43t-20.5 -42.5t-47.5 -15.5z" />
    <glyph glyph-name="Eogonek" unicode="&#x118;" 
d="M369 -198q-47 0 -71 23.5t-18 61.5q5 30 30.5 61.5t72.5 61.5h52l-13 -10q-35 -27 -54.5 -52.5t-23.5 -46.5q-3 -23 9 -36.5t36 -13.5h62l-7 -49h-75zM68 0l116 730h402l-10 -60h-336l-41 -259h301l-9 -60h-302l-46 -291h336l-9 -60h-402z" />
    <glyph glyph-name="eogonek" unicode="&#x119;" 
d="M299 -198q-46 0 -70 23.5t-18 61.5q4 23 22.5 49.5t55.5 56.5q-8 -1 -17 -2t-17 -1q-63 0 -104 25t-58 71t-8 108l25 162q11 62 42.5 107.5t81 71t112.5 25.5q62 0 103 -25.5t58 -71t7 -107.5l-15 -96h-338l-11 -66q-10 -69 18.5 -108t95.5 -39q54 0 91.5 23.5t56.5 66.5
h66q-13 -38 -38.5 -67.5t-60.5 -49.5l-26 -20q-35 -27 -54.5 -52.5t-23.5 -46.5q-3 -23 8.5 -36.5t36.5 -13.5h62l-8 -49h-75zM438 284l11 72q11 69 -17.5 108.5t-94.5 39.5q-67 0 -108.5 -39t-52.5 -109l-7 -43h303z" />
    <glyph glyph-name="Ecaron" unicode="&#x11a;" 
d="M68 0l116 730h402l-10 -60h-336l-41 -259h301l-9 -60h-302l-46 -291h336l-9 -60h-402zM370 810l-106 140h68l78 -97l107 97h71l-149 -140h-69z" />
    <glyph glyph-name="ecaron" unicode="&#x11b;" 
d="M255 -10q-63 0 -104 25t-58 71t-8 108l25 162q11 62 42.5 107.5t81 71t112.5 25.5q62 0 103 -25.5t58 -71t7 -107.5l-15 -96h-338l-11 -66q-10 -69 18.5 -108t95.5 -39q54 0 91.5 23.5t56.5 66.5h66q-16 -45 -47.5 -78t-76.5 -51t-99 -18zM441 305l8 51
q11 69 -17.5 108.5t-94.5 39.5q-67 0 -108.5 -39t-52.5 -109l-7 -43h283zM325 645l-106 140h68l78 -97l107 97h71l-149 -140h-69z" />
    <glyph glyph-name="Gcircumflex" unicode="&#x11c;" 
d="M259 -10q-63 0 -105.5 25t-60 71t-8.5 108l54 342q11 63 43 109t82.5 70.5t113.5 24.5q64 0 106.5 -26t60.5 -73t8 -111h-66q11 71 -20.5 111t-97.5 40t-109.5 -38.5t-54.5 -106.5l-54 -342q-11 -68 21 -106.5t97 -38.5q67 0 111 40.5t55 110.5l16 102h-163l9 60h229
l-25 -162q-10 -64 -43.5 -111t-84 -73t-114.5 -26zM226 810l149 140h69l106 -140h-67l-77 97l-107 -97h-73z" />
    <glyph glyph-name="gcircumflex" unicode="&#x11d;" 
d="M97 -180l10 60h157q52 0 82.5 26t38.5 77l9 55l18 109h-18l27 33q-10 -65 -59 -103.5t-119 -38.5q-83 0 -123.5 55t-26.5 146l19 119q10 62 39.5 107t74.5 70t100 25q70 0 106.5 -38.5t25.5 -103.5l-13 33h14l16 99h66l-90 -567q-12 -79 -63.5 -121t-134.5 -42h-156z
M269 95q63 0 105 39t52 107l18 115q11 69 -18 108t-92 39t-104.5 -38.5t-52.5 -108.5l-18 -115q-10 -69 18.5 -107.5t91.5 -38.5zM193 645l149 140h69l106 -140h-67l-78 97l-106 -97h-73z" />
    <glyph glyph-name="Gbreve" unicode="&#x11e;" 
d="M259 -10q-63 0 -105.5 25t-60 71t-8.5 108l54 342q11 63 43 109t82.5 70.5t113.5 24.5q64 0 106.5 -26t60.5 -73t8 -111h-66q11 71 -20.5 111t-97.5 40t-109.5 -38.5t-54.5 -106.5l-54 -342q-11 -68 21 -106.5t97 -38.5q67 0 111 40.5t55 110.5l16 102h-163l9 60h229
l-25 -162q-10 -64 -43.5 -111t-84 -73t-114.5 -26zM388 807q-69 0 -104 39t-25 104h55q-7 -44 14.5 -70t65.5 -26t74.5 26t36.5 70h56q-10 -65 -57 -104t-116 -39z" />
    <glyph glyph-name="gbreve" unicode="&#x11f;" 
d="M97 -180l10 60h157q52 0 82.5 26t38.5 77l9 55l18 109h-18l27 33q-10 -65 -59 -103.5t-119 -38.5q-83 0 -123.5 55t-26.5 146l19 119q10 62 39.5 107t74.5 70t100 25q70 0 106.5 -38.5t25.5 -103.5l-13 33h14l16 99h66l-90 -567q-12 -79 -63.5 -121t-134.5 -42h-156z
M269 95q63 0 105 39t52 107l18 115q11 69 -18 108t-92 39t-104.5 -38.5t-52.5 -108.5l-18 -115q-10 -69 18.5 -107.5t91.5 -38.5zM355 642q-69 0 -104 39t-25 104h55q-7 -44 14.5 -70t65.5 -26t74.5 26t36.5 70h56q-10 -65 -57 -104t-116 -39z" />
    <glyph glyph-name="Gdotaccent" unicode="&#x120;" 
d="M259 -10q-63 0 -105.5 25t-60 71t-8.5 108l54 342q11 63 43 109t82.5 70.5t113.5 24.5q64 0 106.5 -26t60.5 -73t8 -111h-66q11 71 -20.5 111t-97.5 40t-109.5 -38.5t-54.5 -106.5l-54 -342q-11 -68 21 -106.5t97 -38.5q67 0 111 40.5t55 110.5l16 102h-163l9 60h229
l-25 -162q-10 -64 -43.5 -111t-84 -73t-114.5 -26zM390 821q-29 0 -43.5 16t-10.5 43q5 27 24.5 43t48.5 16t43.5 -16t9.5 -43q-4 -27 -23.5 -43t-48.5 -16z" />
    <glyph glyph-name="gdotaccent" unicode="&#x121;" 
d="M97 -180l10 60h157q52 0 82.5 26t38.5 77l9 55l18 109h-18l27 33q-10 -65 -59 -103.5t-119 -38.5q-83 0 -123.5 55t-26.5 146l19 119q10 62 39.5 107t74.5 70t100 25q70 0 106.5 -38.5t25.5 -103.5l-13 33h14l16 99h66l-90 -567q-12 -79 -63.5 -121t-134.5 -42h-156z
M269 95q63 0 105 39t52 107l18 115q11 69 -18 108t-92 39t-104.5 -38.5t-52.5 -108.5l-18 -115q-10 -69 18.5 -107.5t91.5 -38.5zM361 653q-28 0 -44 15.5t-15 42.5q2 27 20.5 43t46.5 16q29 0 45.5 -16t14.5 -43t-20.5 -42.5t-47.5 -15.5z" />
    <glyph glyph-name="uni0122" unicode="&#x122;" 
d="M259 -10q-63 0 -105.5 25t-60 71t-8.5 108l54 342q11 63 43 109t82.5 70.5t113.5 24.5q64 0 106.5 -26t60.5 -73t8 -111h-66q11 71 -20.5 111t-97.5 40t-109.5 -38.5t-54.5 -106.5l-54 -342q-11 -68 21 -106.5t97 -38.5q67 0 111 40.5t55 110.5l16 102h-163l9 60h229
l-25 -162q-10 -64 -43.5 -111t-84 -73t-114.5 -26zM129 -240l115 145h79l-128 -145h-66z" />
    <glyph glyph-name="uni0123" unicode="&#x123;" 
d="M97 -180l10 60h157q52 0 82.5 26t38.5 77l9 55l18 109h-18l27 33q-10 -65 -59 -103.5t-119 -38.5q-83 0 -123.5 55t-26.5 146l19 119q10 62 39.5 107t74.5 70t100 25q70 0 106.5 -38.5t25.5 -103.5l-13 33h14l16 99h66l-90 -567q-12 -79 -63.5 -121t-134.5 -42h-156z
M269 95q63 0 105 39t52 107l18 115q11 69 -18 108t-92 39t-104.5 -38.5t-52.5 -108.5l-18 -115q-10 -69 18.5 -107.5t91.5 -38.5zM498 880l-126 -235h-89l158 235h57z" />
    <glyph glyph-name="Hcircumflex" unicode="&#x124;" 
d="M59 0l116 730h66l-51 -322h262l51 322h66l-116 -730h-66l55 348h-262l-55 -348h-66zM222 810l149 140h69l106 -140h-67l-77 97l-107 -97h-73z" />
    <glyph glyph-name="hcircumflex" unicode="&#x125;" 
d="M59 0l116 730h66l-26 -162l-18 -108h22l-33 -44q11 66 59.5 105t118.5 39q82 0 123 -51.5t27 -140.5l-59 -368h-66l57 360q11 68 -17.5 106t-89.5 38q-62 0 -104.5 -39.5t-53.5 -108.5l-56 -356h-66zM46 805l149 140h69l106 -140h-67l-78 97l-106 -97h-73z" />
    <glyph glyph-name="Hbar" unicode="&#x126;" 
d="M51 534l9 56h580l-9 -56h-580zM59 0l116 730h66l-51 -322h262l51 322h66l-116 -730h-66l55 348h-262l-55 -348h-66z" />
    <glyph glyph-name="hbar" unicode="&#x127;" 
d="M53 580l9 57h98l15 93h66l-15 -93h174l-9 -57h-174l-14 -90l-15 -90h3q20 47 62.5 73.5t100.5 26.5q82 0 123 -51.5t27 -140.5l-49 -308h-66l48 300q10 68 -18.5 106t-89.5 38q-62 0 -104 -39.5t-53 -108.5l-47 -296h-66l92 580h-98z" />
    <glyph glyph-name="Itilde" unicode="&#x128;" 
d="M70 0l9 60h154l96 610h-153l10 61h372l-10 -61h-152l-97 -610h152l-9 -60h-372zM458 815q-29 0 -46 12.5t-29 29t-24 29t-29 12.5q-19 0 -32.5 -12t-16.5 -33l-5 -33h-50l5 33q7 43 35.5 67.5t69.5 24.5q29 0 46 -12.5t29 -29t23.5 -29t29.5 -12.5t30 12t15 33l6 33h50
l-6 -33q-7 -43 -34 -67.5t-67 -24.5z" />
    <glyph glyph-name="itilde" unicode="&#x129;" 
d="M45 0l9 60h199l68 430h-173l9 60h240l-78 -490h187l-9 -60h-452zM447 650q-29 0 -46 12.5t-29 29t-24 29t-29 12.5q-19 0 -32.5 -12t-16.5 -33l-5 -33h-50l5 33q7 43 35.5 67.5t69.5 24.5q29 0 46 -12.5t28.5 -29t23.5 -29t29 -12.5q18 0 30.5 12t15.5 33l6 33h50l-6 -33
q-7 -43 -34 -67.5t-67 -24.5z" />
    <glyph glyph-name="Imacron" unicode="&#x12a;" 
d="M70 0l9 60h154l96 610h-153l10 61h372l-10 -61h-152l-97 -610h152l-9 -60h-372zM242 848l9 56h296l-9 -56h-296z" />
    <glyph glyph-name="imacron" unicode="&#x12b;" 
d="M45 0l9 60h199l68 430h-173l9 60h240l-78 -490h187l-9 -60h-452zM230 678l9 56h296l-9 -56h-296z" />
    <glyph glyph-name="Ibreve" unicode="&#x12c;" 
d="M70 0l9 60h154l96 610h-153l10 61h372l-10 -61h-152l-97 -610h152l-9 -60h-372zM384 807q-69 0 -104 39t-25 104h55q-7 -44 14.5 -70t65.5 -26t74.5 26t36.5 70h56q-10 -65 -57 -104t-116 -39z" />
    <glyph glyph-name="ibreve" unicode="&#x12d;" 
d="M45 0l9 60h199l68 430h-173l9 60h240l-78 -490h187l-9 -60h-452zM373 642q-69 0 -104 39t-25 104h55q-7 -44 14.5 -70t65.5 -26t74.5 26t36.5 70h56q-10 -65 -57 -104t-116 -39z" />
    <glyph glyph-name="Iogonek" unicode="&#x12e;" 
d="M228 -198q-47 0 -71 23.5t-18 61.5q5 30 30.5 61.5t72.5 61.5h52l-13 -10q-34 -27 -54 -52.5t-24 -46.5q-3 -23 8.5 -36.5t36.5 -13.5h62l-7 -49h-75zM70 0l9 60h154l96 610h-153l10 61h372l-10 -61h-152l-97 -610h152l-9 -60h-372z" />
    <glyph glyph-name="iogonek" unicode="&#x12f;" 
d="M244 -198q-47 0 -71 23.5t-18 61.5q5 30 30.5 61.5t72.5 61.5h52l-13 -10q-35 -27 -54.5 -52.5t-23.5 -46.5q-3 -23 9 -36.5t36 -13.5h62l-7 -49h-75zM45 0l9 60h199l68 430h-173l9 60h240l-78 -490h187l-9 -60h-452zM379 653q-28 0 -44 15.5t-15 42.5q2 27 20.5 43
t46.5 16q29 0 45.5 -16t14.5 -43t-20.5 -42.5t-47.5 -15.5z" />
    <glyph glyph-name="Idotaccent" unicode="&#x130;" 
d="M70 0l9 60h154l96 610h-153l10 61h372l-10 -61h-152l-97 -610h152l-9 -60h-372zM386 821q-29 0 -43.5 16t-10.5 43q5 27 24.5 43t48.5 16t43.5 -16t9.5 -43q-4 -27 -23.5 -43t-48.5 -16z" />
    <glyph glyph-name="dotlessi" unicode="&#x131;" 
d="M45 0l9 60h199l68 430h-173l9 60h240l-78 -490h187l-9 -60h-452z" />
    <glyph glyph-name="Jcircumflex" unicode="&#x134;" 
d="M227 -10q-100 0 -147.5 57t-31.5 157h66q-11 -73 21.5 -114t101.5 -41t114.5 41t56.5 113l74 466h-182l10 61h248l-84 -527q-10 -66 -43.5 -114t-85.5 -73.5t-118 -25.5zM282 810l149 140h69l106 -140h-67l-77 97l-107 -97h-73z" />
    <glyph glyph-name="jcircumflex" unicode="&#x135;" 
d="M18 -180l10 60h133q67 0 108.5 36t52.5 102l74 472h-242l9 60h308l-83 -532q-10 -61 -42 -105.5t-82 -68.5t-113 -24h-133zM226 645l149 140h69l106 -140h-67l-78 97l-106 -97h-73z" />
    <glyph glyph-name="uni0136" unicode="&#x136;" 
d="M59 0l116 731h66l-51 -324h133l212 324h75l-231 -354l125 -377h-74l-114 349h-136l-55 -349h-66zM124 -240l115 145h79l-128 -145h-66z" />
    <glyph glyph-name="uni0137" unicode="&#x137;" 
d="M62 0l116 730h66l-66 -415h116l204 235h79l-229 -266l145 -284h-76l-129 256h-119l-41 -256h-66zM123 -240l115 145h81l-128 -145h-68z" />
    <glyph glyph-name="kgreenlandic" unicode="&#x138;" 
d="M63 0l87 550h66l-38 -235h115l205 235h79l-227 -266l143 -284h-76l-128 256h-120l-40 -256h-66z" />
    <glyph glyph-name="Lacute" unicode="&#x139;" 
d="M74 0l116 730h66l-107 -670h345l-9 -60h-411zM189 810l128 140h78l-133 -140h-73z" />
    <glyph glyph-name="lacute" unicode="&#x13a;" 
d="M321 0q-69 0 -102.5 38t-22.5 105l83 527h-171l10 60h237l-93 -587q-7 -40 11 -61.5t57 -21.5h179l-9 -60h-179zM277 810l128 140h78l-133 -140h-73z" />
    <glyph glyph-name="uni013B" unicode="&#x13b;" 
d="M74 0l116 730h66l-107 -670h345l-9 -60h-411zM144 -240l115 145h79l-128 -145h-66z" />
    <glyph glyph-name="uni013C" unicode="&#x13c;" 
d="M321 0q-69 0 -102.5 38t-22.5 105l83 527h-171l10 60h237l-93 -587q-7 -40 11 -61.5t57 -21.5h179l-9 -60h-179zM107 -240l115 145h81l-128 -145h-68z" />
    <glyph glyph-name="Lcaron" unicode="&#x13d;" 
d="M74 0l116 730h66l-107 -670h345l-9 -60h-411zM402 550l39 180h64l-49 -180h-54z" />
    <glyph glyph-name="lcaron" unicode="&#x13e;" 
d="M321 0q-69 0 -102.5 38t-22.5 105l83 527h-171l10 60h237l-93 -587q-7 -40 11 -61.5t57 -21.5h179l-9 -60h-179zM490 550l39 180h64l-49 -180h-54z" />
    <glyph glyph-name="Ldot" unicode="&#x13f;" 
d="M74 0l116 730h66l-107 -670h345l-9 -60h-411zM396 263q-36 0 -53 21t-12 56q6 36 30.5 57t59.5 21q36 0 53 -21t11 -57q-5 -35 -29 -56t-60 -21z" />
    <glyph glyph-name="ldot" unicode="&#x140;" 
d="M301 0q-69 0 -102.5 38t-22.5 105l83 527h-171l10 60h237l-93 -587q-7 -40 11 -61.5t57 -21.5h179l-9 -60h-179zM504 263q-36 0 -53 21t-12 56q6 36 30.5 57t59.5 21q36 0 53 -21t11 -57q-5 -35 -29 -56t-60 -21z" />
    <glyph glyph-name="Lslash" unicode="&#x141;" 
d="M13 233l11 68l410 256l-11 -68zM80 0l116 730h66l-107 -670h345l-9 -60h-411z" />
    <glyph glyph-name="lslash" unicode="&#x142;" 
d="M100 236v65l370 253v-65zM321 0q-69 0 -102.5 38t-22.5 105l83 527h-171l10 60h237l-93 -587q-7 -40 11 -61.5t57 -21.5h179l-9 -60h-179z" />
    <glyph glyph-name="Nacute" unicode="&#x143;" 
d="M58 0l116 730h88l147 -655q2 22 5 51t6.5 57t6.5 47l79 500h64l-116 -730h-88l-145 655q-2 -15 -5 -40t-6.5 -55t-8.5 -60l-79 -500h-64zM337 810l128 140h78l-133 -140h-73z" />
    <glyph glyph-name="nacute" unicode="&#x144;" 
d="M59 0l87 550h66l-16 -99h21l-31 -39q11 69 59 108.5t119 39.5q82 0 123 -51.5t27 -140.5l-59 -368h-66l57 360q11 68 -17.5 106t-89.5 38q-62 0 -104.5 -39.5t-53.5 -108.5l-56 -356h-66zM281 645l128 140h78l-133 -140h-73z" />
    <glyph glyph-name="uni0145" unicode="&#x145;" 
d="M58 0l116 730h88l147 -655q2 22 5 51t6.5 57t6.5 47l79 500h64l-116 -730h-88l-145 655q-2 -15 -5 -40t-6.5 -55t-8.5 -60l-79 -500h-64zM123 -240l115 145h81l-128 -145h-68z" />
    <glyph glyph-name="uni0146" unicode="&#x146;" 
d="M59 0l87 550h66l-16 -99h21l-31 -39q11 69 59 108.5t119 39.5q82 0 123 -51.5t27 -140.5l-59 -368h-66l57 360q11 68 -17.5 106t-89.5 38q-62 0 -104.5 -39.5t-53.5 -108.5l-56 -356h-66zM123 -240l115 145h81l-128 -145h-68z" />
    <glyph glyph-name="Ncaron" unicode="&#x147;" 
d="M58 0l116 730h88l147 -655q2 22 5 51t6.5 57t6.5 47l79 500h64l-116 -730h-88l-145 655q-2 -15 -5 -40t-6.5 -55t-8.5 -60l-79 -500h-64zM350 810l-106 140h68l78 -97l107 97h71l-149 -140h-69z" />
    <glyph glyph-name="ncaron" unicode="&#x148;" 
d="M59 0l87 550h66l-16 -99h21l-31 -39q11 69 59 108.5t119 39.5q82 0 123 -51.5t27 -140.5l-59 -368h-66l57 360q11 68 -17.5 106t-89.5 38q-62 0 -104.5 -39.5t-53.5 -108.5l-56 -356h-66zM325 645l-106 140h68l78 -97l107 97h71l-149 -140h-69z" />
    <glyph glyph-name="napostrophe" unicode="&#x149;" 
d="M59 0l87 550h66l-16 -99h21l-31 -39q11 69 59 108.5t119 39.5q82 0 123 -51.5t27 -140.5l-59 -368h-66l57 360q11 68 -17.5 106t-89.5 38q-62 0 -104.5 -39.5t-53.5 -108.5l-56 -356h-66zM-67 645l115 145h81l-128 -145h-68z" />
    <glyph glyph-name="Eng" unicode="&#x14a;" 
d="M159 -180l10 60h74q61 0 99 33t47 93l-169 649q-1 -15 -4 -40t-7 -55t-9 -60l-79 -500h-64l116 730h88l157 -602q1 17 4 43.5t6.5 58t8.5 60.5l70 440h64l-116 -724q-9 -58 -38.5 -100t-76.5 -64t-107 -22h-74z" />
    <glyph glyph-name="eng" unicode="&#x14b;" 
d="M170 -180l10 60h50q64 0 107.5 36t52.5 99l55 345q11 68 -17 106t-89 38q-62 0 -104 -39.5t-53 -108.5l-56 -356h-66l87 550h66l-16 -99h21l-31 -39q11 69 58.5 108.5t118.5 39.5q82 0 122.5 -51.5t26.5 -140.5l-57 -353q-9 -60 -41.5 -103.5t-82.5 -67.5t-112 -24h-50z
" />
    <glyph glyph-name="Omacron" unicode="&#x14c;" 
d="M254 -10q-61 0 -102.5 24.5t-58.5 70.5t-8 109l54 342q11 63 42.5 108.5t81 70.5t110.5 25q62 0 103.5 -25t59 -70.5t7.5 -108.5l-54 -342q-10 -63 -42 -109t-81.5 -70.5t-111.5 -24.5zM263 49q65 0 106.5 38t53.5 107l54 342q11 69 -19 107t-94 38t-106 -38t-53 -107
l-54 -342q-11 -69 18.5 -107t93.5 -38zM242 848l9 56h296l-9 -56h-296z" />
    <glyph glyph-name="omacron" unicode="&#x14d;" 
d="M254 -10q-61 0 -102.5 24.5t-58.5 70.5t-8 109l25 162q11 63 42.5 108.5t81.5 70.5t111 25q62 0 103 -25t58.5 -70.5t7.5 -108.5l-25 -162q-10 -63 -42 -109t-81.5 -70.5t-111.5 -24.5zM263 48q65 0 106.5 38t53.5 108l25 162q12 70 -18 108t-94 38t-106 -38t-54 -108
l-25 -162q-11 -70 18.5 -108t93.5 -38zM215 678l9 56h296l-9 -56h-296z" />
    <glyph glyph-name="Obreve" unicode="&#x14e;" 
d="M254 -10q-61 0 -102.5 24.5t-58.5 70.5t-8 109l54 342q11 63 42.5 108.5t81 70.5t110.5 25q62 0 103.5 -25t59 -70.5t7.5 -108.5l-54 -342q-10 -63 -42 -109t-81.5 -70.5t-111.5 -24.5zM263 49q65 0 106.5 38t53.5 107l54 342q11 69 -19 107t-94 38t-106 -38t-53 -107
l-54 -342q-11 -69 18.5 -107t93.5 -38zM384 807q-69 0 -104 39t-25 104h55q-7 -44 14.5 -70t65.5 -26t74.5 26t36.5 70h56q-10 -65 -57 -104t-116 -39z" />
    <glyph glyph-name="obreve" unicode="&#x14f;" 
d="M254 -10q-61 0 -102.5 24.5t-58.5 70.5t-8 109l25 162q11 63 42.5 108.5t81.5 70.5t111 25q62 0 103 -25t58.5 -70.5t7.5 -108.5l-25 -162q-10 -63 -42 -109t-81.5 -70.5t-111.5 -24.5zM263 48q65 0 106.5 38t53.5 108l25 162q12 70 -18 108t-94 38t-106 -38t-54 -108
l-25 -162q-11 -70 18.5 -108t93.5 -38zM358 642q-69 0 -104 39t-25 104h55q-7 -44 14.5 -70t65.5 -26t74.5 26t36.5 70h56q-10 -65 -57 -104t-116 -39z" />
    <glyph glyph-name="Ohungarumlaut" unicode="&#x150;" 
d="M254 -10q-61 0 -102.5 24.5t-58.5 70.5t-8 109l54 342q11 63 42.5 108.5t81 70.5t110.5 25q62 0 103.5 -25t59 -70.5t7.5 -108.5l-54 -342q-10 -63 -42 -109t-81.5 -70.5t-111.5 -24.5zM263 49q65 0 106.5 38t53.5 107l54 342q11 69 -19 107t-94 38t-106 -38t-53 -107
l-54 -342q-11 -69 18.5 -107t93.5 -38zM414 810l130 140h75l-135 -140h-70zM246 810l130 140h75l-135 -140h-70z" />
    <glyph glyph-name="ohungarumlaut" unicode="&#x151;" 
d="M254 -10q-61 0 -102.5 24.5t-58.5 70.5t-8 109l25 162q11 63 42.5 108.5t81.5 70.5t111 25q62 0 103 -25t58.5 -70.5t7.5 -108.5l-25 -162q-10 -63 -42 -109t-81.5 -70.5t-111.5 -24.5zM263 48q65 0 106.5 38t53.5 108l25 162q12 70 -18 108t-94 38t-106 -38t-54 -108
l-25 -162q-11 -70 18.5 -108t93.5 -38zM388 645l130 140h75l-136 -140h-69zM220 645l130 140h75l-135 -140h-70z" />
    <glyph glyph-name="OE" unicode="&#x152;" 
d="M150 -10q-47 0 -78.5 23.5t-44 65.5t-3.5 97l60 378q9 56 35 97.5t64.5 65t85.5 23.5q35 0 56.5 -14.5t32.5 -35t12 -40.5h5l13 80h255l-10 -63h-187l-41 -259h156l-10 -62h-156l-45 -283h187l-10 -63h-255l13 80h-5q-7 -19 -25 -40t-44 -35.5t-61 -14.5zM176 52
q47 0 81 33.5t43 90.5l60 378q9 57 -14.5 90.5t-69.5 33.5q-47 0 -80.5 -34t-42.5 -90l-60 -378q-9 -56 13.5 -90t69.5 -34z" />
    <glyph glyph-name="oe" unicode="&#x153;" 
d="M130 -10q-65 0 -96 41.5t-20 111.5l41 262q12 71 58 113t112 42q39 0 62.5 -13.5t34 -32.5t10.5 -38h3q6 19 22.5 38t44.5 32.5t65 13.5q66 0 98 -42t20 -112l-23 -150h-232l-18 -112q-6 -43 12.5 -70t56.5 -27q35 0 62 22t36 56h64q-16 -61 -61 -98t-104 -37
q-39 0 -63 13.5t-34 32.5t-10 37h-4q-5 -18 -22 -37t-45.5 -32.5t-69.5 -13.5zM149 47q38 0 65.5 27t33.5 70l42 262q7 43 -11.5 70t-57.5 27q-38 0 -66 -27t-35 -71l-42 -262q-6 -43 13.5 -69.5t57.5 -26.5zM339 315h168l14 91q7 43 -12 70t-57 27t-64.5 -27t-33.5 -70z
" />
    <glyph glyph-name="Racute" unicode="&#x154;" 
d="M59 0l116 730h213q65 0 108.5 -25.5t62.5 -71.5t9 -108q-8 -55 -36.5 -98t-72.5 -69.5t-99 -33.5l7 31l123 -355h-74l-106 322h-134l-51 -322h-66zM185 381h147q67 0 113 40t56 105q11 66 -23 105t-100 39h-147zM337 810l128 140h78l-133 -140h-73z" />
    <glyph glyph-name="racute" unicode="&#x155;" 
d="M77 0l87 550h65l-14 -87h21l-39 -65q13 78 60.5 120t121.5 42q88 0 130 -54t28 -147l-5 -31h-69l5 28q11 70 -18 109t-93 39q-63 0 -105 -39t-53 -109l-56 -356h-66zM337 645l128 140h78l-133 -140h-73z" />
    <glyph glyph-name="uni0156" unicode="&#x156;" 
d="M59 0l116 730h213q65 0 108.5 -25.5t62.5 -71.5t9 -108q-8 -55 -36.5 -98t-72.5 -69.5t-99 -33.5l7 31l123 -355h-74l-106 322h-134l-51 -322h-66zM185 381h147q67 0 113 40t56 105q11 66 -23 105t-100 39h-147zM123 -240l115 145h81l-128 -145h-68z" />
    <glyph glyph-name="uni0157" unicode="&#x157;" 
d="M77 0l87 550h65l-14 -87h21l-39 -65q13 78 60.5 120t121.5 42q88 0 130 -54t28 -147l-5 -31h-69l5 28q11 70 -18 109t-93 39q-63 0 -105 -39t-53 -109l-56 -356h-66zM-42 -240l115 145h81l-128 -145h-68z" />
    <glyph glyph-name="Rcaron" unicode="&#x158;" 
d="M59 0l116 730h213q65 0 108.5 -25.5t62.5 -71.5t9 -108q-8 -55 -36.5 -98t-72.5 -69.5t-99 -33.5l7 31l123 -355h-74l-106 322h-134l-51 -322h-66zM185 381h147q67 0 113 40t56 105q11 66 -23 105t-100 39h-147zM350 810l-106 140h68l78 -97l107 97h71l-149 -140h-69z
" />
    <glyph glyph-name="rcaron" unicode="&#x159;" 
d="M77 0l87 550h65l-14 -87h21l-39 -65q13 78 60.5 120t121.5 42q88 0 130 -54t28 -147l-5 -31h-69l5 28q11 70 -18 109t-93 39q-63 0 -105 -39t-53 -109l-56 -356h-66zM345 645l-106 140h68l78 -97l107 97h71l-149 -140h-69z" />
    <glyph glyph-name="Sacute" unicode="&#x15a;" 
d="M259 -10q-104 0 -155.5 53t-38.5 144h66q-9 -63 28 -100.5t110 -37.5q70 0 115 35t55 97q8 56 -14.5 94.5t-71.5 53.5l-86 27q-69 22 -101.5 74.5t-21.5 123.5q9 57 40.5 98.5t81.5 64.5t113 23q94 0 141 -52t33 -141h-66q10 62 -22 98t-96 36q-65 0 -107.5 -32
t-51.5 -90q-7 -52 14.5 -90t68.5 -53l86 -28q71 -22 104.5 -77.5t22.5 -126.5q-9 -59 -43 -102.5t-86.5 -67.5t-117.5 -24zM337 810l128 140h78l-133 -140h-73z" />
    <glyph glyph-name="sacute" unicode="&#x15b;" 
d="M228 -10q-79 0 -121.5 40t-39.5 105h66q1 -37 29 -61.5t76 -24.5h57q55 0 88.5 26t40.5 69q6 40 -14.5 67t-64.5 33l-91 14q-72 11 -106 48t-23 102q11 70 65 111t139 41h40q77 0 118 -37.5t40 -99.5h-66q0 34 -26.5 56t-74.5 22h-41q-54 0 -87.5 -25t-40.5 -68
q-5 -39 14.5 -60.5t67.5 -29.5l90 -14q72 -11 105 -51t23 -107q-12 -72 -66 -114t-140 -42h-57zM327 645l128 140h78l-133 -140h-73z" />
    <glyph glyph-name="Scircumflex" unicode="&#x15c;" 
d="M259 -10q-104 0 -155.5 53t-38.5 144h66q-9 -63 28 -100.5t110 -37.5q70 0 115 35t55 97q8 56 -14.5 94.5t-71.5 53.5l-86 27q-69 22 -101.5 74.5t-21.5 123.5q9 57 40.5 98.5t81.5 64.5t113 23q94 0 141 -52t33 -141h-66q10 62 -22 98t-96 36q-65 0 -107.5 -32
t-51.5 -90q-7 -52 14.5 -90t68.5 -53l86 -28q71 -22 104.5 -77.5t22.5 -126.5q-9 -59 -43 -102.5t-86.5 -67.5t-117.5 -24zM222 810l149 140h69l106 -140h-67l-77 97l-107 -97h-73z" />
    <glyph glyph-name="scircumflex" unicode="&#x15d;" 
d="M228 -10q-79 0 -121.5 40t-39.5 105h66q1 -37 29 -61.5t76 -24.5h57q55 0 88.5 26t40.5 69q6 40 -14.5 67t-64.5 33l-91 14q-72 11 -106 48t-23 102q11 70 65 111t139 41h40q77 0 118 -37.5t40 -99.5h-66q0 34 -26.5 56t-74.5 22h-41q-54 0 -87.5 -25t-40.5 -68
q-5 -39 14.5 -60.5t67.5 -29.5l90 -14q72 -11 105 -51t23 -107q-12 -72 -66 -114t-140 -42h-57zM206 645l149 140h69l106 -140h-67l-78 97l-106 -97h-73z" />
    <glyph glyph-name="Scedilla" unicode="&#x15e;" 
d="M148 -198l7 43h76q23 0 39 12.5t18 26.5q4 22 -24 36t-80 14l49 92h48l-31 -60q24 -2 49 -11.5t40.5 -27.5t10.5 -46q-4 -33 -38 -56t-82 -23h-82zM259 -10q-104 0 -155.5 53t-38.5 144h66q-9 -63 28 -100.5t110 -37.5q70 0 115 35t55 97q8 56 -14.5 94.5t-71.5 53.5
l-86 27q-69 22 -101.5 74.5t-21.5 123.5q9 57 40.5 98.5t81.5 64.5t113 23q94 0 141 -52t33 -141h-66q10 62 -22 98t-96 36q-65 0 -107.5 -32t-51.5 -90q-7 -52 14.5 -90t68.5 -53l86 -28q71 -22 104.5 -77.5t22.5 -126.5q-9 -59 -43 -102.5t-86.5 -67.5t-117.5 -24z" />
    <glyph glyph-name="scedilla" unicode="&#x15f;" 
d="M197 -198l4 43h76q23 0 38.5 12.5t16.5 26.5q3 22 -26 36t-81 14l43 92h48l-28 -60q25 -2 50.5 -11.5t42 -27.5t13.5 -46q-3 -33 -34.5 -56t-80.5 -23h-82zM228 -10q-79 0 -121.5 40t-39.5 105h66q1 -37 29 -61.5t76 -24.5h57q55 0 88.5 26t40.5 69q6 40 -14.5 67
t-64.5 33l-91 14q-72 11 -106 48t-23 102q11 70 65 111t139 41h40q77 0 118 -37.5t40 -99.5h-66q0 34 -26.5 56t-74.5 22h-41q-54 0 -87.5 -25t-40.5 -68q-5 -39 14.5 -60.5t67.5 -29.5l90 -14q72 -11 105 -51t23 -107q-12 -72 -66 -114t-140 -42h-57z" />
    <glyph glyph-name="Scaron" unicode="&#x160;" 
d="M259 -10q-104 0 -155.5 53t-38.5 144h66q-9 -63 28 -100.5t110 -37.5q70 0 115 35t55 97q8 56 -14.5 94.5t-71.5 53.5l-86 27q-69 22 -101.5 74.5t-21.5 123.5q9 57 40.5 98.5t81.5 64.5t113 23q94 0 141 -52t33 -141h-66q10 62 -22 98t-96 36q-65 0 -107.5 -32
t-51.5 -90q-7 -52 14.5 -90t68.5 -53l86 -28q71 -22 104.5 -77.5t22.5 -126.5q-9 -59 -43 -102.5t-86.5 -67.5t-117.5 -24zM350 810l-106 140h68l78 -97l107 97h71l-149 -140h-69z" />
    <glyph glyph-name="scaron" unicode="&#x161;" 
d="M228 -10q-79 0 -121.5 40t-39.5 105h66q1 -37 29 -61.5t76 -24.5h57q55 0 88.5 26t40.5 69q6 40 -14.5 67t-64.5 33l-91 14q-72 11 -106 48t-23 102q11 70 65 111t139 41h40q77 0 118 -37.5t40 -99.5h-66q0 34 -26.5 56t-74.5 22h-41q-54 0 -87.5 -25t-40.5 -68
q-5 -39 14.5 -60.5t67.5 -29.5l90 -14q72 -11 105 -51t23 -107q-12 -72 -66 -114t-140 -42h-57zM335 645l-106 140h68l78 -97l107 97h71l-149 -140h-69z" />
    <glyph glyph-name="uni0162" unicode="&#x162;" 
d="M170 -198l7 43h76q23 0 39 12.5t18 26.5q4 22 -24 36t-80 14l49 92l35 -26l-19 -34q25 -2 50 -11.5t40.5 -27.5t10.5 -46q-5 -33 -38.5 -56t-81.5 -23h-82zM224 0l106 670h-210l10 60h484l-10 -60h-208l-106 -670h-66z" />
    <glyph glyph-name="uni0163" unicode="&#x163;" 
d="M268 -198v43h76q23 0 37.5 12.5t14.5 26.5q0 22 -30.5 36t-82.5 14l35 92h48l-22 -60q25 -2 51.5 -11.5t44.5 -27.5t18 -46q0 -33 -29.5 -56t-78.5 -23h-82zM316 0q-66 0 -96.5 34.5t-20.5 98.5l57 357h-158l9 60h158l24 150h66l-24 -150h223l-9 -60h-223l-57 -357
q-11 -73 60 -73h141l-9 -60h-141z" />
    <glyph glyph-name="Tcaron" unicode="&#x164;" 
d="M224 0l106 670h-210l10 60h484l-10 -60h-208l-106 -670h-66zM350 810l-106 140h68l78 -97l107 97h71l-149 -140h-69z" />
    <glyph glyph-name="tcaron" unicode="&#x165;" 
d="M434 620l109 156h80l-125 -156h-64zM316 0q-66 0 -96.5 34.5t-20.5 98.5l57 357h-158l9 60h158l24 150h66l-24 -150h223l-9 -60h-223l-57 -357q-11 -73 60 -73h141l-9 -60h-141z" />
    <glyph glyph-name="Tbar" unicode="&#x166;" 
d="M121 304l9 57h368l-9 -57h-368zM224 0l106 670h-210l10 60h484l-10 -60h-208l-106 -670h-66z" />
    <glyph glyph-name="tbar" unicode="&#x167;" 
d="M86 252l9 56h379l-9 -56h-379zM316 0q-66 0 -96.5 34.5t-20.5 98.5l57 357h-158l9 60h158l24 150h66l-24 -150h223l-9 -60h-223l-57 -357q-11 -73 60 -73h141l-9 -60h-141z" />
    <glyph glyph-name="Utilde" unicode="&#x168;" 
d="M255 -10q-94 0 -138 55.5t-29 148.5l85 536h66l-85 -536q-11 -68 17.5 -106.5t93.5 -38.5q64 0 104 38.5t51 106.5l85 536h66l-85 -536q-9 -62 -40.5 -108t-80 -71t-110.5 -25zM458 815q-29 0 -46 12.5t-29 29t-24 29t-29 12.5q-19 0 -32.5 -12t-16.5 -33l-5 -33h-50
l5 33q7 43 35.5 67.5t69.5 24.5q29 0 46 -12.5t29 -29t23.5 -29t29.5 -12.5t30 12t15 33l6 33h50l-6 -33q-7 -43 -34 -67.5t-67 -24.5z" />
    <glyph glyph-name="utilde" unicode="&#x169;" 
d="M253 -10q-91 0 -135.5 55.5t-29.5 150.5l56 354h66l-56 -354q-11 -69 18 -108t91 -39q63 0 104.5 39t53.5 108l55 354h66l-55 -354q-10 -63 -42 -109.5t-81 -71.5t-111 -25zM432 650q-29 0 -46 12.5t-29 29t-24 29t-29 12.5q-19 0 -32.5 -12t-16.5 -33l-5 -33h-50l5 33
q7 43 35.5 67.5t69.5 24.5q29 0 46 -12.5t28.5 -29t23.5 -29t29 -12.5q18 0 30.5 12t15.5 33l6 33h50l-6 -33q-7 -43 -34 -67.5t-67 -24.5z" />
    <glyph glyph-name="Umacron" unicode="&#x16a;" 
d="M255 -10q-94 0 -138 55.5t-29 148.5l85 536h66l-85 -536q-11 -68 17.5 -106.5t93.5 -38.5q64 0 104 38.5t51 106.5l85 536h66l-85 -536q-9 -62 -40.5 -108t-80 -71t-110.5 -25zM242 848l9 56h296l-9 -56h-296z" />
    <glyph glyph-name="umacron" unicode="&#x16b;" 
d="M253 -10q-91 0 -135.5 55.5t-29.5 150.5l56 354h66l-56 -354q-11 -69 18 -108t91 -39q63 0 104.5 39t53.5 108l55 354h66l-55 -354q-10 -63 -42 -109.5t-81 -71.5t-111 -25zM215 678l9 56h296l-9 -56h-296z" />
    <glyph glyph-name="Ubreve" unicode="&#x16c;" 
d="M255 -10q-94 0 -138 55.5t-29 148.5l85 536h66l-85 -536q-11 -68 17.5 -106.5t93.5 -38.5q64 0 104 38.5t51 106.5l85 536h66l-85 -536q-9 -62 -40.5 -108t-80 -71t-110.5 -25zM384 807q-69 0 -104 39t-25 104h55q-7 -44 14.5 -70t65.5 -26t74.5 26t36.5 70h56
q-10 -65 -57 -104t-116 -39z" />
    <glyph glyph-name="ubreve" unicode="&#x16d;" 
d="M253 -10q-91 0 -135.5 55.5t-29.5 150.5l56 354h66l-56 -354q-11 -69 18 -108t91 -39q63 0 104.5 39t53.5 108l55 354h66l-55 -354q-10 -63 -42 -109.5t-81 -71.5t-111 -25zM358 642q-69 0 -104 39t-25 104h55q-7 -44 14.5 -70t65.5 -26t74.5 26t36.5 70h56
q-10 -65 -57 -104t-116 -39z" />
    <glyph glyph-name="Uring" unicode="&#x16e;" 
d="M255 -10q-94 0 -138 55.5t-29 148.5l85 536h66l-85 -536q-11 -68 17.5 -106.5t93.5 -38.5q64 0 104 38.5t51 106.5l85 536h66l-85 -536q-9 -62 -40.5 -108t-80 -71t-110.5 -25zM379 774q-49 0 -75.5 29.5t-19.5 76.5q8 47 43 76.5t85 29.5t76 -29.5t18 -76.5
q-7 -47 -42 -76.5t-85 -29.5zM385 817q29 0 49 17t24 46q5 29 -9.5 46.5t-42.5 17.5q-29 0 -49 -17.5t-25 -46.5q-4 -29 10.5 -46t42.5 -17z" />
    <glyph glyph-name="uring" unicode="&#x16f;" 
d="M253 -10q-91 0 -135.5 55.5t-29.5 150.5l56 354h66l-56 -354q-11 -69 18 -108t91 -39q63 0 104.5 39t53.5 108l55 354h66l-55 -354q-10 -63 -42 -109.5t-81 -71.5t-111 -25zM353 612q-50 0 -76 29.5t-19 76.5q8 47 43.5 76t85.5 29t75.5 -29t17.5 -76q-7 -48 -42 -77
t-85 -29zM360 654q28 0 48 17.5t24 46.5q5 29 -9.5 46.5t-42.5 17.5t-48.5 -18t-25.5 -46q-4 -29 11 -46.5t43 -17.5z" />
    <glyph glyph-name="Uhungarumlaut" unicode="&#x170;" 
d="M255 -10q-94 0 -138 55.5t-29 148.5l85 536h66l-85 -536q-11 -68 17.5 -106.5t93.5 -38.5q64 0 104 38.5t51 106.5l85 536h66l-85 -536q-9 -62 -40.5 -108t-80 -71t-110.5 -25zM414 810l130 140h75l-135 -140h-70zM246 810l130 140h75l-135 -140h-70z" />
    <glyph glyph-name="uhungarumlaut" unicode="&#x171;" 
d="M253 -10q-91 0 -135.5 55.5t-29.5 150.5l56 354h66l-56 -354q-11 -69 18 -108t91 -39q63 0 104.5 39t53.5 108l55 354h66l-55 -354q-10 -63 -42 -109.5t-81 -71.5t-111 -25zM388 645l130 140h75l-136 -140h-69zM220 645l130 140h75l-135 -140h-70z" />
    <glyph glyph-name="Uogonek" unicode="&#x172;" 
d="M298 -198q-47 0 -71 23.5t-18 61.5q3 16 12.5 34t25.5 36.5t37 34.5q-6 -1 -15 -1.5t-15 -0.5q-61 0 -102 24.5t-57.5 70.5t-6.5 109l85 536h66l-85 -536q-12 -69 16.5 -107t92.5 -38q65 0 105.5 38t51.5 107l85 536h66l-85 -536q-10 -62 -39.5 -107t-77.5 -71l-20 -14
q-34 -27 -53 -53.5t-23 -47.5q-3 -23 9 -36.5t36 -13.5h62l-7 -49h-75z" />
    <glyph glyph-name="uogonek" unicode="&#x173;" 
d="M297 -198q-46 0 -70.5 23.5t-17.5 61.5q3 23 21 48.5t56 56.5q-5 0 -10.5 -0.5t-10.5 -1t-11 -0.5q-92 0 -136.5 55t-29.5 149l56 356h66l-56 -356q-12 -70 16.5 -108t92.5 -38q65 0 105.5 38t51.5 108l56 356h66l-56 -356q-9 -58 -36 -101.5t-70 -69.5l-29 -23
q-35 -27 -55 -52.5t-23 -46.5q-4 -23 8 -36.5t37 -13.5h62l-8 -49h-75z" />
    <glyph glyph-name="Wcircumflex" unicode="&#x174;" 
d="M78 0l28 730h60l-23 -540q-1 -20 -2.5 -46l-3 -52t-2.5 -45q6 19 13 45t14.5 52t13.5 46l159 540h76l-16 -540q-1 -20 -1.5 -46t-1.5 -52t-2 -45q6 19 13 45l14 52t13 46l146 540h62l-205 -730h-88l16 538q1 25 2 51.5t2 51t1 40.5q-4 -16 -11 -40.5t-15 -51t-15 -51.5
l-160 -538h-87zM222 810l149 140h69l106 -140h-67l-77 97l-107 -97h-73z" />
    <glyph glyph-name="wcircumflex" unicode="&#x175;" 
d="M91 0l-4 550h58l-1 -401q0 -22 -0.5 -51.5t-1.5 -48.5q5 19 14.5 48t16.5 51l136 402h66l9 -402q0 -22 0.5 -51t-0.5 -48q5 19 13 48.5t15 51.5l128 401h59l-180 -550h-79l-4 387q-1 27 -1 58.5v50.5q-6 -19 -16.5 -50.5l-19.5 -58.5l-129 -387h-79zM196 645l149 140h69
l106 -140h-67l-78 97l-106 -97h-73z" />
    <glyph glyph-name="Ycircumflex" unicode="&#x176;" 
d="M223 0l44 277l-151 453h66l106 -318q8 -23 13.5 -41.5t7.5 -27.5q6 8 16.5 27t25.5 42l207 318h70l-295 -453l-44 -277h-66zM222 810l149 140h69l106 -140h-67l-77 97l-107 -97h-73z" />
    <glyph glyph-name="ycircumflex" unicode="&#x177;" 
d="M92 -180l10 60h157q53 0 83.5 26t38.5 77l11 69l16 97h-22l32 39q-11 -68 -59 -108t-120 -40q-81 0 -122 52t-27 140l50 318h66l-49 -310q-11 -68 18.5 -106t89.5 -38q62 0 104.5 39.5t53.5 108.5l48 306h66l-90 -567q-12 -79 -63.5 -121t-134.5 -42h-157zM196 645
l149 140h69l106 -140h-67l-78 97l-106 -97h-73z" />
    <glyph glyph-name="Ydieresis" unicode="&#x178;" 
d="M223 0l44 277l-151 453h66l106 -318q8 -23 13.5 -41.5t7.5 -27.5q6 8 16.5 27t25.5 42l207 318h70l-295 -453l-44 -277h-66zM496 822q-26 0 -39 15.5t-9 42.5q5 27 23 43t44 16q25 0 38 -16t8 -43q-4 -27 -21.5 -42.5t-43.5 -15.5zM279 822q-26 0 -39 15.5t-9 42.5
q5 27 23 43t43 16q26 0 39 -16t8 -43q-4 -27 -22 -42.5t-43 -15.5z" />
    <glyph glyph-name="Zacute" unicode="&#x179;" 
d="M45 0l10 66l438 604h-338l10 60h406l-11 -70l-436 -600h352l-9 -60h-422zM337 810l128 140h78l-133 -140h-73z" />
    <glyph glyph-name="zacute" unicode="&#x17a;" 
d="M54 0l10 64l382 426h-306l9 60h384l-10 -64l-385 -426h330l-10 -60h-404zM317 645l128 140h78l-133 -140h-73z" />
    <glyph glyph-name="Zdotaccent" unicode="&#x17b;" 
d="M45 0l10 66l438 604h-338l10 60h406l-11 -70l-436 -600h352l-9 -60h-422zM386 821q-29 0 -43.5 16t-10.5 43q5 27 24.5 43t48.5 16t43.5 -16t9.5 -43q-4 -27 -23.5 -43t-48.5 -16z" />
    <glyph glyph-name="zdotaccent" unicode="&#x17c;" 
d="M54 0l10 64l382 426h-306l9 60h384l-10 -64l-385 -426h330l-10 -60h-404zM364 653q-28 0 -44 15.5t-15 42.5q2 27 20.5 43t46.5 16q29 0 45.5 -16t14.5 -43t-20.5 -42.5t-47.5 -15.5z" />
    <glyph glyph-name="Zcaron" unicode="&#x17d;" 
d="M45 0l10 66l438 604h-338l10 60h406l-11 -70l-436 -600h352l-9 -60h-422zM350 810l-106 140h68l78 -97l107 97h71l-149 -140h-69z" />
    <glyph glyph-name="zcaron" unicode="&#x17e;" 
d="M54 0l10 64l382 426h-306l9 60h384l-10 -64l-385 -426h330l-10 -60h-404zM325 645l-106 140h68l78 -97l107 97h71l-149 -140h-69z" />
    <glyph glyph-name="longs" unicode="&#x17f;" 
d="M-34 -180l10 60h113q39 0 62.5 20t29.5 59l101 632q7 43 29.5 74t58 48t81.5 17h161l-10 -60h-162q-39 0 -62.5 -20t-29.5 -59l-101 -632q-9 -64 -54.5 -101.5t-114.5 -37.5h-112z" />
    <glyph glyph-name="uni018F" unicode="&#x18f;" 
d="M253 -10q-62 0 -102.5 25.5t-57.5 71.5t-7 107l30 193h336l24 149q11 68 -18 106.5t-95 38.5q-65 0 -106 -40t-52 -111h-66q10 64 41 111t80 73t112 26q96 0 140.5 -55t29.5 -149l-54 -342q-10 -61 -41.5 -107t-81 -71.5t-112.5 -25.5zM262 46q68 0 108.5 39t51.5 109
l22 139h-280l11 9l-23 -148q-11 -69 17 -108.5t93 -39.5z" />
    <glyph glyph-name="florin" unicode="&#x192;" 
d="M-73 -180l10 60h100q63 0 103 34.5t50 97.5l50 312h-166l9 60h166l34 215q10 62 52.5 96.5t108.5 34.5h156l-10 -59h-156q-36 0 -58 -18.5t-27 -53.5l-34 -215h230l-9 -60h-230l-51 -318q-9 -57 -40.5 -99t-79.5 -64.5t-108 -22.5h-100z" />
    <glyph glyph-name="Ohorn" unicode="&#x1a0;" 
d="M455 653l8 47h35q18 0 31 12t16 32l11 66h54l-11 -68q-6 -40 -35.5 -64.5t-71.5 -24.5h-37zM254 -10q-61 0 -102.5 24.5t-58.5 70.5t-8 109l54 342q11 63 42.5 108.5t81 70.5t110.5 25q62 0 103.5 -25t59 -70.5t7.5 -108.5l-54 -342q-10 -63 -42 -109t-81.5 -70.5
t-111.5 -24.5zM263 49q65 0 106.5 38t53.5 107l54 342q11 69 -19 107t-94 38t-106 -38t-53 -107l-54 -342q-11 -69 18.5 -107t93.5 -38z" />
    <glyph glyph-name="ohorn" unicode="&#x1a1;" 
d="M434 483l8 47h35q18 0 31 12t16 32l11 66h54l-11 -68q-7 -40 -36 -64.5t-71 -24.5h-37zM254 -10q-61 0 -102.5 24.5t-58.5 70.5t-8 109l25 162q11 63 42.5 108.5t81.5 70.5t111 25q62 0 103 -25t58.5 -70.5t7.5 -108.5l-25 -162q-10 -63 -42 -109t-81.5 -70.5
t-111.5 -24.5zM263 48q65 0 106.5 38t53.5 108l25 162q12 70 -18 108t-94 38t-106 -38t-54 -108l-25 -162q-11 -70 18.5 -108t93.5 -38z" />
    <glyph glyph-name="Uhorn" unicode="&#x1af;" 
d="M504 683l8 47h71q19 0 31.5 12t16.5 32l10 66h54l-11 -68q-6 -40 -35.5 -64.5t-71.5 -24.5h-73zM255 -10q-94 0 -138 55.5t-29 148.5l85 536h66l-85 -536q-11 -68 17.5 -106.5t93.5 -38.5q64 0 104 38.5t51 106.5l85 536h66l-85 -536q-9 -62 -40.5 -108t-80 -71
t-110.5 -25z" />
    <glyph glyph-name="uhorn" unicode="&#x1b0;" 
d="M88 196l56 354h66l-56 -354q-11 -69 18 -108t91 -39q63 0 104.5 39t53.5 108l55 354h58q18 0 31 12t17 32l11 66h54l-12 -68q-6 -40 -32 -64.5t-68 -24.5l-48 -307q-10 -63 -42 -109.5t-81 -71.5t-111 -25q-91 0 -135.5 55.5t-29.5 150.5z" />
    <glyph glyph-name="uni01CD" unicode="&#x1cd;" 
d="M17 0l312 730h86l80 -730h-65l-21 204h-238l-85 -204h-69zM194 261h210l-28 267q-6 58 -8 97t-3 51q-4 -12 -18.5 -51t-39.5 -97zM350 810l-106 140h68l78 -97l107 97h71l-149 -140h-69z" />
    <glyph glyph-name="uni01CE" unicode="&#x1ce;" 
d="M234 -10q-82 0 -122.5 54.5t-26.5 146.5l26 167q10 62 39.5 107t74.5 70t100 25q70 0 107.5 -39.5t26.5 -104.5l-16 47h18l14 87h66l-87 -550h-66l14 87h-24l37 47q-10 -66 -60.5 -105t-120.5 -39zM261 47q63 0 105 39t52 107l26 163q11 69 -18 108t-93 39
q-63 0 -104 -38.5t-52 -108.5l-26 -163q-10 -69 18.5 -107.5t91.5 -38.5zM330 645l-106 140h68l78 -97l107 97h71l-149 -140h-69z" />
    <glyph glyph-name="Gcaron" unicode="&#x1e6;" 
d="M259 -10q-63 0 -105.5 25t-60 71t-8.5 108l54 342q11 63 43 109t82.5 70.5t113.5 24.5q64 0 106.5 -26t60.5 -73t8 -111h-66q11 71 -20.5 111t-97.5 40t-109.5 -38.5t-54.5 -106.5l-54 -342q-11 -68 21 -106.5t97 -38.5q67 0 111 40.5t55 110.5l16 102h-163l9 60h229
l-25 -162q-10 -64 -43.5 -111t-84 -73t-114.5 -26zM354 810l-106 140h68l78 -97l107 97h71l-149 -140h-69z" />
    <glyph glyph-name="gcaron" unicode="&#x1e7;" 
d="M97 -180l10 60h157q52 0 82.5 26t38.5 77l9 55l18 109h-18l27 33q-10 -65 -59 -103.5t-119 -38.5q-83 0 -123.5 55t-26.5 146l19 119q10 62 39.5 107t74.5 70t100 25q70 0 106.5 -38.5t25.5 -103.5l-13 33h14l16 99h66l-90 -567q-12 -79 -63.5 -121t-134.5 -42h-156z
M269 95q63 0 105 39t52 107l18 115q11 69 -18 108t-92 39t-104.5 -38.5t-52.5 -108.5l-18 -115q-10 -69 18.5 -107.5t91.5 -38.5zM322 645l-106 140h68l78 -97l107 97h71l-149 -140h-69z" />
    <glyph glyph-name="uni01EA" unicode="&#x1ea;" 
d="M298 -198q-47 0 -71 23.5t-18 61.5q3 16 12.5 34t25.5 36.5t37 34.5q-6 -1 -15 -1.5t-15 -0.5q-61 0 -102.5 24.5t-58.5 70.5t-8 109l54 342q11 63 42.5 108.5t81 70.5t110.5 25q62 0 103.5 -25t59 -70.5t7.5 -108.5l-54 -342q-10 -62 -41 -107t-79 -71l-20 -14
q-34 -27 -53 -53.5t-23 -47.5q-3 -23 9 -36.5t36 -13.5h62l-7 -49h-75zM263 49q65 0 106.5 38t53.5 107l54 342q11 69 -19 107t-94 38t-106 -38t-53 -107l-54 -342q-11 -69 18.5 -107t93.5 -38z" />
    <glyph glyph-name="uni01EB" unicode="&#x1eb;" 
d="M297 -198q-46 0 -70.5 23.5t-17.5 61.5q3 23 21 48.5t56 56.5q-5 0 -10.5 -0.5t-10.5 -1t-11 -0.5q-61 0 -102.5 24.5t-58.5 70.5t-8 109l25 162q11 63 42.5 108.5t81.5 70.5t111 25q62 0 103 -25t58.5 -70.5t7.5 -108.5l-25 -162q-10 -58 -38 -101.5t-71 -69.5l-29 -23
q-35 -27 -55 -52.5t-23 -46.5q-4 -23 8 -36.5t37 -13.5h62l-8 -49h-75zM263 48q65 0 106.5 38t53.5 108l25 162q12 70 -18 108t-94 38t-106 -38t-54 -108l-25 -162q-11 -70 18.5 -108t93.5 -38z" />
    <glyph glyph-name="uni01F4" unicode="&#x1f4;" 
d="M259 -10q-63 0 -105.5 25t-60 71t-8.5 108l54 342q11 63 43 109t82.5 70.5t113.5 24.5q64 0 106.5 -26t60.5 -73t8 -111h-66q11 71 -20.5 111t-97.5 40t-109.5 -38.5t-54.5 -106.5l-54 -342q-11 -68 21 -106.5t97 -38.5q67 0 111 40.5t55 110.5l16 102h-163l9 60h229
l-25 -162q-10 -64 -43.5 -111t-84 -73t-114.5 -26zM341 810l128 140h78l-133 -140h-73z" />
    <glyph glyph-name="uni01F5" unicode="&#x1f5;" 
d="M97 -180l10 60h157q52 0 82.5 26t38.5 77l9 55l18 109h-18l27 33q-10 -65 -59 -103.5t-119 -38.5q-83 0 -123.5 55t-26.5 146l19 119q10 62 39.5 107t74.5 70t100 25q70 0 106.5 -38.5t25.5 -103.5l-13 33h14l16 99h66l-90 -567q-12 -79 -63.5 -121t-134.5 -42h-156z
M269 95q63 0 105 39t52 107l18 115q11 69 -18 108t-92 39t-104.5 -38.5t-52.5 -108.5l-18 -115q-10 -69 18.5 -107.5t91.5 -38.5zM313 645l128 140h78l-133 -140h-73z" />
    <glyph glyph-name="AEacute" unicode="&#x1fc;" 
d="M-12 0l287 730h366l-10 -60h-198l-41 -261h167l-9 -60h-167l-46 -289h198l-10 -60h-262l33 210h-158l-83 -210h-67zM160 267h145l64 403h-53zM342 810l128 140h78l-133 -140h-73z" />
    <glyph glyph-name="aeacute" unicode="&#x1fd;" 
d="M126 -10q-62 0 -91 40t-19 105l7 52q10 60 53 95.5t108 35.5h94l14 88q7 45 -11 71t-58 26q-34 0 -59.5 -22t-33.5 -58h-64q13 62 55.5 99.5t103.5 37.5q39 0 62.5 -13.5t34.5 -32.5t11 -38h3q7 19 24 38t44 32.5t63 13.5q65 0 96 -42t19 -112l-23 -143h-228l-18 -119
q-7 -42 12 -69t57 -27q36 0 60.5 21.5t32.5 57.5h64q-13 -62 -56 -99.5t-105 -37.5q-38 0 -61.5 13.5t-33.5 32.5t-11 37h-3q-6 -18 -24 -37t-47.5 -32.5t-71.5 -13.5zM149 46q38 0 66.5 28t34.5 70l19 119h-94q-33 0 -56.5 -21t-29.5 -55l-7 -52q-7 -39 11.5 -64t55.5 -25z
M340 318h164l14 88q7 42 -11 69.5t-55 27.5t-64 -27.5t-34 -69.5zM317 645l128 140h78l-133 -140h-73z" />
    <glyph glyph-name="Oslashacute" unicode="&#x1fe;" 
d="M-6 -40l573 790h64l-573 -790h-64zM254 -10q-61 0 -102.5 24.5t-59 70.5t-7.5 109l54 342q11 63 42.5 108.5t81 70.5t110.5 25q62 0 103 -25t59 -70.5t8 -108.5l-54 -342q-10 -63 -42 -109t-81.5 -70.5t-111.5 -24.5zM263 49q65 0 106.5 38t53.5 107l54 342
q11 69 -19 107t-94 38t-105.5 -38t-53.5 -107l-54 -342q-11 -69 18.5 -107t93.5 -38zM337 810l128 140h78l-133 -140h-73z" />
    <glyph glyph-name="oslashacute" unicode="&#x1ff;" 
d="M0 -30l532 620h68l-532 -620h-68zM254 -10q-61 0 -102.5 24.5t-58.5 70.5t-8 109l25 162q10 63 42 108.5t82 70.5t111 25q62 0 103.5 -25t59 -70.5t6.5 -108.5l-25 -162q-10 -63 -42 -109t-81.5 -70.5t-111.5 -24.5zM263 48q66 0 108 38.5t54 107.5l25 162
q11 69 -19.5 107.5t-94.5 38.5q-65 0 -107.5 -38.5t-54.5 -107.5l-25 -162q-11 -69 19 -107.5t95 -38.5zM317 645l128 140h78l-133 -140h-73z" />
    <glyph glyph-name="uni0218" unicode="&#x218;" 
d="M259 -10q-104 0 -155.5 53t-38.5 144h66q-9 -63 28 -100.5t110 -37.5q70 0 115 35t55 97q8 56 -14.5 94.5t-71.5 53.5l-86 27q-69 22 -101.5 74.5t-21.5 123.5q9 57 40.5 98.5t81.5 64.5t113 23q94 0 141 -52t33 -141h-66q10 62 -22 98t-96 36q-65 0 -107.5 -32
t-51.5 -90q-7 -52 14.5 -90t68.5 -53l86 -28q71 -22 104.5 -77.5t22.5 -126.5q-9 -59 -43 -102.5t-86.5 -67.5t-117.5 -24zM123 -240l115 145h81l-128 -145h-68z" />
    <glyph glyph-name="uni0219" unicode="&#x219;" 
d="M228 -10q-79 0 -121.5 40t-39.5 105h66q1 -37 29 -61.5t76 -24.5h57q55 0 88.5 26t40.5 69q6 40 -14.5 67t-64.5 33l-91 14q-72 11 -106 48t-23 102q11 70 65 111t139 41h40q77 0 118 -37.5t40 -99.5h-66q0 34 -26.5 56t-74.5 22h-41q-54 0 -87.5 -25t-40.5 -68
q-5 -39 14.5 -60.5t67.5 -29.5l90 -14q72 -11 105 -51t23 -107q-12 -72 -66 -114t-140 -42h-57zM119 -240l115 145h81l-128 -145h-68z" />
    <glyph glyph-name="uni021A" unicode="&#x21a;" 
d="M224 0l106 670h-210l10 60h484l-10 -60h-208l-106 -670h-66zM88 -240l115 145h81l-128 -145h-68z" />
    <glyph glyph-name="uni021B" unicode="&#x21b;" 
d="M316 0q-66 0 -96.5 34.5t-20.5 98.5l57 357h-158l9 60h158l24 150h66l-24 -150h223l-9 -60h-223l-57 -357q-11 -73 60 -73h141l-9 -60h-141zM123 -240l115 145h81l-128 -145h-68z" />
    <glyph glyph-name="uni0232" unicode="&#x232;" 
d="M223 0l44 277l-151 453h66l106 -318q8 -23 13.5 -41.5t7.5 -27.5q6 8 16.5 27t25.5 42l207 318h70l-295 -453l-44 -277h-66zM242 848l9 56h296l-9 -56h-296z" />
    <glyph glyph-name="uni0233" unicode="&#x233;" 
d="M92 -180l10 60h157q53 0 83.5 26t38.5 77l11 69l16 97h-22l32 39q-11 -68 -59 -108t-120 -40q-81 0 -122 52t-27 140l50 318h66l-49 -310q-11 -68 18.5 -106t89.5 -38q62 0 104.5 39.5t53.5 108.5l48 306h66l-90 -567q-12 -79 -63.5 -121t-134.5 -42h-157zM215 678l9 56
h296l-9 -56h-296z" />
    <glyph glyph-name="uni0237" unicode="&#x237;" 
d="M18 -180l10 60h133q67 0 108.5 36t52.5 102l74 472h-242l9 60h308l-83 -532q-10 -61 -42 -105.5t-82 -68.5t-113 -24h-133z" />
    <glyph glyph-name="uni0259" unicode="&#x259;" 
d="M253 -10q-62 0 -102.5 25.5t-57.5 71.5t-7 107l15 96h337l10 66q11 69 -17.5 108t-95.5 39q-53 0 -90.5 -23.5t-56.5 -66.5h-66q24 68 82.5 107.5t139.5 39.5q64 0 104.5 -25t58 -71t6.5 -108l-25 -162q-10 -61 -41.5 -107t-81 -71.5t-112.5 -25.5zM262 46q68 0 109 39
t52 109l6 43h-281l11 8l-8 -51q-11 -69 17.5 -108.5t93.5 -39.5z" />
    <glyph glyph-name="uni02B9" unicode="&#x2b9;" 
d="M198 410l126 311h106l-176 -311h-56z" />
    <glyph glyph-name="uni02BA" unicode="&#x2ba;" 
d="M360 409l126 311h106l-176 -311h-56zM88 409l126 311h106l-176 -311h-56z" />
    <glyph glyph-name="uni02BC" unicode="&#x2bc;" 
d="M207 465l126 311h106l-176 -311h-56z" />
    <glyph glyph-name="circumflex" unicode="&#x2c6;" 
d="M196 645l149 140h69l106 -140h-67l-78 97l-106 -97h-73z" />
    <glyph glyph-name="caron" unicode="&#x2c7;" 
d="M325 645l-106 140h68l78 -97l107 97h71l-149 -140h-69z" />
    <glyph glyph-name="uni02C9" unicode="&#x2c9;" 
d="M278.386 678l17.8701 56h296l-17.8701 -56h-296z" />
    <glyph glyph-name="breve" unicode="&#x2d8;" 
d="M358 642q-69 0 -104 39t-25 104h55q-7 -44 14.5 -70t65.5 -26t74.5 26t36.5 70h56q-10 -65 -57 -104t-116 -39z" />
    <glyph glyph-name="dotaccent" unicode="&#x2d9;" 
d="M364 653q-28 0 -44 15.5t-15 42.5q2 27 20.5 43t46.5 16q29 0 45.5 -16t14.5 -43t-20.5 -42.5t-47.5 -15.5z" />
    <glyph glyph-name="ring" unicode="&#x2da;" 
d="M353 612q-50 0 -76 29.5t-19 76.5q8 47 43.5 76t85.5 29t75.5 -29t17.5 -76q-7 -48 -42 -77t-85 -29zM360 654q28 0 48 17.5t24 46.5q5 29 -9.5 46.5t-42.5 17.5t-48.5 -18t-25.5 -46q-4 -29 11 -46.5t43 -17.5z" />
    <glyph glyph-name="ogonek" unicode="&#x2db;" 
d="M229 -198q-47 0 -71 23.5t-18 61.5q5 30 30.5 61.5t72.5 61.5h52l-13 -10q-35 -27 -54.5 -52.5t-23.5 -46.5q-3 -23 9 -36.5t36 -13.5h62l-7 -49h-75z" />
    <glyph glyph-name="tilde" unicode="&#x2dc;" 
d="M432 650q-29 0 -46 12.5t-29 29t-24 29t-29 12.5q-19 0 -32.5 -12t-16.5 -33l-5 -33h-50l5 33q7 43 35.5 67.5t69.5 24.5q29 0 46 -12.5t28.5 -29t23.5 -29t29 -12.5q18 0 30.5 12t15.5 33l6 33h50l-6 -33q-7 -43 -34 -67.5t-67 -24.5z" />
    <glyph glyph-name="hungarumlaut" unicode="&#x2dd;" 
d="M388 645l130 140h75l-136 -140h-69zM220 645l130 140h75l-135 -140h-70z" />
    <glyph glyph-name="uni02F3" unicode="&#x2f3;" 
d="M217 -247q-50 0 -76.5 26.5t-19.5 70.5t42 70.5t84 26.5q50 0 76.5 -26.5t19.5 -70.5t-41.5 -70.5t-84.5 -26.5zM222 -206q30 0 49.5 16t23.5 40q5 26 -9.5 41.5t-45.5 15.5q-27 0 -46.5 -16t-24.5 -41q-4 -24 11 -40t42 -16z" />
    <glyph glyph-name="uni02F7" unicode="&#x2f7;" 
d="M373 -210q-29 0 -48 12.5t-33.5 29t-28 29t-31.5 12.5q-19 0 -30.5 -12t-11.5 -33v-33h-50v33q0 43 24.5 67.5t65.5 24.5q29 0 48 -12.5t33.5 -29t28 -29t31.5 -12.5t28.5 12t10.5 33v33h50v-33q0 -43 -23.5 -67.5t-63.5 -24.5z" />
    <glyph glyph-name="gravecomb" unicode="&#x300;" horiz-adv-x="0" 
d="M367 645l-91 140h72l86 -140h-67z" />
    <glyph glyph-name="acutecomb" unicode="&#x301;" horiz-adv-x="0" 
d="M281 645l128 140h78l-133 -140h-73z" />
    <glyph glyph-name="uni0302" unicode="&#x302;" horiz-adv-x="0" 
d="M196 645l149 140h69l106 -140h-67l-78 97l-106 -97h-73z" />
    <glyph glyph-name="tildecomb" unicode="&#x303;" horiz-adv-x="0" 
d="M432 650q-29 0 -46 12.5t-29 29t-24 29t-29 12.5q-19 0 -32.5 -12t-16.5 -33l-5 -33h-50l5 33q7 43 35.5 67.5t69.5 24.5q29 0 46 -12.5t28.5 -29t23.5 -29t29 -12.5q18 0 30.5 12t15.5 33l6 33h50l-6 -33q-7 -43 -34 -67.5t-67 -24.5z" />
    <glyph glyph-name="uni0304" unicode="&#x304;" horiz-adv-x="0" 
d="M215 678l9 56h296l-9 -56h-296z" />
    <glyph glyph-name="uni0306" unicode="&#x306;" horiz-adv-x="0" 
d="M358 642q-69 0 -104 39t-25 104h55q-7 -44 14.5 -70t65.5 -26t74.5 26t36.5 70h56q-10 -65 -57 -104t-116 -39z" />
    <glyph glyph-name="uni0307" unicode="&#x307;" horiz-adv-x="0" 
d="M364 653q-28 0 -44 15.5t-15 42.5q2 27 20.5 43t46.5 16q29 0 45.5 -16t14.5 -43t-20.5 -42.5t-47.5 -15.5z" />
    <glyph glyph-name="uni0308" unicode="&#x308;" horiz-adv-x="0" 
d="M469 653q-26 0 -39.5 15.5t-9.5 42.5q5 27 23 43t44 16q25 0 38.5 -16t8.5 -43q-4 -27 -22 -42.5t-43 -15.5zM251 653q-25 0 -38.5 15.5t-9.5 42.5q5 27 23 43t43 16t39 -16t9 -43q-4 -27 -22 -42.5t-44 -15.5z" />
    <glyph glyph-name="hookabovecomb" unicode="&#x309;" horiz-adv-x="0" 
d="M322 645l65 71q8 10 14.5 19t7.5 15q4 25 -29 25h-84l8 47h94q37 0 56 -17.5t14 -47.5q-2 -13 -9 -27t-17 -26l-52 -59h-68z" />
    <glyph glyph-name="uni030A" unicode="&#x30a;" horiz-adv-x="0" 
d="M353 612q-50 0 -76 29.5t-19 76.5q8 47 43.5 76t85.5 29t75.5 -29t17.5 -76q-7 -48 -42 -77t-85 -29zM360 654q28 0 48 17.5t24 46.5q5 29 -9.5 46.5t-42.5 17.5t-48.5 -18t-25.5 -46q-4 -29 11 -46.5t43 -17.5z" />
    <glyph glyph-name="uni030B" unicode="&#x30b;" horiz-adv-x="0" 
d="M388 645l130 140h75l-136 -140h-69zM220 645l130 140h75l-135 -140h-70z" />
    <glyph glyph-name="uni030C" unicode="&#x30c;" horiz-adv-x="0" 
d="M325 645l-106 140h68l78 -97l107 97h71l-149 -140h-69z" />
    <glyph glyph-name="uni030F" unicode="&#x30f;" horiz-adv-x="0" 
d="M325 645h-63l-91 140h69zM491 645h-63l-91 140h69z" />
    <glyph glyph-name="uni0312" unicode="&#x312;" horiz-adv-x="0" 
d="M501 880l-126 -235h-89l158 235h57z" />
    <glyph glyph-name="uni031B" unicode="&#x31b;" horiz-adv-x="0" 
d="M527 503l7 47h43q19 0 32 12t16 32l11 66h54l-11 -68q-6 -40 -35.5 -64.5t-71.5 -24.5h-45z" />
    <glyph glyph-name="dotbelowcomb" unicode="&#x323;" horiz-adv-x="0" 
d="M223 -208q-29 0 -43.5 15.5t-10.5 42.5t24 43t49 16t43.5 -16t9.5 -43q-4 -27 -23.5 -42.5t-48.5 -15.5z" />
    <glyph glyph-name="uni0325" unicode="&#x325;" horiz-adv-x="0" 
d="M217 -247q-50 0 -76.5 26.5t-19.5 70.5t42 70.5t84 26.5q50 0 76.5 -26.5t19.5 -70.5t-41.5 -70.5t-84.5 -26.5zM222 -206q30 0 49.5 16t23.5 40q5 26 -9.5 41.5t-45.5 15.5q-27 0 -46.5 -16t-24.5 -41q-4 -24 11 -40t42 -16z" />
    <glyph glyph-name="uni0326" unicode="&#x326;" horiz-adv-x="0" 
d="M123 -240l115 145h81l-128 -145h-68z" />
    <glyph glyph-name="uni0327" unicode="&#x327;" horiz-adv-x="0" 
d="M133 -198l7 43h76q23 0 39 12.5t18 26.5q4 22 -24 36t-80 14l49 92h48l-31 -60q24 -2 49 -11.5t40.5 -27.5t10.5 -46q-4 -33 -38 -56t-82 -23h-82z" />
    <glyph glyph-name="uni0328" unicode="&#x328;" horiz-adv-x="0" 
d="M229 -198q-47 0 -71 23.5t-18 61.5q5 30 30.5 61.5t72.5 61.5h52l-13 -10q-35 -27 -54.5 -52.5t-23.5 -46.5q-3 -23 9 -36.5t36 -13.5h62l-7 -49h-75z" />
    <glyph glyph-name="uni0336" unicode="&#x336;" horiz-adv-x="0" 
d="M-626 300l8 52h660l-9 -52h-659z" />
    <glyph glyph-name="uni0338" unicode="&#x338;" horiz-adv-x="0" 
d="M73 -60l426 840h55l-427 -840h-54z" />
    <glyph glyph-name="uni0374" unicode="&#x374;" 
d="M198 410l126 311h106l-176 -311h-56z" />
    <glyph glyph-name="uni0375" unicode="&#x375;" 
d="M110 -160l126 311h110l-176 -311h-60z" />
    <glyph glyph-name="uni037E" unicode="&#x37e;" 
d="M113 -160l126 311h108l-176 -311h-58zM315 416q-32 0 -49 20t-12 52t28.5 52t55.5 20h14q32 0 49 -20t12 -52t-28 -52t-56 -20h-14z" />
    <glyph glyph-name="tonos" unicode="&#x384;" 
d="M283 645l128 140h74l-133 -140h-69z" />
    <glyph glyph-name="dieresistonos" unicode="&#x385;" 
d="M346 769l101 131h61l-109 -131h-53zM469 653q-26 0 -39.5 15.5t-9.5 42.5q5 27 23 43t44 16q25 0 38.5 -16t8.5 -43q-4 -27 -22 -42.5t-43 -15.5zM251 653q-25 0 -38.5 15.5t-9.5 42.5q5 27 23 43t43 16t39 -16t9 -43q-4 -27 -22 -42.5t-44 -15.5z" />
    <glyph glyph-name="Alphatonos" unicode="&#x386;" 
d="M17 0l312 730h86l80 -730h-65l-21 204h-238l-85 -204h-69zM194 261h210l-28 267q-6 58 -8 97t-3 51q-4 -12 -18.5 -51t-39.5 -97zM89 569l81 160h70l-88 -160h-63z" />
    <glyph glyph-name="anoteleia" unicode="&#x387;" 
d="M254 263q-36 0 -53 21t-12 56q6 36 30.5 57t59.5 21q36 0 53 -21t11 -57q-5 -35 -29 -56t-60 -21z" />
    <glyph glyph-name="Epsilontonos" unicode="&#x388;" 
d="M68 0l116 730h402l-10 -60h-336l-41 -259h301l-9 -60h-302l-46 -291h336l-9 -60h-402zM-33 569l81 160h70l-88 -160h-63z" />
    <glyph glyph-name="Etatonos" unicode="&#x389;" 
d="M-33 569l81 160h70l-88 -160h-63zM59 0l116 730h66l-51 -322h262l51 322h66l-116 -730h-66l55 348h-262l-55 -348h-66z" />
    <glyph glyph-name="Iotatonos" unicode="&#x38a;" 
d="M-33 569l81 160h70l-88 -160h-63zM70 0l9 60h154l96 610h-153l10 61h372l-10 -61h-152l-97 -610h152l-9 -60h-372z" />
    <glyph glyph-name="Omicrontonos" unicode="&#x38c;" 
d="M-1 569l81 160h70l-88 -160h-63zM254 -10q-61 0 -102.5 24.5t-58.5 70.5t-8 109l54 342q11 63 42.5 108.5t81 70.5t110.5 25q62 0 103.5 -25t59 -70.5t7.5 -108.5l-54 -342q-10 -63 -42 -109t-81.5 -70.5t-111.5 -24.5zM263 49q65 0 106.5 38t53.5 107l54 342
q11 69 -19 107t-94 38t-106 -38t-53 -107l-54 -342q-11 -69 18.5 -107t93.5 -38z" />
    <glyph glyph-name="Upsilontonos" unicode="&#x38e;" 
d="M-49 569l81 160h70l-88 -160h-63zM223 0l44 277l-151 453h66l106 -318q8 -23 13.5 -41.5t7.5 -27.5q6 8 16.5 27t25.5 42l207 318h70l-295 -453l-44 -277h-66z" />
    <glyph glyph-name="Omegatonos" unicode="&#x38f;" 
d="M6 0l9 59h157l2 11q-23 2 -46 18t-35 49.5t-4 86.5l49 309q11 63 42.5 109.5t81.5 72t112 25.5t103 -25.5t58.5 -72t6.5 -109.5l-49 -309q-8 -53 -30.5 -86t-50.5 -49.5t-51 -18.5l-3 -11h158l-10 -59h-210l15 94q44 0 75.5 35t40.5 93l49 311q11 69 -19 108.5t-92 39.5
q-63 0 -106.5 -39.5t-54.5 -108.5l-49 -311q-9 -58 11.5 -92.5t64.5 -34.5l-15 -95h-210zM-1 569l81 160h70l-88 -160h-63z" />
    <glyph glyph-name="iotadieresistonos" unicode="&#x390;" 
d="M373 0q-70 0 -103 38t-23 105l55 347h-204l9 60h271l-65 -407q-6 -40 12 -61.5t57 -21.5h127l-9 -60h-127zM346 769l101 131h61l-109 -131h-53zM469 653q-26 0 -39.5 15.5t-9.5 42.5q5 27 23 43t44 16q25 0 38.5 -16t8.5 -43q-4 -27 -22 -42.5t-43 -15.5zM251 653
q-25 0 -38.5 15.5t-9.5 42.5q5 27 23 43t43 16t39 -16t9 -43q-4 -27 -22 -42.5t-44 -15.5z" />
    <glyph glyph-name="Alpha" unicode="&#x391;" 
d="M17 0l312 730h86l80 -730h-65l-21 204h-238l-85 -204h-69zM194 261h210l-28 267q-6 58 -8 97t-3 51q-4 -12 -18.5 -51t-39.5 -97z" />
    <glyph glyph-name="Beta" unicode="&#x392;" 
d="M59 0l116 730h196q94 0 141.5 -50.5t33.5 -137.5q-8 -51 -34 -89t-66 -59t-91 -21l2 12q55 1 92.5 -21.5t53.5 -64t7 -98.5q-10 -61 -43.5 -106.5t-85.5 -70t-118 -24.5h-204zM134 60h134q71 0 118 38t58 104t-24 106t-106 40h-134zM189 406h130q65 0 108 35.5t53 96.5
q10 62 -22 97t-97 35h-131z" />
    <glyph glyph-name="Gamma" unicode="&#x393;" 
d="M72 0l116 730h413l-10 -60h-347l-106 -670h-66z" />
    <glyph glyph-name="uni0394" unicode="&#x394;" 
d="M17 0l312 730h86l80 -730h-478zM110 59h314l-48 469q-4 47 -7 88.5t-4 61.5q-7 -20 -23 -61t-35 -89z" />
    <glyph glyph-name="Epsilon" unicode="&#x395;" 
d="M68 0l116 730h402l-10 -60h-336l-41 -259h301l-9 -60h-302l-46 -291h336l-9 -60h-402z" />
    <glyph glyph-name="Zeta" unicode="&#x396;" 
d="M45 0l10 66l438 604h-338l10 60h406l-11 -70l-436 -600h352l-9 -60h-422z" />
    <glyph glyph-name="Eta" unicode="&#x397;" 
d="M59 0l116 730h66l-51 -322h262l51 322h66l-116 -730h-66l55 348h-262l-55 -348h-66z" />
    <glyph glyph-name="Theta" unicode="&#x398;" 
d="M212 348l10 60h196l-10 -60h-196zM254 -10q-61 0 -102.5 24.5t-58.5 70.5t-8 109l54 342q11 63 42.5 108.5t81 70.5t110.5 25q62 0 103.5 -25t59 -70.5t7.5 -108.5l-54 -342q-10 -63 -42 -109t-81.5 -70.5t-111.5 -24.5zM263 49q65 0 106.5 38t53.5 107l54 342
q11 69 -19 107t-94 38t-106 -38t-53 -107l-54 -342q-11 -69 18.5 -107t93.5 -38z" />
    <glyph glyph-name="Iota" unicode="&#x399;" 
d="M70 0l9 60h154l96 610h-153l10 61h372l-10 -61h-152l-97 -610h152l-9 -60h-372z" />
    <glyph glyph-name="Kappa" unicode="&#x39a;" 
d="M59 0l116 731h66l-51 -324h133l212 324h75l-231 -354l125 -377h-74l-114 349h-136l-55 -349h-66z" />
    <glyph glyph-name="Lambda" unicode="&#x39b;" 
d="M17 0l312 730h86l80 -730h-64l-54 528q-4 43 -7 77t-4 53.5l-1 19.5l-6.5 -19.5t-19.5 -53.5t-31 -77l-221 -528h-70z" />
    <glyph glyph-name="Mu" unicode="&#x39c;" 
d="M42 0l116 730h90l49 -262q5 -26 10 -54.5t7 -45.5q8 17 21.5 45.5t25.5 54.5l132 262h93l-116 -730h-64l59 370q6 42 14.5 87.5t18 89.5t18.5 83t16 67l-189 -374h-70l-72 374q-1 -28 -5 -66t-8.5 -82.5t-10 -90.5t-12.5 -88l-59 -370h-64z" />
    <glyph glyph-name="Nu" unicode="&#x39d;" 
d="M58 0l116 730h88l147 -655q2 22 5 51t6.5 57t6.5 47l79 500h64l-116 -730h-88l-145 655q-2 -15 -5 -40t-6.5 -55t-8.5 -60l-79 -500h-64z" />
    <glyph glyph-name="Xi" unicode="&#x39e;" 
d="M145 667l10 63h434l-10 -63h-434zM39 0l10 63h434l-10 -63h-434zM129 339l10 62h362l-10 -62h-362z" />
    <glyph glyph-name="Omicron" unicode="&#x39f;" 
d="M254 -10q-61 0 -102.5 24.5t-58.5 70.5t-8 109l54 342q11 63 42.5 108.5t81 70.5t110.5 25q62 0 103.5 -25t59 -70.5t7.5 -108.5l-54 -342q-10 -63 -42 -109t-81.5 -70.5t-111.5 -24.5zM263 49q65 0 106.5 38t53.5 107l54 342q11 69 -19 107t-94 38t-106 -38t-53 -107
l-54 -342q-11 -69 18.5 -107t93.5 -38z" />
    <glyph glyph-name="Pi" unicode="&#x3a0;" 
d="M60 0l116 730h392l-116 -730h-66l106 670h-260l-106 -670h-66z" />
    <glyph glyph-name="Rho" unicode="&#x3a1;" 
d="M59 0l116 730h223q65 0 109.5 -25.5t63.5 -72t9 -110.5q-10 -62 -44 -109t-86.5 -73t-117.5 -26h-157l-50 -314h-66zM184 374h157q68 0 114.5 40.5t56.5 107.5q12 69 -22 108.5t-102 39.5h-157z" />
    <glyph glyph-name="Sigma" unicode="&#x3a3;" 
d="M11 0l10 62l381 313l-285 293l10 62h485l-10 -60h-332l-74 3l263 -267l-11 -71l-345 -278l69 3h333l-9 -60h-485z" />
    <glyph glyph-name="Tau" unicode="&#x3a4;" 
d="M224 0l106 670h-210l10 60h484l-10 -60h-208l-106 -670h-66z" />
    <glyph glyph-name="Upsilon" unicode="&#x3a5;" 
d="M223 0l44 277l-151 453h66l106 -318q8 -23 13.5 -41.5t7.5 -27.5q6 8 16.5 27t25.5 42l207 318h70l-295 -453l-44 -277h-66z" />
    <glyph glyph-name="Phi" unicode="&#x3a6;" 
d="M220 -25l11 70q-63 0 -105.5 25t-60.5 71t-8 108l38 246q11 62 43.5 108t82.5 71.5t114 25.5l11 70h64l-11 -70q64 0 106 -25.5t60 -71.5t8 -108l-39 -246q-10 -62 -42.5 -108t-82.5 -71t-114 -25l-11 -70h-64zM240 102l86 541q-43 0 -78 -19t-58.5 -52t-30.5 -77
l-39 -246q-10 -65 23 -106t97 -41zM304 102q43 0 78 19t58.5 52t30.5 76l38 246q11 66 -21.5 107t-97.5 41z" />
    <glyph glyph-name="Chi" unicode="&#x3a7;" 
d="M4 0l274 377l-145 353h73l83 -220q6 -17 16.5 -41t17.5 -41q12 17 28.5 41t28.5 41l156 220h75l-257 -352l154 -378h-72l-93 244q-6 16 -16.5 40.5t-16.5 41.5q-13 -17 -30 -41t-28 -41l-172 -244h-76z" />
    <glyph glyph-name="Psi" unicode="&#x3a8;" 
d="M224 0l27 170q-95 0 -142 55.5t-32 148.5l56 356h64l-57 -356q-10 -65 23 -106t97 -41l80 503h64l-80 -503q43 0 78 19t58.5 52t30.5 76l56 356h64l-57 -356q-10 -62 -42.5 -108t-82.5 -71t-114 -25l-27 -170h-64z" />
    <glyph glyph-name="uni03A9" unicode="&#x3a9;" 
d="M6 0l9 59h157l2 11q-23 2 -46 18t-35 49.5t-4 86.5l49 309q11 63 42.5 109.5t81.5 72t112 25.5t103 -25.5t58.5 -72t6.5 -109.5l-49 -309q-8 -53 -30.5 -86t-50.5 -49.5t-51 -18.5l-3 -11h158l-10 -59h-210l15 94q44 0 75.5 35t40.5 93l49 311q11 69 -19 108.5t-92 39.5
q-63 0 -106.5 -39.5t-54.5 -108.5l-49 -311q-9 -58 11.5 -92.5t64.5 -34.5l-15 -95h-210z" />
    <glyph glyph-name="Iotadieresis" unicode="&#x3aa;" 
d="M70 0l9 60h154l96 610h-153l10 61h372l-10 -61h-152l-97 -610h152l-9 -60h-372zM496 822q-26 0 -39 15.5t-9 42.5q5 27 23 43t44 16q25 0 38 -16t8 -43q-4 -27 -21.5 -42.5t-43.5 -15.5zM279 822q-26 0 -39 15.5t-9 42.5q5 27 23 43t43 16q26 0 39 -16t8 -43
q-4 -27 -22 -42.5t-43 -15.5z" />
    <glyph glyph-name="Upsilondieresis" unicode="&#x3ab;" 
d="M223 0l44 277l-151 453h66l106 -318q8 -23 13.5 -41.5t7.5 -27.5q6 8 16.5 27t25.5 42l207 318h70l-295 -453l-44 -277h-66zM496 822q-26 0 -39 15.5t-9 42.5q5 27 23 43t44 16q25 0 38 -16t8 -43q-4 -27 -21.5 -42.5t-43.5 -15.5zM279 822q-26 0 -39 15.5t-9 42.5
q5 27 23 43t43 16q26 0 39 -16t8 -43q-4 -27 -22 -42.5t-43 -15.5z" />
    <glyph glyph-name="alphatonos" unicode="&#x3ac;" 
d="M306 645l128 140h74l-133 -140h-69zM234 -10q-82 0 -122.5 54.5t-26.5 146.5l26 167q10 62 39.5 107t74.5 70t100 25q70 0 107.5 -39.5t26.5 -104.5l-16 47h18l14 87h66l-87 -550h-66l14 87h-24l37 47q-10 -66 -60.5 -105t-120.5 -39zM261 47q63 0 105 39t52 107l26 163
q11 69 -18 108t-93 39q-63 0 -104 -38.5t-52 -108.5l-26 -163q-10 -69 18.5 -107.5t91.5 -38.5z" />
    <glyph glyph-name="epsilontonos" unicode="&#x3ad;" 
d="M281 -9h-52q-84 0 -127.5 43.5t-32.5 113.5q9 57 45.5 93t95.5 40l1 4q-51 4 -74.5 38t-15.5 85q8 45 35.5 78.5t70.5 53t96 19.5h53q82 0 123 -37.5t42 -100.5h-68q-4 35 -29.5 57t-76.5 22h-54q-32 0 -58.5 -12.5t-43.5 -34.5t-22 -49q-6 -41 17.5 -66.5t71.5 -25.5
h124l-9 -59h-125q-53 0 -88 -29t-42 -74q-7 -42 20.5 -71t79.5 -29h52q55 0 90.5 21.5t50.5 55.5h68q-20 -63 -76.5 -99.5t-141.5 -36.5zM295 645l128 140h74l-133 -140h-69z" />
    <glyph glyph-name="etatonos" unicode="&#x3ae;" 
d="M59 0l87 550h66l-16 -99h21l-31 -39q11 69 59 108.5t119 39.5q82 0 123 -51.5t27 -140.5l-88 -548h-66l86 540q11 68 -17.5 106t-89.5 38q-62 0 -104.5 -39.5t-53.5 -108.5l-56 -356h-66zM324 645l128 140h74l-133 -140h-69z" />
    <glyph glyph-name="iotatonos" unicode="&#x3af;" 
d="M373 0q-70 0 -103 38t-23 105l55 347h-204l9 60h271l-65 -407q-6 -40 12 -61.5t57 -21.5h127l-9 -60h-127zM290 645l128 140h74l-133 -140h-69z" />
    <glyph glyph-name="upsilondieresistonos" unicode="&#x3b0;" 
d="M253 -10q-91 0 -135.5 55.5t-29.5 150.5l56 354h66l-56 -354q-11 -69 18 -108t91 -39q63 0 104.5 39t53.5 108l55 354h66l-55 -354q-10 -63 -42 -109.5t-81 -71.5t-111 -25zM346 769l101 131h61l-109 -131h-53zM469 653q-26 0 -39.5 15.5t-9.5 42.5q5 27 23 43t44 16
q25 0 38.5 -16t8.5 -43q-4 -27 -22 -42.5t-43 -15.5zM251 653q-25 0 -38.5 15.5t-9.5 42.5q5 27 23 43t43 16t39 -16t9 -43q-4 -27 -22 -42.5t-44 -15.5z" />
    <glyph glyph-name="alpha" unicode="&#x3b1;" 
d="M234 -10q-82 0 -122.5 54.5t-26.5 146.5l26 167q10 62 39.5 107t74.5 70t100 25q70 0 107.5 -39.5t26.5 -104.5l-16 47h18l14 87h66l-87 -550h-66l14 87h-24l37 47q-10 -66 -60.5 -105t-120.5 -39zM261 47q63 0 105 39t52 107l26 163q11 69 -18 108t-93 39
q-63 0 -104 -38.5t-52 -108.5l-26 -163q-10 -69 18.5 -107.5t91.5 -38.5z" />
    <glyph glyph-name="beta" unicode="&#x3b2;" 
d="M30 -180l114 719q10 61 42 106t81.5 70t109.5 25q62 0 104 -22.5t60 -65t9 -100.5q-10 -64 -48.5 -109.5t-94.5 -60.5q59 -14 86.5 -59t16.5 -115q-10 -63 -43 -109.5t-84.5 -72.5t-117.5 -26h-140l-29 -180h-66zM134 60h136q72 0 116.5 38.5t54.5 105.5q11 67 -21 104
t-104 37h-42l9 58h41q63 0 105 39t51 99q11 65 -19 102t-93 37q-62 0 -104.5 -38t-53.5 -103z" />
    <glyph glyph-name="gamma" unicode="&#x3b3;" 
d="M194 -180l29 180l-110 550h66l71 -386q2 -15 5 -33t5.5 -35t4 -28l1.5 -11l4.5 11t12 28t15.5 35t15 33l191 386h69l-284 -550l-29 -180h-66z" />
    <glyph glyph-name="delta" unicode="&#x3b4;" 
d="M66 216q10 63 44 112.5t84 77.5t107 28q26 0 48 -6t36 -18l4 4l-209 253l10 63h356l-10 -57h-286l190 -227q27 -32 45.5 -68t26.5 -77t1 -86q-10 -65 -47 -116t-92 -80t-120 -29q-66 0 -112 29t-66 80t-10 117zM133 217q-7 -49 6.5 -87.5t46 -60t77.5 -21.5q46 0 85 21.5
t65.5 60t34.5 87.5t-6.5 87.5t-46.5 60t-78 21.5q-45 0 -84.5 -21.5t-65.5 -60t-34 -87.5z" />
    <glyph glyph-name="epsilon" unicode="&#x3b5;" 
d="M281 -9h-52q-84 0 -127.5 43.5t-32.5 113.5q9 57 45.5 93t95.5 40l1 4q-51 4 -74.5 38t-15.5 85q8 45 35.5 78.5t70.5 53t96 19.5h53q82 0 123 -37.5t42 -100.5h-68q-4 35 -29.5 57t-76.5 22h-54q-32 0 -58.5 -12.5t-43.5 -34.5t-22 -49q-6 -41 17.5 -66.5t71.5 -25.5
h124l-9 -59h-125q-53 0 -88 -29t-42 -74q-7 -42 20.5 -71t79.5 -29h52q55 0 90.5 21.5t50.5 55.5h68q-20 -63 -76.5 -99.5t-141.5 -36.5z" />
    <glyph glyph-name="zeta" unicode="&#x3b6;" 
d="M61 175q5 30 18 61.5t40 70t74.5 89.5t120.5 118t177 156h-336l10 60h406l-11 -70l-157 -141q-81 -73 -132.5 -125.5t-81.5 -91.5t-43.5 -69t-18.5 -58q-8 -55 18 -85.5t83 -30.5h148q60 0 85 -25t11 -81l-33 -133h-66l33 133q12 47 -40 47h-147q-90 0 -130.5 45.5
t-27.5 129.5z" />
    <glyph glyph-name="eta" unicode="&#x3b7;" 
d="M59 0l87 550h66l-16 -99h21l-31 -39q11 69 59 108.5t119 39.5q82 0 123 -51.5t27 -140.5l-88 -548h-66l86 540q11 68 -17.5 106t-89.5 38q-62 0 -104.5 -39.5t-53.5 -108.5l-56 -356h-66z" />
    <glyph glyph-name="theta" unicode="&#x3b8;" 
d="M254 -10q-61 0 -102.5 24.5t-58.5 70.5t-8 109l52 332q11 63 42.5 108.5t81.5 70.5t111 25q62 0 103 -25t58.5 -70.5t7.5 -108.5l-52 -332q-10 -63 -42 -109t-81.5 -70.5t-111.5 -24.5zM263 48q65 0 106.5 38t53.5 108l52 332q11 70 -18.5 108t-93.5 38t-106.5 -38
t-53.5 -108l-52 -332q-11 -70 18.5 -108t93.5 -38zM169 396h299l-9 -58h-299z" />
    <glyph glyph-name="iota" unicode="&#x3b9;" 
d="M373 0q-70 0 -103 38t-23 105l55 347h-204l9 60h271l-65 -407q-6 -40 12 -61.5t57 -21.5h127l-9 -60h-127z" />
    <glyph glyph-name="kappa" unicode="&#x3ba;" 
d="M63 0l87 550h66l-38 -235h115l205 235h79l-227 -266l143 -284h-76l-128 256h-120l-40 -256h-66z" />
    <glyph glyph-name="lambda" unicode="&#x3bb;" 
d="M17 0l301 540l-44 190h72l149 -730h-69l-66 357q-6 34 -11 67.5t-7 52.5q-8 -19 -24 -52.5t-34 -67.5l-192 -357h-75z" />
    <glyph glyph-name="uni03BC" unicode="&#x3bc;" 
d="M29 -180l116 730h66l-56 -356q-11 -69 17.5 -107t90.5 -38q63 0 104 38t52 107l56 356h66l-56 -356q-15 -95 -75 -149.5t-149 -54.5q-41 0 -70 10.5t-46 29.5t-24 41h-3q1 0 2 -12t1 -29.5t-3 -36.5l-23 -173h-66z" />
    <glyph glyph-name="nu" unicode="&#x3bd;" 
d="M213 0l-100 550h65l68 -394q5 -29 9.5 -59t6.5 -47q8 17 21.5 47t28.5 59l191 394h70l-274 -550h-86z" />
    <glyph glyph-name="xi" unicode="&#x3be;" 
d="M65 202q11 70 53.5 117t108.5 62q-53 16 -77.5 61t-14.5 110q14 87 80 138t164 51q101 0 150.5 -53.5t35.5 -145.5h-66q10 65 -24 102.5t-104 37.5q-69 0 -114 -35.5t-55 -99.5q-10 -65 22.5 -104t99.5 -39h86l-9 -60h-87q-75 0 -123 -37.5t-58 -104.5q-11 -68 25 -105
t111 -37h107q60 0 85.5 -25t11.5 -81l-34 -133h-66l34 133q11 47 -41 47h-106q-107 0 -158.5 54t-36.5 147z" />
    <glyph glyph-name="omicron" unicode="&#x3bf;" 
d="M254 -10q-61 0 -102.5 24.5t-58.5 70.5t-8 109l25 162q11 63 42.5 108.5t81.5 70.5t111 25q62 0 103 -25t58.5 -70.5t7.5 -108.5l-25 -162q-10 -63 -42 -109t-81.5 -70.5t-111.5 -24.5zM263 48q65 0 106.5 38t53.5 108l25 162q12 70 -18 108t-94 38t-106 -38t-54 -108
l-25 -162q-11 -70 18.5 -108t93.5 -38z" />
    <glyph glyph-name="pi" unicode="&#x3c0;" 
d="M480 -5q-66 0 -98 40t-20 108l54 348h-199l-78 -491h-66l78 491h-86l9 59h518l-9 -57h-100l-56 -352q-6 -40 10 -62.5t50 -22.5h27l-10 -61h-24z" />
    <glyph glyph-name="rho" unicode="&#x3c1;" 
d="M30 -180l85 539q10 62 41.5 107.5t80.5 69.5t110 24q62 0 102 -24.5t57 -69.5t7 -107l-26 -167q-10 -61 -39.5 -106.5t-74 -70.5t-99.5 -25q-71 0 -107.5 39.5t-26.5 104.5l17 -47h-19l-14 -95l-28 -172h-66zM265 47q63 0 104 38.5t52 108.5l25 163q12 70 -17 108t-92 38
t-104 -38.5t-52 -107.5l-25 -163q-12 -69 17.5 -108t91.5 -39z" />
    <glyph glyph-name="uni03C2" unicode="&#x3c2;" 
d="M86 200l24 156q11 63 43 108.5t82 70.5t113 25q92 0 140 -51.5t34 -138.5h-66q10 62 -22 96.5t-96 34.5t-107.5 -38t-53.5 -107l-26 -158q-10 -64 21.5 -101.5t95.5 -37.5h108q61 0 86 -25t11 -81l-34 -133h-66l34 133q11 47 -40 47h-108q-94 0 -141 52t-32 148z" />
    <glyph glyph-name="sigma" unicode="&#x3c3;" 
d="M85 194l25 162q11 63 42.5 108.5t81.5 70.5t111 25h224l-9 -58h-117l-4 -24l-26 28q24 0 44.5 -11.5t35 -31.5t20.5 -47.5t1 -59.5l-25 -162q-10 -63 -42 -109t-81.5 -70.5t-111.5 -24.5q-61 0 -102.5 24.5t-58.5 70.5t-8 109zM151 194q-11 -70 18.5 -108t93.5 -38
q65 0 106.5 38t53.5 108l25 162q12 70 -13.5 108t-98.5 38q-64 0 -106 -38t-54 -108z" />
    <glyph glyph-name="tau" unicode="&#x3c4;" 
d="M341 0q-66 0 -96.5 34.5t-20.5 98.5l57 357h-183l9 60h447l-9 -60h-198l-57 -357q-11 -73 60 -73h116l-9 -60h-116z" />
    <glyph glyph-name="upsilon" unicode="&#x3c5;" 
d="M253 -10q-91 0 -135.5 55.5t-29.5 150.5l56 354h66l-56 -354q-11 -69 18 -108t91 -39q63 0 104.5 39t53.5 108l55 354h66l-55 -354q-10 -63 -42 -109.5t-81 -71.5t-111 -25z" />
    <glyph glyph-name="phi" unicode="&#x3c6;" 
d="M196 -180l29 180q-98 0 -143 54t-30 148l55 348h62l-55 -348q-11 -69 21 -108t101 -39l79 495h94q79 0 117.5 -44t26.5 -121l-29 -183q-15 -94 -77 -148t-160 -54l-29 -180h-62zM293 55q70 0 114 39t55 108l29 183q9 52 -15.5 81.5t-75.5 29.5h-37z" />
    <glyph glyph-name="chi" unicode="&#x3c7;" 
d="M4 -180l274 377l-145 353h73l83 -220q6 -17 16.5 -41t17.5 -41q12 17 28.5 41t28.5 41l156 220h75l-257 -352l154 -378h-72l-93 244q-6 16 -16.5 40.5t-16.5 41.5q-13 -17 -30 -41t-28 -41l-172 -244h-76z" />
    <glyph glyph-name="psi" unicode="&#x3c8;" 
d="M196 -180l29 180q-97 0 -141.5 54.5t-29.5 147.5l55 348h62l-55 -348q-11 -70 21 -107.5t100 -37.5l78 493h56l-78 -493q68 0 112 37.5t55 107.5l55 348h62l-55 -348q-15 -93 -76.5 -147.5t-158.5 -54.5l-29 -180h-62z" />
    <glyph glyph-name="omega" unicode="&#x3c9;" 
d="M144 -10q-58 0 -85 41.5t-16 114.5l36 226q12 76 57.5 126.5t111.5 61.5l-11 -66q-37 -10 -62.5 -42.5t-33.5 -79.5l-36 -227q-7 -47 8 -72t49 -25q35 0 58 25t31 72l36 227h56l-36 -227q-7 -47 8 -72t49 -25q35 0 58.5 25t30.5 72l36 227q8 47 -9 78.5t-51 41.5l11 66
q62 -11 92.5 -60.5t18.5 -125.5l-36 -226q-11 -73 -52 -114.5t-99 -41.5q-52 0 -77 34.5t-16 93.5h6q-9 -59 -45 -93.5t-88 -34.5z" />
    <glyph glyph-name="iotadieresis" unicode="&#x3ca;" 
d="M373 0q-70 0 -103 38t-23 105l55 347h-204l9 60h271l-65 -407q-6 -40 12 -61.5t57 -21.5h127l-9 -60h-127zM469 653q-26 0 -39.5 15.5t-9.5 42.5q5 27 23 43t44 16q25 0 38.5 -16t8.5 -43q-4 -27 -22 -42.5t-43 -15.5zM251 653q-25 0 -38.5 15.5t-9.5 42.5q5 27 23 43
t43 16t39 -16t9 -43q-4 -27 -22 -42.5t-44 -15.5z" />
    <glyph glyph-name="upsilondieresis" unicode="&#x3cb;" 
d="M253 -10q-91 0 -135.5 55.5t-29.5 150.5l56 354h66l-56 -354q-11 -69 18 -108t91 -39q63 0 104.5 39t53.5 108l55 354h66l-55 -354q-10 -63 -42 -109.5t-81 -71.5t-111 -25zM469 653q-26 0 -39.5 15.5t-9.5 42.5q5 27 23 43t44 16q25 0 38.5 -16t8.5 -43
q-4 -27 -22 -42.5t-43 -15.5zM251 653q-25 0 -38.5 15.5t-9.5 42.5q5 27 23 43t43 16t39 -16t9 -43q-4 -27 -22 -42.5t-44 -15.5z" />
    <glyph glyph-name="omicrontonos" unicode="&#x3cc;" 
d="M254 -10q-61 0 -102.5 24.5t-58.5 70.5t-8 109l25 162q11 63 42.5 108.5t81.5 70.5t111 25q62 0 103 -25t58.5 -70.5t7.5 -108.5l-25 -162q-10 -63 -42 -109t-81.5 -70.5t-111.5 -24.5zM263 48q65 0 106.5 38t53.5 108l25 162q12 70 -18 108t-94 38t-106 -38t-54 -108
l-25 -162q-11 -70 18.5 -108t93.5 -38zM319 645l128 140h74l-133 -140h-69z" />
    <glyph glyph-name="upsilontonos" unicode="&#x3cd;" 
d="M253 -10q-91 0 -135.5 55.5t-29.5 150.5l56 354h66l-56 -354q-11 -69 18 -108t91 -39q63 0 104.5 39t53.5 108l55 354h66l-55 -354q-10 -63 -42 -109.5t-81 -71.5t-111 -25zM319 645l128 140h74l-133 -140h-69z" />
    <glyph glyph-name="omegatonos" unicode="&#x3ce;" 
d="M144 -10q-58 0 -85 41.5t-16 114.5l36 226q12 76 57.5 126.5t111.5 61.5l-11 -66q-37 -10 -62.5 -42.5t-33.5 -79.5l-36 -227q-7 -47 8 -72t49 -25q35 0 58 25t31 72l36 227h56l-36 -227q-7 -47 8 -72t49 -25q35 0 58.5 25t30.5 72l36 227q8 47 -9 78.5t-51 41.5l11 66
q62 -11 92.5 -60.5t18.5 -125.5l-36 -226q-11 -73 -52 -114.5t-99 -41.5q-52 0 -77 34.5t-16 93.5h6q-9 -59 -45 -93.5t-88 -34.5zM303 645l128 140h74l-133 -140h-69z" />
    <glyph glyph-name="uni03CF" unicode="&#x3cf;" 
d="M292 -180l10 59h38q47 0 78 26.5t38 73.5l13 80h64l-13 -80q-11 -77 -60 -118t-130 -41h-38zM59 0l116 731h66l-51 -324h133l212 324h75l-231 -354l125 -377h-74l-114 349h-136l-55 -349h-66z" />
    <glyph glyph-name="uni03D7" unicode="&#x3d7;" 
d="M256 -180l10 59h38q47 0 78 26t38 73l4 22h-36l52 330q5 27 10.5 57t11.5 58t11 46l-327 -491h-86l87 550h64l-52 -330q-4 -27 -10 -57t-12 -57.5t-10 -46.5l326 491h86l-77 -491h35l-13 -80q-11 -77 -60 -118t-130 -41h-38z" />
    <glyph glyph-name="uni0401" unicode="&#x401;" 
d="M68 0l116 730h402l-10 -60h-336l-41 -259h301l-9 -60h-302l-46 -291h336l-9 -60h-402zM516 822q-26 0 -39 15.5t-9 42.5q5 27 23 43t44 16q25 0 38 -16t8 -43q-4 -27 -21.5 -42.5t-43.5 -15.5zM299 822q-26 0 -39 15.5t-9 42.5q5 27 23 43t43 16q26 0 39 -16t8 -43
q-4 -27 -22 -42.5t-43 -15.5z" />
    <glyph glyph-name="uni0402" unicode="&#x402;" 
d="M191 -180l10 60h53q66 0 108.5 36t52.5 99l49 305q9 57 -9.5 88t-59.5 31q-29 0 -61.5 -16t-67.5 -47l-73 -66l-49 -310h-66l106 671h-122l10 59h311l-10 -59h-123l-46 -292l40 36q87 80 172 80q64 0 96 -43.5t20 -117.5l-51 -319q-9 -60 -41.5 -103.5t-82.5 -67.5
t-113 -24h-53z" />
    <glyph glyph-name="uni0403" unicode="&#x403;" 
d="M72 0l116 730h413l-10 -60h-347l-106 -670h-66zM342 810l128 140h78l-133 -140h-73z" />
    <glyph glyph-name="uni0404" unicode="&#x404;" 
d="M259 -10q-63 0 -105 25t-60 71t-8 108l54 342q11 63 43 109t82 70.5t113 24.5q64 0 106.5 -26t60 -73t7.5 -111h-66q12 71 -19.5 111t-97.5 40q-65 0 -108.5 -38.5t-54.5 -106.5l-22 -138h231l-9 -60h-231l-23 -144q-11 -68 20.5 -106.5t96.5 -38.5q67 0 110.5 40.5
t54.5 110.5h66q-10 -64 -43 -111t-83.5 -73t-114.5 -26z" />
    <glyph glyph-name="uni0405" unicode="&#x405;" 
d="M259 -10q-104 0 -155.5 53t-38.5 144h66q-9 -63 28 -100.5t110 -37.5q70 0 115 35t55 97q8 56 -14.5 94.5t-71.5 53.5l-86 27q-69 22 -101.5 74.5t-21.5 123.5q9 57 40.5 98.5t81.5 64.5t113 23q94 0 141 -52t33 -141h-66q10 62 -22 98t-96 36q-65 0 -107.5 -32
t-51.5 -90q-7 -52 14.5 -90t68.5 -53l86 -28q71 -22 104.5 -77.5t22.5 -126.5q-9 -59 -43 -102.5t-86.5 -67.5t-117.5 -24z" />
    <glyph glyph-name="uni0406" unicode="&#x406;" 
d="M70 0l9 60h154l96 610h-153l10 61h372l-10 -61h-152l-97 -610h152l-9 -60h-372z" />
    <glyph glyph-name="uni0407" unicode="&#x407;" 
d="M70 0l9 60h154l96 610h-153l10 61h372l-10 -61h-152l-97 -610h152l-9 -60h-372zM495 822q-26 0 -39 15.5t-9 42.5q5 27 23 43t44 16q25 0 38 -16t8 -43q-4 -27 -21.5 -42.5t-43.5 -15.5zM278 822q-26 0 -39 15.5t-9 42.5q5 27 23 43t43 16q26 0 39 -16t8 -43
q-4 -27 -22 -42.5t-43 -15.5z" />
    <glyph glyph-name="uni0408" unicode="&#x408;" 
d="M227 -10q-100 0 -147.5 57t-31.5 157h66q-11 -73 21.5 -114t101.5 -41t114.5 41t56.5 113l74 466h-182l10 61h248l-84 -527q-10 -66 -43.5 -114t-85.5 -73.5t-118 -25.5z" />
    <glyph glyph-name="uni0409" unicode="&#x409;" 
d="M-50 -5l10 62h22q30 0 52 31t32 84l96 558h262l-48 -306h64q71 0 106 -41.5t24 -110.5l-19 -120q-11 -69 -59.5 -110.5t-118.5 -41.5h-127l107 673h-139l-87 -501q-9 -53 -31.5 -93.5t-54.5 -62t-70 -21.5h-21zM317 57h65q43 0 71.5 25.5t35.5 69.5l19 120q7 44 -14 69.5
t-63 25.5h-65z" />
    <glyph glyph-name="uni040A" unicode="&#x40a;" 
d="M14 0l116 730h62l-48 -306h170l48 306h62l-48 -306h61q73 0 108.5 -41t24.5 -111l-19 -120q-11 -70 -60 -111t-121 -41h-124l58 367h-170l-58 -367h-62zM317 57h62q45 0 74 25.5t36 69.5l19 120q7 45 -14.5 70t-65.5 25h-62z" />
    <glyph glyph-name="uni040B" unicode="&#x40b;" 
d="M78 0l106 671h-122l10 59h311l-10 -59h-123l-46 -293l40 37q88 80 173 80q63 0 95 -43.5t20 -117.5l-53 -334h-66l51 320q9 57 -9.5 88t-59.5 31q-29 0 -61.5 -16t-67.5 -47l-73 -66l-49 -310h-66z" />
    <glyph glyph-name="uni040C" unicode="&#x40c;" 
d="M337 810l128 140h78l-133 -140h-73zM59 0l116 731h66l-51 -324h133l212 324h75l-231 -354l125 -377h-74l-114 349h-136l-55 -349h-66z" />
    <glyph glyph-name="uni040E" unicode="&#x40e;" 
d="M157 0l103 191l-127 539h71l79 -357q8 -33 13.5 -67.5t8.5 -52.5q7 18 21.5 52.5t31.5 67.5l180 357h73l-381 -730h-73zM384 807q-69 0 -104 39t-25 104h55q-7 -44 14.5 -70t65.5 -26t74.5 26t36.5 70h56q-10 -65 -57 -104t-116 -39z" />
    <glyph glyph-name="uni040F" unicode="&#x40f;" 
d="M202 -125l20 125h-162l116 730h69l-106 -667h254l106 667h69l-116 -730h-161l-20 -125h-69z" />
    <glyph glyph-name="uni0410" unicode="&#x410;" 
d="M17 0l312 730h86l80 -730h-65l-21 204h-238l-85 -204h-69zM194 261h210l-28 267q-6 58 -8 97t-3 51q-4 -12 -18.5 -51t-39.5 -97z" />
    <glyph glyph-name="uni0411" unicode="&#x411;" 
d="M60 0l116 730h388l-10 -60h-322l-41 -256h136q67 0 111.5 -25t63 -71.5t8.5 -109.5q-9 -63 -43 -110t-86.5 -72.5t-118.5 -25.5h-202zM135 60h136q70 0 115.5 39.5t56.5 107.5q11 70 -22 108.5t-103 38.5h-136z" />
    <glyph glyph-name="uni0412" unicode="&#x412;" 
d="M59 0l116 730h196q94 0 141.5 -50.5t33.5 -137.5q-8 -51 -34 -89t-66 -59t-91 -21l2 12q55 1 92.5 -21.5t53.5 -64t7 -98.5q-10 -61 -43.5 -106.5t-85.5 -70t-118 -24.5h-204zM134 60h134q71 0 118 38t58 104t-24 106t-106 40h-134zM189 406h130q65 0 108 35.5t53 96.5
q10 62 -22 97t-97 35h-131z" />
    <glyph glyph-name="uni0413" unicode="&#x413;" 
d="M72 0l116 730h413l-10 -60h-347l-106 -670h-66z" />
    <glyph glyph-name="uni0414" unicode="&#x414;" 
d="M-27 -140l31 198h38q16 19 36 53t37.5 78.5t25.5 95.5l80 445h340l-107 -672h71l-31 -198h-59l22 140h-403l-22 -140h-59zM112 58h276l97 613h-210l-68 -386q-10 -53 -26.5 -98t-35 -78.5t-33.5 -50.5z" />
    <glyph glyph-name="uni0415" unicode="&#x415;" 
d="M68 0l116 730h402l-10 -60h-336l-41 -259h301l-9 -60h-302l-46 -291h336l-9 -60h-402z" />
    <glyph glyph-name="uni0416" unicode="&#x416;" 
d="M-22 0l194 381l-68 349h66l59 -330h61l53 330h57l-53 -330h59l164 330h69l-180 -356l74 -374h-67l-64 349h-63l-55 -349h-57l55 349h-59l-175 -349h-70z" />
    <glyph glyph-name="uni0417" unicode="&#x417;" 
d="M250 -10q-99 0 -151.5 54t-41.5 144h66q-7 -65 29.5 -102t107.5 -37q74 0 122.5 39.5t58.5 106.5q12 70 -24 109t-111 39h-87l10 60h86q45 0 80 17.5t58 49.5t29 74q10 65 -23 101.5t-100 36.5q-70 0 -117.5 -38.5t-57.5 -102.5h-66q10 61 43.5 105.5t86.5 69t120 24.5
q97 0 147 -50.5t36 -139.5q-8 -51 -35 -90.5t-68 -62t-91 -22.5l1 12q55 1 92 -22t53.5 -65t7.5 -98q-10 -63 -46 -110.5t-91 -74.5t-124 -27z" />
    <glyph glyph-name="uni0418" unicode="&#x418;" 
d="M57 0l116 730h64l-79 -500q-5 -29 -10.5 -59t-10.5 -55t-9 -41l353 655h90l-116 -730h-64l79 500q3 20 9 47.5t11.5 56.5t10.5 51l-354 -655h-90z" />
    <glyph glyph-name="uni0419" unicode="&#x419;" 
d="M57 0l116 730h64l-79 -500q-5 -29 -10.5 -59t-10.5 -55t-9 -41l353 655h90l-116 -730h-64l79 500q3 20 9 47.5t11.5 56.5t10.5 51l-354 -655h-90zM384 807q-69 0 -104 39t-25 104h55q-7 -44 14.5 -70t65.5 -26t74.5 26t36.5 70h56q-10 -65 -57 -104t-116 -39z" />
    <glyph glyph-name="uni041A" unicode="&#x41a;" 
d="M59 0l116 731h66l-51 -324h133l212 324h75l-231 -354l125 -377h-74l-114 349h-136l-55 -349h-66z" />
    <glyph glyph-name="uni041B" unicode="&#x41b;" 
d="M-22 -5l10 64h26q40 0 67 35t39 106l90 530h358l-116 -730h-66l106 670h-227l-79 -470q-11 -67 -36 -112.5t-61 -69t-84 -23.5h-27z" />
    <glyph glyph-name="uni041C" unicode="&#x41c;" 
d="M42 0l116 730h90l49 -262q5 -26 10 -54.5t7 -45.5q8 17 21.5 45.5t25.5 54.5l132 262h93l-116 -730h-64l59 370q6 42 14.5 87.5t18 89.5t18.5 83t16 67l-189 -374h-70l-72 374q-1 -28 -5 -66t-8.5 -82.5t-10 -90.5t-12.5 -88l-59 -370h-64z" />
    <glyph glyph-name="uni041D" unicode="&#x41d;" 
d="M59 0l116 730h66l-51 -322h262l51 322h66l-116 -730h-66l55 348h-262l-55 -348h-66z" />
    <glyph glyph-name="uni041E" unicode="&#x41e;" 
d="M254 -10q-61 0 -102.5 24.5t-58.5 70.5t-8 109l54 342q11 63 42.5 108.5t81 70.5t110.5 25q62 0 103.5 -25t59 -70.5t7.5 -108.5l-54 -342q-10 -63 -42 -109t-81.5 -70.5t-111.5 -24.5zM263 49q65 0 106.5 38t53.5 107l54 342q11 69 -19 107t-94 38t-106 -38t-53 -107
l-54 -342q-11 -69 18.5 -107t93.5 -38z" />
    <glyph glyph-name="uni041F" unicode="&#x41f;" 
d="M60 0l116 730h392l-116 -730h-66l106 670h-260l-106 -670h-66z" />
    <glyph glyph-name="uni0420" unicode="&#x420;" 
d="M59 0l116 730h223q65 0 109.5 -25.5t63.5 -72t9 -110.5q-10 -62 -44 -109t-86.5 -73t-117.5 -26h-157l-50 -314h-66zM184 374h157q68 0 114.5 40.5t56.5 107.5q12 69 -22 108.5t-102 39.5h-157z" />
    <glyph glyph-name="uni0421" unicode="&#x421;" 
d="M259 -10q-63 0 -105.5 25t-60 71t-8.5 108l54 342q11 63 43 109t82.5 70.5t113.5 24.5q64 0 106.5 -26t60.5 -73t8 -111h-66q11 71 -20.5 111t-97.5 40t-109.5 -38.5t-54.5 -106.5l-54 -342q-11 -68 21 -106.5t97 -38.5q67 0 111 40.5t55 110.5h66q-10 -64 -43.5 -111
t-84 -73t-114.5 -26z" />
    <glyph glyph-name="uni0422" unicode="&#x422;" 
d="M224 0l106 670h-210l10 60h484l-10 -60h-208l-106 -670h-66z" />
    <glyph glyph-name="uni0423" unicode="&#x423;" 
d="M157 0l103 191l-127 539h71l79 -357q8 -33 13.5 -67.5t8.5 -52.5q7 18 21.5 52.5t31.5 67.5l180 357h73l-381 -730h-73z" />
    <glyph glyph-name="uni0424" unicode="&#x424;" 
d="M220 -25l11 70q-63 0 -105.5 25t-60.5 71t-8 108l38 246q11 62 43.5 108t82.5 71.5t114 25.5l11 70h64l-11 -70q64 0 106 -25.5t60 -71.5t8 -108l-39 -246q-10 -62 -42.5 -108t-82.5 -71t-114 -25l-11 -70h-64zM240 102l86 541q-43 0 -78 -19t-58.5 -52t-30.5 -77
l-39 -246q-10 -65 23 -106t97 -41zM304 102q43 0 78 19t58.5 52t30.5 76l38 246q11 66 -21.5 107t-97.5 41z" />
    <glyph glyph-name="uni0425" unicode="&#x425;" 
d="M4 0l274 377l-145 353h73l83 -220q6 -17 16.5 -41t17.5 -41q12 17 28.5 41t28.5 41l156 220h75l-257 -352l154 -378h-72l-93 244q-6 16 -16.5 40.5t-16.5 41.5q-13 -17 -30 -41t-28 -41l-172 -244h-76z" />
    <glyph glyph-name="uni0426" unicode="&#x426;" 
d="M428 -140l22 140h-390l116 730h66l-107 -671h244l107 671h66l-107 -671h76l-31 -199h-62z" />
    <glyph glyph-name="uni0427" unicode="&#x427;" 
d="M386 0l48 298q-17 -3 -55 -6.5t-86 -3.5q-99 0 -144.5 53.5t-31.5 145.5l39 243h66l-39 -243q-9 -64 24.5 -102t107.5 -38q45 0 79 3.5t48 6.5l60 373h66l-116 -730h-66z" />
    <glyph glyph-name="uni0428" unicode="&#x428;" 
d="M28 0l115 730h63l-108 -677h138l108 677h57l-107 -677h137l108 677h62l-116 -730h-457z" />
    <glyph glyph-name="uni0429" unicode="&#x429;" 
d="M441 -140l22 140h-436l116 730h61l-107 -674h136l107 674h57l-107 -674h136l107 674h61l-107 -674h47l-31 -196h-62z" />
    <glyph glyph-name="uni042A" unicode="&#x42a;" 
d="M94 0l106 667h-134l10 63h200l-49 -306h114q66 0 110.5 -26.5t64 -74t8.5 -111.5q-10 -64 -44.5 -111.5t-87 -74t-118.5 -26.5h-180zM169 60h112q69 0 116.5 41.5t59.5 110.5q11 69 -24 110.5t-104 41.5h-112z" />
    <glyph glyph-name="uni042B" unicode="&#x42b;" 
d="M30 0l116 730h64l-49 -306h49q90 0 134.5 -51.5t30.5 -138.5l-7 -44q-13 -87 -74 -138.5t-151 -51.5h-113zM103 59h49q62 0 102.5 35t49.5 96l7 44q10 62 -19 96.5t-91 34.5h-50zM418 0l116 730h64l-116 -730h-64z" />
    <glyph glyph-name="uni042C" unicode="&#x42c;" 
d="M60 0l116 730h66l-49 -306h148q66 0 110.5 -26.5t64 -74t8.5 -111.5q-10 -64 -44.5 -111.5t-87 -74t-118.5 -26.5h-214zM135 60h146q69 0 116.5 41.5t59.5 110.5q11 69 -24 110.5t-104 41.5h-146z" />
    <glyph glyph-name="uni042D" unicode="&#x42d;" 
d="M252 -10q-63 0 -105.5 26t-60 73t-7.5 111h66q-12 -70 19 -110.5t98 -40.5q66 0 109 38.5t54 106.5l23 144h-231l9 60h231l22 138q11 68 -20.5 106.5t-96.5 38.5q-66 0 -110 -40t-55 -111h-66q10 64 42.5 111t83.5 73t114 26t105.5 -24.5t61 -70.5t7.5 -109l-54 -342
q-10 -62 -42.5 -108t-83 -71t-113.5 -25z" />
    <glyph glyph-name="uni042E" unicode="&#x42e;" 
d="M341 -10q-73 0 -108 47.5t-21 130.5l28 180h-98l-54 -348h-62l116 730h62l-52 -326h97l25 158q13 84 63 131t123 47q75 0 110 -47.5t22 -130.5l-63 -394q-13 -83 -63 -130.5t-125 -47.5zM351 48q46 0 76.5 32t39.5 88l63 394q9 56 -12 88t-67 32t-77 -32t-40 -88
l-62 -394q-9 -56 12 -88t67 -32z" />
    <glyph glyph-name="uni042F" unicode="&#x42f;" 
d="M22 0l230 352l4 -29q-53 7 -89 33.5t-51 69.5t-6 99q10 62 43.5 108t85.5 71.5t116 25.5h213l-116 -730h-66l51 322h-133l-206 -322h-76zM300 381h146l46 290h-147q-65 0 -111 -39.5t-57 -105.5q-10 -65 23 -105t100 -40z" />
    <glyph glyph-name="uni0430" unicode="&#x430;" 
d="M234 -10q-82 0 -122.5 54.5t-26.5 146.5l26 167q10 62 39.5 107t74.5 70t100 25q70 0 107.5 -39.5t26.5 -104.5l-16 47h18l14 87h66l-87 -550h-66l14 87h-24l37 47q-10 -66 -60.5 -105t-120.5 -39zM261 47q63 0 105 39t52 107l26 163q11 69 -18 108t-93 39
q-63 0 -104 -38.5t-52 -108.5l-26 -163q-10 -69 18.5 -107.5t91.5 -38.5z" />
    <glyph glyph-name="uni0431" unicode="&#x431;" 
d="M255 -10q-96 0 -140 56t-28 156l42 265q20 127 94.5 195t193.5 68h131l-11 -66h-131q-87 0 -141.5 -51t-69.5 -146l-12 -75h14l-18 -29q10 62 55.5 97t116.5 35q88 0 128 -55t23 -155l-13 -83q-11 -67 -42.5 -114.5t-80 -72.5t-111.5 -25zM265 49q64 0 105 40.5t53 112.5
l13 83q12 73 -16.5 113.5t-92.5 40.5q-66 0 -107.5 -41.5t-53.5 -112.5l-13 -83q-12 -72 18 -112.5t94 -40.5z" />
    <glyph glyph-name="uni0432" unicode="&#x432;" 
d="M60 0l87 550h232q78 0 118.5 -39t29.5 -105q-9 -57 -52.5 -92t-105.5 -35l1 7q67 0 102.5 -36t25.5 -96q-11 -70 -66.5 -112t-138.5 -42h-233zM134 59h168q52 0 88 26.5t43 69.5q7 44 -21 71t-79 27h-168zM174 311h166q47 0 80.5 24.5t39.5 64.5q7 41 -18 66t-72 25h-167
z" />
    <glyph glyph-name="uni0433" unicode="&#x433;" 
d="M281 -10h-57q-85 0 -125 43.5t-29 116.5q10 66 55.5 105t120.5 50l93 14q50 8 77.5 29.5t34.5 59.5q6 43 -20 68t-80 25h-40q-47 0 -81 -22t-45 -56h-66q12 42 40.5 72.5t69.5 47.5t92 17h40q86 0 126.5 -41t29.5 -111q-11 -65 -56 -102t-121 -48l-96 -14
q-45 -7 -74 -33.5t-35 -66.5q-7 -43 18 -69t79 -26h57q49 0 85 24.5t48 61.5h66q-11 -43 -40.5 -75.5t-72 -51t-94.5 -18.5z" />
    <glyph glyph-name="uni0434" unicode="&#x434;" 
d="M254 -10q-63 0 -104 25t-57 72.5t-6 114.5l13 83q16 100 72.5 155t145.5 55q71 0 105.5 -35t24.5 -97l-9 29h14l12 75q15 95 -23 146t-126 51h-131l10 66h131q118 0 171.5 -68t33.5 -195l-42 -265q-16 -100 -77.5 -156t-157.5 -56zM262 49q64 0 107 40.5t54 112.5l13 83
q11 71 -17.5 112.5t-94.5 41.5q-63 0 -105 -40.5t-53 -113.5l-13 -83q-11 -72 17.5 -112.5t91.5 -40.5z" />
    <glyph glyph-name="uni0435" unicode="&#x435;" 
d="M255 -10q-63 0 -104 25t-58 71t-8 108l25 162q11 62 42.5 107.5t81 71t112.5 25.5q62 0 103 -25.5t58 -71t7 -107.5l-15 -96h-338l-11 -66q-10 -69 18.5 -108t95.5 -39q54 0 91.5 23.5t56.5 66.5h66q-16 -45 -47.5 -78t-76.5 -51t-99 -18zM441 305l8 51
q11 69 -17.5 108.5t-94.5 39.5q-67 0 -108.5 -39t-52.5 -109l-7 -43h283z" />
    <glyph glyph-name="uni0436" unicode="&#x436;" 
d="M-16 0l167 285l-72 265h64l63 -246h70l39 246h56l-38 -246h65l142 246h67l-156 -268l77 -282h-65l-68 256h-70l-41 -256h-56l40 256h-67l-148 -256h-69z" />
    <glyph glyph-name="uni0437" unicode="&#x437;" 
d="M228 -9q-84 0 -128.5 36.5t-45.5 99.5h68q4 -34 33.5 -55.5t82.5 -21.5h53q35 0 63 13.5t46 36t23 50.5q7 45 -19 74t-79 29h-125l9 59h124q49 0 80.5 25.5t37.5 66.5q5 27 -5.5 49t-33 34.5t-54.5 12.5h-53q-51 0 -83.5 -22t-48.5 -57h-68q14 42 42.5 73t70 48t96.5 17
h53q54 0 90.5 -19.5t53.5 -53t9 -78.5q-7 -51 -41.5 -85t-86.5 -38l-1 -4q59 -4 83.5 -40t15.5 -93q-7 -46 -35.5 -81.5t-73 -55.5t-100.5 -20h-53z" />
    <glyph glyph-name="uni0438" unicode="&#x438;" 
d="M236 -10q-82 0 -122.5 52t-27.5 140l59 368h66l-57 -360q-11 -68 18 -106t89 -38q62 0 104.5 39.5t53.5 108.5l56 356h66l-87 -550h-66l16 99h-21l31 39q-10 -68 -58 -108t-120 -40z" />
    <glyph glyph-name="uni0439" unicode="&#x439;" 
d="M236 -10q-82 0 -122.5 52t-27.5 140l59 368h66l-57 -360q-11 -68 18 -106t89 -38q62 0 104.5 39.5t53.5 108.5l56 356h66l-87 -550h-66l16 99h-21l31 39q-10 -68 -58 -108t-120 -40zM362 642q-69 0 -104 39t-25 104h55q-7 -44 14.5 -70t65.5 -26t74.5 26t36.5 70h56
q-10 -65 -57 -104t-116 -39z" />
    <glyph glyph-name="uni043A" unicode="&#x43a;" 
d="M63 0l87 550h66l-38 -235h115l205 235h79l-227 -266l143 -284h-76l-128 256h-120l-40 -256h-66z" />
    <glyph glyph-name="uni043B" unicode="&#x43b;" 
d="M-14 -5l10 64h23q41 0 68 35t40 105l62 351h350l-87 -550h-66l78 490h-219l-53 -293q-12 -66 -36.5 -111t-60.5 -68t-85 -23h-24z" />
    <glyph glyph-name="uni043C" unicode="&#x43c;" 
d="M42 0l87 550h91l53 -240q5 -26 9.5 -54.5t6.5 -45.5q8 17 20.5 45.5t27.5 54.5l125 240h95l-87 -550h-64l30 190q6 41 13.5 85t16 87t15.5 80t12 64l-175 -341h-70l-69 340q-3 -34 -10 -86.5t-16 -112t-17 -116.5l-30 -190h-64z" />
    <glyph glyph-name="uni043D" unicode="&#x43d;" 
d="M60 0l87 550h66l-38 -239h260l38 239h66l-87 -550h-66l40 251h-261l-39 -251h-66z" />
    <glyph glyph-name="uni043E" unicode="&#x43e;" 
d="M254 -10q-61 0 -102.5 24.5t-58.5 70.5t-8 109l25 162q11 63 42.5 108.5t81.5 70.5t111 25q62 0 103 -25t58.5 -70.5t7.5 -108.5l-25 -162q-10 -63 -42 -109t-81.5 -70.5t-111.5 -24.5zM263 48q65 0 106.5 38t53.5 108l25 162q12 70 -18 108t-94 38t-106 -38t-54 -108
l-25 -162q-11 -70 18.5 -108t93.5 -38z" />
    <glyph glyph-name="uni043F" unicode="&#x43f;" 
d="M60 0l87 550h392l-87 -550h-66l78 490h-261l-77 -490h-66z" />
    <glyph glyph-name="uni0440" unicode="&#x440;" 
d="M30 -180l116 730h66l-14 -87h24l-37 -47q10 66 60 105t121 39q83 0 123 -54.5t25 -146.5l-26 -167q-9 -61 -38.5 -106.5t-74.5 -70.5t-100 -25q-71 0 -108 39.5t-27 104.5l17 -47h-19l-14 -95l-28 -172h-66zM266 47q63 0 104 38.5t53 108.5l25 163q12 70 -17 108t-92 38
t-104.5 -38.5t-53.5 -107.5l-25 -163q-12 -69 18 -108t92 -39z" />
    <glyph glyph-name="uni0441" unicode="&#x441;" 
d="M255 -10q-63 0 -105 24.5t-59 70.5t-8 109l25 162q11 63 43 108.5t82 70.5t113 25q92 0 139.5 -51.5t34.5 -138.5h-66q9 62 -22.5 96t-95.5 34q-65 0 -108 -37.5t-53 -106.5l-26 -162q-11 -68 20 -106t96 -38q64 0 106 34.5t53 95.5h66q-15 -87 -79 -138.5t-156 -51.5z
" />
    <glyph glyph-name="uni0442" unicode="&#x442;" 
d="M223 0l77 488h-200l10 62h466l-10 -62h-200l-77 -488h-66z" />
    <glyph glyph-name="uni0443" unicode="&#x443;" 
d="M92 -180l10 60h157q53 0 83.5 26t38.5 77l11 69l16 97h-22l32 39q-11 -68 -59 -108t-120 -40q-81 0 -122 52t-27 140l50 318h66l-49 -310q-11 -68 18.5 -106t89.5 -38q62 0 104.5 39.5t53.5 108.5l48 306h66l-90 -567q-12 -79 -63.5 -121t-134.5 -42h-157z" />
    <glyph glyph-name="uni0444" unicode="&#x444;" 
d="M235 54l70 442q-68 0 -113.5 -38.5t-55.5 -107.5l-23 -148q-11 -69 21.5 -108.5t100.5 -39.5zM294 54q69 0 113.5 39.5t55.5 108.5l23 148q11 69 -21 107.5t-101 38.5zM219 -41l7 41q-96 0 -143 54t-33 148l23 148q15 93 79.5 146.5t160.5 53.5l6 41q9 65 52.5 102
t112.5 37h115l-10 -59h-116q-38 0 -62.5 -20.5t-30.5 -59.5l-7 -41q96 0 143 -53.5t33 -146.5l-23 -148q-15 -94 -79.5 -148t-160.5 -54l-6 -41q-7 -64 -51.5 -101.5t-113.5 -37.5h-113l10 59h114q39 0 63.5 20.5t29.5 59.5z" />
    <glyph glyph-name="uni0445" unicode="&#x445;" 
d="M23 0l239 284l-140 266h75l93 -188q5 -9 9.5 -20.5t8.5 -18.5q5 7 13 18.5t14 20.5l151 188h79l-224 -270l148 -280h-75l-99 198q-4 10 -10.5 22.5t-9.5 19.5q-6 -7 -15 -19.5t-17 -22.5l-161 -198h-79z" />
    <glyph glyph-name="uni0446" unicode="&#x446;" 
d="M428 -140l22 140h-390l87 550h66l-78 -491h244l78 491h66l-78 -491h76l-31 -199h-62z" />
    <glyph glyph-name="uni0447" unicode="&#x447;" 
d="M382 0l33 206q-16 -3 -53 -6.5t-85 -3.5q-98 -1 -142 48.5t-30 139.5l26 166h66l-26 -166q-9 -62 20 -95t97 -33q50 0 86 3.5t50 6.5l45 284h66l-87 -550h-66z" />
    <glyph glyph-name="uni0448" unicode="&#x448;" 
d="M28 0l86 550h63l-79 -497h138l79 497h57l-78 -497h137l79 497h62l-87 -550h-457z" />
    <glyph glyph-name="uni0449" unicode="&#x449;" 
d="M441 -140l22 140h-436l87 550h61l-78 -494h136l78 494h57l-78 -494h136l78 494h61l-78 -494h47l-31 -196h-62z" />
    <glyph glyph-name="uni044A" unicode="&#x44a;" 
d="M93 0l77 488h-131l10 62h200l-32 -202h138q91 0 137 -47t33 -127q-13 -79 -74 -126.5t-151 -47.5h-207zM172 63h138q60 0 98.5 29.5t46.5 81.5q8 53 -21 82t-89 29h-138z" />
    <glyph glyph-name="uni044B" unicode="&#x44b;" 
d="M30 0l87 550h64l-33 -207h54q88 0 132 -46t32 -125q-9 -53 -38.5 -91.5t-75 -59.5t-104.5 -21h-118zM102 56h54q61 0 100 30.5t48 85.5q8 54 -21 84.5t-90 30.5h-54zM418 0l87 550h64l-87 -550h-64z" />
    <glyph glyph-name="uni044C" unicode="&#x44c;" 
d="M64 0l87 550h66l-32 -202h170q91 0 136.5 -47t33.5 -127q-13 -79 -74 -126.5t-151 -47.5h-236zM140 60h169q62 0 101 30t48 84q8 54 -21.5 84t-90.5 30h-170z" />
    <glyph glyph-name="uni044D" unicode="&#x44d;" 
d="M251 -10q-92 0 -138.5 51.5t-33.5 138.5h66q-9 -61 21.5 -96.5t94.5 -35.5t107 39t54 107l8 52h-204l10 62h204l8 48q10 69 -20.5 107.5t-94.5 38.5t-105.5 -35t-52.5 -97h-66q15 87 78 138.5t155 51.5q63 0 104.5 -25t59.5 -70.5t7 -108.5l-25 -162q-10 -63 -42 -109
t-81.5 -70.5t-113.5 -24.5z" />
    <glyph glyph-name="uni044E" unicode="&#x44e;" 
d="M340 -10q-70 0 -103.5 46t-21.5 124l15 93h-102l-40 -253h-62l87 550h62l-38 -245h101l14 85q13 79 61 124.5t118 45.5q72 0 107 -45.5t23 -124.5l-37 -230q-8 -52 -33.5 -90.5t-63.5 -59t-87 -20.5zM350 45q44 0 74 30.5t38 84.5l37 230q8 54 -12.5 84.5t-64.5 30.5
q-43 0 -73 -30.5t-39 -84.5l-37 -230q-8 -54 12.5 -84.5t64.5 -30.5z" />
    <glyph glyph-name="uni044F" unicode="&#x44f;" 
d="M32 0l192 237l3 -28q-73 9 -108.5 53.5t-23.5 115.5q13 80 73 126t151 46h220l-87 -550h-66l33 207h-148l-164 -207h-75zM274 266h154l36 225h-155q-59 0 -99 -31t-49 -82q-8 -51 22.5 -81.5t90.5 -30.5z" />
    <glyph glyph-name="uni0451" unicode="&#x451;" 
d="M469 653q-26 0 -39.5 15.5t-9.5 42.5q5 27 23 43t44 16q25 0 38.5 -16t8.5 -43q-4 -27 -22 -42.5t-43 -15.5zM251 653q-25 0 -38.5 15.5t-9.5 42.5q5 27 23 43t43 16t39 -16t9 -43q-4 -27 -22 -42.5t-44 -15.5zM255 -10q-63 0 -104 25t-58 71t-8 108l25 162
q11 62 42.5 107.5t81 71t112.5 25.5q62 0 103 -25.5t58 -71t7 -107.5l-15 -96h-338l-11 -66q-10 -69 18.5 -108t95.5 -39q54 0 91.5 23.5t56.5 66.5h66q-16 -45 -47.5 -78t-76.5 -51t-99 -18zM441 305l8 51q11 69 -17.5 108.5t-94.5 39.5q-67 0 -108.5 -39t-52.5 -109
l-7 -43h283z" />
    <glyph glyph-name="uni0452" unicode="&#x452;" 
d="M165 -180l10 60h56q67 0 108.5 36t52.5 102l44 282q11 68 -17.5 106t-89.5 38q-62 0 -104 -39.5t-52 -108.5l-47 -296h-66l91 580h-98l9 57h98l16 93h66l-16 -93h174l-9 -57h-174l-11 -72l-17 -108h21l-32 -44q10 66 58 105t118 39q82 0 122.5 -51.5t26.5 -140.5
l-45 -290q-10 -61 -42 -105.5t-82 -68.5t-113 -24h-56z" />
    <glyph glyph-name="uni0453" unicode="&#x453;" 
d="M281 -10h-57q-85 0 -125 43.5t-29 116.5q10 66 55.5 105t120.5 50l93 14q50 8 77.5 29.5t34.5 59.5q6 43 -20 68t-80 25h-40q-47 0 -81 -22t-45 -56h-66q12 42 40.5 72.5t69.5 47.5t92 17h40q86 0 126.5 -41t29.5 -111q-11 -65 -56 -102t-121 -48l-96 -14
q-45 -7 -74 -33.5t-35 -66.5q-7 -43 18 -69t79 -26h57q49 0 85 24.5t48 61.5h66q-11 -43 -40.5 -75.5t-72 -51t-94.5 -18.5zM347 645l128 140h78l-133 -140h-73z" />
    <glyph glyph-name="uni0454" unicode="&#x454;" 
d="M257 -10q-63 0 -104.5 24.5t-59 70.5t-7.5 109l25 162q11 63 42.5 108.5t81.5 70.5t113 25q92 0 139 -51.5t34 -138.5h-66q9 62 -22 97t-95 35t-107 -38.5t-53 -107.5l-8 -48h204l-10 -62h-204l-8 -52q-11 -68 19.5 -107t94.5 -39t106 35.5t53 96.5h66
q-15 -87 -78.5 -138.5t-155.5 -51.5z" />
    <glyph glyph-name="uni0455" unicode="&#x455;" 
d="M228 -10q-79 0 -121.5 40t-39.5 105h66q1 -37 29 -61.5t76 -24.5h57q55 0 88.5 26t40.5 69q6 40 -14.5 67t-64.5 33l-91 14q-72 11 -106 48t-23 102q11 70 65 111t139 41h40q77 0 118 -37.5t40 -99.5h-66q0 34 -26.5 56t-74.5 22h-41q-54 0 -87.5 -25t-40.5 -68
q-5 -39 14.5 -60.5t67.5 -29.5l90 -14q72 -11 105 -51t23 -107q-12 -72 -66 -114t-140 -42h-57z" />
    <glyph glyph-name="uni0456" unicode="&#x456;" 
d="M45 0l9 60h199l68 430h-173l9 60h240l-78 -490h187l-9 -60h-452zM379 653q-28 0 -44 15.5t-15 42.5q2 27 20.5 43t46.5 16q29 0 45.5 -16t14.5 -43t-20.5 -42.5t-47.5 -15.5z" />
    <glyph glyph-name="uni0457" unicode="&#x457;" 
d="M45 0l9 60h199l68 430h-173l9 60h240l-78 -490h187l-9 -60h-452zM484 653q-26 0 -39.5 15.5t-9.5 42.5q5 27 23 43t44 16q25 0 38.5 -16t8.5 -43q-4 -27 -22 -42.5t-43 -15.5zM266 653q-25 0 -38.5 15.5t-9.5 42.5q5 27 23 43t43 16t39 -16t9 -43q-4 -27 -22 -42.5
t-44 -15.5z" />
    <glyph glyph-name="uni0458" unicode="&#x458;" 
d="M18 -180l10 60h133q67 0 108.5 36t52.5 102l74 472h-242l9 60h308l-83 -532q-10 -61 -42 -105.5t-82 -68.5t-113 -24h-133zM454 653q-28 0 -44 15.5t-15 42.5q2 27 20.5 43t46.5 16q29 0 45.5 -16t14.5 -43t-20.5 -42.5t-47.5 -15.5z" />
    <glyph glyph-name="uni0459" unicode="&#x459;" 
d="M-40 -5l10 64h20q29 0 51.5 32t32.5 88l64 371h262l-33 -206h59q72 0 108 -41t25 -111l-6 -40q-11 -70 -60 -111t-121 -41h-120l78 492h-141l-54 -313q-15 -86 -56.5 -135t-100.5 -49h-18zM322 57h59q44 0 74 25.5t37 69.5l7 40q7 45 -15 70t-66 25h-60z" />
    <glyph glyph-name="uni045A" unicode="&#x45a;" 
d="M27 0l87 550h62l-33 -206h163l32 206h58l-32 -206h60q71 0 107.5 -41t25.5 -111l-6 -40q-7 -46 -32.5 -80.5t-63.5 -53t-86 -18.5h-118l46 288h-163l-45 -288h-62zM318 56h60q45 0 74 26t37 70l6 40q6 44 -15 70t-65 26h-60z" />
    <glyph glyph-name="uni045B" unicode="&#x45b;" 
d="M53 580l9 57h98l15 93h66l-15 -93h174l-9 -57h-174l-14 -90l-15 -90h3q20 47 62.5 73.5t100.5 26.5q82 0 123 -51.5t27 -140.5l-49 -308h-66l48 300q10 68 -18.5 106t-89.5 38q-62 0 -104 -39.5t-53 -108.5l-47 -296h-66l92 580h-98z" />
    <glyph glyph-name="uni045C" unicode="&#x45c;" 
d="M63 0l87 550h66l-38 -235h115l205 235h79l-227 -266l143 -284h-76l-128 256h-120l-40 -256h-66zM317 645l128 140h78l-133 -140h-73z" />
    <glyph glyph-name="uni045E" unicode="&#x45e;" 
d="M362 642q-69 0 -104 39t-25 104h55q-7 -44 14.5 -70t65.5 -26t74.5 26t36.5 70h56q-10 -65 -57 -104t-116 -39zM92 -180l10 60h157q53 0 83.5 26t38.5 77l11 69l16 97h-22l32 39q-11 -68 -59 -108t-120 -40q-81 0 -122 52t-27 140l50 318h66l-49 -310q-11 -68 18.5 -106
t89.5 -38q62 0 104.5 39.5t53.5 108.5l48 306h66l-90 -567q-12 -79 -63.5 -121t-134.5 -42h-157z" />
    <glyph glyph-name="uni045F" unicode="&#x45f;" 
d="M202 -125l20 125h-162l87 550h69l-77 -487h254l77 487h69l-87 -550h-161l-20 -125h-69z" />
    <glyph glyph-name="uni0490" unicode="&#x490;" 
d="M72 0l116 730h349l15 95h64l-25 -155h-347l-106 -670h-66z" />
    <glyph glyph-name="uni0491" unicode="&#x491;" 
d="M95 0l87 550h319l17 105h64l-26 -165h-317l-78 -490h-66z" />
    <glyph glyph-name="uni04AE" unicode="&#x4ae;" 
d="M223 0l44 277l-151 453h66l106 -318q8 -23 13.5 -41.5t7.5 -27.5q6 8 16.5 27t25.5 42l207 318h70l-295 -453l-44 -277h-66z" />
    <glyph glyph-name="uni04AF" unicode="&#x4af;" 
d="M194 -180l29 180l-110 550h66l71 -386q2 -15 5 -33t5.5 -35t4 -28l1.5 -11l4.5 11t12 28t15.5 35t15 33l191 386h69l-284 -550l-29 -180h-66z" />
    <glyph glyph-name="uni04E8" unicode="&#x4e8;" 
d="M254 -10q-92 0 -137.5 55.5t-30.5 148.5l54 342q11 63 42.5 108.5t80.5 70.5t110 25q93 0 138.5 -55t30.5 -149l-54 -342q-10 -62 -42 -108t-81 -71t-111 -25zM263 48q65 0 106.5 38t52.5 108l24 150h-271l-24 -150q-11 -70 18.5 -108t93.5 -38zM185 403h271l21 133
q10 70 -19.5 108t-93.5 38t-106 -38t-52 -108z" />
    <glyph glyph-name="uni04E9" unicode="&#x4e9;" 
d="M254 -10q-61 0 -102.5 25t-58.5 71t-7 108l25 162q11 63 42.5 108.5t81 70.5t110.5 25t102 -25.5t59 -70.5t8 -108l-26 -162q-10 -62 -42 -108t-81 -71t-111 -25zM263 48q65 0 106.5 38t53.5 108l9 56h-272l-9 -56q-11 -70 18.5 -108t93.5 -38zM169 307h272l7 49
q12 70 -18 108t-94 38t-106 -38t-54 -108z" />
    <glyph glyph-name="Wgrave" unicode="&#x1e80;" 
d="M78 0l28 730h60l-23 -540q-1 -20 -2.5 -46l-3 -52t-2.5 -45q6 19 13 45t14.5 52t13.5 46l159 540h76l-16 -540q-1 -20 -1.5 -46t-1.5 -52t-2 -45q6 19 13 45l14 52t13 46l146 540h62l-205 -730h-88l16 538q1 25 2 51.5t2 51t1 40.5q-4 -16 -11 -40.5t-15 -51t-15 -51.5
l-160 -538h-87zM362 810l-91 140h73l85 -140h-67z" />
    <glyph glyph-name="wgrave" unicode="&#x1e81;" 
d="M91 0l-4 550h58l-1 -401q0 -22 -0.5 -51.5t-1.5 -48.5q5 19 14.5 48t16.5 51l136 402h66l9 -402q0 -22 0.5 -51t-0.5 -48q5 19 13 48.5t15 51.5l128 401h59l-180 -550h-79l-4 387q-1 27 -1 58.5v50.5q-6 -19 -16.5 -50.5l-19.5 -58.5l-129 -387h-79zM337 645l-91 140h72
l86 -140h-67z" />
    <glyph glyph-name="Wacute" unicode="&#x1e82;" 
d="M78 0l28 730h60l-23 -540q-1 -20 -2.5 -46l-3 -52t-2.5 -45q6 19 13 45t14.5 52t13.5 46l159 540h76l-16 -540q-1 -20 -1.5 -46t-1.5 -52t-2 -45q6 19 13 45l14 52t13 46l146 540h62l-205 -730h-88l16 538q1 25 2 51.5t2 51t1 40.5q-4 -16 -11 -40.5t-15 -51t-15 -51.5
l-160 -538h-87zM337 810l128 140h78l-133 -140h-73z" />
    <glyph glyph-name="wacute" unicode="&#x1e83;" 
d="M91 0l-4 550h58l-1 -401q0 -22 -0.5 -51.5t-1.5 -48.5q5 19 14.5 48t16.5 51l136 402h66l9 -402q0 -22 0.5 -51t-0.5 -48q5 19 13 48.5t15 51.5l128 401h59l-180 -550h-79l-4 387q-1 27 -1 58.5v50.5q-6 -19 -16.5 -50.5l-19.5 -58.5l-129 -387h-79zM317 645l128 140h78
l-133 -140h-73z" />
    <glyph glyph-name="Wdieresis" unicode="&#x1e84;" 
d="M78 0l28 730h60l-23 -540q-1 -20 -2.5 -46l-3 -52t-2.5 -45q6 19 13 45t14.5 52t13.5 46l159 540h76l-16 -540q-1 -20 -1.5 -46t-1.5 -52t-2 -45q6 19 13 45l14 52t13 46l146 540h62l-205 -730h-88l16 538q1 25 2 51.5t2 51t1 40.5q-4 -16 -11 -40.5t-15 -51t-15 -51.5
l-160 -538h-87zM496 822q-26 0 -39 15.5t-9 42.5q5 27 23 43t44 16q25 0 38 -16t8 -43q-4 -27 -21.5 -42.5t-43.5 -15.5zM279 822q-26 0 -39 15.5t-9 42.5q5 27 23 43t43 16q26 0 39 -16t8 -43q-4 -27 -22 -42.5t-43 -15.5z" />
    <glyph glyph-name="wdieresis" unicode="&#x1e85;" 
d="M91 0l-4 550h58l-1 -401q0 -22 -0.5 -51.5t-1.5 -48.5q5 19 14.5 48t16.5 51l136 402h66l9 -402q0 -22 0.5 -51t-0.5 -48q5 19 13 48.5t15 51.5l128 401h59l-180 -550h-79l-4 387q-1 27 -1 58.5v50.5q-6 -19 -16.5 -50.5l-19.5 -58.5l-129 -387h-79zM469 653
q-26 0 -39.5 15.5t-9.5 42.5q5 27 23 43t44 16q25 0 38.5 -16t8.5 -43q-4 -27 -22 -42.5t-43 -15.5zM251 653q-25 0 -38.5 15.5t-9.5 42.5q5 27 23 43t43 16t39 -16t9 -43q-4 -27 -22 -42.5t-44 -15.5z" />
    <glyph glyph-name="uni1E9E" unicode="&#x1e9e;" 
d="M59 0l85 535q9 59 41 103t81 68t110 24h218l-11 -63l-237 -271l1 17q92 1 138.5 -54t31.5 -147q-10 -64 -43.5 -111.5t-85.5 -74t-116 -26.5h-64l9 60h60q68 0 114.5 41t57.5 110q11 68 -22.5 108t-101.5 40h-42l9 57l220 254h-146q-62 0 -104 -36t-52 -99l-85 -535h-66z
" />
    <glyph glyph-name="uni1EA0" unicode="&#x1ea0;" 
d="M17 0l312 730h86l80 -730h-65l-21 204h-238l-85 -204h-69zM194 261h210l-28 267q-6 58 -8 97t-3 51q-4 -12 -18.5 -51t-39.5 -97zM233 -208q-29 0 -43.5 15.5t-10.5 42.5t24 43t49 16t43.5 -16t9.5 -43q-4 -27 -23.5 -42.5t-48.5 -15.5z" />
    <glyph glyph-name="uni1EA1" unicode="&#x1ea1;" 
d="M234 -10q-82 0 -122.5 54.5t-26.5 146.5l26 167q10 62 39.5 107t74.5 70t100 25q70 0 107.5 -39.5t26.5 -104.5l-16 47h18l14 87h66l-87 -550h-66l14 87h-24l37 47q-10 -66 -60.5 -105t-120.5 -39zM261 47q63 0 105 39t52 107l26 163q11 69 -18 108t-93 39
q-63 0 -104 -38.5t-52 -108.5l-26 -163q-10 -69 18.5 -107.5t91.5 -38.5zM228 -208q-29 0 -43.5 15.5t-10.5 42.5t24 43t49 16t43.5 -16t9.5 -43q-4 -27 -23.5 -42.5t-48.5 -15.5z" />
    <glyph glyph-name="uni1EA2" unicode="&#x1ea2;" 
d="M17 0l312 730h86l80 -730h-65l-21 204h-238l-85 -204h-69zM194 261h210l-28 267q-6 58 -8 97t-3 51q-4 -12 -18.5 -51t-39.5 -97zM340 815l65 71q8 10 14.5 19t7.5 15q4 25 -29 25h-84l8 47h94q37 0 56 -17.5t14 -47.5q-2 -13 -9 -27t-17 -26l-52 -59h-68z" />
    <glyph glyph-name="uni1EA3" unicode="&#x1ea3;" 
d="M234 -10q-82 0 -122.5 54.5t-26.5 146.5l26 167q10 62 39.5 107t74.5 70t100 25q70 0 107.5 -39.5t26.5 -104.5l-16 47h18l14 87h66l-87 -550h-66l14 87h-24l37 47q-10 -66 -60.5 -105t-120.5 -39zM261 47q63 0 105 39t52 107l26 163q11 69 -18 108t-93 39
q-63 0 -104 -38.5t-52 -108.5l-26 -163q-10 -69 18.5 -107.5t91.5 -38.5zM335 645l65 71q8 10 14.5 19t7.5 15q4 25 -29 25h-84l8 47h94q37 0 56 -17.5t14 -47.5q-2 -13 -9 -27t-17 -26l-52 -59h-68z" />
    <glyph glyph-name="uni1EA4" unicode="&#x1ea4;" 
d="M503 897l125 123h79l-132 -123h-72zM218 780l149 140h70l105 -140h-67l-78 97l-106 -97h-73zM17 0l312 730h86l80 -730h-65l-21 204h-238l-85 -204h-69zM194 261h210l-28 267q-6 58 -8 97t-3 51q-4 -12 -18.5 -51t-39.5 -97z" />
    <glyph glyph-name="uni1EA5" unicode="&#x1ea5;" 
d="M234 -10q-82 0 -122.5 54.5t-26.5 146.5l26 167q10 62 39.5 107t74.5 70t100 25q70 0 107.5 -39.5t26.5 -104.5l-16 47h18l14 87h66l-87 -550h-66l14 87h-24l37 47q-10 -66 -60.5 -105t-120.5 -39zM261 47q63 0 105 39t52 107l26 163q11 69 -18 108t-93 39
q-63 0 -104 -38.5t-52 -108.5l-26 -163q-10 -69 18.5 -107.5t91.5 -38.5zM480 760l137 140h80l-145 -140h-72zM196 645l149 140h69l106 -140h-67l-78 97l-106 -97h-73z" />
    <glyph glyph-name="uni1EA6" unicode="&#x1ea6;" 
d="M17 0l312 730h86l80 -730h-65l-21 204h-238l-85 -204h-69zM194 261h210l-28 267q-6 58 -8 97t-3 51q-4 -12 -18.5 -51t-39.5 -97zM545 897l-100 123h73l92 -123h-65zM218 780l149 140h70l105 -140h-67l-78 97l-106 -97h-73z" />
    <glyph glyph-name="uni1EA7" unicode="&#x1ea7;" 
d="M234 -10q-82 0 -122.5 54.5t-26.5 146.5l26 167q10 62 39.5 107t74.5 70t100 25q70 0 107.5 -39.5t26.5 -104.5l-16 47h18l14 87h66l-87 -550h-66l14 87h-24l37 47q-10 -66 -60.5 -105t-120.5 -39zM261 47q63 0 105 39t52 107l26 163q11 69 -18 108t-93 39
q-63 0 -104 -38.5t-52 -108.5l-26 -163q-10 -69 18.5 -107.5t91.5 -38.5zM532 760l-107 140h72l99 -140h-64zM196 645l149 140h69l106 -140h-67l-78 97l-106 -97h-73z" />
    <glyph glyph-name="uni1EA8" unicode="&#x1ea8;" 
d="M521 880l56 51q8 8 13 14.5t6 12.5q3 18 -19 18h-69l7 44h77q32 0 48 -14.5t12 -39.5q-2 -14 -10 -27t-20 -24l-37 -35h-64zM218 780l149 140h70l105 -140h-67l-78 97l-106 -97h-73zM17 0l312 730h86l80 -730h-65l-21 204h-238l-85 -204h-69zM194 261h210l-28 267
q-6 58 -8 97t-3 51q-4 -12 -18.5 -51t-39.5 -97z" />
    <glyph glyph-name="uni1EA9" unicode="&#x1ea9;" 
d="M234 -10q-82 0 -122.5 54.5t-26.5 146.5l26 167q10 62 39.5 107t74.5 70t100 25q70 0 107.5 -39.5t26.5 -104.5l-16 47h18l14 87h66l-87 -550h-66l14 87h-24l37 47q-10 -66 -60.5 -105t-120.5 -39zM261 47q63 0 105 39t52 107l26 163q11 69 -18 108t-93 39
q-63 0 -104 -38.5t-52 -108.5l-26 -163q-10 -69 18.5 -107.5t91.5 -38.5zM493 760l60 66q16 16 18 31q4 26 -26 26h-64l7 45h70q38 0 58 -17.5t15 -45.5q-3 -26 -29 -54l-45 -51h-64zM196 645l149 140h69l106 -140h-67l-78 97l-106 -97h-73z" />
    <glyph glyph-name="uni1EAA" unicode="&#x1eaa;" 
d="M17 0l312 730h86l80 -730h-65l-21 204h-238l-85 -204h-69zM194 261h210l-28 267q-6 58 -8 97t-3 51q-4 -12 -18.5 -51t-39.5 -97zM478 920q-28 0 -45.5 8.5t-30.5 19.5t-27 19.5t-34 8.5q-35 0 -42 -34l-2 -12h-50l2 12q6 36 32 57t65 21q28 0 45.5 -8.5t30.5 -19.5
t26.5 -19.5t33.5 -8.5q15 0 25.5 9.5t12.5 24.5l2 12h50l-2 -12q-4 -35 -29.5 -56.5t-62.5 -21.5zM218 780l137 117h87l100 -117h-67l-80 84l-104 -84h-73z" />
    <glyph glyph-name="uni1EAB" unicode="&#x1eab;" 
d="M234 -10q-82 0 -122.5 54.5t-26.5 146.5l26 167q10 62 39.5 107t74.5 70t100 25q70 0 107.5 -39.5t26.5 -104.5l-16 47h18l14 87h66l-87 -550h-66l14 87h-24l37 47q-10 -66 -60.5 -105t-120.5 -39zM261 47q63 0 105 39t52 107l26 163q11 69 -18 108t-93 39
q-63 0 -104 -38.5t-52 -108.5l-26 -163q-10 -69 18.5 -107.5t91.5 -38.5zM453 814q-28 0 -44 10t-26.5 23.5t-22 23.5t-29.5 10q-36 0 -42 -36l-4 -25h-50l4 23q6 39 32 61t67 22q29 0 45 -10t26 -23.5t21 -23.5t30 -10q33 0 39 36l4 25h50l-4 -23q-6 -39 -31.5 -61
t-64.5 -22zM196 645l149 140h69l106 -140h-66l-78 97l-107 -97h-73z" />
    <glyph glyph-name="uni1EAC" unicode="&#x1eac;" 
d="M222 810l149 140h69l106 -140h-67l-77 97l-107 -97h-73zM17 0l312 730h86l80 -730h-65l-21 204h-238l-85 -204h-69zM194 261h210l-28 267q-6 58 -8 97t-3 51q-4 -12 -18.5 -51t-39.5 -97zM233 -208q-29 0 -43.5 15.5t-10.5 42.5t24 43t49 16t43.5 -16t9.5 -43
q-4 -27 -23.5 -42.5t-48.5 -15.5z" />
    <glyph glyph-name="uni1EAD" unicode="&#x1ead;" 
d="M201 645l149 140h69l106 -140h-67l-78 97l-106 -97h-73zM234 -10q-82 0 -122.5 54.5t-26.5 146.5l26 167q10 62 39.5 107t74.5 70t100 25q70 0 107.5 -39.5t26.5 -104.5l-16 47h18l14 87h66l-87 -550h-66l14 87h-24l37 47q-10 -66 -60.5 -105t-120.5 -39zM261 47
q63 0 105 39t52 107l26 163q11 69 -18 108t-93 39q-63 0 -104 -38.5t-52 -108.5l-26 -163q-10 -69 18.5 -107.5t91.5 -38.5zM228 -208q-29 0 -43.5 15.5t-10.5 42.5t24 43t49 16t43.5 -16t9.5 -43q-4 -27 -23.5 -42.5t-48.5 -15.5z" />
    <glyph glyph-name="uni1EAE" unicode="&#x1eae;" 
d="M17 0l312 730h86l80 -730h-65l-21 204h-238l-85 -204h-69zM194 261h210l-28 267q-6 58 -8 97t-3 51q-4 -12 -18.5 -51t-39.5 -97zM347 897l121 123h77l-129 -123h-69zM358 780q-60 0 -92 34.5t-23 92.5h55q-5 -36 13.5 -57.5t53.5 -21.5h44q36 0 61 21.5t30 57.5h55
q-9 -58 -50.5 -92.5t-102.5 -34.5h-44z" />
    <glyph glyph-name="uni1EAF" unicode="&#x1eaf;" 
d="M234 -10q-82 0 -122.5 54.5t-26.5 146.5l26 167q10 62 39.5 107t74.5 70t100 25q70 0 107.5 -39.5t26.5 -104.5l-16 47h18l14 87h66l-87 -550h-66l14 87h-24l37 47q-10 -66 -60.5 -105t-120.5 -39zM261 47q63 0 105 39t52 107l26 163q11 69 -18 108t-93 39
q-63 0 -104 -38.5t-52 -108.5l-26 -163q-10 -69 18.5 -107.5t91.5 -38.5zM358 643q-70 0 -108.5 35t-29.5 92h54q-6 -36 19 -57.5t71 -21.5q47 0 78.5 21.5t37.5 57.5h56q-6 -38 -30.5 -66.5t-62.5 -44.5t-85 -16zM324 760l133 130h78l-141 -130h-70z" />
    <glyph glyph-name="uni1EB0" unicode="&#x1eb0;" 
d="M17 0l312 730h86l80 -730h-65l-21 204h-238l-85 -204h-69zM194 261h210l-28 267q-6 58 -8 97t-3 51q-4 -12 -18.5 -51t-39.5 -97zM358 780q-60 0 -92 34.5t-23 92.5h55q-5 -36 13.5 -57.5t53.5 -21.5h44q36 0 61 21.5t30 57.5h55q-9 -58 -50.5 -92.5t-102.5 -34.5h-44z
M387 897l-82 123h70l74 -123h-62z" />
    <glyph glyph-name="uni1EB1" unicode="&#x1eb1;" 
d="M234 -10q-82 0 -122.5 54.5t-26.5 146.5l26 167q10 62 39.5 107t74.5 70t100 25q70 0 107.5 -39.5t26.5 -104.5l-16 47h18l14 87h66l-87 -550h-66l14 87h-24l37 47q-10 -66 -60.5 -105t-120.5 -39zM261 47q63 0 105 39t52 107l26 163q11 69 -18 108t-93 39
q-63 0 -104 -38.5t-52 -108.5l-26 -163q-10 -69 18.5 -107.5t91.5 -38.5zM358 643q-70 0 -108.5 35t-29.5 92h54q-6 -36 19 -57.5t71 -21.5q47 0 78.5 21.5t37.5 57.5h56q-6 -38 -30.5 -66.5t-62.5 -44.5t-85 -16zM362 760l-99 130h71l91 -130h-63z" />
    <glyph glyph-name="uni1EB2" unicode="&#x1eb2;" 
d="M17 0l312 730h86l80 -730h-65l-21 204h-238l-85 -204h-69zM194 261h210l-28 267q-6 58 -8 97t-3 51q-4 -12 -18.5 -51t-39.5 -97zM356 880l55 54q8 9 13 15.5t6 10.5q3 15 -17 15h-73l8 45h81q30 0 44.5 -13t10.5 -36q-2 -13 -9.5 -27.5t-20.5 -26.5l-36 -37h-62z
M358 780q-60 0 -92 34.5t-23 92.5h55q-5 -36 13.5 -57.5t53.5 -21.5h44q36 0 61 21.5t30 57.5h55q-9 -58 -50.5 -92.5t-102.5 -34.5h-44z" />
    <glyph glyph-name="uni1EB3" unicode="&#x1eb3;" 
d="M234 -10q-82 0 -122.5 54.5t-26.5 146.5l26 167q10 62 39.5 107t74.5 70t100 25q70 0 107.5 -39.5t26.5 -104.5l-16 47h18l14 87h66l-87 -550h-66l14 87h-24l37 47q-10 -66 -60.5 -105t-120.5 -39zM261 47q63 0 105 39t52 107l26 163q11 69 -18 108t-93 39
q-63 0 -104 -38.5t-52 -108.5l-26 -163q-10 -69 18.5 -107.5t91.5 -38.5zM358 643q-70 0 -108.5 35t-29.5 92h54q-5 -36 19.5 -57.5t71.5 -21.5t78.5 21.5t36.5 57.5h56q-6 -38 -30.5 -66.5t-62.5 -44.5t-85 -16zM331 760l60 66q16 16 18 31q4 26 -25 26h-64l6 45h71
q37 0 57 -17.5t15 -45.5q-1 -12 -8.5 -26.5t-20.5 -27.5l-45 -51h-64z" />
    <glyph glyph-name="uni1EB4" unicode="&#x1eb4;" 
d="M17 0l312 730h86l80 -730h-65l-21 204h-238l-85 -204h-69zM194 261h210l-28 267q-6 58 -8 97t-3 51q-4 -12 -18.5 -51t-39.5 -97zM358 780q-60 0 -92 32t-23 88h55q-6 -34 13 -53t54 -19h44q36 0 60.5 19t30.5 53h55q-9 -56 -50.5 -88t-102.5 -32h-44zM478 920
q-28 0 -45.5 8.5t-30.5 19.5t-27 19.5t-34 8.5q-35 0 -42 -34l-2 -12h-50l2 12q6 36 32 57t65 21q28 0 45.5 -8.5t30.5 -19.5t26.5 -19.5t33.5 -8.5q15 0 25.5 9.5t12.5 24.5l2 12h50l-2 -12q-4 -35 -29.5 -56.5t-62.5 -21.5z" />
    <glyph glyph-name="uni1EB5" unicode="&#x1eb5;" 
d="M234 -10q-82 0 -122.5 54.5t-26.5 146.5l26 167q10 62 39.5 107t74.5 70t100 25q70 0 107.5 -39.5t26.5 -104.5l-16 47h18l14 87h66l-87 -550h-66l14 87h-24l37 47q-10 -66 -60.5 -105t-120.5 -39zM261 47q63 0 105 39t52 107l26 163q11 69 -18 108t-93 39
q-63 0 -104 -38.5t-52 -108.5l-26 -163q-10 -69 18.5 -107.5t91.5 -38.5zM358 645q-69 0 -106 35t-28 92h53q-6 -36 18 -58t69 -22q47 0 78 22t37 58h53q-6 -38 -29.5 -66.5t-61 -44.5t-83.5 -16zM453 814q-28 0 -43.5 10t-26 23.5t-22 23.5t-30.5 10q-36 0 -42 -36l-4 -25
h-50l4 23q6 39 32 61t67 22q28 0 43.5 -10t26 -23.5t22 -23.5t30.5 -10q16 0 26 9.5t13 26.5l4 25h50l-4 -23q-6 -39 -31.5 -61t-64.5 -22z" />
    <glyph glyph-name="uni1EB6" unicode="&#x1eb6;" 
d="M384 807q-69 0 -104 39t-25 104h55q-7 -44 14.5 -70t65.5 -26t74.5 26t36.5 70h56q-10 -65 -57 -104t-116 -39zM17 0l312 730h86l80 -730h-65l-21 204h-238l-85 -204h-69zM194 261h210l-28 267q-6 58 -8 97t-3 51q-4 -12 -18.5 -51t-39.5 -97zM233 -208q-29 0 -43.5 15.5
t-10.5 42.5t24 43t49 16t43.5 -16t9.5 -43q-4 -27 -23.5 -42.5t-48.5 -15.5z" />
    <glyph glyph-name="uni1EB7" unicode="&#x1eb7;" 
d="M363 642q-69 0 -104 39t-25 104h55q-7 -44 14.5 -70t65.5 -26t74.5 26t36.5 70h56q-10 -65 -57 -104t-116 -39zM234 -10q-82 0 -122.5 54.5t-26.5 146.5l26 167q10 62 39.5 107t74.5 70t100 25q70 0 107.5 -39.5t26.5 -104.5l-16 47h18l14 87h66l-87 -550h-66l14 87h-24
l37 47q-10 -66 -60.5 -105t-120.5 -39zM261 47q63 0 105 39t52 107l26 163q11 69 -18 108t-93 39q-63 0 -104 -38.5t-52 -108.5l-26 -163q-10 -69 18.5 -107.5t91.5 -38.5zM228 -208q-29 0 -43.5 15.5t-10.5 42.5t24 43t49 16t43.5 -16t9.5 -43q-4 -27 -23.5 -42.5
t-48.5 -15.5z" />
    <glyph glyph-name="uni1EB8" unicode="&#x1eb8;" 
d="M68 0l116 730h402l-10 -60h-336l-41 -259h301l-9 -60h-302l-46 -291h336l-9 -60h-402zM243 -208q-29 0 -43.5 15.5t-10.5 42.5t24 43t49 16t43.5 -16t9.5 -43q-4 -27 -23.5 -42.5t-48.5 -15.5z" />
    <glyph glyph-name="uni1EB9" unicode="&#x1eb9;" 
d="M255 -10q-63 0 -104 25t-58 71t-8 108l25 162q11 62 42.5 107.5t81 71t112.5 25.5q62 0 103 -25.5t58 -71t7 -107.5l-15 -96h-338l-11 -66q-10 -69 18.5 -108t95.5 -39q54 0 91.5 23.5t56.5 66.5h66q-16 -45 -47.5 -78t-76.5 -51t-99 -18zM441 305l8 51
q11 69 -17.5 108.5t-94.5 39.5q-67 0 -108.5 -39t-52.5 -109l-7 -43h283zM223 -208q-29 0 -43.5 15.5t-10.5 42.5t24 43t49 16t43.5 -16t9.5 -43q-4 -27 -23.5 -42.5t-48.5 -15.5z" />
    <glyph glyph-name="uni1EBA" unicode="&#x1eba;" 
d="M68 0l116 730h402l-10 -60h-336l-41 -259h301l-9 -60h-302l-46 -291h336l-9 -60h-402zM346 800l65 71q8 10 14.5 19t7.5 15q4 25 -29 25h-84l8 47h94q37 0 56 -17.5t14 -47.5q-2 -13 -9 -27t-17 -26l-52 -59h-68z" />
    <glyph glyph-name="uni1EBB" unicode="&#x1ebb;" 
d="M255 -10q-63 0 -104 25t-58 71t-8 108l25 162q11 62 42.5 107.5t81 71t112.5 25.5q62 0 103 -25.5t58 -71t7 -107.5l-15 -96h-338l-11 -66q-10 -69 18.5 -108t95.5 -39q54 0 91.5 23.5t56.5 66.5h66q-16 -45 -47.5 -78t-76.5 -51t-99 -18zM441 305l8 51
q11 69 -17.5 108.5t-94.5 39.5q-67 0 -108.5 -39t-52.5 -109l-7 -43h283zM322 645l65 71q8 10 14.5 19t7.5 15q4 25 -29 25h-84l8 47h94q37 0 56 -17.5t14 -47.5q-2 -13 -9 -27t-17 -26l-52 -59h-68z" />
    <glyph glyph-name="uni1EBC" unicode="&#x1ebc;" 
d="M68 0l116 730h402l-10 -60h-336l-41 -259h301l-9 -60h-302l-46 -291h336l-9 -60h-402zM478 815q-29 0 -46 12.5t-29 29t-24 29t-29 12.5q-19 0 -32.5 -12t-16.5 -33l-5 -33h-50l5 33q7 43 35.5 67.5t69.5 24.5q29 0 46 -12.5t29 -29t23.5 -29t29.5 -12.5t30 12t15 33
l6 33h50l-6 -33q-7 -43 -34 -67.5t-67 -24.5z" />
    <glyph glyph-name="uni1EBD" unicode="&#x1ebd;" 
d="M255 -10q-63 0 -104 25t-58 71t-8 108l25 162q11 62 42.5 107.5t81 71t112.5 25.5q62 0 103 -25.5t58 -71t7 -107.5l-15 -96h-338l-11 -66q-10 -69 18.5 -108t95.5 -39q54 0 91.5 23.5t56.5 66.5h66q-16 -45 -47.5 -78t-76.5 -51t-99 -18zM441 305l8 51
q11 69 -17.5 108.5t-94.5 39.5q-67 0 -108.5 -39t-52.5 -109l-7 -43h283zM432 650q-29 0 -46 12.5t-29 29t-24 29t-29 12.5q-19 0 -32.5 -12t-16.5 -33l-5 -33h-50l5 33q7 43 35.5 67.5t69.5 24.5q29 0 46 -12.5t28.5 -29t23.5 -29t29 -12.5q18 0 30.5 12t15.5 33l6 33h50
l-6 -33q-7 -43 -34 -67.5t-67 -24.5z" />
    <glyph glyph-name="uni1EBE" unicode="&#x1ebe;" 
d="M68 0l116 730h402l-10 -60h-336l-41 -259h301l-9 -60h-302l-46 -291h336l-9 -60h-402zM503 897l125 123h79l-132 -123h-72zM218 780l149 140h70l105 -140h-67l-78 97l-106 -97h-73z" />
    <glyph glyph-name="uni1EBF" unicode="&#x1ebf;" 
d="M255 -10q-63 0 -104 25t-58 71t-8 108l25 162q11 62 42.5 107.5t81 71t112.5 25.5q62 0 103 -25.5t58 -71t7 -107.5l-15 -96h-338l-11 -66q-10 -69 18.5 -108t95.5 -39q54 0 91.5 23.5t56.5 66.5h66q-16 -45 -47.5 -78t-76.5 -51t-99 -18zM441 305l8 51
q11 69 -17.5 108.5t-94.5 39.5q-67 0 -108.5 -39t-52.5 -109l-7 -43h283zM480 760l137 140h80l-145 -140h-72zM196 645l149 140h69l106 -140h-67l-78 97l-106 -97h-73z" />
    <glyph glyph-name="uni1EC0" unicode="&#x1ec0;" 
d="M68 0l116 730h402l-10 -60h-336l-41 -259h301l-9 -60h-302l-46 -291h336l-9 -60h-402zM545 897l-100 123h73l92 -123h-65zM218 780l149 140h70l105 -140h-67l-78 97l-106 -97h-73z" />
    <glyph glyph-name="uni1EC1" unicode="&#x1ec1;" 
d="M255 -10q-63 0 -104 25t-58 71t-8 108l25 162q11 62 42.5 107.5t81 71t112.5 25.5q62 0 103 -25.5t58 -71t7 -107.5l-15 -96h-338l-11 -66q-10 -69 18.5 -108t95.5 -39q54 0 91.5 23.5t56.5 66.5h66q-16 -45 -47.5 -78t-76.5 -51t-99 -18zM441 305l8 51
q11 69 -17.5 108.5t-94.5 39.5q-67 0 -108.5 -39t-52.5 -109l-7 -43h283zM532 760l-107 140h72l99 -140h-64zM196 645l149 140h69l106 -140h-67l-78 97l-106 -97h-73z" />
    <glyph glyph-name="uni1EC2" unicode="&#x1ec2;" 
d="M68 0l116 730h402l-10 -60h-336l-41 -259h301l-9 -60h-302l-46 -291h336l-9 -60h-402zM521 880l56 51q8 8 13 14.5t6 12.5q3 18 -19 18h-69l7 44h77q32 0 48 -14.5t12 -39.5q-2 -14 -10 -27t-20 -24l-37 -35h-64zM218 780l149 140h70l105 -140h-67l-78 97l-106 -97h-73z
" />
    <glyph glyph-name="uni1EC3" unicode="&#x1ec3;" 
d="M255 -10q-63 0 -104 25t-58 71t-8 108l25 162q11 62 42.5 107.5t81 71t112.5 25.5q62 0 103 -25.5t58 -71t7 -107.5l-15 -96h-338l-11 -66q-10 -69 18.5 -108t95.5 -39q54 0 91.5 23.5t56.5 66.5h66q-16 -45 -47.5 -78t-76.5 -51t-99 -18zM441 305l8 51
q11 69 -17.5 108.5t-94.5 39.5q-67 0 -108.5 -39t-52.5 -109l-7 -43h283zM493 760l60 66q16 16 18 31q4 26 -26 26h-64l7 45h70q38 0 58 -17.5t15 -45.5q-3 -26 -29 -54l-45 -51h-64zM196 645l149 140h69l106 -140h-67l-78 97l-106 -97h-73z" />
    <glyph glyph-name="uni1EC4" unicode="&#x1ec4;" 
d="M68 0l116 730h402l-10 -60h-336l-41 -259h301l-9 -60h-302l-46 -291h336l-9 -60h-402zM478 920q-28 0 -45.5 8.5t-30.5 19.5t-27 19.5t-34 8.5q-35 0 -42 -34l-2 -12h-50l2 12q6 36 32 57t65 21q28 0 45.5 -8.5t30.5 -19.5t26.5 -19.5t33.5 -8.5q15 0 25.5 9.5t12.5 24.5
l2 12h50l-2 -12q-4 -35 -29.5 -56.5t-62.5 -21.5zM218 780l137 117h87l100 -117h-67l-80 84l-104 -84h-73z" />
    <glyph glyph-name="uni1EC5" unicode="&#x1ec5;" 
d="M255 -10q-63 0 -104 25t-58 71t-8 108l25 162q11 62 42.5 107.5t81 71t112.5 25.5q62 0 103 -25.5t58 -71t7 -107.5l-15 -96h-338l-11 -66q-10 -69 18.5 -108t95.5 -39q54 0 91.5 23.5t56.5 66.5h66q-16 -45 -47.5 -78t-76.5 -51t-99 -18zM441 305l8 51
q11 69 -17.5 108.5t-94.5 39.5q-67 0 -108.5 -39t-52.5 -109l-7 -43h283zM453 814q-28 0 -44 10t-26.5 23.5t-22 23.5t-29.5 10q-36 0 -42 -36l-4 -25h-50l4 23q6 39 32 61t67 22q29 0 45 -10t26 -23.5t21 -23.5t30 -10q33 0 39 36l4 25h50l-4 -23q-6 -39 -31.5 -61
t-64.5 -22zM196 645l149 140h69l106 -140h-66l-78 97l-107 -97h-73z" />
    <glyph glyph-name="uni1EC6" unicode="&#x1ec6;" 
d="M222 810l149 140h69l106 -140h-67l-77 97l-107 -97h-73zM68 0l116 730h402l-10 -60h-336l-41 -259h301l-9 -60h-302l-46 -291h336l-9 -60h-402zM243 -208q-29 0 -43.5 15.5t-10.5 42.5t24 43t49 16t43.5 -16t9.5 -43q-4 -27 -23.5 -42.5t-48.5 -15.5z" />
    <glyph glyph-name="uni1EC7" unicode="&#x1ec7;" 
d="M198 645l149 140h69l106 -140h-67l-78 97l-106 -97h-73zM255 -10q-63 0 -104 25t-58 71t-8 108l25 162q11 62 42.5 107.5t81 71t112.5 25.5q62 0 103 -25.5t58 -71t7 -107.5l-15 -96h-338l-11 -66q-10 -69 18.5 -108t95.5 -39q54 0 91.5 23.5t56.5 66.5h66
q-16 -45 -47.5 -78t-76.5 -51t-99 -18zM441 305l8 51q11 69 -17.5 108.5t-94.5 39.5q-67 0 -108.5 -39t-52.5 -109l-7 -43h283zM223 -208q-29 0 -43.5 15.5t-10.5 42.5t24 43t49 16t43.5 -16t9.5 -43q-4 -27 -23.5 -42.5t-48.5 -15.5z" />
    <glyph glyph-name="uni1EC8" unicode="&#x1ec8;" 
d="M70 0l9 60h154l96 610h-153l10 61h372l-10 -61h-152l-97 -610h152l-9 -60h-372zM364 800l65 71q8 10 14.5 19t7.5 15q4 25 -29 25h-84l8 47h94q37 0 56 -17.5t14 -47.5q-2 -13 -9 -27t-17 -26l-52 -59h-68z" />
    <glyph glyph-name="uni1EC9" unicode="&#x1ec9;" 
d="M45 0l9 60h199l68 430h-173l9 60h240l-78 -490h187l-9 -60h-452zM340 645l65 71q8 10 14.5 19t7.5 15q4 25 -29 25h-84l8 47h94q37 0 56 -17.5t14 -47.5q-2 -13 -9 -27t-17 -26l-52 -59h-68z" />
    <glyph glyph-name="uni1ECA" unicode="&#x1eca;" 
d="M70 0l9 60h154l96 610h-153l10 61h372l-10 -61h-152l-97 -610h152l-9 -60h-372zM223 -208q-29 0 -43.5 15.5t-10.5 42.5t24 43t49 16t43.5 -16t9.5 -43q-4 -27 -23.5 -42.5t-48.5 -15.5z" />
    <glyph glyph-name="uni1ECB" unicode="&#x1ecb;" 
d="M45 0l9 60h199l68 430h-173l9 60h240l-78 -490h187l-9 -60h-452zM379 653q-28 0 -44 15.5t-15 42.5q2 27 20.5 43t46.5 16q29 0 45.5 -16t14.5 -43t-20.5 -42.5t-47.5 -15.5zM238 -208q-29 0 -43.5 15.5t-10.5 42.5t24 43t49 16t43.5 -16t9.5 -43q-4 -27 -23.5 -42.5
t-48.5 -15.5z" />
    <glyph glyph-name="uni1ECC" unicode="&#x1ecc;" 
d="M254 -10q-61 0 -102.5 24.5t-58.5 70.5t-8 109l54 342q11 63 42.5 108.5t81 70.5t110.5 25q62 0 103.5 -25t59 -70.5t7.5 -108.5l-54 -342q-10 -63 -42 -109t-81.5 -70.5t-111.5 -24.5zM263 49q65 0 106.5 38t53.5 107l54 342q11 69 -19 107t-94 38t-106 -38t-53 -107
l-54 -342q-11 -69 18.5 -107t93.5 -38zM233 -208q-29 0 -43.5 15.5t-10.5 42.5t24 43t49 16t43.5 -16t9.5 -43q-4 -27 -23.5 -42.5t-48.5 -15.5z" />
    <glyph glyph-name="uni1ECD" unicode="&#x1ecd;" 
d="M254 -10q-61 0 -102.5 24.5t-58.5 70.5t-8 109l25 162q11 63 42.5 108.5t81.5 70.5t111 25q62 0 103 -25t58.5 -70.5t7.5 -108.5l-25 -162q-10 -63 -42 -109t-81.5 -70.5t-111.5 -24.5zM263 48q65 0 106.5 38t53.5 108l25 162q12 70 -18 108t-94 38t-106 -38t-54 -108
l-25 -162q-11 -70 18.5 -108t93.5 -38zM233 -208q-29 0 -43.5 15.5t-10.5 42.5t24 43t49 16t43.5 -16t9.5 -43q-4 -27 -23.5 -42.5t-48.5 -15.5z" />
    <glyph glyph-name="uni1ECE" unicode="&#x1ece;" 
d="M254 -10q-61 0 -102.5 24.5t-58.5 70.5t-8 109l54 342q11 63 42.5 108.5t81 70.5t110.5 25q62 0 103.5 -25t59 -70.5t7.5 -108.5l-54 -342q-10 -63 -42 -109t-81.5 -70.5t-111.5 -24.5zM263 49q65 0 106.5 38t53.5 107l54 342q11 69 -19 107t-94 38t-106 -38t-53 -107
l-54 -342q-11 -69 18.5 -107t93.5 -38zM364 800l65 71q8 10 14.5 19t7.5 15q4 25 -29 25h-84l8 47h94q37 0 56 -17.5t14 -47.5q-2 -13 -9 -27t-17 -26l-52 -59h-68z" />
    <glyph glyph-name="uni1ECF" unicode="&#x1ecf;" 
d="M254 -10q-61 0 -102.5 24.5t-58.5 70.5t-8 109l25 162q11 63 42.5 108.5t81.5 70.5t111 25q62 0 103 -25t58.5 -70.5t7.5 -108.5l-25 -162q-10 -63 -42 -109t-81.5 -70.5t-111.5 -24.5zM263 48q65 0 106.5 38t53.5 108l25 162q12 70 -18 108t-94 38t-106 -38t-54 -108
l-25 -162q-11 -70 18.5 -108t93.5 -38zM322 645l65 71q8 10 14.5 19t7.5 15q4 25 -29 25h-84l8 47h94q37 0 56 -17.5t14 -47.5q-2 -13 -9 -27t-17 -26l-52 -59h-68z" />
    <glyph glyph-name="uni1ED0" unicode="&#x1ed0;" 
d="M254 -10q-61 0 -102.5 24.5t-58.5 70.5t-8 109l54 342q11 63 42.5 108.5t81 70.5t110.5 25q62 0 103.5 -25t59 -70.5t7.5 -108.5l-54 -342q-10 -63 -42 -109t-81.5 -70.5t-111.5 -24.5zM263 49q65 0 106.5 38t53.5 107l54 342q11 69 -19 107t-94 38t-106 -38t-53 -107
l-54 -342q-11 -69 18.5 -107t93.5 -38zM503 897l125 123h79l-132 -123h-72zM218 780l149 140h70l105 -140h-67l-78 97l-106 -97h-73z" />
    <glyph glyph-name="uni1ED1" unicode="&#x1ed1;" 
d="M254 -10q-61 0 -102.5 24.5t-58.5 70.5t-8 109l25 162q11 63 42.5 108.5t81.5 70.5t111 25q62 0 103 -25t58.5 -70.5t7.5 -108.5l-25 -162q-10 -63 -42 -109t-81.5 -70.5t-111.5 -24.5zM263 48q65 0 106.5 38t53.5 108l25 162q12 70 -18 108t-94 38t-106 -38t-54 -108
l-25 -162q-11 -70 18.5 -108t93.5 -38zM480 760l137 140h80l-145 -140h-72zM196 645l149 140h69l106 -140h-67l-78 97l-106 -97h-73z" />
    <glyph glyph-name="uni1ED2" unicode="&#x1ed2;" 
d="M254 -10q-61 0 -102.5 24.5t-58.5 70.5t-8 109l54 342q11 63 42.5 108.5t81 70.5t110.5 25q62 0 103.5 -25t59 -70.5t7.5 -108.5l-54 -342q-10 -63 -42 -109t-81.5 -70.5t-111.5 -24.5zM263 49q65 0 106.5 38t53.5 107l54 342q11 69 -19 107t-94 38t-106 -38t-53 -107
l-54 -342q-11 -69 18.5 -107t93.5 -38zM545 897l-100 123h73l92 -123h-65zM218 780l149 140h70l105 -140h-67l-78 97l-106 -97h-73z" />
    <glyph glyph-name="uni1ED3" unicode="&#x1ed3;" 
d="M254 -10q-61 0 -102.5 24.5t-58.5 70.5t-8 109l25 162q11 63 42.5 108.5t81.5 70.5t111 25q62 0 103 -25t58.5 -70.5t7.5 -108.5l-25 -162q-10 -63 -42 -109t-81.5 -70.5t-111.5 -24.5zM263 48q65 0 106.5 38t53.5 108l25 162q12 70 -18 108t-94 38t-106 -38t-54 -108
l-25 -162q-11 -70 18.5 -108t93.5 -38zM532 760l-107 140h72l99 -140h-64zM196 645l149 140h69l106 -140h-67l-78 97l-106 -97h-73z" />
    <glyph glyph-name="uni1ED4" unicode="&#x1ed4;" 
d="M254 -10q-61 0 -102.5 24.5t-58.5 70.5t-8 109l54 342q11 63 42.5 108.5t81 70.5t110.5 25q62 0 103.5 -25t59 -70.5t7.5 -108.5l-54 -342q-10 -63 -42 -109t-81.5 -70.5t-111.5 -24.5zM263 49q65 0 106.5 38t53.5 107l54 342q11 69 -19 107t-94 38t-106 -38t-53 -107
l-54 -342q-11 -69 18.5 -107t93.5 -38zM521 880l56 51q8 8 13 14.5t6 12.5q3 18 -19 18h-69l7 44h77q32 0 48 -14.5t12 -39.5q-2 -14 -10 -27t-20 -24l-37 -35h-64zM218 780l149 140h70l105 -140h-67l-78 97l-106 -97h-73z" />
    <glyph glyph-name="uni1ED5" unicode="&#x1ed5;" 
d="M254 -10q-61 0 -102.5 24.5t-58.5 70.5t-8 109l25 162q11 63 42.5 108.5t81.5 70.5t111 25q62 0 103 -25t58.5 -70.5t7.5 -108.5l-25 -162q-10 -63 -42 -109t-81.5 -70.5t-111.5 -24.5zM263 48q65 0 106.5 38t53.5 108l25 162q12 70 -18 108t-94 38t-106 -38t-54 -108
l-25 -162q-11 -70 18.5 -108t93.5 -38zM493 760l60 66q16 16 18 31q4 26 -26 26h-64l7 45h70q38 0 58 -17.5t15 -45.5q-3 -26 -29 -54l-45 -51h-64zM196 645l149 140h69l106 -140h-67l-78 97l-106 -97h-73z" />
    <glyph glyph-name="uni1ED6" unicode="&#x1ed6;" 
d="M254 -10q-61 0 -102.5 24.5t-58.5 70.5t-8 109l54 342q11 63 42.5 108.5t81 70.5t110.5 25q62 0 103.5 -25t59 -70.5t7.5 -108.5l-54 -342q-10 -63 -42 -109t-81.5 -70.5t-111.5 -24.5zM263 49q65 0 106.5 38t53.5 107l54 342q11 69 -19 107t-94 38t-106 -38t-53 -107
l-54 -342q-11 -69 18.5 -107t93.5 -38zM478 920q-28 0 -45.5 8.5t-30.5 19.5t-27 19.5t-34 8.5q-35 0 -42 -34l-2 -12h-50l2 12q6 36 32 57t65 21q28 0 45.5 -8.5t30.5 -19.5t26.5 -19.5t33.5 -8.5q15 0 25.5 9.5t12.5 24.5l2 12h50l-2 -12q-4 -35 -29.5 -56.5t-62.5 -21.5z
M218 780l137 117h87l100 -117h-67l-80 84l-104 -84h-73z" />
    <glyph glyph-name="uni1ED7" unicode="&#x1ed7;" 
d="M254 -10q-61 0 -102.5 24.5t-58.5 70.5t-8 109l25 162q11 63 42.5 108.5t81.5 70.5t111 25q62 0 103 -25t58.5 -70.5t7.5 -108.5l-25 -162q-10 -63 -42 -109t-81.5 -70.5t-111.5 -24.5zM263 48q65 0 106.5 38t53.5 108l25 162q12 70 -18 108t-94 38t-106 -38t-54 -108
l-25 -162q-11 -70 18.5 -108t93.5 -38zM453 814q-28 0 -44 10t-26.5 23.5t-22 23.5t-29.5 10q-36 0 -42 -36l-4 -25h-50l4 23q6 39 32 61t67 22q29 0 45 -10t26 -23.5t21 -23.5t30 -10q33 0 39 36l4 25h50l-4 -23q-6 -39 -31.5 -61t-64.5 -22zM196 645l149 140h69l106 -140
h-66l-78 97l-107 -97h-73z" />
    <glyph glyph-name="uni1ED8" unicode="&#x1ed8;" 
d="M222 810l149 140h69l106 -140h-67l-77 97l-107 -97h-73zM254 -10q-61 0 -102.5 24.5t-58.5 70.5t-8 109l54 342q11 63 42.5 108.5t81 70.5t110.5 25q62 0 103.5 -25t59 -70.5t7.5 -108.5l-54 -342q-10 -63 -42 -109t-81.5 -70.5t-111.5 -24.5zM263 49q65 0 106.5 38
t53.5 107l54 342q11 69 -19 107t-94 38t-106 -38t-53 -107l-54 -342q-11 -69 18.5 -107t93.5 -38zM223 -208q-29 0 -43.5 15.5t-10.5 42.5t24 43t49 16t43.5 -16t9.5 -43q-4 -27 -23.5 -42.5t-48.5 -15.5z" />
    <glyph glyph-name="uni1ED9" unicode="&#x1ed9;" 
d="M196 645l149 140h69l106 -140h-67l-78 97l-106 -97h-73zM254 -10q-61 0 -102.5 24.5t-58.5 70.5t-8 109l25 162q11 63 42.5 108.5t81.5 70.5t111 25q62 0 103 -25t58.5 -70.5t7.5 -108.5l-25 -162q-10 -63 -42 -109t-81.5 -70.5t-111.5 -24.5zM263 48q65 0 106.5 38
t53.5 108l25 162q12 70 -18 108t-94 38t-106 -38t-54 -108l-25 -162q-11 -70 18.5 -108t93.5 -38zM233 -208q-29 0 -43.5 15.5t-10.5 42.5t24 43t49 16t43.5 -16t9.5 -43q-4 -27 -23.5 -42.5t-48.5 -15.5z" />
    <glyph glyph-name="uni1EDA" unicode="&#x1eda;" 
d="M455 653l8 47h35q18 0 31 12t16 32l11 66h54l-11 -68q-6 -40 -35.5 -64.5t-71.5 -24.5h-37zM254 -10q-61 0 -102.5 24.5t-58.5 70.5t-8 109l54 342q11 63 42.5 108.5t81 70.5t110.5 25q62 0 103.5 -25t59 -70.5t7.5 -108.5l-54 -342q-10 -63 -42 -109t-81.5 -70.5
t-111.5 -24.5zM263 49q65 0 106.5 38t53.5 107l54 342q11 69 -19 107t-94 38t-106 -38t-53 -107l-54 -342q-11 -69 18.5 -107t93.5 -38zM344 810l128 140h78l-133 -140h-73z" />
    <glyph glyph-name="uni1EDB" unicode="&#x1edb;" 
d="M434 483l8 47h35q18 0 31 12t16 32l11 66h54l-11 -68q-7 -40 -36 -64.5t-71 -24.5h-37zM254 -10q-61 0 -102.5 24.5t-58.5 70.5t-8 109l25 162q11 63 42.5 108.5t81.5 70.5t111 25q62 0 103 -25t58.5 -70.5t7.5 -108.5l-25 -162q-10 -63 -42 -109t-81.5 -70.5
t-111.5 -24.5zM263 48q65 0 106.5 38t53.5 108l25 162q12 70 -18 108t-94 38t-106 -38t-54 -108l-25 -162q-11 -70 18.5 -108t93.5 -38zM311 645l128 140h78l-133 -140h-73z" />
    <glyph glyph-name="uni1EDC" unicode="&#x1edc;" 
d="M455 653l8 47h35q18 0 31 12t16 32l11 66h54l-11 -68q-6 -40 -35.5 -64.5t-71.5 -24.5h-37zM254 -10q-61 0 -102.5 24.5t-58.5 70.5t-8 109l54 342q11 63 42.5 108.5t81 70.5t110.5 25q62 0 103.5 -25t59 -70.5t7.5 -108.5l-54 -342q-10 -63 -42 -109t-81.5 -70.5
t-111.5 -24.5zM263 49q65 0 106.5 38t53.5 107l54 342q11 69 -19 107t-94 38t-106 -38t-53 -107l-54 -342q-11 -69 18.5 -107t93.5 -38zM369 810l-91 140h73l85 -140h-67z" />
    <glyph glyph-name="uni1EDD" unicode="&#x1edd;" 
d="M434 483l8 47h35q18 0 31 12t16 32l11 66h54l-11 -68q-7 -40 -36 -64.5t-71 -24.5h-37zM254 -10q-61 0 -102.5 24.5t-58.5 70.5t-8 109l25 162q11 63 42.5 108.5t81.5 70.5t111 25q62 0 103 -25t58.5 -70.5t7.5 -108.5l-25 -162q-10 -63 -42 -109t-81.5 -70.5
t-111.5 -24.5zM263 48q65 0 106.5 38t53.5 108l25 162q12 70 -18 108t-94 38t-106 -38t-54 -108l-25 -162q-11 -70 18.5 -108t93.5 -38zM331 645l-91 140h72l86 -140h-67z" />
    <glyph glyph-name="uni1EDE" unicode="&#x1ede;" 
d="M455 653l8 47h35q18 0 31 12t16 32l11 66h54l-11 -68q-6 -40 -35.5 -64.5t-71.5 -24.5h-37zM254 -10q-61 0 -102.5 24.5t-58.5 70.5t-8 109l54 342q11 63 42.5 108.5t81 70.5t110.5 25q62 0 103.5 -25t59 -70.5t7.5 -108.5l-54 -342q-10 -63 -42 -109t-81.5 -70.5
t-111.5 -24.5zM263 49q65 0 106.5 38t53.5 107l54 342q11 69 -19 107t-94 38t-106 -38t-53 -107l-54 -342q-11 -69 18.5 -107t93.5 -38zM346 800l65 71q8 10 14.5 19t7.5 15q4 25 -29 25h-84l8 47h94q37 0 56 -17.5t14 -47.5q-2 -13 -9 -27t-17 -26l-52 -59h-68z" />
    <glyph glyph-name="uni1EDF" unicode="&#x1edf;" 
d="M434 483l8 47h35q18 0 31 12t16 32l11 66h54l-11 -68q-7 -40 -36 -64.5t-71 -24.5h-37zM254 -10q-61 0 -102.5 24.5t-58.5 70.5t-8 109l25 162q11 63 42.5 108.5t81.5 70.5t111 25q62 0 103 -25t58.5 -70.5t7.5 -108.5l-25 -162q-10 -63 -42 -109t-81.5 -70.5
t-111.5 -24.5zM263 48q65 0 106.5 38t53.5 108l25 162q12 70 -18 108t-94 38t-106 -38t-54 -108l-25 -162q-11 -70 18.5 -108t93.5 -38zM322 645l65 71q8 10 14.5 19t7.5 15q4 25 -29 25h-84l8 47h94q37 0 56 -17.5t14 -47.5q-2 -13 -9 -27t-17 -26l-52 -59h-68z" />
    <glyph glyph-name="uni1EE0" unicode="&#x1ee0;" 
d="M455 653l8 47h35q18 0 31 12t16 32l11 66h54l-11 -68q-6 -40 -35.5 -64.5t-71.5 -24.5h-37zM254 -10q-61 0 -102.5 24.5t-58.5 70.5t-8 109l54 342q11 63 42.5 108.5t81 70.5t110.5 25q62 0 103.5 -25t59 -70.5t7.5 -108.5l-54 -342q-10 -63 -42 -109t-81.5 -70.5
t-111.5 -24.5zM263 49q65 0 106.5 38t53.5 107l54 342q11 69 -19 107t-94 38t-106 -38t-53 -107l-54 -342q-11 -69 18.5 -107t93.5 -38zM465 815q-29 0 -46 12.5t-29 29t-24 29t-29 12.5q-19 0 -32.5 -12t-16.5 -33l-5 -33h-50l5 33q7 43 35.5 67.5t69.5 24.5q29 0 46 -12.5
t29 -29t23.5 -29t29.5 -12.5t30 12t15 33l6 33h50l-6 -33q-7 -43 -34 -67.5t-67 -24.5z" />
    <glyph glyph-name="uni1EE1" unicode="&#x1ee1;" 
d="M434 483l8 47h35q18 0 31 12t16 32l11 66h54l-11 -68q-7 -40 -36 -64.5t-71 -24.5h-37zM254 -10q-61 0 -102.5 24.5t-58.5 70.5t-8 109l25 162q11 63 42.5 108.5t81.5 70.5t111 25q62 0 103 -25t58.5 -70.5t7.5 -108.5l-25 -162q-10 -63 -42 -109t-81.5 -70.5
t-111.5 -24.5zM263 48q65 0 106.5 38t53.5 108l25 162q12 70 -18 108t-94 38t-106 -38t-54 -108l-25 -162q-11 -70 18.5 -108t93.5 -38zM426 650q-29 0 -46 12.5t-29 29t-24 29t-29 12.5q-19 0 -32.5 -12t-16.5 -33l-5 -33h-50l5 33q7 43 35.5 67.5t69.5 24.5q29 0 46 -12.5
t28.5 -29t23.5 -29t29 -12.5q18 0 30.5 12t15.5 33l6 33h50l-6 -33q-7 -43 -34 -67.5t-67 -24.5z" />
    <glyph glyph-name="uni1EE2" unicode="&#x1ee2;" 
d="M455 653l8 47h35q18 0 31 12t16 32l11 66h54l-11 -68q-6 -40 -35.5 -64.5t-71.5 -24.5h-37zM254 -10q-61 0 -102.5 24.5t-58.5 70.5t-8 109l54 342q11 63 42.5 108.5t81 70.5t110.5 25q62 0 103.5 -25t59 -70.5t7.5 -108.5l-54 -342q-10 -63 -42 -109t-81.5 -70.5
t-111.5 -24.5zM263 49q65 0 106.5 38t53.5 107l54 342q11 69 -19 107t-94 38t-106 -38t-53 -107l-54 -342q-11 -69 18.5 -107t93.5 -38zM233 -208q-29 0 -43.5 15.5t-10.5 42.5t24 43t49 16t43.5 -16t9.5 -43q-4 -27 -23.5 -42.5t-48.5 -15.5z" />
    <glyph glyph-name="uni1EE3" unicode="&#x1ee3;" 
d="M434 483l8 47h35q18 0 31 12t16 32l11 66h54l-11 -68q-7 -40 -36 -64.5t-71 -24.5h-37zM254 -10q-61 0 -102.5 24.5t-58.5 70.5t-8 109l25 162q11 63 42.5 108.5t81.5 70.5t111 25q62 0 103 -25t58.5 -70.5t7.5 -108.5l-25 -162q-10 -63 -42 -109t-81.5 -70.5
t-111.5 -24.5zM263 48q65 0 106.5 38t53.5 108l25 162q12 70 -18 108t-94 38t-106 -38t-54 -108l-25 -162q-11 -70 18.5 -108t93.5 -38zM233 -208q-29 0 -43.5 15.5t-10.5 42.5t24 43t49 16t43.5 -16t9.5 -43q-4 -27 -23.5 -42.5t-48.5 -15.5z" />
    <glyph glyph-name="uni1EE4" unicode="&#x1ee4;" 
d="M255 -10q-94 0 -138 55.5t-29 148.5l85 536h66l-85 -536q-11 -68 17.5 -106.5t93.5 -38.5q64 0 104 38.5t51 106.5l85 536h66l-85 -536q-9 -62 -40.5 -108t-80 -71t-110.5 -25zM223 -208q-29 0 -43.5 15.5t-10.5 42.5t24 43t49 16t43.5 -16t9.5 -43q-4 -27 -23.5 -42.5
t-48.5 -15.5z" />
    <glyph glyph-name="uni1EE5" unicode="&#x1ee5;" 
d="M253 -10q-91 0 -135.5 55.5t-29.5 150.5l56 354h66l-56 -354q-11 -69 18 -108t91 -39q63 0 104.5 39t53.5 108l55 354h66l-55 -354q-10 -63 -42 -109.5t-81 -71.5t-111 -25zM223 -208q-29 0 -43.5 15.5t-10.5 42.5t24 43t49 16t43.5 -16t9.5 -43q-4 -27 -23.5 -42.5
t-48.5 -15.5z" />
    <glyph glyph-name="uni1EE6" unicode="&#x1ee6;" 
d="M255 -10q-94 0 -138 55.5t-29 148.5l85 536h66l-85 -536q-11 -68 17.5 -106.5t93.5 -38.5q64 0 104 38.5t51 106.5l85 536h66l-85 -536q-9 -62 -40.5 -108t-80 -71t-110.5 -25zM346 800l65 71q8 10 14.5 19t7.5 15q4 25 -29 25h-84l8 47h94q37 0 56 -17.5t14 -47.5
q-2 -13 -9 -27t-17 -26l-52 -59h-68z" />
    <glyph glyph-name="uni1EE7" unicode="&#x1ee7;" 
d="M253 -10q-91 0 -135.5 55.5t-29.5 150.5l56 354h66l-56 -354q-11 -69 18 -108t91 -39q63 0 104.5 39t53.5 108l55 354h66l-55 -354q-10 -63 -42 -109.5t-81 -71.5t-111 -25zM322 645l65 71q8 10 14.5 19t7.5 15q4 25 -29 25h-84l8 47h94q37 0 56 -17.5t14 -47.5
q-2 -13 -9 -27t-17 -26l-52 -59h-68z" />
    <glyph glyph-name="uni1EE8" unicode="&#x1ee8;" 
d="M504 683l8 47h71q19 0 31.5 12t16.5 32l10 66h54l-11 -68q-6 -40 -35.5 -64.5t-71.5 -24.5h-73zM255 -10q-94 0 -138 55.5t-29 148.5l85 536h66l-85 -536q-11 -68 17.5 -106.5t93.5 -38.5q64 0 104 38.5t51 106.5l85 536h66l-85 -536q-9 -62 -40.5 -108t-80 -71
t-110.5 -25zM330 810l128 140h78l-133 -140h-73z" />
    <glyph glyph-name="uni1EE9" unicode="&#x1ee9;" 
d="M88 196l56 354h66l-56 -354q-11 -69 18 -108t91 -39q63 0 104.5 39t53.5 108l55 354h58q18 0 31 12t17 32l11 66h54l-12 -68q-6 -40 -32 -64.5t-68 -24.5l-48 -307q-10 -63 -42 -109.5t-81 -71.5t-111 -25q-91 0 -135.5 55.5t-29.5 150.5zM317 645l128 140h78l-133 -140
h-73z" />
    <glyph glyph-name="uni1EEA" unicode="&#x1eea;" 
d="M504 683l8 47h71q19 0 31.5 12t16.5 32l10 66h54l-11 -68q-6 -40 -35.5 -64.5t-71.5 -24.5h-73zM255 -10q-94 0 -138 55.5t-29 148.5l85 536h66l-85 -536q-11 -68 17.5 -106.5t93.5 -38.5q64 0 104 38.5t51 106.5l85 536h66l-85 -536q-9 -62 -40.5 -108t-80 -71
t-110.5 -25zM355 810l-91 140h73l85 -140h-67z" />
    <glyph glyph-name="uni1EEB" unicode="&#x1eeb;" 
d="M88 196l56 354h66l-56 -354q-11 -69 18 -108t91 -39q63 0 104.5 39t53.5 108l55 354h58q18 0 31 12t17 32l11 66h54l-12 -68q-6 -40 -32 -64.5t-68 -24.5l-48 -307q-10 -63 -42 -109.5t-81 -71.5t-111 -25q-91 0 -135.5 55.5t-29.5 150.5zM337 645l-91 140h72l86 -140
h-67z" />
    <glyph glyph-name="uni1EEC" unicode="&#x1eec;" 
d="M504 683l8 47h71q19 0 31.5 12t16.5 32l10 66h54l-11 -68q-6 -40 -35.5 -64.5t-71.5 -24.5h-73zM255 -10q-94 0 -138 55.5t-29 148.5l85 536h66l-85 -536q-11 -68 17.5 -106.5t93.5 -38.5q64 0 104 38.5t51 106.5l85 536h66l-85 -536q-9 -62 -40.5 -108t-80 -71
t-110.5 -25zM346 800l65 71q8 10 14.5 19t7.5 15q4 25 -29 25h-84l8 47h94q37 0 56 -17.5t14 -47.5q-2 -13 -9 -27t-17 -26l-52 -59h-68z" />
    <glyph glyph-name="uni1EED" unicode="&#x1eed;" 
d="M88 196l56 354h66l-56 -354q-11 -69 18 -108t91 -39q63 0 104.5 39t53.5 108l55 354h58q18 0 31 12t17 32l11 66h54l-12 -68q-6 -40 -32 -64.5t-68 -24.5l-48 -307q-10 -63 -42 -109.5t-81 -71.5t-111 -25q-91 0 -135.5 55.5t-29.5 150.5zM322 645l65 71q8 10 14.5 19
t7.5 15q4 25 -29 25h-84l8 47h94q37 0 56 -17.5t14 -47.5q-2 -13 -9 -27t-17 -26l-52 -59h-68z" />
    <glyph glyph-name="uni1EEE" unicode="&#x1eee;" 
d="M504 683l8 47h71q19 0 31.5 12t16.5 32l10 66h54l-11 -68q-6 -40 -35.5 -64.5t-71.5 -24.5h-73zM255 -10q-94 0 -138 55.5t-29 148.5l85 536h66l-85 -536q-11 -68 17.5 -106.5t93.5 -38.5q64 0 104 38.5t51 106.5l85 536h66l-85 -536q-9 -62 -40.5 -108t-80 -71
t-110.5 -25zM451 815q-29 0 -46 12.5t-29 29t-24 29t-29 12.5q-19 0 -32.5 -12t-16.5 -33l-5 -33h-50l5 33q7 43 35.5 67.5t69.5 24.5q29 0 46 -12.5t29 -29t23.5 -29t29.5 -12.5t30 12t15 33l6 33h50l-6 -33q-7 -43 -34 -67.5t-67 -24.5z" />
    <glyph glyph-name="uni1EEF" unicode="&#x1eef;" 
d="M88 196l56 354h66l-56 -354q-11 -69 18 -108t91 -39q63 0 104.5 39t53.5 108l55 354h58q18 0 31 12t17 32l11 66h54l-12 -68q-6 -40 -32 -64.5t-68 -24.5l-48 -307q-10 -63 -42 -109.5t-81 -71.5t-111 -25q-91 0 -135.5 55.5t-29.5 150.5zM432 650q-29 0 -46 12.5t-29 29
t-24 29t-29 12.5q-19 0 -32.5 -12t-16.5 -33l-5 -33h-50l5 33q7 43 35.5 67.5t69.5 24.5q29 0 46 -12.5t28.5 -29t23.5 -29t29 -12.5q18 0 30.5 12t15.5 33l6 33h50l-6 -33q-7 -43 -34 -67.5t-67 -24.5z" />
    <glyph glyph-name="uni1EF0" unicode="&#x1ef0;" 
d="M233 -208q-29 0 -43.5 15.5t-10.5 42.5t24 43t49 16t43.5 -16t9.5 -43q-4 -27 -23.5 -42.5t-48.5 -15.5zM504 683l8 47h71q19 0 31.5 12t16.5 32l10 66h54l-11 -68q-6 -40 -35.5 -64.5t-71.5 -24.5h-73zM255 -10q-94 0 -138 55.5t-29 148.5l85 536h66l-85 -536
q-11 -68 17.5 -106.5t93.5 -38.5q64 0 104 38.5t51 106.5l85 536h66l-85 -536q-9 -62 -40.5 -108t-80 -71t-110.5 -25z" />
    <glyph glyph-name="uni1EF1" unicode="&#x1ef1;" 
d="M88 196l56 354h66l-56 -354q-11 -69 18 -108t91 -39q63 0 104.5 39t53.5 108l55 354h58q18 0 31 12t17 32l11 66h54l-12 -68q-6 -40 -32 -64.5t-68 -24.5l-48 -307q-10 -63 -42 -109.5t-81 -71.5t-111 -25q-91 0 -135.5 55.5t-29.5 150.5zM222 -208q-29 0 -43.5 15.5
t-10.5 42.5t24 43t49 16t43.5 -16t9.5 -43q-4 -27 -23.5 -42.5t-48.5 -15.5z" />
    <glyph glyph-name="Ygrave" unicode="&#x1ef2;" 
d="M223 0l44 277l-151 453h66l106 -318q8 -23 13.5 -41.5t7.5 -27.5q6 8 16.5 27t25.5 42l207 318h70l-295 -453l-44 -277h-66zM362 810l-91 140h73l85 -140h-67z" />
    <glyph glyph-name="ygrave" unicode="&#x1ef3;" 
d="M92 -180l10 60h157q53 0 83.5 26t38.5 77l11 69l16 97h-22l32 39q-11 -68 -59 -108t-120 -40q-81 0 -122 52t-27 140l50 318h66l-49 -310q-11 -68 18.5 -106t89.5 -38q62 0 104.5 39.5t53.5 108.5l48 306h66l-90 -567q-12 -79 -63.5 -121t-134.5 -42h-157zM337 645
l-91 140h72l86 -140h-67z" />
    <glyph glyph-name="uni1EF4" unicode="&#x1ef4;" 
d="M223 0l44 277l-151 453h66l106 -318q8 -23 13.5 -41.5t7.5 -27.5q6 8 16.5 27t25.5 42l207 318h70l-295 -453l-44 -277h-66zM233 -208q-29 0 -43.5 15.5t-10.5 42.5t24 43t49 16t43.5 -16t9.5 -43q-4 -27 -23.5 -42.5t-48.5 -15.5z" />
    <glyph glyph-name="uni1EF5" unicode="&#x1ef5;" 
d="M92 -180l10 60h157q53 0 83.5 26t38.5 77l11 69l16 97h-22l32 39q-11 -68 -59 -108t-120 -40q-81 0 -122 52t-27 140l50 318h66l-49 -310q-11 -68 18.5 -106t89.5 -38q62 0 104.5 39.5t53.5 108.5l48 306h66l-90 -567q-12 -79 -63.5 -121t-134.5 -42h-157zM459 -248
q-29 0 -43.5 15.5t-10.5 42.5t24 43t49 16t43.5 -16t9.5 -43q-4 -27 -23.5 -42.5t-48.5 -15.5z" />
    <glyph glyph-name="uni1EF6" unicode="&#x1ef6;" 
d="M223 0l44 277l-151 453h66l106 -318q8 -23 13.5 -41.5t7.5 -27.5q6 8 16.5 27t25.5 42l207 318h70l-295 -453l-44 -277h-66zM346 800l65 71q8 10 14.5 19t7.5 15q4 25 -29 25h-84l8 47h94q37 0 56 -17.5t14 -47.5q-2 -13 -9 -27t-17 -26l-52 -59h-68z" />
    <glyph glyph-name="uni1EF7" unicode="&#x1ef7;" 
d="M92 -180l10 60h157q53 0 83.5 26t38.5 77l11 69l16 97h-22l32 39q-11 -68 -59 -108t-120 -40q-81 0 -122 52t-27 140l50 318h66l-49 -310q-11 -68 18.5 -106t89.5 -38q62 0 104.5 39.5t53.5 108.5l48 306h66l-90 -567q-12 -79 -63.5 -121t-134.5 -42h-157zM322 645l65 71
q8 10 14.5 19t7.5 15q4 25 -29 25h-84l8 47h94q37 0 56 -17.5t14 -47.5q-2 -13 -9 -27t-17 -26l-52 -59h-68z" />
    <glyph glyph-name="uni1EF8" unicode="&#x1ef8;" 
d="M223 0l44 277l-151 453h66l106 -318q8 -23 13.5 -41.5t7.5 -27.5q6 8 16.5 27t25.5 42l207 318h70l-295 -453l-44 -277h-66zM458 815q-29 0 -46 12.5t-29 29t-24 29t-29 12.5q-19 0 -32.5 -12t-16.5 -33l-5 -33h-50l5 33q7 43 35.5 67.5t69.5 24.5q29 0 46 -12.5t29 -29
t23.5 -29t29.5 -12.5t30 12t15 33l6 33h50l-6 -33q-7 -43 -34 -67.5t-67 -24.5z" />
    <glyph glyph-name="uni1EF9" unicode="&#x1ef9;" 
d="M92 -180l10 60h157q53 0 83.5 26t38.5 77l11 69l16 97h-22l32 39q-11 -68 -59 -108t-120 -40q-81 0 -122 52t-27 140l50 318h66l-49 -310q-11 -68 18.5 -106t89.5 -38q62 0 104.5 39.5t53.5 108.5l48 306h66l-90 -567q-12 -79 -63.5 -121t-134.5 -42h-157zM432 650
q-29 0 -46 12.5t-29 29t-24 29t-29 12.5q-19 0 -32.5 -12t-16.5 -33l-5 -33h-50l5 33q7 43 35.5 67.5t69.5 24.5q29 0 46 -12.5t28.5 -29t23.5 -29t29 -12.5q18 0 30.5 12t15.5 33l6 33h50l-6 -33q-7 -43 -34 -67.5t-67 -24.5z" />
    <glyph glyph-name="uni2010" unicode="&#x2010;" 
d="M144 301l9 59h320l-9 -59h-320z" />
    <glyph glyph-name="endash" unicode="&#x2013;" 
d="M84 302l10 59h440l-10 -59h-440z" />
    <glyph glyph-name="emdash" unicode="&#x2014;" 
d="M4 301l10 59h599l-9 -59h-600z" />
    <glyph glyph-name="quoteleft" unicode="&#x2018;" 
d="M592 775l-126 -311h-110l176 311h60z" />
    <glyph glyph-name="quoteright" unicode="&#x2019;" 
d="M204 465l126 311h110l-176 -311h-60z" />
    <glyph glyph-name="quotesinglbase" unicode="&#x201a;" 
d="M110 -160l126 311h110l-176 -311h-60z" />
    <glyph glyph-name="quotedblleft" unicode="&#x201c;" 
d="M347 465l176 311h56l-126 -311h-106zM120 465l176 311h56l-126 -311h-106z" />
    <glyph glyph-name="quotedblright" unicode="&#x201d;" 
d="M357 465l126 311h106l-176 -311h-56zM130 465l126 311h106l-176 -311h-56z" />
    <glyph glyph-name="quotedblbase" unicode="&#x201e;" 
d="M258 -160l126 311h106l-176 -311h-56zM31 -160l126 311h106l-176 -311h-56z" />
    <glyph glyph-name="dagger" unicode="&#x2020;" 
d="M206 -110l101 642h-181l10 59h181l37 239h66l-37 -239h181l-10 -59h-181l-101 -642h-66z" />
    <glyph glyph-name="daggerdbl" unicode="&#x2021;" 
d="M206 -110l41 262h-181l9 59h181l50 310h-181l9 59h181l39 250h66l-39 -250h181l-9 -59h-181l-50 -310h181l-9 -59h-181l-41 -262h-66z" />
    <glyph glyph-name="bullet" unicode="&#x2022;" 
d="M297 260q-46 0 -70.5 29t-17.5 76t41 76t80 29q48 0 72 -29t17 -76t-41 -76t-81 -29z" />
    <glyph glyph-name="onedotenleader" unicode="&#x2024;" 
d="M254 -10q-36 0 -53 21t-12 56q6 36 30.5 57t59.5 21q36 0 53 -21t11 -57q-5 -35 -29 -56t-60 -21z" />
    <glyph glyph-name="ellipsis" unicode="&#x2026;" 
d="M444 -10q-22 0 -33.5 15t-7.5 40l11 70q4 25 20.5 40t38.5 15q23 0 34 -15t7 -40l-11 -70q-4 -25 -20 -40t-39 -15zM64 -10q-22 0 -33.5 15t-7.5 40l11 70q4 25 20.5 40t38.5 15q23 0 34 -15t7 -40l-11 -70q-4 -25 -20 -40t-39 -15zM254 -10q-22 0 -33.5 15t-7.5 40
l11 70q4 25 20.5 40t38.5 15q23 0 34 -15t7 -40l-11 -70q-4 -25 -20 -40t-39 -15z" />
    <glyph glyph-name="perthousand" unicode="&#x2030;" 
d="M-47 0l524 730h53l-524 -730h-53zM286 40q26 0 44.5 18t22.5 47l14 90q5 29 -7.5 47t-38.5 18q-25 0 -43 -18t-23 -47l-14 -90q-4 -29 8 -47t37 -18zM274 -5q-49 0 -69.5 29t-12.5 81l14 90q8 52 38 81t79 29q43 0 59.5 -21.5t14.5 -42.5q6 21 29.5 42.5t65.5 21.5
q49 0 70 -29t13 -81l-14 -90q-8 -52 -38.5 -81t-79.5 -29q-42 0 -58.5 21.5t-15.5 42.5q-5 -21 -28.5 -42.5t-66.5 -21.5zM446 40q25 0 43.5 18t22.5 47l14 90q5 30 -7.5 47.5t-37.5 17.5q-26 0 -44 -18t-23 -47l-14 -90q-4 -29 8.5 -47t37.5 -18zM154 440q-54 0 -80 31.5
t-18 83.5l10 65q8 52 44 83.5t90 31.5q55 0 81.5 -31.5t18.5 -83.5l-10 -65q-8 -52 -44.5 -83.5t-91.5 -31.5zM162 486q32 0 53 18.5t25 50.5l10 65q5 32 -10 50.5t-47 18.5q-31 0 -51.5 -18t-25.5 -51l-10 -65q-5 -32 9 -50.5t47 -18.5z" />
    </font>
</defs>
</svg>
