<?xml version="1.0" standalone="no"?>
<!DOCTYPE svg PUBLIC "-//W3C//DTD SVG 1.1//EN" "http://www.w3.org/Graphics/SVG/1.1/DTD/svg11.dtd" >
<svg xmlns="http://www.w3.org/2000/svg" xmlns:xlink="http://www.w3.org/1999/xlink" version="1.1">
<metadata>
Created by FontForge 20201107 at Wed Nov 18 16:24:02 2020
 By 
Copyright 2020 The JetBrains Mono Project Authors (https://github.com/JetBrains/JetBrainsMono)
</metadata>
<defs>
<font id="JetBrainsMono-MediumItalic" horiz-adv-x="600" >
  <font-face 
    font-family="JetBrains Mono Medium"
    font-weight="500"
    font-style="italic"
    font-stretch="normal"
    units-per-em="1000"
    panose-1="2 0 0 9 0 0 0 0 0 0"
    ascent="800"
    descent="-200"
    x-height="550"
    cap-height="730"
    bbox="-1747 -300 1170 1020"
    underline-thickness="50"
    underline-position="-180"
    slope="-9"
    unicode-range="U+000D-FEFF"
  />
<missing-glyph 
d="M90 0v730h420v-730h-420zM160 50h300v571zM140 109l300 571h-300v-571z" />
    <glyph glyph-name=".notdef" 
d="M90 0v730h420v-730h-420zM160 50h300v571zM140 109l300 571h-300v-571z" />
    <glyph glyph-name=".null" horiz-adv-x="0" 
 />
    <glyph glyph-name="nonmarkingreturn" horiz-adv-x="333" 
 />
    <glyph glyph-name="CR" unicode="&#xd;" 
 />
    <glyph glyph-name="space" unicode=" " 
 />
    <glyph glyph-name="exclam" unicode="!" 
d="M252 224l39 377l20 129h122l-21 -129l-81 -377h-79zM240 -5q-28 0 -43 17.5t-11 45.5t25 45.5t49 17.5h30q30 0 44.5 -17.5t10.5 -44.5q-5 -28 -26 -46t-49 -18h-30z" />
    <glyph glyph-name="quotedbl" unicode="&#x22;" 
d="M386 430l17 189l19 111h112l-18 -111l-42 -189h-88zM175 430l17 189l18 111h112l-18 -111l-41 -189h-88z" />
    <glyph glyph-name="numbersign" unicode="#" 
d="M34 0l66 191h-83l12 75h96l66 198h-97l12 75h111l65 191h82l-65 -191h147l65 191h83l-66 -191h83l-12 -75h-96l-66 -198h97l-12 -75h-111l-65 -191h-82l65 191h-147l-65 -191h-83zM207 266h147l67 198h-147z" />
    <glyph glyph-name="dollar" unicode="$" 
d="M206 -140l21 131q-96 8 -142 61.5t-34 140.5h108q-6 -43 15.5 -70.5t66.5 -34.5l38 236l-21 6q-77 23 -112 78.5t-23 132.5q13 83 73 136t149 61l21 132h61l-21 -131q87 -8 130.5 -60.5t30.5 -136.5h-108q7 41 -11 67.5t-57 33.5l-36 -225l35 -11q76 -22 110.5 -78
t21.5 -134q-8 -57 -40.5 -100.5t-82 -70.5t-111.5 -33l-21 -131h-61zM303 87q45 7 75 34t36 70q7 44 -15.5 75t-70.5 39l13 21zM289 388l40 255q-40 -7 -65 -31.5t-31 -63.5q-8 -48 18.5 -80.5t82.5 -38.5z" />
    <glyph glyph-name="percent" unicode="%" 
d="M-39 0l621 730h85l-621 -730h-85zM399 -5q-64 0 -97 36.5t-24 98.5l10 65q10 62 55 98.5t109 36.5q63 0 96.5 -36.5t24.5 -98.5l-10 -65q-6 -41 -29 -71.5t-58 -47t-77 -16.5zM410 68q62 0 71 62l10 65q5 32 -8 47.5t-43 15.5q-61 0 -70 -63l-10 -65q-10 -62 50 -62z
M175 400q-63 0 -96.5 36t-23.5 99l10 65q7 42 29.5 72.5t57 46.5t76.5 16q63 0 97.5 -36t24.5 -99l-10 -65q-6 -42 -29.5 -72t-58.5 -46.5t-77 -16.5zM187 472q62 0 71 63l10 65q10 63 -50 63q-30 0 -48 -15.5t-23 -47.5l-10 -65q-5 -32 7.5 -47.5t42.5 -15.5z" />
    <glyph glyph-name="ampersand" unicode="&#x26;" 
d="M185 -10q-86 0 -126.5 47t-26.5 130l16 109q9 60 46.5 99.5t95.5 52.5l-11 -9q-25 42 -34 80.5t-3 76.5q8 49 37 86t74 57.5t101 20.5q59 0 99 -22t58 -61t9 -94h-104q5 27 -3 46.5t-26.5 29.5t-46.5 10q-25 0 -45.5 -9.5t-34 -27t-17.5 -42.5q-4 -24 3.5 -53t22.5 -57
l121 -216l81 116h108l-142 -201l89 -159h-112l-43 76q-85 -86 -186 -86zM208 82q31 0 63 19t57 53l-111 197q-26 -6 -42.5 -25.5t-21.5 -49.5l-17 -109q-7 -40 12.5 -62.5t59.5 -22.5z" />
    <glyph glyph-name="quotesingle" unicode="'" 
d="M277 430l10 147l25 153h112l-24 -153l-35 -147h-88z" />
    <glyph glyph-name="parenleft" unicode="(" 
d="M421 -125q-141 37 -206 139.5t-41 250.5l30 190q16 97 65.5 176t127.5 134.5t178 79.5l-17 -104q-64 -15 -115.5 -54.5t-85 -98.5t-45.5 -133l-30 -190q-11 -72 4 -131t54 -97.5t98 -53.5z" />
    <glyph glyph-name="parenright" unicode=")" 
d="M51 -125l17 108q65 15 116 53.5t85 97.5t45 131l30 190q12 74 -3 133t-54 98.5t-99 54.5l17 104q92 -24 152.5 -79.5t85.5 -134.5t9 -176l-30 -190q-16 -98 -65 -177t-126 -133.5t-180 -79.5z" />
    <glyph glyph-name="asterisk" unicode="*" 
d="M156 90l-72 58l57 68q17 20 40.5 40t47 37.5t40.5 29.5l-2 6q-19 1 -45.5 3.5t-52.5 7.5t-47 13l-73 28l49 95l73 -28q21 -8 43 -22t42 -29.5t34 -28.5l5 4q-2 20 -5 46.5t-3.5 55t3.5 53.5l13 83h101l-14 -83q-4 -25 -14 -53.5t-21 -55t-21 -46.5l4 -4q19 13 43 28.5
t50.5 29.5t50.5 22l82 28l20 -95l-83 -28q-23 -8 -50.5 -13t-54 -7.5t-47.5 -3.5l-4 -7q14 -12 31.5 -29.5t34.5 -37t27 -39.5l38 -68l-92 -58l-37 69q-10 19 -18.5 45t-13.5 51.5t-8 44.5h-7q-8 -19 -22 -44.5t-30 -51.5t-34 -45z" />
    <glyph glyph-name="plus" unicode="+" 
d="M217 94l30 187h-184l15 98h185l29 187h107l-30 -187h185l-16 -98h-184l-30 -187h-107z" />
    <glyph glyph-name="comma" unicode="," 
d="M87 -160l129 311h148l-179 -311h-98z" />
    <glyph glyph-name="hyphen" unicode="-" 
d="M136 281l16 98h329l-16 -98h-329z" />
    <glyph glyph-name="period" unicode="." 
d="M254 -10q-40 0 -60.5 23.5t-13.5 63.5q6 41 34 65.5t68 24.5q41 0 61 -24.5t13 -65.5q-6 -40 -33.5 -63.5t-68.5 -23.5z" />
    <glyph glyph-name="slash" unicode="/" 
d="M7 -110l497 940h115l-497 -940h-115z" />
    <glyph glyph-name="zero" unicode="0" 
d="M254 -10q-69 0 -115.5 27t-66.5 75.5t-10 113.5l51 318q11 66 45.5 114t90 75t124.5 27q70 0 116.5 -27t66.5 -75t9 -114l-51 -318q-10 -65 -45.5 -113.5t-90.5 -75.5t-124 -27zM269 83q57 0 95 34t47 89l51 318q9 55 -19 89t-84 34q-57 0 -95.5 -34t-47.5 -89l-51 -318
q-9 -55 20 -89t84 -34zM314 303q-29 0 -46.5 18t-17.5 47q0 28 17.5 45.5t46.5 17.5q28 0 45 -17.5t17 -45.5q0 -29 -17 -47t-45 -18z" />
    <glyph glyph-name="one" unicode="1" 
d="M43 0l15 96h194l86 540l-218 -145l19 117l186 122h136l-101 -634h157l-15 -96h-459z" />
    <glyph glyph-name="two" unicode="2" 
d="M41 0l18 107l262 233q61 54 92 97.5t38 86.5q9 56 -16.5 88t-78.5 32q-58 0 -96.5 -33.5t-48.5 -91.5h-107q12 68 49 117.5t93 76.5t126 27q67 0 112.5 -26t65.5 -73t10 -111q-10 -66 -54 -130t-131 -138l-191 -164h318l-15 -98h-446z" />
    <glyph glyph-name="three" unicode="3" 
d="M245 -10q-69 0 -115.5 26t-66.5 73.5t-10 110.5h108q-10 -55 17 -86t83 -31q57 0 93.5 32t44.5 85l8 54q9 56 -17 86.5t-83 30.5h-78l16 102l193 162h-285l15 95h398l-17 -102l-231 -192l5 29q104 0 155.5 -57t36.5 -153l-8 -55q-9 -63 -45 -110.5t-92 -73.5t-125 -26z
" />
    <glyph glyph-name="four" unicode="4" 
d="M356 0l23 152h-327l26 162l351 416h121l-371 -443l-6 -38h222l28 171h107l-67 -420h-107z" />
    <glyph glyph-name="five" unicode="5" 
d="M252 -10q-95 0 -146 48.5t-46 130.5h108q-2 -40 24 -62t76 -22q58 0 92 30.5t43 85.5l11 71q9 56 -15 86.5t-81 30.5q-36 0 -65 -16.5t-45 -45.5h-107l69 403h398l-16 -98h-294l-39 -227h28l-33 -26q8 47 49 74t103 27q89 0 130 -54.5t26 -153.5l-12 -71
q-16 -97 -84 -154t-174 -57z" />
    <glyph glyph-name="six" unicode="6" 
d="M255 -10q-72 0 -121 30t-70.5 84.5t-9.5 125.5q8 54 33.5 108.5t63.5 104.5l224 287h120l-263 -336l4 -3q25 29 59.5 44.5t76.5 15.5q59 0 98.5 -28t55.5 -78.5t5 -119.5q-11 -70 -49.5 -123t-96.5 -82.5t-130 -29.5zM269 83q60 0 102.5 39t52.5 103t-20.5 103t-89.5 39
q-60 0 -102 -39t-52 -103t20 -103t89 -39z" />
    <glyph glyph-name="seven" unicode="7" 
d="M126 0l360 631h-253l-16 -107h-108l33 206h469l-16 -104l-351 -626h-118z" />
    <glyph glyph-name="eight" unicode="8" 
d="M254 -10q-105 0 -158 53.5t-39 142.5q11 66 54.5 113t124.5 82l112 49q43 19 70.5 50.5t32.5 69.5q8 45 -17 71t-75 26q-51 0 -84.5 -26.5t-40.5 -71.5q-6 -37 11 -68.5t53 -49.5l97 -48q73 -37 101.5 -84.5t17.5 -112.5q-9 -60 -44.5 -104t-90.5 -68t-125 -24zM269 84
q56 0 94 29.5t45 77.5q7 39 -10 72.5t-53 52.5l-100 51q-69 35 -97.5 80t-18.5 108q9 55 41.5 97t84.5 65.5t118 23.5t110.5 -23.5t64 -65.5t10.5 -97q-10 -64 -52.5 -108t-123.5 -81l-117 -51q-41 -18 -67.5 -51t-33.5 -71q-8 -49 20.5 -79t84.5 -30z" />
    <glyph glyph-name="nine" unicode="9" 
d="M133 0l266 336l-5 3q-24 -29 -60 -44.5t-78 -15.5q-58 0 -98 28t-56 79t-5 119q11 71 49 123.5t96.5 82t129.5 29.5q72 0 121.5 -30t70.5 -84t10 -126q-8 -53 -33.5 -108t-64.5 -105l-223 -287h-120zM313 363q60 0 102.5 39t52.5 103t-20 103t-89 39q-60 0 -102.5 -39
t-52.5 -103t20 -103t89 -39z" />
    <glyph glyph-name="colon" unicode=":" 
d="M319 401q-39 0 -59.5 22t-15.5 58q6 36 34 57.5t67 21.5q40 0 60.5 -21.5t14.5 -57.5q-5 -36 -32.5 -58t-68.5 -22zM254 -10q-39 0 -60 22t-15 57q5 37 33 58.5t67 21.5q41 0 61 -21.5t15 -58.5q-6 -35 -33.5 -57t-67.5 -22z" />
    <glyph glyph-name="semicolon" unicode=";" 
d="M94 -160l129 311h144l-179 -311h-94zM310 401q-35 0 -54 22.5t-13 57.5q5 34 31.5 56.5t60.5 22.5h20q34 0 53 -22.5t14 -56.5q-6 -35 -32 -57.5t-60 -22.5h-20z" />
    <glyph glyph-name="less" unicode="&#x3c;" 
d="M485 60l-405 213l17 113l473 213l-16 -107l-322 -143q-21 -9 -40 -15t-29 -8q10 -2 27.5 -8.5t34.5 -15.5l277 -143z" />
    <glyph glyph-name="equal" unicode="=" 
d="M103 403l16 97h433l-16 -97h-433zM65 160l16 97h433l-16 -97h-433z" />
    <glyph glyph-name="greater" unicode="&#x3e;" 
d="M46 60l16 106l322 143q21 9 40 15t29 8q-9 2 -26.5 8.5t-34.5 15.5l-277 143l16 100l406 -213l-18 -113z" />
    <glyph glyph-name="question" unicode="?" 
d="M191 211l29 190h65q57 0 95.5 31t47.5 83q7 52 -21.5 83t-86.5 31h-137l17 101h133q108 0 162.5 -58.5t39.5 -156.5q-9 -59 -41 -105t-80 -72.5t-107 -28.5l-15 -98h-101zM192 -5q-29 0 -43.5 17.5t-10.5 45.5t24.5 45.5t49.5 17.5h30q30 0 44.5 -17.5t9.5 -44.5
q-4 -28 -25 -46t-50 -18h-29z" />
    <glyph glyph-name="at" unicode="@" 
d="M252 -180q-87 0 -146 35.5t-83.5 101t-10.5 153.5l54 340q15 90 58.5 155t110.5 100t153 35q78 0 129.5 -30t73 -85t9.5 -129l-68 -431h-83l12 55h-29l21 23q-7 -39 -40 -63.5t-81 -24.5q-64 0 -92.5 40.5t-15.5 117.5l18 117q12 77 53 117.5t105 40.5q49 0 74 -24.5
t19 -64.5l-10 21h27l-2 69v7q8 51 -4.5 87.5t-44.5 56.5t-83 20q-88 0 -145 -55t-73 -155l-54 -340q-15 -96 28 -150t134 -54h70l-14 -86h-70zM376 125q38 0 59.5 22.5t29.5 72.5l17 111q7 44 -7.5 65.5t-52.5 21.5q-36 0 -58.5 -22t-29.5 -66l-18 -117q-7 -46 8 -67t52 -21
z" />
    <glyph glyph-name="A" unicode="A" 
d="M-1 0l302 730h142l70 -730h-106l-14 185h-207l-74 -185h-113zM220 274h166l-17 211q-4 56 -6.5 97.5t-2.5 56.5q-5 -15 -19.5 -56.5t-36.5 -96.5z" />
    <glyph glyph-name="B" unicode="B" 
d="M41 0l116 730h215q104 0 155 -50t37 -138q-7 -50 -34.5 -86.5t-69 -56.5t-92.5 -20l1 10q56 1 94.5 -20.5t56 -63.5t7.5 -100q-10 -62 -44.5 -108.5t-89 -71.5t-123.5 -25h-229zM161 93h114q59 0 98 31t48 86q8 56 -20.5 90t-86.5 34h-115zM213 424h109q54 0 89.5 29
t43.5 78t-18.5 77.5t-79.5 28.5h-110z" />
    <glyph glyph-name="C" unicode="C" 
d="M258 -10q-68 0 -114.5 25.5t-66 74t-9.5 113.5l51 324q11 66 46 114t89.5 73.5t122.5 25.5t113.5 -26t66 -73.5t9.5 -113.5h-108q10 57 -15.5 87t-80.5 30t-90.5 -30t-44.5 -86l-51 -325q-9 -56 17 -86.5t80 -30.5q55 0 90 30.5t44 86.5h108q-10 -65 -45 -113t-89.5 -74
t-122.5 -26z" />
    <glyph glyph-name="D" unicode="D" 
d="M39 0l116 730h204q72 0 121 -27.5t70 -77.5t10 -118l-44 -283q-11 -67 -48.5 -118t-95 -78.5t-129.5 -27.5h-204zM163 98h95q60 0 100.5 33.5t49.5 92.5l44 283q10 58 -19.5 91.5t-89.5 33.5h-96z" />
    <glyph glyph-name="E" unicode="E" 
d="M50 0l116 730h429l-15 -96h-323l-33 -207h288l-16 -95h-287l-38 -236h323l-15 -96h-429z" />
    <glyph glyph-name="F" unicode="F" 
d="M44 0l116 731h441l-16 -100h-336l-34 -218h310l-16 -100h-308l-50 -313h-107z" />
    <glyph glyph-name="G" unicode="G" 
d="M258 -10q-68 0 -114.5 25.5t-66 74t-9.5 113.5l51 324q11 66 46 114t89.5 73.5t122.5 25.5t113.5 -26t66 -73.5t9.5 -113.5h-108q10 57 -15.5 87t-80.5 30t-90.5 -30t-44.5 -86l-51 -325q-9 -56 17 -87t80 -31q55 0 90 31t44 87l13 82h-136l15 95h244l-28 -177
q-10 -65 -45 -113t-89.5 -74t-122.5 -26z" />
    <glyph glyph-name="H" unicode="H" 
d="M41 0l116 730h108l-49 -302h215l48 302h108l-116 -730h-108l52 328h-214l-52 -328h-108z" />
    <glyph glyph-name="I" unicode="I" 
d="M54 0l15 96h148l85 538h-148l16 96h404l-15 -96h-148l-85 -538h148l-16 -96h-404z" />
    <glyph glyph-name="J" unicode="J" 
d="M224 -10q-108 0 -160.5 60t-36.5 163h108q-9 -61 18.5 -94.5t85.5 -33.5q59 0 97.5 33.5t47.5 93.5l67 419h-172l16 99h279l-82 -518q-10 -68 -46.5 -118t-93 -77t-128.5 -27z" />
    <glyph glyph-name="K" unicode="K" 
d="M40 0l116 730h108l-49 -304h95l199 304h119l-230 -355l122 -375h-117l-104 329h-99l-52 -329h-108z" />
    <glyph glyph-name="L" unicode="L" 
d="M65 0l116 730h108l-100 -631h319l-16 -99h-427z" />
    <glyph glyph-name="M" unicode="M" 
d="M22 0l116 730h131l35 -234q5 -33 9 -63.5t5 -45.5q6 15 17.5 45.5t27.5 63.5l108 234h135l-116 -730h-102l39 246q8 49 19.5 106.5t25.5 115.5t27.5 111t23.5 93l-163 -355h-105l-54 355q-1 -39 -4 -90.5t-8 -109.5t-11 -116.5t-15 -109.5l-39 -246h-102z" />
    <glyph glyph-name="N" unicode="N" 
d="M37 0l116 730h135l118 -607q2 29 5.5 69t8.5 83t11 78l60 377h100l-116 -730h-135l-117 607q-2 -26 -5.5 -65t-8.5 -81t-11 -78l-61 -383h-100z" />
    <glyph glyph-name="O" unicode="O" 
d="M254 -10q-67 0 -112.5 25.5t-64.5 74t-9 113.5l51 324q11 66 45 114t88 73.5t121 25.5q68 0 113.5 -25.5t65 -73.5t8.5 -113l-51 -325q-10 -65 -45 -113.5t-88.5 -74t-121.5 -25.5zM269 86q55 0 89 30.5t43 86.5l51 324q9 57 -15 87t-79 30t-88.5 -30t-42.5 -87l-51 -324
q-9 -56 15 -86.5t78 -30.5z" />
    <glyph glyph-name="P" unicode="P" 
d="M40 0l116 730h239q71 0 119 -27t68.5 -76.5t10.5 -116.5q-10 -66 -47 -116t-93.5 -77t-126.5 -27h-132l-46 -290h-108zM209 387h132q55 0 94 33.5t48 89.5q9 57 -19.5 90t-83.5 33h-132z" />
    <glyph glyph-name="Q" unicode="Q" 
d="M346 -180l-79 179l15 -7q-6 0 -13.5 -1t-14.5 -1q-68 0 -115 27t-67 75.5t-10 113.5l51 318q11 66 46 114t90.5 75t123.5 27q69 0 115.5 -27t67 -75t9.5 -114l-51 -318q-12 -75 -57 -128.5t-114 -73.5l9 54l107 -238h-113zM269 85q56 0 92 33t45 88l51 318
q9 56 -17.5 88.5t-80.5 32.5q-55 0 -92 -32.5t-46 -88.5l-51 -318q-9 -55 17.5 -88t81.5 -33z" />
    <glyph glyph-name="R" unicode="R" 
d="M40 0l116 730h229q69 0 115.5 -26.5t67.5 -74.5t10 -113q-8 -54 -36 -98t-70.5 -73t-95.5 -39l13 54l118 -360h-118l-91 300h-103l-47 -300h-108zM210 395h121q54 0 91.5 32.5t45.5 86.5q9 56 -18 88t-81 32h-121z" />
    <glyph glyph-name="S" unicode="S" 
d="M257 -10q-110 0 -165 54.5t-41 148.5h108q-8 -50 22 -78.5t92 -28.5q58 0 95.5 28t45.5 77q7 43 -11 73.5t-56 42.5l-87 26q-76 23 -112 78t-25 130q10 60 44 105t88 70t122 25q100 0 152 -54t38 -145h-108q8 48 -17.5 75.5t-80.5 27.5q-54 0 -87.5 -25.5t-40.5 -71.5
q-7 -42 10 -73t55 -43l90 -28q75 -23 110.5 -78t23.5 -131q-9 -62 -45.5 -108t-93 -71.5t-126.5 -25.5z" />
    <glyph glyph-name="T" unicode="T" 
d="M202 0l100 631h-195l16 100h498l-16 -100h-195l-100 -631h-108z" />
    <glyph glyph-name="U" unicode="U" 
d="M254 -10q-105 0 -152.5 57.5t-31.5 156.5l83 526h108l-83 -526q-10 -55 13 -87t78 -32t88.5 32t42.5 87l83 526h108l-83 -526q-11 -66 -44.5 -114.5t-86.5 -74t-123 -25.5z" />
    <glyph glyph-name="V" unicode="V" 
d="M184 0l-69 730h109l40 -486q4 -43 6 -85.5t2 -66.5q7 24 21.5 66.5t32.5 86.5l192 485h111l-302 -730h-143z" />
    <glyph glyph-name="W" unicode="W" 
d="M56 0l37 730h94l-34 -524q-1 -20 -3 -44t-4.5 -47t-4.5 -40q4 17 9.5 40t12 47t12.5 44l147 524h102l-25 -524q-1 -20 -2 -44t-2 -47t-2 -40q4 17 8.5 40t10.5 47l11 44l134 524h94l-198 -730h-125l25 531q1 21 2.5 44.5t3 46t3.5 37.5q-4 -15 -9.5 -37.5t-11.5 -46
t-12 -44.5l-147 -531h-126z" />
    <glyph glyph-name="X" unicode="X" 
d="M-10 0l264 375l-136 355h118l70 -199q6 -19 13 -38t10 -29q6 10 16.5 29t23.5 38l136 199h121l-249 -356l145 -374h-117l-80 216q-7 19 -13.5 38.5t-8.5 30.5q-6 -11 -18 -30l-24 -38l-148 -217h-123z" />
    <glyph glyph-name="Y" unicode="Y" 
d="M202 0l42 269l-143 461h110l85 -276q8 -27 12.5 -50.5t5.5 -36.5q5 13 16 36.5t28 50.5l171 276h114l-291 -461l-42 -269h-108z" />
    <glyph glyph-name="Z" unicode="Z" 
d="M38 0l17 105l390 526h-301l16 99h420l-18 -105l-390 -526h318l-16 -99h-436z" />
    <glyph glyph-name="bracketleft" unicode="[" 
d="M134 -110l148 940h262l-15 -98h-155l-118 -744h155l-15 -98h-262z" />
    <glyph glyph-name="backslash" unicode="\" 
d="M363 -110l-209 940h108l209 -940h-108z" />
    <glyph glyph-name="bracketright" unicode="]" 
d="M82 -110l15 98h155l118 744h-155l15 98h262l-148 -940h-262z" />
    <glyph glyph-name="asciicircum" unicode="^" 
d="M84 340l238 390h102l112 -390h-96l-63 244q-5 21 -8.5 39.5t-5.5 28.5q-4 -10 -13 -28.5t-21 -39.5l-143 -244h-102z" />
    <glyph glyph-name="underscore" unicode="_" 
d="M-3 -119l15 94h480l-15 -94h-480z" />
    <glyph glyph-name="grave" unicode="`" 
d="M349 645l-94 140h114l86 -140h-106z" />
    <glyph glyph-name="a" unicode="a" 
d="M215 -10q-82 0 -122.5 56t-24.5 151l24 155q10 65 40 111t74.5 71.5t99.5 25.5q68 0 102.5 -37.5t23.5 -102.5l-19 25h24l15 105h107l-87 -550h-106l17 105h-23l27 25q-11 -65 -57.5 -102.5t-114.5 -37.5zM268 84q51 0 85.5 31.5t43.5 87.5l22 144q10 56 -14.5 87.5
t-76.5 31.5q-53 0 -86 -30.5t-43 -88.5l-22 -144q-10 -58 14 -88.5t77 -30.5z" />
    <glyph glyph-name="b" unicode="b" 
d="M293 -10q-68 0 -102 37.5t-24 102.5l20 -25h-23l-17 -105h-107l116 730h108l-25 -157l-24 -128h25l-27 -25q10 65 57 102.5t114 37.5q83 0 123 -56t25 -152l-24 -155q-10 -64 -40 -110t-74.5 -71.5t-100.5 -25.5zM272 84q52 0 86 30.5t43 88.5l22 144q10 58 -14.5 88.5
t-76.5 30.5q-51 0 -85 -31.5t-44 -87.5l-23 -144q-9 -56 16 -87.5t76 -31.5z" />
    <glyph glyph-name="c" unicode="c" 
d="M258 -10q-68 0 -114.5 25.5t-66 74t-9.5 113.5l22 144q11 66 46 114t90 73.5t123 25.5q99 0 150.5 -52t40.5 -142h-107q4 47 -22 73t-78 26q-55 0 -90 -30.5t-44 -86.5l-23 -145q-9 -56 16.5 -87t80.5 -31q52 0 86 26t45 73h108q-18 -90 -86.5 -142t-167.5 -52z" />
    <glyph glyph-name="d" unicode="d" 
d="M215 -10q-82 0 -122 56t-25 151l24 155q10 65 40 111t74.5 71.5t99.5 25.5q68 0 102.5 -37.5t23.5 -102.5l-19 25h24l18 128l26 157h107l-116 -730h-106l17 105h-23l27 25q-11 -65 -57.5 -102.5t-114.5 -37.5zM268 84q51 0 85.5 31.5t43.5 87.5l22 144q10 56 -14.5 87.5
t-76.5 31.5q-53 0 -86 -30.5t-43 -88.5l-22 -144q-10 -58 14 -88.5t77 -30.5z" />
    <glyph glyph-name="e" unicode="e" 
d="M254 -10q-67 0 -112 26.5t-64.5 74.5t-9.5 112l22 144q11 65 46 112.5t88.5 74t120.5 26.5q68 0 113 -26.5t64.5 -74t8.5 -112.5l-15 -98h-337l-7 -46q-9 -61 15 -93t82 -32q47 0 77.5 16.5t42.5 48.5h107q-15 -47 -49.5 -81t-84 -53t-108.5 -19zM422 314l5 34
q10 60 -13.5 93t-81.5 33t-92.5 -33t-44.5 -94l-4 -25l240 1z" />
    <glyph glyph-name="f" unicode="f" 
d="M-51 -180l15 93h108q42 0 65.5 20t29.5 59l64 402h-156l15 98h156l12 75q8 50 35.5 86.5t70.5 56.5t98 20h170l-15 -96h-170q-35 0 -55.5 -17t-25.5 -51l-12 -74h218l-16 -98h-218l-63 -404q-12 -79 -70 -124.5t-147 -45.5h-109z" />
    <glyph glyph-name="g" unicode="g" 
d="M85 -180l14 93h169q42 0 66 20t30 59l9 55l18 102h-23l26 20q-11 -63 -56 -99t-112 -36q-85 0 -125.5 56t-25.5 151l18 112q10 64 39.5 110t75 71.5t101.5 25.5q67 0 101 -36.5t24 -99.5l-20 21h23l15 105h107l-88 -560q-13 -79 -70.5 -124.5t-146.5 -45.5h-169zM275 127
q52 0 86 31.5t44 87.5l15 101q10 56 -15 87.5t-76 31.5q-53 0 -86.5 -30.5t-42.5 -88.5l-16 -101q-9 -57 15 -88t76 -31z" />
    <glyph glyph-name="h" unicode="h" 
d="M40 0l116 730h108l-29 -180l-18 -105h26l-30 -25q11 66 56 103t114 37q82 0 122.5 -52.5t26.5 -141.5l-58 -366h-108l56 354q8 54 -15.5 84t-74.5 30t-85 -31.5t-44 -89.5l-55 -347h-108z" />
    <glyph glyph-name="i" unicode="i" 
d="M33 0l16 98h193l56 354h-168l15 98h273l-71 -452h178l-16 -98h-476zM374 645q-35 0 -52.5 18.5t-13.5 49.5q6 32 29.5 50.5t58.5 18.5t53 -18.5t13 -50.5q-5 -31 -28.5 -49.5t-59.5 -18.5z" />
    <glyph glyph-name="j" unicode="j" 
d="M11 -180l16 100h138q56 0 91.5 30t44.5 85l65 416h-225l16 99h333l-82 -516q-10 -66 -45 -114t-89 -74t-122 -26h-141zM446 645q-35 0 -52.5 18.5t-13.5 49.5q6 32 29.5 50.5t58.5 18.5t53 -18.5t13 -50.5q-5 -31 -28.5 -49.5t-59.5 -18.5z" />
    <glyph glyph-name="k" unicode="k" 
d="M43 0l116 730h108l-64 -401h87l182 221h124l-217 -268l133 -282h-121l-110 236h-92l-38 -236h-108z" />
    <glyph glyph-name="l" unicode="l" 
d="M328 0q-77 0 -116 46t-27 121l73 465h-166l16 98h274l-89 -563q-5 -32 10 -50.5t45 -18.5h178l-16 -98h-182z" />
    <glyph glyph-name="m" unicode="m" 
d="M15 0l87 550h90l-10 -70h19l-19 -21q8 46 37.5 73.5t71.5 27.5q45 0 64 -35t9 -96l-16 51h38l-20 -21q8 46 38 73.5t73 27.5q51 0 74 -38.5t13 -102.5l-67 -419h-96l65 416q5 31 -5 48t-35 17t-41.5 -16.5t-21.5 -47.5l-66 -417h-81l65 416q6 32 -5.5 48.5t-36.5 16.5
t-40.5 -16.5t-20.5 -47.5l-66 -417h-97z" />
    <glyph glyph-name="n" unicode="n" 
d="M40 0l87 550h107l-17 -105h26l-30 -25q11 66 56 103t114 37q82 0 122.5 -52.5t26.5 -141.5l-58 -366h-108l56 354q8 54 -15.5 84t-74.5 30t-85 -31.5t-44 -89.5l-55 -347h-108z" />
    <glyph glyph-name="o" unicode="o" 
d="M254 -10q-67 0 -112.5 25.5t-64.5 74t-9 113.5l22 144q11 66 45.5 114t88.5 73.5t121 25.5q68 0 113 -25.5t64.5 -73.5t9.5 -113l-23 -145q-10 -65 -45 -113.5t-88.5 -74t-121.5 -25.5zM269 85q55 0 89 30t43 88l22 144q10 58 -14.5 88t-78.5 30t-88 -30t-44 -88
l-22 -144q-9 -58 15.5 -88t77.5 -30z" />
    <glyph glyph-name="p" unicode="p" 
d="M11 -180l116 730h107l-17 -105h23l-27 -25q10 65 57 102.5t115 37.5q83 0 122.5 -55.5t24.5 -151.5l-24 -155q-10 -64 -39.5 -110.5t-74 -72t-100.5 -25.5q-67 0 -102 37.5t-25 102.5l20 -25h-25l-17 -128l-26 -157h-108zM272 84q53 0 86.5 30.5t42.5 88.5l22 144
q10 58 -14 88.5t-76 30.5q-51 0 -85.5 -31.5t-44.5 -87.5l-23 -144q-9 -56 16.5 -87.5t75.5 -31.5z" />
    <glyph glyph-name="q" unicode="q" 
d="M335 -180l25 157l24 128h-25l26 25q-10 -65 -56 -102.5t-114 -37.5q-83 0 -123 56t-25 152l24 155q10 64 40 110.5t75 71.5t100 25q68 0 101.5 -37.5t23.5 -102.5l-19 25h23l17 105h107l-116 -730h-108zM267 84q52 0 86 31.5t43 87.5l23 144q9 56 -15.5 87.5t-76.5 31.5
t-85.5 -30.5t-43.5 -88.5l-22 -144q-9 -58 15 -88.5t76 -30.5z" />
    <glyph glyph-name="r" unicode="r" 
d="M58 0l87 550h104l-17 -105h26l-43 -65q14 89 60.5 134.5t123.5 45.5q88 0 130.5 -54.5t27.5 -149.5l-6 -37h-111l5 28q9 59 -15 90.5t-77 31.5t-87.5 -32t-44.5 -90l-55 -347h-108z" />
    <glyph glyph-name="s" unicode="s" 
d="M232 -10q-90 0 -137.5 41.5t-41.5 110.5h108q0 -27 22 -44t63 -17h43q50 0 77.5 20.5t33.5 53.5q4 32 -14.5 51.5t-61.5 25.5l-69 11q-85 13 -121.5 49t-25.5 108q11 76 67.5 118t154.5 42h38q85 0 130.5 -40t41.5 -106h-108q0 24 -20.5 39.5t-58.5 15.5h-38
q-47 0 -71 -18t-30 -52q-4 -30 11 -46t55 -23l71 -11q90 -14 128.5 -51t27.5 -110q-13 -79 -71.5 -123.5t-161.5 -44.5h-42z" />
    <glyph glyph-name="t" unicode="t" 
d="M316 0q-75 0 -110.5 41t-23.5 114l47 297h-152l15 98h152l24 150h108l-24 -150h215l-15 -98h-215l-47 -297q-10 -57 46 -57h150l-16 -98h-154z" />
    <glyph glyph-name="u" unicode="u" 
d="M253 -10q-99 0 -148.5 57.5t-33.5 156.5l54 346h108l-54 -346q-9 -57 15 -88.5t75 -31.5t85.5 31.5t43.5 88.5l55 346h108l-55 -346q-10 -66 -44.5 -114t-88 -74t-120.5 -26z" />
    <glyph glyph-name="v" unicode="v" 
d="M185 0l-92 550h108l54 -352q5 -31 9 -62.5t5 -49.5q8 18 21 49.5t28 62.5l162 352h113l-266 -550h-142z" />
    <glyph glyph-name="w" unicode="w" 
d="M69 0l2 550h89l-7 -363q-1 -25 -1.5 -55.5t-2.5 -50.5l15 50t17 56l115 363h93l-2 -363v-56.5t-1 -50.5q5 21 14 51.5t17 55.5l110 363h88l-175 -550h-114l2 359q0 28 0.5 59.5t0.5 50.5q-5 -19 -14.5 -50.5t-18.5 -59.5l-112 -359h-115z" />
    <glyph glyph-name="x" unicode="x" 
d="M2 0l235 287l-135 263h121l70 -152q5 -12 10.5 -25.5t7.5 -22.5q5 9 13.5 22.5t17.5 25.5l117 152h126l-219 -270l144 -280h-122l-77 165q-5 12 -11 27t-8 24q-6 -9 -15 -24t-18 -27l-131 -165h-126z" />
    <glyph glyph-name="y" unicode="y" 
d="M83 -180l15 93h169q42 0 66 20t30 59l9 59l18 104h-27l30 25q-10 -66 -55.5 -103t-114.5 -37q-81 0 -122 52.5t-27 141.5l51 316h107l-48 -304q-9 -54 15.5 -84t74.5 -30q51 0 85.5 31.5t43.5 89.5l47 297h108l-89 -560q-11 -79 -69.5 -124.5t-146.5 -45.5h-170z" />
    <glyph glyph-name="z" unicode="z" 
d="M40 0l16 102l349 352h-284l15 96h412l-16 -102l-353 -352h308l-15 -96h-432z" />
    <glyph glyph-name="braceleft" unicode="{" 
d="M400 -110q-58 0 -97 20.5t-55 59t-5 91.5l36 159q9 46 -6.5 68.5t-70.5 22.5h-114l15 98h114q55 0 78 22t28 69l15 160q6 53 33.5 91.5t73 58.5t103.5 20h57l-15 -98h-48q-41 0 -67 -19t-30 -59l-15 -160q-7 -62 -49.5 -99t-109.5 -37v5q67 0 98.5 -37.5t17.5 -99.5
l-35 -160q-8 -38 11.5 -58t60.5 -20h48l-15 -98h-57z" />
    <glyph glyph-name="bar" unicode="|" 
d="M185 -110l148 940h108l-148 -940h-108z" />
    <glyph glyph-name="braceright" unicode="}" 
d="M21 -110l15 98h48q41 0 67 20t30 58l15 160q6 62 49.5 99.5t109.5 37.5v-5q-67 0 -98.5 37t-17.5 99l35 160q9 40 -10.5 59t-61.5 19h-48l15 98h57q58 0 97 -20t55.5 -58.5t4.5 -91.5l-36 -160q-9 -47 6.5 -69t70.5 -22h114l-15 -98h-114q-54 0 -77.5 -22.5t-28.5 -68.5
l-15 -159q-5 -53 -33.5 -91.5t-74 -59t-102.5 -20.5h-57z" />
    <glyph glyph-name="asciitilde" unicode="~" 
d="M54 255l11 74q10 61 54 97t105 36q40 0 64 -13t39.5 -33t27 -40t24.5 -33.5t33 -13.5q21 0 34 13t17 37l11 71h95l-11 -74q-9 -60 -52.5 -96.5t-105.5 -36.5q-39 0 -63.5 13t-40 33t-27 40t-25 33.5t-33.5 13.5t-33 -12.5t-18 -37.5l-11 -71h-95z" />
    <glyph glyph-name="uni00A0" unicode="&#xa0;" 
 />
    <glyph glyph-name="exclamdown" unicode="&#xa1;" 
d="M166 -180l22 135l80 372h79l-37 -372l-22 -135h-122zM313 430q-31 0 -46.5 17.5t-11.5 46.5q4 28 25.5 45t52.5 17h22q31 0 47.5 -16.5t11.5 -45.5q-4 -29 -26 -46.5t-52 -17.5h-23z" />
    <glyph glyph-name="cent" unicode="&#xa2;" 
d="M212 -140l131 830h61l-131 -830h-61zM258 -10q-68 0 -114.5 25.5t-66 74t-9.5 113.5l22 144q11 66 46 114t90 73.5t123 25.5q99 0 150.5 -52t40.5 -142h-107q4 47 -22 73t-78 26q-55 0 -90 -30.5t-44 -86.5l-23 -145q-9 -56 16.5 -87t80.5 -31q52 0 86 26t45 73h108
q-18 -90 -86.5 -142t-167.5 -52z" />
    <glyph glyph-name="sterling" unicode="&#xa3;" 
d="M31 0l19 118q26 16 54.5 40t50.5 50.5t26 51.5q7 42 1 72t-18.5 54.5t-24.5 47.5t-18.5 51t-0.5 66q9 56 42.5 99t88 66.5t122.5 23.5q67 0 113 -23.5t67 -67.5t12 -105h-111q6 45 -20 73t-77 28q-54 0 -88.5 -27t-41.5 -73q-5 -30 2 -51.5t19 -42t23.5 -44.5t17 -57
t-2.5 -81q-7 -43 -32 -77.5t-57 -58.5t-60 -35h370l-16 -98h-460zM75 299l15 92h363l-15 -92h-363z" />
    <glyph glyph-name="currency" unicode="&#xa4;" 
d="M470 112l-105 124l56 -19q-28 -23 -63.5 -34.5t-73.5 -11.5q-39 0 -71 12t-55 35l61 12l-136 -117l-55 67l133 116l-21 -58q-20 25 -28.5 60t-1.5 75t25.5 73.5t47.5 60.5l8 -59l-103 124l74 63l105 -125l-55 21q28 21 63 32.5t73 11.5q40 0 72.5 -12.5t56.5 -36.5
l-63 -13l134 116l56 -65l-133 -115l23 59q18 -27 25.5 -61.5t0.5 -73.5t-24.5 -73t-44.5 -61l-11 59l104 -123zM296 248q35 0 65 16.5t51 44.5t26 64q6 36 -6 64t-36.5 44.5t-59.5 16.5t-66 -16.5t-52 -44.5t-26 -64q-6 -36 6 -64t37.5 -44.5t60.5 -16.5z" />
    <glyph glyph-name="yen" unicode="&#xa5;" 
d="M58 267l14 84h480l-14 -84h-480zM34 114l13 84h480l-13 -84h-480zM202 0l42 269l-143 461h110l85 -276q8 -27 12.5 -50.5t5.5 -36.5q5 13 16 36.5t28 50.5l171 276h114l-291 -461l-42 -269h-108z" />
    <glyph glyph-name="brokenbar" unicode="&#xa6;" 
d="M273 450l60 380h108l-60 -380h-108zM185 -110l60 380h108l-60 -380h-108z" />
    <glyph glyph-name="section" unicode="&#xa7;" 
d="M216 -154q-88 0 -140.5 42t-52.5 113h112q4 -30 30 -48t65 -18h30q54 0 86 22t38 58q5 33 -15 54t-66 31l-89 19q-72 15 -109 59t-28 103q6 38 28 68.5t54.5 49.5t72.5 22l1 7q-27 2 -55 17.5t-43.5 47.5t-7.5 82q12 76 73.5 120.5t160.5 44.5h30q85 0 135 -40t49 -107
h-111q-2 25 -25.5 41t-61.5 16h-30q-49 0 -78.5 -20t-34.5 -54q-5 -30 15 -51t60 -31l91 -20q74 -16 110 -59.5t26 -104.5q-6 -38 -27 -68.5t-54.5 -48.5t-75.5 -19l-1 -7q29 -2 58 -19t46.5 -49t8.5 -83q-12 -78 -77 -124t-168 -46h-30zM311 192q29 -6 53 6t41 38t22 60
t-11.5 59.5t-50.5 32.5l-66 14q-27 6 -50.5 -6t-39.5 -37t-21 -58q-7 -37 9 -63t47 -33z" />
    <glyph glyph-name="dieresis" unicode="&#xa8;" 
d="M473 645q-32 0 -47.5 18.5t-10.5 49.5q5 32 26.5 50.5t52.5 18.5q32 0 47.5 -18.5t10.5 -50.5q-4 -31 -26 -49.5t-53 -18.5zM244 645q-31 0 -46.5 18.5t-11.5 49.5q5 32 26.5 50.5t53.5 18.5q31 0 47 -18.5t10 -50.5q-4 -31 -25.5 -49.5t-53.5 -18.5z" />
    <glyph glyph-name="copyright" unicode="&#xa9;" 
d="M273 110q-76 0 -128.5 30t-76 84t-12.5 126l24 150q12 72 52 126t102.5 84t138.5 30q77 0 129.5 -30t76 -84t11.5 -126l-24 -150q-11 -72 -51.5 -126t-102.5 -84t-139 -30zM281 160q60 0 108.5 23.5t80.5 66.5t41 100l24 150q9 57 -9 99.5t-59.5 66.5t-101.5 24
q-59 0 -108 -24t-81 -66.5t-41 -99.5l-24 -150q-9 -57 9.5 -100t60 -66.5t100.5 -23.5zM300 245q-57 0 -87.5 32.5t-21.5 85.5l19 124q9 53 49.5 85.5t97.5 32.5t87 -32.5t21 -85.5h-71q4 26 -9 41.5t-38 15.5t-43.5 -15.5t-22.5 -41.5l-19 -124q-4 -26 9 -41.5t39 -15.5
q25 0 43 15.5t22 41.5h71q-9 -53 -49 -85.5t-97 -32.5z" />
    <glyph glyph-name="ordfeminine" unicode="&#xaa;" 
d="M395 455l9 55h-3l22 140q3 20 -11 32t-41 12q-24 0 -42 -10t-22 -25h-59q12 38 46.5 59.5t83.5 21.5q54 0 82.5 -24t21.5 -66l-31 -195h-56zM298 450q-45 0 -68 23.5t-17 63.5q6 39 38.5 62t82.5 23h95l-6 -43h-95q-23 0 -38 -11t-18 -31t10.5 -32t38.5 -12q36 0 59 17
t28 45h11l-7 -45h-11q-15 -28 -42.5 -44t-60.5 -16z" />
    <glyph glyph-name="guillemotleft" unicode="&#xab;" 
d="M416 40l-152 240l228 240h125l-236 -244l151 -236h-116zM178 40l-152 240l228 240h125l-236 -244l151 -236h-116z" />
    <glyph glyph-name="logicalnot" unicode="&#xac;" 
d="M412 196l21 132h-355l15 97h460l-36 -229h-105z" />
    <glyph glyph-name="uni00AD" unicode="&#xad;" 
d="M136 281l16 98h329l-16 -98h-329z" />
    <glyph glyph-name="registered" unicode="&#xae;" 
d="M273 110q-76 0 -129 30t-76 84t-12 126l24 150q12 72 52 126t102.5 84t138.5 30q77 0 129.5 -30t76 -84t11.5 -126l-24 -150q-11 -72 -51.5 -126t-102.5 -84t-139 -30zM281 160q60 0 108.5 23.5t80.5 66.5t41 100l24 150q9 57 -9 99.5t-59.5 66.5t-101.5 24
q-59 0 -108 -24t-81 -66.5t-41 -99.5l-24 -150q-9 -57 9.5 -100t60 -66.5t100.5 -23.5zM183 250l55 350h117q55 0 83 -29t20 -77q-7 -42 -35.5 -68.5t-70.5 -34.5l21 45l53 -186h-69l-36 139h-50l-22 -139h-66zM279 443h51q25 0 41 14t20 38q5 24 -7.5 38t-36.5 14h-51z" />
    <glyph glyph-name="macron" unicode="&#xaf;" 
d="M195 666l14 85h332l-14 -85h-332z" />
    <glyph glyph-name="degree" unicode="&#xb0;" 
d="M327 450q-67 0 -102 40t-25 105q11 65 58.5 105t114.5 40q68 0 103 -40t24 -105q-10 -65 -57.5 -105t-115.5 -40zM335 505q39 0 66.5 25t34.5 65q6 41 -14 66t-58 25t-65.5 -25t-34.5 -66q-6 -40 13.5 -65t57.5 -25z" />
    <glyph glyph-name="plusminus" unicode="&#xb1;" 
d="M25 0l13 82h179l32 203h-184l15 97h184l30 188h107l-30 -188h185l-15 -97h-185l-32 -203h177l-14 -82h-462z" />
    <glyph glyph-name="uni00B2" unicode="&#xb2;" 
d="M182 405l15 90l184 120q23 15 38.5 36.5t19.5 43.5q5 36 -11.5 56t-50.5 20q-33 0 -56.5 -20t-28.5 -56h-78q13 67 60.5 106t113.5 39q70 0 104 -39t24 -104q-6 -38 -33 -75t-70 -63l-135 -84h212l-11 -70h-297z" />
    <glyph glyph-name="uni00B3" unicode="&#xb3;" 
d="M303 395q-69 0 -105 38.5t-25 102.5h76q-5 -33 12.5 -52.5t52.5 -19.5q34 0 56.5 19.5t27.5 53.5t-11 53.5t-49 19.5h-30l10 67l99 84h-179l11 70h247l-13 -81l-132 -112l4 32q65 0 98.5 -36t23.5 -97q-10 -65 -57.5 -103.5t-116.5 -38.5z" />
    <glyph glyph-name="acute" unicode="&#xb4;" 
d="M258 645l128 140h121l-135 -140h-114z" />
    <glyph glyph-name="uni00B5" unicode="&#xb5;" 
d="M10 -180l116 730h107l-55 -350q-9 -56 12.5 -86t78.5 -30q56 0 87.5 30t40.5 86l56 350h107l-55 -350q-16 -98 -79.5 -154t-160.5 -56q-47 0 -77 13t-45 32.5t-17 36.5h-6q1 0 3 -14.5t3.5 -34t0.5 -36.5l-14 -167h-103z" />
    <glyph glyph-name="paragraph" unicode="&#xb6;" 
d="M178 -180l78 490q-85 0 -130 47t-33 123l13 80q8 51 38 89.5t76 59.5t103 21h88l-145 -910h-88zM351 -180l145 910h88l-145 -910h-88z" />
    <glyph glyph-name="periodcentered" unicode="&#xb7;" 
d="M254 258q-40 0 -60.5 23.5t-13.5 63.5q6 41 34 65.5t68 24.5q41 0 61 -24.5t13 -65.5q-6 -40 -33.5 -63.5t-68.5 -23.5z" />
    <glyph glyph-name="cedilla" unicode="&#xb8;" 
d="M123 -210l10 60h73q23 0 38.5 11.5t17.5 24.5q3 19 -23 32t-78 13l50 92h61l-30 -59q28 -3 56 -13t45 -28.5t12 -46.5q-5 -35 -44 -60.5t-95 -25.5h-93z" />
    <glyph glyph-name="uni00B9" unicode="&#xb9;" 
d="M172 405l11 70h132l45 286l-136 -88l13 85l109 72h102l-56 -355h104l-12 -70h-312z" />
    <glyph glyph-name="ordmasculine" unicode="&#xba;" 
d="M326 446q-54 0 -82 31t-21 79l11 71q9 49 46.5 79t91.5 30q55 0 84 -30t20 -79l-11 -71q-7 -48 -45.5 -79t-93.5 -31zM334 495q28 0 48 17t24 44l11 71q5 27 -9.5 44t-42.5 17t-47.5 -17t-24.5 -44l-11 -71q-4 -27 10.5 -44t41.5 -17z" />
    <glyph glyph-name="guillemotright" unicode="&#xbb;" 
d="M222 40l234 246l-150 234h116l152 -240l-228 -240h-124zM-16 40l234 246l-150 234h116l152 -240l-228 -240h-124z" />
    <glyph glyph-name="onequarter" unicode="&#xbc;" 
d="M52 405l9 57h117l35 222q-6 -8 -17 -19t-24 -21l-70 -52l13 79l81 59h94l-43 -268h95l-9 -57h-281zM430 0l10 67h-172l14 86l153 172h78l-164 -186l-3 -16h103l13 85h69l-32 -208h-69zM40 0l475 730h73l-475 -730h-73z" />
    <glyph glyph-name="onehalf" unicode="&#xbd;" 
d="M270 0l11 71l138 73q66 35 72 73q4 26 -9.5 41.5t-40.5 15.5q-26 0 -45 -16t-24 -42h-68q10 51 50 82.5t96 31.5q57 0 88 -30t23 -79q-5 -33 -33 -62t-76 -53l-89 -46l-1 -10q11 2 31.5 4.5t39.5 2.5h107l-10 -57h-260zM52 405l9 57h117l35 222q-6 -7 -17 -18.5
t-24 -20.5l-69 -52l12 78l81 59h94l-43 -268h102l-9 -57h-288zM40 0l475 730h73l-475 -730h-73z" />
    <glyph glyph-name="threequarters" unicode="&#xbe;" 
d="M430 0l10 67h-172l14 86l153 172h78l-164 -186l-3 -16h103l13 85h69l-32 -208h-69zM173 400q-59 0 -90 29t-24 76h69q-3 -22 11.5 -35.5t42.5 -13.5t47 14t22 36q4 23 -10.5 37t-40.5 14h-30l9 60l85 59h-154l9 54h221l-9 -57l-118 -82l3 19q54 0 83 -28.5t21 -75.5
q-7 -47 -47.5 -76.5t-99.5 -29.5zM40 0l475 730h73l-475 -730h-73z" />
    <glyph glyph-name="questiondown" unicode="&#xbf;" 
d="M266 -170q-72 0 -121 26t-70.5 73t-11.5 111q9 58 41 103t80 70.5t106 27.5l16 98h100l-29 -190h-65q-57 0 -95 -29t-46 -80t21 -80t87 -29h137l-16 -101h-134zM361 429q-31 0 -46.5 18t-11.5 46q5 29 26.5 45.5t51.5 16.5h23q30 0 46 -16.5t12 -45.5q-4 -28 -26 -46
t-52 -18h-23z" />
    <glyph glyph-name="Agrave" unicode="&#xc0;" 
d="M-1 0l302 730h142l70 -730h-106l-14 185h-207l-74 -185h-113zM220 274h166l-17 211q-4 56 -6.5 97.5t-2.5 56.5q-5 -15 -19.5 -56.5t-36.5 -96.5zM345 810l-94 140h114l86 -140h-106z" />
    <glyph glyph-name="Aacute" unicode="&#xc1;" 
d="M-1 0l302 730h142l70 -730h-106l-14 185h-207l-74 -185h-113zM220 274h166l-17 211q-4 56 -6.5 97.5t-2.5 56.5q-5 -15 -19.5 -56.5t-36.5 -96.5zM314 810l128 140h121l-135 -140h-114z" />
    <glyph glyph-name="Acircumflex" unicode="&#xc2;" 
d="M-1 0l302 730h142l70 -730h-106l-14 185h-207l-74 -185h-113zM220 274h166l-17 211q-4 56 -6.5 97.5t-2.5 56.5q-5 -15 -19.5 -56.5t-36.5 -96.5zM196 810l160 140h100l116 -140h-107l-67 76l-88 -76h-114z" />
    <glyph glyph-name="Atilde" unicode="&#xc3;" 
d="M-1 0l302 730h142l70 -730h-106l-14 185h-207l-74 -185h-113zM220 274h166l-17 211q-4 56 -6.5 97.5t-2.5 56.5q-5 -15 -19.5 -56.5t-36.5 -96.5zM454 811q-30 0 -47.5 10t-28.5 23t-21.5 23.5t-26.5 10.5q-13 0 -23 -9t-12 -26l-5 -27h-71l5 31q8 47 39 74.5t74 27.5
q30 0 47.5 -10t28.5 -23t21.5 -23.5t26.5 -10.5q14 0 23 8.5t12 24.5l5 29h71l-5 -31q-8 -47 -38.5 -74.5t-74.5 -27.5z" />
    <glyph glyph-name="Adieresis" unicode="&#xc4;" 
d="M-1 0l302 730h142l70 -730h-106l-14 185h-207l-74 -185h-113zM220 274h166l-17 211q-4 56 -6.5 97.5t-2.5 56.5q-5 -15 -19.5 -56.5t-36.5 -96.5zM499 813q-32 0 -47.5 18t-10.5 49q5 32 26.5 50.5t53.5 18.5q31 0 46.5 -18.5t10.5 -50.5q-4 -31 -26 -49t-53 -18z
M270 813q-31 0 -46.5 18t-11.5 49q5 32 27 50.5t53 18.5q32 0 47.5 -18.5t9.5 -50.5q-4 -31 -25.5 -49t-53.5 -18z" />
    <glyph glyph-name="Aring" unicode="&#xc5;" 
d="M-1 0l302 730h142l70 -730h-106l-14 185h-207l-74 -185h-113zM220 274h166l-17 211q-4 56 -6.5 97.5t-2.5 56.5q-5 -15 -19.5 -56.5t-36.5 -96.5zM376 762q-56 0 -85.5 32.5t-21.5 85.5t48 85.5t97 32.5q56 0 85.5 -32.5t21.5 -85.5t-48 -85.5t-97 -32.5zM386 820
q27 0 46 16.5t23 43.5q5 27 -9 44t-41 17t-46 -17t-24 -44q-4 -27 10 -43.5t41 -16.5z" />
    <glyph glyph-name="AE" unicode="&#xc6;" 
d="M-23 0l259 730h409l-15 -95h-177l-33 -210h152l-16 -97h-151l-38 -233h177l-15 -95h-274l30 192h-135l-66 -192h-107zM178 276h120l58 359h-54z" />
    <glyph glyph-name="Ccedilla" unicode="&#xc7;" 
d="M130 -210l9 60h73q23 0 39 11.5t17 24.5q4 19 -22.5 32t-77.5 13l49 92h62l-30 -59q27 -3 55 -13t45 -28.5t13 -46.5q-5 -35 -44 -60.5t-96 -25.5h-92zM258 -10q-68 0 -114.5 25.5t-66 74t-9.5 113.5l51 324q11 66 46 114t89.5 73.5t122.5 25.5t113.5 -26t66 -73.5
t9.5 -113.5h-108q10 57 -15.5 87t-80.5 30t-90.5 -30t-44.5 -86l-51 -325q-9 -56 17 -86.5t80 -30.5q55 0 90 30.5t44 86.5h108q-10 -65 -45 -113t-89.5 -74t-122.5 -26z" />
    <glyph glyph-name="Egrave" unicode="&#xc8;" 
d="M50 0l116 730h429l-15 -96h-323l-33 -207h288l-16 -95h-287l-38 -236h323l-15 -96h-429zM365 810l-94 140h114l86 -140h-106z" />
    <glyph glyph-name="Eacute" unicode="&#xc9;" 
d="M50 0l116 730h429l-15 -96h-323l-33 -207h288l-16 -95h-287l-38 -236h323l-15 -96h-429zM334 810l128 140h121l-135 -140h-114z" />
    <glyph glyph-name="Ecircumflex" unicode="&#xca;" 
d="M50 0l116 730h429l-15 -96h-323l-33 -207h288l-16 -95h-287l-38 -236h323l-15 -96h-429zM216 810l160 140h100l116 -140h-107l-67 76l-88 -76h-114z" />
    <glyph glyph-name="Edieresis" unicode="&#xcb;" 
d="M50 0l116 730h429l-15 -96h-323l-33 -207h288l-16 -95h-287l-38 -236h323l-15 -96h-429zM519 813q-32 0 -47.5 18t-10.5 49q5 32 26.5 50.5t53.5 18.5q31 0 46.5 -18.5t10.5 -50.5q-4 -31 -26 -49t-53 -18zM290 813q-31 0 -46.5 18t-11.5 49q5 32 27 50.5t53 18.5
q32 0 47.5 -18.5t9.5 -50.5q-4 -31 -25.5 -49t-53.5 -18z" />
    <glyph glyph-name="Igrave" unicode="&#xcc;" 
d="M54 0l15 96h148l85 538h-148l16 96h404l-15 -96h-148l-85 -538h148l-16 -96h-404zM345 810l-94 140h114l86 -140h-106z" />
    <glyph glyph-name="Iacute" unicode="&#xcd;" 
d="M54 0l15 96h148l85 538h-148l16 96h404l-15 -96h-148l-85 -538h148l-16 -96h-404zM314 810l128 140h121l-135 -140h-114z" />
    <glyph glyph-name="Icircumflex" unicode="&#xce;" 
d="M54 0l15 96h148l85 538h-148l16 96h404l-15 -96h-148l-85 -538h148l-16 -96h-404zM196 810l160 140h100l116 -140h-107l-67 76l-88 -76h-114z" />
    <glyph glyph-name="Idieresis" unicode="&#xcf;" 
d="M54 0l15 96h148l85 538h-148l16 96h404l-15 -96h-148l-85 -538h148l-16 -96h-404zM499 813q-32 0 -47.5 18t-10.5 49q5 32 26.5 50.5t53.5 18.5q31 0 46.5 -18.5t10.5 -50.5q-4 -31 -26 -49t-53 -18zM270 813q-31 0 -46.5 18t-11.5 49q5 32 27 50.5t53 18.5
q32 0 47.5 -18.5t9.5 -50.5q-4 -31 -25.5 -49t-53.5 -18z" />
    <glyph glyph-name="Eth" unicode="&#xd0;" 
d="M10 332v81h280v-81h-280zM39 0l116 730h204q72 0 121 -27.5t70 -77.5t10 -118l-44 -283q-11 -67 -48.5 -118t-95 -78.5t-129.5 -27.5h-204zM163 98h95q60 0 100.5 33.5t49.5 92.5l44 283q10 58 -19.5 91.5t-89.5 33.5h-96z" />
    <glyph glyph-name="Ntilde" unicode="&#xd1;" 
d="M37 0l116 730h135l118 -607q2 29 5.5 69t8.5 83t11 78l60 377h100l-116 -730h-135l-117 607q-2 -26 -5.5 -65t-8.5 -81t-11 -78l-61 -383h-100zM454 811q-30 0 -47.5 10t-28.5 23t-21.5 23.5t-26.5 10.5q-13 0 -23 -9t-12 -26l-5 -27h-71l5 31q8 47 39 74.5t74 27.5
q30 0 47.5 -10t28.5 -23t21.5 -23.5t26.5 -10.5q14 0 23 8.5t12 24.5l5 29h71l-5 -31q-8 -47 -38.5 -74.5t-74.5 -27.5z" />
    <glyph glyph-name="Ograve" unicode="&#xd2;" 
d="M254 -10q-67 0 -112.5 25.5t-64.5 74t-9 113.5l51 324q11 66 45 114t88 73.5t121 25.5q68 0 113.5 -25.5t65 -73.5t8.5 -113l-51 -325q-10 -65 -45 -113.5t-88.5 -74t-121.5 -25.5zM269 86q55 0 89 30.5t43 86.5l51 324q9 57 -15 87t-79 30t-88.5 -30t-42.5 -87l-51 -324
q-9 -56 15 -86.5t78 -30.5zM345 810l-94 140h114l86 -140h-106z" />
    <glyph glyph-name="Oacute" unicode="&#xd3;" 
d="M254 -10q-67 0 -112.5 25.5t-64.5 74t-9 113.5l51 324q11 66 45 114t88 73.5t121 25.5q68 0 113.5 -25.5t65 -73.5t8.5 -113l-51 -325q-10 -65 -45 -113.5t-88.5 -74t-121.5 -25.5zM269 86q55 0 89 30.5t43 86.5l51 324q9 57 -15 87t-79 30t-88.5 -30t-42.5 -87l-51 -324
q-9 -56 15 -86.5t78 -30.5zM314 810l128 140h121l-135 -140h-114z" />
    <glyph glyph-name="Ocircumflex" unicode="&#xd4;" 
d="M254 -10q-67 0 -112.5 25.5t-64.5 74t-9 113.5l51 324q11 66 45 114t88 73.5t121 25.5q68 0 113.5 -25.5t65 -73.5t8.5 -113l-51 -325q-10 -65 -45 -113.5t-88.5 -74t-121.5 -25.5zM269 86q55 0 89 30.5t43 86.5l51 324q9 57 -15 87t-79 30t-88.5 -30t-42.5 -87l-51 -324
q-9 -56 15 -86.5t78 -30.5zM196 810l160 140h100l116 -140h-107l-67 76l-88 -76h-114z" />
    <glyph glyph-name="Otilde" unicode="&#xd5;" 
d="M254 -10q-67 0 -112.5 25.5t-64.5 74t-9 113.5l51 324q11 66 45 114t88 73.5t121 25.5q68 0 113.5 -25.5t65 -73.5t8.5 -113l-51 -325q-10 -65 -45 -113.5t-88.5 -74t-121.5 -25.5zM269 86q55 0 89 30.5t43 86.5l51 324q9 57 -15 87t-79 30t-88.5 -30t-42.5 -87l-51 -324
q-9 -56 15 -86.5t78 -30.5zM454 811q-30 0 -47.5 10t-28.5 23t-21.5 23.5t-26.5 10.5q-13 0 -23 -9t-12 -26l-5 -27h-71l5 31q8 47 39 74.5t74 27.5q30 0 47.5 -10t28.5 -23t21.5 -23.5t26.5 -10.5q14 0 23 8.5t12 24.5l5 29h71l-5 -31q-8 -47 -38.5 -74.5t-74.5 -27.5z" />
    <glyph glyph-name="Odieresis" unicode="&#xd6;" 
d="M254 -10q-67 0 -112.5 25.5t-64.5 74t-9 113.5l51 324q11 66 45 114t88 73.5t121 25.5q68 0 113.5 -25.5t65 -73.5t8.5 -113l-51 -325q-10 -65 -45 -113.5t-88.5 -74t-121.5 -25.5zM269 86q55 0 89 30.5t43 86.5l51 324q9 57 -15 87t-79 30t-88.5 -30t-42.5 -87l-51 -324
q-9 -56 15 -86.5t78 -30.5zM499 813q-32 0 -47.5 18t-10.5 49q5 32 26.5 50.5t53.5 18.5q31 0 46.5 -18.5t10.5 -50.5q-4 -31 -26 -49t-53 -18zM270 813q-31 0 -46.5 18t-11.5 49q5 32 27 50.5t53 18.5q32 0 47.5 -18.5t9.5 -50.5q-4 -31 -25.5 -49t-53.5 -18z" />
    <glyph glyph-name="multiply" unicode="&#xd7;" 
d="M141 125l-58 69l156 135l-112 135l75 64l113 -134l160 139l58 -70l-160 -137l113 -135l-75 -65l-113 135z" />
    <glyph glyph-name="Oslash" unicode="&#xd8;" 
d="M-21 -40l571 790h96l-571 -790h-96zM254 -10q-67 0 -112.5 25.5t-64.5 74t-9 113.5l51 324q11 66 45 114t88 73.5t121 25.5q68 0 113 -25.5t64.5 -73.5t9.5 -113l-51 -325q-10 -65 -45 -113.5t-88.5 -74t-121.5 -25.5zM269 86q56 0 90 30.5t43 86.5l51 324q10 57 -15 87
t-80 30t-89 -30t-44 -87l-51 -324q-9 -56 16 -86.5t79 -30.5z" />
    <glyph glyph-name="Ugrave" unicode="&#xd9;" 
d="M254 -10q-105 0 -152.5 57.5t-31.5 156.5l83 526h108l-83 -526q-10 -55 13 -87t78 -32t88.5 32t42.5 87l83 526h108l-83 -526q-11 -66 -44.5 -114.5t-86.5 -74t-123 -25.5zM345 810l-94 140h114l86 -140h-106z" />
    <glyph glyph-name="Uacute" unicode="&#xda;" 
d="M254 -10q-105 0 -152.5 57.5t-31.5 156.5l83 526h108l-83 -526q-10 -55 13 -87t78 -32t88.5 32t42.5 87l83 526h108l-83 -526q-11 -66 -44.5 -114.5t-86.5 -74t-123 -25.5zM314 810l128 140h121l-135 -140h-114z" />
    <glyph glyph-name="Ucircumflex" unicode="&#xdb;" 
d="M254 -10q-105 0 -152.5 57.5t-31.5 156.5l83 526h108l-83 -526q-10 -55 13 -87t78 -32t88.5 32t42.5 87l83 526h108l-83 -526q-11 -66 -44.5 -114.5t-86.5 -74t-123 -25.5zM196 810l160 140h100l116 -140h-107l-67 76l-88 -76h-114z" />
    <glyph glyph-name="Udieresis" unicode="&#xdc;" 
d="M254 -10q-105 0 -152.5 57.5t-31.5 156.5l83 526h108l-83 -526q-10 -55 13 -87t78 -32t88.5 32t42.5 87l83 526h108l-83 -526q-11 -66 -44.5 -114.5t-86.5 -74t-123 -25.5zM499 813q-32 0 -47.5 18t-10.5 49q5 32 26.5 50.5t53.5 18.5q31 0 46.5 -18.5t10.5 -50.5
q-4 -31 -26 -49t-53 -18zM270 813q-31 0 -46.5 18t-11.5 49q5 32 27 50.5t53 18.5q32 0 47.5 -18.5t9.5 -50.5q-4 -31 -25.5 -49t-53.5 -18z" />
    <glyph glyph-name="Yacute" unicode="&#xdd;" 
d="M202 0l42 269l-143 461h110l85 -276q8 -27 12.5 -50.5t5.5 -36.5q5 13 16 36.5t28 50.5l171 276h114l-291 -461l-42 -269h-108zM314 810l128 140h121l-135 -140h-114z" />
    <glyph glyph-name="Thorn" unicode="&#xde;" 
d="M40 0l116 730h108l-23 -146h143q101 0 152 -55.5t36 -148.5q-9 -63 -43.5 -109t-88 -70.5t-121.5 -24.5h-143l-28 -176h-108zM190 269h136q56 0 92 30t44 81q8 52 -19 81.5t-82 29.5h-136z" />
    <glyph glyph-name="germandbls" unicode="&#xdf;" 
d="M-132 -180l15 93h55q43 0 68 20t31 59l86 537q10 63 44.5 111t88.5 74t121 26q66 0 112.5 -22.5t68 -64.5t11.5 -102q-8 -50 -36.5 -88.5t-72.5 -60t-100 -20.5l2 15q59 1 99 -22t58 -65.5t9 -101.5q-10 -61 -45.5 -108t-90 -73.5t-122.5 -26.5h-62l15 95h54
q56 0 93.5 32.5t46.5 86.5t-18.5 85t-84.5 31h-45l14 87h42q52 0 87 32t42 81q9 54 -17 84.5t-78 30.5q-53 0 -88.5 -31t-44.5 -85l-86 -539q-12 -79 -70 -124.5t-146 -45.5h-56z" />
    <glyph glyph-name="agrave" unicode="&#xe0;" 
d="M215 -10q-82 0 -122.5 56t-24.5 151l24 155q10 65 40 111t74.5 71.5t99.5 25.5q68 0 102.5 -37.5t23.5 -102.5l-19 25h24l15 105h107l-87 -550h-106l17 105h-23l27 25q-11 -65 -57.5 -102.5t-114.5 -37.5zM268 84q51 0 85.5 31.5t43.5 87.5l22 144q10 56 -14.5 87.5
t-76.5 31.5q-53 0 -86 -30.5t-43 -88.5l-22 -144q-10 -58 14 -88.5t77 -30.5zM324 645l-94 140h114l86 -140h-106z" />
    <glyph glyph-name="aacute" unicode="&#xe1;" 
d="M215 -10q-82 0 -122.5 56t-24.5 151l24 155q10 65 40 111t74.5 71.5t99.5 25.5q68 0 102.5 -37.5t23.5 -102.5l-19 25h24l15 105h107l-87 -550h-106l17 105h-23l27 25q-11 -65 -57.5 -102.5t-114.5 -37.5zM268 84q51 0 85.5 31.5t43.5 87.5l22 144q10 56 -14.5 87.5
t-76.5 31.5q-53 0 -86 -30.5t-43 -88.5l-22 -144q-10 -58 14 -88.5t77 -30.5zM293 645l128 140h121l-135 -140h-114z" />
    <glyph glyph-name="acircumflex" unicode="&#xe2;" 
d="M215 -10q-82 0 -122.5 56t-24.5 151l24 155q10 65 40 111t74.5 71.5t99.5 25.5q68 0 102.5 -37.5t23.5 -102.5l-19 25h24l15 105h107l-87 -550h-106l17 105h-23l27 25q-11 -65 -57.5 -102.5t-114.5 -37.5zM268 84q51 0 85.5 31.5t43.5 87.5l22 144q10 56 -14.5 87.5
t-76.5 31.5q-53 0 -86 -30.5t-43 -88.5l-22 -144q-10 -58 14 -88.5t77 -30.5zM175 645l160 140h100l116 -140h-107l-67 76l-88 -76h-114z" />
    <glyph glyph-name="atilde" unicode="&#xe3;" 
d="M215 -10q-82 0 -122.5 56t-24.5 151l24 155q10 65 40 111t74.5 71.5t99.5 25.5q68 0 102.5 -37.5t23.5 -102.5l-19 25h24l15 105h107l-87 -550h-106l17 105h-23l27 25q-11 -65 -57.5 -102.5t-114.5 -37.5zM268 84q51 0 85.5 31.5t43.5 87.5l22 144q10 56 -14.5 87.5
t-76.5 31.5q-53 0 -86 -30.5t-43 -88.5l-22 -144q-10 -58 14 -88.5t77 -30.5zM433 646q-30 0 -47.5 10t-28.5 23t-21.5 23.5t-26.5 10.5q-13 0 -23 -9t-13 -26l-4 -27h-71l5 31q8 47 39 74.5t74 27.5q30 0 47.5 -10t28 -23t21 -23.5t26.5 -10.5q14 0 23.5 8.5t12.5 24.5
l5 29h71l-5 -31q-8 -47 -38.5 -74.5t-74.5 -27.5z" />
    <glyph glyph-name="adieresis" unicode="&#xe4;" 
d="M215 -10q-82 0 -122.5 56t-24.5 151l24 155q10 65 40 111t74.5 71.5t99.5 25.5q68 0 102.5 -37.5t23.5 -102.5l-19 25h24l15 105h107l-87 -550h-106l17 105h-23l27 25q-11 -65 -57.5 -102.5t-114.5 -37.5zM268 84q51 0 85.5 31.5t43.5 87.5l22 144q10 56 -14.5 87.5
t-76.5 31.5q-53 0 -86 -30.5t-43 -88.5l-22 -144q-10 -58 14 -88.5t77 -30.5zM478 645q-32 0 -47.5 18.5t-10.5 49.5q5 32 26.5 50.5t52.5 18.5q32 0 47.5 -18.5t10.5 -50.5q-4 -31 -26 -49.5t-53 -18.5zM249 645q-31 0 -46.5 18.5t-11.5 49.5q5 32 26.5 50.5t53.5 18.5
q31 0 47 -18.5t10 -50.5q-4 -31 -25.5 -49.5t-53.5 -18.5z" />
    <glyph glyph-name="aring" unicode="&#xe5;" 
d="M215 -10q-82 0 -122.5 56t-24.5 151l24 155q10 65 40 111t74.5 71.5t99.5 25.5q68 0 102.5 -37.5t23.5 -102.5l-19 25h24l15 105h107l-87 -550h-106l17 105h-23l27 25q-11 -65 -57.5 -102.5t-114.5 -37.5zM268 84q51 0 85.5 31.5t43.5 87.5l22 144q10 56 -14.5 87.5
t-76.5 31.5q-53 0 -86 -30.5t-43 -88.5l-22 -144q-10 -58 14 -88.5t77 -30.5zM357 605q-57 0 -86 32.5t-22 85.5q9 53 48.5 85.5t96.5 32.5t86.5 -32.5t20.5 -85.5q-7 -53 -47.5 -85.5t-96.5 -32.5zM366 663q27 0 46 16.5t23 43.5q5 28 -9 44.5t-41 16.5t-46 -16.5
t-24 -44.5q-4 -27 10 -43.5t41 -16.5z" />
    <glyph glyph-name="ae" unicode="&#xe6;" 
d="M125 -10q-62 0 -92.5 39t-20.5 104l9 57q10 62 58.5 99t119.5 37h65l12 76q6 39 -6 57t-43 18q-26 0 -44.5 -17t-23.5 -46h-94q11 66 55 106t105 40q39 0 62 -12.5t34 -31t11 -35.5h5q6 17 21.5 35.5t42.5 31t64 12.5q67 0 99 -42.5t21 -114.5l-24 -149h-218l-16 -107
q-6 -33 7.5 -53.5t41.5 -20.5q29 0 48.5 16t23.5 44h94q-10 -64 -56.5 -103.5t-111.5 -39.5q-37 0 -60 12.5t-33 31t-10 35.5h-5q-5 -17 -22.5 -35.5t-47 -31t-71.5 -12.5zM161 73q28 0 48.5 20.5t26.5 53.5l16 107h-63q-29 0 -47.5 -17t-23.5 -47l-8 -57q-5 -28 9 -44
t42 -16zM354 326h124l13 77q5 34 -8.5 54t-43.5 20q-28 0 -47.5 -20t-24.5 -54z" />
    <glyph glyph-name="ccedilla" unicode="&#xe7;" 
d="M127 -210l10 60h73q23 0 38.5 11.5t17.5 24.5q3 19 -23.5 32t-77.5 13l49 92h62l-30 -59q27 -3 55 -13t45 -28.5t13 -46.5q-5 -35 -44 -60.5t-96 -25.5h-92zM258 -10q-68 0 -114.5 25.5t-66 74t-9.5 113.5l22 144q11 66 46 114t90 73.5t123 25.5q99 0 150.5 -52
t40.5 -142h-107q4 47 -22 73t-78 26q-55 0 -90 -30.5t-44 -86.5l-23 -145q-9 -56 16.5 -87t80.5 -31q52 0 86 26t45 73h108q-18 -90 -86.5 -142t-167.5 -52z" />
    <glyph glyph-name="egrave" unicode="&#xe8;" 
d="M254 -10q-67 0 -112 26.5t-64.5 74.5t-9.5 112l22 144q11 65 46 112.5t88.5 74t120.5 26.5q68 0 113 -26.5t64.5 -74t8.5 -112.5l-15 -98h-337l-7 -46q-9 -61 15 -93t82 -32q47 0 77.5 16.5t42.5 48.5h107q-15 -47 -49.5 -81t-84 -53t-108.5 -19zM422 314l5 34
q10 60 -13.5 93t-81.5 33t-92.5 -33t-44.5 -94l-4 -25l240 1zM319 645l-94 140h114l86 -140h-106z" />
    <glyph glyph-name="eacute" unicode="&#xe9;" 
d="M254 -10q-67 0 -112 26.5t-64.5 74.5t-9.5 112l22 144q11 65 46 112.5t88.5 74t120.5 26.5q68 0 113 -26.5t64.5 -74t8.5 -112.5l-15 -98h-337l-7 -46q-9 -61 15 -93t82 -32q47 0 77.5 16.5t42.5 48.5h107q-15 -47 -49.5 -81t-84 -53t-108.5 -19zM422 314l5 34
q10 60 -13.5 93t-81.5 33t-92.5 -33t-44.5 -94l-4 -25l240 1zM288 645l128 140h121l-135 -140h-114z" />
    <glyph glyph-name="ecircumflex" unicode="&#xea;" 
d="M254 -10q-67 0 -112 26.5t-64.5 74.5t-9.5 112l22 144q11 65 46 112.5t88.5 74t120.5 26.5q68 0 113 -26.5t64.5 -74t8.5 -112.5l-15 -98h-337l-7 -46q-9 -61 15 -93t82 -32q47 0 77.5 16.5t42.5 48.5h107q-15 -47 -49.5 -81t-84 -53t-108.5 -19zM422 314l5 34
q10 60 -13.5 93t-81.5 33t-92.5 -33t-44.5 -94l-4 -25l240 1zM170 645l160 140h100l116 -140h-107l-67 76l-88 -76h-114z" />
    <glyph glyph-name="edieresis" unicode="&#xeb;" 
d="M254 -10q-67 0 -112 26.5t-64.5 74.5t-9.5 112l22 144q11 65 46 112.5t88.5 74t120.5 26.5q68 0 113 -26.5t64.5 -74t8.5 -112.5l-15 -98h-337l-7 -46q-9 -61 15 -93t82 -32q47 0 77.5 16.5t42.5 48.5h107q-15 -47 -49.5 -81t-84 -53t-108.5 -19zM422 314l5 34
q10 60 -13.5 93t-81.5 33t-92.5 -33t-44.5 -94l-4 -25l240 1zM473 645q-32 0 -47.5 18.5t-10.5 49.5q5 32 26.5 50.5t52.5 18.5q32 0 47.5 -18.5t10.5 -50.5q-4 -31 -26 -49.5t-53 -18.5zM244 645q-31 0 -46.5 18.5t-11.5 49.5q5 32 26.5 50.5t53.5 18.5q31 0 47 -18.5
t10 -50.5q-4 -31 -25.5 -49.5t-53.5 -18.5z" />
    <glyph glyph-name="igrave" unicode="&#xec;" 
d="M33 0l16 98h193l56 354h-168l15 98h273l-71 -452h178l-16 -98h-476zM335 645l-94 140h114l86 -140h-106z" />
    <glyph glyph-name="iacute" unicode="&#xed;" 
d="M33 0l16 98h193l56 354h-168l15 98h273l-71 -452h178l-16 -98h-476zM304 645l128 140h121l-135 -140h-114z" />
    <glyph glyph-name="icircumflex" unicode="&#xee;" 
d="M33 0l16 98h193l56 354h-168l15 98h273l-71 -452h178l-16 -98h-476zM186 645l160 140h100l116 -140h-107l-67 76l-88 -76h-114z" />
    <glyph glyph-name="idieresis" unicode="&#xef;" 
d="M33 0l16 98h193l56 354h-168l15 98h273l-71 -452h178l-16 -98h-476zM489 645q-32 0 -47.5 18.5t-10.5 49.5q5 32 26.5 50.5t52.5 18.5q32 0 47.5 -18.5t10.5 -50.5q-4 -31 -26 -49.5t-53 -18.5zM260 645q-31 0 -46.5 18.5t-11.5 49.5q5 32 26.5 50.5t53.5 18.5
q31 0 47 -18.5t10 -50.5q-4 -31 -25.5 -49.5t-53.5 -18.5z" />
    <glyph glyph-name="eth" unicode="&#xf0;" 
d="M254 -7q-71 0 -120 28.5t-70.5 80t-11.5 119.5q11 67 44.5 116.5t85 77t114.5 27.5q30 0 53 -10t38 -25t21 -28h11q-1 8 -12.5 34t-36.5 70l-47 83l-174 -69l13 89l121 50l-55 94h113l31 -56l171 65l-13 -90l-118 -45l58 -98q41 -68 56.5 -139t4.5 -136
q-11 -72 -49 -125.5t-96.5 -83t-131.5 -29.5zM269 86q60 0 102 37t51 98q7 41 -5 71t-38.5 47t-66.5 17q-59 0 -100.5 -37.5t-51.5 -97.5q-9 -61 21 -98t88 -37z" />
    <glyph glyph-name="ntilde" unicode="&#xf1;" 
d="M40 0l87 550h107l-17 -105h26l-30 -25q11 66 56 103t114 37q82 0 122.5 -52.5t26.5 -141.5l-58 -366h-108l56 354q8 54 -15.5 84t-74.5 30t-85 -31.5t-44 -89.5l-55 -347h-108zM428 646q-30 0 -47.5 10t-28.5 23t-21.5 23.5t-26.5 10.5q-13 0 -23 -9t-13 -26l-4 -27h-71
l5 31q8 47 39 74.5t74 27.5q30 0 47.5 -10t28 -23t21 -23.5t26.5 -10.5q14 0 23.5 8.5t12.5 24.5l5 29h71l-5 -31q-8 -47 -38.5 -74.5t-74.5 -27.5z" />
    <glyph glyph-name="ograve" unicode="&#xf2;" 
d="M254 -10q-67 0 -112.5 25.5t-64.5 74t-9 113.5l22 144q11 66 45.5 114t88.5 73.5t121 25.5q68 0 113 -25.5t64.5 -73.5t9.5 -113l-23 -145q-10 -65 -45 -113.5t-88.5 -74t-121.5 -25.5zM269 85q55 0 89 30t43 88l22 144q10 58 -14.5 88t-78.5 30t-88 -30t-44 -88
l-22 -144q-9 -58 15.5 -88t77.5 -30zM319 645l-94 140h114l86 -140h-106z" />
    <glyph glyph-name="oacute" unicode="&#xf3;" 
d="M254 -10q-67 0 -112.5 25.5t-64.5 74t-9 113.5l22 144q11 66 45.5 114t88.5 73.5t121 25.5q68 0 113 -25.5t64.5 -73.5t9.5 -113l-23 -145q-10 -65 -45 -113.5t-88.5 -74t-121.5 -25.5zM269 85q55 0 89 30t43 88l22 144q10 58 -14.5 88t-78.5 30t-88 -30t-44 -88
l-22 -144q-9 -58 15.5 -88t77.5 -30zM288 645l128 140h121l-135 -140h-114z" />
    <glyph glyph-name="ocircumflex" unicode="&#xf4;" 
d="M254 -10q-67 0 -112.5 25.5t-64.5 74t-9 113.5l22 144q11 66 45.5 114t88.5 73.5t121 25.5q68 0 113 -25.5t64.5 -73.5t9.5 -113l-23 -145q-10 -65 -45 -113.5t-88.5 -74t-121.5 -25.5zM269 85q55 0 89 30t43 88l22 144q10 58 -14.5 88t-78.5 30t-88 -30t-44 -88
l-22 -144q-9 -58 15.5 -88t77.5 -30zM170 645l160 140h100l116 -140h-107l-67 76l-88 -76h-114z" />
    <glyph glyph-name="otilde" unicode="&#xf5;" 
d="M254 -10q-67 0 -112.5 25.5t-64.5 74t-9 113.5l22 144q11 66 45.5 114t88.5 73.5t121 25.5q68 0 113 -25.5t64.5 -73.5t9.5 -113l-23 -145q-10 -65 -45 -113.5t-88.5 -74t-121.5 -25.5zM269 85q55 0 89 30t43 88l22 144q10 58 -14.5 88t-78.5 30t-88 -30t-44 -88
l-22 -144q-9 -58 15.5 -88t77.5 -30zM428 646q-30 0 -47.5 10t-28.5 23t-21.5 23.5t-26.5 10.5q-13 0 -23 -9t-13 -26l-4 -27h-71l5 31q8 47 39 74.5t74 27.5q30 0 47.5 -10t28 -23t21 -23.5t26.5 -10.5q14 0 23.5 8.5t12.5 24.5l5 29h71l-5 -31q-8 -47 -38.5 -74.5
t-74.5 -27.5z" />
    <glyph glyph-name="odieresis" unicode="&#xf6;" 
d="M254 -10q-67 0 -112.5 25.5t-64.5 74t-9 113.5l22 144q11 66 45.5 114t88.5 73.5t121 25.5q68 0 113 -25.5t64.5 -73.5t9.5 -113l-23 -145q-10 -65 -45 -113.5t-88.5 -74t-121.5 -25.5zM269 85q55 0 89 30t43 88l22 144q10 58 -14.5 88t-78.5 30t-88 -30t-44 -88
l-22 -144q-9 -58 15.5 -88t77.5 -30zM473 645q-32 0 -47.5 18.5t-10.5 49.5q5 32 26.5 50.5t52.5 18.5q32 0 47.5 -18.5t10.5 -50.5q-4 -31 -26 -49.5t-53 -18.5zM244 645q-31 0 -46.5 18.5t-11.5 49.5q5 32 26.5 50.5t53.5 18.5q31 0 47 -18.5t10 -50.5q-4 -31 -25.5 -49.5
t-53.5 -18.5z" />
    <glyph glyph-name="divide" unicode="&#xf7;" 
d="M101 285l15 94h400l-15 -94h-400zM257 78q-31 0 -46.5 16.5t-11.5 45.5q5 28 26 46t52 18h22q31 0 47.5 -18t11.5 -46q-4 -29 -26 -45.5t-53 -16.5h-22zM318 460q-31 0 -47 16.5t-12 45.5q5 29 26.5 46.5t51.5 17.5h23q31 0 47 -17.5t11 -46.5q-4 -28 -25.5 -45
t-52.5 -17h-22z" />
    <glyph glyph-name="oslash" unicode="&#xf8;" 
d="M-17 -30l534 620h100l-535 -620h-99zM254 -10q-67 0 -112.5 25.5t-64.5 74t-9 113.5l22 144q11 66 45.5 114t88.5 73.5t121 25.5q68 0 113.5 -25.5t65 -73.5t8.5 -113l-23 -145q-10 -65 -45 -113.5t-88.5 -74t-121.5 -25.5zM269 85q57 0 93 31.5t45 86.5l23 144
q9 56 -17.5 87t-82.5 31q-57 0 -93 -31t-45 -87l-23 -144q-9 -55 17.5 -86.5t82.5 -31.5z" />
    <glyph glyph-name="ugrave" unicode="&#xf9;" 
d="M253 -10q-99 0 -148.5 57.5t-33.5 156.5l54 346h108l-54 -346q-9 -57 15 -88.5t75 -31.5t85.5 31.5t43.5 88.5l55 346h108l-55 -346q-10 -66 -44.5 -114t-88 -74t-120.5 -26zM319 645l-94 140h114l86 -140h-106z" />
    <glyph glyph-name="uacute" unicode="&#xfa;" 
d="M253 -10q-99 0 -148.5 57.5t-33.5 156.5l54 346h108l-54 -346q-9 -57 15 -88.5t75 -31.5t85.5 31.5t43.5 88.5l55 346h108l-55 -346q-10 -66 -44.5 -114t-88 -74t-120.5 -26zM288 645l128 140h121l-135 -140h-114z" />
    <glyph glyph-name="ucircumflex" unicode="&#xfb;" 
d="M253 -10q-99 0 -148.5 57.5t-33.5 156.5l54 346h108l-54 -346q-9 -57 15 -88.5t75 -31.5t85.5 31.5t43.5 88.5l55 346h108l-55 -346q-10 -66 -44.5 -114t-88 -74t-120.5 -26zM170 645l160 140h100l116 -140h-107l-67 76l-88 -76h-114z" />
    <glyph glyph-name="udieresis" unicode="&#xfc;" 
d="M253 -10q-99 0 -148.5 57.5t-33.5 156.5l54 346h108l-54 -346q-9 -57 15 -88.5t75 -31.5t85.5 31.5t43.5 88.5l55 346h108l-55 -346q-10 -66 -44.5 -114t-88 -74t-120.5 -26zM473 645q-32 0 -47.5 18.5t-10.5 49.5q5 32 26.5 50.5t52.5 18.5q32 0 47.5 -18.5t10.5 -50.5
q-4 -31 -26 -49.5t-53 -18.5zM244 645q-31 0 -46.5 18.5t-11.5 49.5q5 32 26.5 50.5t53.5 18.5q31 0 47 -18.5t10 -50.5q-4 -31 -25.5 -49.5t-53.5 -18.5z" />
    <glyph glyph-name="yacute" unicode="&#xfd;" 
d="M83 -180l15 93h169q42 0 66 20t30 59l9 59l18 104h-27l30 25q-10 -66 -55.5 -103t-114.5 -37q-81 0 -122 52.5t-27 141.5l51 316h107l-48 -304q-9 -54 15.5 -84t74.5 -30q51 0 85.5 31.5t43.5 89.5l47 297h108l-89 -560q-11 -79 -69.5 -124.5t-146.5 -45.5h-170zM288 645
l128 140h121l-135 -140h-114z" />
    <glyph glyph-name="thorn" unicode="&#xfe;" 
d="M8 -180l37 236h107l-38 -236h-106zM290 -10q-68 0 -102.5 37.5t-23.5 102.5l19 -25h-23l-17 -105h-106l116 730h108l-26 -157l-23 -128h24l-26 -25q10 65 57 102.5t114 37.5q83 0 123 -56t25 -152l-25 -155q-10 -64 -39.5 -110t-74.5 -71.5t-100 -25.5zM268 84
q53 0 86.5 30.5t42.5 88.5l23 144q9 58 -15 88.5t-77 30.5q-50 0 -84.5 -31.5t-44.5 -87.5l-22 -144q-9 -56 15.5 -87.5t75.5 -31.5z" />
    <glyph glyph-name="ydieresis" unicode="&#xff;" 
d="M83 -180l15 93h169q42 0 66 20t30 59l9 59l18 104h-27l30 25q-10 -66 -55.5 -103t-114.5 -37q-81 0 -122 52.5t-27 141.5l51 316h107l-48 -304q-9 -54 15.5 -84t74.5 -30q51 0 85.5 31.5t43.5 89.5l47 297h108l-89 -560q-11 -79 -69.5 -124.5t-146.5 -45.5h-170zM473 645
q-32 0 -47.5 18.5t-10.5 49.5q5 32 26.5 50.5t52.5 18.5q32 0 47.5 -18.5t10.5 -50.5q-4 -31 -26 -49.5t-53 -18.5zM244 645q-31 0 -46.5 18.5t-11.5 49.5q5 32 26.5 50.5t53.5 18.5q31 0 47 -18.5t10 -50.5q-4 -31 -25.5 -49.5t-53.5 -18.5z" />
    <glyph glyph-name="Amacron" unicode="&#x100;" 
d="M-1 0l302 730h142l70 -730h-106l-14 185h-207l-74 -185h-113zM220 274h166l-17 211q-4 56 -6.5 97.5t-2.5 56.5q-5 -15 -19.5 -56.5t-36.5 -96.5zM222 834l14 85h332l-14 -85h-332z" />
    <glyph glyph-name="amacron" unicode="&#x101;" 
d="M215 -10q-82 0 -122.5 56t-24.5 151l24 155q10 65 40 111t74.5 71.5t99.5 25.5q68 0 102.5 -37.5t23.5 -102.5l-19 25h24l15 105h107l-87 -550h-106l17 105h-23l27 25q-11 -65 -57.5 -102.5t-114.5 -37.5zM268 84q51 0 85.5 31.5t43.5 87.5l22 144q10 56 -14.5 87.5
t-76.5 31.5q-53 0 -86 -30.5t-43 -88.5l-22 -144q-10 -58 14 -88.5t77 -30.5zM200 666l14 85h332l-14 -85h-332z" />
    <glyph glyph-name="Abreve" unicode="&#x102;" 
d="M-1 0l302 730h142l70 -730h-106l-14 185h-207l-74 -185h-113zM220 274h166l-17 211q-4 56 -6.5 97.5t-2.5 56.5q-5 -15 -19.5 -56.5t-36.5 -96.5zM383 804q-75 0 -114.5 40t-29.5 106h83q-6 -36 13.5 -58t56.5 -22q38 0 64.5 22t31.5 58h85q-10 -66 -62.5 -106
t-127.5 -40z" />
    <glyph glyph-name="abreve" unicode="&#x103;" 
d="M215 -10q-82 0 -122.5 56t-24.5 151l24 155q10 65 40 111t74.5 71.5t99.5 25.5q68 0 102.5 -37.5t23.5 -102.5l-19 25h24l15 105h107l-87 -550h-106l17 105h-23l27 25q-11 -65 -57.5 -102.5t-114.5 -37.5zM268 84q51 0 85.5 31.5t43.5 87.5l22 144q10 56 -14.5 87.5
t-76.5 31.5q-53 0 -86 -30.5t-43 -88.5l-22 -144q-10 -58 14 -88.5t77 -30.5zM362 639q-75 0 -114.5 40t-29.5 106h82q-5 -36 14.5 -58t56.5 -22q38 0 64.5 22t31.5 58h85q-10 -66 -62.5 -106t-127.5 -40z" />
    <glyph glyph-name="Aogonek" unicode="&#x104;" 
d="M417 -210q-57 0 -86.5 28t-22.5 71q5 30 32 61t80 60h79l-21 -15q-33 -25 -50 -45.5t-20 -39.5q-3 -20 9 -33t36 -13h62l-11 -74h-87zM-1 0l302 730h142l70 -730h-106l-14 185h-207l-74 -185h-113zM220 274h166l-17 211q-4 56 -6.5 97.5t-2.5 56.5q-5 -15 -19.5 -56.5
t-36.5 -96.5z" />
    <glyph glyph-name="aogonek" unicode="&#x105;" 
d="M404 -210q-57 0 -86.5 28t-22.5 71q5 30 32 61t80 60l65 -10q-38 -29 -56 -50t-21 -40q-3 -20 9 -33t36 -13h62l-11 -74h-87zM215 -10q-82 0 -122.5 56t-24.5 151l24 155q10 65 40 111t74.5 71.5t99.5 25.5q68 0 102.5 -37.5t23.5 -102.5l-19 25h24l15 105h107l-87 -550
h-106l17 105h-23l27 25q-11 -65 -57.5 -102.5t-114.5 -37.5zM268 84q51 0 85.5 31.5t43.5 87.5l22 144q10 56 -14.5 87.5t-76.5 31.5q-53 0 -86 -30.5t-43 -88.5l-22 -144q-10 -58 14 -88.5t77 -30.5z" />
    <glyph glyph-name="Cacute" unicode="&#x106;" 
d="M258 -10q-68 0 -114.5 25.5t-66 74t-9.5 113.5l51 324q11 66 46 114t89.5 73.5t122.5 25.5t113.5 -26t66 -73.5t9.5 -113.5h-108q10 57 -15.5 87t-80.5 30t-90.5 -30t-44.5 -86l-51 -325q-9 -56 17 -86.5t80 -30.5q55 0 90 30.5t44 86.5h108q-10 -65 -45 -113t-89.5 -74
t-122.5 -26zM319 810l128 140h121l-135 -140h-114z" />
    <glyph glyph-name="cacute" unicode="&#x107;" 
d="M258 -10q-68 0 -114.5 25.5t-66 74t-9.5 113.5l22 144q11 66 46 114t90 73.5t123 25.5q99 0 150.5 -52t40.5 -142h-107q4 47 -22 73t-78 26q-55 0 -90 -30.5t-44 -86.5l-23 -145q-9 -56 16.5 -87t80.5 -31q52 0 86 26t45 73h108q-18 -90 -86.5 -142t-167.5 -52zM292 645
l128 140h121l-135 -140h-114z" />
    <glyph glyph-name="Ccircumflex" unicode="&#x108;" 
d="M258 -10q-68 0 -114.5 25.5t-66 74t-9.5 113.5l51 324q11 66 46 114t89.5 73.5t122.5 25.5t113.5 -26t66 -73.5t9.5 -113.5h-108q10 57 -15.5 87t-80.5 30t-90.5 -30t-44.5 -86l-51 -325q-9 -56 17 -86.5t80 -30.5q55 0 90 30.5t44 86.5h108q-10 -65 -45 -113t-89.5 -74
t-122.5 -26zM201 810l160 140h100l116 -140h-107l-67 76l-88 -76h-114z" />
    <glyph glyph-name="ccircumflex" unicode="&#x109;" 
d="M258 -10q-68 0 -114.5 25.5t-66 74t-9.5 113.5l22 144q11 66 46 114t90 73.5t123 25.5q99 0 150.5 -52t40.5 -142h-107q4 47 -22 73t-78 26q-55 0 -90 -30.5t-44 -86.5l-23 -145q-9 -56 16.5 -87t80.5 -31q52 0 86 26t45 73h108q-18 -90 -86.5 -142t-167.5 -52zM170 645
l160 140h100l116 -140h-107l-67 76l-88 -76h-114z" />
    <glyph glyph-name="Cdotaccent" unicode="&#x10a;" 
d="M258 -10q-68 0 -114.5 25.5t-66 74t-9.5 113.5l51 324q11 66 46 114t89.5 73.5t122.5 25.5t113.5 -26t66 -73.5t9.5 -113.5h-108q10 57 -15.5 87t-80.5 30t-90.5 -30t-44.5 -86l-51 -325q-9 -56 17 -86.5t80 -30.5q55 0 90 30.5t44 86.5h108q-10 -65 -45 -113t-89.5 -74
t-122.5 -26zM389 812q-35 0 -52.5 18.5t-13.5 49.5q6 31 29.5 49.5t59.5 18.5q35 0 52.5 -18.5t12.5 -49.5t-28.5 -49.5t-59.5 -18.5z" />
    <glyph glyph-name="cdotaccent" unicode="&#x10b;" 
d="M258 -10q-68 0 -114.5 25.5t-66 74t-9.5 113.5l22 144q11 66 46 114t90 73.5t123 25.5q99 0 150.5 -52t40.5 -142h-107q4 47 -22 73t-78 26q-55 0 -90 -30.5t-44 -86.5l-23 -145q-9 -56 16.5 -87t80.5 -31q52 0 86 26t45 73h108q-18 -90 -86.5 -142t-167.5 -52zM358 645
q-35 0 -52.5 18.5t-13.5 49.5q6 32 29.5 50.5t58.5 18.5t53 -18.5t13 -50.5q-5 -31 -28.5 -49.5t-59.5 -18.5z" />
    <glyph glyph-name="Ccaron" unicode="&#x10c;" 
d="M258 -10q-68 0 -114.5 25.5t-66 74t-9.5 113.5l51 324q11 66 46 114t89.5 73.5t122.5 25.5t113.5 -26t66 -73.5t9.5 -113.5h-108q10 57 -15.5 87t-80.5 30t-90.5 -30t-44.5 -86l-51 -325q-9 -56 17 -86.5t80 -30.5q55 0 90 30.5t44 86.5h108q-10 -65 -45 -113t-89.5 -74
t-122.5 -26zM339 810l-116 140h107l68 -76l87 76h114l-160 -140h-100z" />
    <glyph glyph-name="ccaron" unicode="&#x10d;" 
d="M258 -10q-68 0 -114.5 25.5t-66 74t-9.5 113.5l22 144q11 66 46 114t90 73.5t123 25.5q99 0 150.5 -52t40.5 -142h-107q4 47 -22 73t-78 26q-55 0 -90 -30.5t-44 -86.5l-23 -145q-9 -56 16.5 -87t80.5 -31q52 0 86 26t45 73h108q-18 -90 -86.5 -142t-167.5 -52zM313 645
l-116 140h107l68 -76l87 76h114l-160 -140h-100z" />
    <glyph glyph-name="Dcaron" unicode="&#x10e;" 
d="M39 0l116 730h204q72 0 121 -27.5t70 -77.5t10 -118l-44 -283q-11 -67 -48.5 -118t-95 -78.5t-129.5 -27.5h-204zM163 98h95q60 0 100.5 33.5t49.5 92.5l44 283q10 58 -19.5 91.5t-89.5 33.5h-96zM334 810l-116 140h107l68 -76l87 76h114l-160 -140h-100z" />
    <glyph glyph-name="dcaron" unicode="&#x10f;" 
d="M552 550l29 180h95l-39 -180h-85zM175 -10q-76 0 -111.5 54.5t-20.5 147.5l26 165q14 94 67.5 148.5t129.5 54.5q60 0 90 -38t19 -102l-19 25h24l18 128l25 157h105l-116 -730h-103l17 105h-23l26 25q-10 -64 -52 -102t-102 -38zM226 81q45 0 74.5 30.5t38.5 86.5l24 154
q9 56 -10.5 86.5t-64.5 30.5t-75.5 -30.5t-39.5 -86.5l-25 -154q-9 -56 12 -86.5t66 -30.5z" />
    <glyph glyph-name="Dcroat" unicode="&#x110;" 
d="M10 332v81h280v-81h-280zM39 0l116 730h204q72 0 121 -27.5t70 -77.5t10 -118l-44 -283q-11 -67 -48.5 -118t-95 -78.5t-129.5 -27.5h-204zM163 98h95q60 0 100.5 33.5t49.5 92.5l44 283q10 58 -19.5 91.5t-89.5 33.5h-96z" />
    <glyph glyph-name="dcroat" unicode="&#x111;" 
d="M68 197l15 95q11 65 40 111t73.5 71.5t99.5 25.5q61 0 95 -30.5t32 -84.5h3l18 128l8 53h-160l13 79h159l14 85h108l-14 -85h86l-13 -79h-85l-90 -566h-106l17 105h-2q-16 -54 -59.5 -84.5t-104.5 -30.5q-83 0 -122.5 56t-24.5 151zM177 203q-9 -58 14.5 -88.5
t75.5 -30.5t85.5 31.5t42.5 87.5l13 84q9 56 -14.5 87.5t-75.5 31.5t-85.5 -30.5t-42.5 -88.5z" />
    <glyph glyph-name="Emacron" unicode="&#x112;" 
d="M50 0l116 730h429l-15 -96h-323l-33 -207h288l-16 -95h-287l-38 -236h323l-15 -96h-429zM242 834l14 85h332l-14 -85h-332z" />
    <glyph glyph-name="emacron" unicode="&#x113;" 
d="M254 -10q-67 0 -112 26.5t-64.5 74.5t-9.5 112l22 144q11 65 46 112.5t88.5 74t120.5 26.5q68 0 113 -26.5t64.5 -74t8.5 -112.5l-15 -98h-337l-7 -46q-9 -61 15 -93t82 -32q47 0 77.5 16.5t42.5 48.5h107q-15 -47 -49.5 -81t-84 -53t-108.5 -19zM422 314l5 34
q10 60 -13.5 93t-81.5 33t-92.5 -33t-44.5 -94l-4 -25l240 1zM195 666l14 85h332l-14 -85h-332z" />
    <glyph glyph-name="Ebreve" unicode="&#x114;" 
d="M50 0l116 730h429l-15 -96h-323l-33 -207h288l-16 -95h-287l-38 -236h323l-15 -96h-429zM403 804q-75 0 -114.5 40t-29.5 106h83q-6 -36 13.5 -58t56.5 -22q38 0 64.5 22t31.5 58h85q-10 -66 -62.5 -106t-127.5 -40z" />
    <glyph glyph-name="ebreve" unicode="&#x115;" 
d="M254 -10q-67 0 -112 26.5t-64.5 74.5t-9.5 112l22 144q11 65 46 112.5t88.5 74t120.5 26.5q68 0 113 -26.5t64.5 -74t8.5 -112.5l-15 -98h-337l-7 -46q-9 -61 15 -93t82 -32q47 0 77.5 16.5t42.5 48.5h107q-15 -47 -49.5 -81t-84 -53t-108.5 -19zM422 314l5 34
q10 60 -13.5 93t-81.5 33t-92.5 -33t-44.5 -94l-4 -25l240 1zM357 639q-75 0 -114.5 40t-29.5 106h82q-5 -36 14.5 -58t56.5 -22q38 0 64.5 22t31.5 58h85q-10 -66 -62.5 -106t-127.5 -40z" />
    <glyph glyph-name="Edotaccent" unicode="&#x116;" 
d="M50 0l116 730h429l-15 -96h-323l-33 -207h288l-16 -95h-287l-38 -236h323l-15 -96h-429zM404 812q-35 0 -52.5 18.5t-13.5 49.5q6 31 29.5 49.5t59.5 18.5q35 0 52.5 -18.5t12.5 -49.5t-28.5 -49.5t-59.5 -18.5z" />
    <glyph glyph-name="edotaccent" unicode="&#x117;" 
d="M254 -10q-67 0 -112 26.5t-64.5 74.5t-9.5 112l22 144q11 65 46 112.5t88.5 74t120.5 26.5q68 0 113 -26.5t64.5 -74t8.5 -112.5l-15 -98h-337l-7 -46q-9 -61 15 -93t82 -32q47 0 77.5 16.5t42.5 48.5h107q-15 -47 -49.5 -81t-84 -53t-108.5 -19zM422 314l5 34
q10 60 -13.5 93t-81.5 33t-92.5 -33t-44.5 -94l-4 -25l240 1zM358 645q-35 0 -52.5 18.5t-13.5 49.5q6 32 29.5 50.5t58.5 18.5t53 -18.5t13 -50.5q-5 -31 -28.5 -49.5t-59.5 -18.5z" />
    <glyph glyph-name="Eogonek" unicode="&#x118;" 
d="M364 -210q-57 0 -87 28t-22 71q5 30 32 61t80 60h78l-20 -15q-33 -25 -50 -45.5t-21 -39.5q-2 -20 9.5 -33t35.5 -13h63l-12 -74h-86zM50 0l116 730h429l-15 -96h-323l-33 -207h288l-16 -95h-287l-38 -236h323l-15 -96h-429z" />
    <glyph glyph-name="eogonek" unicode="&#x119;" 
d="M292 -210q-57 0 -86.5 28t-22.5 71q4 26 28.5 55t69.5 58q-3 -5 -10.5 -8.5t-16.5 -3.5q-67 0 -112 26.5t-64.5 74.5t-9.5 112l22 144q11 65 46 112.5t88.5 74t120.5 26.5q68 0 113 -26.5t64.5 -74t8.5 -112.5l-15 -98h-337l-7 -46q-9 -61 15 -93t82 -32q47 0 77.5 16.5
t42.5 48.5h107q-13 -42 -42.5 -73.5t-69.5 -51.5l-31 -23q-33 -25 -50 -45.5t-20 -39.5q-3 -20 8.5 -33t36.5 -13h62l-11 -74h-87zM418 292l9 56q10 60 -13.5 93t-81.5 33t-92.5 -33t-44.5 -94l-4 -25l263 1z" />
    <glyph glyph-name="Ecaron" unicode="&#x11a;" 
d="M50 0l116 730h429l-15 -96h-323l-33 -207h288l-16 -95h-287l-38 -236h323l-15 -96h-429zM354 810l-116 140h107l68 -76l87 76h114l-160 -140h-100z" />
    <glyph glyph-name="ecaron" unicode="&#x11b;" 
d="M254 -10q-67 0 -112 26.5t-64.5 74.5t-9.5 112l22 144q11 65 46 112.5t88.5 74t120.5 26.5q68 0 113 -26.5t64.5 -74t8.5 -112.5l-15 -98h-337l-7 -46q-9 -61 15 -93t82 -32q47 0 77.5 16.5t42.5 48.5h107q-15 -47 -49.5 -81t-84 -53t-108.5 -19zM422 314l5 34
q10 60 -13.5 93t-81.5 33t-92.5 -33t-44.5 -94l-4 -25l240 1zM309 645l-116 140h107l68 -76l87 76h114l-160 -140h-100z" />
    <glyph glyph-name="Gcircumflex" unicode="&#x11c;" 
d="M258 -10q-68 0 -114.5 25.5t-66 74t-9.5 113.5l51 324q11 66 46 114t89.5 73.5t122.5 25.5t113.5 -26t66 -73.5t9.5 -113.5h-108q10 57 -15.5 87t-80.5 30t-90.5 -30t-44.5 -86l-51 -325q-9 -56 17 -87t80 -31q55 0 90 31t44 87l13 82h-136l15 95h244l-28 -177
q-10 -65 -45 -113t-89.5 -74t-122.5 -26zM196 810l160 140h100l116 -140h-107l-67 76l-88 -76h-114z" />
    <glyph glyph-name="gcircumflex" unicode="&#x11d;" 
d="M85 -180l14 93h169q42 0 66 20t30 59l9 55l18 102h-23l26 20q-11 -63 -56 -99t-112 -36q-85 0 -125.5 56t-25.5 151l18 112q10 64 39.5 110t75 71.5t101.5 25.5q67 0 101 -36.5t24 -99.5l-20 21h23l15 105h107l-88 -560q-13 -79 -70.5 -124.5t-146.5 -45.5h-169zM275 127
q52 0 86 31.5t44 87.5l15 101q10 56 -15 87.5t-76 31.5q-53 0 -86.5 -30.5t-42.5 -88.5l-16 -101q-9 -57 15 -88t76 -31zM167 645l160 140h100l116 -140h-107l-67 76l-88 -76h-114z" />
    <glyph glyph-name="Gbreve" unicode="&#x11e;" 
d="M258 -10q-68 0 -114.5 25.5t-66 74t-9.5 113.5l51 324q11 66 46 114t89.5 73.5t122.5 25.5t113.5 -26t66 -73.5t9.5 -113.5h-108q10 57 -15.5 87t-80.5 30t-90.5 -30t-44.5 -86l-51 -325q-9 -56 17 -87t80 -31q55 0 90 31t44 87l13 82h-136l15 95h244l-28 -177
q-10 -65 -45 -113t-89.5 -74t-122.5 -26zM383 804q-75 0 -114.5 40t-29.5 106h83q-6 -36 13.5 -58t56.5 -22q38 0 64.5 22t31.5 58h85q-10 -66 -62.5 -106t-127.5 -40z" />
    <glyph glyph-name="gbreve" unicode="&#x11f;" 
d="M85 -180l14 93h169q42 0 66 20t30 59l9 55l18 102h-23l26 20q-11 -63 -56 -99t-112 -36q-85 0 -125.5 56t-25.5 151l18 112q10 64 39.5 110t75 71.5t101.5 25.5q67 0 101 -36.5t24 -99.5l-20 21h23l15 105h107l-88 -560q-13 -79 -70.5 -124.5t-146.5 -45.5h-169zM275 127
q52 0 86 31.5t44 87.5l15 101q10 56 -15 87.5t-76 31.5q-53 0 -86.5 -30.5t-42.5 -88.5l-16 -101q-9 -57 15 -88t76 -31zM354 639q-75 0 -114.5 40t-29.5 106h82q-5 -36 14.5 -58t56.5 -22q38 0 64.5 22t31.5 58h85q-10 -66 -62.5 -106t-127.5 -40z" />
    <glyph glyph-name="Gdotaccent" unicode="&#x120;" 
d="M258 -10q-68 0 -114.5 25.5t-66 74t-9.5 113.5l51 324q11 66 46 114t89.5 73.5t122.5 25.5t113.5 -26t66 -73.5t9.5 -113.5h-108q10 57 -15.5 87t-80.5 30t-90.5 -30t-44.5 -86l-51 -325q-9 -56 17 -87t80 -31q55 0 90 31t44 87l13 82h-136l15 95h244l-28 -177
q-10 -65 -45 -113t-89.5 -74t-122.5 -26zM384 812q-35 0 -52.5 18.5t-13.5 49.5q6 31 29.5 49.5t59.5 18.5q35 0 52.5 -18.5t12.5 -49.5t-28.5 -49.5t-59.5 -18.5z" />
    <glyph glyph-name="gdotaccent" unicode="&#x121;" 
d="M85 -180l14 93h169q42 0 66 20t30 59l9 55l18 102h-23l26 20q-11 -63 -56 -99t-112 -36q-85 0 -125.5 56t-25.5 151l18 112q10 64 39.5 110t75 71.5t101.5 25.5q67 0 101 -36.5t24 -99.5l-20 21h23l15 105h107l-88 -560q-13 -79 -70.5 -124.5t-146.5 -45.5h-169zM275 127
q52 0 86 31.5t44 87.5l15 101q10 56 -15 87.5t-76 31.5q-53 0 -86.5 -30.5t-42.5 -88.5l-16 -101q-9 -57 15 -88t76 -31zM355 645q-35 0 -52.5 18.5t-13.5 49.5q6 32 29.5 50.5t58.5 18.5t53 -18.5t13 -50.5q-5 -31 -28.5 -49.5t-59.5 -18.5z" />
    <glyph glyph-name="uni0122" unicode="&#x122;" 
d="M258 -10q-68 0 -114.5 25.5t-66 74t-9.5 113.5l51 324q11 66 46 114t89.5 73.5t122.5 25.5t113.5 -26t66 -73.5t9.5 -113.5h-108q10 57 -15.5 87t-80.5 30t-90.5 -30t-44.5 -86l-51 -325q-9 -56 17 -87t80 -31q55 0 90 31t44 87l13 82h-136l15 95h244l-28 -177
q-10 -65 -45 -113t-89.5 -74t-122.5 -26zM108 -240l118 145h117l-131 -145h-104z" />
    <glyph glyph-name="uni0123" unicode="&#x123;" 
d="M85 -180l14 93h169q42 0 66 20t30 59l9 55l18 102h-23l26 20q-11 -63 -56 -99t-112 -36q-85 0 -125.5 56t-25.5 151l18 112q10 64 39.5 110t75 71.5t101.5 25.5q67 0 101 -36.5t24 -99.5l-20 21h23l15 105h107l-88 -560q-13 -79 -70.5 -124.5t-146.5 -45.5h-169zM275 127
q52 0 86 31.5t44 87.5l15 101q10 56 -15 87.5t-76 31.5q-53 0 -86.5 -30.5t-42.5 -88.5l-16 -101q-9 -57 15 -88t76 -31zM513 880l-117 -235h-136l167 235h86z" />
    <glyph glyph-name="Hcircumflex" unicode="&#x124;" 
d="M41 0l116 730h108l-49 -302h215l48 302h108l-116 -730h-108l52 328h-214l-52 -328h-108zM196 810l160 140h100l116 -140h-107l-67 76l-88 -76h-114z" />
    <glyph glyph-name="hcircumflex" unicode="&#x125;" 
d="M40 0l116 730h108l-29 -180l-18 -105h26l-30 -25q11 66 56 103t114 37q82 0 122.5 -52.5t26.5 -141.5l-58 -366h-108l56 354q8 54 -15.5 84t-74.5 30t-85 -31.5t-44 -89.5l-55 -347h-108zM20 805l160 140h100l116 -140h-107l-67 76l-88 -76h-114z" />
    <glyph glyph-name="Hbar" unicode="&#x126;" 
d="M50 525l13 81h579l-13 -81h-579zM41 0l116 730h108l-49 -302h215l48 302h108l-116 -730h-108l52 328h-214l-52 -328h-108z" />
    <glyph glyph-name="hbar" unicode="&#x127;" 
d="M45 566l13 79h84l14 85h108l-14 -85h161l-13 -79h-160l-12 -76l-18 -105h1q17 55 59.5 85t104.5 30q82 0 122.5 -52.5t26.5 -141.5l-48 -306h-108l47 294q8 54 -16 84t-74 30q-52 0 -86 -31.5t-43 -89.5l-46 -287h-108l90 566h-85z" />
    <glyph glyph-name="Itilde" unicode="&#x128;" 
d="M54 0l15 96h148l85 538h-148l16 96h404l-15 -96h-148l-85 -538h148l-16 -96h-404zM454 811q-30 0 -47.5 10t-28.5 23t-21.5 23.5t-26.5 10.5q-13 0 -23 -9t-12 -26l-5 -27h-71l5 31q8 47 39 74.5t74 27.5q30 0 47.5 -10t28.5 -23t21.5 -23.5t26.5 -10.5q14 0 23 8.5
t12 24.5l5 29h71l-5 -31q-8 -47 -38.5 -74.5t-74.5 -27.5z" />
    <glyph glyph-name="itilde" unicode="&#x129;" 
d="M33 0l16 98h193l56 354h-168l15 98h273l-71 -452h178l-16 -98h-476zM444 646q-30 0 -47.5 10t-28.5 23t-21.5 23.5t-26.5 10.5q-13 0 -23 -9t-13 -26l-4 -27h-71l5 31q8 47 39 74.5t74 27.5q30 0 47.5 -10t28 -23t21 -23.5t26.5 -10.5q14 0 23.5 8.5t12.5 24.5l5 29h71
l-5 -31q-8 -47 -38.5 -74.5t-74.5 -27.5z" />
    <glyph glyph-name="Imacron" unicode="&#x12a;" 
d="M54 0l15 96h148l85 538h-148l16 96h404l-15 -96h-148l-85 -538h148l-16 -96h-404zM222 834l14 85h332l-14 -85h-332z" />
    <glyph glyph-name="imacron" unicode="&#x12b;" 
d="M33 0l16 98h193l56 354h-168l15 98h273l-71 -452h178l-16 -98h-476zM211 666l14 85h332l-14 -85h-332z" />
    <glyph glyph-name="Ibreve" unicode="&#x12c;" 
d="M54 0l15 96h148l85 538h-148l16 96h404l-15 -96h-148l-85 -538h148l-16 -96h-404zM383 804q-75 0 -114.5 40t-29.5 106h83q-6 -36 13.5 -58t56.5 -22q38 0 64.5 22t31.5 58h85q-10 -66 -62.5 -106t-127.5 -40z" />
    <glyph glyph-name="ibreve" unicode="&#x12d;" 
d="M33 0l16 98h193l56 354h-168l15 98h273l-71 -452h178l-16 -98h-476zM373 639q-75 0 -114.5 40t-29.5 106h82q-5 -36 14.5 -58t56.5 -22q38 0 64.5 22t31.5 58h85q-10 -66 -62.5 -106t-127.5 -40z" />
    <glyph glyph-name="Iogonek" unicode="&#x12e;" 
d="M227 -210q-57 0 -87 28t-22 71q5 30 32 61t80 60h78l-20 -15q-33 -25 -50 -45.5t-21 -39.5q-2 -20 9.5 -33t35.5 -13h63l-12 -74h-86zM54 0l15 96h148l85 538h-148l16 96h404l-15 -96h-148l-85 -538h148l-16 -96h-404z" />
    <glyph glyph-name="iogonek" unicode="&#x12f;" 
d="M243 -210q-57 0 -86.5 28t-22.5 71q5 30 32 61t80 60h79l-21 -15q-33 -25 -50 -45.5t-20 -39.5q-3 -20 9 -33t36 -13h62l-11 -74h-87zM33 0l16 98h193l56 354h-168l15 98h273l-71 -452h178l-16 -98h-476zM375 645q-35 0 -52.5 18.5t-13.5 49.5q5 32 28.5 50.5t58.5 18.5
q36 0 53.5 -18.5t12.5 -50.5q-4 -31 -28 -49.5t-59 -18.5z" />
    <glyph glyph-name="Idotaccent" unicode="&#x130;" 
d="M54 0l15 96h148l85 538h-148l16 96h404l-15 -96h-148l-85 -538h148l-16 -96h-404zM384 812q-35 0 -52.5 18.5t-13.5 49.5q6 31 29.5 49.5t59.5 18.5q35 0 52.5 -18.5t12.5 -49.5t-28.5 -49.5t-59.5 -18.5z" />
    <glyph glyph-name="dotlessi" unicode="&#x131;" 
d="M33 0l16 98h193l56 354h-168l15 98h273l-71 -452h178l-16 -98h-476z" />
    <glyph glyph-name="Jcircumflex" unicode="&#x134;" 
d="M224 -10q-108 0 -160.5 60t-36.5 163h108q-9 -61 18.5 -94.5t85.5 -33.5q59 0 97.5 33.5t47.5 93.5l67 419h-172l16 99h279l-82 -518q-10 -68 -46.5 -118t-93 -77t-128.5 -27zM256 810l160 140h100l116 -140h-107l-67 76l-88 -76h-114z" />
    <glyph glyph-name="jcircumflex" unicode="&#x135;" 
d="M11 -180l16 100h138q56 0 91.5 30t44.5 85l65 416h-225l16 99h333l-82 -516q-10 -66 -45 -114t-89 -74t-122 -26h-141zM198 645l160 140h100l116 -140h-107l-67 76l-88 -76h-114z" />
    <glyph glyph-name="uni0136" unicode="&#x136;" 
d="M40 0l116 730h108l-49 -304h95l199 304h119l-230 -355l122 -375h-117l-104 329h-99l-52 -329h-108zM104 -240l118 145h117l-131 -145h-104z" />
    <glyph glyph-name="uni0137" unicode="&#x137;" 
d="M43 0l116 730h108l-64 -401h87l182 221h124l-217 -268l133 -282h-121l-110 236h-92l-38 -236h-108zM104 -240l118 145h118l-131 -145h-105z" />
    <glyph glyph-name="kgreenlandic" unicode="&#x138;" 
d="M45 0l87 550h108l-36 -221h86l182 221h124l-217 -268l133 -282h-122l-109 236h-91l-37 -236h-108z" />
    <glyph glyph-name="Lacute" unicode="&#x139;" 
d="M65 0l116 730h108l-100 -631h319l-16 -99h-427zM178 810l128 140h121l-135 -140h-114z" />
    <glyph glyph-name="lacute" unicode="&#x13a;" 
d="M328 0q-77 0 -116 46t-27 121l73 465h-166l16 98h274l-89 -563q-5 -32 10 -50.5t45 -18.5h178l-16 -98h-182zM263 810l128 140h121l-135 -140h-114z" />
    <glyph glyph-name="uni013B" unicode="&#x13b;" 
d="M65 0l116 730h108l-100 -631h319l-16 -99h-427zM124 -240l118 145h117l-131 -145h-104z" />
    <glyph glyph-name="uni013C" unicode="&#x13c;" 
d="M328 0q-77 0 -116 46t-27 121l73 465h-166l16 98h274l-89 -563q-5 -32 10 -50.5t45 -18.5h178l-16 -98h-182zM100 -240l118 145h118l-131 -145h-105z" />
    <glyph glyph-name="Lcaron" unicode="&#x13d;" 
d="M65 0l116 730h108l-100 -631h319l-16 -99h-427zM396 550l39 180h101l-49 -180h-91z" />
    <glyph glyph-name="lcaron" unicode="&#x13e;" 
d="M328 0q-77 0 -116 46t-27 121l73 465h-166l16 98h274l-89 -563q-5 -32 10 -50.5t45 -18.5h178l-16 -98h-182zM481 550l39 180h101l-49 -180h-91z" />
    <glyph glyph-name="Ldot" unicode="&#x13f;" 
d="M65 0l116 730h108l-100 -631h319l-16 -99h-427zM406 258q-40 0 -60.5 23.5t-13.5 63.5q6 41 34 65.5t68 24.5q41 0 61 -24.5t13 -65.5q-6 -40 -33.5 -63.5t-68.5 -23.5z" />
    <glyph glyph-name="ldot" unicode="&#x140;" 
d="M308 0q-77 0 -116 46t-27 121l73 465h-166l16 98h274l-89 -563q-5 -32 10 -50.5t45 -18.5h178l-16 -98h-182zM508 258q-40 0 -60.5 23.5t-13.5 63.5q6 41 34 65.5t68 24.5q41 0 61 -24.5t13 -65.5q-6 -40 -33.5 -63.5t-68.5 -23.5z" />
    <glyph glyph-name="Lslash" unicode="&#x141;" 
d="M12 226l16 102l410 236l-16 -102zM68 0l116 730h108l-100 -631h319l-16 -99h-427z" />
    <glyph glyph-name="lslash" unicode="&#x142;" 
d="M100 230v98l373 232v-98zM328 0q-77 0 -116 46t-27 121l73 465h-166l16 98h274l-89 -563q-5 -32 10 -50.5t45 -18.5h178l-16 -98h-182z" />
    <glyph glyph-name="Nacute" unicode="&#x143;" 
d="M37 0l116 730h135l118 -607q2 29 5.5 69t8.5 83t11 78l60 377h100l-116 -730h-135l-117 607q-2 -26 -5.5 -65t-8.5 -81t-11 -78l-61 -383h-100zM314 810l128 140h121l-135 -140h-114z" />
    <glyph glyph-name="nacute" unicode="&#x144;" 
d="M40 0l87 550h107l-17 -105h26l-30 -25q11 66 56 103t114 37q82 0 122.5 -52.5t26.5 -141.5l-58 -366h-108l56 354q8 54 -15.5 84t-74.5 30t-85 -31.5t-44 -89.5l-55 -347h-108zM258 645l128 140h121l-135 -140h-114z" />
    <glyph glyph-name="uni0145" unicode="&#x145;" 
d="M37 0l116 730h135l118 -607q2 29 5.5 69t8.5 83t11 78l60 377h100l-116 -730h-135l-117 607q-2 -26 -5.5 -65t-8.5 -81t-11 -78l-61 -383h-100zM104 -240l118 145h118l-131 -145h-105z" />
    <glyph glyph-name="uni0146" unicode="&#x146;" 
d="M40 0l87 550h107l-17 -105h26l-30 -25q11 66 56 103t114 37q82 0 122.5 -52.5t26.5 -141.5l-58 -366h-108l56 354q8 54 -15.5 84t-74.5 30t-85 -31.5t-44 -89.5l-55 -347h-108zM104 -240l118 145h118l-131 -145h-105z" />
    <glyph glyph-name="Ncaron" unicode="&#x147;" 
d="M37 0l116 730h135l118 -607q2 29 5.5 69t8.5 83t11 78l60 377h100l-116 -730h-135l-117 607q-2 -26 -5.5 -65t-8.5 -81t-11 -78l-61 -383h-100zM334 810l-116 140h107l68 -76l87 76h114l-160 -140h-100z" />
    <glyph glyph-name="ncaron" unicode="&#x148;" 
d="M40 0l87 550h107l-17 -105h26l-30 -25q11 66 56 103t114 37q82 0 122.5 -52.5t26.5 -141.5l-58 -366h-108l56 354q8 54 -15.5 84t-74.5 30t-85 -31.5t-44 -89.5l-55 -347h-108zM309 645l-116 140h107l68 -76l87 76h114l-160 -140h-100z" />
    <glyph glyph-name="napostrophe" unicode="&#x149;" 
d="M40 0l87 550h107l-17 -105h26l-30 -25q11 66 56 103t114 37q82 0 122.5 -52.5t26.5 -141.5l-58 -366h-108l56 354q8 54 -15.5 84t-74.5 30t-85 -31.5t-44 -89.5l-55 -347h-108zM-86 645l118 145h118l-131 -145h-105z" />
    <glyph glyph-name="Eng" unicode="&#x14a;" 
d="M170 -180l16 101h63q49 0 81.5 27.5t39.5 74.5l-147 584q-2 -26 -5.5 -65t-8.5 -81t-11 -78l-61 -383h-100l116 730h134l132 -528q2 29 5.5 69.5t8.5 84.5t10 80l48 294h100l-113 -712q-9 -59 -43.5 -104t-87 -69.5t-116.5 -24.5h-61z" />
    <glyph glyph-name="eng" unicode="&#x14b;" 
d="M169 -180l16 101h62q48 0 81 27.5t40 74.5l53 331q8 54 -15 84t-74 30t-84.5 -31.5t-43.5 -89.5l-54 -347h-108l87 550h106l-17 -105h27l-31 -25q11 66 55.5 103t113.5 37q82 0 122 -52.5t25 -141.5l-55 -348q-9 -59 -43.5 -104t-86.5 -69.5t-117 -24.5h-59z" />
    <glyph glyph-name="Omacron" unicode="&#x14c;" 
d="M254 -10q-67 0 -112.5 25.5t-64.5 74t-9 113.5l51 324q11 66 45 114t88 73.5t121 25.5q68 0 113.5 -25.5t65 -73.5t8.5 -113l-51 -325q-10 -65 -45 -113.5t-88.5 -74t-121.5 -25.5zM269 86q55 0 89 30.5t43 86.5l51 324q9 57 -15 87t-79 30t-88.5 -30t-42.5 -87l-51 -324
q-9 -56 15 -86.5t78 -30.5zM222 834l14 85h332l-14 -85h-332z" />
    <glyph glyph-name="omacron" unicode="&#x14d;" 
d="M254 -10q-67 0 -112.5 25.5t-64.5 74t-9 113.5l22 144q11 66 45.5 114t88.5 73.5t121 25.5q68 0 113 -25.5t64.5 -73.5t9.5 -113l-23 -145q-10 -65 -45 -113.5t-88.5 -74t-121.5 -25.5zM269 85q55 0 89 30t43 88l22 144q10 58 -14.5 88t-78.5 30t-88 -30t-44 -88
l-22 -144q-9 -58 15.5 -88t77.5 -30zM195 666l14 85h332l-14 -85h-332z" />
    <glyph glyph-name="Obreve" unicode="&#x14e;" 
d="M254 -10q-67 0 -112.5 25.5t-64.5 74t-9 113.5l51 324q11 66 45 114t88 73.5t121 25.5q68 0 113.5 -25.5t65 -73.5t8.5 -113l-51 -325q-10 -65 -45 -113.5t-88.5 -74t-121.5 -25.5zM269 86q55 0 89 30.5t43 86.5l51 324q9 57 -15 87t-79 30t-88.5 -30t-42.5 -87l-51 -324
q-9 -56 15 -86.5t78 -30.5zM383 804q-75 0 -114.5 40t-29.5 106h83q-6 -36 13.5 -58t56.5 -22q38 0 64.5 22t31.5 58h85q-10 -66 -62.5 -106t-127.5 -40z" />
    <glyph glyph-name="obreve" unicode="&#x14f;" 
d="M254 -10q-67 0 -112.5 25.5t-64.5 74t-9 113.5l22 144q11 66 45.5 114t88.5 73.5t121 25.5q68 0 113 -25.5t64.5 -73.5t9.5 -113l-23 -145q-10 -65 -45 -113.5t-88.5 -74t-121.5 -25.5zM269 85q55 0 89 30t43 88l22 144q10 58 -14.5 88t-78.5 30t-88 -30t-44 -88
l-22 -144q-9 -58 15.5 -88t77.5 -30zM357 639q-75 0 -114.5 40t-29.5 106h82q-5 -36 14.5 -58t56.5 -22q38 0 64.5 22t31.5 58h85q-10 -66 -62.5 -106t-127.5 -40z" />
    <glyph glyph-name="Ohungarumlaut" unicode="&#x150;" 
d="M254 -10q-67 0 -112.5 25.5t-64.5 74t-9 113.5l51 324q11 66 45 114t88 73.5t121 25.5q68 0 113.5 -25.5t65 -73.5t8.5 -113l-51 -325q-10 -65 -45 -113.5t-88.5 -74t-121.5 -25.5zM269 86q55 0 89 30.5t43 86.5l51 324q9 57 -15 87t-79 30t-88.5 -30t-42.5 -87l-51 -324
q-9 -56 15 -86.5t78 -30.5zM409 810l130 140h111l-137 -140h-104zM215 810l131 140h110l-137 -140h-104z" />
    <glyph glyph-name="ohungarumlaut" unicode="&#x151;" 
d="M254 -10q-67 0 -112.5 25.5t-64.5 74t-9 113.5l22 144q11 66 45.5 114t88.5 73.5t121 25.5q68 0 113 -25.5t64.5 -73.5t9.5 -113l-23 -145q-10 -65 -45 -113.5t-88.5 -74t-121.5 -25.5zM269 85q55 0 89 30t43 88l22 144q10 58 -14.5 88t-78.5 30t-88 -30t-44 -88
l-22 -144q-9 -58 15.5 -88t77.5 -30zM383 645l130 140h110l-137 -140h-103zM190 645l131 140h109l-137 -140h-103z" />
    <glyph glyph-name="OE" unicode="&#x152;" 
d="M143 -8q-47 0 -77.5 23t-41.5 66.5t-1 102.5l57 363q10 61 34.5 104t62.5 66t85 23q35 0 56 -14.5t30.5 -35t9.5 -40.5h5l13 80h272l-15 -95h-172l-34 -211h147l-15 -95h-147l-37 -234h173l-16 -95h-272l13 82h-5q-6 -19 -22 -40t-41.5 -35.5t-61.5 -14.5zM191 85
q38 0 63.5 26.5t33.5 72.5l57 363q7 47 -10 73.5t-54 26.5q-38 0 -63.5 -26.5t-32.5 -73.5l-57 -363q-8 -45 9 -72t54 -27z" />
    <glyph glyph-name="oe" unicode="&#x153;" 
d="M134 -10q-66 0 -98.5 43t-21.5 114l41 256q11 72 57.5 114.5t112.5 42.5q39 0 62.5 -12.5t33 -31t9.5 -35.5h5q4 17 19.5 35.5t43.5 31t67 12.5q66 0 98.5 -42.5t21.5 -114.5l-24 -153h-218l-16 -103q-6 -34 7.5 -54t41.5 -20q25 0 43.5 15.5t26.5 40.5h93
q-16 -63 -61 -101t-104 -38q-39 0 -62.5 12.5t-33 31t-9.5 35.5h-5q-4 -17 -20 -35.5t-43.5 -31t-66.5 -12.5zM160 73q28 0 47.5 20t24.5 54l40 256q6 34 -7 54t-42 20t-49 -20t-25 -54l-41 -256q-5 -34 9 -54t43 -20zM354 325h124l13 78q5 34 -9 54t-43 20q-28 0 -47.5 -20
t-24.5 -54z" />
    <glyph glyph-name="Racute" unicode="&#x154;" 
d="M40 0l116 730h229q69 0 115.5 -26.5t67.5 -74.5t10 -113q-8 -54 -36 -98t-70.5 -73t-95.5 -39l13 54l118 -360h-118l-91 300h-103l-47 -300h-108zM210 395h121q54 0 91.5 32.5t45.5 86.5q9 56 -18 88t-81 32h-121zM314 810l128 140h121l-135 -140h-114z" />
    <glyph glyph-name="racute" unicode="&#x155;" 
d="M58 0l87 550h104l-17 -105h26l-43 -65q14 89 60.5 134.5t123.5 45.5q88 0 130.5 -54.5t27.5 -149.5l-6 -37h-111l5 28q9 59 -15 90.5t-77 31.5t-87.5 -32t-44.5 -90l-55 -347h-108zM308 645l128 140h121l-135 -140h-114z" />
    <glyph glyph-name="uni0156" unicode="&#x156;" 
d="M40 0l116 730h229q69 0 115.5 -26.5t67.5 -74.5t10 -113q-8 -54 -36 -98t-70.5 -73t-95.5 -39l13 54l118 -360h-118l-91 300h-103l-47 -300h-108zM210 395h121q54 0 91.5 32.5t45.5 86.5q9 56 -18 88t-81 32h-121zM104 -240l118 145h118l-131 -145h-105z" />
    <glyph glyph-name="uni0157" unicode="&#x157;" 
d="M58 0l87 550h104l-17 -105h26l-43 -65q14 89 60.5 134.5t123.5 45.5q88 0 130.5 -54.5t27.5 -149.5l-6 -37h-111l5 28q9 59 -15 90.5t-77 31.5t-87.5 -32t-44.5 -90l-55 -347h-108zM-61 -240l118 145h118l-131 -145h-105z" />
    <glyph glyph-name="Rcaron" unicode="&#x158;" 
d="M40 0l116 730h229q69 0 115.5 -26.5t67.5 -74.5t10 -113q-8 -54 -36 -98t-70.5 -73t-95.5 -39l13 54l118 -360h-118l-91 300h-103l-47 -300h-108zM210 395h121q54 0 91.5 32.5t45.5 86.5q9 56 -18 88t-81 32h-121zM334 810l-116 140h107l68 -76l87 76h114l-160 -140h-100
z" />
    <glyph glyph-name="rcaron" unicode="&#x159;" 
d="M58 0l87 550h104l-17 -105h26l-43 -65q14 89 60.5 134.5t123.5 45.5q88 0 130.5 -54.5t27.5 -149.5l-6 -37h-111l5 28q9 59 -15 90.5t-77 31.5t-87.5 -32t-44.5 -90l-55 -347h-108zM329 645l-116 140h107l68 -76l87 76h114l-160 -140h-100z" />
    <glyph glyph-name="Sacute" unicode="&#x15a;" 
d="M257 -10q-110 0 -165 54.5t-41 148.5h108q-8 -50 22 -78.5t92 -28.5q58 0 95.5 28t45.5 77q7 43 -11 73.5t-56 42.5l-87 26q-76 23 -112 78t-25 130q10 60 44 105t88 70t122 25q100 0 152 -54t38 -145h-108q8 48 -17.5 75.5t-80.5 27.5q-54 0 -87.5 -25.5t-40.5 -71.5
q-7 -42 10 -73t55 -43l90 -28q75 -23 110.5 -78t23.5 -131q-9 -62 -45.5 -108t-93 -71.5t-126.5 -25.5zM314 810l128 140h121l-135 -140h-114z" />
    <glyph glyph-name="sacute" unicode="&#x15b;" 
d="M232 -10q-90 0 -137.5 41.5t-41.5 110.5h108q0 -27 22 -44t63 -17h43q50 0 77.5 20.5t33.5 53.5q4 32 -14.5 51.5t-61.5 25.5l-69 11q-85 13 -121.5 49t-25.5 108q11 76 67.5 118t154.5 42h38q85 0 130.5 -40t41.5 -106h-108q0 24 -20.5 39.5t-58.5 15.5h-38
q-47 0 -71 -18t-30 -52q-4 -30 11 -46t55 -23l71 -11q90 -14 128.5 -51t27.5 -110q-13 -79 -71.5 -123.5t-161.5 -44.5h-42zM298 645l128 140h121l-135 -140h-114z" />
    <glyph glyph-name="Scircumflex" unicode="&#x15c;" 
d="M257 -10q-110 0 -165 54.5t-41 148.5h108q-8 -50 22 -78.5t92 -28.5q58 0 95.5 28t45.5 77q7 43 -11 73.5t-56 42.5l-87 26q-76 23 -112 78t-25 130q10 60 44 105t88 70t122 25q100 0 152 -54t38 -145h-108q8 48 -17.5 75.5t-80.5 27.5q-54 0 -87.5 -25.5t-40.5 -71.5
q-7 -42 10 -73t55 -43l90 -28q75 -23 110.5 -78t23.5 -131q-9 -62 -45.5 -108t-93 -71.5t-126.5 -25.5zM196 810l160 140h100l116 -140h-107l-67 76l-88 -76h-114z" />
    <glyph glyph-name="scircumflex" unicode="&#x15d;" 
d="M232 -10q-90 0 -137.5 41.5t-41.5 110.5h108q0 -27 22 -44t63 -17h43q50 0 77.5 20.5t33.5 53.5q4 32 -14.5 51.5t-61.5 25.5l-69 11q-85 13 -121.5 49t-25.5 108q11 76 67.5 118t154.5 42h38q85 0 130.5 -40t41.5 -106h-108q0 24 -20.5 39.5t-58.5 15.5h-38
q-47 0 -71 -18t-30 -52q-4 -30 11 -46t55 -23l71 -11q90 -14 128.5 -51t27.5 -110q-13 -79 -71.5 -123.5t-161.5 -44.5h-42zM180 645l160 140h100l116 -140h-107l-67 76l-88 -76h-114z" />
    <glyph glyph-name="Scedilla" unicode="&#x15e;" 
d="M125 -210l9 60h73q23 0 39 11.5t17 24.5q4 19 -22.5 32t-77.5 13l49 92h62l-30 -59q27 -3 55 -13t45 -28.5t13 -46.5q-5 -35 -44 -60.5t-96 -25.5h-92zM257 -10q-110 0 -165 54.5t-41 148.5h108q-8 -50 22 -78.5t92 -28.5q58 0 95.5 28t45.5 77q7 43 -11 73.5t-56 42.5
l-87 26q-76 23 -112 78t-25 130q10 60 44 105t88 70t122 25q100 0 152 -54t38 -145h-108q8 48 -17.5 75.5t-80.5 27.5q-54 0 -87.5 -25.5t-40.5 -71.5q-7 -42 10 -73t55 -43l90 -28q75 -23 110.5 -78t23.5 -131q-9 -62 -45.5 -108t-93 -71.5t-126.5 -25.5z" />
    <glyph glyph-name="scedilla" unicode="&#x15f;" 
d="M211 -210v60h73q22 0 36 11.5t14 24.5q0 19 -28 32t-80 13l35 92h62l-21 -59q28 -3 57.5 -13t49.5 -28.5t20 -46.5q0 -35 -34.5 -60.5t-91.5 -25.5h-92zM232 -10q-90 0 -137.5 41.5t-41.5 110.5h108q0 -27 22 -44t63 -17h43q50 0 77.5 20.5t33.5 53.5q4 32 -14.5 51.5
t-61.5 25.5l-69 11q-85 13 -121.5 49t-25.5 108q11 76 67.5 118t154.5 42h38q85 0 130.5 -40t41.5 -106h-108q0 24 -20.5 39.5t-58.5 15.5h-38q-47 0 -71 -18t-30 -52q-4 -30 11 -46t55 -23l71 -11q90 -14 128.5 -51t27.5 -110q-13 -79 -71.5 -123.5t-161.5 -44.5h-42z" />
    <glyph glyph-name="Scaron" unicode="&#x160;" 
d="M257 -10q-110 0 -165 54.5t-41 148.5h108q-8 -50 22 -78.5t92 -28.5q58 0 95.5 28t45.5 77q7 43 -11 73.5t-56 42.5l-87 26q-76 23 -112 78t-25 130q10 60 44 105t88 70t122 25q100 0 152 -54t38 -145h-108q8 48 -17.5 75.5t-80.5 27.5q-54 0 -87.5 -25.5t-40.5 -71.5
q-7 -42 10 -73t55 -43l90 -28q75 -23 110.5 -78t23.5 -131q-9 -62 -45.5 -108t-93 -71.5t-126.5 -25.5zM334 810l-116 140h107l68 -76l87 76h114l-160 -140h-100z" />
    <glyph glyph-name="scaron" unicode="&#x161;" 
d="M232 -10q-90 0 -137.5 41.5t-41.5 110.5h108q0 -27 22 -44t63 -17h43q50 0 77.5 20.5t33.5 53.5q4 32 -14.5 51.5t-61.5 25.5l-69 11q-85 13 -121.5 49t-25.5 108q11 76 67.5 118t154.5 42h38q85 0 130.5 -40t41.5 -106h-108q0 24 -20.5 39.5t-58.5 15.5h-38
q-47 0 -71 -18t-30 -52q-4 -30 11 -46t55 -23l71 -11q90 -14 128.5 -51t27.5 -110q-13 -79 -71.5 -123.5t-161.5 -44.5h-42zM319 645l-116 140h107l68 -76l87 76h114l-160 -140h-100z" />
    <glyph glyph-name="uni0162" unicode="&#x162;" 
d="M173 -210l9 60h73q23 0 39 11.5t17 24.5q4 19 -22.5 32t-78.5 13l50 92l50 -23l-18 -36q27 -3 55 -13t45 -28.5t13 -46.5q-6 -35 -44.5 -60.5t-95.5 -25.5h-92zM202 0l100 631h-195l16 100h498l-16 -100h-195l-100 -631h-108z" />
    <glyph glyph-name="uni0163" unicode="&#x163;" 
d="M261 -210v60h73q22 0 36 11.5t14 24.5q0 19 -28 32t-80 13l35 92h62l-21 -59q28 -3 57.5 -13t49.5 -28.5t20 -46.5q0 -35 -34.5 -60.5t-91.5 -25.5h-92zM316 0q-75 0 -110.5 41t-23.5 114l47 297h-152l15 98h152l24 150h108l-24 -150h215l-15 -98h-215l-47 -297
q-10 -57 46 -57h150l-16 -98h-154z" />
    <glyph glyph-name="Tcaron" unicode="&#x164;" 
d="M202 0l100 631h-195l16 100h498l-16 -100h-195l-100 -631h-108zM334 810l-116 140h107l68 -76l87 76h114l-160 -140h-100z" />
    <glyph glyph-name="tcaron" unicode="&#x165;" 
d="M425 620l112 156h106l-122 -156h-96zM316 0q-75 0 -110.5 41t-23.5 114l47 297h-152l15 98h152l24 150h108l-24 -150h215l-15 -98h-215l-47 -297q-10 -57 46 -57h150l-16 -98h-154z" />
    <glyph glyph-name="Tbar" unicode="&#x166;" 
d="M109 289l14 87h386l-14 -87h-386zM202 0l100 631h-195l16 100h498l-16 -100h-195l-100 -631h-108z" />
    <glyph glyph-name="tbar" unicode="&#x167;" 
d="M74 233l13 87h399l-13 -87h-399zM316 0q-75 0 -110.5 41t-23.5 114l47 297h-152l15 98h152l24 150h108l-24 -150h215l-15 -98h-215l-47 -297q-10 -57 46 -57h150l-16 -98h-154z" />
    <glyph glyph-name="Utilde" unicode="&#x168;" 
d="M254 -10q-105 0 -152.5 57.5t-31.5 156.5l83 526h108l-83 -526q-10 -55 13 -87t78 -32t88.5 32t42.5 87l83 526h108l-83 -526q-11 -66 -44.5 -114.5t-86.5 -74t-123 -25.5zM454 811q-30 0 -47.5 10t-28.5 23t-21.5 23.5t-26.5 10.5q-13 0 -23 -9t-12 -26l-5 -27h-71l5 31
q8 47 39 74.5t74 27.5q30 0 47.5 -10t28.5 -23t21.5 -23.5t26.5 -10.5q14 0 23 8.5t12 24.5l5 29h71l-5 -31q-8 -47 -38.5 -74.5t-74.5 -27.5z" />
    <glyph glyph-name="utilde" unicode="&#x169;" 
d="M253 -10q-99 0 -148.5 57.5t-33.5 156.5l54 346h108l-54 -346q-9 -57 15 -88.5t75 -31.5t85.5 31.5t43.5 88.5l55 346h108l-55 -346q-10 -66 -44.5 -114t-88 -74t-120.5 -26zM428 646q-30 0 -47.5 10t-28.5 23t-21.5 23.5t-26.5 10.5q-13 0 -23 -9t-13 -26l-4 -27h-71
l5 31q8 47 39 74.5t74 27.5q30 0 47.5 -10t28 -23t21 -23.5t26.5 -10.5q14 0 23.5 8.5t12.5 24.5l5 29h71l-5 -31q-8 -47 -38.5 -74.5t-74.5 -27.5z" />
    <glyph glyph-name="Umacron" unicode="&#x16a;" 
d="M254 -10q-105 0 -152.5 57.5t-31.5 156.5l83 526h108l-83 -526q-10 -55 13 -87t78 -32t88.5 32t42.5 87l83 526h108l-83 -526q-11 -66 -44.5 -114.5t-86.5 -74t-123 -25.5zM222 834l14 85h332l-14 -85h-332z" />
    <glyph glyph-name="umacron" unicode="&#x16b;" 
d="M253 -10q-99 0 -148.5 57.5t-33.5 156.5l54 346h108l-54 -346q-9 -57 15 -88.5t75 -31.5t85.5 31.5t43.5 88.5l55 346h108l-55 -346q-10 -66 -44.5 -114t-88 -74t-120.5 -26zM195 666l14 85h332l-14 -85h-332z" />
    <glyph glyph-name="Ubreve" unicode="&#x16c;" 
d="M254 -10q-105 0 -152.5 57.5t-31.5 156.5l83 526h108l-83 -526q-10 -55 13 -87t78 -32t88.5 32t42.5 87l83 526h108l-83 -526q-11 -66 -44.5 -114.5t-86.5 -74t-123 -25.5zM383 804q-75 0 -114.5 40t-29.5 106h83q-6 -36 13.5 -58t56.5 -22q38 0 64.5 22t31.5 58h85
q-10 -66 -62.5 -106t-127.5 -40z" />
    <glyph glyph-name="ubreve" unicode="&#x16d;" 
d="M253 -10q-99 0 -148.5 57.5t-33.5 156.5l54 346h108l-54 -346q-9 -57 15 -88.5t75 -31.5t85.5 31.5t43.5 88.5l55 346h108l-55 -346q-10 -66 -44.5 -114t-88 -74t-120.5 -26zM357 639q-75 0 -114.5 40t-29.5 106h82q-5 -36 14.5 -58t56.5 -22q38 0 64.5 22t31.5 58h85
q-10 -66 -62.5 -106t-127.5 -40z" />
    <glyph glyph-name="Uring" unicode="&#x16e;" 
d="M254 -10q-105 0 -152.5 57.5t-31.5 156.5l83 526h108l-83 -526q-10 -55 13 -87t78 -32t88.5 32t42.5 87l83 526h108l-83 -526q-11 -66 -44.5 -114.5t-86.5 -74t-123 -25.5zM376 762q-56 0 -85.5 32.5t-21.5 85.5t48 85.5t97 32.5q56 0 85.5 -32.5t21.5 -85.5t-48 -85.5
t-97 -32.5zM386 820q27 0 46 16.5t23 43.5q5 27 -9 44t-41 17t-46 -17t-24 -44q-4 -27 10 -43.5t41 -16.5z" />
    <glyph glyph-name="uring" unicode="&#x16f;" 
d="M253 -10q-99 0 -148.5 57.5t-33.5 156.5l54 346h108l-54 -346q-9 -57 15 -88.5t75 -31.5t85.5 31.5t43.5 88.5l55 346h108l-55 -346q-10 -66 -44.5 -114t-88 -74t-120.5 -26zM352 605q-57 0 -86 32.5t-22 85.5q9 53 48.5 85.5t96.5 32.5t86.5 -32.5t20.5 -85.5
q-7 -53 -47.5 -85.5t-96.5 -32.5zM361 663q27 0 46 16.5t23 43.5q5 28 -9 44.5t-41 16.5t-46 -16.5t-24 -44.5q-4 -27 10 -43.5t41 -16.5z" />
    <glyph glyph-name="Uhungarumlaut" unicode="&#x170;" 
d="M254 -10q-105 0 -152.5 57.5t-31.5 156.5l83 526h108l-83 -526q-10 -55 13 -87t78 -32t88.5 32t42.5 87l83 526h108l-83 -526q-11 -66 -44.5 -114.5t-86.5 -74t-123 -25.5zM409 810l130 140h111l-137 -140h-104zM215 810l131 140h110l-137 -140h-104z" />
    <glyph glyph-name="uhungarumlaut" unicode="&#x171;" 
d="M253 -10q-99 0 -148.5 57.5t-33.5 156.5l54 346h108l-54 -346q-9 -57 15 -88.5t75 -31.5t85.5 31.5t43.5 88.5l55 346h108l-55 -346q-10 -66 -44.5 -114t-88 -74t-120.5 -26zM383 645l130 140h110l-137 -140h-103zM190 645l131 140h109l-137 -140h-103z" />
    <glyph glyph-name="Uogonek" unicode="&#x172;" 
d="M294 -210q-56 0 -86 28t-22 71q2 16 14.5 35.5t33 39t45.5 35.5q-2 -2 -8.5 -5.5t-16.5 -3.5q-67 0 -112 25.5t-64 74t-9 113.5l84 527h108l-84 -527q-9 -56 14.5 -86.5t77.5 -30.5q55 0 88 30.5t42 86.5l84 527h108l-84 -527q-10 -60 -39.5 -106.5t-76.5 -72.5l-39 -28
q-33 -25 -48.5 -46t-18.5 -40q-3 -20 9 -33t36 -13h63l-12 -74h-87z" />
    <glyph glyph-name="uogonek" unicode="&#x173;" 
d="M291 -210q-57 0 -86.5 28t-22.5 71q4 25 26.5 52.5t72.5 60.5q-1 -2 -6 -5t-10.5 -5t-10.5 -2q-102 0 -150.5 57.5t-32.5 155.5l54 347h108l-55 -347q-9 -58 14.5 -88t76.5 -30q55 0 87.5 30t41.5 88l55 347h108l-55 -347q-10 -60 -39.5 -106t-76.5 -73l-38 -29
q-33 -24 -50 -45t-20 -40q-3 -20 8.5 -33t36.5 -13h62l-11 -74h-87z" />
    <glyph glyph-name="Wcircumflex" unicode="&#x174;" 
d="M56 0l37 730h94l-34 -524q-1 -20 -3 -44t-4.5 -47t-4.5 -40q4 17 9.5 40t12 47t12.5 44l147 524h102l-25 -524q-1 -20 -2 -44t-2 -47t-2 -40q4 17 8.5 40t10.5 47l11 44l134 524h94l-198 -730h-125l25 531q1 21 2.5 44.5t3 46t3.5 37.5q-4 -15 -9.5 -37.5t-11.5 -46
t-12 -44.5l-147 -531h-126zM196 810l160 140h100l116 -140h-107l-67 76l-88 -76h-114z" />
    <glyph glyph-name="wcircumflex" unicode="&#x175;" 
d="M69 0l2 550h89l-7 -363q-1 -25 -1.5 -55.5t-2.5 -50.5l15 50t17 56l115 363h93l-2 -363v-56.5t-1 -50.5q5 21 14 51.5t17 55.5l110 363h88l-175 -550h-114l2 359q0 28 0.5 59.5t0.5 50.5q-5 -19 -14.5 -50.5t-18.5 -59.5l-112 -359h-115zM170 645l160 140h100l116 -140
h-107l-67 76l-88 -76h-114z" />
    <glyph glyph-name="Ycircumflex" unicode="&#x176;" 
d="M202 0l42 269l-143 461h110l85 -276q8 -27 12.5 -50.5t5.5 -36.5q5 13 16 36.5t28 50.5l171 276h114l-291 -461l-42 -269h-108zM196 810l160 140h100l116 -140h-107l-67 76l-88 -76h-114z" />
    <glyph glyph-name="ycircumflex" unicode="&#x177;" 
d="M83 -180l15 93h169q42 0 66 20t30 59l9 59l18 104h-27l30 25q-10 -66 -55.5 -103t-114.5 -37q-81 0 -122 52.5t-27 141.5l51 316h107l-48 -304q-9 -54 15.5 -84t74.5 -30q51 0 85.5 31.5t43.5 89.5l47 297h108l-89 -560q-11 -79 -69.5 -124.5t-146.5 -45.5h-170zM170 645
l160 140h100l116 -140h-107l-67 76l-88 -76h-114z" />
    <glyph glyph-name="Ydieresis" unicode="&#x178;" 
d="M202 0l42 269l-143 461h110l85 -276q8 -27 12.5 -50.5t5.5 -36.5q5 13 16 36.5t28 50.5l171 276h114l-291 -461l-42 -269h-108zM499 813q-32 0 -47.5 18t-10.5 49q5 32 26.5 50.5t53.5 18.5q31 0 46.5 -18.5t10.5 -50.5q-4 -31 -26 -49t-53 -18zM270 813q-31 0 -46.5 18
t-11.5 49q5 32 27 50.5t53 18.5q32 0 47.5 -18.5t9.5 -50.5q-4 -31 -25.5 -49t-53.5 -18z" />
    <glyph glyph-name="Zacute" unicode="&#x179;" 
d="M38 0l17 105l390 526h-301l16 99h420l-18 -105l-390 -526h318l-16 -99h-436zM314 810l128 140h121l-135 -140h-114z" />
    <glyph glyph-name="zacute" unicode="&#x17a;" 
d="M40 0l16 102l349 352h-284l15 96h412l-16 -102l-353 -352h308l-15 -96h-432zM288 645l128 140h121l-135 -140h-114z" />
    <glyph glyph-name="Zdotaccent" unicode="&#x17b;" 
d="M38 0l17 105l390 526h-301l16 99h420l-18 -105l-390 -526h318l-16 -99h-436zM384 812q-35 0 -52.5 18.5t-13.5 49.5q6 31 29.5 49.5t59.5 18.5q35 0 52.5 -18.5t12.5 -49.5t-28.5 -49.5t-59.5 -18.5z" />
    <glyph glyph-name="zdotaccent" unicode="&#x17c;" 
d="M40 0l16 102l349 352h-284l15 96h412l-16 -102l-353 -352h308l-15 -96h-432zM358 645q-35 0 -52.5 18.5t-13.5 49.5q6 32 29.5 50.5t58.5 18.5t53 -18.5t13 -50.5q-5 -31 -28.5 -49.5t-59.5 -18.5z" />
    <glyph glyph-name="Zcaron" unicode="&#x17d;" 
d="M38 0l17 105l390 526h-301l16 99h420l-18 -105l-390 -526h318l-16 -99h-436zM334 810l-116 140h107l68 -76l87 76h114l-160 -140h-100z" />
    <glyph glyph-name="zcaron" unicode="&#x17e;" 
d="M40 0l16 102l349 352h-284l15 96h412l-16 -102l-353 -352h308l-15 -96h-432zM309 645l-116 140h107l68 -76l87 76h114l-160 -140h-100z" />
    <glyph glyph-name="longs" unicode="&#x17f;" 
d="M-51 -180l15 93h108q42 0 65.5 20t29.5 59l91 575q8 50 35.5 86.5t70.5 56.5t98 20h170l-15 -96h-170q-35 0 -55.5 -17t-25.5 -51l-91 -576q-12 -79 -70 -124.5t-147 -45.5h-109z" />
    <glyph glyph-name="uni018F" unicode="&#x18f;" 
d="M254 -10q-67 0 -112 26.5t-64 74.5t-9 112l32 202h330l19 123q10 56 -13 86.5t-78 30.5q-54 0 -87.5 -30.5t-42.5 -87.5h-108q10 66 44 113.5t87.5 73.5t120.5 26q103 0 152 -57t33 -156l-51 -324q-10 -64 -44 -112t-87.5 -74.5t-121.5 -26.5zM268 77q59 0 90.5 32.5
t40.5 93.5l19 120h-230l10 8l-21 -128q-9 -62 13 -94t78 -32z" />
    <glyph glyph-name="florin" unicode="&#x192;" 
d="M-73 -180l16 101h111q48 0 81 27.5t40 74.5l45 282h-158l15 96h158l29 179q11 70 60 110t124 40h165l-15 -95h-160q-28 0 -45.5 -14t-21.5 -41l-28 -179h219l-15 -96h-219l-46 -287q-9 -59 -43.5 -104t-86.5 -69.5t-117 -24.5h-108z" />
    <glyph glyph-name="Ohorn" unicode="&#x1a0;" 
d="M450 625l11 75h29q17 0 27.5 9.5t12.5 25.5l12 75h89l-12 -79q-8 -48 -44.5 -77t-89.5 -29h-35zM254 -10q-67 0 -112.5 25.5t-64.5 74t-9 113.5l51 324q11 66 45 114t88 73.5t121 25.5q68 0 113.5 -25.5t65 -73.5t8.5 -113l-51 -325q-10 -65 -45 -113.5t-88.5 -74
t-121.5 -25.5zM269 86q55 0 89 30.5t43 86.5l51 324q9 57 -15 87t-79 30t-88.5 -30t-42.5 -87l-51 -324q-9 -56 15 -86.5t78 -30.5z" />
    <glyph glyph-name="ohorn" unicode="&#x1a1;" 
d="M415 455l12 75h42q17 0 27.5 9t12.5 26l12 75h88l-12 -79q-8 -48 -44.5 -77t-89.5 -29h-48zM254 -10q-67 0 -112.5 25.5t-64.5 74t-9 113.5l22 144q11 66 45.5 114t88.5 73.5t121 25.5q68 0 113 -25.5t64.5 -73.5t9.5 -113l-23 -145q-10 -65 -45 -113.5t-88.5 -74
t-121.5 -25.5zM269 85q55 0 89 30t43 88l22 144q10 58 -14.5 88t-78.5 30t-88 -30t-44 -88l-22 -144q-9 -58 15.5 -88t77.5 -30z" />
    <glyph glyph-name="Uhorn" unicode="&#x1af;" 
d="M498 655l12 75h50q17 0 27.5 9.5t12.5 25.5l12 75h89l-13 -79q-8 -48 -44.5 -77t-89.5 -29h-56zM254 -10q-105 0 -152.5 57.5t-31.5 156.5l83 526h108l-83 -526q-10 -55 13 -87t78 -32t88.5 32t42.5 87l83 526h108l-83 -526q-11 -66 -44.5 -114.5t-86.5 -74t-123 -25.5z
" />
    <glyph glyph-name="uhorn" unicode="&#x1b0;" 
d="M71 203l54 347h108l-55 -348q-9 -56 14 -87t71 -31q49 0 81.5 31t41.5 87l55 348h89q17 0 27.5 9t13.5 26l12 75h88l-12 -79q-8 -48 -39 -77t-83 -29l-43 -272q-10 -66 -44 -114t-85.5 -73.5t-117.5 -25.5q-96 0 -144 57t-32 156z" />
    <glyph glyph-name="uni01CD" unicode="&#x1cd;" 
d="M-1 0l302 730h142l70 -730h-106l-14 185h-207l-74 -185h-113zM220 274h166l-17 211q-4 56 -6.5 97.5t-2.5 56.5q-5 -15 -19.5 -56.5t-36.5 -96.5zM334 810l-116 140h107l68 -76l87 76h114l-160 -140h-100z" />
    <glyph glyph-name="uni01CE" unicode="&#x1ce;" 
d="M215 -10q-82 0 -122.5 56t-24.5 151l24 155q10 65 40 111t74.5 71.5t99.5 25.5q68 0 102.5 -37.5t23.5 -102.5l-19 25h24l15 105h107l-87 -550h-106l17 105h-23l27 25q-11 -65 -57.5 -102.5t-114.5 -37.5zM268 84q51 0 85.5 31.5t43.5 87.5l22 144q10 56 -14.5 87.5
t-76.5 31.5q-53 0 -86 -30.5t-43 -88.5l-22 -144q-10 -58 14 -88.5t77 -30.5zM314 645l-116 140h107l68 -76l87 76h114l-160 -140h-100z" />
    <glyph glyph-name="Gcaron" unicode="&#x1e6;" 
d="M258 -10q-68 0 -114.5 25.5t-66 74t-9.5 113.5l51 324q11 66 46 114t89.5 73.5t122.5 25.5t113.5 -26t66 -73.5t9.5 -113.5h-108q10 57 -15.5 87t-80.5 30t-90.5 -30t-44.5 -86l-51 -325q-9 -56 17 -87t80 -31q55 0 90 31t44 87l13 82h-136l15 95h244l-28 -177
q-10 -65 -45 -113t-89.5 -74t-122.5 -26zM334 810l-116 140h107l68 -76l87 76h114l-160 -140h-100z" />
    <glyph glyph-name="gcaron" unicode="&#x1e7;" 
d="M85 -180l14 93h169q42 0 66 20t30 59l9 55l18 102h-23l26 20q-11 -63 -56 -99t-112 -36q-85 0 -125.5 56t-25.5 151l18 112q10 64 39.5 110t75 71.5t101.5 25.5q67 0 101 -36.5t24 -99.5l-20 21h23l15 105h107l-88 -560q-13 -79 -70.5 -124.5t-146.5 -45.5h-169zM275 127
q52 0 86 31.5t44 87.5l15 101q10 56 -15 87.5t-76 31.5q-53 0 -86.5 -30.5t-42.5 -88.5l-16 -101q-9 -57 15 -88t76 -31zM306 645l-116 140h107l68 -76l87 76h114l-160 -140h-100z" />
    <glyph glyph-name="uni01EA" unicode="&#x1ea;" 
d="M295 -210q-57 0 -86.5 28t-22.5 71q2 16 15 35.5t33 39t45 35.5q-2 -2 -8.5 -5.5t-16.5 -3.5q-67 0 -112.5 25.5t-64.5 74t-9 113.5l51 324q11 66 45.5 114t88 73.5t120.5 25.5q69 0 114 -25.5t64.5 -73.5t8.5 -113l-51 -325q-10 -60 -40.5 -106.5t-77.5 -72.5l-39 -28
q-33 -25 -48 -46t-19 -40q-2 -20 9.5 -33t35.5 -13h63l-11 -74h-87zM270 86q55 0 88.5 30.5t42.5 86.5l51 324q10 57 -14.5 87t-79.5 30q-54 0 -87.5 -30t-43.5 -87l-51 -324q-9 -56 15.5 -86.5t78.5 -30.5z" />
    <glyph glyph-name="uni01EB" unicode="&#x1eb;" 
d="M291 -210q-57 0 -86.5 28t-22.5 71q4 25 26.5 52.5t72.5 60.5q-1 -2 -6 -5t-10.5 -5t-10.5 -2q-67 0 -112.5 25.5t-64.5 74t-9 113.5l22 144q11 66 45.5 114t88.5 73.5t121 25.5q68 0 113 -25.5t64.5 -73.5t9.5 -113l-23 -145q-10 -60 -41 -106t-78 -73l-38 -29
q-33 -24 -50 -45t-20 -40q-3 -20 8.5 -33t36.5 -13h62l-11 -74h-87zM269 85q55 0 89 30t43 88l22 144q10 58 -14.5 88t-78.5 30t-88 -30t-44 -88l-22 -144q-9 -58 15.5 -88t77.5 -30z" />
    <glyph glyph-name="uni01F4" unicode="&#x1f4;" 
d="M258 -10q-68 0 -114.5 25.5t-66 74t-9.5 113.5l51 324q11 66 46 114t89.5 73.5t122.5 25.5t113.5 -26t66 -73.5t9.5 -113.5h-108q10 57 -15.5 87t-80.5 30t-90.5 -30t-44.5 -86l-51 -325q-9 -56 17 -87t80 -31q55 0 90 31t44 87l13 82h-136l15 95h244l-28 -177
q-10 -65 -45 -113t-89.5 -74t-122.5 -26zM314 810l128 140h121l-135 -140h-114z" />
    <glyph glyph-name="uni01F5" unicode="&#x1f5;" 
d="M85 -180l14 93h169q42 0 66 20t30 59l9 55l18 102h-23l26 20q-11 -63 -56 -99t-112 -36q-85 0 -125.5 56t-25.5 151l18 112q10 64 39.5 110t75 71.5t101.5 25.5q67 0 101 -36.5t24 -99.5l-20 21h23l15 105h107l-88 -560q-13 -79 -70.5 -124.5t-146.5 -45.5h-169zM275 127
q52 0 86 31.5t44 87.5l15 101q10 56 -15 87.5t-76 31.5q-53 0 -86.5 -30.5t-42.5 -88.5l-16 -101q-9 -57 15 -88t76 -31zM287 645l128 140h121l-135 -140h-114z" />
    <glyph glyph-name="AEacute" unicode="&#x1fc;" 
d="M-23 0l259 730h409l-15 -95h-177l-33 -210h152l-16 -97h-151l-38 -233h177l-15 -95h-274l30 192h-135l-66 -192h-107zM178 276h120l58 359h-54zM319 810l128 140h121l-135 -140h-114z" />
    <glyph glyph-name="aeacute" unicode="&#x1fd;" 
d="M125 -10q-62 0 -92.5 39t-20.5 104l9 57q10 62 58.5 99t119.5 37h65l12 76q6 39 -6 57t-43 18q-26 0 -44.5 -17t-23.5 -46h-94q11 66 55 106t105 40q39 0 62 -12.5t34 -31t11 -35.5h5q6 17 21.5 35.5t42.5 31t64 12.5q67 0 99 -42.5t21 -114.5l-24 -149h-218l-16 -107
q-6 -33 7.5 -53.5t41.5 -20.5q29 0 48.5 16t23.5 44h94q-10 -64 -56.5 -103.5t-111.5 -39.5q-37 0 -60 12.5t-33 31t-10 35.5h-5q-5 -17 -22.5 -35.5t-47 -31t-71.5 -12.5zM161 73q28 0 48.5 20.5t26.5 53.5l16 107h-63q-29 0 -47.5 -17t-23.5 -47l-8 -57q-5 -28 9 -44
t42 -16zM354 326h124l13 77q5 34 -8.5 54t-43.5 20q-28 0 -47.5 -20t-24.5 -54zM288 645l128 140h121l-135 -140h-114z" />
    <glyph glyph-name="Oslashacute" unicode="&#x1fe;" 
d="M-21 -40l571 790h96l-571 -790h-96zM254 -10q-67 0 -112.5 25.5t-64.5 74t-9 113.5l51 324q11 66 45 114t88 73.5t121 25.5q68 0 113 -25.5t64.5 -73.5t9.5 -113l-51 -325q-10 -65 -45 -113.5t-88.5 -74t-121.5 -25.5zM269 86q56 0 90 30.5t43 86.5l51 324q10 57 -15 87
t-80 30t-89 -30t-44 -87l-51 -324q-9 -56 16 -86.5t79 -30.5zM314 810l128 140h121l-135 -140h-114z" />
    <glyph glyph-name="oslashacute" unicode="&#x1ff;" 
d="M-17 -30l534 620h100l-535 -620h-99zM254 -10q-67 0 -112.5 25.5t-64.5 74t-9 113.5l22 144q11 66 45.5 114t88.5 73.5t121 25.5q68 0 113.5 -25.5t65 -73.5t8.5 -113l-23 -145q-10 -65 -45 -113.5t-88.5 -74t-121.5 -25.5zM269 85q57 0 93 31.5t45 86.5l23 144
q9 56 -17.5 87t-82.5 31q-57 0 -93 -31t-45 -87l-23 -144q-9 -55 17.5 -86.5t82.5 -31.5zM288 645l128 140h121l-135 -140h-114z" />
    <glyph glyph-name="uni0218" unicode="&#x218;" 
d="M257 -10q-110 0 -165 54.5t-41 148.5h108q-8 -50 22 -78.5t92 -28.5q58 0 95.5 28t45.5 77q7 43 -11 73.5t-56 42.5l-87 26q-76 23 -112 78t-25 130q10 60 44 105t88 70t122 25q100 0 152 -54t38 -145h-108q8 48 -17.5 75.5t-80.5 27.5q-54 0 -87.5 -25.5t-40.5 -71.5
q-7 -42 10 -73t55 -43l90 -28q75 -23 110.5 -78t23.5 -131q-9 -62 -45.5 -108t-93 -71.5t-126.5 -25.5zM104 -240l118 145h118l-131 -145h-105z" />
    <glyph glyph-name="uni0219" unicode="&#x219;" 
d="M232 -10q-90 0 -137.5 41.5t-41.5 110.5h108q0 -27 22 -44t63 -17h43q50 0 77.5 20.5t33.5 53.5q4 32 -14.5 51.5t-61.5 25.5l-69 11q-85 13 -121.5 49t-25.5 108q11 76 67.5 118t154.5 42h38q85 0 130.5 -40t41.5 -106h-108q0 24 -20.5 39.5t-58.5 15.5h-38
q-47 0 -71 -18t-30 -52q-4 -30 11 -46t55 -23l71 -11q90 -14 128.5 -51t27.5 -110q-13 -79 -71.5 -123.5t-161.5 -44.5h-42zM96 -240l118 145h118l-131 -145h-105z" />
    <glyph glyph-name="uni021A" unicode="&#x21a;" 
d="M202 0l100 631h-195l16 100h498l-16 -100h-195l-100 -631h-108zM68 -240l118 145h118l-131 -145h-105z" />
    <glyph glyph-name="uni021B" unicode="&#x21b;" 
d="M316 0q-75 0 -110.5 41t-23.5 114l47 297h-152l15 98h152l24 150h108l-24 -150h215l-15 -98h-215l-47 -297q-10 -57 46 -57h150l-16 -98h-154zM104 -240l118 145h118l-131 -145h-105z" />
    <glyph glyph-name="uni0232" unicode="&#x232;" 
d="M202 0l42 269l-143 461h110l85 -276q8 -27 12.5 -50.5t5.5 -36.5q5 13 16 36.5t28 50.5l171 276h114l-291 -461l-42 -269h-108zM222 834l14 85h332l-14 -85h-332z" />
    <glyph glyph-name="uni0233" unicode="&#x233;" 
d="M83 -180l15 93h169q42 0 66 20t30 59l9 59l18 104h-27l30 25q-10 -66 -55.5 -103t-114.5 -37q-81 0 -122 52.5t-27 141.5l51 316h107l-48 -304q-9 -54 15.5 -84t74.5 -30q51 0 85.5 31.5t43.5 89.5l47 297h108l-89 -560q-11 -79 -69.5 -124.5t-146.5 -45.5h-170zM195 666
l14 85h332l-14 -85h-332z" />
    <glyph glyph-name="uni0237" unicode="&#x237;" 
d="M11 -180l16 100h138q56 0 91.5 30t44.5 85l65 416h-225l16 99h333l-82 -516q-10 -66 -45 -114t-89 -74t-122 -26h-141z" />
    <glyph glyph-name="uni0259" unicode="&#x259;" 
d="M254 -10q-68 0 -112.5 26.5t-63.5 74.5t-9 112l16 98h333l7 46q10 61 -13.5 93t-81.5 32q-47 0 -76.5 -16.5t-42.5 -48.5h-107q23 70 88 111.5t153 41.5q67 0 112 -26.5t64.5 -74t8.5 -112.5l-23 -144q-10 -64 -44 -112t-88 -74.5t-121 -26.5zM268 77q58 0 91.5 32.5
t43.5 93.5l4 25h-237l9 8l-5 -33q-10 -61 13 -93.5t81 -32.5z" />
    <glyph glyph-name="uni02B9" unicode="&#x2b9;" 
d="M179 410l129 311h144l-179 -311h-94z" />
    <glyph glyph-name="uni02BA" unicode="&#x2ba;" 
d="M347 409l129 311h144l-179 -311h-94zM72 409l129 311h144l-179 -311h-94z" />
    <glyph glyph-name="uni02BC" unicode="&#x2bc;" 
d="M188 465l129 311h144l-179 -311h-94z" />
    <glyph glyph-name="circumflex" unicode="&#x2c6;" 
d="M170 645l160 140h100l116 -140h-107l-67 76l-88 -76h-114z" />
    <glyph glyph-name="caron" unicode="&#x2c7;" 
d="M309 645l-116 140h107l68 -76l87 76h114l-160 -140h-100z" />
    <glyph glyph-name="uni02C9" unicode="&#x2c9;" 
d="M256.485 666l27.4629 85h332l-27.4629 -85h-332z" />
    <glyph glyph-name="breve" unicode="&#x2d8;" 
d="M357 639q-75 0 -114.5 40t-29.5 106h82q-5 -36 14.5 -58t56.5 -22q38 0 64.5 22t31.5 58h85q-10 -66 -62.5 -106t-127.5 -40z" />
    <glyph glyph-name="dotaccent" unicode="&#x2d9;" 
d="M358 645q-35 0 -52.5 18.5t-13.5 49.5q6 32 29.5 50.5t58.5 18.5t53 -18.5t13 -50.5q-5 -31 -28.5 -49.5t-59.5 -18.5z" />
    <glyph glyph-name="ring" unicode="&#x2da;" 
d="M352 605q-57 0 -86 32.5t-22 85.5q9 53 48.5 85.5t96.5 32.5t86.5 -32.5t20.5 -85.5q-7 -53 -47.5 -85.5t-96.5 -32.5zM361 663q27 0 46 16.5t23 43.5q5 28 -9 44.5t-41 16.5t-46 -16.5t-24 -44.5q-4 -27 10 -43.5t41 -16.5z" />
    <glyph glyph-name="ogonek" unicode="&#x2db;" 
d="M227 -210q-57 0 -87 28t-22 71q5 30 32 61t80 60h78l-20 -15q-33 -25 -50 -45.5t-21 -39.5q-2 -20 9.5 -33t35.5 -13h63l-12 -74h-86z" />
    <glyph glyph-name="tilde" unicode="&#x2dc;" 
d="M428 646q-30 0 -47.5 10t-28.5 23t-21.5 23.5t-26.5 10.5q-13 0 -23 -9t-13 -26l-4 -27h-71l5 31q8 47 39 74.5t74 27.5q30 0 47.5 -10t28 -23t21 -23.5t26.5 -10.5q14 0 23.5 8.5t12.5 24.5l5 29h71l-5 -31q-8 -47 -38.5 -74.5t-74.5 -27.5z" />
    <glyph glyph-name="hungarumlaut" unicode="&#x2dd;" 
d="M383 645l130 140h110l-137 -140h-103zM190 645l131 140h109l-137 -140h-103z" />
    <glyph glyph-name="uni02F3" unicode="&#x2f3;" 
d="M216 -253q-55 0 -84.5 28t-22.5 73q8 46 46 74t93 28t85 -28t22 -73q-7 -46 -45.5 -74t-93.5 -28zM223 -201q28 0 47 13.5t22 36.5q4 25 -10 37.5t-43 12.5q-26 0 -44.5 -13.5t-22.5 -37.5q-3 -22 10.5 -35.5t40.5 -13.5z" />
    <glyph glyph-name="uni02F7" unicode="&#x2f7;" 
d="M370 -219q-31 0 -50 10t-32 23.5t-25 23.5t-28 10q-13 0 -21.5 -8.5t-8.5 -25.5v-28h-71v32q0 47 26.5 74.5t69.5 27.5q31 0 50 -10t32 -23.5t25 -23.5t28 -10q14 0 22 8t8 25v29h71v-31q0 -48 -26 -75.5t-70 -27.5z" />
    <glyph glyph-name="gravecomb" unicode="&#x300;" horiz-adv-x="0" 
d="M349 645l-94 140h114l86 -140h-106z" />
    <glyph glyph-name="acutecomb" unicode="&#x301;" horiz-adv-x="0" 
d="M258 645l128 140h121l-135 -140h-114z" />
    <glyph glyph-name="uni0302" unicode="&#x302;" horiz-adv-x="0" 
d="M170 645l160 140h100l116 -140h-107l-67 76l-88 -76h-114z" />
    <glyph glyph-name="tildecomb" unicode="&#x303;" horiz-adv-x="0" 
d="M428 646q-30 0 -47.5 10t-28.5 23t-21.5 23.5t-26.5 10.5q-13 0 -23 -9t-13 -26l-4 -27h-71l5 31q8 47 39 74.5t74 27.5q30 0 47.5 -10t28 -23t21 -23.5t26.5 -10.5q14 0 23.5 8.5t12.5 24.5l5 29h71l-5 -31q-8 -47 -38.5 -74.5t-74.5 -27.5z" />
    <glyph glyph-name="uni0304" unicode="&#x304;" horiz-adv-x="0" 
d="M195 666l14 85h332l-14 -85h-332z" />
    <glyph glyph-name="uni0306" unicode="&#x306;" horiz-adv-x="0" 
d="M357 639q-75 0 -114.5 40t-29.5 106h82q-5 -36 14.5 -58t56.5 -22q38 0 64.5 22t31.5 58h85q-10 -66 -62.5 -106t-127.5 -40z" />
    <glyph glyph-name="uni0307" unicode="&#x307;" horiz-adv-x="0" 
d="M358 645q-35 0 -52.5 18.5t-13.5 49.5q6 32 29.5 50.5t58.5 18.5t53 -18.5t13 -50.5q-5 -31 -28.5 -49.5t-59.5 -18.5z" />
    <glyph glyph-name="uni0308" unicode="&#x308;" horiz-adv-x="0" 
d="M473 645q-32 0 -47.5 18.5t-10.5 49.5q5 32 26.5 50.5t52.5 18.5q32 0 47.5 -18.5t10.5 -50.5q-4 -31 -26 -49.5t-53 -18.5zM244 645q-31 0 -46.5 18.5t-11.5 49.5q5 32 26.5 50.5t53.5 18.5q31 0 47 -18.5t10 -50.5q-4 -31 -25.5 -49.5t-53.5 -18.5z" />
    <glyph glyph-name="hookabovecomb" unicode="&#x309;" horiz-adv-x="0" 
d="M306 645l59 62q9 9 13.5 17t5.5 14q3 19 -24 19h-77l11 71h105q41 0 62.5 -21t16.5 -57q-2 -15 -9.5 -29.5t-18.5 -26.5l-46 -49h-98z" />
    <glyph glyph-name="uni030A" unicode="&#x30a;" horiz-adv-x="0" 
d="M352 605q-57 0 -86 32.5t-22 85.5q9 53 48.5 85.5t96.5 32.5t86.5 -32.5t20.5 -85.5q-7 -53 -47.5 -85.5t-96.5 -32.5zM361 663q27 0 46 16.5t23 43.5q5 28 -9 44.5t-41 16.5t-46 -16.5t-24 -44.5q-4 -27 10 -43.5t41 -16.5z" />
    <glyph glyph-name="uni030B" unicode="&#x30b;" horiz-adv-x="0" 
d="M383 645l130 140h110l-137 -140h-103zM190 645l131 140h109l-137 -140h-103z" />
    <glyph glyph-name="uni030C" unicode="&#x30c;" horiz-adv-x="0" 
d="M309 645l-116 140h107l68 -76l87 76h114l-160 -140h-100z" />
    <glyph glyph-name="uni030F" unicode="&#x30f;" horiz-adv-x="0" 
d="M333 645h-98l-93 140h105zM521 645h-98l-93 140h104z" />
    <glyph glyph-name="uni0312" unicode="&#x312;" horiz-adv-x="0" 
d="M516 880l-117 -235h-136l167 235h86z" />
    <glyph glyph-name="uni031B" unicode="&#x31b;" horiz-adv-x="0" 
d="M519 475l12 75h36q17 0 27.5 9t13.5 26l12 75h88l-12 -79q-8 -48 -45 -77t-89 -29h-43z" />
    <glyph glyph-name="dotbelowcomb" unicode="&#x323;" horiz-adv-x="0" 
d="M221 -219q-35 0 -52.5 18t-13.5 50q5 31 29 49.5t59 18.5q36 0 53.5 -18.5t11.5 -49.5q-4 -32 -28 -50t-59 -18z" />
    <glyph glyph-name="uni0325" unicode="&#x325;" horiz-adv-x="0" 
d="M216 -253q-55 0 -84.5 28t-22.5 73q8 46 46 74t93 28t85 -28t22 -73q-7 -46 -45.5 -74t-93.5 -28zM223 -201q28 0 47 13.5t22 36.5q4 25 -10 37.5t-43 12.5q-26 0 -44.5 -13.5t-22.5 -37.5q-3 -22 10.5 -35.5t40.5 -13.5z" />
    <glyph glyph-name="uni0326" unicode="&#x326;" horiz-adv-x="0" 
d="M104 -240l118 145h118l-131 -145h-105z" />
    <glyph glyph-name="uni0327" unicode="&#x327;" horiz-adv-x="0" 
d="M123 -210l10 60h73q23 0 38.5 11.5t17.5 24.5q3 19 -23 32t-78 13l50 92h61l-30 -59q28 -3 56 -13t45 -28.5t12 -46.5q-5 -35 -44 -60.5t-95 -25.5h-93z" />
    <glyph glyph-name="uni0328" unicode="&#x328;" horiz-adv-x="0" 
d="M227 -210q-57 0 -87 28t-22 71q5 30 32 61t80 60h78l-20 -15q-33 -25 -50 -45.5t-21 -39.5q-2 -20 9.5 -33t35.5 -13h63l-12 -74h-86z" />
    <glyph glyph-name="uni0336" unicode="&#x336;" horiz-adv-x="0" 
d="M-629 281l13 82h660l-13 -82h-660z" />
    <glyph glyph-name="uni0338" unicode="&#x338;" horiz-adv-x="0" 
d="M65 -60l423 840h73l-423 -840h-73z" />
    <glyph glyph-name="uni0374" unicode="&#x374;" 
d="M179 410l129 311h144l-179 -311h-94z" />
    <glyph glyph-name="uni0375" unicode="&#x375;" 
d="M87 -160l129 311h148l-179 -311h-98z" />
    <glyph glyph-name="uni037E" unicode="&#x37e;" 
d="M94 -160l129 311h144l-179 -311h-94zM310 401q-35 0 -54 22.5t-13 57.5q5 34 31.5 56.5t60.5 22.5h20q34 0 53 -22.5t14 -56.5q-6 -35 -32 -57.5t-60 -22.5h-20z" />
    <glyph glyph-name="tonos" unicode="&#x384;" 
d="M261 645l128 140h116l-135 -140h-109z" />
    <glyph glyph-name="dieresistonos" unicode="&#x385;" 
d="M331 777l98 131h95l-108 -131h-85zM473 645q-32 0 -47.5 18.5t-10.5 49.5q5 32 26.5 50.5t52.5 18.5q32 0 47.5 -18.5t10.5 -50.5q-4 -31 -26 -49.5t-53 -18.5zM244 645q-31 0 -46.5 18.5t-11.5 49.5q5 32 26.5 50.5t53.5 18.5q31 0 47 -18.5t10 -50.5
q-4 -31 -25.5 -49.5t-53.5 -18.5z" />
    <glyph glyph-name="Alphatonos" unicode="&#x386;" 
d="M-1 0l302 730h142l70 -730h-106l-14 185h-207l-74 -185h-113zM220 274h166l-17 211q-4 56 -6.5 97.5t-2.5 56.5q-5 -15 -19.5 -56.5t-36.5 -96.5zM43 570l83 160h105l-91 -160h-97z" />
    <glyph glyph-name="anoteleia" unicode="&#x387;" 
d="M254 258q-40 0 -60.5 23.5t-13.5 63.5q6 41 34 65.5t68 24.5q41 0 61 -24.5t13 -65.5q-6 -40 -33.5 -63.5t-68.5 -23.5z" />
    <glyph glyph-name="Epsilontonos" unicode="&#x388;" 
d="M50 0l116 730h429l-15 -96h-323l-33 -207h288l-16 -95h-287l-38 -236h323l-15 -96h-429zM-78 570l83 160h105l-91 -160h-97z" />
    <glyph glyph-name="Etatonos" unicode="&#x389;" 
d="M-78 570l83 160h105l-91 -160h-97zM41 0l116 730h108l-49 -302h215l48 302h108l-116 -730h-108l52 328h-214l-52 -328h-108z" />
    <glyph glyph-name="Iotatonos" unicode="&#x38a;" 
d="M-78 570l83 160h105l-91 -160h-97zM54 0l15 96h148l85 538h-148l16 96h404l-15 -96h-148l-85 -538h148l-16 -96h-404z" />
    <glyph glyph-name="Omicrontonos" unicode="&#x38c;" 
d="M-44 570l83 160h105l-91 -160h-97zM254 -10q-67 0 -112.5 25.5t-64.5 74t-9 113.5l51 324q11 66 45 114t88 73.5t121 25.5q68 0 113.5 -25.5t65 -73.5t8.5 -113l-51 -325q-10 -65 -45 -113.5t-88.5 -74t-121.5 -25.5zM269 86q55 0 89 30.5t43 86.5l51 324q9 57 -15 87
t-79 30t-88.5 -30t-42.5 -87l-51 -324q-9 -56 15 -86.5t78 -30.5z" />
    <glyph glyph-name="Upsilontonos" unicode="&#x38e;" 
d="M-97 570l83 160h105l-91 -160h-97zM202 0l42 269l-143 461h110l85 -276q8 -27 12.5 -50.5t5.5 -36.5q5 13 16 36.5t28 50.5l171 276h114l-291 -461l-42 -269h-108z" />
    <glyph glyph-name="Omegatonos" unicode="&#x38f;" 
d="M6 0l16 98h145v5q-26 3 -52 20.5t-40.5 52t-6.5 87.5l41 259q11 67 46.5 115.5t91.5 75.5t126 27t117.5 -27t68 -75.5t9.5 -115.5l-41 -259q-8 -53 -33.5 -87t-57 -51.5t-58.5 -20.5l-1 -6h146l-16 -98h-211l23 146q36 0 64 31.5t36 80.5l41 264q9 57 -18.5 90t-82.5 33
q-56 0 -94.5 -33t-47.5 -90l-42 -264q-7 -49 10 -80.5t54 -31.5l-23 -146h-210zM-44 570l83 160h105l-91 -160h-97z" />
    <glyph glyph-name="iotadieresistonos" unicode="&#x390;" 
d="M372 0q-77 0 -116 46t-27 121l44 285h-195l16 98h303l-61 -383q-5 -32 10.5 -50.5t45.5 -18.5h132l-15 -98h-137zM331 777l98 131h95l-108 -131h-85zM473 645q-32 0 -47.5 18.5t-10.5 49.5q5 32 26.5 50.5t52.5 18.5q32 0 47.5 -18.5t10.5 -50.5q-4 -31 -26 -49.5
t-53 -18.5zM244 645q-31 0 -46.5 18.5t-11.5 49.5q5 32 26.5 50.5t53.5 18.5q31 0 47 -18.5t10 -50.5q-4 -31 -25.5 -49.5t-53.5 -18.5z" />
    <glyph glyph-name="Alpha" unicode="&#x391;" 
d="M-1 0l302 730h142l70 -730h-106l-14 185h-207l-74 -185h-113zM220 274h166l-17 211q-4 56 -6.5 97.5t-2.5 56.5q-5 -15 -19.5 -56.5t-36.5 -96.5z" />
    <glyph glyph-name="Beta" unicode="&#x392;" 
d="M41 0l116 730h215q104 0 155 -50t37 -138q-7 -50 -34.5 -86.5t-69 -56.5t-92.5 -20l1 10q56 1 94.5 -20.5t56 -63.5t7.5 -100q-10 -62 -44.5 -108.5t-89 -71.5t-123.5 -25h-229zM161 93h114q59 0 98 31t48 86q8 56 -20.5 90t-86.5 34h-115zM213 424h109q54 0 89.5 29
t43.5 78t-18.5 77.5t-79.5 28.5h-110z" />
    <glyph glyph-name="Gamma" unicode="&#x393;" 
d="M62 0l116 730h430l-15 -99h-324l-100 -631h-107z" />
    <glyph glyph-name="uni0394" unicode="&#x394;" 
d="M-1 0l302 730h142l70 -730h-514zM148 95h251l-32 390q-3 45 -5.5 88t-3.5 66q-8 -23 -22.5 -65.5t-33.5 -87.5z" />
    <glyph glyph-name="Epsilon" unicode="&#x395;" 
d="M50 0l116 730h429l-15 -96h-323l-33 -207h288l-16 -95h-287l-38 -236h323l-15 -96h-429z" />
    <glyph glyph-name="Zeta" unicode="&#x396;" 
d="M38 0l17 105l390 526h-301l16 99h420l-18 -105l-390 -526h318l-16 -99h-436z" />
    <glyph glyph-name="Eta" unicode="&#x397;" 
d="M41 0l116 730h108l-49 -302h215l48 302h108l-116 -730h-108l52 328h-214l-52 -328h-108z" />
    <glyph glyph-name="Theta" unicode="&#x398;" 
d="M222 327l15 99h173l-15 -99h-173zM254 -10q-67 0 -112.5 25.5t-64.5 74t-9 113.5l51 324q11 66 45 114t88 73.5t121 25.5q68 0 113.5 -25.5t65 -73.5t8.5 -113l-51 -325q-10 -65 -45 -113.5t-88.5 -74t-121.5 -25.5zM269 86q55 0 89 30.5t43 86.5l51 324q9 57 -15 87
t-79 30t-88.5 -30t-42.5 -87l-51 -324q-9 -56 15 -86.5t78 -30.5z" />
    <glyph glyph-name="Iota" unicode="&#x399;" 
d="M54 0l15 96h148l85 538h-148l16 96h404l-15 -96h-148l-85 -538h148l-16 -96h-404z" />
    <glyph glyph-name="Kappa" unicode="&#x39a;" 
d="M40 0l116 730h108l-49 -304h95l199 304h119l-230 -355l122 -375h-117l-104 329h-99l-52 -329h-108z" />
    <glyph glyph-name="Lambda" unicode="&#x39b;" 
d="M-1 0l302 730h142l70 -730h-106l-39 485q-3 42 -5.5 76.5t-3.5 56l-1 21.5l-6.5 -21t-19 -56t-29.5 -76l-191 -486h-113z" />
    <glyph glyph-name="Mu" unicode="&#x39c;" 
d="M22 0l116 730h131l35 -234q5 -33 9 -63.5t5 -45.5q6 15 17.5 45.5t27.5 63.5l108 234h135l-116 -730h-102l39 246q8 49 19.5 106.5t25.5 115.5t27.5 111t23.5 93l-163 -355h-105l-54 355q-1 -39 -4 -90.5t-8 -109.5t-11 -116.5t-15 -109.5l-39 -246h-102z" />
    <glyph glyph-name="Nu" unicode="&#x39d;" 
d="M37 0l116 730h135l118 -607q2 29 5.5 69t8.5 83t11 78l60 377h100l-116 -730h-135l-117 607q-2 -26 -5.5 -65t-8.5 -81t-11 -78l-61 -383h-100z" />
    <glyph glyph-name="Xi" unicode="&#x39e;" 
d="M132 631l16 99h448l-16 -99h-448zM32 0l15 99h449l-16 -99h-448zM112 320l16 100h389l-16 -100h-389z" />
    <glyph glyph-name="Omicron" unicode="&#x39f;" 
d="M254 -10q-67 0 -112.5 25.5t-64.5 74t-9 113.5l51 324q11 66 45 114t88 73.5t121 25.5q68 0 113.5 -25.5t65 -73.5t8.5 -113l-51 -325q-10 -65 -45 -113.5t-88.5 -74t-121.5 -25.5zM269 86q55 0 89 30.5t43 86.5l51 324q9 57 -15 87t-79 30t-88.5 -30t-42.5 -87l-51 -324
q-9 -56 15 -86.5t78 -30.5z" />
    <glyph glyph-name="Pi" unicode="&#x3a0;" 
d="M42 0l116 730h428l-116 -730h-108l100 631h-212l-100 -631h-108z" />
    <glyph glyph-name="Rho" unicode="&#x3a1;" 
d="M40 0l116 730h239q71 0 119 -27t68.5 -76.5t10.5 -116.5q-10 -66 -47 -116t-93.5 -77t-126.5 -27h-132l-46 -290h-108zM209 387h132q55 0 94 33.5t48 89.5q9 57 -19.5 90t-83.5 33h-132z" />
    <glyph glyph-name="Sigma" unicode="&#x3a3;" 
d="M11 0l16 100l353 274l-269 256l16 100h485l-16 -98h-281l-76 2l231 -211l-18 -113l-293 -216l67 4h286l-16 -98h-485z" />
    <glyph glyph-name="Tau" unicode="&#x3a4;" 
d="M202 0l100 631h-195l16 100h498l-16 -100h-195l-100 -631h-108z" />
    <glyph glyph-name="Upsilon" unicode="&#x3a5;" 
d="M202 0l42 269l-143 461h110l85 -276q8 -27 12.5 -50.5t5.5 -36.5q5 13 16 36.5t28 50.5l171 276h114l-291 -461l-42 -269h-108z" />
    <glyph glyph-name="Phi" unicode="&#x3a6;" 
d="M205 -25l11 70q-62 0 -104 26.5t-60.5 74t-8.5 110.5l37 229q11 66 43.5 113.5t83 74.5t113.5 27l11 70h94l-11 -70q63 0 104.5 -27t60 -74.5t7.5 -113.5l-36 -229q-10 -63 -43.5 -110.5t-83.5 -74t-113 -26.5l-11 -70h-94zM231 133l77 479q-34 0 -61.5 -15.5
t-45.5 -43.5t-25 -68l-36 -229q-9 -56 15.5 -89.5t75.5 -33.5zM322 133q35 0 62 15t45 42.5t24 65.5l36 229q10 59 -14.5 93t-75.5 34z" />
    <glyph glyph-name="Chi" unicode="&#x3a7;" 
d="M-10 0l264 375l-136 355h118l70 -199q6 -19 13 -38t10 -29q6 10 16.5 29t23.5 38l136 199h121l-249 -356l145 -374h-117l-80 216q-7 19 -13.5 38.5t-8.5 30.5q-6 -11 -18 -30l-24 -38l-148 -217h-123z" />
    <glyph glyph-name="Psi" unicode="&#x3a8;" 
d="M209 0l27 170q-93 1 -140.5 58.5t-32.5 152.5l56 349h97l-56 -349q-9 -56 15.5 -89.5t75.5 -33.5l75 472h92l-76 -472q35 0 62 15t45 42.5t24 65.5l55 349h97l-55 -349q-10 -63 -43.5 -110.5t-83.5 -73.5t-113 -27l-27 -170h-94z" />
    <glyph glyph-name="uni03A9" unicode="&#x3a9;" 
d="M6 0l16 98h145v5q-26 3 -52 20.5t-40.5 52t-6.5 87.5l41 259q11 67 46.5 115.5t91.5 75.5t126 27t117.5 -27t68 -75.5t9.5 -115.5l-41 -259q-8 -53 -33.5 -87t-57 -51.5t-58.5 -20.5l-1 -6h146l-16 -98h-211l23 146q36 0 64 31.5t36 80.5l41 264q9 57 -18.5 90t-82.5 33
q-56 0 -94.5 -33t-47.5 -90l-42 -264q-7 -49 10 -80.5t54 -31.5l-23 -146h-210z" />
    <glyph glyph-name="Iotadieresis" unicode="&#x3aa;" 
d="M54 0l15 96h148l85 538h-148l16 96h404l-15 -96h-148l-85 -538h148l-16 -96h-404zM499 813q-32 0 -47.5 18t-10.5 49q5 32 26.5 50.5t53.5 18.5q31 0 46.5 -18.5t10.5 -50.5q-4 -31 -26 -49t-53 -18zM270 813q-31 0 -46.5 18t-11.5 49q5 32 27 50.5t53 18.5
q32 0 47.5 -18.5t9.5 -50.5q-4 -31 -25.5 -49t-53.5 -18z" />
    <glyph glyph-name="Upsilondieresis" unicode="&#x3ab;" 
d="M202 0l42 269l-143 461h110l85 -276q8 -27 12.5 -50.5t5.5 -36.5q5 13 16 36.5t28 50.5l171 276h114l-291 -461l-42 -269h-108zM499 813q-32 0 -47.5 18t-10.5 49q5 32 26.5 50.5t53.5 18.5q31 0 46.5 -18.5t10.5 -50.5q-4 -31 -26 -49t-53 -18zM270 813q-31 0 -46.5 18
t-11.5 49q5 32 27 50.5t53 18.5q32 0 47.5 -18.5t9.5 -50.5q-4 -31 -25.5 -49t-53.5 -18z" />
    <glyph glyph-name="alphatonos" unicode="&#x3ac;" 
d="M284 645l128 140h116l-135 -140h-109zM215 -10q-82 0 -122.5 56t-24.5 151l24 155q10 65 40 111t74.5 71.5t99.5 25.5q68 0 102.5 -37.5t23.5 -102.5l-19 25h24l15 105h107l-87 -550h-106l17 105h-23l27 25q-11 -65 -57.5 -102.5t-114.5 -37.5zM268 84q51 0 85.5 31.5
t43.5 87.5l22 144q10 56 -14.5 87.5t-76.5 31.5q-53 0 -86 -30.5t-43 -88.5l-22 -144q-10 -58 14 -88.5t77 -30.5z" />
    <glyph glyph-name="epsilontonos" unicode="&#x3ad;" 
d="M282 -7h-50q-94 0 -143 43.5t-37 116.5q10 62 51.5 96.5t113.5 38.5v0q-61 2 -90.5 34.5t-21.5 83.5q8 46 37 80t76 52.5t108 18.5h48q84 0 133.5 -41.5t49.5 -107.5h-110q-2 25 -26 41.5t-62 16.5h-49q-28 0 -48 -8t-31.5 -23.5t-15.5 -37.5q-5 -33 13.5 -52.5
t59.5 -19.5h120l-13 -88h-124q-45 0 -73 -21t-34 -56q-5 -34 16.5 -55t65.5 -21h50q43 0 73.5 15.5t40.5 39.5h109q-20 -67 -84 -106.5t-153 -39.5zM275 645l128 140h116l-135 -140h-109z" />
    <glyph glyph-name="etatonos" unicode="&#x3ae;" 
d="M40 0l87 550h107l-17 -105h26l-30 -25q11 66 56 103t114 37q82 0 122.5 -52.5t26.5 -141.5l-87 -546h-108l85 534q8 54 -15.5 84t-74.5 30t-85 -31.5t-44 -89.5l-55 -347h-108zM296 645l128 140h116l-135 -140h-109z" />
    <glyph glyph-name="iotatonos" unicode="&#x3af;" 
d="M372 0q-77 0 -116 46t-27 121l44 285h-195l16 98h303l-61 -383q-5 -32 10.5 -50.5t45.5 -18.5h132l-15 -98h-137zM269 645l128 140h116l-135 -140h-109z" />
    <glyph glyph-name="upsilondieresistonos" unicode="&#x3b0;" 
d="M253 -10q-99 0 -148.5 57.5t-33.5 156.5l54 346h108l-54 -346q-9 -57 15 -88.5t75 -31.5t85.5 31.5t43.5 88.5l55 346h108l-55 -346q-10 -66 -44.5 -114t-88 -74t-120.5 -26zM331 777l98 131h95l-108 -131h-85zM473 645q-32 0 -47.5 18.5t-10.5 49.5q5 32 26.5 50.5
t52.5 18.5q32 0 47.5 -18.5t10.5 -50.5q-4 -31 -26 -49.5t-53 -18.5zM244 645q-31 0 -46.5 18.5t-11.5 49.5q5 32 26.5 50.5t53.5 18.5q31 0 47 -18.5t10 -50.5q-4 -31 -25.5 -49.5t-53.5 -18.5z" />
    <glyph glyph-name="alpha" unicode="&#x3b1;" 
d="M215 -10q-82 0 -122.5 56t-24.5 151l24 155q10 65 40 111t74.5 71.5t99.5 25.5q68 0 102.5 -37.5t23.5 -102.5l-19 25h24l15 105h107l-87 -550h-106l17 105h-23l27 25q-11 -65 -57.5 -102.5t-114.5 -37.5zM268 84q51 0 85.5 31.5t43.5 87.5l22 144q10 56 -14.5 87.5
t-76.5 31.5q-53 0 -86 -30.5t-43 -88.5l-22 -144q-10 -58 14 -88.5t77 -30.5z" />
    <glyph glyph-name="beta" unicode="&#x3b2;" 
d="M9 -180l114 709q10 63 44 111t87.5 74t119.5 26q67 0 114 -22.5t69 -64.5t12 -102q-10 -61 -48.5 -103.5t-98.5 -57.5q61 -16 89 -63.5t17 -118.5q-10 -61 -45.5 -108t-90 -73.5t-122.5 -26.5h-128l-29 -180h-104zM157 95h120q56 0 93.5 32.5t46.5 86.5t-18.5 85
t-84.5 31h-45l14 87h42q52 0 87 32t42 81q9 54 -17 84.5t-78 30.5q-53 0 -89 -31t-44 -85z" />
    <glyph glyph-name="gamma" unicode="&#x3b3;" 
d="M174 -180l29 180l-110 550h109l56 -348q4 -23 6.5 -43t4 -36t2 -25.5l0.5 -9.5l3.5 9.5t9.5 25.5t14 36t18 42l165 349h112l-282 -550l-29 -180h-108z" />
    <glyph glyph-name="delta" unicode="&#x3b4;" 
d="M52 220q9 62 42 110t81.5 75.5t105.5 27.5q25 0 44.5 -6t27.5 -16l5 4l-198 218l16 97h380l-14 -89h-265l178 -195q21 -22 41 -54.5t30.5 -75.5t1.5 -95q-10 -67 -49 -119.5t-97.5 -82t-128.5 -29.5q-69 0 -118.5 29.5t-71.5 81.5t-11 119zM163 224q-7 -41 4.5 -72.5
t37.5 -49t64 -17.5t69.5 17.5t53.5 49t28 72.5q7 41 -4.5 72.5t-38 49t-64.5 17.5q-37 0 -69 -17.5t-53.5 -49t-27.5 -72.5z" />
    <glyph glyph-name="epsilon" unicode="&#x3b5;" 
d="M282 -7h-50q-94 0 -143 43.5t-37 116.5q10 62 51.5 96.5t113.5 38.5v0q-61 2 -90.5 34.5t-21.5 83.5q8 46 37 80t76 52.5t108 18.5h48q84 0 133.5 -41.5t49.5 -107.5h-110q-2 25 -26 41.5t-62 16.5h-49q-28 0 -48 -8t-31.5 -23.5t-15.5 -37.5q-5 -33 13.5 -52.5
t59.5 -19.5h120l-13 -88h-124q-45 0 -73 -21t-34 -56q-5 -34 16.5 -55t65.5 -21h50q43 0 73.5 15.5t40.5 39.5h109q-20 -67 -84 -106.5t-153 -39.5z" />
    <glyph glyph-name="zeta" unicode="&#x3b6;" 
d="M46 187q5 36 20 69.5t42.5 69.5t71.5 80.5t107.5 99t149.5 125.5h-295l16 99h422l-17 -104l-195 -168q-57 -50 -96 -88.5t-63.5 -69t-37 -57t-17.5 -52.5q-7 -45 15.5 -70.5t68.5 -25.5h129q80 0 111.5 -30.5t12.5 -108.5l-34 -136h-107l32 130q13 50 -42 50h-118
q-99 0 -144.5 49t-31.5 138z" />
    <glyph glyph-name="eta" unicode="&#x3b7;" 
d="M40 0l87 550h107l-17 -105h26l-30 -25q11 66 56 103t114 37q82 0 122.5 -52.5t26.5 -141.5l-87 -546h-108l85 534q8 54 -15.5 84t-74.5 30t-85 -31.5t-44 -89.5l-55 -347h-108z" />
    <glyph glyph-name="theta" unicode="&#x3b8;" 
d="M254 -10q-67 0 -112.5 25.5t-64.5 74t-9 113.5l49 314q11 66 45.5 114t88.5 73.5t121 25.5q68 0 113 -25.5t64.5 -73.5t9.5 -113l-50 -315q-10 -65 -45 -113.5t-88.5 -74t-121.5 -25.5zM269 85q55 0 89 30t43 88l49 314q10 58 -14.5 88t-78.5 30t-88 -30t-44 -88
l-49 -314q-9 -58 15.5 -88t77.5 -30zM184 407h269l-14 -92h-269z" />
    <glyph glyph-name="iota" unicode="&#x3b9;" 
d="M372 0q-77 0 -116 46t-27 121l44 285h-195l16 98h303l-61 -383q-5 -32 10.5 -50.5t45.5 -18.5h132l-15 -98h-137z" />
    <glyph glyph-name="kappa" unicode="&#x3ba;" 
d="M45 0l87 550h108l-36 -221h86l182 221h124l-217 -268l133 -282h-122l-109 236h-91l-37 -236h-108z" />
    <glyph glyph-name="lambda" unicode="&#x3bb;" 
d="M-1 0l298 543l-43 187h114l145 -730h-113l-54 339q-5 31 -7.5 61.5t-1.5 47.5q-5 -17 -16.5 -47t-27.5 -62l-175 -339h-119z" />
    <glyph glyph-name="uni03BC" unicode="&#x3bc;" 
d="M11 -180l116 730h108l-55 -350q-9 -55 14 -85.5t75 -30.5t85 30.5t42 85.5l55 350h108l-55 -350q-16 -97 -80 -153.5t-159 -56.5q-46 0 -76 13t-44.5 32.5t-17.5 36.5h-5q1 0 3 -14.5t3.5 -34t0.5 -36.5l-14 -167h-104z" />
    <glyph glyph-name="nu" unicode="&#x3bd;" 
d="M185 0l-92 550h108l54 -352q5 -31 9 -62.5t5 -49.5q8 18 21 49.5t28 62.5l162 352h113l-266 -550h-142z" />
    <glyph glyph-name="xi" unicode="&#x3be;" 
d="M47 207q11 72 54 119t113 66q-56 17 -82 60.5t-16 105.5q14 85 84 134t176 49q110 0 165 -55t40 -150h-108q8 50 -21.5 80t-86.5 30t-96.5 -27.5t-47.5 -77.5q-7 -50 22 -84.5t87 -34.5h93l-15 -98h-94q-66 0 -106.5 -29.5t-48.5 -84.5q-9 -55 22 -84.5t97 -29.5h96
q79 0 111 -30.5t13 -107.5l-33 -137h-108l32 131q13 49 -42 49h-85q-120 0 -175 55t-40 151z" />
    <glyph glyph-name="omicron" unicode="&#x3bf;" 
d="M254 -10q-67 0 -112.5 25.5t-64.5 74t-9 113.5l22 144q11 66 45.5 114t88.5 73.5t121 25.5q68 0 113 -25.5t64.5 -73.5t9.5 -113l-23 -145q-10 -65 -45 -113.5t-88.5 -74t-121.5 -25.5zM269 85q55 0 89 30t43 88l22 144q10 58 -14.5 88t-78.5 30t-88 -30t-44 -88
l-22 -144q-9 -58 15.5 -88t77.5 -30z" />
    <glyph glyph-name="pi" unicode="&#x3c0;" 
d="M491 -5q-80 0 -119.5 49.5t-26.5 131.5l44 280h-156l-72 -456h-107l73 456h-78l15 94h539l-14 -92h-93l-45 -285q-6 -37 9 -58t48 -21h24l-16 -99h-25z" />
    <glyph glyph-name="rho" unicode="&#x3c1;" 
d="M11 -180l85 533q10 63 44.5 110t87.5 72t119 25t110.5 -25t63 -71.5t8.5 -110.5l-24 -155q-10 -64 -39.5 -110.5t-73.5 -72t-100 -25.5q-67 0 -101 37.5t-24 102.5l20 -25h-25l-17 -128l-26 -157h-108zM270 84q53 0 86 30.5t42 88.5l22 144q10 58 -13.5 88.5t-75.5 30.5
q-53 0 -85.5 -30.5t-42.5 -88.5l-23 -144q-9 -56 15 -87.5t75 -31.5z" />
    <glyph glyph-name="uni03C2" unicode="&#x3c2;" 
d="M69 208l21 139q11 66 46 114t90 73.5t123 25.5q99 0 152.5 -52t38.5 -142h-107q7 47 -20.5 73t-79.5 26q-55 0 -90 -30.5t-44 -86.5l-22 -136q-9 -58 17 -87.5t81 -29.5h100q80 0 111.5 -30.5t12.5 -108.5l-34 -136h-107l32 130q13 50 -42 50h-88q-103 0 -155 54.5
t-36 153.5z" />
    <glyph glyph-name="sigma" unicode="&#x3c3;" 
d="M68 203l22 141q11 66 45 114t88 73.5t121 25.5h238l-15 -95h-118l-4 -23l-27 26q28 0 50 -12t36.5 -32t21 -44.5t2.5 -49.5l-19 -124q-10 -65 -45 -113.5t-88.5 -74t-121.5 -25.5q-67 0 -112.5 25.5t-64.5 74t-9 113.5zM176 203q-9 -58 15.5 -88t77.5 -30q55 0 89 30
t43 88l22 141q10 61 -14.5 89.5t-79.5 28.5q-53 0 -87.5 -30t-43.5 -88z" />
    <glyph glyph-name="tau" unicode="&#x3c4;" 
d="M341 0q-75 0 -110.5 41t-23.5 114l47 297h-176l16 98h475l-15 -98h-192l-47 -297q-10 -57 46 -57h126l-15 -98h-131z" />
    <glyph glyph-name="upsilon" unicode="&#x3c5;" 
d="M253 -10q-99 0 -148.5 57.5t-33.5 156.5l54 346h108l-54 -346q-9 -57 15 -88.5t75 -31.5t85.5 31.5t43.5 88.5l55 346h108l-55 -346q-10 -66 -44.5 -114t-88 -74t-120.5 -26z" />
    <glyph glyph-name="phi" unicode="&#x3c6;" 
d="M180 -180l29 180q-94 0 -139.5 55t-30.5 148l55 347h94l-54 -347q-9 -55 16 -87t78 -32l74 466h114q81 0 121.5 -45t28.5 -123l-28 -179q-15 -93 -77.5 -148t-157.5 -55l-29 -180h-94zM310 84q53 0 88.5 32t44.5 87l28 179q7 40 -12 62.5t-58 22.5h-30z" />
    <glyph glyph-name="chi" unicode="&#x3c7;" 
d="M-10 -180l264 375l-136 355h118l70 -199q6 -19 13 -38t10 -29q6 10 16.5 29t23.5 38l136 199h121l-249 -356l145 -374h-117l-80 216q-7 19 -13.5 38.5t-8.5 30.5q-6 -11 -18 -30l-24 -38l-148 -217h-123z" />
    <glyph glyph-name="psi" unicode="&#x3c8;" 
d="M180 -180l29 180q-97 0 -142.5 54.5t-30.5 148.5l55 347h95l-55 -347q-9 -55 17.5 -86.5t80.5 -31.5l73 465h82l-74 -465q53 0 89.5 31.5t45.5 86.5l55 347h95l-55 -347q-15 -93 -77.5 -148t-159.5 -55l-29 -180h-94z" />
    <glyph glyph-name="omega" unicode="&#x3c9;" 
d="M136 -10q-60 0 -88.5 44.5t-16.5 122.5l31 193q14 85 64.5 142t118.5 68l-17 -108q-26 -7 -45.5 -35t-25.5 -67l-32 -197q-5 -35 7 -54t38 -19q28 0 46 19t23 54l31 197h82l-31 -197q-6 -35 6 -54t40 -19q27 0 44.5 19t23.5 54l31 197q6 39 -7 65t-36 33l17 108
q66 -10 100.5 -65.5t20.5 -140.5l-31 -193q-12 -78 -55 -122.5t-104 -44.5q-54 0 -81 36.5t-17 97.5h5q-10 -61 -48.5 -97.5t-93.5 -36.5z" />
    <glyph glyph-name="iotadieresis" unicode="&#x3ca;" 
d="M372 0q-77 0 -116 46t-27 121l44 285h-195l16 98h303l-61 -383q-5 -32 10.5 -50.5t45.5 -18.5h132l-15 -98h-137zM473 645q-32 0 -47.5 18.5t-10.5 49.5q5 32 26.5 50.5t52.5 18.5q32 0 47.5 -18.5t10.5 -50.5q-4 -31 -26 -49.5t-53 -18.5zM244 645q-31 0 -46.5 18.5
t-11.5 49.5q5 32 26.5 50.5t53.5 18.5q31 0 47 -18.5t10 -50.5q-4 -31 -25.5 -49.5t-53.5 -18.5z" />
    <glyph glyph-name="upsilondieresis" unicode="&#x3cb;" 
d="M253 -10q-99 0 -148.5 57.5t-33.5 156.5l54 346h108l-54 -346q-9 -57 15 -88.5t75 -31.5t85.5 31.5t43.5 88.5l55 346h108l-55 -346q-10 -66 -44.5 -114t-88 -74t-120.5 -26zM473 645q-32 0 -47.5 18.5t-10.5 49.5q5 32 26.5 50.5t52.5 18.5q32 0 47.5 -18.5t10.5 -50.5
q-4 -31 -26 -49.5t-53 -18.5zM244 645q-31 0 -46.5 18.5t-11.5 49.5q5 32 26.5 50.5t53.5 18.5q31 0 47 -18.5t10 -50.5q-4 -31 -25.5 -49.5t-53.5 -18.5z" />
    <glyph glyph-name="omicrontonos" unicode="&#x3cc;" 
d="M254 -10q-67 0 -112.5 25.5t-64.5 74t-9 113.5l22 144q11 66 45.5 114t88.5 73.5t121 25.5q68 0 113 -25.5t64.5 -73.5t9.5 -113l-23 -145q-10 -65 -45 -113.5t-88.5 -74t-121.5 -25.5zM269 85q55 0 89 30t43 88l22 144q10 58 -14.5 88t-78.5 30t-88 -30t-44 -88
l-22 -144q-9 -58 15.5 -88t77.5 -30zM291 645l128 140h116l-135 -140h-109z" />
    <glyph glyph-name="upsilontonos" unicode="&#x3cd;" 
d="M253 -10q-99 0 -148.5 57.5t-33.5 156.5l54 346h108l-54 -346q-9 -57 15 -88.5t75 -31.5t85.5 31.5t43.5 88.5l55 346h108l-55 -346q-10 -66 -44.5 -114t-88 -74t-120.5 -26zM291 645l128 140h116l-135 -140h-109z" />
    <glyph glyph-name="omegatonos" unicode="&#x3ce;" 
d="M136 -10q-60 0 -88.5 44.5t-16.5 122.5l31 193q14 85 64.5 142t118.5 68l-17 -108q-26 -7 -45.5 -35t-25.5 -67l-32 -197q-5 -35 7 -54t38 -19q28 0 46 19t23 54l31 197h82l-31 -197q-6 -35 6 -54t40 -19q27 0 44.5 19t23.5 54l31 197q6 39 -7 65t-36 33l17 108
q66 -10 100.5 -65.5t20.5 -140.5l-31 -193q-12 -78 -55 -122.5t-104 -44.5q-54 0 -81 36.5t-17 97.5h5q-10 -61 -48.5 -97.5t-93.5 -36.5zM280 645l128 140h116l-135 -140h-109z" />
    <glyph glyph-name="uni03CF" unicode="&#x3cf;" 
d="M283 -180l15 93h37q40 0 67.5 23t33.5 64l13 80h99l-13 -83q-13 -86 -67.5 -131.5t-144.5 -45.5h-40zM40 0l116 730h108l-49 -304h95l199 304h119l-230 -355l122 -375h-117l-104 329h-99l-52 -329h-108z" />
    <glyph glyph-name="uni03D7" unicode="&#x3d7;" 
d="M262 -180l15 93h37q40 0 67.5 22.5t33.5 62.5v2h-44l45 285q5 28 12 60.5t14.5 63.5t14.5 51l-280 -460h-135l87 550h99l-44 -285q-5 -28 -12.5 -61.5t-15.5 -65t-15 -54.5l281 466h135l-74 -470h44l-13 -83q-13 -86 -67.5 -131.5t-144.5 -45.5h-40z" />
    <glyph glyph-name="uni0401" unicode="&#x401;" 
d="M50 0l116 730h429l-15 -96h-323l-33 -207h288l-16 -95h-287l-38 -236h323l-15 -96h-429zM519 813q-32 0 -47.5 18t-10.5 49q5 32 26.5 50.5t53.5 18.5q31 0 46.5 -18.5t10.5 -50.5q-4 -31 -26 -49t-53 -18zM290 813q-31 0 -46.5 18t-11.5 49q5 32 27 50.5t53 18.5
q32 0 47.5 -18.5t9.5 -50.5q-4 -31 -25.5 -49t-53.5 -18z" />
    <glyph glyph-name="uni0402" unicode="&#x402;" 
d="M194 -180l16 101h67q49 0 81.5 27.5t39.5 74.5l43 270q9 54 -7 82t-55 28q-25 0 -53 -13.5t-59 -42.5l-48 -43l-48 -304h-108l100 633h-107l16 97h332l-16 -97h-117l-36 -230l18 16q83 76 167 76q73 0 109 -50.5t22 -136.5l-45 -290q-9 -59 -43.5 -104t-87 -69.5
t-117.5 -24.5h-64z" />
    <glyph glyph-name="uni0403" unicode="&#x403;" 
d="M62 0l116 730h430l-15 -99h-324l-100 -631h-107zM319 810l128 140h121l-135 -140h-114z" />
    <glyph glyph-name="uni0404" unicode="&#x404;" 
d="M258 -10q-68 0 -114 25.5t-65.5 74t-9.5 113.5l51 324q11 66 45.5 114t89 73.5t122.5 25.5t113.5 -26t65 -73.5t9.5 -113.5h-108q9 57 -15.5 87.5t-78.5 30.5q-55 0 -90 -30.5t-45 -86.5l-17 -111h219l-15 -98h-219l-19 -116q-9 -56 16.5 -87t79.5 -31q55 0 89.5 31
t43.5 87h108q-10 -65 -45 -113t-89 -74t-122 -26z" />
    <glyph glyph-name="uni0405" unicode="&#x405;" 
d="M257 -10q-110 0 -165 54.5t-41 148.5h108q-8 -50 22 -78.5t92 -28.5q58 0 95.5 28t45.5 77q7 43 -11 73.5t-56 42.5l-87 26q-76 23 -112 78t-25 130q10 60 44 105t88 70t122 25q100 0 152 -54t38 -145h-108q8 48 -17.5 75.5t-80.5 27.5q-54 0 -87.5 -25.5t-40.5 -71.5
q-7 -42 10 -73t55 -43l90 -28q75 -23 110.5 -78t23.5 -131q-9 -62 -45.5 -108t-93 -71.5t-126.5 -25.5z" />
    <glyph glyph-name="uni0406" unicode="&#x406;" 
d="M54 0l15 96h148l85 538h-148l16 96h404l-15 -96h-148l-85 -538h148l-16 -96h-404z" />
    <glyph glyph-name="uni0407" unicode="&#x407;" 
d="M54 0l15 96h148l85 538h-148l16 96h404l-15 -96h-148l-85 -538h148l-16 -96h-404zM499 813q-32 0 -47.5 18t-10.5 49q5 32 26.5 50.5t53.5 18.5q31 0 46.5 -18.5t10.5 -50.5q-4 -31 -26 -49t-53 -18zM270 813q-31 0 -46.5 18t-11.5 49q5 32 27 50.5t53 18.5
q32 0 47.5 -18.5t9.5 -50.5q-4 -31 -25.5 -49t-53.5 -18z" />
    <glyph glyph-name="uni0408" unicode="&#x408;" 
d="M224 -10q-108 0 -160.5 60t-36.5 163h108q-9 -61 18.5 -94.5t85.5 -33.5q59 0 97.5 33.5t47.5 93.5l67 419h-172l16 99h279l-82 -518q-10 -68 -46.5 -118t-93 -77t-128.5 -27z" />
    <glyph glyph-name="uni0409" unicode="&#x409;" 
d="M-51 -5l14 90h19q26 0 45.5 30.5t29.5 81.5l90 533h295l-47 -296h44q76 0 115.5 -44t27.5 -120l-17 -106q-11 -75 -64.5 -119.5t-130.5 -44.5h-135l102 645h-113l-76 -448q-10 -61 -36 -107t-62.5 -70.5t-81.5 -24.5h-19zM340 85h44q35 0 59.5 21.5t29.5 57.5l17 106
q5 36 -12.5 57.5t-52.5 21.5h-43z" />
    <glyph glyph-name="uni040A" unicode="&#x40a;" 
d="M5 0l116 730h92l-47 -293h138l47 293h91l-46 -293h43q79 0 117.5 -44t26.5 -120l-18 -109q-11 -76 -63.5 -120t-131.5 -44h-135l55 352h-137l-56 -352h-92zM340 85h44q36 0 60 21.5t29 57.5l17 109q6 38 -11 58.5t-53 20.5h-44z" />
    <glyph glyph-name="uni040B" unicode="&#x40b;" 
d="M63 0l100 633h-107l16 97h332l-16 -97h-117l-36 -230l18 16q83 76 167 76q73 0 109 -50.5t22 -136.5l-48 -308h-108l46 293q9 54 -7 82t-55 28q-25 0 -53 -13.5t-59 -42.5l-48 -43l-48 -304h-108z" />
    <glyph glyph-name="uni040C" unicode="&#x40c;" 
d="M314 810l128 140h121l-135 -140h-114zM40 0l116 730h108l-49 -304h95l199 304h119l-230 -355l122 -375h-117l-104 329h-99l-52 -329h-108z" />
    <glyph glyph-name="uni040E" unicode="&#x40e;" 
d="M138 0l102 188l-125 542h115l67 -339q7 -31 9.5 -61.5t2.5 -47.5q5 17 16 47.5t25 61.5l162 339h117l-377 -730h-114zM383 804q-75 0 -114.5 40t-29.5 106h83q-6 -36 13.5 -58t56.5 -22q38 0 64.5 22t31.5 58h85q-10 -66 -62.5 -106t-127.5 -40z" />
    <glyph glyph-name="uni040F" unicode="&#x40f;" 
d="M182 -125l20 125h-160l116 730h108l-101 -631h213l100 631h108l-116 -730h-160l-20 -125h-108z" />
    <glyph glyph-name="uni0410" unicode="&#x410;" 
d="M-1 0l302 730h142l70 -730h-106l-14 185h-207l-74 -185h-113zM220 274h166l-17 211q-4 56 -6.5 97.5t-2.5 56.5q-5 -15 -19.5 -56.5t-36.5 -96.5z" />
    <glyph glyph-name="uni0411" unicode="&#x411;" 
d="M42 0l116 730h422l-16 -99h-316l-31 -198h114q72 0 119.5 -27t68.5 -75.5t10 -113.5q-10 -66 -46 -114.5t-92.5 -75.5t-128.5 -27h-220zM163 95h115q57 0 94.5 32.5t46.5 88.5q10 57 -17.5 89.5t-85.5 32.5h-114z" />
    <glyph glyph-name="uni0412" unicode="&#x412;" 
d="M41 0l116 730h215q104 0 155 -50t37 -138q-7 -50 -34.5 -86.5t-69 -56.5t-92.5 -20l1 10q56 1 94.5 -20.5t56 -63.5t7.5 -100q-10 -62 -44.5 -108.5t-89 -71.5t-123.5 -25h-229zM161 93h114q59 0 98 31t48 86q8 56 -20.5 90t-86.5 34h-115zM213 424h109q54 0 89.5 29
t43.5 78t-18.5 77.5t-79.5 28.5h-110z" />
    <glyph glyph-name="uni0413" unicode="&#x413;" 
d="M62 0l116 730h430l-15 -99h-324l-100 -631h-107z" />
    <glyph glyph-name="uni0414" unicode="&#x414;" 
d="M-42 -140l36 232h41q15 20 32.5 53t33 75.5t23.5 90.5l74 419h383l-102 -638h67l-36 -232h-98l22 140h-356l-22 -140h-98zM145 92h229l87 544h-177l-56 -325q-8 -50 -23 -93t-31 -75.5t-29 -50.5z" />
    <glyph glyph-name="uni0415" unicode="&#x415;" 
d="M50 0l116 730h429l-15 -96h-323l-33 -207h288l-16 -95h-287l-38 -236h323l-15 -96h-429z" />
    <glyph glyph-name="uni0416" unicode="&#x416;" 
d="M-33 0l181 377l-56 353h100l44 -327h41l53 327h83l-52 -327h38l148 327h104l-168 -359l62 -371h-99l-50 342h-45l-52 -342h-84l53 342h-40l-158 -342h-103z" />
    <glyph glyph-name="uni0417" unicode="&#x417;" 
d="M247 -10q-106 0 -163.5 53.5t-48.5 144.5h108q-2 -48 30.5 -75.5t88.5 -27.5q63 0 104.5 33t51.5 86q8 54 -24 86.5t-94 32.5h-95l16 97h94q38 0 69 16t51 43t25 60q8 51 -21.5 78.5t-87.5 27.5q-55 0 -94.5 -30t-48.5 -80h-108q11 62 48 108t93.5 71.5t125.5 25.5
q107 0 162.5 -47.5t41.5 -134.5q-8 -51 -36.5 -91t-73 -62t-100.5 -21l2 15q60 1 100 -22.5t58 -67t9 -101.5q-10 -64 -48.5 -113t-99 -77t-135.5 -28z" />
    <glyph glyph-name="uni0418" unicode="&#x418;" 
d="M37 0l116 730h100l-60 -383q-6 -35 -14.5 -77t-17 -81t-14.5 -66l307 607h137l-116 -730h-100l59 377q6 36 15 79t17.5 83t15.5 68l-308 -607h-137z" />
    <glyph glyph-name="uni0419" unicode="&#x419;" 
d="M37 0l116 730h100l-60 -383q-6 -35 -14.5 -77t-17 -81t-14.5 -66l307 607h137l-116 -730h-100l59 377q6 36 15 79t17.5 83t15.5 68l-308 -607h-137zM383 804q-75 0 -114.5 40t-29.5 106h83q-6 -36 13.5 -58t56.5 -22q38 0 64.5 22t31.5 58h85q-10 -66 -62.5 -106
t-127.5 -40z" />
    <glyph glyph-name="uni041A" unicode="&#x41a;" 
d="M40 0l116 730h108l-49 -304h95l199 304h119l-230 -355l122 -375h-117l-104 329h-99l-52 -329h-108z" />
    <glyph glyph-name="uni041B" unicode="&#x41b;" 
d="M-26 -5l16 99h21q39 0 63.5 36t37.5 117l83 483h391l-116 -730h-108l100 631h-176l-66 -384q-14 -84 -43.5 -140t-73 -84t-101.5 -28h-28z" />
    <glyph glyph-name="uni041C" unicode="&#x41c;" 
d="M22 0l116 730h131l35 -234q5 -33 9 -63.5t5 -45.5q6 15 17.5 45.5t27.5 63.5l108 234h135l-116 -730h-102l39 246q8 49 19.5 106.5t25.5 115.5t27.5 111t23.5 93l-163 -355h-105l-54 355q-1 -39 -4 -90.5t-8 -109.5t-11 -116.5t-15 -109.5l-39 -246h-102z" />
    <glyph glyph-name="uni041D" unicode="&#x41d;" 
d="M41 0l116 730h108l-49 -302h215l48 302h108l-116 -730h-108l52 328h-214l-52 -328h-108z" />
    <glyph glyph-name="uni041E" unicode="&#x41e;" 
d="M254 -10q-67 0 -112.5 25.5t-64.5 74t-9 113.5l51 324q11 66 45 114t88 73.5t121 25.5q68 0 113.5 -25.5t65 -73.5t8.5 -113l-51 -325q-10 -65 -45 -113.5t-88.5 -74t-121.5 -25.5zM269 86q55 0 89 30.5t43 86.5l51 324q9 57 -15 87t-79 30t-88.5 -30t-42.5 -87l-51 -324
q-9 -56 15 -86.5t78 -30.5z" />
    <glyph glyph-name="uni041F" unicode="&#x41f;" 
d="M42 0l116 730h428l-116 -730h-108l100 631h-212l-100 -631h-108z" />
    <glyph glyph-name="uni0420" unicode="&#x420;" 
d="M40 0l116 730h239q71 0 119 -27t68.5 -76.5t10.5 -116.5q-10 -66 -47 -116t-93.5 -77t-126.5 -27h-132l-46 -290h-108zM209 387h132q55 0 94 33.5t48 89.5q9 57 -19.5 90t-83.5 33h-132z" />
    <glyph glyph-name="uni0421" unicode="&#x421;" 
d="M258 -10q-68 0 -114.5 25.5t-66 74t-9.5 113.5l51 324q11 66 46 114t89.5 73.5t122.5 25.5t113.5 -26t66 -73.5t9.5 -113.5h-108q10 57 -15.5 87t-80.5 30t-90.5 -30t-44.5 -86l-51 -325q-9 -56 17 -86.5t80 -30.5q55 0 90 30.5t44 86.5h108q-10 -65 -45 -113t-89.5 -74
t-122.5 -26z" />
    <glyph glyph-name="uni0422" unicode="&#x422;" 
d="M202 0l100 631h-195l16 100h498l-16 -100h-195l-100 -631h-108z" />
    <glyph glyph-name="uni0423" unicode="&#x423;" 
d="M138 0l102 188l-125 542h115l67 -339q7 -31 9.5 -61.5t2.5 -47.5q5 17 16 47.5t25 61.5l162 339h117l-377 -730h-114z" />
    <glyph glyph-name="uni0424" unicode="&#x424;" 
d="M205 -25l11 70q-62 0 -104 26.5t-60.5 74t-8.5 110.5l37 229q11 66 43.5 113.5t83 74.5t113.5 27l11 70h94l-11 -70q63 0 104.5 -27t60 -74.5t7.5 -113.5l-36 -229q-10 -63 -43.5 -110.5t-83.5 -74t-113 -26.5l-11 -70h-94zM231 133l77 479q-34 0 -61.5 -15.5
t-45.5 -43.5t-25 -68l-36 -229q-9 -56 15.5 -89.5t75.5 -33.5zM322 133q35 0 62 15t45 42.5t24 65.5l36 229q10 59 -14.5 93t-75.5 34z" />
    <glyph glyph-name="uni0425" unicode="&#x425;" 
d="M-10 0l264 375l-136 355h118l70 -199q6 -19 13 -38t10 -29q6 10 16.5 29t23.5 38l136 199h121l-249 -356l145 -374h-117l-80 216q-7 19 -13.5 38.5t-8.5 30.5q-6 -11 -18 -30l-24 -38l-148 -217h-123z" />
    <glyph glyph-name="uni0426" unicode="&#x426;" 
d="M405 -140l22 140h-385l116 730h108l-101 -632h193l100 632h108l-100 -632h75l-38 -238h-98z" />
    <glyph glyph-name="uni0427" unicode="&#x427;" 
d="M361 0l44 279q-13 -3 -47.5 -6.5t-81.5 -3.5q-96 0 -144 57.5t-32 154.5l40 249h107l-39 -246q-8 -54 20 -86t84 -32q42 0 70 3.5t38 6.5l57 354h107l-116 -730h-107z" />
    <glyph glyph-name="uni0428" unicode="&#x428;" 
d="M14 0l115 730h95l-103 -652h107l104 652h81l-103 -652h107l103 652h95l-116 -730h-485z" />
    <glyph glyph-name="uni0429" unicode="&#x429;" 
d="M418 -140l22 140h-427l116 730h90l-103 -647h105l103 647h79l-103 -647h105l103 647h90l-103 -647h53l-35 -223h-95z" />
    <glyph glyph-name="uni042A" unicode="&#x42a;" 
d="M84 0l101 637h-133l15 93h240l-47 -296h89q70 0 117.5 -27t69 -75.5t10.5 -114.5q-10 -65 -46.5 -114t-93 -76t-126.5 -27h-196zM207 96h85q56 0 95.5 33t48.5 88t-20.5 88t-85.5 33h-85z" />
    <glyph glyph-name="uni042B" unicode="&#x42b;" 
d="M14 0l116 730h96l-48 -296h37q90 0 134 -51t30 -139l-9 -55q-14 -88 -73.5 -138.5t-150.5 -50.5h-132zM124 90h36q48 0 77.5 26.5t36.5 73.5l9 54q7 48 -14 74.5t-68 26.5h-36zM402 0l116 730h96l-116 -730h-96z" />
    <glyph glyph-name="uni042C" unicode="&#x42c;" 
d="M42 0l116 730h108l-48 -296h131q70 0 117.5 -27t69 -75.5t10.5 -114.5q-10 -65 -46.5 -114t-93 -76t-126.5 -27h-238zM165 96h127q56 0 95.5 33t48.5 88t-20.5 88t-85.5 33h-127z" />
    <glyph glyph-name="uni042D" unicode="&#x42d;" 
d="M250 -10q-67 0 -113 26t-65 74t-9 113h108q-9 -56 15.5 -87t78.5 -31q55 0 90 31t44 87l19 116h-219l15 98h219l17 111q10 56 -15.5 86.5t-79.5 30.5q-55 0 -89.5 -30.5t-43.5 -87.5h-108q10 66 44.5 113.5t89 73.5t121.5 26q69 0 115 -25.5t65.5 -73.5t8.5 -114
l-51 -324q-10 -65 -45 -113.5t-89 -74t-123 -25.5z" />
    <glyph glyph-name="uni042E" unicode="&#x42e;" 
d="M344 -10q-76 0 -112 50.5t-22 136.5l24 154h-77l-52 -331h-95l116 730h95l-49 -311h76l21 134q14 87 66 137t128 50q80 0 118.5 -50t25.5 -137l-60 -376q-13 -86 -68 -136.5t-135 -50.5zM358 78q38 0 62 25t32 71l60 382q8 46 -8.5 71t-54.5 25q-37 0 -61 -25t-32 -71
l-60 -382q-8 -46 8.5 -71t53.5 -25z" />
    <glyph glyph-name="uni042F" unicode="&#x42f;" 
d="M6 0l226 356l3 -50q-51 8 -85.5 37t-48 73.5t-5.5 99.5q10 65 46.5 113t92 74.5t124.5 26.5h227l-116 -730h-108l48 300h-103l-183 -300h-118zM305 395h120l38 240h-120q-53 0 -90.5 -32.5t-47.5 -88.5q-8 -54 19 -86.5t81 -32.5z" />
    <glyph glyph-name="uni0430" unicode="&#x430;" 
d="M215 -10q-82 0 -122.5 56t-24.5 151l24 155q10 65 40 111t74.5 71.5t99.5 25.5q68 0 102.5 -37.5t23.5 -102.5l-19 25h24l15 105h107l-87 -550h-106l17 105h-23l27 25q-11 -65 -57.5 -102.5t-114.5 -37.5zM268 84q51 0 85.5 31.5t43.5 87.5l22 144q10 56 -14.5 87.5
t-76.5 31.5q-53 0 -86 -30.5t-43 -88.5l-22 -144q-10 -58 14 -88.5t77 -30.5z" />
    <glyph glyph-name="uni0431" unicode="&#x431;" 
d="M254 -10q-101 1 -151 58.5t-34 157.5l40 249q21 132 101 203.5t207 71.5h147l-17 -106h-147q-77 0 -123.5 -43.5t-59.5 -125.5l-10 -66h14l-16 -19q9 58 52.5 91.5t111.5 33.5q87 0 127 -56.5t24 -155.5l-13 -77q-10 -67 -44 -115.5t-87.5 -74.5t-121.5 -26zM269 85
q54 0 87.5 31.5t42.5 89.5l13 77q10 59 -14 90.5t-78 31.5q-53 0 -87 -31t-43 -91l-13 -77q-9 -58 15 -89.5t77 -31.5z" />
    <glyph glyph-name="uni0432" unicode="&#x432;" 
d="M41 0l87 550h242q90 0 134.5 -39t33.5 -108q-8 -57 -54.5 -91t-113.5 -34l1 9q74 0 112.5 -35.5t29.5 -94.5q-12 -74 -71.5 -115.5t-152.5 -41.5h-248zM161 87h140q44 0 72.5 20t33.5 55q6 36 -16 56.5t-67 20.5h-139zM197 319h136q40 0 66.5 19t31.5 53q5 33 -14.5 52.5
t-60.5 19.5h-136z" />
    <glyph glyph-name="uni0433" unicode="&#x433;" 
d="M277 -10h-42q-102 0 -146.5 44.5t-33.5 123.5q12 73 62 111t145 52l74 11q41 6 62 21.5t27 45.5q5 34 -13.5 52t-66.5 18h-38q-37 0 -62 -15.5t-34 -39.5h-108q12 44 42 77t75.5 51t101.5 18h38q98 0 140.5 -42t30.5 -118q-11 -72 -59 -108.5t-137 -49.5l-73 -10
q-44 -7 -69.5 -26t-30.5 -51q-5 -33 16 -53.5t70 -20.5h43q41 0 69.5 17t36.5 44h108q-11 -46 -42 -80t-78 -53t-108 -19z" />
    <glyph glyph-name="uni0434" unicode="&#x434;" 
d="M254 -10q-67 0 -112 26t-64 74.5t-8 115.5l11 77q16 99 73.5 155.5t144.5 56.5q69 0 101.5 -33.5t23.5 -91.5l-10 19h14l10 66q13 82 -19.5 125.5t-108.5 43.5h-148l16 106h147q127 0 184.5 -71.5t36.5 -203.5l-38 -249q-16 -100 -84 -157.5t-170 -58.5zM269 85
q54 0 88 31.5t43 89.5l11 77q10 60 -13.5 91t-78.5 31q-53 0 -86.5 -31.5t-43.5 -90.5l-11 -77q-10 -58 13.5 -89.5t77.5 -31.5z" />
    <glyph glyph-name="uni0435" unicode="&#x435;" 
d="M254 -10q-67 0 -112 26.5t-64.5 74.5t-9.5 112l22 144q11 65 46 112.5t88.5 74t120.5 26.5q68 0 113 -26.5t64.5 -74t8.5 -112.5l-15 -98h-337l-7 -46q-9 -61 15 -93t82 -32q47 0 77.5 16.5t42.5 48.5h107q-15 -47 -49.5 -81t-84 -53t-108.5 -19zM422 314l5 34
q10 60 -13.5 93t-81.5 33t-92.5 -33t-44.5 -94l-4 -25l240 1z" />
    <glyph glyph-name="uni0436" unicode="&#x436;" 
d="M-30 0l160 285l-65 265h97l53 -241h48l38 241h84l-38 -241h41l135 241h98l-149 -268l70 -282h-98l-58 251h-48l-40 -251h-84l40 251h-44l-137 -251h-103z" />
    <glyph glyph-name="uni0437" unicode="&#x437;" 
d="M228 -7q-88 0 -139 39.5t-52 106.5h110q2 -24 28 -39.5t68 -15.5h50q30 0 52 9.5t36 26.5t18 40q6 35 -15.5 56t-67.5 21h-123l15 88h119q42 0 67 19.5t30 52.5q3 22 -4.5 37.5t-24.5 23.5t-45 8h-48q-38 0 -67 -16.5t-40 -41.5h-110q15 45 48 78.5t80 52t102 18.5h49
q61 0 102 -18.5t59.5 -52.5t10.5 -80q-7 -51 -47 -83.5t-102 -34.5v0q71 -4 101.5 -38.5t20.5 -96.5q-7 -49 -38.5 -85t-80.5 -55.5t-112 -19.5h-50z" />
    <glyph glyph-name="uni0438" unicode="&#x438;" 
d="M217 -10q-81 0 -121.5 52.5t-27.5 141.5l58 366h108l-56 -354q-8 -54 16 -84t74 -30q51 0 85.5 31.5t43.5 89.5l55 347h108l-87 -550h-107l17 105h-26l30 25q-10 -66 -55.5 -103t-114.5 -37z" />
    <glyph glyph-name="uni0439" unicode="&#x439;" 
d="M217 -10q-81 0 -121.5 52.5t-27.5 141.5l58 366h108l-56 -354q-8 -54 16 -84t74 -30q51 0 85.5 31.5t43.5 89.5l55 347h108l-87 -550h-107l17 105h-26l30 25q-10 -66 -55.5 -103t-114.5 -37zM361 639q-75 0 -114.5 40t-29.5 106h82q-5 -36 14.5 -58t56.5 -22
q38 0 64.5 22t31.5 58h85q-10 -66 -62.5 -106t-127.5 -40z" />
    <glyph glyph-name="uni043A" unicode="&#x43a;" 
d="M45 0l87 550h108l-36 -221h86l182 221h124l-217 -268l133 -282h-122l-109 236h-91l-37 -236h-108z" />
    <glyph glyph-name="uni043B" unicode="&#x43b;" 
d="M-21 -5l16 99h22q40 0 63 32t36 108l56 316h385l-87 -550h-108l72 451h-172l-40 -223q-14 -79 -42.5 -131t-71 -77t-101.5 -25h-28z" />
    <glyph glyph-name="uni043C" unicode="&#x43c;" 
d="M22 0l87 550h134l37 -209q6 -33 9.5 -63.5t4.5 -46.5q6 16 18 46.5t28 63.5l99 209h138l-87 -550h-102l14 89q7 42 15.5 91.5t18.5 100.5t20 97.5t17 82.5l-138 -299h-104l-46 297q-4 -44 -12 -108t-17 -132.5t-18 -129.5l-14 -89h-102z" />
    <glyph glyph-name="uni043D" unicode="&#x43d;" 
d="M42 0l87 550h108l-35 -221h213l34 221h108l-87 -550h-108l37 230h-213l-36 -230h-108z" />
    <glyph glyph-name="uni043E" unicode="&#x43e;" 
d="M254 -10q-67 0 -112.5 25.5t-64.5 74t-9 113.5l22 144q11 66 45.5 114t88.5 73.5t121 25.5q68 0 113 -25.5t64.5 -73.5t9.5 -113l-23 -145q-10 -65 -45 -113.5t-88.5 -74t-121.5 -25.5zM269 85q55 0 89 30t43 88l22 144q10 58 -14.5 88t-78.5 30t-88 -30t-44 -88
l-22 -144q-9 -58 15.5 -88t77.5 -30z" />
    <glyph glyph-name="uni043F" unicode="&#x43f;" 
d="M42 0l87 550h428l-87 -550h-108l72 451h-213l-71 -451h-108z" />
    <glyph glyph-name="uni0440" unicode="&#x440;" 
d="M11 -180l116 730h107l-17 -105h23l-27 -25q10 65 57 102.5t115 37.5q83 0 122.5 -55.5t24.5 -151.5l-24 -155q-10 -64 -39.5 -110.5t-74 -72t-100.5 -25.5q-67 0 -102 37.5t-25 102.5l20 -25h-25l-17 -128l-26 -157h-108zM272 84q53 0 86.5 30.5t42.5 88.5l22 144
q10 58 -14 88.5t-76 30.5q-51 0 -85.5 -31.5t-44.5 -87.5l-23 -144q-9 -56 16.5 -87.5t75.5 -31.5z" />
    <glyph glyph-name="uni0441" unicode="&#x441;" 
d="M257 -10q-68 0 -114.5 25.5t-66 74t-9.5 113.5l22 144q11 66 46 114t90 73.5t123 25.5q99 0 150.5 -52t40.5 -142h-107q4 47 -22 73t-78 26q-55 0 -90 -30.5t-44 -86.5l-23 -145q-9 -56 16.5 -87t80.5 -31q52 0 86 26t45 73h108q-18 -90 -86.5 -142t-167.5 -52z" />
    <glyph glyph-name="uni0442" unicode="&#x442;" 
d="M202 0l72 453h-194l15 97h496l-15 -97h-194l-72 -453h-108z" />
    <glyph glyph-name="uni0443" unicode="&#x443;" 
d="M83 -180l15 93h169q42 0 66 20t30 59l9 59l18 104h-27l30 25q-10 -66 -55.5 -103t-114.5 -37q-81 0 -122 52.5t-27 141.5l51 316h107l-48 -304q-9 -54 15.5 -84t74.5 -30q51 0 85.5 31.5t43.5 89.5l47 297h108l-89 -560q-11 -79 -69.5 -124.5t-146.5 -45.5h-170z" />
    <glyph glyph-name="uni0444" unicode="&#x444;" 
d="M227 85l60 380q-52 0 -87 -30.5t-44 -86.5l-23 -145q-9 -55 16 -86.5t78 -31.5zM312 85q53 0 87.5 31.5t43.5 86.5l23 145q9 56 -15.5 86.5t-77.5 30.5zM207 -20l3 20q-96 0 -142 54.5t-31 148.5l22 145q15 94 79 148t159 54l3 21q11 74 62 116.5t134 42.5h116l-15 -91
h-124q-34 0 -55 -17.5t-26 -51.5l-3 -20q96 0 142 -54t31 -148l-22 -145q-15 -94 -78.5 -148.5t-159.5 -54.5l-3 -21q-8 -74 -60.5 -116.5t-135.5 -42.5h-116l15 91h124q35 0 56 18t25 51z" />
    <glyph glyph-name="uni0445" unicode="&#x445;" 
d="M2 0l235 287l-135 263h121l70 -152q5 -12 10.5 -25.5t7.5 -22.5q5 9 13.5 22.5t17.5 25.5l117 152h126l-219 -270l144 -280h-122l-77 165q-5 12 -11 27t-8 24q-6 -9 -15 -24t-18 -27l-131 -165h-126z" />
    <glyph glyph-name="uni0446" unicode="&#x446;" 
d="M405 -140l22 140h-385l87 550h108l-72 -452h193l71 452h108l-71 -452h75l-38 -238h-98z" />
    <glyph glyph-name="uni0447" unicode="&#x447;" 
d="M357 0l31 193q-16 -4 -47 -7.5t-66 -3.5q-104 -1 -154 51t-36 144l28 173h108l-27 -170q-8 -47 20.5 -74t84.5 -27q38 0 65.5 3.5t38.5 6.5l41 261h108l-87 -550h-108z" />
    <glyph glyph-name="uni0448" unicode="&#x448;" 
d="M14 0l86 550h95l-74 -472h107l75 472h81l-74 -472h107l74 472h95l-87 -550h-485z" />
    <glyph glyph-name="uni0449" unicode="&#x449;" 
d="M418 -140l22 140h-427l87 550h90l-74 -467h105l74 467h79l-74 -467h105l74 467h90l-74 -467h53l-35 -223h-95z" />
    <glyph glyph-name="uni044A" unicode="&#x44a;" 
d="M90 0l71 452h-134l16 98h242l-30 -191h107q97 0 144.5 -48t34.5 -132q-13 -82 -76.5 -130.5t-158.5 -48.5h-216zM213 96h105q48 0 77 21.5t36 62.5q6 40 -16.5 61.5t-70.5 21.5h-105z" />
    <glyph glyph-name="uni044B" unicode="&#x44b;" 
d="M14 0l87 550h96l-31 -194h40q89 0 134 -48t31 -131q-8 -54 -38 -94t-76.5 -61.5t-106.5 -21.5h-136zM123 85h40q48 0 78.5 24t38.5 68q7 45 -16 69.5t-71 24.5h-40zM402 0l87 550h96l-87 -550h-96z" />
    <glyph glyph-name="uni044C" unicode="&#x44c;" 
d="M46 0l87 550h108l-31 -191h152q97 0 144.5 -48t34.5 -132q-13 -82 -76.5 -130.5t-158.5 -48.5h-260zM169 96h149q48 0 77 21.5t36 62.5q6 40 -16.5 61.5t-70.5 21.5h-149z" />
    <glyph glyph-name="uni044D" unicode="&#x44d;" 
d="M250 -10q-99 0 -149.5 52t-39.5 142h108q-6 -47 20 -73t77 -26q55 0 89.5 31t43.5 87l5 31h-184l15 90h184l3 24q10 56 -15.5 86.5t-80.5 30.5q-51 0 -85 -26t-44 -73h-108q18 90 85.5 142t166.5 52q69 0 114.5 -25.5t65.5 -73.5t9 -114l-23 -144q-10 -65 -44.5 -113.5
t-89 -74t-123.5 -25.5z" />
    <glyph glyph-name="uni044E" unicode="&#x44e;" 
d="M342 -10q-72 0 -106.5 46.5t-22.5 122.5l12 80h-84l-38 -239h-95l87 550h95l-36 -232h84l12 73q12 77 61 123t122 46q76 0 114.5 -46t26.5 -123l-37 -232q-8 -51 -35 -89t-68 -59t-92 -21zM356 72q33 0 56.5 23t29.5 64l37 232q7 41 -9 64t-50 23q-33 0 -56 -23t-30 -64
l-37 -232q-6 -41 9.5 -64t49.5 -23z" />
    <glyph glyph-name="uni044F" unicode="&#x44f;" 
d="M13 0l203 244l2 -45q-76 9 -112.5 54.5t-24.5 117.5q13 84 76 131.5t160 47.5h240l-87 -550h-107l31 196h-105l-158 -196h-118zM278 286h130l27 172h-130q-47 0 -78 -22.5t-37 -63.5q-7 -41 16.5 -63.5t71.5 -22.5z" />
    <glyph glyph-name="uni0451" unicode="&#x451;" 
d="M473 645q-32 0 -47.5 18.5t-10.5 49.5q5 32 26.5 50.5t52.5 18.5q32 0 47.5 -18.5t10.5 -50.5q-4 -31 -26 -49.5t-53 -18.5zM244 645q-31 0 -46.5 18.5t-11.5 49.5q5 32 26.5 50.5t53.5 18.5q31 0 47 -18.5t10 -50.5q-4 -31 -25.5 -49.5t-53.5 -18.5zM254 -10
q-67 0 -112 26.5t-64.5 74.5t-9.5 112l22 144q11 65 46 112.5t88.5 74t120.5 26.5q68 0 113 -26.5t64.5 -74t8.5 -112.5l-15 -98h-337l-7 -46q-9 -61 15 -93t82 -32q47 0 77.5 16.5t42.5 48.5h107q-15 -47 -49.5 -81t-84 -53t-108.5 -19zM422 314l5 34q10 60 -13.5 93
t-81.5 33t-92.5 -33t-44.5 -94l-4 -25l240 1z" />
    <glyph glyph-name="uni0452" unicode="&#x452;" 
d="M177 -180l17 100h41q56 0 91 30t44 85l41 259q9 54 -14.5 84t-73.5 30q-52 0 -85.5 -31.5t-42.5 -89.5l-45 -287h-108l89 566h-86l13 79h86l14 85h108l-14 -85h159l-13 -79h-159l-11 -76l-19 -105h27l-31 -25q10 66 54.5 103t113.5 37q82 0 122 -52.5t26 -141.5l-43 -272
q-10 -66 -45.5 -114t-89 -74t-122.5 -26h-44z" />
    <glyph glyph-name="uni0453" unicode="&#x453;" 
d="M277 -10h-42q-102 0 -146.5 44.5t-33.5 123.5q12 73 62 111t145 52l74 11q41 6 62 21.5t27 45.5q5 34 -13.5 52t-66.5 18h-38q-37 0 -62 -15.5t-34 -39.5h-108q12 44 42 77t75.5 51t101.5 18h38q98 0 140.5 -42t30.5 -118q-11 -72 -59 -108.5t-137 -49.5l-73 -10
q-44 -7 -69.5 -26t-30.5 -51q-5 -33 16 -53.5t70 -20.5h43q41 0 69.5 17t36.5 44h108q-11 -46 -42 -80t-78 -53t-108 -19zM318 645l128 140h121l-135 -140h-114z" />
    <glyph glyph-name="uni0454" unicode="&#x454;" 
d="M260 -10q-68 0 -114 25.5t-65.5 74t-9.5 113.5l23 144q11 66 45.5 114t89 73.5t122.5 25.5q99 0 150 -52t40 -142h-108q5 47 -20.5 73t-77.5 26q-54 0 -88.5 -30.5t-44.5 -86.5l-3 -24h183l-14 -90h-184l-5 -31q-9 -56 16 -87t80 -31q52 0 85.5 26t44.5 73h108
q-18 -90 -86 -142t-167 -52z" />
    <glyph glyph-name="uni0455" unicode="&#x455;" 
d="M232 -10q-90 0 -137.5 41.5t-41.5 110.5h108q0 -27 22 -44t63 -17h43q50 0 77.5 20.5t33.5 53.5q4 32 -14.5 51.5t-61.5 25.5l-69 11q-85 13 -121.5 49t-25.5 108q11 76 67.5 118t154.5 42h38q85 0 130.5 -40t41.5 -106h-108q0 24 -20.5 39.5t-58.5 15.5h-38
q-47 0 -71 -18t-30 -52q-4 -30 11 -46t55 -23l71 -11q90 -14 128.5 -51t27.5 -110q-13 -79 -71.5 -123.5t-161.5 -44.5h-42z" />
    <glyph glyph-name="uni0456" unicode="&#x456;" 
d="M33 0l16 98h193l56 354h-168l15 98h273l-71 -452h178l-16 -98h-476zM374 645q-35 0 -52.5 18.5t-13.5 49.5q6 32 29.5 50.5t58.5 18.5t53 -18.5t13 -50.5q-5 -31 -28.5 -49.5t-59.5 -18.5z" />
    <glyph glyph-name="uni0457" unicode="&#x457;" 
d="M33 0l16 98h193l56 354h-168l15 98h273l-71 -452h178l-16 -98h-476zM489 645q-32 0 -47.5 18.5t-10.5 49.5q5 32 26.5 50.5t52.5 18.5q32 0 47.5 -18.5t10.5 -50.5q-4 -31 -26 -49.5t-53 -18.5zM260 645q-31 0 -46.5 18.5t-11.5 49.5q5 32 26.5 50.5t53.5 18.5
q31 0 47 -18.5t10 -50.5q-4 -31 -25.5 -49.5t-53.5 -18.5z" />
    <glyph glyph-name="uni0458" unicode="&#x458;" 
d="M11 -180l16 100h138q56 0 91.5 30t44.5 85l65 416h-225l16 99h333l-82 -516q-10 -66 -45 -114t-89 -74t-122 -26h-141zM446 645q-35 0 -52.5 18.5t-13.5 49.5q6 32 29.5 50.5t58.5 18.5t53 -18.5t13 -50.5q-5 -31 -28.5 -49.5t-59.5 -18.5z" />
    <glyph glyph-name="uni0459" unicode="&#x459;" 
d="M-43 -5l15 94h19q25 0 45 29t29 79l60 353h291l-31 -193h53q73 0 111 -42.5t27 -112.5l-8 -49q-10 -69 -61.5 -111t-124.5 -42h-143l73 463h-109l-45 -267q-16 -92 -64.5 -146.5t-117.5 -54.5h-19zM343 85h52q31 0 53.5 18.5t26.5 49.5l8 49q5 32 -11 51t-47 19h-53z" />
    <glyph glyph-name="uni045A" unicode="&#x45a;" 
d="M13 0l87 550h95l-31 -194h130l31 194h85l-30 -194h53q73 0 111 -42.5t27 -113.5l-7 -46q-7 -46 -33.5 -80.5t-66 -54t-87.5 -19.5h-139l43 271h-130l-43 -271h-95zM337 85h53q31 0 52.5 19t26.5 50l7 46q4 32 -10.5 51.5t-45.5 19.5h-53z" />
    <glyph glyph-name="uni045B" unicode="&#x45b;" 
d="M45 566l13 79h84l14 85h108l-14 -85h161l-13 -79h-160l-12 -76l-18 -105h1q17 55 59.5 85t104.5 30q82 0 122.5 -52.5t26.5 -141.5l-48 -306h-108l47 294q8 54 -16 84t-74 30q-52 0 -86 -31.5t-43 -89.5l-46 -287h-108l90 566h-85z" />
    <glyph glyph-name="uni045C" unicode="&#x45c;" 
d="M45 0l87 550h108l-36 -221h86l182 221h124l-217 -268l133 -282h-122l-109 236h-91l-37 -236h-108zM288 645l128 140h121l-135 -140h-114z" />
    <glyph glyph-name="uni045E" unicode="&#x45e;" 
d="M361 639q-75 0 -114.5 40t-29.5 106h82q-5 -36 14.5 -58t56.5 -22q38 0 64.5 22t31.5 58h85q-10 -66 -62.5 -106t-127.5 -40zM83 -180l15 93h169q42 0 66 20t30 59l9 59l18 104h-27l30 25q-10 -66 -55.5 -103t-114.5 -37q-81 0 -122 52.5t-27 141.5l51 316h107l-48 -304
q-9 -54 15.5 -84t74.5 -30q51 0 85.5 31.5t43.5 89.5l47 297h108l-89 -560q-11 -79 -69.5 -124.5t-146.5 -45.5h-170z" />
    <glyph glyph-name="uni045F" unicode="&#x45f;" 
d="M182 -125l20 125h-160l87 550h108l-72 -451h213l71 451h108l-87 -550h-160l-20 -125h-108z" />
    <glyph glyph-name="uni0490" unicode="&#x490;" 
d="M62 0l116 730h328l15 95h102l-30 -194h-324l-100 -631h-107z" />
    <glyph glyph-name="uni0491" unicode="&#x491;" 
d="M82 0l87 550h299l17 105h103l-33 -204h-294l-72 -451h-107z" />
    <glyph glyph-name="uni04AE" unicode="&#x4ae;" 
d="M202 0l42 269l-143 461h110l85 -276q8 -27 12.5 -50.5t5.5 -36.5q5 13 16 36.5t28 50.5l171 276h114l-291 -461l-42 -269h-108z" />
    <glyph glyph-name="uni04AF" unicode="&#x4af;" 
d="M174 -180l29 180l-110 550h109l56 -348q4 -23 6.5 -43t4 -36t2 -25.5l0.5 -9.5l3.5 9.5t9.5 25.5t14 36t18 42l165 349h112l-282 -550l-29 -180h-108z" />
    <glyph glyph-name="uni04E8" unicode="&#x4e8;" 
d="M254 -10q-103 0 -151.5 58t-32.5 157l50 321q11 66 45 114t87 74t121 26q103 0 152 -57.5t33 -156.5l-50 -321q-10 -65 -45 -113.5t-88 -75t-121 -26.5zM269 84q57 0 91.5 32.5t43.5 90.5l19 120h-230l-19 -120q-9 -58 15.5 -90.5t79.5 -32.5zM208 420h230l16 104
q9 58 -15 90t-80 32q-57 0 -91.5 -32t-43.5 -90z" />
    <glyph glyph-name="uni04E9" unicode="&#x4e9;" 
d="M254 -10q-66 0 -111.5 26t-64.5 74t-9 114l23 143q11 66 45 113.5t88 73.5t120 26t111 -26.5t65 -73.5t9 -112l-23 -144q-10 -65 -44.5 -113t-88 -74.5t-120.5 -26.5zM269 82q56 0 91.5 31.5t44.5 90.5l5 33h-234l-5 -33q-9 -59 16.5 -90.5t81.5 -31.5zM189 318h234l5 29
q10 58 -16 89.5t-82 31.5t-91 -31.5t-45 -89.5z" />
    <glyph glyph-name="Wgrave" unicode="&#x1e80;" 
d="M56 0l37 730h94l-34 -524q-1 -20 -3 -44t-4.5 -47t-4.5 -40q4 17 9.5 40t12 47t12.5 44l147 524h102l-25 -524q-1 -20 -2 -44t-2 -47t-2 -40q4 17 8.5 40t10.5 47l11 44l134 524h94l-198 -730h-125l25 531q1 21 2.5 44.5t3 46t3.5 37.5q-4 -15 -9.5 -37.5t-11.5 -46
t-12 -44.5l-147 -531h-126zM345 810l-94 140h114l86 -140h-106z" />
    <glyph glyph-name="wgrave" unicode="&#x1e81;" 
d="M69 0l2 550h89l-7 -363q-1 -25 -1.5 -55.5t-2.5 -50.5l15 50t17 56l115 363h93l-2 -363v-56.5t-1 -50.5q5 21 14 51.5t17 55.5l110 363h88l-175 -550h-114l2 359q0 28 0.5 59.5t0.5 50.5q-5 -19 -14.5 -50.5t-18.5 -59.5l-112 -359h-115zM319 645l-94 140h114l86 -140
h-106z" />
    <glyph glyph-name="Wacute" unicode="&#x1e82;" 
d="M56 0l37 730h94l-34 -524q-1 -20 -3 -44t-4.5 -47t-4.5 -40q4 17 9.5 40t12 47t12.5 44l147 524h102l-25 -524q-1 -20 -2 -44t-2 -47t-2 -40q4 17 8.5 40t10.5 47l11 44l134 524h94l-198 -730h-125l25 531q1 21 2.5 44.5t3 46t3.5 37.5q-4 -15 -9.5 -37.5t-11.5 -46
t-12 -44.5l-147 -531h-126zM314 810l128 140h121l-135 -140h-114z" />
    <glyph glyph-name="wacute" unicode="&#x1e83;" 
d="M69 0l2 550h89l-7 -363q-1 -25 -1.5 -55.5t-2.5 -50.5l15 50t17 56l115 363h93l-2 -363v-56.5t-1 -50.5q5 21 14 51.5t17 55.5l110 363h88l-175 -550h-114l2 359q0 28 0.5 59.5t0.5 50.5q-5 -19 -14.5 -50.5t-18.5 -59.5l-112 -359h-115zM288 645l128 140h121l-135 -140
h-114z" />
    <glyph glyph-name="Wdieresis" unicode="&#x1e84;" 
d="M56 0l37 730h94l-34 -524q-1 -20 -3 -44t-4.5 -47t-4.5 -40q4 17 9.5 40t12 47t12.5 44l147 524h102l-25 -524q-1 -20 -2 -44t-2 -47t-2 -40q4 17 8.5 40t10.5 47l11 44l134 524h94l-198 -730h-125l25 531q1 21 2.5 44.5t3 46t3.5 37.5q-4 -15 -9.5 -37.5t-11.5 -46
t-12 -44.5l-147 -531h-126zM499 813q-32 0 -47.5 18t-10.5 49q5 32 26.5 50.5t53.5 18.5q31 0 46.5 -18.5t10.5 -50.5q-4 -31 -26 -49t-53 -18zM270 813q-31 0 -46.5 18t-11.5 49q5 32 27 50.5t53 18.5q32 0 47.5 -18.5t9.5 -50.5q-4 -31 -25.5 -49t-53.5 -18z" />
    <glyph glyph-name="wdieresis" unicode="&#x1e85;" 
d="M69 0l2 550h89l-7 -363q-1 -25 -1.5 -55.5t-2.5 -50.5l15 50t17 56l115 363h93l-2 -363v-56.5t-1 -50.5q5 21 14 51.5t17 55.5l110 363h88l-175 -550h-114l2 359q0 28 0.5 59.5t0.5 50.5q-5 -19 -14.5 -50.5t-18.5 -59.5l-112 -359h-115zM473 645q-32 0 -47.5 18.5
t-10.5 49.5q5 32 26.5 50.5t52.5 18.5q32 0 47.5 -18.5t10.5 -50.5q-4 -31 -26 -49.5t-53 -18.5zM244 645q-31 0 -46.5 18.5t-11.5 49.5q5 32 26.5 50.5t53.5 18.5q31 0 47 -18.5t10 -50.5q-4 -31 -25.5 -49.5t-53.5 -18.5z" />
    <glyph glyph-name="uni1E9E" unicode="&#x1e9e;" 
d="M38 0l83 520q10 64 44.5 111t88 73t118.5 26h234l-17 -104l-221 -238l1 36q91 2 136.5 -55.5t30.5 -153.5q-10 -64 -46 -112.5t-90.5 -75.5t-122.5 -27h-63l15 95h54q57 0 94.5 33.5t47.5 90.5q9 55 -18.5 88t-84.5 33h-45l13 87l190 208h-123q-52 0 -88 -30.5t-45 -84.5
l-82 -520h-104z" />
    <glyph glyph-name="uni1EA0" unicode="&#x1ea0;" 
d="M-1 0l302 730h142l70 -730h-106l-14 185h-207l-74 -185h-113zM220 274h166l-17 211q-4 56 -6.5 97.5t-2.5 56.5q-5 -15 -19.5 -56.5t-36.5 -96.5zM231 -219q-35 0 -52.5 18t-13.5 50q5 31 29 49.5t59 18.5q36 0 53.5 -18.5t11.5 -49.5q-4 -32 -28 -50t-59 -18z" />
    <glyph glyph-name="uni1EA1" unicode="&#x1ea1;" 
d="M215 -10q-82 0 -122.5 56t-24.5 151l24 155q10 65 40 111t74.5 71.5t99.5 25.5q68 0 102.5 -37.5t23.5 -102.5l-19 25h24l15 105h107l-87 -550h-106l17 105h-23l27 25q-11 -65 -57.5 -102.5t-114.5 -37.5zM268 84q51 0 85.5 31.5t43.5 87.5l22 144q10 56 -14.5 87.5
t-76.5 31.5q-53 0 -86 -30.5t-43 -88.5l-22 -144q-10 -58 14 -88.5t77 -30.5zM226 -219q-35 0 -52.5 18t-13.5 50q5 31 29 49.5t59 18.5q36 0 53.5 -18.5t11.5 -49.5q-4 -32 -28 -50t-59 -18z" />
    <glyph glyph-name="uni1EA2" unicode="&#x1ea2;" 
d="M-1 0l302 730h142l70 -730h-106l-14 185h-207l-74 -185h-113zM220 274h166l-17 211q-4 56 -6.5 97.5t-2.5 56.5q-5 -15 -19.5 -56.5t-36.5 -96.5zM323 815l59 62q9 9 13.5 17t5.5 14q3 19 -24 19h-77l11 71h105q41 0 62.5 -21t16.5 -57q-2 -15 -9.5 -29.5t-18.5 -26.5
l-46 -49h-98z" />
    <glyph glyph-name="uni1EA3" unicode="&#x1ea3;" 
d="M215 -10q-82 0 -122.5 56t-24.5 151l24 155q10 65 40 111t74.5 71.5t99.5 25.5q68 0 102.5 -37.5t23.5 -102.5l-19 25h24l15 105h107l-87 -550h-106l17 105h-23l27 25q-11 -65 -57.5 -102.5t-114.5 -37.5zM268 84q51 0 85.5 31.5t43.5 87.5l22 144q10 56 -14.5 87.5
t-76.5 31.5q-53 0 -86 -30.5t-43 -88.5l-22 -144q-10 -58 14 -88.5t77 -30.5zM311 645l59 62q9 9 13.5 17t5.5 14q3 19 -24 19h-77l11 71h105q41 0 62.5 -21t16.5 -57q-2 -15 -9.5 -29.5t-18.5 -26.5l-46 -49h-98z" />
    <glyph glyph-name="uni1EA4" unicode="&#x1ea4;" 
d="M508 901l124 119h120l-131 -119h-113zM193 780l159 140h100l116 -140h-108l-65 76l-89 -76h-113zM-1 0l302 730h142l70 -730h-106l-14 185h-207l-74 -185h-113zM220 274h166l-17 211q-4 56 -6.5 97.5t-2.5 56.5q-5 -15 -19.5 -56.5t-36.5 -96.5z" />
    <glyph glyph-name="uni1EA5" unicode="&#x1ea5;" 
d="M215 -10q-82 0 -122.5 56t-24.5 151l24 155q10 65 40 111t74.5 71.5t99.5 25.5q68 0 102.5 -37.5t23.5 -102.5l-19 25h24l15 105h107l-87 -550h-106l17 105h-23l27 25q-11 -65 -57.5 -102.5t-114.5 -37.5zM268 84q51 0 85.5 31.5t43.5 87.5l22 144q10 56 -14.5 87.5
t-76.5 31.5q-53 0 -86 -30.5t-43 -88.5l-22 -144q-10 -58 14 -88.5t77 -30.5zM487 759l138 140h117l-145 -140h-110zM170 645l160 140h100l116 -140h-108l-66 76l-89 -76h-113z" />
    <glyph glyph-name="uni1EA6" unicode="&#x1ea6;" 
d="M-1 0l302 730h142l70 -730h-106l-14 185h-207l-74 -185h-113zM220 274h166l-17 211q-4 56 -6.5 97.5t-2.5 56.5q-5 -15 -19.5 -56.5t-36.5 -96.5zM549 901l-99 119h108l93 -119h-102zM193 780l159 140h100l116 -140h-108l-65 76l-89 -76h-113z" />
    <glyph glyph-name="uni1EA7" unicode="&#x1ea7;" 
d="M215 -10q-82 0 -122.5 56t-24.5 151l24 155q10 65 40 111t74.5 71.5t99.5 25.5q68 0 102.5 -37.5t23.5 -102.5l-19 25h24l15 105h107l-87 -550h-106l17 105h-23l27 25q-11 -65 -57.5 -102.5t-114.5 -37.5zM268 84q51 0 85.5 31.5t43.5 87.5l22 144q10 56 -14.5 87.5
t-76.5 31.5q-53 0 -86 -30.5t-43 -88.5l-22 -144q-10 -58 14 -88.5t77 -30.5zM541 759l-108 140h110l102 -140h-104zM170 645l160 140h100l116 -140h-108l-66 76l-89 -76h-113z" />
    <glyph glyph-name="uni1EA8" unicode="&#x1ea8;" 
d="M517 877l51 43q6 5 8.5 10t3.5 10q3 17 -15 17h-64l11 63h87q37 0 56.5 -18t13.5 -50q-2 -13 -9 -25t-17 -21l-34 -29h-92zM193 780l159 140h100l116 -140h-108l-65 76l-89 -76h-113zM-1 0l302 730h142l70 -730h-106l-14 185h-207l-74 -185h-113zM220 274h166l-17 211
q-4 56 -6.5 97.5t-2.5 56.5q-5 -15 -19.5 -56.5t-36.5 -96.5z" />
    <glyph glyph-name="uni1EA9" unicode="&#x1ea9;" 
d="M215 -10q-82 0 -122.5 56t-24.5 151l24 155q10 65 40 111t74.5 71.5t99.5 25.5q68 0 102.5 -37.5t23.5 -102.5l-19 25h24l15 105h107l-87 -550h-106l17 105h-23l27 25q-11 -65 -57.5 -102.5t-114.5 -37.5zM268 84q51 0 85.5 31.5t43.5 87.5l22 144q10 56 -14.5 87.5
t-76.5 31.5q-53 0 -86 -30.5t-43 -88.5l-22 -144q-10 -58 14 -88.5t77 -30.5zM495 759l56 60q14 14 15 26q3 22 -24 22h-56l10 67h77q44 0 67.5 -20.5t17.5 -54.5q-4 -28 -27 -53l-42 -47h-94zM170 645l160 140h100l116 -140h-108l-66 76l-89 -76h-113z" />
    <glyph glyph-name="uni1EAA" unicode="&#x1eaa;" 
d="M-1 0l302 730h142l70 -730h-106l-14 185h-207l-74 -185h-113zM220 274h166l-17 211q-4 56 -6.5 97.5t-2.5 56.5q-5 -15 -19.5 -56.5t-36.5 -96.5zM479 917q-29 0 -47.5 6.5t-33 15t-28 15t-32.5 6.5q-28 0 -33 -28l-1 -6h-71l1 6q6 40 35.5 64t72.5 24q28 0 47 -6.5
t33 -15t27 -15t32 -6.5q13 0 22 8t11 20l1 6h71l-1 -6q-6 -40 -34.5 -64t-71.5 -24zM193 780l126 108h155l93 -108h-109l-65 74l-88 -74h-112z" />
    <glyph glyph-name="uni1EAB" unicode="&#x1eab;" 
d="M215 -10q-82 0 -122.5 56t-24.5 151l24 155q10 65 40 111t74.5 71.5t99.5 25.5q68 0 102.5 -37.5t23.5 -102.5l-19 25h24l15 105h107l-87 -550h-106l17 105h-23l27 25q-11 -65 -57.5 -102.5t-114.5 -37.5zM268 84q51 0 85.5 31.5t43.5 87.5l22 144q10 56 -14.5 87.5
t-76.5 31.5q-53 0 -86 -30.5t-43 -88.5l-22 -144q-10 -58 14 -88.5t77 -30.5zM453 816q-32 0 -49 9.5t-27.5 21.5t-20 21.5t-26.5 9.5q-29 0 -35 -31l-4 -24h-71l4 21q6 44 38 70.5t76 26.5q32 0 49 -9.5t27 -22t20 -21.5t26 -9q30 0 35 29l4 25h71l-3 -21
q-7 -43 -38.5 -69.5t-75.5 -26.5zM170 645l160 140h100l116 -140h-108l-66 76l-89 -76h-113z" />
    <glyph glyph-name="uni1EAC" unicode="&#x1eac;" 
d="M196 810l160 140h100l116 -140h-107l-67 76l-88 -76h-114zM-1 0l302 730h142l70 -730h-106l-14 185h-207l-74 -185h-113zM220 274h166l-17 211q-4 56 -6.5 97.5t-2.5 56.5q-5 -15 -19.5 -56.5t-36.5 -96.5zM231 -219q-35 0 -52.5 18t-13.5 50q5 31 29 49.5t59 18.5
q36 0 53.5 -18.5t11.5 -49.5q-4 -32 -28 -50t-59 -18z" />
    <glyph glyph-name="uni1EAD" unicode="&#x1ead;" 
d="M175 645l160 140h100l116 -140h-107l-67 76l-88 -76h-114zM215 -10q-82 0 -122.5 56t-24.5 151l24 155q10 65 40 111t74.5 71.5t99.5 25.5q68 0 102.5 -37.5t23.5 -102.5l-19 25h24l15 105h107l-87 -550h-106l17 105h-23l27 25q-11 -65 -57.5 -102.5t-114.5 -37.5z
M268 84q51 0 85.5 31.5t43.5 87.5l22 144q10 56 -14.5 87.5t-76.5 31.5q-53 0 -86 -30.5t-43 -88.5l-22 -144q-10 -58 14 -88.5t77 -30.5zM226 -219q-35 0 -52.5 18t-13.5 50q5 31 29 49.5t59 18.5q36 0 53.5 -18.5t11.5 -49.5q-4 -32 -28 -50t-59 -18z" />
    <glyph glyph-name="uni1EAE" unicode="&#x1eae;" 
d="M-1 0l302 730h142l70 -730h-106l-14 185h-207l-74 -185h-113zM220 274h166l-17 211q-4 56 -6.5 97.5t-2.5 56.5q-5 -15 -19.5 -56.5t-36.5 -96.5zM332 901l123 119h111l-130 -119h-104zM352 780q-68 0 -102.5 35.5t-24.5 95.5h77q-5 -29 11 -47t49 -18h55q33 0 55 18
t26 47h78q-10 -60 -55 -95.5t-114 -35.5h-55z" />
    <glyph glyph-name="uni1EAF" unicode="&#x1eaf;" 
d="M215 -10q-82 0 -122.5 56t-24.5 151l24 155q10 65 40 111t74.5 71.5t99.5 25.5q68 0 102.5 -37.5t23.5 -102.5l-19 25h24l15 105h107l-87 -550h-106l17 105h-23l27 25q-11 -65 -57.5 -102.5t-114.5 -37.5zM268 84q51 0 85.5 31.5t43.5 87.5l22 144q10 56 -14.5 87.5
t-76.5 31.5q-53 0 -86 -30.5t-43 -88.5l-22 -144q-10 -58 14 -88.5t77 -30.5zM357 639q-76 0 -119 36.5t-34 95.5h80q-4 -30 18 -47t65 -17q44 0 71 17t32 47h83q-7 -39 -34 -69t-69 -46.5t-93 -16.5zM313 767l136 133h109l-143 -133h-102z" />
    <glyph glyph-name="uni1EB0" unicode="&#x1eb0;" 
d="M-1 0l302 730h142l70 -730h-106l-14 185h-207l-74 -185h-113zM220 274h166l-17 211q-4 56 -6.5 97.5t-2.5 56.5q-5 -15 -19.5 -56.5t-36.5 -96.5zM352 780q-68 0 -102.5 35.5t-24.5 95.5h77q-5 -29 11 -47t49 -18h55q33 0 55 18t26 47h78q-10 -60 -55 -95.5t-114 -35.5
h-55zM369 901l-80 119h99l73 -119h-92z" />
    <glyph glyph-name="uni1EB1" unicode="&#x1eb1;" 
d="M215 -10q-82 0 -122.5 56t-24.5 151l24 155q10 65 40 111t74.5 71.5t99.5 25.5q68 0 102.5 -37.5t23.5 -102.5l-19 25h24l15 105h107l-87 -550h-106l17 105h-23l27 25q-11 -65 -57.5 -102.5t-114.5 -37.5zM268 84q51 0 85.5 31.5t43.5 87.5l22 144q10 56 -14.5 87.5
t-76.5 31.5q-53 0 -86 -30.5t-43 -88.5l-22 -144q-10 -58 14 -88.5t77 -30.5zM357 639q-76 0 -119 36.5t-34 95.5h80q-4 -30 18 -46.5t65 -16.5q44 0 71 16.5t32 46.5h83q-7 -39 -34 -69t-69 -46.5t-93 -16.5zM343 767l-100 133h103l94 -133h-97z" />
    <glyph glyph-name="uni1EB2" unicode="&#x1eb2;" 
d="M-1 0l302 730h142l70 -730h-106l-14 185h-207l-74 -185h-113zM220 274h166l-17 211q-4 56 -6.5 97.5t-2.5 56.5q-5 -15 -19.5 -56.5t-36.5 -96.5zM345 883l48 48q5 5 8 9.5t4 7.5q2 9 -11 9h-69l11 63h97q31 0 45.5 -14t9.5 -39q-2 -15 -8.5 -28.5t-16.5 -24.5l-29 -31
h-89zM352 780q-68 0 -102.5 35.5t-24.5 95.5h77q-5 -29 11 -47t49 -18h55q33 0 55 18t26 47h78q-10 -60 -55 -95.5t-114 -35.5h-55z" />
    <glyph glyph-name="uni1EB3" unicode="&#x1eb3;" 
d="M215 -10q-82 0 -122.5 56t-24.5 151l24 155q10 65 40 111t74.5 71.5t99.5 25.5q68 0 102.5 -37.5t23.5 -102.5l-19 25h24l15 105h107l-87 -550h-106l17 105h-23l27 25q-11 -65 -57.5 -102.5t-114.5 -37.5zM268 84q51 0 85.5 31.5t43.5 87.5l22 144q10 56 -14.5 87.5
t-76.5 31.5q-53 0 -86 -30.5t-43 -88.5l-22 -144q-10 -58 14 -88.5t77 -30.5zM357 639q-76 0 -119 36.5t-34 95.5h81q-5 -30 17.5 -46.5t64.5 -16.5q44 0 71.5 16.5t31.5 46.5h83q-7 -39 -34 -69t-69 -46.5t-93 -16.5zM321 766l56 60q14 15 15 26q3 22 -23 22h-57l11 68h76
q44 0 67.5 -21t18.5 -55q-2 -13 -9.5 -27t-17.5 -25l-43 -48h-94z" />
    <glyph glyph-name="uni1EB4" unicode="&#x1eb4;" 
d="M-1 0l302 730h142l70 -730h-106l-14 185h-207l-74 -185h-113zM220 274h166l-17 211q-4 56 -6.5 97.5t-2.5 56.5q-5 -15 -19.5 -56.5t-36.5 -96.5zM350 780q-64 0 -97 29.5t-24 87.5h77q-4 -26 10.5 -38.5t41.5 -12.5h64q28 0 46 12.5t22 38.5h78q-10 -58 -52 -87.5
t-106 -29.5h-60zM479 917q-29 0 -47.5 6.5t-33 15t-28 15t-32.5 6.5q-28 0 -33 -28l-1 -6h-71l1 6q6 40 35.5 64t72.5 24q28 0 47 -6.5t33 -15t27 -15t32 -6.5q13 0 22 8t11 20l1 6h71l-1 -6q-6 -40 -34.5 -64t-71.5 -24z" />
    <glyph glyph-name="uni1EB5" unicode="&#x1eb5;" 
d="M215 -10q-82 0 -122.5 56t-24.5 151l24 155q10 65 40 111t74.5 71.5t99.5 25.5q68 0 102.5 -37.5t23.5 -102.5l-19 25h24l15 105h107l-87 -550h-106l17 105h-23l27 25q-11 -65 -57.5 -102.5t-114.5 -37.5zM268 84q51 0 85.5 31.5t43.5 87.5l22 144q10 56 -14.5 87.5
t-76.5 31.5q-53 0 -86 -30.5t-43 -88.5l-22 -144q-10 -58 14 -88.5t77 -30.5zM358 642q-75 0 -115.5 37t-30.5 96h77q-6 -31 15 -48.5t62 -17.5q43 0 69 17.5t32 48.5h79q-6 -40 -32 -69.5t-66.5 -46.5t-89.5 -17zM452 808q-31 0 -47.5 10t-27 23t-20.5 23t-27 10
q-30 0 -35 -31l-5 -27h-71l4 24q7 44 38.5 70t75.5 26q31 0 47.5 -10t26.5 -22.5t20.5 -22.5t27.5 -10q15 0 24 8t11 21l4 29h71l-3 -25q-7 -43 -38.5 -69.5t-75.5 -26.5z" />
    <glyph glyph-name="uni1EB6" unicode="&#x1eb6;" 
d="M383 804q-75 0 -114.5 40t-29.5 106h83q-6 -36 13.5 -58t56.5 -22q38 0 64.5 22t31.5 58h85q-10 -66 -62.5 -106t-127.5 -40zM-1 0l302 730h142l70 -730h-106l-14 185h-207l-74 -185h-113zM220 274h166l-17 211q-4 56 -6.5 97.5t-2.5 56.5q-5 -15 -19.5 -56.5
t-36.5 -96.5zM231 -219q-35 0 -52.5 18t-13.5 50q5 31 29 49.5t59 18.5q36 0 53.5 -18.5t11.5 -49.5q-4 -32 -28 -50t-59 -18z" />
    <glyph glyph-name="uni1EB7" unicode="&#x1eb7;" 
d="M363 639q-75 0 -114.5 40t-29.5 106h82q-5 -36 14.5 -58t56.5 -22q38 0 64.5 22t31.5 58h85q-10 -66 -62.5 -106t-127.5 -40zM215 -10q-82 0 -122.5 56t-24.5 151l24 155q10 65 40 111t74.5 71.5t99.5 25.5q68 0 102.5 -37.5t23.5 -102.5l-19 25h24l15 105h107l-87 -550
h-106l17 105h-23l27 25q-11 -65 -57.5 -102.5t-114.5 -37.5zM268 84q51 0 85.5 31.5t43.5 87.5l22 144q10 56 -14.5 87.5t-76.5 31.5q-53 0 -86 -30.5t-43 -88.5l-22 -144q-10 -58 14 -88.5t77 -30.5zM226 -219q-35 0 -52.5 18t-13.5 50q5 31 29 49.5t59 18.5
q36 0 53.5 -18.5t11.5 -49.5q-4 -32 -28 -50t-59 -18z" />
    <glyph glyph-name="uni1EB8" unicode="&#x1eb8;" 
d="M50 0l116 730h429l-15 -96h-323l-33 -207h288l-16 -95h-287l-38 -236h323l-15 -96h-429zM241 -219q-35 0 -52.5 18t-13.5 50q5 31 29 49.5t59 18.5q36 0 53.5 -18.5t11.5 -49.5q-4 -32 -28 -50t-59 -18z" />
    <glyph glyph-name="uni1EB9" unicode="&#x1eb9;" 
d="M254 -10q-67 0 -112 26.5t-64.5 74.5t-9.5 112l22 144q11 65 46 112.5t88.5 74t120.5 26.5q68 0 113 -26.5t64.5 -74t8.5 -112.5l-15 -98h-337l-7 -46q-9 -61 15 -93t82 -32q47 0 77.5 16.5t42.5 48.5h107q-15 -47 -49.5 -81t-84 -53t-108.5 -19zM422 314l5 34
q10 60 -13.5 93t-81.5 33t-92.5 -33t-44.5 -94l-4 -25l240 1zM221 -219q-35 0 -52.5 18t-13.5 50q5 31 29 49.5t59 18.5q36 0 53.5 -18.5t11.5 -49.5q-4 -32 -28 -50t-59 -18z" />
    <glyph glyph-name="uni1EBA" unicode="&#x1eba;" 
d="M50 0l116 730h429l-15 -96h-323l-33 -207h288l-16 -95h-287l-38 -236h323l-15 -96h-429zM330 799l59 61q9 10 13.5 17.5t5.5 13.5q3 20 -24 20h-77l11 70h105q41 0 62.5 -20.5t16.5 -56.5q-2 -15 -9.5 -30t-18.5 -26l-46 -49h-98z" />
    <glyph glyph-name="uni1EBB" unicode="&#x1ebb;" 
d="M254 -10q-67 0 -112 26.5t-64.5 74.5t-9.5 112l22 144q11 65 46 112.5t88.5 74t120.5 26.5q68 0 113 -26.5t64.5 -74t8.5 -112.5l-15 -98h-337l-7 -46q-9 -61 15 -93t82 -32q47 0 77.5 16.5t42.5 48.5h107q-15 -47 -49.5 -81t-84 -53t-108.5 -19zM422 314l5 34
q10 60 -13.5 93t-81.5 33t-92.5 -33t-44.5 -94l-4 -25l240 1zM306 645l59 62q9 9 13.5 17t5.5 14q3 19 -24 19h-77l11 71h105q41 0 62.5 -21t16.5 -57q-2 -15 -9.5 -29.5t-18.5 -26.5l-46 -49h-98z" />
    <glyph glyph-name="uni1EBC" unicode="&#x1ebc;" 
d="M50 0l116 730h429l-15 -96h-323l-33 -207h288l-16 -95h-287l-38 -236h323l-15 -96h-429zM474 811q-30 0 -47.5 10t-28.5 23t-21.5 23.5t-26.5 10.5q-13 0 -23 -9t-12 -26l-5 -27h-71l5 31q8 47 39 74.5t74 27.5q30 0 47.5 -10t28.5 -23t21.5 -23.5t26.5 -10.5
q14 0 23 8.5t12 24.5l5 29h71l-5 -31q-8 -47 -38.5 -74.5t-74.5 -27.5z" />
    <glyph glyph-name="uni1EBD" unicode="&#x1ebd;" 
d="M254 -10q-67 0 -112 26.5t-64.5 74.5t-9.5 112l22 144q11 65 46 112.5t88.5 74t120.5 26.5q68 0 113 -26.5t64.5 -74t8.5 -112.5l-15 -98h-337l-7 -46q-9 -61 15 -93t82 -32q47 0 77.5 16.5t42.5 48.5h107q-15 -47 -49.5 -81t-84 -53t-108.5 -19zM422 314l5 34
q10 60 -13.5 93t-81.5 33t-92.5 -33t-44.5 -94l-4 -25l240 1zM428 646q-30 0 -47.5 10t-28.5 23t-21.5 23.5t-26.5 10.5q-13 0 -23 -9t-13 -26l-4 -27h-71l5 31q8 47 39 74.5t74 27.5q30 0 47.5 -10t28 -23t21 -23.5t26.5 -10.5q14 0 23.5 8.5t12.5 24.5l5 29h71l-5 -31
q-8 -47 -38.5 -74.5t-74.5 -27.5z" />
    <glyph glyph-name="uni1EBE" unicode="&#x1ebe;" 
d="M50 0l116 730h429l-15 -96h-323l-33 -207h288l-16 -95h-287l-38 -236h323l-15 -96h-429zM508 901l124 119h120l-131 -119h-113zM193 780l159 140h100l116 -140h-108l-65 76l-89 -76h-113z" />
    <glyph glyph-name="uni1EBF" unicode="&#x1ebf;" 
d="M254 -10q-67 0 -112 26.5t-64.5 74.5t-9.5 112l22 144q11 65 46 112.5t88.5 74t120.5 26.5q68 0 113 -26.5t64.5 -74t8.5 -112.5l-15 -98h-337l-7 -46q-9 -61 15 -93t82 -32q47 0 77.5 16.5t42.5 48.5h107q-15 -47 -49.5 -81t-84 -53t-108.5 -19zM422 314l5 34
q10 60 -13.5 93t-81.5 33t-92.5 -33t-44.5 -94l-4 -25l240 1zM487 759l138 140h117l-145 -140h-110zM170 645l160 140h100l116 -140h-108l-66 76l-89 -76h-113z" />
    <glyph glyph-name="uni1EC0" unicode="&#x1ec0;" 
d="M50 0l116 730h429l-15 -96h-323l-33 -207h288l-16 -95h-287l-38 -236h323l-15 -96h-429zM549 901l-99 119h108l93 -119h-102zM193 780l159 140h100l116 -140h-108l-65 76l-89 -76h-113z" />
    <glyph glyph-name="uni1EC1" unicode="&#x1ec1;" 
d="M254 -10q-67 0 -112 26.5t-64.5 74.5t-9.5 112l22 144q11 65 46 112.5t88.5 74t120.5 26.5q68 0 113 -26.5t64.5 -74t8.5 -112.5l-15 -98h-337l-7 -46q-9 -61 15 -93t82 -32q47 0 77.5 16.5t42.5 48.5h107q-15 -47 -49.5 -81t-84 -53t-108.5 -19zM422 314l5 34
q10 60 -13.5 93t-81.5 33t-92.5 -33t-44.5 -94l-4 -25l240 1zM541 759l-108 140h110l102 -140h-104zM170 645l160 140h100l116 -140h-108l-66 76l-89 -76h-113z" />
    <glyph glyph-name="uni1EC2" unicode="&#x1ec2;" 
d="M50 0l116 730h429l-15 -96h-323l-33 -207h288l-16 -95h-287l-38 -236h323l-15 -96h-429zM517 877l51 43q6 5 8.5 10t3.5 10q3 17 -15 17h-64l11 63h87q37 0 56.5 -18t13.5 -50q-2 -13 -9 -25t-17 -21l-34 -29h-92zM193 780l159 140h100l116 -140h-108l-65 76l-89 -76
h-113z" />
    <glyph glyph-name="uni1EC3" unicode="&#x1ec3;" 
d="M254 -10q-67 0 -112 26.5t-64.5 74.5t-9.5 112l22 144q11 65 46 112.5t88.5 74t120.5 26.5q68 0 113 -26.5t64.5 -74t8.5 -112.5l-15 -98h-337l-7 -46q-9 -61 15 -93t82 -32q47 0 77.5 16.5t42.5 48.5h107q-15 -47 -49.5 -81t-84 -53t-108.5 -19zM422 314l5 34
q10 60 -13.5 93t-81.5 33t-92.5 -33t-44.5 -94l-4 -25l240 1zM495 759l56 60q14 14 15 26q3 22 -24 22h-56l10 67h77q44 0 67.5 -20.5t17.5 -54.5q-4 -28 -27 -53l-42 -47h-94zM170 645l160 140h100l116 -140h-108l-66 76l-89 -76h-113z" />
    <glyph glyph-name="uni1EC4" unicode="&#x1ec4;" 
d="M50 0l116 730h429l-15 -96h-323l-33 -207h288l-16 -95h-287l-38 -236h323l-15 -96h-429zM479 917q-29 0 -47.5 6.5t-33 15t-28 15t-32.5 6.5q-28 0 -33 -28l-1 -6h-71l1 6q6 40 35.5 64t72.5 24q28 0 47 -6.5t33 -15t27 -15t32 -6.5q13 0 22 8t11 20l1 6h71l-1 -6
q-6 -40 -34.5 -64t-71.5 -24zM193 780l126 108h155l93 -108h-109l-65 74l-88 -74h-112z" />
    <glyph glyph-name="uni1EC5" unicode="&#x1ec5;" 
d="M254 -10q-67 0 -112 26.5t-64.5 74.5t-9.5 112l22 144q11 65 46 112.5t88.5 74t120.5 26.5q68 0 113 -26.5t64.5 -74t8.5 -112.5l-15 -98h-337l-7 -46q-9 -61 15 -93t82 -32q47 0 77.5 16.5t42.5 48.5h107q-15 -47 -49.5 -81t-84 -53t-108.5 -19zM422 314l5 34
q10 60 -13.5 93t-81.5 33t-92.5 -33t-44.5 -94l-4 -25l240 1zM453 816q-32 0 -49 9.5t-27.5 21.5t-20 21.5t-26.5 9.5q-29 0 -35 -31l-4 -24h-71l4 21q6 44 38 70.5t76 26.5q32 0 49 -9.5t27 -22t20 -21.5t26 -9q30 0 35 29l4 25h71l-3 -21q-7 -43 -38.5 -69.5t-75.5 -26.5z
M170 645l160 140h100l116 -140h-108l-66 76l-89 -76h-113z" />
    <glyph glyph-name="uni1EC6" unicode="&#x1ec6;" 
d="M196 810l160 140h100l116 -140h-107l-67 76l-88 -76h-114zM50 0l116 730h429l-15 -96h-323l-33 -207h288l-16 -95h-287l-38 -236h323l-15 -96h-429zM241 -219q-35 0 -52.5 18t-13.5 50q5 31 29 49.5t59 18.5q36 0 53.5 -18.5t11.5 -49.5q-4 -32 -28 -50t-59 -18z" />
    <glyph glyph-name="uni1EC7" unicode="&#x1ec7;" 
d="M174 645l160 140h100l116 -140h-107l-67 76l-88 -76h-114zM254 -10q-67 0 -112 26.5t-64.5 74.5t-9.5 112l22 144q11 65 46 112.5t88.5 74t120.5 26.5q68 0 113 -26.5t64.5 -74t8.5 -112.5l-15 -98h-337l-7 -46q-9 -61 15 -93t82 -32q47 0 77.5 16.5t42.5 48.5h107
q-15 -47 -49.5 -81t-84 -53t-108.5 -19zM422 314l5 34q10 60 -13.5 93t-81.5 33t-92.5 -33t-44.5 -94l-4 -25l240 1zM221 -219q-35 0 -52.5 18t-13.5 50q5 31 29 49.5t59 18.5q36 0 53.5 -18.5t11.5 -49.5q-4 -32 -28 -50t-59 -18z" />
    <glyph glyph-name="uni1EC8" unicode="&#x1ec8;" 
d="M54 0l15 96h148l85 538h-148l16 96h404l-15 -96h-148l-85 -538h148l-16 -96h-404zM347 799l59 61q9 10 13.5 17.5t5.5 13.5q3 20 -24 20h-77l11 70h105q41 0 62.5 -20.5t16.5 -56.5q-2 -15 -9.5 -30t-18.5 -26l-46 -49h-98z" />
    <glyph glyph-name="uni1EC9" unicode="&#x1ec9;" 
d="M33 0l16 98h193l56 354h-168l15 98h273l-71 -452h178l-16 -98h-476zM323 645l59 62q9 9 13.5 17t5.5 14q3 19 -24 19h-77l11 71h105q41 0 62.5 -21t16.5 -57q-2 -15 -9.5 -29.5t-18.5 -26.5l-46 -49h-98z" />
    <glyph glyph-name="uni1ECA" unicode="&#x1eca;" 
d="M54 0l15 96h148l85 538h-148l16 96h404l-15 -96h-148l-85 -538h148l-16 -96h-404zM224 -219q-35 0 -52.5 18t-13.5 50q5 31 29 49.5t59 18.5q36 0 53.5 -18.5t11.5 -49.5q-4 -32 -28 -50t-59 -18z" />
    <glyph glyph-name="uni1ECB" unicode="&#x1ecb;" 
d="M33 0l16 98h193l56 354h-168l15 98h273l-71 -452h178l-16 -98h-476zM374 645q-35 0 -52.5 18.5t-13.5 49.5q6 32 29.5 50.5t58.5 18.5t53 -18.5t13 -50.5q-5 -31 -28.5 -49.5t-59.5 -18.5zM237 -219q-35 0 -52.5 18t-13.5 50q5 31 29 49.5t59 18.5q36 0 53.5 -18.5
t11.5 -49.5q-4 -32 -28 -50t-59 -18z" />
    <glyph glyph-name="uni1ECC" unicode="&#x1ecc;" 
d="M254 -10q-67 0 -112.5 25.5t-64.5 74t-9 113.5l51 324q11 66 45 114t88 73.5t121 25.5q68 0 113.5 -25.5t65 -73.5t8.5 -113l-51 -325q-10 -65 -45 -113.5t-88.5 -74t-121.5 -25.5zM269 86q55 0 89 30.5t43 86.5l51 324q9 57 -15 87t-79 30t-88.5 -30t-42.5 -87l-51 -324
q-9 -56 15 -86.5t78 -30.5zM231 -219q-35 0 -52.5 18t-13.5 50q5 31 29 49.5t59 18.5q36 0 53.5 -18.5t11.5 -49.5q-4 -32 -28 -50t-59 -18z" />
    <glyph glyph-name="uni1ECD" unicode="&#x1ecd;" 
d="M254 -10q-67 0 -112.5 25.5t-64.5 74t-9 113.5l22 144q11 66 45.5 114t88.5 73.5t121 25.5q68 0 113 -25.5t64.5 -73.5t9.5 -113l-23 -145q-10 -65 -45 -113.5t-88.5 -74t-121.5 -25.5zM269 85q55 0 89 30t43 88l22 144q10 58 -14.5 88t-78.5 30t-88 -30t-44 -88
l-22 -144q-9 -58 15.5 -88t77.5 -30zM231 -219q-35 0 -52.5 18t-13.5 50q5 31 29 49.5t59 18.5q36 0 53.5 -18.5t11.5 -49.5q-4 -32 -28 -50t-59 -18z" />
    <glyph glyph-name="uni1ECE" unicode="&#x1ece;" 
d="M254 -10q-67 0 -112.5 25.5t-64.5 74t-9 113.5l51 324q11 66 45 114t88 73.5t121 25.5q68 0 113.5 -25.5t65 -73.5t8.5 -113l-51 -325q-10 -65 -45 -113.5t-88.5 -74t-121.5 -25.5zM269 86q55 0 89 30.5t43 86.5l51 324q9 57 -15 87t-79 30t-88.5 -30t-42.5 -87l-51 -324
q-9 -56 15 -86.5t78 -30.5zM347 799l59 61q9 10 13.5 17.5t5.5 13.5q3 20 -24 20h-77l11 70h105q41 0 62.5 -20.5t16.5 -56.5q-2 -15 -9.5 -30t-18.5 -26l-46 -49h-98z" />
    <glyph glyph-name="uni1ECF" unicode="&#x1ecf;" 
d="M254 -10q-67 0 -112.5 25.5t-64.5 74t-9 113.5l22 144q11 66 45.5 114t88.5 73.5t121 25.5q68 0 113 -25.5t64.5 -73.5t9.5 -113l-23 -145q-10 -65 -45 -113.5t-88.5 -74t-121.5 -25.5zM269 85q55 0 89 30t43 88l22 144q10 58 -14.5 88t-78.5 30t-88 -30t-44 -88
l-22 -144q-9 -58 15.5 -88t77.5 -30zM306 645l59 62q9 9 13.5 17t5.5 14q3 19 -24 19h-77l11 71h105q41 0 62.5 -21t16.5 -57q-2 -15 -9.5 -29.5t-18.5 -26.5l-46 -49h-98z" />
    <glyph glyph-name="uni1ED0" unicode="&#x1ed0;" 
d="M254 -10q-67 0 -112.5 25.5t-64.5 74t-9 113.5l51 324q11 66 45 114t88 73.5t121 25.5q68 0 113.5 -25.5t65 -73.5t8.5 -113l-51 -325q-10 -65 -45 -113.5t-88.5 -74t-121.5 -25.5zM269 86q55 0 89 30.5t43 86.5l51 324q9 57 -15 87t-79 30t-88.5 -30t-42.5 -87l-51 -324
q-9 -56 15 -86.5t78 -30.5zM508 901l124 119h120l-131 -119h-113zM193 780l159 140h100l116 -140h-108l-65 76l-89 -76h-113z" />
    <glyph glyph-name="uni1ED1" unicode="&#x1ed1;" 
d="M254 -10q-67 0 -112.5 25.5t-64.5 74t-9 113.5l22 144q11 66 45.5 114t88.5 73.5t121 25.5q68 0 113 -25.5t64.5 -73.5t9.5 -113l-23 -145q-10 -65 -45 -113.5t-88.5 -74t-121.5 -25.5zM269 85q55 0 89 30t43 88l22 144q10 58 -14.5 88t-78.5 30t-88 -30t-44 -88
l-22 -144q-9 -58 15.5 -88t77.5 -30zM487 759l138 140h117l-145 -140h-110zM170 645l160 140h100l116 -140h-108l-66 76l-89 -76h-113z" />
    <glyph glyph-name="uni1ED2" unicode="&#x1ed2;" 
d="M254 -10q-67 0 -112.5 25.5t-64.5 74t-9 113.5l51 324q11 66 45 114t88 73.5t121 25.5q68 0 113.5 -25.5t65 -73.5t8.5 -113l-51 -325q-10 -65 -45 -113.5t-88.5 -74t-121.5 -25.5zM269 86q55 0 89 30.5t43 86.5l51 324q9 57 -15 87t-79 30t-88.5 -30t-42.5 -87l-51 -324
q-9 -56 15 -86.5t78 -30.5zM549 901l-99 119h108l93 -119h-102zM193 780l159 140h100l116 -140h-108l-65 76l-89 -76h-113z" />
    <glyph glyph-name="uni1ED3" unicode="&#x1ed3;" 
d="M254 -10q-67 0 -112.5 25.5t-64.5 74t-9 113.5l22 144q11 66 45.5 114t88.5 73.5t121 25.5q68 0 113 -25.5t64.5 -73.5t9.5 -113l-23 -145q-10 -65 -45 -113.5t-88.5 -74t-121.5 -25.5zM269 85q55 0 89 30t43 88l22 144q10 58 -14.5 88t-78.5 30t-88 -30t-44 -88
l-22 -144q-9 -58 15.5 -88t77.5 -30zM541 759l-108 140h110l102 -140h-104zM170 645l160 140h100l116 -140h-108l-66 76l-89 -76h-113z" />
    <glyph glyph-name="uni1ED4" unicode="&#x1ed4;" 
d="M254 -10q-67 0 -112.5 25.5t-64.5 74t-9 113.5l51 324q11 66 45 114t88 73.5t121 25.5q68 0 113.5 -25.5t65 -73.5t8.5 -113l-51 -325q-10 -65 -45 -113.5t-88.5 -74t-121.5 -25.5zM269 86q55 0 89 30.5t43 86.5l51 324q9 57 -15 87t-79 30t-88.5 -30t-42.5 -87l-51 -324
q-9 -56 15 -86.5t78 -30.5zM517 877l51 43q6 5 8.5 10t3.5 10q3 17 -15 17h-64l11 63h87q37 0 56.5 -18t13.5 -50q-2 -13 -9 -25t-17 -21l-34 -29h-92zM193 780l159 140h100l116 -140h-108l-65 76l-89 -76h-113z" />
    <glyph glyph-name="uni1ED5" unicode="&#x1ed5;" 
d="M254 -10q-67 0 -112.5 25.5t-64.5 74t-9 113.5l22 144q11 66 45.5 114t88.5 73.5t121 25.5q68 0 113 -25.5t64.5 -73.5t9.5 -113l-23 -145q-10 -65 -45 -113.5t-88.5 -74t-121.5 -25.5zM269 85q55 0 89 30t43 88l22 144q10 58 -14.5 88t-78.5 30t-88 -30t-44 -88
l-22 -144q-9 -58 15.5 -88t77.5 -30zM495 759l56 60q14 14 15 26q3 22 -24 22h-56l10 67h77q44 0 67.5 -20.5t17.5 -54.5q-4 -28 -27 -53l-42 -47h-94zM170 645l160 140h100l116 -140h-108l-66 76l-89 -76h-113z" />
    <glyph glyph-name="uni1ED6" unicode="&#x1ed6;" 
d="M254 -10q-67 0 -112.5 25.5t-64.5 74t-9 113.5l51 324q11 66 45 114t88 73.5t121 25.5q68 0 113.5 -25.5t65 -73.5t8.5 -113l-51 -325q-10 -65 -45 -113.5t-88.5 -74t-121.5 -25.5zM269 86q55 0 89 30.5t43 86.5l51 324q9 57 -15 87t-79 30t-88.5 -30t-42.5 -87l-51 -324
q-9 -56 15 -86.5t78 -30.5zM479 917q-29 0 -47.5 6.5t-33 15t-28 15t-32.5 6.5q-28 0 -33 -28l-1 -6h-71l1 6q6 40 35.5 64t72.5 24q28 0 47 -6.5t33 -15t27 -15t32 -6.5q13 0 22 8t11 20l1 6h71l-1 -6q-6 -40 -34.5 -64t-71.5 -24zM193 780l126 108h155l93 -108h-109
l-65 74l-88 -74h-112z" />
    <glyph glyph-name="uni1ED7" unicode="&#x1ed7;" 
d="M254 -10q-67 0 -112.5 25.5t-64.5 74t-9 113.5l22 144q11 66 45.5 114t88.5 73.5t121 25.5q68 0 113 -25.5t64.5 -73.5t9.5 -113l-23 -145q-10 -65 -45 -113.5t-88.5 -74t-121.5 -25.5zM269 85q55 0 89 30t43 88l22 144q10 58 -14.5 88t-78.5 30t-88 -30t-44 -88
l-22 -144q-9 -58 15.5 -88t77.5 -30zM453 816q-32 0 -49 9.5t-27.5 21.5t-20 21.5t-26.5 9.5q-29 0 -35 -31l-4 -24h-71l4 21q6 44 38 70.5t76 26.5q32 0 49 -9.5t27 -22t20 -21.5t26 -9q30 0 35 29l4 25h71l-3 -21q-7 -43 -38.5 -69.5t-75.5 -26.5zM170 645l160 140h100
l116 -140h-108l-66 76l-89 -76h-113z" />
    <glyph glyph-name="uni1ED8" unicode="&#x1ed8;" 
d="M196 810l160 140h100l116 -140h-107l-67 76l-88 -76h-114zM254 -10q-67 0 -112.5 25.5t-64.5 74t-9 113.5l51 324q11 66 45 114t88 73.5t121 25.5q68 0 113.5 -25.5t65 -73.5t8.5 -113l-51 -325q-10 -65 -45 -113.5t-88.5 -74t-121.5 -25.5zM269 86q55 0 89 30.5t43 86.5
l51 324q9 57 -15 87t-79 30t-88.5 -30t-42.5 -87l-51 -324q-9 -56 15 -86.5t78 -30.5zM221 -219q-35 0 -52.5 18t-13.5 50q5 31 29 49.5t59 18.5q36 0 53.5 -18.5t11.5 -49.5q-4 -32 -28 -50t-59 -18z" />
    <glyph glyph-name="uni1ED9" unicode="&#x1ed9;" 
d="M170 645l160 140h100l116 -140h-107l-67 76l-88 -76h-114zM254 -10q-67 0 -112.5 25.5t-64.5 74t-9 113.5l22 144q11 66 45.5 114t88.5 73.5t121 25.5q68 0 113 -25.5t64.5 -73.5t9.5 -113l-23 -145q-10 -65 -45 -113.5t-88.5 -74t-121.5 -25.5zM269 85q55 0 89 30t43 88
l22 144q10 58 -14.5 88t-78.5 30t-88 -30t-44 -88l-22 -144q-9 -58 15.5 -88t77.5 -30zM231 -219q-35 0 -52.5 18t-13.5 50q5 31 29 49.5t59 18.5q36 0 53.5 -18.5t11.5 -49.5q-4 -32 -28 -50t-59 -18z" />
    <glyph glyph-name="uni1EDA" unicode="&#x1eda;" 
d="M450 625l11 75h29q17 0 27.5 9.5t12.5 25.5l12 75h89l-12 -79q-8 -48 -44.5 -77t-89.5 -29h-35zM254 -10q-67 0 -112.5 25.5t-64.5 74t-9 113.5l51 324q11 66 45 114t88 73.5t121 25.5q68 0 113.5 -25.5t65 -73.5t8.5 -113l-51 -325q-10 -65 -45 -113.5t-88.5 -74
t-121.5 -25.5zM269 86q55 0 89 30.5t43 86.5l51 324q9 57 -15 87t-79 30t-88.5 -30t-42.5 -87l-51 -324q-9 -56 15 -86.5t78 -30.5zM304 810l128 140h121l-135 -140h-114z" />
    <glyph glyph-name="uni1EDB" unicode="&#x1edb;" 
d="M415 455l12 75h42q17 0 27.5 9t12.5 26l12 75h88l-12 -79q-8 -48 -44.5 -77t-89.5 -29h-48zM254 -10q-67 0 -112.5 25.5t-64.5 74t-9 113.5l22 144q11 66 45.5 114t88.5 73.5t121 25.5q68 0 113 -25.5t64.5 -73.5t9.5 -113l-23 -145q-10 -65 -45 -113.5t-88.5 -74
t-121.5 -25.5zM269 85q55 0 89 30t43 88l22 144q10 58 -14.5 88t-78.5 30t-88 -30t-44 -88l-22 -144q-9 -58 15.5 -88t77.5 -30zM278 645l128 140h121l-135 -140h-114z" />
    <glyph glyph-name="uni1EDC" unicode="&#x1edc;" 
d="M450 625l11 75h29q17 0 27.5 9.5t12.5 25.5l12 75h89l-12 -79q-8 -48 -44.5 -77t-89.5 -29h-35zM254 -10q-67 0 -112.5 25.5t-64.5 74t-9 113.5l51 324q11 66 45 114t88 73.5t121 25.5q68 0 113.5 -25.5t65 -73.5t8.5 -113l-51 -325q-10 -65 -45 -113.5t-88.5 -74
t-121.5 -25.5zM269 86q55 0 89 30.5t43 86.5l51 324q9 57 -15 87t-79 30t-88.5 -30t-42.5 -87l-51 -324q-9 -56 15 -86.5t78 -30.5zM335 810l-94 140h114l86 -140h-106z" />
    <glyph glyph-name="uni1EDD" unicode="&#x1edd;" 
d="M415 455l12 75h42q17 0 27.5 9t12.5 26l12 75h88l-12 -79q-8 -48 -44.5 -77t-89.5 -29h-48zM254 -10q-67 0 -112.5 25.5t-64.5 74t-9 113.5l22 144q11 66 45.5 114t88.5 73.5t121 25.5q68 0 113 -25.5t64.5 -73.5t9.5 -113l-23 -145q-10 -65 -45 -113.5t-88.5 -74
t-121.5 -25.5zM269 85q55 0 89 30t43 88l22 144q10 58 -14.5 88t-78.5 30t-88 -30t-44 -88l-22 -144q-9 -58 15.5 -88t77.5 -30zM309 645l-94 140h114l86 -140h-106z" />
    <glyph glyph-name="uni1EDE" unicode="&#x1ede;" 
d="M450 625l11 75h29q17 0 27.5 9.5t12.5 25.5l12 75h89l-12 -79q-8 -48 -44.5 -77t-89.5 -29h-35zM254 -10q-67 0 -112.5 25.5t-64.5 74t-9 113.5l51 324q11 66 45 114t88 73.5t121 25.5q68 0 113.5 -25.5t65 -73.5t8.5 -113l-51 -325q-10 -65 -45 -113.5t-88.5 -74
t-121.5 -25.5zM269 86q55 0 89 30.5t43 86.5l51 324q9 57 -15 87t-79 30t-88.5 -30t-42.5 -87l-51 -324q-9 -56 15 -86.5t78 -30.5zM330 799l59 61q9 10 13.5 17.5t5.5 13.5q3 20 -24 20h-77l11 70h105q41 0 62.5 -20.5t16.5 -56.5q-2 -15 -9.5 -30t-18.5 -26l-46 -49h-98z
" />
    <glyph glyph-name="uni1EDF" unicode="&#x1edf;" 
d="M415 455l12 75h42q17 0 27.5 9t12.5 26l12 75h88l-12 -79q-8 -48 -44.5 -77t-89.5 -29h-48zM254 -10q-67 0 -112.5 25.5t-64.5 74t-9 113.5l22 144q11 66 45.5 114t88.5 73.5t121 25.5q68 0 113 -25.5t64.5 -73.5t9.5 -113l-23 -145q-10 -65 -45 -113.5t-88.5 -74
t-121.5 -25.5zM269 85q55 0 89 30t43 88l22 144q10 58 -14.5 88t-78.5 30t-88 -30t-44 -88l-22 -144q-9 -58 15.5 -88t77.5 -30zM306 645l59 62q9 9 13.5 17t5.5 14q3 19 -24 19h-77l11 71h105q41 0 62.5 -21t16.5 -57q-2 -15 -9.5 -29.5t-18.5 -26.5l-46 -49h-98z" />
    <glyph glyph-name="uni1EE0" unicode="&#x1ee0;" 
d="M450 625l11 75h29q17 0 27.5 9.5t12.5 25.5l12 75h89l-12 -79q-8 -48 -44.5 -77t-89.5 -29h-35zM254 -10q-67 0 -112.5 25.5t-64.5 74t-9 113.5l51 324q11 66 45 114t88 73.5t121 25.5q68 0 113.5 -25.5t65 -73.5t8.5 -113l-51 -325q-10 -65 -45 -113.5t-88.5 -74
t-121.5 -25.5zM269 86q55 0 89 30.5t43 86.5l51 324q9 57 -15 87t-79 30t-88.5 -30t-42.5 -87l-51 -324q-9 -56 15 -86.5t78 -30.5zM444 811q-30 0 -47.5 10t-28.5 23t-21.5 23.5t-26.5 10.5q-13 0 -23 -9t-12 -26l-5 -27h-71l5 31q8 47 39 74.5t74 27.5q30 0 47.5 -10
t28.5 -23t21.5 -23.5t26.5 -10.5q14 0 23 8.5t12 24.5l5 29h71l-5 -31q-8 -47 -38.5 -74.5t-74.5 -27.5z" />
    <glyph glyph-name="uni1EE1" unicode="&#x1ee1;" 
d="M415 455l12 75h42q17 0 27.5 9t12.5 26l12 75h88l-12 -79q-8 -48 -44.5 -77t-89.5 -29h-48zM254 -10q-67 0 -112.5 25.5t-64.5 74t-9 113.5l22 144q11 66 45.5 114t88.5 73.5t121 25.5q68 0 113 -25.5t64.5 -73.5t9.5 -113l-23 -145q-10 -65 -45 -113.5t-88.5 -74
t-121.5 -25.5zM269 85q55 0 89 30t43 88l22 144q10 58 -14.5 88t-78.5 30t-88 -30t-44 -88l-22 -144q-9 -58 15.5 -88t77.5 -30zM418 646q-30 0 -47.5 10t-28.5 23t-21.5 23.5t-26.5 10.5q-13 0 -23 -9t-13 -26l-4 -27h-71l5 31q8 47 39 74.5t74 27.5q30 0 47.5 -10t28 -23
t21 -23.5t26.5 -10.5q14 0 23.5 8.5t12.5 24.5l5 29h71l-5 -31q-8 -47 -38.5 -74.5t-74.5 -27.5z" />
    <glyph glyph-name="uni1EE2" unicode="&#x1ee2;" 
d="M450 625l11 75h29q17 0 27.5 9.5t12.5 25.5l12 75h89l-12 -79q-8 -48 -44.5 -77t-89.5 -29h-35zM254 -10q-67 0 -112.5 25.5t-64.5 74t-9 113.5l51 324q11 66 45 114t88 73.5t121 25.5q68 0 113.5 -25.5t65 -73.5t8.5 -113l-51 -325q-10 -65 -45 -113.5t-88.5 -74
t-121.5 -25.5zM269 86q55 0 89 30.5t43 86.5l51 324q9 57 -15 87t-79 30t-88.5 -30t-42.5 -87l-51 -324q-9 -56 15 -86.5t78 -30.5zM231 -219q-35 0 -52.5 18t-13.5 50q5 31 29 49.5t59 18.5q36 0 53.5 -18.5t11.5 -49.5q-4 -32 -28 -50t-59 -18z" />
    <glyph glyph-name="uni1EE3" unicode="&#x1ee3;" 
d="M415 455l12 75h42q17 0 27.5 9t12.5 26l12 75h88l-12 -79q-8 -48 -44.5 -77t-89.5 -29h-48zM254 -10q-67 0 -112.5 25.5t-64.5 74t-9 113.5l22 144q11 66 45.5 114t88.5 73.5t121 25.5q68 0 113 -25.5t64.5 -73.5t9.5 -113l-23 -145q-10 -65 -45 -113.5t-88.5 -74
t-121.5 -25.5zM269 85q55 0 89 30t43 88l22 144q10 58 -14.5 88t-78.5 30t-88 -30t-44 -88l-22 -144q-9 -58 15.5 -88t77.5 -30zM231 -219q-35 0 -52.5 18t-13.5 50q5 31 29 49.5t59 18.5q36 0 53.5 -18.5t11.5 -49.5q-4 -32 -28 -50t-59 -18z" />
    <glyph glyph-name="uni1EE4" unicode="&#x1ee4;" 
d="M254 -10q-105 0 -152.5 57.5t-31.5 156.5l83 526h108l-83 -526q-10 -55 13 -87t78 -32t88.5 32t42.5 87l83 526h108l-83 -526q-11 -66 -44.5 -114.5t-86.5 -74t-123 -25.5zM221 -219q-35 0 -52.5 18t-13.5 50q5 31 29 49.5t59 18.5q36 0 53.5 -18.5t11.5 -49.5
q-4 -32 -28 -50t-59 -18z" />
    <glyph glyph-name="uni1EE5" unicode="&#x1ee5;" 
d="M253 -10q-99 0 -148.5 57.5t-33.5 156.5l54 346h108l-54 -346q-9 -57 15 -88.5t75 -31.5t85.5 31.5t43.5 88.5l55 346h108l-55 -346q-10 -66 -44.5 -114t-88 -74t-120.5 -26zM221 -219q-35 0 -52.5 18t-13.5 50q5 31 29 49.5t59 18.5q36 0 53.5 -18.5t11.5 -49.5
q-4 -32 -28 -50t-59 -18z" />
    <glyph glyph-name="uni1EE6" unicode="&#x1ee6;" 
d="M254 -10q-105 0 -152.5 57.5t-31.5 156.5l83 526h108l-83 -526q-10 -55 13 -87t78 -32t88.5 32t42.5 87l83 526h108l-83 -526q-11 -66 -44.5 -114.5t-86.5 -74t-123 -25.5zM330 799l59 61q9 10 13.5 17.5t5.5 13.5q3 20 -24 20h-77l11 70h105q41 0 62.5 -20.5t16.5 -56.5
q-2 -15 -9.5 -30t-18.5 -26l-46 -49h-98z" />
    <glyph glyph-name="uni1EE7" unicode="&#x1ee7;" 
d="M253 -10q-99 0 -148.5 57.5t-33.5 156.5l54 346h108l-54 -346q-9 -57 15 -88.5t75 -31.5t85.5 31.5t43.5 88.5l55 346h108l-55 -346q-10 -66 -44.5 -114t-88 -74t-120.5 -26zM306 645l59 62q9 9 13.5 17t5.5 14q3 19 -24 19h-77l11 71h105q41 0 62.5 -21t16.5 -57
q-2 -15 -9.5 -29.5t-18.5 -26.5l-46 -49h-98z" />
    <glyph glyph-name="uni1EE8" unicode="&#x1ee8;" 
d="M498 655l12 75h50q17 0 27.5 9.5t12.5 25.5l12 75h89l-13 -79q-8 -48 -44.5 -77t-89.5 -29h-56zM254 -10q-105 0 -152.5 57.5t-31.5 156.5l83 526h108l-83 -526q-10 -55 13 -87t78 -32t88.5 32t42.5 87l83 526h108l-83 -526q-11 -66 -44.5 -114.5t-86.5 -74t-123 -25.5z
M314 810l128 140h121l-135 -140h-114z" />
    <glyph glyph-name="uni1EE9" unicode="&#x1ee9;" 
d="M71 203l54 347h108l-55 -348q-9 -56 14 -87t71 -31q49 0 81.5 31t41.5 87l55 348h89q17 0 27.5 9t13.5 26l12 75h88l-12 -79q-8 -48 -39 -77t-83 -29l-43 -272q-10 -66 -44 -114t-85.5 -73.5t-117.5 -25.5q-96 0 -144 57t-32 156zM282 645l128 140h121l-135 -140h-114z
" />
    <glyph glyph-name="uni1EEA" unicode="&#x1eea;" 
d="M498 655l12 75h50q17 0 27.5 9.5t12.5 25.5l12 75h89l-13 -79q-8 -48 -44.5 -77t-89.5 -29h-56zM254 -10q-105 0 -152.5 57.5t-31.5 156.5l83 526h108l-83 -526q-10 -55 13 -87t78 -32t88.5 32t42.5 87l83 526h108l-83 -526q-11 -66 -44.5 -114.5t-86.5 -74t-123 -25.5z
M345 810l-94 140h114l86 -140h-106z" />
    <glyph glyph-name="uni1EEB" unicode="&#x1eeb;" 
d="M71 203l54 347h108l-55 -348q-9 -56 14 -87t71 -31q49 0 81.5 31t41.5 87l55 348h89q17 0 27.5 9t13.5 26l12 75h88l-12 -79q-8 -48 -39 -77t-83 -29l-43 -272q-10 -66 -44 -114t-85.5 -73.5t-117.5 -25.5q-96 0 -144 57t-32 156zM313 645l-94 140h114l86 -140h-106z" />
    <glyph glyph-name="uni1EEC" unicode="&#x1eec;" 
d="M498 655l12 75h50q17 0 27.5 9.5t12.5 25.5l12 75h89l-13 -79q-8 -48 -44.5 -77t-89.5 -29h-56zM254 -10q-105 0 -152.5 57.5t-31.5 156.5l83 526h108l-83 -526q-10 -55 13 -87t78 -32t88.5 32t42.5 87l83 526h108l-83 -526q-11 -66 -44.5 -114.5t-86.5 -74t-123 -25.5z
M330 799l59 61q9 10 13.5 17.5t5.5 13.5q3 20 -24 20h-77l11 70h105q41 0 62.5 -20.5t16.5 -56.5q-2 -15 -9.5 -30t-18.5 -26l-46 -49h-98z" />
    <glyph glyph-name="uni1EED" unicode="&#x1eed;" 
d="M71 203l54 347h108l-55 -348q-9 -56 14 -87t71 -31q49 0 81.5 31t41.5 87l55 348h89q17 0 27.5 9t13.5 26l12 75h88l-12 -79q-8 -48 -39 -77t-83 -29l-43 -272q-10 -66 -44 -114t-85.5 -73.5t-117.5 -25.5q-96 0 -144 57t-32 156zM306 645l59 62q9 9 13.5 17t5.5 14
q3 19 -24 19h-77l11 71h105q41 0 62.5 -21t16.5 -57q-2 -15 -9.5 -29.5t-18.5 -26.5l-46 -49h-98z" />
    <glyph glyph-name="uni1EEE" unicode="&#x1eee;" 
d="M498 655l12 75h50q17 0 27.5 9.5t12.5 25.5l12 75h89l-13 -79q-8 -48 -44.5 -77t-89.5 -29h-56zM254 -10q-105 0 -152.5 57.5t-31.5 156.5l83 526h108l-83 -526q-10 -55 13 -87t78 -32t88.5 32t42.5 87l83 526h108l-83 -526q-11 -66 -44.5 -114.5t-86.5 -74t-123 -25.5z
M454 811q-30 0 -47.5 10t-28.5 23t-21.5 23.5t-26.5 10.5q-13 0 -23 -9t-12 -26l-5 -27h-71l5 31q8 47 39 74.5t74 27.5q30 0 47.5 -10t28.5 -23t21.5 -23.5t26.5 -10.5q14 0 23 8.5t12 24.5l5 29h71l-5 -31q-8 -47 -38.5 -74.5t-74.5 -27.5z" />
    <glyph glyph-name="uni1EEF" unicode="&#x1eef;" 
d="M71 203l54 347h108l-55 -348q-9 -56 14 -87t71 -31q49 0 81.5 31t41.5 87l55 348h89q17 0 27.5 9t13.5 26l12 75h88l-12 -79q-8 -48 -39 -77t-83 -29l-43 -272q-10 -66 -44 -114t-85.5 -73.5t-117.5 -25.5q-96 0 -144 57t-32 156zM422 646q-30 0 -47.5 10t-28.5 23
t-21.5 23.5t-26.5 10.5q-13 0 -23 -9t-13 -26l-4 -27h-71l5 31q8 47 39 74.5t74 27.5q30 0 47.5 -10t28 -23t21 -23.5t26.5 -10.5q14 0 23.5 8.5t12.5 24.5l5 29h71l-5 -31q-8 -47 -38.5 -74.5t-74.5 -27.5z" />
    <glyph glyph-name="uni1EF0" unicode="&#x1ef0;" 
d="M231 -219q-35 0 -52.5 18t-13.5 50q5 31 29 49.5t59 18.5q36 0 53.5 -18.5t11.5 -49.5q-4 -32 -28 -50t-59 -18zM498 655l12 75h50q17 0 27.5 9.5t12.5 25.5l12 75h89l-13 -79q-8 -48 -44.5 -77t-89.5 -29h-56zM254 -10q-105 0 -152.5 57.5t-31.5 156.5l83 526h108
l-83 -526q-10 -55 13 -87t78 -32t88.5 32t42.5 87l83 526h108l-83 -526q-11 -66 -44.5 -114.5t-86.5 -74t-123 -25.5z" />
    <glyph glyph-name="uni1EF1" unicode="&#x1ef1;" 
d="M71 203l54 347h108l-55 -348q-9 -56 14 -87t71 -31q49 0 81.5 31t41.5 87l55 348h89q17 0 27.5 9t13.5 26l12 75h88l-12 -79q-8 -48 -39 -77t-83 -29l-43 -272q-10 -66 -44 -114t-85.5 -73.5t-117.5 -25.5q-96 0 -144 57t-32 156zM214 -219q-35 0 -52.5 18t-13.5 50
q5 31 29 49.5t59 18.5q36 0 53.5 -18.5t11.5 -49.5q-4 -32 -28 -50t-59 -18z" />
    <glyph glyph-name="Ygrave" unicode="&#x1ef2;" 
d="M202 0l42 269l-143 461h110l85 -276q8 -27 12.5 -50.5t5.5 -36.5q5 13 16 36.5t28 50.5l171 276h114l-291 -461l-42 -269h-108zM345 810l-94 140h114l86 -140h-106z" />
    <glyph glyph-name="ygrave" unicode="&#x1ef3;" 
d="M83 -180l15 93h169q42 0 66 20t30 59l9 59l18 104h-27l30 25q-10 -66 -55.5 -103t-114.5 -37q-81 0 -122 52.5t-27 141.5l51 316h107l-48 -304q-9 -54 15.5 -84t74.5 -30q51 0 85.5 31.5t43.5 89.5l47 297h108l-89 -560q-11 -79 -69.5 -124.5t-146.5 -45.5h-170zM319 645
l-94 140h114l86 -140h-106z" />
    <glyph glyph-name="uni1EF4" unicode="&#x1ef4;" 
d="M202 0l42 269l-143 461h110l85 -276q8 -27 12.5 -50.5t5.5 -36.5q5 13 16 36.5t28 50.5l171 276h114l-291 -461l-42 -269h-108zM231 -219q-35 0 -52.5 18t-13.5 50q5 31 29 49.5t59 18.5q36 0 53.5 -18.5t11.5 -49.5q-4 -32 -28 -50t-59 -18z" />
    <glyph glyph-name="uni1EF5" unicode="&#x1ef5;" 
d="M83 -180l15 93h169q42 0 66 20t30 59l9 59l18 104h-27l30 25q-10 -66 -55.5 -103t-114.5 -37q-81 0 -122 52.5t-27 141.5l51 316h107l-48 -304q-9 -54 15.5 -84t74.5 -30q51 0 85.5 31.5t43.5 89.5l47 297h108l-89 -560q-11 -79 -69.5 -124.5t-146.5 -45.5h-170z
M463 -259q-35 0 -52.5 18t-13.5 50q5 31 29 49.5t59 18.5q36 0 53.5 -18.5t11.5 -49.5q-4 -32 -28 -50t-59 -18z" />
    <glyph glyph-name="uni1EF6" unicode="&#x1ef6;" 
d="M202 0l42 269l-143 461h110l85 -276q8 -27 12.5 -50.5t5.5 -36.5q5 13 16 36.5t28 50.5l171 276h114l-291 -461l-42 -269h-108zM330 799l59 61q9 10 13.5 17.5t5.5 13.5q3 20 -24 20h-77l11 70h105q41 0 62.5 -20.5t16.5 -56.5q-2 -15 -9.5 -30t-18.5 -26l-46 -49h-98z
" />
    <glyph glyph-name="uni1EF7" unicode="&#x1ef7;" 
d="M83 -180l15 93h169q42 0 66 20t30 59l9 59l18 104h-27l30 25q-10 -66 -55.5 -103t-114.5 -37q-81 0 -122 52.5t-27 141.5l51 316h107l-48 -304q-9 -54 15.5 -84t74.5 -30q51 0 85.5 31.5t43.5 89.5l47 297h108l-89 -560q-11 -79 -69.5 -124.5t-146.5 -45.5h-170zM310 645
l59 62q9 9 13.5 17t5.5 14q3 19 -24 19h-77l11 71h105q41 0 62.5 -21t16.5 -57q-2 -15 -9.5 -29.5t-18.5 -26.5l-46 -49h-98z" />
    <glyph glyph-name="uni1EF8" unicode="&#x1ef8;" 
d="M202 0l42 269l-143 461h110l85 -276q8 -27 12.5 -50.5t5.5 -36.5q5 13 16 36.5t28 50.5l171 276h114l-291 -461l-42 -269h-108zM454 811q-30 0 -47.5 10t-28.5 23t-21.5 23.5t-26.5 10.5q-13 0 -23 -9t-12 -26l-5 -27h-71l5 31q8 47 39 74.5t74 27.5q30 0 47.5 -10
t28.5 -23t21.5 -23.5t26.5 -10.5q14 0 23 8.5t12 24.5l5 29h71l-5 -31q-8 -47 -38.5 -74.5t-74.5 -27.5z" />
    </font>
</defs>
</svg>
