<?xml version="1.0" standalone="no"?>
<!DOCTYPE svg PUBLIC "-//W3C//DTD SVG 1.1//EN" "http://www.w3.org/Graphics/SVG/1.1/DTD/svg11.dtd" >
<svg xmlns="http://www.w3.org/2000/svg" xmlns:xlink="http://www.w3.org/1999/xlink" version="1.1">
<metadata>
Created by FontForge 20201107 at Wed Nov 18 16:24:02 2020
 By 
Copyright 2020 The JetBrains Mono Project Authors (https://github.com/JetBrains/JetBrainsMono)
</metadata>
<defs>
<font id="JetBrainsMono-LightItalic" horiz-adv-x="600" >
  <font-face 
    font-family="JetBrains Mono Light"
    font-weight="300"
    font-style="italic"
    font-stretch="normal"
    units-per-em="1000"
    panose-1="2 0 0 9 0 0 0 0 0 0"
    ascent="800"
    descent="-200"
    x-height="550"
    cap-height="730"
    bbox="-1747 -300 1170 1020"
    underline-thickness="50"
    underline-position="-180"
    slope="-9"
    unicode-range="U+000D-FEFF"
  />
<missing-glyph 
d="M90 0v730h420v-730h-420zM160 50h300v571zM140 109l300 571h-300v-571z" />
    <glyph glyph-name=".notdef" 
d="M90 0v730h420v-730h-420zM160 50h300v571zM140 109l300 571h-300v-571z" />
    <glyph glyph-name=".null" horiz-adv-x="0" 
 />
    <glyph glyph-name="nonmarkingreturn" horiz-adv-x="333" 
 />
    <glyph glyph-name="CR" unicode="&#xd;" 
 />
    <glyph glyph-name="space" unicode=" " 
 />
    <glyph glyph-name="exclam" unicode="!" 
d="M262 212l42 387l21 131h94l-21 -131l-81 -387h-55zM244 -5q-25 0 -39 16.5t-10 42.5q4 25 23 41.5t45 16.5h23q28 0 41 -16t9 -42q-4 -25 -23.5 -42t-44.5 -17h-24z" />
    <glyph glyph-name="quotedbl" unicode="&#x22;" 
d="M392 430l22 210l15 90h88l-15 -90l-43 -210h-67zM190 430l22 210l15 90h88l-15 -90l-43 -210h-67z" />
    <glyph glyph-name="numbersign" unicode="#" 
d="M40 0l70 203h-87l9 59h98l71 206h-101l9 59h112l70 203h68l-71 -203h163l70 203h68l-71 -203h86l-9 -59h-98l-70 -206h100l-9 -59h-111l-70 -203h-68l70 203h-162l-70 -203h-67zM197 262h163l70 206h-162z" />
    <glyph glyph-name="dollar" unicode="$" 
d="M212 -140l21 131q-94 7 -139 59.5t-33 138.5h80q-8 -53 19 -86.5t83 -40.5l44 278l-26 8q-70 22 -102 75.5t-21 125.5q13 80 70.5 131t142.5 58l21 132h54l-21 -131q83 -7 124 -59t29 -134h-80q9 51 -13.5 83t-70.5 39l-41 -262l35 -12q69 -23 101.5 -78t20.5 -129
q-8 -55 -38.5 -97t-78 -68t-106.5 -31l-21 -131h-54zM298 62q55 8 90 39.5t43 83.5q7 48 -14 83.5t-65 49.5l-13 4zM296 394l43 274q-49 -7 -80.5 -36t-39.5 -76q-8 -52 18 -89t82 -48z" />
    <glyph glyph-name="percent" unicode="%" 
d="M-28 0l616 730h68l-616 -730h-68zM399 -5q-62 0 -93 35.5t-21 98.5l10 67q10 63 52.5 98.5t104.5 35.5t93 -35.5t21 -98.5l-10 -67q-6 -42 -28 -71.5t-55 -46t-74 -16.5zM409 57q70 0 81 72l10 67q6 37 -8.5 55t-49.5 18q-70 0 -81 -73l-10 -67q-11 -72 58 -72zM175 400
q-61 0 -92 35.5t-21 98.5l10 67q7 42 28 72t54 46t74 16q62 0 93.5 -35.5t21.5 -98.5l-10 -67q-6 -42 -28 -71.5t-55 -46t-75 -16.5zM185 461q71 0 82 73l10 67q11 73 -58 73q-33 0 -54 -18t-27 -55l-10 -67q-6 -37 8.5 -55t48.5 -18z" />
    <glyph glyph-name="ampersand" unicode="&#x26;" 
d="M181 -10q-79 0 -117 44t-25 121l18 121q9 58 45 96t92 51l-6 3q-26 44 -35 81t-3 74q7 47 35 83t70.5 56t95.5 20q56 0 94 -21.5t54.5 -59.5t8.5 -90h-80q6 31 -4 53.5t-31 35.5t-53 13q-29 0 -52.5 -11.5t-39 -32t-19.5 -48.5q-4 -26 3 -56.5t24 -59.5l136 -239l97 136
h82l-143 -199l93 -161h-87l-55 95q-91 -105 -198 -105zM198 61q37 0 75.5 24.5t70.5 70.5l-121 209q-35 -4 -58 -27t-29 -62l-18 -121q-8 -43 13.5 -68.5t66.5 -25.5z" />
    <glyph glyph-name="quotesingle" unicode="'" 
d="M287 430l12 145l25 155h88l-24 -155l-34 -145h-67z" />
    <glyph glyph-name="parenleft" unicode="(" 
d="M421 -125q-135 35 -196 136t-37 251l31 196q16 99 63.5 177.5t122 132.5t170.5 77l-12 -76q-69 -15 -124 -58.5t-90.5 -107.5t-48.5 -145l-32 -196q-12 -79 3.5 -143.5t57 -107t104.5 -57.5z" />
    <glyph glyph-name="parenright" unicode=")" 
d="M51 -125l12 79q69 15 123.5 57.5t91 107t48.5 143.5l32 196q13 81 -3 145t-57.5 107.5t-104.5 58.5l12 76q89 -23 146.5 -77t80 -132.5t6.5 -177.5l-31 -196q-16 -99 -63 -178t-121 -132t-172 -77z" />
    <glyph glyph-name="asterisk" unicode="*" 
d="M149 97l-58 45l72 85q18 20 38 38t38.5 32.5t32.5 25.5l-2 9q-16 2 -37 4.5t-43.5 7.5t-43.5 13l-91 35l38 75l91 -35q22 -8 41.5 -19.5t36 -23.5t28.5 -23l7 5q-1 17 -3 39t-1.5 46.5t4.5 49.5l17 104h78l-16 -104q-4 -25 -12 -49.5t-16 -46.5t-16 -39l5 -5q16 11 36 23
t43 23.5t46 18.5l104 35l15 -74l-103 -36q-23 -7 -47 -12.5t-45.5 -7.5t-39.5 -4l-5 -10q11 -11 25 -25.5t28 -32.5t25 -38l46 -85l-72 -45l-46 85q-11 21 -18.5 42.5t-12.5 42t-8 37.5h-8q-9 -16 -21 -37t-26 -42.5t-32 -42.5z" />
    <glyph glyph-name="plus" unicode="+" 
d="M232 96l32 199h-194l12 71h193l31 199h78l-31 -199h194l-12 -71h-193l-32 -199h-78z" />
    <glyph glyph-name="comma" unicode="," 
d="M101 -160l128 311h123l-178 -311h-73z" />
    <glyph glyph-name="hyphen" unicode="-" 
d="M143 295l11 70h320l-11 -70h-320z" />
    <glyph glyph-name="period" unicode="." 
d="M254 -10q-37 0 -55 21.5t-13 57.5q6 38 31.5 60t62.5 22t55 -22t12 -60q-6 -36 -31 -57.5t-62 -21.5z" />
    <glyph glyph-name="slash" unicode="/" 
d="M19 -110l502 940h86l-502 -940h-86z" />
    <glyph glyph-name="zero" unicode="0" 
d="M254 -10q-66 0 -110.5 26.5t-63.5 75t-9 113.5l51 320q11 66 45 114t87 74.5t119 26.5q67 0 111.5 -26.5t63.5 -74.5t8 -114l-51 -320q-10 -66 -44.5 -114t-87.5 -74.5t-119 -26.5zM266 60q63 0 106.5 40t53.5 105l51 320q11 65 -20.5 105t-94.5 40t-107 -40t-54 -105
l-51 -320q-11 -65 21 -105t95 -40zM315 309q-26 0 -42 16.5t-16 42.5t16 41.5t42 15.5t41.5 -15.5t15.5 -41.5t-15.5 -42.5t-41.5 -16.5z" />
    <glyph glyph-name="one" unicode="1" 
d="M49 0l11 72h200l94 591l-222 -147l14 88l191 126h107l-104 -658h165l-12 -72h-444z" />
    <glyph glyph-name="two" unicode="2" 
d="M49 0l13 82l263 236q70 63 105.5 114t43.5 99q10 64 -20.5 101.5t-92.5 37.5q-67 0 -112 -38t-55 -104h-79q12 65 47.5 113t89 73.5t119.5 25.5t110 -25t63 -71.5t9 -111.5q-10 -63 -53.5 -127.5t-131.5 -141.5l-218 -191h344l-11 -72h-434z" />
    <glyph glyph-name="three" unicode="3" 
d="M243 -10q-64 0 -108 26t-63 72.5t-9 108.5h79q-10 -64 20 -100t94 -36t105.5 37.5t51.5 98.5l9 58q10 65 -19.5 100.5t-94.5 35.5h-68l12 78l210 189h-298l12 72h381l-13 -79l-226 -202l2 12q98 0 147 -55.5t34 -150.5l-9 -58q-9 -62 -43.5 -108.5t-87.5 -72.5t-118 -26z
" />
    <glyph glyph-name="four" unicode="4" 
d="M373 0l25 163h-331l21 130l359 437h88l-370 -455l-7 -40h252l30 185h79l-67 -420h-79z" />
    <glyph glyph-name="five" unicode="5" 
d="M253 -10q-89 0 -137.5 46.5t-45.5 125.5h80q-3 -48 26.5 -74.5t88.5 -26.5q65 0 104.5 36.5t50.5 103.5l11 70q10 66 -17.5 102.5t-92.5 36.5q-42 0 -76.5 -22.5t-53.5 -61.5h-79l69 404h378l-12 -72h-301l-44 -260h26l-32 -28q9 51 52.5 80.5t108.5 29.5q89 1 129 -54.5
t24 -154.5l-11 -70q-16 -97 -81 -154t-165 -57z" />
    <glyph glyph-name="six" unicode="6" 
d="M255 -10q-69 0 -115.5 29.5t-66.5 82t-9 122.5q8 53 31.5 104t60.5 99l234 303h88l-260 -335l3 -3q22 25 58.5 41.5t79.5 16.5q60 0 99.5 -28t55.5 -78.5t5 -119.5q-11 -70 -47.5 -122.5t-92.5 -82t-124 -29.5zM266 61q66 0 114 44.5t60 118.5q11 72 -23 116t-100 44
q-67 0 -114.5 -44t-58.5 -116q-13 -74 20.5 -118.5t101.5 -44.5z" />
    <glyph glyph-name="seven" unicode="7" 
d="M147 0l365 656h-290l-19 -119h-80l30 193h451l-12 -79l-356 -651h-89z" />
    <glyph glyph-name="eight" unicode="8" 
d="M254 -10q-100 0 -150 52t-37 140q11 65 54 112t128 84l103 47q52 23 82 57.5t37 76.5q8 51 -21.5 81t-87.5 30q-57 0 -95 -30.5t-46 -81.5q-7 -42 11.5 -76t60.5 -56l87 -46q76 -39 104.5 -86t17.5 -112q-9 -59 -42.5 -102.5t-86 -66.5t-119.5 -23zM266 61q64 0 106.5 33
t51.5 89q7 45 -12.5 82t-62.5 60l-87 47q-72 37 -100 82t-18 107q8 54 39 94.5t80 63t110 22.5t103.5 -22.5t62 -63t10.5 -94.5q-9 -61 -53 -106t-130 -84l-101 -46q-51 -23 -81.5 -59.5t-37.5 -81.5q-9 -56 23 -89.5t97 -33.5z" />
    <glyph glyph-name="nine" unicode="9" 
d="M150 0l261 335l-4 3q-21 -25 -58 -41.5t-80 -16.5q-59 0 -99 28t-56 79t-5 119q11 71 47.5 123t92.5 81.5t123 29.5q69 0 116 -29.5t67 -81.5t9 -123q-9 -52 -32 -103.5t-60 -99.5l-234 -303h-88zM310 346q67 0 115 44t60 117t-21.5 117.5t-101.5 44.5q-66 0 -114 -44.5
t-60 -118.5q-11 -72 22.5 -116t99.5 -44z" />
    <glyph glyph-name="colon" unicode=":" 
d="M321 412q-36 0 -54.5 20t-13.5 54q5 33 30.5 53.5t61.5 20.5q37 0 55 -20.5t13 -53.5q-5 -34 -30 -54t-62 -20zM254 -10q-36 0 -54.5 20.5t-13.5 53.5q5 34 30.5 54t61.5 20t54.5 -20t13.5 -54q-5 -33 -30 -53.5t-62 -20.5z" />
    <glyph glyph-name="semicolon" unicode=";" 
d="M106 -160l128 311h120l-178 -311h-70zM313 413q-33 0 -50 20.5t-12 52.5t29 53t56 21h18q32 0 49.5 -21t12.5 -53t-29 -52.5t-57 -20.5h-17z" />
    <glyph glyph-name="less" unicode="&#x3c;" 
d="M480 69l-392 218l13 86l462 218l-13 -83l-328 -152q-21 -10 -40.5 -18t-29.5 -11q9 -4 26.5 -11.5t34.5 -17.5l281 -154z" />
    <glyph glyph-name="equal" unicode="=" 
d="M109 413l12 71h424l-11 -71h-425zM72 177l11 70h425l-12 -70h-424z" />
    <glyph glyph-name="greater" unicode="&#x3e;" 
d="M53 69l13 81l328 153q21 9 41 17l30 12q-10 3 -27 11t-34 18l-281 153l13 77l393 -218l-14 -86z" />
    <glyph glyph-name="question" unicode="?" 
d="M207 205l28 177h50q67 0 112 37.5t55 99.5q9 62 -24 99.5t-100 37.5h-124l12 74h124q102 0 154 -57.5t37 -153.5q-9 -58 -41 -103.5t-79.5 -71.5t-106.5 -29l-18 -110h-79zM201 -5q-26 0 -39.5 16.5t-9.5 42.5q4 25 23 41.5t44 16.5h24q28 0 40.5 -16t8.5 -42
q-4 -25 -23 -42t-45 -17h-23z" />
    <glyph glyph-name="at" unicode="@" 
d="M252 -180q-84 0 -140 36t-79 101.5t-9 154.5l53 337q15 90 57 155.5t106.5 100.5t147.5 35q75 0 124 -30t69.5 -85.5t8.5 -132.5l-68 -427h-64l9 58h-26l22 20q-7 -40 -40.5 -64t-82.5 -24q-65 0 -93.5 39.5t-16.5 115.5l20 123q12 74 52.5 113t105.5 39q50 0 75.5 -24
t19.5 -64l-13 20h25l2 70l1 5q9 60 -4 101t-47 62.5t-89 21.5q-92 0 -151.5 -60t-77.5 -168l-53 -337q-17 -104 27.5 -164.5t139.5 -60.5h71l-10 -67h-72zM373 113q43 0 68 26t33 78l19 116q8 48 -10 71t-61 23q-42 0 -67 -23.5t-33 -70.5l-20 -123q-7 -49 10.5 -73
t60.5 -24z" />
    <glyph glyph-name="A" unicode="A" 
d="M11 0l309 730h105l76 -730h-78l-18 198h-229l-82 -198h-83zM203 266h195l-24 244q-5 61 -7.5 102.5t-2.5 53.5q-4 -12 -19 -53.5t-41 -102.5z" />
    <glyph glyph-name="B" unicode="B" 
d="M54 0l116 730h201q98 0 146 -50.5t34 -138.5q-8 -50 -34.5 -87.5t-67.5 -58t-93 -19.5l1 14q57 0 95.5 -22.5t55 -65t6.5 -100.5q-10 -62 -43 -107.5t-85 -70t-119 -24.5h-213zM143 72h128q67 0 111 35.5t54 96.5q10 63 -22.5 101.5t-99.5 38.5h-128zM197 413h123
q61 0 101.5 33t50.5 90q8 57 -21.5 89.5t-90.5 32.5h-124z" />
    <glyph glyph-name="C" unicode="C" 
d="M259 -10q-65 0 -108.5 25t-62 72t-8.5 110l53 336q11 64 44 110.5t84.5 71.5t116.5 25q64 0 107.5 -25.5t62 -72.5t8.5 -112h-79q10 66 -19.5 102.5t-91.5 36.5t-102.5 -35.5t-51.5 -100.5l-53 -336q-10 -64 19.5 -100t91.5 -36q63 0 103.5 36.5t51.5 102.5h79
q-10 -64 -44 -111.5t-85.5 -73t-115.5 -25.5z" />
    <glyph glyph-name="D" unicode="D" 
d="M53 0l116 730h181q70 0 117 -27t67.5 -76.5t9.5 -115.5l-46 -291q-10 -67 -46.5 -116.5t-92 -76.5t-125.5 -27h-181zM144 71h101q70 0 116.5 40t57.5 109l46 291q11 68 -23 108t-104 40h-102z" />
    <glyph glyph-name="E" unicode="E" 
d="M61 0l116 730h412l-11 -72h-334l-38 -241h299l-12 -71h-298l-44 -274h334l-12 -72h-412z" />
    <glyph glyph-name="F" unicode="F" 
d="M56 0l116 731h425l-12 -73h-346l-41 -256h318l-11 -72h-317l-52 -330h-80z" />
    <glyph glyph-name="G" unicode="G" 
d="M259 -10q-65 0 -108.5 25t-62 72t-8.5 110l53 336q11 64 44 110.5t84.5 71.5t116.5 25q64 0 107.5 -25.5t62 -72.5t8.5 -112h-79q10 66 -19.5 102.5t-91.5 36.5t-102.5 -35.5t-51.5 -100.5l-53 -336q-10 -64 19.5 -100t91.5 -36q63 0 103.5 36.5t51.5 102.5l14 95h-154
l11 73h234l-26 -168q-10 -64 -44 -111.5t-85.5 -73t-115.5 -25.5z" />
    <glyph glyph-name="H" unicode="H" 
d="M54 0l116 730h79l-51 -316h247l50 316h79l-116 -730h-79l54 341h-246l-54 -341h-79z" />
    <glyph glyph-name="I" unicode="I" 
d="M65 0l11 72h151l93 586h-151l12 72h382l-12 -72h-150l-93 -586h150l-11 -72h-382z" />
    <glyph glyph-name="J" unicode="J" 
d="M225 -10q-102 0 -151.5 58t-33.5 159h80q-11 -69 20 -107.5t97 -38.5t109.5 38.5t53.5 107.5l72 450h-178l11 73h258l-83 -523q-10 -67 -45 -116t-88 -75t-122 -26z" />
    <glyph glyph-name="K" unicode="K" 
d="M53 0l116 730h79l-50 -317h118l212 317h89l-235 -354l129 -376h-89l-115 343h-120l-55 -343h-79z" />
    <glyph glyph-name="L" unicode="L" 
d="M72 0l116 730h80l-105 -658h337l-12 -72h-416z" />
    <glyph glyph-name="M" unicode="M" 
d="M36 0l116 730h105l43 -248q5 -29 9.5 -59t6.5 -47q8 17 21 47t27 60l119 247h109l-116 -730h-78l50 312q7 44 17 95.5t22 103t23.5 98.5t20.5 81l-181 -369h-84l-66 369q-1 -34 -4.5 -79.5t-8 -97t-10.5 -103.5t-14 -98l-49 -312h-78z" />
    <glyph glyph-name="N" unicode="N" 
d="M51 0l116 730h105l135 -638q2 23 5 56.5t7.5 68.5t9.5 63l71 450h77l-116 -730h-106l-133 638q-2 -20 -5 -51.5t-7.5 -67t-10.5 -69.5l-71 -450h-77z" />
    <glyph glyph-name="O" unicode="O" 
d="M254 -10q-63 0 -106 25t-60.5 71.5t-7.5 110.5l53 336q11 64 43.5 110.5t83 71.5t113.5 25q64 0 106.5 -25t61 -71.5t7.5 -110.5l-53 -336q-10 -64 -43 -110.5t-83.5 -71.5t-114.5 -25zM265 61q62 0 101 35.5t50 100.5l53 336q10 65 -18 100.5t-89 35.5t-100 -35.5
t-50 -100.5l-53 -336q-10 -65 17.5 -100.5t88.5 -35.5z" />
    <glyph glyph-name="P" unicode="P" 
d="M53 0l116 730h229q67 0 112.5 -26t64.5 -73.5t9 -112.5q-9 -64 -44 -111.5t-88.5 -74t-120.5 -26.5h-150l-49 -306h-79zM192 378h150q63 0 106.5 38t54.5 102q10 65 -21.5 102.5t-94.5 37.5h-151z" />
    <glyph glyph-name="Q" unicode="Q" 
d="M360 -180l-79 178l11 -4q-8 -1 -18 -2.5t-20 -1.5q-65 0 -109 26t-62.5 73.5t-8.5 111.5l52 328q11 65 44.5 112t85.5 73t117 26q66 0 109.5 -26.5t62.5 -73.5t8 -111l-52 -328q-12 -73 -54 -125t-106 -72l5 41l99 -225h-85zM266 61q61 0 103 38t52 102l53 328
q10 65 -20 102.5t-91 37.5q-62 0 -104.5 -37.5t-52.5 -102.5l-53 -328q-10 -64 20.5 -102t92.5 -38z" />
    <glyph glyph-name="R" unicode="R" 
d="M53 0l116 730h220q65 0 109 -26t63.5 -72.5t9.5 -109.5q-8 -54 -36 -97t-71.5 -70.5t-96.5 -36.5l9 39l120 -357h-89l-100 315h-125l-50 -315h-79zM193 387h141q61 0 103.5 37t51.5 99q11 62 -20 98.5t-91 36.5h-142z" />
    <glyph glyph-name="S" unicode="S" 
d="M258 -10q-105 0 -157.5 53.5t-39.5 145.5h80q-10 -59 24.5 -93.5t104.5 -34.5q66 0 108.5 33t52.5 91q7 51 -13 86.5t-65 49.5l-90 29q-70 23 -102.5 75.5t-22.5 123.5q10 59 42.5 101.5t83.5 66.5t115 24q95 0 143.5 -53t35.5 -142h-80q10 57 -19.5 90t-91.5 33
q-61 0 -100.5 -29.5t-47.5 -83.5q-7 -48 13 -84t63 -51l91 -30q70 -22 102.5 -76.5t21.5 -127.5q-9 -59 -43.5 -103.5t-88 -69t-120.5 -24.5z" />
    <glyph glyph-name="T" unicode="T" 
d="M217 0l104 658h-204l11 73h488l-12 -73h-204l-104 -658h-79z" />
    <glyph glyph-name="U" unicode="U" 
d="M254 -10q-98 0 -142.5 56t-29.5 151l85 533h79l-84 -533q-11 -63 15 -99.5t89 -36.5q62 0 99.5 36.5t47.5 99.5l85 533h79l-84 -533q-10 -63 -42 -110t-81.5 -72t-115.5 -25z" />
    <glyph glyph-name="V" unicode="V" 
d="M202 0l-75 730h80l49 -510q5 -50 7.5 -93t2.5 -65q7 22 22.5 65t35.5 93l211 510h82l-308 -730h-107z" />
    <glyph glyph-name="W" unicode="W" 
d="M71 0l30 730h73l-27 -540q-1 -21 -3 -45.5t-3.5 -48t-3.5 -39.5q5 16 11 39.5t13 48l13 45.5l156 540h87l-21 -540q-1 -21 -2 -45.5t-1.5 -48t-1.5 -39.5q5 16 10.5 39.5t12 48t11.5 45.5l145 540h73l-203 -730h-102l21 545q1 23 2 47t2 45.5t2 35.5q-4 -14 -9.5 -35
t-12.5 -45.5t-14 -47.5l-157 -545h-101z" />
    <glyph glyph-name="X" unicode="X" 
d="M-1 0l271 374l-142 356h87l81 -218q6 -17 15 -38.5t14 -34.5q9 13 23 34.5t26 38.5l152 218h90l-255 -354l152 -376h-87l-91 237q-7 17 -15.5 38.5t-12.5 36.5q-9 -15 -23.5 -36t-25.5 -38l-167 -238h-92z" />
    <glyph glyph-name="Y" unicode="Y" 
d="M216 0l44 275l-149 455h80l101 -308q8 -24 13 -42t6 -27l15 27t26 42l197 308h84l-294 -455l-43 -275h-80z" />
    <glyph glyph-name="Z" unicode="Z" 
d="M43 0l12 79l425 579h-328l11 72h411l-13 -81l-424 -577h344l-12 -72h-426z" />
    <glyph glyph-name="bracketleft" unicode="[" 
d="M148 -110l148 940h240l-11 -71h-160l-127 -798h160l-10 -71h-240z" />
    <glyph glyph-name="backslash" unicode="\" 
d="M379 -110l-212 940h80l212 -940h-80z" />
    <glyph glyph-name="bracketright" unicode="]" 
d="M90 -110l11 71h160l127 798h-160l10 71h240l-148 -940h-240z" />
    <glyph glyph-name="asciicircum" unicode="^" 
d="M95 340l241 390h75l114 -390h-72l-71 259q-5 20 -9 39.5t-7 29.5q-5 -10 -15.5 -29.5t-21.5 -39.5l-156 -259h-78z" />
    <glyph glyph-name="underscore" unicode="_" 
d="M1 -92l11 67h480l-11 -67h-480z" />
    <glyph glyph-name="grave" unicode="`" 
d="M362 645l-92 140h84l87 -140h-79z" />
    <glyph glyph-name="a" unicode="a" 
d="M228 -10q-82 0 -122.5 55t-25.5 148l26 163q10 63 39.5 108.5t74 70.5t99.5 25q69 0 105 -38t26 -102l-16 33h19l15 97h79l-87 -550h-79l15 97h-20l28 33q-10 -65 -58.5 -102.5t-117.5 -37.5zM264 59q59 0 98.5 36.5t49.5 101.5l24 156q11 65 -17 101.5t-87 36.5
q-60 0 -98.5 -36t-49.5 -102l-24 -156q-10 -66 17 -102t87 -36z" />
    <glyph glyph-name="b" unicode="b" 
d="M281 -10q-69 0 -105 37.5t-26 102.5l18 -33h-20l-16 -97h-79l116 730h79l-25 -157l-21 -120h19l-25 -33q10 64 59 102t117 38q83 0 122.5 -55t25.5 -149l-26 -163q-10 -63 -39.5 -108t-74 -70t-99.5 -25zM268 59q59 0 98 36t50 102l24 156q11 66 -16.5 102t-87.5 36
q-59 0 -98 -36.5t-50 -101.5l-24 -156q-11 -65 17 -101.5t87 -36.5z" />
    <glyph glyph-name="c" unicode="c" 
d="M257 -10q-64 0 -107.5 25t-61.5 71.5t-8 110.5l24 156q11 64 43.5 110.5t84.5 71.5t116 25q94 0 143 -51t37 -139h-79q6 57 -23.5 88t-88.5 31q-62 0 -102.5 -35.5t-50.5 -100.5l-25 -156q-10 -64 19.5 -100t90.5 -36q60 0 99 31.5t51 87.5h79q-16 -88 -81.5 -139
t-159.5 -51z" />
    <glyph glyph-name="d" unicode="d" 
d="M228 -10q-82 0 -122.5 55t-25.5 148l26 163q10 63 39.5 108.5t74 70.5t99.5 25q69 0 105 -38t26 -102l-16 33h19l18 120l26 157h79l-116 -730h-79l15 97h-20l28 33q-10 -65 -58.5 -102.5t-117.5 -37.5zM264 59q59 0 98.5 36.5t49.5 101.5l24 156q11 65 -17 101.5
t-87 36.5q-60 0 -98.5 -36t-49.5 -102l-24 -156q-10 -66 17 -102t87 -36z" />
    <glyph glyph-name="e" unicode="e" 
d="M254 -10q-64 0 -106 25.5t-60 72.5t-8 109l24 156q11 63 43.5 109.5t83 72t114.5 25.5t106.5 -25.5t60.5 -72t7 -109.5l-15 -97h-337l-9 -59q-10 -67 17 -103.5t90 -36.5q53 0 88.5 21t50.5 61h79q-14 -46 -46.5 -79.5t-79 -51.5t-103.5 -18zM435 309l6 44
q11 67 -16 103.5t-90 36.5q-64 0 -103 -36.5t-50 -103.5l-5 -35h267z" />
    <glyph glyph-name="f" unicode="f" 
d="M-41 -180l11 72h113q41 0 64.5 19.5t29.5 59.5l71 452h-163l12 72h162l14 84q8 47 32 80.5t63.5 52t89.5 18.5h169l-12 -72h-169q-41 0 -64.5 -19.5t-29.5 -59.5l-13 -84h227l-12 -72h-227l-71 -452q-10 -70 -59.5 -110.5t-125.5 -40.5h-112z" />
    <glyph glyph-name="g" unicode="g" 
d="M93 -180l12 72h167q46 0 72 22t34 67l10 64l18 104h-18l22 23q-10 -62 -56.5 -99t-114.5 -37q-84 0 -125 55.5t-26 148.5l18 117q10 62 39.5 107.5t75 70.5t101.5 25q68 0 103.5 -36.5t24.5 -98.5l-14 23h16l16 102h79l-90 -569q-12 -76 -64 -118.5t-134 -42.5h-166z
M272 105q59 0 98.5 36.5t49.5 101.5l17 110q11 65 -17 101.5t-87 36.5q-60 0 -98.5 -36t-49.5 -102l-17 -110q-10 -66 17 -102t87 -36z" />
    <glyph glyph-name="h" unicode="h" 
d="M53 0l116 730h79l-28 -172l-17 -106h20l-26 -32q11 66 57 103t116 37q82 0 123 -51.5t27 -139.5l-59 -369h-79l57 360q10 63 -17.5 98t-84.5 35q-58 0 -98 -37t-51 -103l-56 -353h-79z" />
    <glyph glyph-name="i" unicode="i" 
d="M40 0l11 72h197l64 406h-171l11 72h251l-76 -478h186l-11 -72h-462zM376 651q-31 0 -47 16.5t-13 43.5q4 29 24 46t51 17t47.5 -17t12.5 -46q-3 -27 -23 -43.5t-52 -16.5z" />
    <glyph glyph-name="j" unicode="j" 
d="M15 -180l12 73h131q64 0 104.5 34.5t50.5 97.5l71 453h-235l11 72h315l-83 -525q-9 -63 -43 -109t-86 -71t-118 -25h-130zM448 651q-31 0 -47 16.5t-13 43.5q4 29 24 46t51 17t47.5 -17t12.5 -46q-3 -27 -23 -43.5t-52 -16.5z" />
    <glyph glyph-name="k" unicode="k" 
d="M56 0l116 730h79l-65 -411h103l200 231h93l-227 -266l144 -284h-91l-125 250h-108l-40 -250h-79z" />
    <glyph glyph-name="l" unicode="l" 
d="M321 0q-71 0 -106 40.5t-25 109.5l81 508h-168l12 72h247l-92 -580q-6 -37 10.5 -57.5t51.5 -20.5h183l-12 -72h-182z" />
    <glyph glyph-name="m" unicode="m" 
d="M25 0l87 550h70l-10 -68h14l-14 -22q8 46 36.5 73t71.5 27q45 0 65 -32t13 -90l-14 44h33l-18 -22q7 46 36.5 73t72.5 27q51 0 73.5 -38t11.5 -101l-66 -421h-74l66 421q5 36 -7 56.5t-41 20.5t-49.5 -20.5t-25.5 -56.5l-67 -421h-66l66 421q7 37 -6.5 57t-42.5 20
t-48.5 -20t-25.5 -57l-67 -421h-74z" />
    <glyph glyph-name="n" unicode="n" 
d="M53 0l87 550h79l-16 -102h20l-27 -29q11 66 57.5 103.5t116.5 37.5q82 0 123 -51.5t27 -139.5l-59 -369h-79l57 360q10 63 -17.5 98t-84.5 35q-58 0 -98 -37t-51 -103l-56 -353h-79z" />
    <glyph glyph-name="o" unicode="o" 
d="M254 -10q-63 0 -106 25t-60.5 71.5t-7.5 110.5l24 156q11 64 43.5 110.5t83.5 71.5t114 25q64 0 106.5 -25t60.5 -71.5t8 -110.5l-25 -156q-10 -64 -43 -110.5t-83.5 -71.5t-114.5 -25zM265 60q62 0 101 35.5t50 101.5l24 156q11 66 -17 101.5t-89 35.5t-100 -35.5
t-51 -101.5l-24 -156q-10 -66 17.5 -101.5t88.5 -35.5z" />
    <glyph glyph-name="p" unicode="p" 
d="M24 -180l116 730h79l-16 -97h21l-28 -33q10 65 58.5 102.5t118.5 37.5q83 0 122 -54.5t25 -148.5l-26 -163q-10 -63 -39 -108.5t-73.5 -70.5t-99.5 -25q-69 0 -105.5 38t-26.5 102l16 -33h-20l-16 -112l-27 -165h-79zM268 59q60 0 98.5 36t49.5 102l24 156
q11 67 -16.5 102.5t-86.5 35.5t-98.5 -36.5t-50.5 -101.5l-24 -156q-11 -65 17.5 -101.5t86.5 -36.5z" />
    <glyph glyph-name="q" unicode="q" 
d="M351 -180l25 157l21 120h-19l25 33q-10 -64 -58.5 -102t-117.5 -38q-83 0 -122.5 55t-25.5 149l26 163q10 63 39.5 108.5t74 70t99.5 24.5q69 0 105 -37.5t26 -102.5l-18 33h20l16 97h79l-116 -730h-79zM263 59q59 0 98.5 36.5t49.5 101.5l24 156q12 65 -16 101.5
t-88 36.5q-59 0 -97.5 -35.5t-50.5 -102.5l-24 -156q-10 -66 17 -102t87 -36z" />
    <glyph glyph-name="r" unicode="r" 
d="M71 0l87 550h78l-16 -97h22l-39 -65q13 84 59.5 128t122.5 44q87 0 129.5 -54.5t28.5 -146.5l-6 -33h-81l5 27q11 67 -16.5 103.5t-87.5 36.5t-100 -37t-51 -103l-55 -353h-80z" />
    <glyph glyph-name="s" unicode="s" 
d="M230 -10q-82 0 -125.5 40t-40.5 105h79q2 -33 27.5 -53.5t71.5 -20.5h49q53 0 84.5 24t37.5 63q6 37 -14.5 61t-63.5 31l-81 13q-76 12 -110 48.5t-23 103.5q11 73 65 114t144 41h39q78 0 119.5 -37.5t41.5 -100.5h-79q-2 30 -25.5 48.5t-67.5 18.5h-39q-53 0 -82.5 -22
t-35.5 -62q-6 -37 12 -56t63 -26l80 -13q80 -12 114 -50.5t24 -108.5q-13 -74 -67.5 -117.5t-147.5 -43.5h-49z" />
    <glyph glyph-name="t" unicode="t" 
d="M316 0q-69 0 -101 36.5t-21 103.5l53 338h-156l11 72h156l24 150h80l-24 -150h221l-11 -72h-222l-53 -338q-11 -68 54 -68h146l-11 -72h-146z" />
    <glyph glyph-name="u" unicode="u" 
d="M253 -10q-93 0 -139.5 56t-30.5 152l55 352h79l-55 -352q-11 -65 17 -101.5t86 -36.5q59 0 98.5 36.5t50.5 101.5l55 352h79l-55 -352q-10 -63 -43 -110t-83.5 -72.5t-113.5 -25.5z" />
    <glyph glyph-name="v" unicode="v" 
d="M203 0l-96 550h79l63 -381q5 -31 9 -61.5t6 -47.5q8 17 21.5 47.5t29.5 61.5l180 381h84l-270 -550h-106z" />
    <glyph glyph-name="w" unicode="w" 
d="M84 0l-2 550h69l-5 -395q0 -22 -0.5 -49t-1.5 -45q5 18 13.5 45t15.5 49l130 395h78l3 -395q1 -22 1 -49t-1 -45q5 18 13.5 45t15.5 49l122 395h69l-180 -550h-90l-1 383v57.5v46.5q-5 -17 -14.5 -46.5t-18.5 -57.5l-125 -383h-91z" />
    <glyph glyph-name="x" unicode="x" 
d="M16 0l237 285l-138 265h92l84 -178q5 -10 10 -22.5t8 -19.5q5 7 13 19.5t15 22.5l140 178h95l-222 -270l146 -280h-91l-92 188q-4 10 -10 24t-9 22q-6 -8 -15 -22t-18 -24l-150 -188h-95z" />
    <glyph glyph-name="y" unicode="y" 
d="M91 -180l12 72h167q46 0 72.5 22t33.5 67l11 73l17 98h-20l26 29q-10 -66 -56.5 -103.5t-116.5 -37.5q-82 0 -123 51.5t-27 139.5l50 319h80l-49 -310q-11 -62 17 -97.5t84 -35.5q59 0 99.5 37t50.5 103l47 303h80l-91 -569q-11 -76 -63.5 -118.5t-134.5 -42.5h-166z" />
    <glyph glyph-name="z" unicode="z" 
d="M49 0l13 78l372 400h-301l12 72h393l-12 -79l-377 -399h325l-11 -72h-414z" />
    <glyph glyph-name="braceleft" unicode="{" 
d="M402 -110q-56 0 -93.5 19t-52.5 55.5t-4 87.5l39 173q11 53 -4 76t-80 23h-110l10 71h110q65 0 88 23.5t28 76.5l16 173q6 52 32.5 88t69.5 55t99 19h48l-11 -71h-47q-47 0 -76.5 -23t-34.5 -68l-16 -173q-7 -62 -46 -99.5t-99 -37.5v5q60 0 88 -38t14 -100l-39 -173
q-9 -45 13 -68t69 -23h48l-11 -71h-48z" />
    <glyph glyph-name="bar" unicode="|" 
d="M199 -110l148 940h80l-148 -940h-80z" />
    <glyph glyph-name="braceright" unicode="}" 
d="M28 -110l11 71h47q47 0 77 23t34 68l16 173q6 62 46 100t99 38v-5q-60 0 -88 37.5t-14 99.5l39 173q9 45 -13 68t-69 23h-48l11 71h47q56 0 94 -19t53.5 -55t3.5 -88l-39 -173q-11 -53 5 -76.5t79 -23.5h110l-10 -71h-110q-64 0 -87.5 -23t-28.5 -76l-17 -173
q-4 -51 -31 -87.5t-70.5 -55.5t-99.5 -19h-47z" />
    <glyph glyph-name="asciitilde" unicode="~" 
d="M67 256l11 72q10 57 49 90.5t94 33.5q37 0 60.5 -13t39 -33t28 -40t27.5 -33.5t36 -13.5q24 0 39.5 15t19.5 43l11 72h74l-11 -72q-8 -56 -46.5 -90t-94.5 -34q-37 0 -60.5 13t-39 33.5t-28 40t-27.5 33t-37 13.5q-23 0 -38.5 -15t-20.5 -43l-12 -72h-74z" />
    <glyph glyph-name="uni00A0" unicode="&#xa0;" 
 />
    <glyph glyph-name="exclamdown" unicode="&#xa1;" 
d="M181 -180l21 134l81 384h55l-41 -384l-22 -134h-94zM317 438q-28 0 -42 16.5t-10 43.5q4 26 23.5 42t47.5 16h16q28 0 43 -15.5t10 -41.5q-4 -28 -24 -44.5t-48 -16.5h-16z" />
    <glyph glyph-name="cent" unicode="&#xa2;" 
d="M216 -140l131 830h54l-131 -830h-54zM257 -10q-64 0 -107.5 25t-61.5 71.5t-8 110.5l24 156q11 64 43.5 110.5t84.5 71.5t116 25q94 0 143 -51t37 -139h-79q6 57 -23.5 88t-88.5 31q-62 0 -102.5 -35.5t-50.5 -100.5l-25 -156q-10 -64 19.5 -100t90.5 -36q60 0 99 31.5
t51 87.5h79q-16 -88 -81.5 -139t-159.5 -51z" />
    <glyph glyph-name="sterling" unicode="&#xa3;" 
d="M31 0l14 87q28 18 58.5 45t53.5 57.5t28 59.5q7 42 2 73.5t-15.5 58t-21 51t-16 53.5t0.5 68q9 57 41 99t82.5 65t114.5 23q66 0 110.5 -22.5t64 -65t10.5 -102.5h-83q9 55 -22 87t-92 32q-60 0 -99 -31.5t-48 -88.5q-5 -33 1 -58.5t17 -49t21.5 -49t15.5 -58.5t-3 -78
q-7 -43 -31 -79.5t-54.5 -64t-57.5 -41.5h379l-11 -71h-460zM80 309l11 71h360l-11 -71h-360z" />
    <glyph glyph-name="currency" unicode="&#xa4;" 
d="M475 118l-96 113l41 -14q-29 -22 -63.5 -33.5t-72.5 -11.5t-69.5 12t-54.5 34l45 9l-126 -108l-47 57l123 107l-15 -43q-19 25 -27 59.5t-1 73.5t25 72.5t45 60.5l7 -43l-95 113l63 54l96 -115l-40 15q28 21 62.5 32.5t72.5 11.5q39 0 71 -12.5t54 -35.5l-45 -9l124 108
l48 -56l-124 -106l16 44q19 -27 26.5 -61t0.5 -73t-24.5 -72.5t-44.5 -60.5l-7 43l94 -111zM294 236q39 0 72 18t56 49t29 70t-7 70t-40.5 49t-65.5 18q-39 0 -72.5 -18t-56.5 -49t-29 -70t7 -70t41 -49t66 -18z" />
    <glyph glyph-name="yen" unicode="&#xa5;" 
d="M59 270l11 68h480l-11 -68h-480zM36 127l11 68h480l-11 -68h-480zM216 0l44 275l-149 455h80l101 -308q8 -24 13 -42t6 -27l15 27t26 42l197 308h84l-294 -455l-43 -275h-80z" />
    <glyph glyph-name="brokenbar" unicode="&#xa6;" 
d="M287 450l60 380h80l-60 -380h-80zM199 -110l60 380h80l-60 -380h-80z" />
    <glyph glyph-name="section" unicode="&#xa7;" 
d="M213 -154q-80 0 -128.5 42t-47.5 109h83q3 -35 31.5 -58t72.5 -23h40q57 0 91.5 25t40.5 66q6 38 -15.5 64t-67.5 36l-93 21q-67 15 -101.5 59t-24.5 103q6 37 27 68t52 51.5t68 24.5l1 7q-26 1 -52 15.5t-40 45t-7 80.5q11 73 69 115.5t148 42.5h33q78 0 124.5 -39
t45.5 -103h-83q-2 31 -28.5 51t-68.5 20h-34q-52 0 -86 -23.5t-39 -63.5q-6 -35 16.5 -59.5t66.5 -35.5l91 -20q66 -15 100 -58t24 -104q-6 -37 -26.5 -68.5t-52 -50.5t-69.5 -21l-1 -6q27 -3 53.5 -19.5t42.5 -48t7 -79.5q-12 -77 -71 -121.5t-152 -44.5h-40zM316 181
q29 -6 55 8t45 43t24 64q6 38 -12 66t-55 36l-71 16q-29 6 -56 -8t-46 -42t-24 -63q-7 -39 11.5 -67.5t56.5 -36.5z" />
    <glyph glyph-name="dieresis" unicode="&#xa8;" 
d="M468 651q-27 0 -41 16t-10 44q5 29 24 46t47 17q27 0 41 -17t9 -46q-4 -27 -23 -43.5t-47 -16.5zM248 651q-27 0 -41 16t-10 44q5 29 24 46t46 17q28 0 42.5 -17t9.5 -46q-4 -27 -23.5 -43.5t-47.5 -16.5z" />
    <glyph glyph-name="copyright" unicode="&#xa9;" 
d="M273 110q-75 0 -127.5 30t-75.5 84t-12 126l24 150q12 72 52 126t102 84t137 30q76 0 128.5 -30t75.5 -84t11 -126l-24 -150q-11 -72 -51.5 -126t-102 -84t-137.5 -30zM280 157q61 0 110 24t81 67.5t41 101.5l24 150q10 58 -8.5 101t-60 67.5t-101.5 24.5t-109.5 -24.5
t-81.5 -67.5t-41 -101l-24 -150q-9 -58 9.5 -101.5t60 -67.5t100.5 -24zM300 245q-55 0 -83.5 31.5t-20.5 83.5l21 130q8 52 46.5 83.5t93.5 31.5t83 -31.5t20 -83.5h-59q4 29 -10.5 46.5t-41.5 17.5q-29 0 -48.5 -17.5t-24.5 -46.5l-21 -130q-4 -29 10.5 -46.5t42.5 -17.5
t47.5 17.5t24.5 46.5h59q-8 -52 -46 -83.5t-93 -31.5z" />
    <glyph glyph-name="ordfeminine" unicode="&#xaa;" 
d="M404 455l9 55h-3l22 140q4 24 -12.5 38.5t-47.5 14.5q-27 0 -47.5 -12t-26.5 -31h-46q12 37 45.5 58.5t80.5 21.5q52 0 79.5 -24t20.5 -66l-31 -195h-43zM301 450q-44 0 -67 23.5t-17 62.5q6 38 37 61.5t79 23.5h105l-6 -38h-105q-26 0 -43 -12.5t-21 -34.5
q-4 -23 11.5 -37t45.5 -14q40 0 65.5 19t31.5 51h11l-7 -45h-11q-15 -28 -44 -44t-65 -16z" />
    <glyph glyph-name="guillemotleft" unicode="&#xab;" 
d="M434 40l-166 240l240 240h98l-247 -242l165 -238h-90zM202 40l-167 240l241 240h97l-247 -242l166 -238h-90z" />
    <glyph glyph-name="logicalnot" unicode="&#xac;" 
d="M443 208l21 132h-384l11 71h460l-32 -203h-76z" />
    <glyph glyph-name="uni00AD" unicode="&#xad;" 
d="M143 295l11 70h320l-11 -70h-320z" />
    <glyph glyph-name="registered" unicode="&#xae;" 
d="M273 110q-75 0 -128 30t-75.5 84t-11.5 126l24 150q12 72 52 126t102 84t137 30q76 0 128.5 -30t75.5 -84t11 -126l-24 -150q-11 -72 -51.5 -126t-102 -84t-137.5 -30zM280 157q61 0 110 24t81 67.5t41 101.5l24 150q10 58 -8.5 101t-60 67.5t-101.5 24.5t-109.5 -24.5
t-81.5 -67.5t-41 -101l-24 -150q-9 -58 9.5 -101.5t60 -67.5t100.5 -24zM189 250l55 350h111q53 0 79.5 -28t18.5 -76q-7 -40 -33.5 -67t-66.5 -35l13 42l54 -186h-59l-39 141h-55l-22 -141h-56zM274 439h56q27 0 45 15t22 42q5 26 -8.5 41.5t-40.5 15.5h-56z" />
    <glyph glyph-name="macron" unicode="&#xaf;" 
d="M208 674l11 66h309l-11 -66h-309z" />
    <glyph glyph-name="degree" unicode="&#xb0;" 
d="M327 450q-66 0 -101 40t-25 105q11 65 58 105t114 40t102 -40t24 -105q-10 -65 -57.5 -105t-114.5 -40zM334 498q42 0 72 27t37 70q7 44 -14.5 71t-63.5 27t-71 -27t-37 -71q-7 -43 14.5 -70t62.5 -27z" />
    <glyph glyph-name="plusminus" unicode="&#xb1;" 
d="M26 0l10 63h190l38 237h-194l11 71h194l32 199h77l-31 -199h195l-11 -71h-195l-38 -237h192l-10 -63h-460z" />
    <glyph glyph-name="uni00B2" unicode="&#xb2;" 
d="M187 405l12 77l178 121q28 19 46.5 44.5t22.5 49.5q6 40 -12.5 63t-55.5 23t-62.5 -23t-32.5 -63h-63q13 65 58 104t109 39q67 0 99.5 -38t22.5 -102q-6 -37 -34 -76.5t-71 -67.5l-142 -93h221l-9 -58h-287z" />
    <glyph glyph-name="uni00B3" unicode="&#xb3;" 
d="M303 395q-67 0 -100.5 37.5t-23.5 101.5h62q-6 -37 13 -59.5t58 -22.5q37 0 62 22.5t31 59.5t-12 59t-55 22h-29l9 62l107 96h-179l9 58h235l-11 -68l-134 -121l4 26q65 0 98 -36t23 -98q-10 -64 -55 -101.5t-112 -37.5z" />
    <glyph glyph-name="acute" unicode="&#xb4;" 
d="M273 645l128 140h92l-134 -140h-86z" />
    <glyph glyph-name="uni00B5" unicode="&#xb5;" 
d="M20 -180l116 730h80l-56 -356q-10 -64 15 -98.5t90 -34.5t101.5 34.5t47.5 98.5l56 356h80l-56 -356q-16 -96 -77 -150t-155 -54q-44 0 -74.5 11.5t-47.5 30t-21 37.5h-4q1 0 2.5 -13t2 -31t-1.5 -35l-18 -170h-80z" />
    <glyph glyph-name="paragraph" unicode="&#xb6;" 
d="M186 -180l78 490q-83 0 -126.5 45.5t-31.5 119.5l14 90q8 50 37 87t74 57.5t100 20.5h72l-145 -910h-72zM356 -180l145 910h72l-145 -910h-72z" />
    <glyph glyph-name="periodcentered" unicode="&#xb7;" 
d="M254 261q-37 0 -55 21.5t-13 57.5q6 38 31.5 60t62.5 22t55 -22t12 -60q-6 -36 -31 -57.5t-62 -21.5z" />
    <glyph glyph-name="cedilla" unicode="&#xb8;" 
d="M131 -201l8 50h72q23 0 38.5 12t17.5 25q3 19 -23.5 32.5t-77.5 13.5l50 94h53l-31 -61q25 -2 50.5 -12t41.5 -28t12 -44q-5 -34 -40.5 -58t-87.5 -24h-83z" />
    <glyph glyph-name="uni00B9" unicode="&#xb9;" 
d="M179 405l9 58h130l50 311l-135 -89l10 72l109 73h88l-58 -367h104l-9 -58h-298z" />
    <glyph glyph-name="ordmasculine" unicode="&#xba;" 
d="M326 445q-51 0 -77.5 28.5t-19.5 73.5l14 87q8 46 43 74t86 28t78.5 -28t19.5 -74l-14 -87q-7 -46 -43 -74t-87 -28zM332 482q31 0 52.5 18t25.5 47l14 87q5 29 -11 47t-46 18q-31 0 -52 -18t-26 -47l-14 -87q-4 -29 11.5 -47t45.5 -18z" />
    <glyph glyph-name="guillemotright" unicode="&#xbb;" 
d="M227 40l246 245l-165 235h90l167 -240l-241 -240h-97zM-5 40l245 245l-164 235h90l166 -240l-240 -240h-97z" />
    <glyph glyph-name="onequarter" unicode="&#xbc;" 
d="M50 405l7 47h119l38 241q-5 -6 -15.5 -16t-23.5 -20l-70 -54l10 66l80 61h81l-44 -278h100l-7 -47h-275zM439 0l11 70h-177l13 77l155 178h64l-165 -192l-3 -16h120l15 94h56l-33 -211h-56zM37 0l500 730h62l-501 -730h-61z" />
    <glyph glyph-name="onehalf" unicode="&#xbd;" 
d="M275 0l9 61l130 70q78 42 84 87q5 29 -10.5 47t-44.5 18q-30 0 -51.5 -18.5t-26.5 -48.5h-56q10 52 48.5 83t92.5 31q55 0 84 -30.5t21 -79.5q-5 -32 -33 -63t-75 -56l-96 -51l-1 -9q12 2 32.5 4t38.5 2h112l-7 -47h-251zM52 405l8 47h118l38 241q-5 -6 -15.5 -16
t-23.5 -20l-70 -54l10 66l80 61h81l-44 -278h111l-8 -47h-285zM37 0l500 730h62l-501 -730h-61z" />
    <glyph glyph-name="threequarters" unicode="&#xbe;" 
d="M439 0l11 70h-177l13 77l155 178h64l-165 -192l-3 -16h120l15 94h56l-33 -211h-56zM173 400q-57 0 -86 29t-22 76h56q-4 -26 12 -42t48 -16q30 0 51.5 16.5t25.5 42.5q5 26 -11.5 42t-45.5 16h-30l8 53l93 66h-156l8 47h211l-9 -52l-119 -84l3 16q54 0 83 -28.5t21 -75.5
q-7 -47 -46 -76.5t-95 -29.5zM37 0l500 730h62l-501 -730h-61z" />
    <glyph glyph-name="questiondown" unicode="&#xbf;" 
d="M261 -170q-69 0 -115.5 25t-66.5 71.5t-10 109.5q9 58 40.5 102t79 69.5t106.5 27.5l18 110h79l-28 -177h-50q-67 0 -111.5 -35t-54.5 -97q-9 -61 24.5 -96t100.5 -35h124l-12 -75h-124zM360 438q-28 0 -42.5 16.5t-10.5 42.5q5 27 24.5 42.5t47.5 15.5h16q28 0 42.5 -15
t10.5 -42t-24 -43.5t-48 -16.5h-16z" />
    <glyph glyph-name="Agrave" unicode="&#xc0;" 
d="M11 0l309 730h105l76 -730h-78l-18 198h-229l-82 -198h-83zM203 266h195l-24 244q-5 61 -7.5 102.5t-2.5 53.5q-4 -12 -19 -53.5t-41 -102.5zM358 810l-92 140h84l87 -140h-79z" />
    <glyph glyph-name="Aacute" unicode="&#xc1;" 
d="M11 0l309 730h105l76 -730h-78l-18 198h-229l-82 -198h-83zM203 266h195l-24 244q-5 61 -7.5 102.5t-2.5 53.5q-4 -12 -19 -53.5t-41 -102.5zM329 810l128 140h92l-134 -140h-86z" />
    <glyph glyph-name="Acircumflex" unicode="&#xc2;" 
d="M11 0l309 730h105l76 -730h-78l-18 198h-229l-82 -198h-83zM203 266h195l-24 244q-5 61 -7.5 102.5t-2.5 53.5q-4 -12 -19 -53.5t-41 -102.5zM211 810l156 140h77l113 -140h-84l-73 86l-99 -86h-90z" />
    <glyph glyph-name="Atilde" unicode="&#xc3;" 
d="M11 0l309 730h105l76 -730h-78l-18 198h-229l-82 -198h-83zM203 266h195l-24 244q-5 61 -7.5 102.5t-2.5 53.5q-4 -12 -19 -53.5t-41 -102.5zM456 815q-29 0 -46 11.5t-28.5 26.5t-22.5 26.5t-29 11.5q-15 0 -26.5 -10t-14.5 -30l-5 -31h-58l5 31q7 45 35.5 69.5
t69.5 24.5q29 0 46.5 -11.5t28.5 -26.5t22 -26.5t29 -11.5q15 0 25.5 10t13.5 30l6 31h58l-5 -31q-7 -45 -35 -69.5t-69 -24.5z" />
    <glyph glyph-name="Adieresis" unicode="&#xc4;" 
d="M11 0l309 730h105l76 -730h-78l-18 198h-229l-82 -198h-83zM203 266h195l-24 244q-5 61 -7.5 102.5t-2.5 53.5q-4 -12 -19 -53.5t-41 -102.5zM497 819q-28 0 -42 16.5t-10 44.5q5 29 24.5 45.5t47.5 16.5q27 0 41 -16.5t9 -45.5q-4 -28 -23.5 -44.5t-46.5 -16.5zM277 819
q-28 0 -42 16.5t-10 44.5q5 29 24.5 45.5t46.5 16.5q28 0 42 -16.5t9 -45.5q-4 -28 -23.5 -44.5t-46.5 -16.5z" />
    <glyph glyph-name="Aring" unicode="&#xc5;" 
d="M11 0l309 730h105l76 -730h-78l-18 198h-229l-82 -198h-83zM203 266h195l-24 244q-5 61 -7.5 102.5t-2.5 53.5q-4 -12 -19 -53.5t-41 -102.5zM378 770q-52 0 -79 30.5t-20 79.5q8 49 44.5 79.5t89.5 30.5q52 0 79 -30.5t19 -79.5q-7 -49 -44 -79.5t-89 -30.5zM386 818
q27 0 46.5 17t23.5 45q5 28 -9 45.5t-42 17.5q-27 0 -46.5 -17.5t-24.5 -45.5q-4 -28 10 -45t42 -17z" />
    <glyph glyph-name="AE" unicode="&#xc6;" 
d="M-13 0l273 730h382l-12 -72h-189l-38 -243h161l-11 -72h-162l-43 -271h189l-11 -72h-266l33 206h-149l-77 -206h-80zM168 273h135l61 385h-54z" />
    <glyph glyph-name="Ccedilla" unicode="&#xc7;" 
d="M142 -201l8 50h73q23 0 38.5 12t17.5 25q3 19 -23.5 32.5t-77.5 13.5l50 94h53l-32 -61q25 -2 51 -12t42 -28t11 -44q-5 -34 -40 -58t-87 -24h-84zM259 -10q-65 0 -108.5 25t-62 72t-8.5 110l53 336q11 64 44 110.5t84.5 71.5t116.5 25q64 0 107.5 -25.5t62 -72.5
t8.5 -112h-79q10 66 -19.5 102.5t-91.5 36.5t-102.5 -35.5t-51.5 -100.5l-53 -336q-10 -64 19.5 -100t91.5 -36q63 0 103.5 36.5t51.5 102.5h79q-10 -64 -44 -111.5t-85.5 -73t-115.5 -25.5z" />
    <glyph glyph-name="Egrave" unicode="&#xc8;" 
d="M61 0l116 730h412l-11 -72h-334l-38 -241h299l-12 -71h-298l-44 -274h334l-12 -72h-412zM378 810l-92 140h84l87 -140h-79z" />
    <glyph glyph-name="Eacute" unicode="&#xc9;" 
d="M61 0l116 730h412l-11 -72h-334l-38 -241h299l-12 -71h-298l-44 -274h334l-12 -72h-412zM349 810l128 140h92l-134 -140h-86z" />
    <glyph glyph-name="Ecircumflex" unicode="&#xca;" 
d="M61 0l116 730h412l-11 -72h-334l-38 -241h299l-12 -71h-298l-44 -274h334l-12 -72h-412zM231 810l156 140h77l113 -140h-84l-73 86l-99 -86h-90z" />
    <glyph glyph-name="Edieresis" unicode="&#xcb;" 
d="M61 0l116 730h412l-11 -72h-334l-38 -241h299l-12 -71h-298l-44 -274h334l-12 -72h-412zM517 819q-28 0 -42 16.5t-10 44.5q5 29 24.5 45.5t47.5 16.5q27 0 41 -16.5t9 -45.5q-4 -28 -23.5 -44.5t-46.5 -16.5zM297 819q-28 0 -42 16.5t-10 44.5q5 29 24.5 45.5t46.5 16.5
q28 0 42 -16.5t9 -45.5q-4 -28 -23.5 -44.5t-46.5 -16.5z" />
    <glyph glyph-name="Igrave" unicode="&#xcc;" 
d="M65 0l11 72h151l93 586h-151l12 72h382l-12 -72h-150l-93 -586h150l-11 -72h-382zM358 810l-92 140h84l87 -140h-79z" />
    <glyph glyph-name="Iacute" unicode="&#xcd;" 
d="M65 0l11 72h151l93 586h-151l12 72h382l-12 -72h-150l-93 -586h150l-11 -72h-382zM329 810l128 140h92l-134 -140h-86z" />
    <glyph glyph-name="Icircumflex" unicode="&#xce;" 
d="M65 0l11 72h151l93 586h-151l12 72h382l-12 -72h-150l-93 -586h150l-11 -72h-382zM211 810l156 140h77l113 -140h-84l-73 86l-99 -86h-90z" />
    <glyph glyph-name="Idieresis" unicode="&#xcf;" 
d="M65 0l11 72h151l93 586h-151l12 72h382l-12 -72h-150l-93 -586h150l-11 -72h-382zM497 819q-28 0 -42 16.5t-10 44.5q5 29 24.5 45.5t47.5 16.5q27 0 41 -16.5t9 -45.5q-4 -28 -23.5 -44.5t-46.5 -16.5zM277 819q-28 0 -42 16.5t-10 44.5q5 29 24.5 45.5t46.5 16.5
q28 0 42 -16.5t9 -45.5q-4 -28 -23.5 -44.5t-46.5 -16.5z" />
    <glyph glyph-name="Eth" unicode="&#xd0;" 
d="M10 339v67h280v-67h-280zM53 0l116 730h181q70 0 117 -27t67.5 -76.5t9.5 -115.5l-46 -291q-10 -67 -46.5 -116.5t-92 -76.5t-125.5 -27h-181zM144 71h101q70 0 116.5 40t57.5 109l46 291q11 68 -23 108t-104 40h-102z" />
    <glyph glyph-name="Ntilde" unicode="&#xd1;" 
d="M51 0l116 730h105l135 -638q2 23 5 56.5t7.5 68.5t9.5 63l71 450h77l-116 -730h-106l-133 638q-2 -20 -5 -51.5t-7.5 -67t-10.5 -69.5l-71 -450h-77zM456 815q-29 0 -46 11.5t-28.5 26.5t-22.5 26.5t-29 11.5q-15 0 -26.5 -10t-14.5 -30l-5 -31h-58l5 31q7 45 35.5 69.5
t69.5 24.5q29 0 46.5 -11.5t28.5 -26.5t22 -26.5t29 -11.5q15 0 25.5 10t13.5 30l6 31h58l-5 -31q-7 -45 -35 -69.5t-69 -24.5z" />
    <glyph glyph-name="Ograve" unicode="&#xd2;" 
d="M254 -10q-63 0 -106 25t-60.5 71.5t-7.5 110.5l53 336q11 64 43.5 110.5t83 71.5t113.5 25q64 0 106.5 -25t61 -71.5t7.5 -110.5l-53 -336q-10 -64 -43 -110.5t-83.5 -71.5t-114.5 -25zM265 61q62 0 101 35.5t50 100.5l53 336q10 65 -18 100.5t-89 35.5t-100 -35.5
t-50 -100.5l-53 -336q-10 -65 17.5 -100.5t88.5 -35.5zM358 810l-92 140h84l87 -140h-79z" />
    <glyph glyph-name="Oacute" unicode="&#xd3;" 
d="M254 -10q-63 0 -106 25t-60.5 71.5t-7.5 110.5l53 336q11 64 43.5 110.5t83 71.5t113.5 25q64 0 106.5 -25t61 -71.5t7.5 -110.5l-53 -336q-10 -64 -43 -110.5t-83.5 -71.5t-114.5 -25zM265 61q62 0 101 35.5t50 100.5l53 336q10 65 -18 100.5t-89 35.5t-100 -35.5
t-50 -100.5l-53 -336q-10 -65 17.5 -100.5t88.5 -35.5zM329 810l128 140h92l-134 -140h-86z" />
    <glyph glyph-name="Ocircumflex" unicode="&#xd4;" 
d="M254 -10q-63 0 -106 25t-60.5 71.5t-7.5 110.5l53 336q11 64 43.5 110.5t83 71.5t113.5 25q64 0 106.5 -25t61 -71.5t7.5 -110.5l-53 -336q-10 -64 -43 -110.5t-83.5 -71.5t-114.5 -25zM265 61q62 0 101 35.5t50 100.5l53 336q10 65 -18 100.5t-89 35.5t-100 -35.5
t-50 -100.5l-53 -336q-10 -65 17.5 -100.5t88.5 -35.5zM211 810l156 140h77l113 -140h-84l-73 86l-99 -86h-90z" />
    <glyph glyph-name="Otilde" unicode="&#xd5;" 
d="M254 -10q-63 0 -106 25t-60.5 71.5t-7.5 110.5l53 336q11 64 43.5 110.5t83 71.5t113.5 25q64 0 106.5 -25t61 -71.5t7.5 -110.5l-53 -336q-10 -64 -43 -110.5t-83.5 -71.5t-114.5 -25zM265 61q62 0 101 35.5t50 100.5l53 336q10 65 -18 100.5t-89 35.5t-100 -35.5
t-50 -100.5l-53 -336q-10 -65 17.5 -100.5t88.5 -35.5zM456 815q-29 0 -46 11.5t-28.5 26.5t-22.5 26.5t-29 11.5q-15 0 -26.5 -10t-14.5 -30l-5 -31h-58l5 31q7 45 35.5 69.5t69.5 24.5q29 0 46.5 -11.5t28.5 -26.5t22 -26.5t29 -11.5q15 0 25.5 10t13.5 30l6 31h58l-5 -31
q-7 -45 -35 -69.5t-69 -24.5z" />
    <glyph glyph-name="Odieresis" unicode="&#xd6;" 
d="M254 -10q-63 0 -106 25t-60.5 71.5t-7.5 110.5l53 336q11 64 43.5 110.5t83 71.5t113.5 25q64 0 106.5 -25t61 -71.5t7.5 -110.5l-53 -336q-10 -64 -43 -110.5t-83.5 -71.5t-114.5 -25zM265 61q62 0 101 35.5t50 100.5l53 336q10 65 -18 100.5t-89 35.5t-100 -35.5
t-50 -100.5l-53 -336q-10 -65 17.5 -100.5t88.5 -35.5zM497 819q-28 0 -42 16.5t-10 44.5q5 29 24.5 45.5t47.5 16.5q27 0 41 -16.5t9 -45.5q-4 -28 -23.5 -44.5t-46.5 -16.5zM277 819q-28 0 -42 16.5t-10 44.5q5 29 24.5 45.5t46.5 16.5q28 0 42 -16.5t9 -45.5
q-4 -28 -23.5 -44.5t-46.5 -16.5z" />
    <glyph glyph-name="multiply" unicode="&#xd7;" 
d="M133 137l-42 49l168 145l-120 144l53 45l120 -143l171 148l41 -50l-170 -148l121 -143l-54 -45l-120 143z" />
    <glyph glyph-name="Oslash" unicode="&#xd8;" 
d="M-11 -40l571 790h76l-571 -790h-76zM254 -10q-63 0 -106 25t-60.5 71.5t-7.5 110.5l53 336q11 64 43.5 110.5t83 71.5t113.5 25q64 0 106.5 -25t60.5 -71.5t8 -110.5l-53 -336q-10 -64 -43 -110.5t-83.5 -71.5t-114.5 -25zM265 61q62 0 101 35.5t50 100.5l53 336
q10 65 -18 100.5t-89 35.5t-100 -35.5t-50 -100.5l-53 -336q-10 -65 17.5 -100.5t88.5 -35.5z" />
    <glyph glyph-name="Ugrave" unicode="&#xd9;" 
d="M254 -10q-98 0 -142.5 56t-29.5 151l85 533h79l-84 -533q-11 -63 15 -99.5t89 -36.5q62 0 99.5 36.5t47.5 99.5l85 533h79l-84 -533q-10 -63 -42 -110t-81.5 -72t-115.5 -25zM358 810l-92 140h84l87 -140h-79z" />
    <glyph glyph-name="Uacute" unicode="&#xda;" 
d="M254 -10q-98 0 -142.5 56t-29.5 151l85 533h79l-84 -533q-11 -63 15 -99.5t89 -36.5q62 0 99.5 36.5t47.5 99.5l85 533h79l-84 -533q-10 -63 -42 -110t-81.5 -72t-115.5 -25zM329 810l128 140h92l-134 -140h-86z" />
    <glyph glyph-name="Ucircumflex" unicode="&#xdb;" 
d="M254 -10q-98 0 -142.5 56t-29.5 151l85 533h79l-84 -533q-11 -63 15 -99.5t89 -36.5q62 0 99.5 36.5t47.5 99.5l85 533h79l-84 -533q-10 -63 -42 -110t-81.5 -72t-115.5 -25zM211 810l156 140h77l113 -140h-84l-73 86l-99 -86h-90z" />
    <glyph glyph-name="Udieresis" unicode="&#xdc;" 
d="M254 -10q-98 0 -142.5 56t-29.5 151l85 533h79l-84 -533q-11 -63 15 -99.5t89 -36.5q62 0 99.5 36.5t47.5 99.5l85 533h79l-84 -533q-10 -63 -42 -110t-81.5 -72t-115.5 -25zM497 819q-28 0 -42 16.5t-10 44.5q5 29 24.5 45.5t47.5 16.5q27 0 41 -16.5t9 -45.5
q-4 -28 -23.5 -44.5t-46.5 -16.5zM277 819q-28 0 -42 16.5t-10 44.5q5 29 24.5 45.5t46.5 16.5q28 0 42 -16.5t9 -45.5q-4 -28 -23.5 -44.5t-46.5 -16.5z" />
    <glyph glyph-name="Yacute" unicode="&#xdd;" 
d="M216 0l44 275l-149 455h80l101 -308q8 -24 13 -42t6 -27l15 27t26 42l197 308h84l-294 -455l-43 -275h-80zM329 810l128 140h92l-134 -140h-86z" />
    <glyph glyph-name="Thorn" unicode="&#xde;" 
d="M50 0l116 730h79l-24 -154h159q96 0 145.5 -53.5t35.5 -142.5q-9 -60 -42 -104t-84.5 -68t-115.5 -24h-160l-30 -184h-79zM170 255h159q61 0 101 34t49 91q10 58 -20 91.5t-90 33.5h-160z" />
    <glyph glyph-name="germandbls" unicode="&#xdf;" 
d="M-132 -180l12 72h75q41 0 64 19.5t29 59.5l90 565q10 62 43 108t83 71t113 25t106 -22t62.5 -64t9.5 -101q-8 -51 -35.5 -90.5t-69.5 -61.5t-94 -21l2 13q57 1 95 -21.5t54.5 -64.5t7.5 -99q-10 -62 -43.5 -109t-85.5 -73t-118 -26h-65l12 72h57q65 0 107.5 37t52.5 99
t-20.5 97t-96.5 35h-43l11 69h41q59 0 98.5 36.5t48.5 92.5q9 61 -19 95.5t-87 34.5q-58 0 -98 -35.5t-50 -96.5l-89 -565q-12 -70 -61 -110.5t-125 -40.5h-74z" />
    <glyph glyph-name="agrave" unicode="&#xe0;" 
d="M228 -10q-82 0 -122.5 55t-25.5 148l26 163q10 63 39.5 108.5t74 70.5t99.5 25q69 0 105 -38t26 -102l-16 33h19l15 97h79l-87 -550h-79l15 97h-20l28 33q-10 -65 -58.5 -102.5t-117.5 -37.5zM264 59q59 0 98.5 36.5t49.5 101.5l24 156q11 65 -17 101.5t-87 36.5
q-60 0 -98.5 -36t-49.5 -102l-24 -156q-10 -66 17 -102t87 -36zM337 645l-92 140h84l87 -140h-79z" />
    <glyph glyph-name="aacute" unicode="&#xe1;" 
d="M228 -10q-82 0 -122.5 55t-25.5 148l26 163q10 63 39.5 108.5t74 70.5t99.5 25q69 0 105 -38t26 -102l-16 33h19l15 97h79l-87 -550h-79l15 97h-20l28 33q-10 -65 -58.5 -102.5t-117.5 -37.5zM264 59q59 0 98.5 36.5t49.5 101.5l24 156q11 65 -17 101.5t-87 36.5
q-60 0 -98.5 -36t-49.5 -102l-24 -156q-10 -66 17 -102t87 -36zM311 645l128 140h92l-134 -140h-86z" />
    <glyph glyph-name="acircumflex" unicode="&#xe2;" 
d="M228 -10q-82 0 -122.5 55t-25.5 148l26 163q10 63 39.5 108.5t74 70.5t99.5 25q69 0 105 -38t26 -102l-16 33h19l15 97h79l-87 -550h-79l15 97h-20l28 33q-10 -65 -58.5 -102.5t-117.5 -37.5zM264 59q59 0 98.5 36.5t49.5 101.5l24 156q11 65 -17 101.5t-87 36.5
q-60 0 -98.5 -36t-49.5 -102l-24 -156q-10 -66 17 -102t87 -36zM190 645l156 140h77l113 -140h-84l-73 86l-99 -86h-90z" />
    <glyph glyph-name="atilde" unicode="&#xe3;" 
d="M228 -10q-82 0 -122.5 55t-25.5 148l26 163q10 63 39.5 108.5t74 70.5t99.5 25q69 0 105 -38t26 -102l-16 33h19l15 97h79l-87 -550h-79l15 97h-20l28 33q-10 -65 -58.5 -102.5t-117.5 -37.5zM264 59q59 0 98.5 36.5t49.5 101.5l24 156q11 65 -17 101.5t-87 36.5
q-60 0 -98.5 -36t-49.5 -102l-24 -156q-10 -66 17 -102t87 -36zM435 650q-29 0 -46 11.5t-28.5 26.5t-22.5 26.5t-29 11.5q-15 0 -26.5 -10t-14.5 -30l-5 -31h-58l4 31q8 45 36.5 69.5t69.5 24.5q29 0 46.5 -11.5t28.5 -26.5t22 -26.5t28 -11.5q16 0 26.5 10t13.5 30l6 31
h58l-5 -31q-7 -45 -35 -69.5t-69 -24.5z" />
    <glyph glyph-name="adieresis" unicode="&#xe4;" 
d="M228 -10q-82 0 -122.5 55t-25.5 148l26 163q10 63 39.5 108.5t74 70.5t99.5 25q69 0 105 -38t26 -102l-16 33h19l15 97h79l-87 -550h-79l15 97h-20l28 33q-10 -65 -58.5 -102.5t-117.5 -37.5zM264 59q59 0 98.5 36.5t49.5 101.5l24 156q11 65 -17 101.5t-87 36.5
q-60 0 -98.5 -36t-49.5 -102l-24 -156q-10 -66 17 -102t87 -36zM474 651q-27 0 -41 16t-10 44q5 29 24 46t47 17q27 0 41 -17t9 -46q-4 -27 -23 -43.5t-47 -16.5zM254 651q-27 0 -41 16t-10 44q5 29 24 46t46 17q28 0 42.5 -17t9.5 -46q-4 -27 -23.5 -43.5t-47.5 -16.5z" />
    <glyph glyph-name="aring" unicode="&#xe5;" 
d="M228 -10q-82 0 -122.5 55t-25.5 148l26 163q10 63 39.5 108.5t74 70.5t99.5 25q69 0 105 -38t26 -102l-16 33h19l15 97h79l-87 -550h-79l15 97h-20l28 33q-10 -65 -58.5 -102.5t-117.5 -37.5zM264 59q59 0 98.5 36.5t49.5 101.5l24 156q11 65 -17 101.5t-87 36.5
q-60 0 -98.5 -36t-49.5 -102l-24 -156q-10 -66 17 -102t87 -36zM358 610q-53 0 -79.5 30.5t-19.5 79.5q8 50 44.5 80t88.5 30q53 0 80 -30.5t19 -79.5q-7 -49 -44 -79.5t-89 -30.5zM365 658q28 0 47.5 17t23.5 45q5 29 -9 46t-42 17t-47.5 -17.5t-24.5 -45.5
q-4 -28 10.5 -45t41.5 -17z" />
    <glyph glyph-name="ae" unicode="&#xe6;" 
d="M125 -10q-62 0 -91.5 39t-19.5 103l8 57q10 61 55 97t113 36h83l13 80q7 44 -8.5 67t-52.5 23q-31 0 -53 -19.5t-28 -51.5h-76q11 63 54 101t103 38q39 0 62.5 -13.5t34.5 -32t11 -36.5h3q7 18 23.5 36.5t43 32t63.5 13.5q66 0 97.5 -42.5t19.5 -114.5l-23 -145h-224
l-18 -111q-6 -39 11 -64t50 -25q34 0 57 19.5t29 51.5h76q-12 -63 -56.5 -101t-108.5 -38q-38 0 -60.5 13t-33 32t-10.5 36h-4q-5 -17 -23 -36t-47.5 -32t-72.5 -13zM154 58q34 0 59.5 25t32.5 64l17 111h-82q-32 0 -53 -18.5t-27 -50.5l-8 -57q-6 -33 10.5 -53.5
t50.5 -20.5zM346 322h149l13 81q6 40 -10.5 64.5t-51.5 24.5q-33 0 -57 -24.5t-30 -64.5z" />
    <glyph glyph-name="ccedilla" unicode="&#xe7;" 
d="M134 -201l8 50h73q22 0 38 12t18 25q3 19 -24 32.5t-77 13.5l49 94h53l-31 -61q25 -2 51 -12t41.5 -28t11.5 -44q-5 -34 -40.5 -58t-86.5 -24h-84zM257 -10q-64 0 -107.5 25t-61.5 71.5t-8 110.5l24 156q11 64 43.5 110.5t84.5 71.5t116 25q94 0 143 -51t37 -139h-79
q6 57 -23.5 88t-88.5 31q-62 0 -102.5 -35.5t-50.5 -100.5l-25 -156q-10 -64 19.5 -100t90.5 -36q60 0 99 31.5t51 87.5h79q-16 -88 -81.5 -139t-159.5 -51z" />
    <glyph glyph-name="egrave" unicode="&#xe8;" 
d="M254 -10q-64 0 -106 25.5t-60 72.5t-8 109l24 156q11 63 43.5 109.5t83 72t114.5 25.5t106.5 -25.5t60.5 -72t7 -109.5l-15 -97h-337l-9 -59q-10 -67 17 -103.5t90 -36.5q53 0 88.5 21t50.5 61h79q-14 -46 -46.5 -79.5t-79 -51.5t-103.5 -18zM435 309l6 44
q11 67 -16 103.5t-90 36.5q-64 0 -103 -36.5t-50 -103.5l-5 -35h267zM332 645l-92 140h84l87 -140h-79z" />
    <glyph glyph-name="eacute" unicode="&#xe9;" 
d="M254 -10q-64 0 -106 25.5t-60 72.5t-8 109l24 156q11 63 43.5 109.5t83 72t114.5 25.5t106.5 -25.5t60.5 -72t7 -109.5l-15 -97h-337l-9 -59q-10 -67 17 -103.5t90 -36.5q53 0 88.5 21t50.5 61h79q-14 -46 -46.5 -79.5t-79 -51.5t-103.5 -18zM435 309l6 44
q11 67 -16 103.5t-90 36.5q-64 0 -103 -36.5t-50 -103.5l-5 -35h267zM306 645l128 140h92l-134 -140h-86z" />
    <glyph glyph-name="ecircumflex" unicode="&#xea;" 
d="M254 -10q-64 0 -106 25.5t-60 72.5t-8 109l24 156q11 63 43.5 109.5t83 72t114.5 25.5t106.5 -25.5t60.5 -72t7 -109.5l-15 -97h-337l-9 -59q-10 -67 17 -103.5t90 -36.5q53 0 88.5 21t50.5 61h79q-14 -46 -46.5 -79.5t-79 -51.5t-103.5 -18zM435 309l6 44
q11 67 -16 103.5t-90 36.5q-64 0 -103 -36.5t-50 -103.5l-5 -35h267zM185 645l156 140h77l113 -140h-84l-73 86l-99 -86h-90z" />
    <glyph glyph-name="edieresis" unicode="&#xeb;" 
d="M254 -10q-64 0 -106 25.5t-60 72.5t-8 109l24 156q11 63 43.5 109.5t83 72t114.5 25.5t106.5 -25.5t60.5 -72t7 -109.5l-15 -97h-337l-9 -59q-10 -67 17 -103.5t90 -36.5q53 0 88.5 21t50.5 61h79q-14 -46 -46.5 -79.5t-79 -51.5t-103.5 -18zM435 309l6 44
q11 67 -16 103.5t-90 36.5q-64 0 -103 -36.5t-50 -103.5l-5 -35h267zM469 651q-27 0 -41 16t-10 44q5 29 24 46t47 17q27 0 41 -17t9 -46q-4 -27 -23 -43.5t-47 -16.5zM249 651q-27 0 -41 16t-10 44q5 29 24 46t46 17q28 0 42.5 -17t9.5 -46q-4 -27 -23.5 -43.5t-47.5 -16.5
z" />
    <glyph glyph-name="igrave" unicode="&#xec;" 
d="M40 0l11 72h197l64 406h-171l11 72h251l-76 -478h186l-11 -72h-462zM347 645l-92 140h84l87 -140h-79z" />
    <glyph glyph-name="iacute" unicode="&#xed;" 
d="M40 0l11 72h197l64 406h-171l11 72h251l-76 -478h186l-11 -72h-462zM321 645l128 140h92l-134 -140h-86z" />
    <glyph glyph-name="icircumflex" unicode="&#xee;" 
d="M40 0l11 72h197l64 406h-171l11 72h251l-76 -478h186l-11 -72h-462zM200 645l156 140h77l113 -140h-84l-73 86l-99 -86h-90z" />
    <glyph glyph-name="idieresis" unicode="&#xef;" 
d="M40 0l11 72h197l64 406h-171l11 72h251l-76 -478h186l-11 -72h-462zM484 651q-27 0 -41 16t-10 44q5 29 24 46t47 17q27 0 41 -17t9 -46q-4 -27 -23 -43.5t-47 -16.5zM264 651q-27 0 -41 16t-10 44q5 29 24 46t46 17q28 0 42.5 -17t9.5 -46q-4 -27 -23.5 -43.5
t-47.5 -16.5z" />
    <glyph glyph-name="eth" unicode="&#xf0;" 
d="M253 -10q-67 0 -113.5 28t-66.5 79t-10 118q11 67 44.5 116.5t85.5 77t115 27.5q32 0 55 -10.5t38 -25.5t21 -29h11q-2 11 -14.5 40.5t-35.5 71.5l-52 93l-179 -75l11 71l137 60l-56 98h83l37 -68l168 68l-10 -72l-127 -52l62 -107q41 -68 56.5 -141t4.5 -138
q-11 -69 -47.5 -121t-92.5 -80.5t-125 -28.5zM265 62q67 0 114 42t58 111q7 46 -6 80.5t-43 53.5t-74 19q-66 0 -112.5 -42t-58.5 -111q-10 -69 23 -111t99 -42z" />
    <glyph glyph-name="ntilde" unicode="&#xf1;" 
d="M53 0l87 550h79l-16 -102h20l-27 -29q11 66 57.5 103.5t116.5 37.5q82 0 123 -51.5t27 -139.5l-59 -369h-79l57 360q10 63 -17.5 98t-84.5 35q-58 0 -98 -37t-51 -103l-56 -353h-79zM430 650q-29 0 -46 11.5t-28.5 26.5t-22.5 26.5t-29 11.5q-15 0 -26.5 -10t-14.5 -30
l-5 -31h-58l4 31q8 45 36.5 69.5t69.5 24.5q29 0 46.5 -11.5t28.5 -26.5t22 -26.5t28 -11.5q16 0 26.5 10t13.5 30l6 31h58l-5 -31q-7 -45 -35 -69.5t-69 -24.5z" />
    <glyph glyph-name="ograve" unicode="&#xf2;" 
d="M254 -10q-63 0 -106 25t-60.5 71.5t-7.5 110.5l24 156q11 64 43.5 110.5t83.5 71.5t114 25q64 0 106.5 -25t60.5 -71.5t8 -110.5l-25 -156q-10 -64 -43 -110.5t-83.5 -71.5t-114.5 -25zM265 60q62 0 101 35.5t50 101.5l24 156q11 66 -17 101.5t-89 35.5t-100 -35.5
t-51 -101.5l-24 -156q-10 -66 17.5 -101.5t88.5 -35.5zM332 645l-92 140h84l87 -140h-79z" />
    <glyph glyph-name="oacute" unicode="&#xf3;" 
d="M254 -10q-63 0 -106 25t-60.5 71.5t-7.5 110.5l24 156q11 64 43.5 110.5t83.5 71.5t114 25q64 0 106.5 -25t60.5 -71.5t8 -110.5l-25 -156q-10 -64 -43 -110.5t-83.5 -71.5t-114.5 -25zM265 60q62 0 101 35.5t50 101.5l24 156q11 66 -17 101.5t-89 35.5t-100 -35.5
t-51 -101.5l-24 -156q-10 -66 17.5 -101.5t88.5 -35.5zM306 645l128 140h92l-134 -140h-86z" />
    <glyph glyph-name="ocircumflex" unicode="&#xf4;" 
d="M254 -10q-63 0 -106 25t-60.5 71.5t-7.5 110.5l24 156q11 64 43.5 110.5t83.5 71.5t114 25q64 0 106.5 -25t60.5 -71.5t8 -110.5l-25 -156q-10 -64 -43 -110.5t-83.5 -71.5t-114.5 -25zM265 60q62 0 101 35.5t50 101.5l24 156q11 66 -17 101.5t-89 35.5t-100 -35.5
t-51 -101.5l-24 -156q-10 -66 17.5 -101.5t88.5 -35.5zM185 645l156 140h77l113 -140h-84l-73 86l-99 -86h-90z" />
    <glyph glyph-name="otilde" unicode="&#xf5;" 
d="M254 -10q-63 0 -106 25t-60.5 71.5t-7.5 110.5l24 156q11 64 43.5 110.5t83.5 71.5t114 25q64 0 106.5 -25t60.5 -71.5t8 -110.5l-25 -156q-10 -64 -43 -110.5t-83.5 -71.5t-114.5 -25zM265 60q62 0 101 35.5t50 101.5l24 156q11 66 -17 101.5t-89 35.5t-100 -35.5
t-51 -101.5l-24 -156q-10 -66 17.5 -101.5t88.5 -35.5zM430 650q-29 0 -46 11.5t-28.5 26.5t-22.5 26.5t-29 11.5q-15 0 -26.5 -10t-14.5 -30l-5 -31h-58l4 31q8 45 36.5 69.5t69.5 24.5q29 0 46.5 -11.5t28.5 -26.5t22 -26.5t28 -11.5q16 0 26.5 10t13.5 30l6 31h58l-5 -31
q-7 -45 -35 -69.5t-69 -24.5z" />
    <glyph glyph-name="odieresis" unicode="&#xf6;" 
d="M254 -10q-63 0 -106 25t-60.5 71.5t-7.5 110.5l24 156q11 64 43.5 110.5t83.5 71.5t114 25q64 0 106.5 -25t60.5 -71.5t8 -110.5l-25 -156q-10 -64 -43 -110.5t-83.5 -71.5t-114.5 -25zM265 60q62 0 101 35.5t50 101.5l24 156q11 66 -17 101.5t-89 35.5t-100 -35.5
t-51 -101.5l-24 -156q-10 -66 17.5 -101.5t88.5 -35.5zM469 651q-27 0 -41 16t-10 44q5 29 24 46t47 17q27 0 41 -17t9 -46q-4 -27 -23 -43.5t-47 -16.5zM249 651q-27 0 -41 16t-10 44q5 29 24 46t46 17q28 0 42.5 -17t9.5 -46q-4 -27 -23.5 -43.5t-47.5 -16.5z" />
    <glyph glyph-name="divide" unicode="&#xf7;" 
d="M104 299l10 68h400l-10 -68h-400zM261 89q-28 0 -42 15.5t-10 42.5q4 26 23.5 42.5t47.5 16.5h16q28 0 43 -16.5t10 -42.5q-4 -27 -24 -42.5t-48 -15.5h-16zM320 459q-28 0 -42.5 15t-10.5 43q4 26 24 42.5t48 16.5h16q27 0 42 -16.5t10 -42.5q-4 -27 -23.5 -42.5
t-47.5 -15.5h-16z" />
    <glyph glyph-name="oslash" unicode="&#xf8;" 
d="M-8 -30l534 620h82l-535 -620h-81zM254 -10q-63 0 -106 25t-60.5 71.5t-7.5 110.5l24 156q10 64 43 110.5t84 71.5t114 25q64 0 106.5 -25t60.5 -71.5t8 -110.5l-25 -156q-10 -64 -43 -110.5t-83.5 -71.5t-114.5 -25zM265 60q63 0 103.5 36.5t50.5 100.5l24 156
q11 65 -18 101t-91 36q-63 0 -103.5 -36t-50.5 -101l-24 -156q-11 -64 18 -100.5t91 -36.5z" />
    <glyph glyph-name="ugrave" unicode="&#xf9;" 
d="M253 -10q-93 0 -139.5 56t-30.5 152l55 352h79l-55 -352q-11 -65 17 -101.5t86 -36.5q59 0 98.5 36.5t50.5 101.5l55 352h79l-55 -352q-10 -63 -43 -110t-83.5 -72.5t-113.5 -25.5zM332 645l-92 140h84l87 -140h-79z" />
    <glyph glyph-name="uacute" unicode="&#xfa;" 
d="M253 -10q-93 0 -139.5 56t-30.5 152l55 352h79l-55 -352q-11 -65 17 -101.5t86 -36.5q59 0 98.5 36.5t50.5 101.5l55 352h79l-55 -352q-10 -63 -43 -110t-83.5 -72.5t-113.5 -25.5zM306 645l128 140h92l-134 -140h-86z" />
    <glyph glyph-name="ucircumflex" unicode="&#xfb;" 
d="M253 -10q-93 0 -139.5 56t-30.5 152l55 352h79l-55 -352q-11 -65 17 -101.5t86 -36.5q59 0 98.5 36.5t50.5 101.5l55 352h79l-55 -352q-10 -63 -43 -110t-83.5 -72.5t-113.5 -25.5zM185 645l156 140h77l113 -140h-84l-73 86l-99 -86h-90z" />
    <glyph glyph-name="udieresis" unicode="&#xfc;" 
d="M253 -10q-93 0 -139.5 56t-30.5 152l55 352h79l-55 -352q-11 -65 17 -101.5t86 -36.5q59 0 98.5 36.5t50.5 101.5l55 352h79l-55 -352q-10 -63 -43 -110t-83.5 -72.5t-113.5 -25.5zM469 651q-27 0 -41 16t-10 44q5 29 24 46t47 17q27 0 41 -17t9 -46q-4 -27 -23 -43.5
t-47 -16.5zM249 651q-27 0 -41 16t-10 44q5 29 24 46t46 17q28 0 42.5 -17t9.5 -46q-4 -27 -23.5 -43.5t-47.5 -16.5z" />
    <glyph glyph-name="yacute" unicode="&#xfd;" 
d="M91 -180l12 72h167q46 0 72.5 22t33.5 67l11 73l17 98h-20l26 29q-10 -66 -56.5 -103.5t-116.5 -37.5q-82 0 -123 51.5t-27 139.5l50 319h80l-49 -310q-11 -62 17 -97.5t84 -35.5q59 0 99.5 37t50.5 103l47 303h80l-91 -569q-11 -76 -63.5 -118.5t-134.5 -42.5h-166z
M306 645l128 140h92l-134 -140h-86z" />
    <glyph glyph-name="thorn" unicode="&#xfe;" 
d="M20 -180l38 239h80l-38 -239h-80zM277 -10q-69 0 -105 37.5t-26 102.5l19 -33h-21l-16 -97h-79l116 730h79l-25 -157l-21 -120h20l-26 -33q11 64 59.5 102t116.5 38q83 0 123 -55t25 -149l-25 -163q-10 -63 -39.5 -108t-74.5 -70t-100 -25zM264 59q60 0 98.5 36t49.5 102
l24 156q11 66 -16.5 102t-87.5 36q-58 0 -97.5 -36.5t-50.5 -101.5l-24 -156q-11 -65 17.5 -101.5t86.5 -36.5z" />
    <glyph glyph-name="ydieresis" unicode="&#xff;" 
d="M91 -180l12 72h167q46 0 72.5 22t33.5 67l11 73l17 98h-20l26 29q-10 -66 -56.5 -103.5t-116.5 -37.5q-82 0 -123 51.5t-27 139.5l50 319h80l-49 -310q-11 -62 17 -97.5t84 -35.5q59 0 99.5 37t50.5 103l47 303h80l-91 -569q-11 -76 -63.5 -118.5t-134.5 -42.5h-166z
M469 651q-27 0 -41 16t-10 44q5 29 24 46t47 17q27 0 41 -17t9 -46q-4 -27 -23 -43.5t-47 -16.5zM249 651q-27 0 -41 16t-10 44q5 29 24 46t46 17q28 0 42.5 -17t9.5 -46q-4 -27 -23.5 -43.5t-47.5 -16.5z" />
    <glyph glyph-name="Amacron" unicode="&#x100;" 
d="M11 0l309 730h105l76 -730h-78l-18 198h-229l-82 -198h-83zM203 266h195l-24 244q-5 61 -7.5 102.5t-2.5 53.5q-4 -12 -19 -53.5t-41 -102.5zM235 844l11 66h309l-11 -66h-309z" />
    <glyph glyph-name="amacron" unicode="&#x101;" 
d="M228 -10q-82 0 -122.5 55t-25.5 148l26 163q10 63 39.5 108.5t74 70.5t99.5 25q69 0 105 -38t26 -102l-16 33h19l15 97h79l-87 -550h-79l15 97h-20l28 33q-10 -65 -58.5 -102.5t-117.5 -37.5zM264 59q59 0 98.5 36.5t49.5 101.5l24 156q11 65 -17 101.5t-87 36.5
q-60 0 -98.5 -36t-49.5 -102l-24 -156q-10 -66 17 -102t87 -36zM213 674l11 66h309l-11 -66h-309z" />
    <glyph glyph-name="Abreve" unicode="&#x102;" 
d="M11 0l309 730h105l76 -730h-78l-18 198h-229l-82 -198h-83zM203 266h195l-24 244q-5 61 -7.5 102.5t-2.5 53.5q-4 -12 -19 -53.5t-41 -102.5zM383 806q-70 0 -106.5 39.5t-26.5 104.5h63q-6 -41 15 -66t62 -25q43 0 72 25t35 66h65q-10 -65 -59 -104.5t-120 -39.5z" />
    <glyph glyph-name="abreve" unicode="&#x103;" 
d="M228 -10q-82 0 -122.5 55t-25.5 148l26 163q10 63 39.5 108.5t74 70.5t99.5 25q69 0 105 -38t26 -102l-16 33h19l15 97h79l-87 -550h-79l15 97h-20l28 33q-10 -65 -58.5 -102.5t-117.5 -37.5zM264 59q59 0 98.5 36.5t49.5 101.5l24 156q11 65 -17 101.5t-87 36.5
q-60 0 -98.5 -36t-49.5 -102l-24 -156q-10 -66 17 -102t87 -36zM362 641q-70 0 -106.5 39.5t-26.5 104.5h63q-6 -41 15 -66t62 -25q43 0 72 25t35 66h65q-10 -65 -59 -104.5t-120 -39.5z" />
    <glyph glyph-name="Aogonek" unicode="&#x104;" 
d="M429 -201q-51 0 -78 25t-21 65q5 29 29.5 59t74.5 62h65l-13 -9q-37 -28 -56 -52t-23 -45q-3 -22 9 -36t37 -14h61l-8 -55h-77zM11 0l309 730h105l76 -730h-78l-18 198h-229l-82 -198h-83zM203 266h195l-24 244q-5 61 -7.5 102.5t-2.5 53.5q-4 -12 -19 -53.5t-41 -102.5z
" />
    <glyph glyph-name="aogonek" unicode="&#x105;" 
d="M403 -201q-52 0 -79 25t-20 65q5 29 29.5 59t73.5 62l52 -10q-36 -28 -55.5 -51.5t-22.5 -44.5q-4 -22 8.5 -36t37.5 -14h61l-9 -55h-76zM228 -10q-82 0 -122.5 55t-25.5 148l26 163q10 63 39.5 108.5t74 70.5t99.5 25q69 0 105 -38t26 -102l-16 33h19l15 97h79l-87 -550
h-79l15 97h-20l28 33q-10 -65 -58.5 -102.5t-117.5 -37.5zM264 59q59 0 98.5 36.5t49.5 101.5l24 156q11 65 -17 101.5t-87 36.5q-60 0 -98.5 -36t-49.5 -102l-24 -156q-10 -66 17 -102t87 -36z" />
    <glyph glyph-name="Cacute" unicode="&#x106;" 
d="M259 -10q-65 0 -108.5 25t-62 72t-8.5 110l53 336q11 64 44 110.5t84.5 71.5t116.5 25q64 0 107.5 -25.5t62 -72.5t8.5 -112h-79q10 66 -19.5 102.5t-91.5 36.5t-102.5 -35.5t-51.5 -100.5l-53 -336q-10 -64 19.5 -100t91.5 -36q63 0 103.5 36.5t51.5 102.5h79
q-10 -64 -44 -111.5t-85.5 -73t-115.5 -25.5zM334 810l128 140h92l-134 -140h-86z" />
    <glyph glyph-name="cacute" unicode="&#x107;" 
d="M257 -10q-64 0 -107.5 25t-61.5 71.5t-8 110.5l24 156q11 64 43.5 110.5t84.5 71.5t116 25q94 0 143 -51t37 -139h-79q6 57 -23.5 88t-88.5 31q-62 0 -102.5 -35.5t-50.5 -100.5l-25 -156q-10 -64 19.5 -100t90.5 -36q60 0 99 31.5t51 87.5h79q-16 -88 -81.5 -139
t-159.5 -51zM309 645l128 140h92l-134 -140h-86z" />
    <glyph glyph-name="Ccircumflex" unicode="&#x108;" 
d="M259 -10q-65 0 -108.5 25t-62 72t-8.5 110l53 336q11 64 44 110.5t84.5 71.5t116.5 25q64 0 107.5 -25.5t62 -72.5t8.5 -112h-79q10 66 -19.5 102.5t-91.5 36.5t-102.5 -35.5t-51.5 -100.5l-53 -336q-10 -64 19.5 -100t91.5 -36q63 0 103.5 36.5t51.5 102.5h79
q-10 -64 -44 -111.5t-85.5 -73t-115.5 -25.5zM216 810l156 140h77l113 -140h-84l-73 86l-99 -86h-90z" />
    <glyph glyph-name="ccircumflex" unicode="&#x109;" 
d="M257 -10q-64 0 -107.5 25t-61.5 71.5t-8 110.5l24 156q11 64 43.5 110.5t84.5 71.5t116 25q94 0 143 -51t37 -139h-79q6 57 -23.5 88t-88.5 31q-62 0 -102.5 -35.5t-50.5 -100.5l-25 -156q-10 -64 19.5 -100t90.5 -36q60 0 99 31.5t51 87.5h79q-16 -88 -81.5 -139
t-159.5 -51zM185 645l156 140h77l113 -140h-84l-73 86l-99 -86h-90z" />
    <glyph glyph-name="Cdotaccent" unicode="&#x10a;" 
d="M259 -10q-65 0 -108.5 25t-62 72t-8.5 110l53 336q11 64 44 110.5t84.5 71.5t116.5 25q64 0 107.5 -25.5t62 -72.5t8.5 -112h-79q10 66 -19.5 102.5t-91.5 36.5t-102.5 -35.5t-51.5 -100.5l-53 -336q-10 -64 19.5 -100t91.5 -36q63 0 103.5 36.5t51.5 102.5h79
q-10 -64 -44 -111.5t-85.5 -73t-115.5 -25.5zM391 818q-32 0 -47.5 17t-11.5 45q5 28 26 45t52 17q32 0 47.5 -17t10.5 -45q-4 -28 -25 -45t-52 -17z" />
    <glyph glyph-name="cdotaccent" unicode="&#x10b;" 
d="M257 -10q-64 0 -107.5 25t-61.5 71.5t-8 110.5l24 156q11 64 43.5 110.5t84.5 71.5t116 25q94 0 143 -51t37 -139h-79q6 57 -23.5 88t-88.5 31q-62 0 -102.5 -35.5t-50.5 -100.5l-25 -156q-10 -64 19.5 -100t90.5 -36q60 0 99 31.5t51 87.5h79q-16 -88 -81.5 -139
t-159.5 -51zM361 651q-31 0 -47 16.5t-13 43.5q4 29 24 46t51 17t47.5 -17t12.5 -46q-3 -27 -23 -43.5t-52 -16.5z" />
    <glyph glyph-name="Ccaron" unicode="&#x10c;" 
d="M259 -10q-65 0 -108.5 25t-62 72t-8.5 110l53 336q11 64 44 110.5t84.5 71.5t116.5 25q64 0 107.5 -25.5t62 -72.5t8.5 -112h-79q10 66 -19.5 102.5t-91.5 36.5t-102.5 -35.5t-51.5 -100.5l-53 -336q-10 -64 19.5 -100t91.5 -36q63 0 103.5 36.5t51.5 102.5h79
q-10 -64 -44 -111.5t-85.5 -73t-115.5 -25.5zM351 810l-113 140h84l74 -86l99 86h89l-156 -140h-77z" />
    <glyph glyph-name="ccaron" unicode="&#x10d;" 
d="M257 -10q-64 0 -107.5 25t-61.5 71.5t-8 110.5l24 156q11 64 43.5 110.5t84.5 71.5t116 25q94 0 143 -51t37 -139h-79q6 57 -23.5 88t-88.5 31q-62 0 -102.5 -35.5t-50.5 -100.5l-25 -156q-10 -64 19.5 -100t90.5 -36q60 0 99 31.5t51 87.5h79q-16 -88 -81.5 -139
t-159.5 -51zM324 645l-113 140h84l74 -86l99 86h89l-156 -140h-77z" />
    <glyph glyph-name="Dcaron" unicode="&#x10e;" 
d="M53 0l116 730h181q70 0 117 -27t67.5 -76.5t9.5 -115.5l-46 -291q-10 -67 -46.5 -116.5t-92 -76.5t-125.5 -27h-181zM144 71h101q70 0 116.5 40t57.5 109l46 291q11 68 -23 108t-104 40h-102zM346 810l-113 140h84l74 -86l99 86h89l-156 -140h-77z" />
    <glyph glyph-name="dcaron" unicode="&#x10f;" 
d="M553 550l32 180h79l-40 -180h-71zM191 -10q-77 0 -113 54t-22 145l27 171q14 92 68 146t131 54q64 0 96 -38t21 -102l-15 33h19l18 120l25 157h80l-116 -730h-80l16 97h-21l28 33q-10 -64 -54 -102t-108 -38zM227 59q53 0 88.5 35.5t45.5 98.5l25 163q11 64 -13 99.5
t-78 35.5q-52 0 -87.5 -35.5t-45.5 -99.5l-26 -163q-10 -63 14.5 -98.5t76.5 -35.5z" />
    <glyph glyph-name="Dcroat" unicode="&#x110;" 
d="M10 339v67h280v-67h-280zM53 0l116 730h181q70 0 117 -27t67.5 -76.5t9.5 -115.5l-46 -291q-10 -67 -46.5 -116.5t-92 -76.5t-125.5 -27h-181zM144 71h101q70 0 116.5 40t57.5 109l46 291q11 68 -23 108t-104 40h-102z" />
    <glyph glyph-name="dcroat" unicode="&#x111;" 
d="M81 193l16 103q10 63 39 108.5t73 70.5t99 25q60 0 94.5 -28.5t36.5 -78.5h3l18 120l9 61h-170l11 67h170l14 89h80l-15 -89h96l-11 -67h-95l-91 -574h-80l16 97h-2q-18 -50 -61.5 -78.5t-103.5 -28.5q-82 0 -121.5 55t-24.5 148zM161 197q-11 -66 15.5 -102t86.5 -36
q59 0 97.5 36.5t49.5 101.5l15 96q10 65 -17 101.5t-86 36.5q-60 0 -98 -36t-48 -102z" />
    <glyph glyph-name="Emacron" unicode="&#x112;" 
d="M61 0l116 730h412l-11 -72h-334l-38 -241h299l-12 -71h-298l-44 -274h334l-12 -72h-412zM255 844l11 66h309l-11 -66h-309z" />
    <glyph glyph-name="emacron" unicode="&#x113;" 
d="M254 -10q-64 0 -106 25.5t-60 72.5t-8 109l24 156q11 63 43.5 109.5t83 72t114.5 25.5t106.5 -25.5t60.5 -72t7 -109.5l-15 -97h-337l-9 -59q-10 -67 17 -103.5t90 -36.5q53 0 88.5 21t50.5 61h79q-14 -46 -46.5 -79.5t-79 -51.5t-103.5 -18zM435 309l6 44
q11 67 -16 103.5t-90 36.5q-64 0 -103 -36.5t-50 -103.5l-5 -35h267zM208 674l11 66h309l-11 -66h-309z" />
    <glyph glyph-name="Ebreve" unicode="&#x114;" 
d="M61 0l116 730h412l-11 -72h-334l-38 -241h299l-12 -71h-298l-44 -274h334l-12 -72h-412zM403 806q-70 0 -106.5 39.5t-26.5 104.5h63q-6 -41 15 -66t62 -25q43 0 72 25t35 66h65q-10 -65 -59 -104.5t-120 -39.5z" />
    <glyph glyph-name="ebreve" unicode="&#x115;" 
d="M254 -10q-64 0 -106 25.5t-60 72.5t-8 109l24 156q11 63 43.5 109.5t83 72t114.5 25.5t106.5 -25.5t60.5 -72t7 -109.5l-15 -97h-337l-9 -59q-10 -67 17 -103.5t90 -36.5q53 0 88.5 21t50.5 61h79q-14 -46 -46.5 -79.5t-79 -51.5t-103.5 -18zM435 309l6 44
q11 67 -16 103.5t-90 36.5q-64 0 -103 -36.5t-50 -103.5l-5 -35h267zM357 641q-70 0 -106.5 39.5t-26.5 104.5h63q-6 -41 15 -66t62 -25q43 0 72 25t35 66h65q-10 -65 -59 -104.5t-120 -39.5z" />
    <glyph glyph-name="Edotaccent" unicode="&#x116;" 
d="M61 0l116 730h412l-11 -72h-334l-38 -241h299l-12 -71h-298l-44 -274h334l-12 -72h-412zM406 818q-32 0 -47.5 17t-11.5 45q5 28 26 45t52 17q32 0 47.5 -17t10.5 -45q-4 -28 -25 -45t-52 -17z" />
    <glyph glyph-name="edotaccent" unicode="&#x117;" 
d="M254 -10q-64 0 -106 25.5t-60 72.5t-8 109l24 156q11 63 43.5 109.5t83 72t114.5 25.5t106.5 -25.5t60.5 -72t7 -109.5l-15 -97h-337l-9 -59q-10 -67 17 -103.5t90 -36.5q53 0 88.5 21t50.5 61h79q-14 -46 -46.5 -79.5t-79 -51.5t-103.5 -18zM435 309l6 44
q11 67 -16 103.5t-90 36.5q-64 0 -103 -36.5t-50 -103.5l-5 -35h267zM361 651q-31 0 -47 16.5t-13 43.5q4 29 24 46t51 17t47.5 -17t12.5 -46q-3 -27 -23 -43.5t-52 -16.5z" />
    <glyph glyph-name="Eogonek" unicode="&#x118;" 
d="M370 -201q-51 0 -78.5 25t-20.5 65q5 29 29.5 59t74.5 62h65l-13 -9q-37 -28 -56 -52t-23 -45q-3 -22 9 -36t37 -14h61l-8 -55h-77zM61 0l116 730h412l-11 -72h-334l-38 -241h299l-12 -71h-298l-44 -274h334l-12 -72h-412z" />
    <glyph glyph-name="eogonek" unicode="&#x119;" 
d="M298 -201q-51 0 -78 25t-21 65q4 23 22.5 49t53.5 53q-4 0 -10 -0.5t-11 -0.5q-64 0 -106 25.5t-60 72.5t-8 109l24 156q11 63 43.5 109.5t83 72t114.5 25.5t106.5 -25.5t60.5 -72t7 -109.5l-15 -97h-337l-9 -59q-10 -67 17 -103.5t90 -36.5q53 0 88.5 21t50.5 61h79
q-12 -41 -40 -72t-67 -50l-21 -16q-37 -28 -56 -52t-23 -45q-3 -22 9 -36t37 -14h61l-8 -55h-77zM431 282l10 71q11 67 -16 103.5t-90 36.5q-64 0 -103 -36.5t-50 -103.5l-5 -35h294z" />
    <glyph glyph-name="Ecaron" unicode="&#x11a;" 
d="M61 0l116 730h412l-11 -72h-334l-38 -241h299l-12 -71h-298l-44 -274h334l-12 -72h-412zM366 810l-113 140h84l74 -86l99 86h89l-156 -140h-77z" />
    <glyph glyph-name="ecaron" unicode="&#x11b;" 
d="M254 -10q-64 0 -106 25.5t-60 72.5t-8 109l24 156q11 63 43.5 109.5t83 72t114.5 25.5t106.5 -25.5t60.5 -72t7 -109.5l-15 -97h-337l-9 -59q-10 -67 17 -103.5t90 -36.5q53 0 88.5 21t50.5 61h79q-14 -46 -46.5 -79.5t-79 -51.5t-103.5 -18zM435 309l6 44
q11 67 -16 103.5t-90 36.5q-64 0 -103 -36.5t-50 -103.5l-5 -35h267zM321 645l-113 140h84l74 -86l99 86h89l-156 -140h-77z" />
    <glyph glyph-name="Gcircumflex" unicode="&#x11c;" 
d="M259 -10q-65 0 -108.5 25t-62 72t-8.5 110l53 336q11 64 44 110.5t84.5 71.5t116.5 25q64 0 107.5 -25.5t62 -72.5t8.5 -112h-79q10 66 -19.5 102.5t-91.5 36.5t-102.5 -35.5t-51.5 -100.5l-53 -336q-10 -64 19.5 -100t91.5 -36q63 0 103.5 36.5t51.5 102.5l14 95h-154
l11 73h234l-26 -168q-10 -64 -44 -111.5t-85.5 -73t-115.5 -25.5zM213 810l156 140h77l113 -140h-84l-73 86l-99 -86h-90z" />
    <glyph glyph-name="gcircumflex" unicode="&#x11d;" 
d="M93 -180l12 72h167q46 0 72 22t34 67l10 64l18 104h-18l22 23q-10 -62 -56.5 -99t-114.5 -37q-84 0 -125 55.5t-26 148.5l18 117q10 62 39.5 107.5t75 70.5t101.5 25q68 0 103.5 -36.5t24.5 -98.5l-14 23h16l16 102h79l-90 -569q-12 -76 -64 -118.5t-134 -42.5h-166z
M272 105q59 0 98.5 36.5t49.5 101.5l17 110q11 65 -17 101.5t-87 36.5q-60 0 -98.5 -36t-49.5 -102l-17 -110q-10 -66 17 -102t87 -36zM182 645l156 140h77l113 -140h-84l-73 86l-99 -86h-90z" />
    <glyph glyph-name="Gbreve" unicode="&#x11e;" 
d="M259 -10q-65 0 -108.5 25t-62 72t-8.5 110l53 336q11 64 44 110.5t84.5 71.5t116.5 25q64 0 107.5 -25.5t62 -72.5t8.5 -112h-79q10 66 -19.5 102.5t-91.5 36.5t-102.5 -35.5t-51.5 -100.5l-53 -336q-10 -64 19.5 -100t91.5 -36q63 0 103.5 36.5t51.5 102.5l14 95h-154
l11 73h234l-26 -168q-10 -64 -44 -111.5t-85.5 -73t-115.5 -25.5zM385 806q-70 0 -106.5 39.5t-26.5 104.5h63q-6 -41 15 -66t62 -25q43 0 72 25t35 66h65q-10 -65 -59 -104.5t-120 -39.5z" />
    <glyph glyph-name="gbreve" unicode="&#x11f;" 
d="M93 -180l12 72h167q46 0 72 22t34 67l10 64l18 104h-18l22 23q-10 -62 -56.5 -99t-114.5 -37q-84 0 -125 55.5t-26 148.5l18 117q10 62 39.5 107.5t75 70.5t101.5 25q68 0 103.5 -36.5t24.5 -98.5l-14 23h16l16 102h79l-90 -569q-12 -76 -64 -118.5t-134 -42.5h-166z
M272 105q59 0 98.5 36.5t49.5 101.5l17 110q11 65 -17 101.5t-87 36.5q-60 0 -98.5 -36t-49.5 -102l-17 -110q-10 -66 17 -102t87 -36zM354 641q-70 0 -106.5 39.5t-26.5 104.5h63q-6 -41 15 -66t62 -25q43 0 72 25t35 66h65q-10 -65 -59 -104.5t-120 -39.5z" />
    <glyph glyph-name="Gdotaccent" unicode="&#x120;" 
d="M259 -10q-65 0 -108.5 25t-62 72t-8.5 110l53 336q11 64 44 110.5t84.5 71.5t116.5 25q64 0 107.5 -25.5t62 -72.5t8.5 -112h-79q10 66 -19.5 102.5t-91.5 36.5t-102.5 -35.5t-51.5 -100.5l-53 -336q-10 -64 19.5 -100t91.5 -36q63 0 103.5 36.5t51.5 102.5l14 95h-154
l11 73h234l-26 -168q-10 -64 -44 -111.5t-85.5 -73t-115.5 -25.5zM388 818q-32 0 -47.5 17t-11.5 45q5 28 26 45t52 17q32 0 47.5 -17t10.5 -45q-4 -28 -25 -45t-52 -17z" />
    <glyph glyph-name="gdotaccent" unicode="&#x121;" 
d="M93 -180l12 72h167q46 0 72 22t34 67l10 64l18 104h-18l22 23q-10 -62 -56.5 -99t-114.5 -37q-84 0 -125 55.5t-26 148.5l18 117q10 62 39.5 107.5t75 70.5t101.5 25q68 0 103.5 -36.5t24.5 -98.5l-14 23h16l16 102h79l-90 -569q-12 -76 -64 -118.5t-134 -42.5h-166z
M272 105q59 0 98.5 36.5t49.5 101.5l17 110q11 65 -17 101.5t-87 36.5q-60 0 -98.5 -36t-49.5 -102l-17 -110q-10 -66 17 -102t87 -36zM358 651q-31 0 -47 16.5t-13 43.5q4 29 24 46t51 17t47.5 -17t12.5 -46q-3 -27 -23 -43.5t-52 -16.5z" />
    <glyph glyph-name="uni0122" unicode="&#x122;" 
d="M259 -10q-65 0 -108.5 25t-62 72t-8.5 110l53 336q11 64 44 110.5t84.5 71.5t116.5 25q64 0 107.5 -25.5t62 -72.5t8.5 -112h-79q10 66 -19.5 102.5t-91.5 36.5t-102.5 -35.5t-51.5 -100.5l-53 -336q-10 -64 19.5 -100t91.5 -36q63 0 103.5 36.5t51.5 102.5l14 95h-154
l11 73h234l-26 -168q-10 -64 -44 -111.5t-85.5 -73t-115.5 -25.5zM121 -240l117 145h91l-128 -145h-80z" />
    <glyph glyph-name="uni0123" unicode="&#x123;" 
d="M93 -180l12 72h167q46 0 72 22t34 67l10 64l18 104h-18l22 23q-10 -62 -56.5 -99t-114.5 -37q-84 0 -125 55.5t-26 148.5l18 117q10 62 39.5 107.5t75 70.5t101.5 25q68 0 103.5 -36.5t24.5 -98.5l-14 23h16l16 102h79l-90 -569q-12 -76 -64 -118.5t-134 -42.5h-166z
M272 105q59 0 98.5 36.5t49.5 101.5l17 110q11 65 -17 101.5t-87 36.5q-60 0 -98.5 -36t-49.5 -102l-17 -110q-10 -66 17 -102t87 -36zM501 880l-121 -235h-105l163 235h63z" />
    <glyph glyph-name="Hcircumflex" unicode="&#x124;" 
d="M54 0l116 730h79l-51 -316h247l50 316h79l-116 -730h-79l54 341h-246l-54 -341h-79zM211 810l156 140h77l113 -140h-84l-73 86l-99 -86h-90z" />
    <glyph glyph-name="hcircumflex" unicode="&#x125;" 
d="M53 0l116 730h79l-28 -172l-17 -106h20l-26 -32q11 66 57 103t116 37q82 0 123 -51.5t27 -139.5l-59 -369h-79l57 360q10 63 -17.5 98t-84.5 35q-58 0 -98 -37t-51 -103l-56 -353h-79zM35 805l156 140h77l113 -140h-84l-73 86l-99 -86h-90z" />
    <glyph glyph-name="Hbar" unicode="&#x126;" 
d="M51 529l10 67h579l-10 -67h-579zM54 0l116 730h79l-51 -316h247l50 316h79l-116 -730h-79l54 341h-246l-54 -341h-79z" />
    <glyph glyph-name="hbar" unicode="&#x127;" 
d="M49 574l11 67h94l15 89h79l-14 -89h171l-11 -67h-171l-13 -84l-16 -98h2q18 51 60.5 79.5t103.5 28.5q82 0 123 -51.5t27 -139.5l-49 -309h-79l48 300q9 63 -18.5 98t-84.5 35q-58 0 -98 -37t-50 -103l-47 -293h-79l91 574h-95z" />
    <glyph glyph-name="Itilde" unicode="&#x128;" 
d="M65 0l11 72h151l93 586h-151l12 72h382l-12 -72h-150l-93 -586h150l-11 -72h-382zM456 815q-29 0 -46 11.5t-28.5 26.5t-22.5 26.5t-29 11.5q-15 0 -26.5 -10t-14.5 -30l-5 -31h-58l5 31q7 45 35.5 69.5t69.5 24.5q29 0 46.5 -11.5t28.5 -26.5t22 -26.5t29 -11.5
q15 0 25.5 10t13.5 30l6 31h58l-5 -31q-7 -45 -35 -69.5t-69 -24.5z" />
    <glyph glyph-name="itilde" unicode="&#x129;" 
d="M40 0l11 72h197l64 406h-171l11 72h251l-76 -478h186l-11 -72h-462zM445 650q-29 0 -46 11.5t-28.5 26.5t-22.5 26.5t-29 11.5q-15 0 -26.5 -10t-14.5 -30l-5 -31h-58l4 31q8 45 36.5 69.5t69.5 24.5q29 0 46.5 -11.5t28.5 -26.5t22 -26.5t28 -11.5q16 0 26.5 10t13.5 30
l6 31h58l-5 -31q-7 -45 -35 -69.5t-69 -24.5z" />
    <glyph glyph-name="Imacron" unicode="&#x12a;" 
d="M65 0l11 72h151l93 586h-151l12 72h382l-12 -72h-150l-93 -586h150l-11 -72h-382zM235 844l11 66h309l-11 -66h-309z" />
    <glyph glyph-name="imacron" unicode="&#x12b;" 
d="M40 0l11 72h197l64 406h-171l11 72h251l-76 -478h186l-11 -72h-462zM223 674l11 66h309l-11 -66h-309z" />
    <glyph glyph-name="Ibreve" unicode="&#x12c;" 
d="M65 0l11 72h151l93 586h-151l12 72h382l-12 -72h-150l-93 -586h150l-11 -72h-382zM383 806q-70 0 -106.5 39.5t-26.5 104.5h63q-6 -41 15 -66t62 -25q43 0 72 25t35 66h65q-10 -65 -59 -104.5t-120 -39.5z" />
    <glyph glyph-name="ibreve" unicode="&#x12d;" 
d="M40 0l11 72h197l64 406h-171l11 72h251l-76 -478h186l-11 -72h-462zM372 641q-70 0 -106.5 39.5t-26.5 104.5h63q-6 -41 15 -66t62 -25q43 0 72 25t35 66h65q-10 -65 -59 -104.5t-120 -39.5z" />
    <glyph glyph-name="Iogonek" unicode="&#x12e;" 
d="M230 -201q-52 0 -79 25t-20 65q5 29 29.5 59t73.5 62h65l-13 -9q-36 -28 -55 -52t-23 -45q-4 -22 8.5 -36t36.5 -14h62l-9 -55h-76zM65 0l11 72h151l93 586h-151l12 72h382l-12 -72h-150l-93 -586h150l-11 -72h-382z" />
    <glyph glyph-name="iogonek" unicode="&#x12f;" 
d="M245 -201q-51 0 -78.5 25t-20.5 65q5 29 29.5 59t74.5 62h65l-13 -9q-37 -28 -56 -52t-23 -45q-3 -22 9 -36t37 -14h61l-8 -55h-77zM40 0l11 72h197l64 406h-171l11 72h251l-76 -478h186l-11 -72h-462zM376 651q-31 0 -47 16.5t-13 43.5q4 29 24 46t51 17t47.5 -17
t12.5 -46q-3 -27 -23 -43.5t-52 -16.5z" />
    <glyph glyph-name="Idotaccent" unicode="&#x130;" 
d="M65 0l11 72h151l93 586h-151l12 72h382l-12 -72h-150l-93 -586h150l-11 -72h-382zM386 818q-32 0 -47.5 17t-11.5 45q5 28 26 45t52 17q32 0 47.5 -17t10.5 -45q-4 -28 -25 -45t-52 -17z" />
    <glyph glyph-name="dotlessi" unicode="&#x131;" 
d="M40 0l11 72h197l64 406h-171l11 72h251l-76 -478h186l-11 -72h-462z" />
    <glyph glyph-name="Jcircumflex" unicode="&#x134;" 
d="M225 -10q-102 0 -151.5 58t-33.5 159h80q-11 -69 20 -107.5t97 -38.5t109.5 38.5t53.5 107.5l72 450h-178l11 73h258l-83 -523q-10 -67 -45 -116t-88 -75t-122 -26zM271 810l156 140h77l113 -140h-84l-73 86l-99 -86h-90z" />
    <glyph glyph-name="jcircumflex" unicode="&#x135;" 
d="M15 -180l12 73h131q64 0 104.5 34.5t50.5 97.5l71 453h-235l11 72h315l-83 -525q-9 -63 -43 -109t-86 -71t-118 -25h-130zM212 645l156 140h77l113 -140h-84l-73 86l-99 -86h-90z" />
    <glyph glyph-name="uni0136" unicode="&#x136;" 
d="M53 0l116 730h79l-50 -317h118l212 317h89l-235 -354l129 -376h-89l-115 343h-120l-55 -343h-79zM116 -240l117 145h91l-128 -145h-80z" />
    <glyph glyph-name="uni0137" unicode="&#x137;" 
d="M56 0l116 730h79l-65 -411h103l200 231h93l-227 -266l144 -284h-91l-125 250h-108l-40 -250h-79zM115 -240l116 145h95l-128 -145h-83z" />
    <glyph glyph-name="kgreenlandic" unicode="&#x138;" 
d="M57 0l87 550h80l-37 -231h102l200 231h93l-226 -265l143 -285h-91l-125 250h-107l-39 -250h-80z" />
    <glyph glyph-name="Lacute" unicode="&#x139;" 
d="M72 0l116 730h80l-105 -658h337l-12 -72h-416zM186 810l128 140h92l-134 -140h-86z" />
    <glyph glyph-name="lacute" unicode="&#x13a;" 
d="M321 0q-71 0 -106 40.5t-25 109.5l81 508h-168l12 72h247l-92 -580q-6 -37 10.5 -57.5t51.5 -20.5h183l-12 -72h-182zM269 810l128 140h92l-134 -140h-86z" />
    <glyph glyph-name="uni013B" unicode="&#x13b;" 
d="M72 0l116 730h80l-105 -658h337l-12 -72h-416zM136 -240l117 145h91l-128 -145h-80z" />
    <glyph glyph-name="uni013C" unicode="&#x13c;" 
d="M321 0q-71 0 -106 40.5t-25 109.5l81 508h-168l12 72h247l-92 -580q-6 -37 10.5 -57.5t51.5 -20.5h183l-12 -72h-182zM99 -240l116 145h95l-128 -145h-83z" />
    <glyph glyph-name="Lcaron" unicode="&#x13d;" 
d="M72 0l116 730h80l-105 -658h337l-12 -72h-416zM400 550l39 180h76l-49 -180h-66z" />
    <glyph glyph-name="lcaron" unicode="&#x13e;" 
d="M321 0q-71 0 -106 40.5t-25 109.5l81 508h-168l12 72h247l-92 -580q-6 -37 10.5 -57.5t51.5 -20.5h183l-12 -72h-182zM483 550l39 180h76l-49 -180h-66z" />
    <glyph glyph-name="Ldot" unicode="&#x13f;" 
d="M72 0l116 730h80l-105 -658h337l-12 -72h-416zM398 261q-37 0 -55 21.5t-13 57.5q6 38 31.5 60t62.5 22t55 -22t12 -60q-6 -36 -31 -57.5t-62 -21.5z" />
    <glyph glyph-name="ldot" unicode="&#x140;" 
d="M301 0q-71 0 -106 40.5t-25 109.5l81 508h-168l12 72h247l-92 -580q-6 -37 10.5 -57.5t51.5 -20.5h183l-12 -72h-182zM502 261q-37 0 -55 21.5t-13 57.5q6 38 31.5 60t62.5 22t55 -22t12 -60q-6 -36 -31 -57.5t-62 -21.5z" />
    <glyph glyph-name="Lslash" unicode="&#x141;" 
d="M13 229l11 77l410 255l-11 -77zM75 0l116 730h79l-104 -658h336l-11 -72h-416z" />
    <glyph glyph-name="lslash" unicode="&#x142;" 
d="M100 233v73l370 251v-73zM321 0q-71 0 -106 40.5t-25 109.5l81 508h-168l12 72h247l-92 -580q-6 -37 10.5 -57.5t51.5 -20.5h183l-12 -72h-182z" />
    <glyph glyph-name="Nacute" unicode="&#x143;" 
d="M51 0l116 730h105l135 -638q2 23 5 56.5t7.5 68.5t9.5 63l71 450h77l-116 -730h-106l-133 638q-2 -20 -5 -51.5t-7.5 -67t-10.5 -69.5l-71 -450h-77zM329 810l128 140h92l-134 -140h-86z" />
    <glyph glyph-name="nacute" unicode="&#x144;" 
d="M53 0l87 550h79l-16 -102h20l-27 -29q11 66 57.5 103.5t116.5 37.5q82 0 123 -51.5t27 -139.5l-59 -369h-79l57 360q10 63 -17.5 98t-84.5 35q-58 0 -98 -37t-51 -103l-56 -353h-79zM273 645l128 140h92l-134 -140h-86z" />
    <glyph glyph-name="uni0145" unicode="&#x145;" 
d="M51 0l116 730h105l135 -638q2 23 5 56.5t7.5 68.5t9.5 63l71 450h77l-116 -730h-106l-133 638q-2 -20 -5 -51.5t-7.5 -67t-10.5 -69.5l-71 -450h-77zM115 -240l116 145h95l-128 -145h-83z" />
    <glyph glyph-name="uni0146" unicode="&#x146;" 
d="M53 0l87 550h79l-16 -102h20l-27 -29q11 66 57.5 103.5t116.5 37.5q82 0 123 -51.5t27 -139.5l-59 -369h-79l57 360q10 63 -17.5 98t-84.5 35q-58 0 -98 -37t-51 -103l-56 -353h-79zM115 -240l116 145h95l-128 -145h-83z" />
    <glyph glyph-name="Ncaron" unicode="&#x147;" 
d="M51 0l116 730h105l135 -638q2 23 5 56.5t7.5 68.5t9.5 63l71 450h77l-116 -730h-106l-133 638q-2 -20 -5 -51.5t-7.5 -67t-10.5 -69.5l-71 -450h-77zM346 810l-113 140h84l74 -86l99 86h89l-156 -140h-77z" />
    <glyph glyph-name="ncaron" unicode="&#x148;" 
d="M53 0l87 550h79l-16 -102h20l-27 -29q11 66 57.5 103.5t116.5 37.5q82 0 123 -51.5t27 -139.5l-59 -369h-79l57 360q10 63 -17.5 98t-84.5 35q-58 0 -98 -37t-51 -103l-56 -353h-79zM321 645l-113 140h84l74 -86l99 86h89l-156 -140h-77z" />
    <glyph glyph-name="napostrophe" unicode="&#x149;" 
d="M53 0l87 550h79l-16 -102h20l-27 -29q11 66 57.5 103.5t116.5 37.5q82 0 123 -51.5t27 -139.5l-59 -369h-79l57 360q10 63 -17.5 98t-84.5 35q-58 0 -98 -37t-51 -103l-56 -353h-79zM-75 645l116 145h95l-128 -145h-83z" />
    <glyph glyph-name="Eng" unicode="&#x14a;" 
d="M164 -180l11 72h69q57 0 94 31.5t45 87.5l-161 627q-2 -20 -5.5 -51.5t-7.5 -67t-10 -69.5l-71 -450h-77l116 730h105l146 -574q2 22 5 54.5t7 69t10 70.5l60 380h77l-115 -719q-9 -58 -40 -101.5t-79.5 -66.5t-109.5 -23h-69z" />
    <glyph glyph-name="eng" unicode="&#x14b;" 
d="M168 -180l12 72h57q58 0 97.5 33t47.5 90l55 345q10 63 -16.5 98t-83.5 35q-58 0 -97.5 -37t-50.5 -103l-55 -353h-80l87 550h80l-17 -102h20l-26 -29q11 66 56.5 103.5t115.5 37.5q82 0 122 -51.5t26 -139.5l-56 -354q-9 -59 -41.5 -103t-82.5 -68t-113 -24h-57z" />
    <glyph glyph-name="Omacron" unicode="&#x14c;" 
d="M254 -10q-63 0 -106 25t-60.5 71.5t-7.5 110.5l53 336q11 64 43.5 110.5t83 71.5t113.5 25q64 0 106.5 -25t61 -71.5t7.5 -110.5l-53 -336q-10 -64 -43 -110.5t-83.5 -71.5t-114.5 -25zM265 61q62 0 101 35.5t50 100.5l53 336q10 65 -18 100.5t-89 35.5t-100 -35.5
t-50 -100.5l-53 -336q-10 -65 17.5 -100.5t88.5 -35.5zM235 844l11 66h309l-11 -66h-309z" />
    <glyph glyph-name="omacron" unicode="&#x14d;" 
d="M254 -10q-63 0 -106 25t-60.5 71.5t-7.5 110.5l24 156q11 64 43.5 110.5t83.5 71.5t114 25q64 0 106.5 -25t60.5 -71.5t8 -110.5l-25 -156q-10 -64 -43 -110.5t-83.5 -71.5t-114.5 -25zM265 60q62 0 101 35.5t50 101.5l24 156q11 66 -17 101.5t-89 35.5t-100 -35.5
t-51 -101.5l-24 -156q-10 -66 17.5 -101.5t88.5 -35.5zM208 674l11 66h309l-11 -66h-309z" />
    <glyph glyph-name="Obreve" unicode="&#x14e;" 
d="M254 -10q-63 0 -106 25t-60.5 71.5t-7.5 110.5l53 336q11 64 43.5 110.5t83 71.5t113.5 25q64 0 106.5 -25t61 -71.5t7.5 -110.5l-53 -336q-10 -64 -43 -110.5t-83.5 -71.5t-114.5 -25zM265 61q62 0 101 35.5t50 100.5l53 336q10 65 -18 100.5t-89 35.5t-100 -35.5
t-50 -100.5l-53 -336q-10 -65 17.5 -100.5t88.5 -35.5zM383 806q-70 0 -106.5 39.5t-26.5 104.5h63q-6 -41 15 -66t62 -25q43 0 72 25t35 66h65q-10 -65 -59 -104.5t-120 -39.5z" />
    <glyph glyph-name="obreve" unicode="&#x14f;" 
d="M254 -10q-63 0 -106 25t-60.5 71.5t-7.5 110.5l24 156q11 64 43.5 110.5t83.5 71.5t114 25q64 0 106.5 -25t60.5 -71.5t8 -110.5l-25 -156q-10 -64 -43 -110.5t-83.5 -71.5t-114.5 -25zM265 60q62 0 101 35.5t50 101.5l24 156q11 66 -17 101.5t-89 35.5t-100 -35.5
t-51 -101.5l-24 -156q-10 -66 17.5 -101.5t88.5 -35.5zM357 641q-70 0 -106.5 39.5t-26.5 104.5h63q-6 -41 15 -66t62 -25q43 0 72 25t35 66h65q-10 -65 -59 -104.5t-120 -39.5z" />
    <glyph glyph-name="Ohungarumlaut" unicode="&#x150;" 
d="M254 -10q-63 0 -106 25t-60.5 71.5t-7.5 110.5l53 336q11 64 43.5 110.5t83 71.5t113.5 25q64 0 106.5 -25t61 -71.5t7.5 -110.5l-53 -336q-10 -64 -43 -110.5t-83.5 -71.5t-114.5 -25zM265 61q62 0 101 35.5t50 100.5l53 336q10 65 -18 100.5t-89 35.5t-100 -35.5
t-50 -100.5l-53 -336q-10 -65 17.5 -100.5t88.5 -35.5zM412 810l131 140h86l-136 -140h-81zM236 810l131 140h86l-136 -140h-81z" />
    <glyph glyph-name="ohungarumlaut" unicode="&#x151;" 
d="M254 -10q-63 0 -106 25t-60.5 71.5t-7.5 110.5l24 156q11 64 43.5 110.5t83.5 71.5t114 25q64 0 106.5 -25t60.5 -71.5t8 -110.5l-25 -156q-10 -64 -43 -110.5t-83.5 -71.5t-114.5 -25zM265 60q62 0 101 35.5t50 101.5l24 156q11 66 -17 101.5t-89 35.5t-100 -35.5
t-51 -101.5l-24 -156q-10 -66 17.5 -101.5t88.5 -35.5zM386 645l131 140h85l-136 -140h-80zM211 645l131 140h85l-136 -140h-80z" />
    <glyph glyph-name="OE" unicode="&#x152;" 
d="M149 -10q-47 0 -78 23t-43.5 65.5t-3.5 99.5l59 374q10 58 35.5 100t64 65t85.5 23q35 0 56.5 -14.5t31.5 -35t11 -40.5h5l13 80h260l-11 -73h-182l-39 -243h154l-12 -74h-153l-42 -267h181l-12 -73h-260l13 80h-5q-7 -19 -24 -40t-43 -35.5t-61 -14.5zM182 62
q44 0 75.5 31t39.5 85l59 374q8 54 -12.5 85t-64.5 31q-45 0 -76 -31.5t-39 -84.5l-59 -374q-8 -53 12.5 -84.5t64.5 -31.5z" />
    <glyph glyph-name="oe" unicode="&#x153;" 
d="M132 -10q-66 0 -97.5 42.5t-20.5 114.5l41 255q11 73 57 115.5t113 42.5q40 0 63.5 -13.5t33.5 -32t9 -36.5h3q5 18 21 36.5t44 32t67 13.5q66 0 98 -42.5t21 -114.5l-24 -150h-226l-17 -106q-6 -40 10.5 -64.5t50.5 -24.5q30 0 53 18.5t33 48.5h75q-18 -62 -62.5 -98.5
t-101.5 -36.5q-40 0 -63.5 13t-33.5 32t-9 36h-4q-4 -17 -21 -36t-44.5 -32t-68.5 -13zM154 58q34 0 58 24.5t30 64.5l40 256q7 40 -9.5 64.5t-50.5 24.5q-35 0 -60 -24.5t-32 -65.5l-40 -255q-6 -40 11.5 -64.5t52.5 -24.5zM345 320h151l13 83q6 40 -11 64.5t-52 24.5
q-34 0 -57.5 -24.5t-30.5 -64.5z" />
    <glyph glyph-name="Racute" unicode="&#x154;" 
d="M53 0l116 730h220q65 0 109 -26t63.5 -72.5t9.5 -109.5q-8 -54 -36 -97t-71.5 -70.5t-96.5 -36.5l9 39l120 -357h-89l-100 315h-125l-50 -315h-79zM193 387h141q61 0 103.5 37t51.5 99q11 62 -20 98.5t-91 36.5h-142zM329 810l128 140h92l-134 -140h-86z" />
    <glyph glyph-name="racute" unicode="&#x155;" 
d="M71 0l87 550h78l-16 -97h22l-39 -65q13 84 59.5 128t122.5 44q87 0 129.5 -54.5t28.5 -146.5l-6 -33h-81l5 27q11 67 -16.5 103.5t-87.5 36.5t-100 -37t-51 -103l-55 -353h-80zM326 645l128 140h92l-134 -140h-86z" />
    <glyph glyph-name="uni0156" unicode="&#x156;" 
d="M53 0l116 730h220q65 0 109 -26t63.5 -72.5t9.5 -109.5q-8 -54 -36 -97t-71.5 -70.5t-96.5 -36.5l9 39l120 -357h-89l-100 315h-125l-50 -315h-79zM193 387h141q61 0 103.5 37t51.5 99q11 62 -20 98.5t-91 36.5h-142zM115 -240l116 145h95l-128 -145h-83z" />
    <glyph glyph-name="uni0157" unicode="&#x157;" 
d="M71 0l87 550h78l-16 -97h22l-39 -65q13 84 59.5 128t122.5 44q87 0 129.5 -54.5t28.5 -146.5l-6 -33h-81l5 27q11 67 -16.5 103.5t-87.5 36.5t-100 -37t-51 -103l-55 -353h-80zM-50 -240l116 145h95l-128 -145h-83z" />
    <glyph glyph-name="Rcaron" unicode="&#x158;" 
d="M53 0l116 730h220q65 0 109 -26t63.5 -72.5t9.5 -109.5q-8 -54 -36 -97t-71.5 -70.5t-96.5 -36.5l9 39l120 -357h-89l-100 315h-125l-50 -315h-79zM193 387h141q61 0 103.5 37t51.5 99q11 62 -20 98.5t-91 36.5h-142zM346 810l-113 140h84l74 -86l99 86h89l-156 -140h-77
z" />
    <glyph glyph-name="rcaron" unicode="&#x159;" 
d="M71 0l87 550h78l-16 -97h22l-39 -65q13 84 59.5 128t122.5 44q87 0 129.5 -54.5t28.5 -146.5l-6 -33h-81l5 27q11 67 -16.5 103.5t-87.5 36.5t-100 -37t-51 -103l-55 -353h-80zM341 645l-113 140h84l74 -86l99 86h89l-156 -140h-77z" />
    <glyph glyph-name="Sacute" unicode="&#x15a;" 
d="M258 -10q-105 0 -157.5 53.5t-39.5 145.5h80q-10 -59 24.5 -93.5t104.5 -34.5q66 0 108.5 33t52.5 91q7 51 -13 86.5t-65 49.5l-90 29q-70 23 -102.5 75.5t-22.5 123.5q10 59 42.5 101.5t83.5 66.5t115 24q95 0 143.5 -53t35.5 -142h-80q10 57 -19.5 90t-91.5 33
q-61 0 -100.5 -29.5t-47.5 -83.5q-7 -48 13 -84t63 -51l91 -30q70 -22 102.5 -76.5t21.5 -127.5q-9 -59 -43.5 -103.5t-88 -69t-120.5 -24.5zM329 810l128 140h92l-134 -140h-86z" />
    <glyph glyph-name="sacute" unicode="&#x15b;" 
d="M230 -10q-82 0 -125.5 40t-40.5 105h79q2 -33 27.5 -53.5t71.5 -20.5h49q53 0 84.5 24t37.5 63q6 37 -14.5 61t-63.5 31l-81 13q-76 12 -110 48.5t-23 103.5q11 73 65 114t144 41h39q78 0 119.5 -37.5t41.5 -100.5h-79q-2 30 -25.5 48.5t-67.5 18.5h-39q-53 0 -82.5 -22
t-35.5 -62q-6 -37 12 -56t63 -26l80 -13q80 -12 114 -50.5t24 -108.5q-13 -74 -67.5 -117.5t-147.5 -43.5h-49zM316 645l128 140h92l-134 -140h-86z" />
    <glyph glyph-name="Scircumflex" unicode="&#x15c;" 
d="M258 -10q-105 0 -157.5 53.5t-39.5 145.5h80q-10 -59 24.5 -93.5t104.5 -34.5q66 0 108.5 33t52.5 91q7 51 -13 86.5t-65 49.5l-90 29q-70 23 -102.5 75.5t-22.5 123.5q10 59 42.5 101.5t83.5 66.5t115 24q95 0 143.5 -53t35.5 -142h-80q10 57 -19.5 90t-91.5 33
q-61 0 -100.5 -29.5t-47.5 -83.5q-7 -48 13 -84t63 -51l91 -30q70 -22 102.5 -76.5t21.5 -127.5q-9 -59 -43.5 -103.5t-88 -69t-120.5 -24.5zM211 810l156 140h77l113 -140h-84l-73 86l-99 -86h-90z" />
    <glyph glyph-name="scircumflex" unicode="&#x15d;" 
d="M230 -10q-82 0 -125.5 40t-40.5 105h79q2 -33 27.5 -53.5t71.5 -20.5h49q53 0 84.5 24t37.5 63q6 37 -14.5 61t-63.5 31l-81 13q-76 12 -110 48.5t-23 103.5q11 73 65 114t144 41h39q78 0 119.5 -37.5t41.5 -100.5h-79q-2 30 -25.5 48.5t-67.5 18.5h-39q-53 0 -82.5 -22
t-35.5 -62q-6 -37 12 -56t63 -26l80 -13q80 -12 114 -50.5t24 -108.5q-13 -74 -67.5 -117.5t-147.5 -43.5h-49zM195 645l156 140h77l113 -140h-84l-73 86l-99 -86h-90z" />
    <glyph glyph-name="Scedilla" unicode="&#x15e;" 
d="M137 -201l8 50h73q23 0 38.5 12t17.5 25q3 19 -23.5 32.5t-77.5 13.5l50 94h53l-32 -61q25 -2 51 -12t42 -28t11 -44q-4 -34 -39.5 -58t-87.5 -24h-84zM258 -10q-105 0 -157.5 53.5t-39.5 145.5h80q-10 -59 24.5 -93.5t104.5 -34.5q66 0 108.5 33t52.5 91q7 51 -13 86.5
t-65 49.5l-90 29q-70 23 -102.5 75.5t-22.5 123.5q10 59 42.5 101.5t83.5 66.5t115 24q95 0 143.5 -53t35.5 -142h-80q10 57 -19.5 90t-91.5 33q-61 0 -100.5 -29.5t-47.5 -83.5q-7 -48 13 -84t63 -51l91 -30q70 -22 102.5 -76.5t21.5 -127.5q-9 -59 -43.5 -103.5t-88 -69
t-120.5 -24.5z" />
    <glyph glyph-name="scedilla" unicode="&#x15f;" 
d="M207 -201l2 50h72q23 0 37.5 12t14.5 25q1 19 -27 32.5t-79 13.5l39 94h53l-24 -61q25 -2 52 -12t45 -28t17 -44q-2 -34 -34.5 -58t-83.5 -24h-84zM230 -10q-82 0 -125.5 40t-40.5 105h79q2 -33 27.5 -53.5t71.5 -20.5h49q53 0 84.5 24t37.5 63q6 37 -14.5 61t-63.5 31
l-81 13q-76 12 -110 48.5t-23 103.5q11 73 65 114t144 41h39q78 0 119.5 -37.5t41.5 -100.5h-79q-2 30 -25.5 48.5t-67.5 18.5h-39q-53 0 -82.5 -22t-35.5 -62q-6 -37 12 -56t63 -26l80 -13q80 -12 114 -50.5t24 -108.5q-13 -74 -67.5 -117.5t-147.5 -43.5h-49z" />
    <glyph glyph-name="Scaron" unicode="&#x160;" 
d="M258 -10q-105 0 -157.5 53.5t-39.5 145.5h80q-10 -59 24.5 -93.5t104.5 -34.5q66 0 108.5 33t52.5 91q7 51 -13 86.5t-65 49.5l-90 29q-70 23 -102.5 75.5t-22.5 123.5q10 59 42.5 101.5t83.5 66.5t115 24q95 0 143.5 -53t35.5 -142h-80q10 57 -19.5 90t-91.5 33
q-61 0 -100.5 -29.5t-47.5 -83.5q-7 -48 13 -84t63 -51l91 -30q70 -22 102.5 -76.5t21.5 -127.5q-9 -59 -43.5 -103.5t-88 -69t-120.5 -24.5zM346 810l-113 140h84l74 -86l99 86h89l-156 -140h-77z" />
    <glyph glyph-name="scaron" unicode="&#x161;" 
d="M230 -10q-82 0 -125.5 40t-40.5 105h79q2 -33 27.5 -53.5t71.5 -20.5h49q53 0 84.5 24t37.5 63q6 37 -14.5 61t-63.5 31l-81 13q-76 12 -110 48.5t-23 103.5q11 73 65 114t144 41h39q78 0 119.5 -37.5t41.5 -100.5h-79q-2 30 -25.5 48.5t-67.5 18.5h-39q-53 0 -82.5 -22
t-35.5 -62q-6 -37 12 -56t63 -26l80 -13q80 -12 114 -50.5t24 -108.5q-13 -74 -67.5 -117.5t-147.5 -43.5h-49zM331 645l-113 140h84l74 -86l99 86h89l-156 -140h-77z" />
    <glyph glyph-name="uni0162" unicode="&#x162;" 
d="M171 -201l8 50h73q22 0 37.5 12t17.5 25q4 19 -23 32.5t-78 13.5l50 94l40 -26l-18 -35q25 -2 51 -12t41.5 -28t11.5 -44q-5 -34 -40.5 -58t-86.5 -24h-84zM217 0l104 658h-204l11 73h488l-12 -73h-204l-104 -658h-79z" />
    <glyph glyph-name="uni0163" unicode="&#x163;" 
d="M266 -201v50h73q23 0 36.5 12t13.5 25q0 19 -28.5 32.5t-79.5 13.5l35 94h53l-22 -61q26 -2 53 -12t46 -28t19 -44q0 -34 -31.5 -58t-83.5 -24h-84zM316 0q-69 0 -101 36.5t-21 103.5l53 338h-156l11 72h156l24 150h80l-24 -150h221l-11 -72h-222l-53 -338
q-11 -68 54 -68h146l-11 -72h-146z" />
    <glyph glyph-name="Tcaron" unicode="&#x164;" 
d="M217 0l104 658h-204l11 73h488l-12 -73h-204l-104 -658h-79zM346 810l-113 140h84l74 -86l99 86h89l-156 -140h-77z" />
    <glyph glyph-name="tcaron" unicode="&#x165;" 
d="M428 620l112 156h89l-125 -156h-76zM316 0q-69 0 -101 36.5t-21 103.5l53 338h-156l11 72h156l24 150h80l-24 -150h221l-11 -72h-222l-53 -338q-11 -68 54 -68h146l-11 -72h-146z" />
    <glyph glyph-name="Tbar" unicode="&#x166;" 
d="M116 299l11 67h375l-11 -67h-375zM217 0l104 658h-204l11 73h488l-12 -73h-204l-104 -658h-79z" />
    <glyph glyph-name="tbar" unicode="&#x167;" 
d="M82 245l11 66h385l-11 -66h-385zM316 0q-69 0 -101 36.5t-21 103.5l53 338h-156l11 72h156l24 150h80l-24 -150h221l-11 -72h-222l-53 -338q-11 -68 54 -68h146l-11 -72h-146z" />
    <glyph glyph-name="Utilde" unicode="&#x168;" 
d="M254 -10q-98 0 -142.5 56t-29.5 151l85 533h79l-84 -533q-11 -63 15 -99.5t89 -36.5q62 0 99.5 36.5t47.5 99.5l85 533h79l-84 -533q-10 -63 -42 -110t-81.5 -72t-115.5 -25zM456 815q-29 0 -46 11.5t-28.5 26.5t-22.5 26.5t-29 11.5q-15 0 -26.5 -10t-14.5 -30l-5 -31
h-58l5 31q7 45 35.5 69.5t69.5 24.5q29 0 46.5 -11.5t28.5 -26.5t22 -26.5t29 -11.5q15 0 25.5 10t13.5 30l6 31h58l-5 -31q-7 -45 -35 -69.5t-69 -24.5z" />
    <glyph glyph-name="utilde" unicode="&#x169;" 
d="M253 -10q-93 0 -139.5 56t-30.5 152l55 352h79l-55 -352q-11 -65 17 -101.5t86 -36.5q59 0 98.5 36.5t50.5 101.5l55 352h79l-55 -352q-10 -63 -43 -110t-83.5 -72.5t-113.5 -25.5zM430 650q-29 0 -46 11.5t-28.5 26.5t-22.5 26.5t-29 11.5q-15 0 -26.5 -10t-14.5 -30
l-5 -31h-58l4 31q8 45 36.5 69.5t69.5 24.5q29 0 46.5 -11.5t28.5 -26.5t22 -26.5t28 -11.5q16 0 26.5 10t13.5 30l6 31h58l-5 -31q-7 -45 -35 -69.5t-69 -24.5z" />
    <glyph glyph-name="Umacron" unicode="&#x16a;" 
d="M254 -10q-98 0 -142.5 56t-29.5 151l85 533h79l-84 -533q-11 -63 15 -99.5t89 -36.5q62 0 99.5 36.5t47.5 99.5l85 533h79l-84 -533q-10 -63 -42 -110t-81.5 -72t-115.5 -25zM235 844l11 66h309l-11 -66h-309z" />
    <glyph glyph-name="umacron" unicode="&#x16b;" 
d="M253 -10q-93 0 -139.5 56t-30.5 152l55 352h79l-55 -352q-11 -65 17 -101.5t86 -36.5q59 0 98.5 36.5t50.5 101.5l55 352h79l-55 -352q-10 -63 -43 -110t-83.5 -72.5t-113.5 -25.5zM208 674l11 66h309l-11 -66h-309z" />
    <glyph glyph-name="Ubreve" unicode="&#x16c;" 
d="M254 -10q-98 0 -142.5 56t-29.5 151l85 533h79l-84 -533q-11 -63 15 -99.5t89 -36.5q62 0 99.5 36.5t47.5 99.5l85 533h79l-84 -533q-10 -63 -42 -110t-81.5 -72t-115.5 -25zM383 806q-70 0 -106.5 39.5t-26.5 104.5h63q-6 -41 15 -66t62 -25q43 0 72 25t35 66h65
q-10 -65 -59 -104.5t-120 -39.5z" />
    <glyph glyph-name="ubreve" unicode="&#x16d;" 
d="M253 -10q-93 0 -139.5 56t-30.5 152l55 352h79l-55 -352q-11 -65 17 -101.5t86 -36.5q59 0 98.5 36.5t50.5 101.5l55 352h79l-55 -352q-10 -63 -43 -110t-83.5 -72.5t-113.5 -25.5zM357 641q-70 0 -106.5 39.5t-26.5 104.5h63q-6 -41 15 -66t62 -25q43 0 72 25t35 66h65
q-10 -65 -59 -104.5t-120 -39.5z" />
    <glyph glyph-name="Uring" unicode="&#x16e;" 
d="M254 -10q-98 0 -142.5 56t-29.5 151l85 533h79l-84 -533q-11 -63 15 -99.5t89 -36.5q62 0 99.5 36.5t47.5 99.5l85 533h79l-84 -533q-10 -63 -42 -110t-81.5 -72t-115.5 -25zM378 770q-52 0 -79 30.5t-20 79.5q8 49 44.5 79.5t89.5 30.5q52 0 79 -30.5t19 -79.5
q-7 -49 -44 -79.5t-89 -30.5zM386 818q27 0 46.5 17t23.5 45q5 28 -9 45.5t-42 17.5q-27 0 -46.5 -17.5t-24.5 -45.5q-4 -28 10 -45t42 -17z" />
    <glyph glyph-name="uring" unicode="&#x16f;" 
d="M253 -10q-93 0 -139.5 56t-30.5 152l55 352h79l-55 -352q-11 -65 17 -101.5t86 -36.5q59 0 98.5 36.5t50.5 101.5l55 352h79l-55 -352q-10 -63 -43 -110t-83.5 -72.5t-113.5 -25.5zM353 610q-53 0 -79.5 30.5t-19.5 79.5q8 50 44.5 80t88.5 30q53 0 80 -30.5t19 -79.5
q-7 -49 -44 -79.5t-89 -30.5zM360 658q28 0 47.5 17t23.5 45q5 29 -9 46t-42 17t-47.5 -17.5t-24.5 -45.5q-4 -28 10.5 -45t41.5 -17z" />
    <glyph glyph-name="Uhungarumlaut" unicode="&#x170;" 
d="M254 -10q-98 0 -142.5 56t-29.5 151l85 533h79l-84 -533q-11 -63 15 -99.5t89 -36.5q62 0 99.5 36.5t47.5 99.5l85 533h79l-84 -533q-10 -63 -42 -110t-81.5 -72t-115.5 -25zM412 810l131 140h86l-136 -140h-81zM236 810l131 140h86l-136 -140h-81z" />
    <glyph glyph-name="uhungarumlaut" unicode="&#x171;" 
d="M253 -10q-93 0 -139.5 56t-30.5 152l55 352h79l-55 -352q-11 -65 17 -101.5t86 -36.5q59 0 98.5 36.5t50.5 101.5l55 352h79l-55 -352q-10 -63 -43 -110t-83.5 -72.5t-113.5 -25.5zM386 645l131 140h85l-136 -140h-80zM211 645l131 140h85l-136 -140h-80z" />
    <glyph glyph-name="Uogonek" unicode="&#x172;" 
d="M301 -201q-52 0 -79 25t-20 65q2 15 11.5 32t25 35t35.5 35q-4 0 -10 -0.5t-10 -0.5q-63 0 -105 25t-59 71.5t-8 110.5l85 533h79l-84 -533q-11 -65 15.5 -100.5t87.5 -35.5q62 0 100 35.5t48 100.5l85 533h79l-84 -533q-10 -60 -38.5 -105t-73.5 -71l-27 -20
q-36 -27 -54 -51.5t-21 -45.5q-4 -22 8.5 -36t37.5 -14h61l-9 -55h-76z" />
    <glyph glyph-name="uogonek" unicode="&#x173;" 
d="M297 -201q-52 0 -79 25t-20 65q3 22 20 46.5t55 55.5q-2 0 -5.5 -0.5t-6.5 -0.5h-7q-95 0 -141 55.5t-31 151.5l56 353h79l-55 -353q-11 -66 15.5 -101.5t87.5 -35.5q62 0 100 35.5t48 101.5l56 353h79l-55 -353q-10 -60 -38.5 -104.5t-73.5 -70.5l-28 -21
q-37 -28 -56 -52t-22 -45q-4 -22 8.5 -36t37.5 -14h61l-9 -55h-76z" />
    <glyph glyph-name="Wcircumflex" unicode="&#x174;" 
d="M71 0l30 730h73l-27 -540q-1 -21 -3 -45.5t-3.5 -48t-3.5 -39.5q5 16 11 39.5t13 48l13 45.5l156 540h87l-21 -540q-1 -21 -2 -45.5t-1.5 -48t-1.5 -39.5q5 16 10.5 39.5t12 48t11.5 45.5l145 540h73l-203 -730h-102l21 545q1 23 2 47t2 45.5t2 35.5q-4 -14 -9.5 -35
t-12.5 -45.5t-14 -47.5l-157 -545h-101zM211 810l156 140h77l113 -140h-84l-73 86l-99 -86h-90z" />
    <glyph glyph-name="wcircumflex" unicode="&#x175;" 
d="M84 0l-2 550h69l-5 -395q0 -22 -0.5 -49t-1.5 -45q5 18 13.5 45t15.5 49l130 395h78l3 -395q1 -22 1 -49t-1 -45q5 18 13.5 45t15.5 49l122 395h69l-180 -550h-90l-1 383v57.5v46.5q-5 -17 -14.5 -46.5t-18.5 -57.5l-125 -383h-91zM185 645l156 140h77l113 -140h-84
l-73 86l-99 -86h-90z" />
    <glyph glyph-name="Ycircumflex" unicode="&#x176;" 
d="M216 0l44 275l-149 455h80l101 -308q8 -24 13 -42t6 -27l15 27t26 42l197 308h84l-294 -455l-43 -275h-80zM211 810l156 140h77l113 -140h-84l-73 86l-99 -86h-90z" />
    <glyph glyph-name="ycircumflex" unicode="&#x177;" 
d="M91 -180l12 72h167q46 0 72.5 22t33.5 67l11 73l17 98h-20l26 29q-10 -66 -56.5 -103.5t-116.5 -37.5q-82 0 -123 51.5t-27 139.5l50 319h80l-49 -310q-11 -62 17 -97.5t84 -35.5q59 0 99.5 37t50.5 103l47 303h80l-91 -569q-11 -76 -63.5 -118.5t-134.5 -42.5h-166z
M185 645l156 140h77l113 -140h-84l-73 86l-99 -86h-90z" />
    <glyph glyph-name="Ydieresis" unicode="&#x178;" 
d="M216 0l44 275l-149 455h80l101 -308q8 -24 13 -42t6 -27l15 27t26 42l197 308h84l-294 -455l-43 -275h-80zM497 819q-28 0 -42 16.5t-10 44.5q5 29 24.5 45.5t47.5 16.5q27 0 41 -16.5t9 -45.5q-4 -28 -23.5 -44.5t-46.5 -16.5zM277 819q-28 0 -42 16.5t-10 44.5
q5 29 24.5 45.5t46.5 16.5q28 0 42 -16.5t9 -45.5q-4 -28 -23.5 -44.5t-46.5 -16.5z" />
    <glyph glyph-name="Zacute" unicode="&#x179;" 
d="M43 0l12 79l425 579h-328l11 72h411l-13 -81l-424 -577h344l-12 -72h-426zM329 810l128 140h92l-134 -140h-86z" />
    <glyph glyph-name="zacute" unicode="&#x17a;" 
d="M49 0l13 78l372 400h-301l12 72h393l-12 -79l-377 -399h325l-11 -72h-414zM306 645l128 140h92l-134 -140h-86z" />
    <glyph glyph-name="Zdotaccent" unicode="&#x17b;" 
d="M43 0l12 79l425 579h-328l11 72h411l-13 -81l-424 -577h344l-12 -72h-426zM386 818q-32 0 -47.5 17t-11.5 45q5 28 26 45t52 17q32 0 47.5 -17t10.5 -45q-4 -28 -25 -45t-52 -17z" />
    <glyph glyph-name="zdotaccent" unicode="&#x17c;" 
d="M49 0l13 78l372 400h-301l12 72h393l-12 -79l-377 -399h325l-11 -72h-414zM361 651q-31 0 -47 16.5t-13 43.5q4 29 24 46t51 17t47.5 -17t12.5 -46q-3 -27 -23 -43.5t-52 -16.5z" />
    <glyph glyph-name="Zcaron" unicode="&#x17d;" 
d="M43 0l12 79l425 579h-328l11 72h411l-13 -81l-424 -577h344l-12 -72h-426zM346 810l-113 140h84l74 -86l99 86h89l-156 -140h-77z" />
    <glyph glyph-name="zcaron" unicode="&#x17e;" 
d="M49 0l13 78l372 400h-301l12 72h393l-12 -79l-377 -399h325l-11 -72h-414zM321 645l-113 140h84l74 -86l99 86h89l-156 -140h-77z" />
    <glyph glyph-name="longs" unicode="&#x17f;" 
d="M-41 -180l11 72h113q41 0 64.5 19.5t29.5 59.5l96 608q8 47 32 80.5t63.5 52t89.5 18.5h169l-12 -72h-169q-41 0 -64.5 -19.5t-29.5 -59.5l-96 -608q-10 -70 -59.5 -110.5t-125.5 -40.5h-112z" />
    <glyph glyph-name="uni018F" unicode="&#x18f;" 
d="M254 -10q-64 0 -105.5 25.5t-59 72.5t-8.5 109l31 197h333l22 139q10 65 -16.5 100.5t-88.5 35.5q-61 0 -99.5 -36.5t-49.5 -102.5h-79q10 65 42 112t82.5 72.5t114.5 25.5q98 0 143.5 -55.5t30.5 -151.5l-54 -336q-9 -62 -41.5 -109t-83 -72.5t-114.5 -25.5zM264 57
q65 0 102.5 36.5t47.5 103.5l21 134h-261l9 9l-22 -143q-10 -67 15 -103.5t88 -36.5z" />
    <glyph glyph-name="florin" unicode="&#x192;" 
d="M-73 -180l12 72h102q58 0 96 32.5t46 89.5l49 304h-163l12 72h163l32 205q10 64 54.5 99.5t114.5 35.5h159l-12 -71h-159q-33 0 -53 -16.5t-26 -48.5l-31 -204h227l-11 -72h-228l-49 -307q-9 -58 -41 -101t-81 -66.5t-110 -23.5h-103z" />
    <glyph glyph-name="Ohorn" unicode="&#x1a0;" 
d="M456 643l9 57h27q17 0 28.5 10.5t14.5 28.5l11 71h66l-11 -75q-7 -41 -38 -66.5t-76 -25.5h-31zM254 -10q-63 0 -106 25t-60.5 71.5t-7.5 110.5l53 336q11 64 43.5 110.5t83 71.5t113.5 25q64 0 106.5 -25t61 -71.5t7.5 -110.5l-53 -336q-10 -64 -43 -110.5t-83.5 -71.5
t-114.5 -25zM265 61q62 0 101 35.5t50 100.5l53 336q10 65 -18 100.5t-89 35.5t-100 -35.5t-50 -100.5l-53 -336q-10 -65 17.5 -100.5t88.5 -35.5z" />
    <glyph glyph-name="ohorn" unicode="&#x1a1;" 
d="M430 473l9 57h34q18 0 29.5 10.5t13.5 28.5l12 71h65l-11 -75q-7 -41 -38.5 -66.5t-75.5 -25.5h-38zM254 -10q-63 0 -106 25t-60.5 71.5t-7.5 110.5l24 156q11 64 43.5 110.5t83.5 71.5t114 25q64 0 106.5 -25t60.5 -71.5t8 -110.5l-25 -156q-10 -64 -43 -110.5
t-83.5 -71.5t-114.5 -25zM265 60q62 0 101 35.5t50 101.5l24 156q11 66 -17 101.5t-89 35.5t-100 -35.5t-51 -101.5l-24 -156q-10 -66 17.5 -101.5t88.5 -35.5z" />
    <glyph glyph-name="Uhorn" unicode="&#x1af;" 
d="M500 673l9 57h60q17 0 28.5 10.5t14.5 28.5l11 71h66l-12 -75q-7 -41 -38 -66.5t-76 -25.5h-63zM254 -10q-98 0 -142.5 56t-29.5 151l85 533h79l-84 -533q-11 -63 15 -99.5t89 -36.5q62 0 99.5 36.5t47.5 99.5l85 533h79l-84 -533q-10 -63 -42 -110t-81.5 -72t-115.5 -25
z" />
    <glyph glyph-name="uhorn" unicode="&#x1b0;" 
d="M83 198l55 352h79l-55 -352q-11 -65 17 -101.5t86 -36.5q59 0 98.5 36.5t50.5 101.5l55 352h64q18 0 29.5 10.5t14.5 28.5l12 71h66l-13 -75q-6 -41 -32 -66.5t-70 -25.5l-47 -295q-10 -63 -43 -110t-83.5 -72.5t-113.5 -25.5q-93 0 -139.5 56t-30.5 152z" />
    <glyph glyph-name="uni01CD" unicode="&#x1cd;" 
d="M11 0l309 730h105l76 -730h-78l-18 198h-229l-82 -198h-83zM203 266h195l-24 244q-5 61 -7.5 102.5t-2.5 53.5q-4 -12 -19 -53.5t-41 -102.5zM346 810l-113 140h84l74 -86l99 86h89l-156 -140h-77z" />
    <glyph glyph-name="uni01CE" unicode="&#x1ce;" 
d="M228 -10q-82 0 -122.5 55t-25.5 148l26 163q10 63 39.5 108.5t74 70.5t99.5 25q69 0 105 -38t26 -102l-16 33h19l15 97h79l-87 -550h-79l15 97h-20l28 33q-10 -65 -58.5 -102.5t-117.5 -37.5zM264 59q59 0 98.5 36.5t49.5 101.5l24 156q11 65 -17 101.5t-87 36.5
q-60 0 -98.5 -36t-49.5 -102l-24 -156q-10 -66 17 -102t87 -36zM326 645l-113 140h84l74 -86l99 86h89l-156 -140h-77z" />
    <glyph glyph-name="Gcaron" unicode="&#x1e6;" 
d="M259 -10q-65 0 -108.5 25t-62 72t-8.5 110l53 336q11 64 44 110.5t84.5 71.5t116.5 25q64 0 107.5 -25.5t62 -72.5t8.5 -112h-79q10 66 -19.5 102.5t-91.5 36.5t-102.5 -35.5t-51.5 -100.5l-53 -336q-10 -64 19.5 -100t91.5 -36q63 0 103.5 36.5t51.5 102.5l14 95h-154
l11 73h234l-26 -168q-10 -64 -44 -111.5t-85.5 -73t-115.5 -25.5zM348 810l-113 140h84l74 -86l99 86h89l-156 -140h-77z" />
    <glyph glyph-name="gcaron" unicode="&#x1e7;" 
d="M93 -180l12 72h167q46 0 72 22t34 67l10 64l18 104h-18l22 23q-10 -62 -56.5 -99t-114.5 -37q-84 0 -125 55.5t-26 148.5l18 117q10 62 39.5 107.5t75 70.5t101.5 25q68 0 103.5 -36.5t24.5 -98.5l-14 23h16l16 102h79l-90 -569q-12 -76 -64 -118.5t-134 -42.5h-166z
M272 105q59 0 98.5 36.5t49.5 101.5l17 110q11 65 -17 101.5t-87 36.5q-60 0 -98.5 -36t-49.5 -102l-17 -110q-10 -66 17 -102t87 -36zM318 645l-113 140h84l74 -86l99 86h89l-156 -140h-77z" />
    <glyph glyph-name="uni01EA" unicode="&#x1ea;" 
d="M301 -201q-52 0 -79 25t-20 65q2 15 11.5 32t25 35t35.5 35q-4 0 -10 -0.5t-10 -0.5q-63 0 -106 25t-60.5 71.5t-7.5 110.5l53 336q11 64 43.5 110.5t83 71.5t113.5 25q64 0 106.5 -25t61 -71.5t7.5 -110.5l-53 -336q-10 -60 -39.5 -105t-74.5 -71l-27 -20
q-36 -27 -54 -51.5t-21 -45.5q-4 -22 8.5 -36t37.5 -14h61l-9 -55h-76zM265 61q62 0 101 35.5t50 100.5l53 336q10 65 -18 100.5t-89 35.5t-100 -35.5t-50 -100.5l-53 -336q-10 -65 17.5 -100.5t88.5 -35.5z" />
    <glyph glyph-name="uni01EB" unicode="&#x1eb;" 
d="M297 -201q-52 0 -79 25t-20 65q3 22 20 46.5t55 55.5q-2 0 -5.5 -0.5t-6.5 -0.5h-7q-63 0 -106 25t-60.5 71.5t-7.5 110.5l24 156q11 64 43.5 110.5t83.5 71.5t114 25q64 0 106.5 -25t60.5 -71.5t8 -110.5l-25 -156q-10 -60 -39.5 -104.5t-74.5 -70.5l-28 -21
q-37 -28 -56 -52t-22 -45q-4 -22 8.5 -36t37.5 -14h61l-9 -55h-76zM265 60q62 0 101 35.5t50 101.5l24 156q11 66 -17 101.5t-89 35.5t-100 -35.5t-51 -101.5l-24 -156q-10 -66 17.5 -101.5t88.5 -35.5z" />
    <glyph glyph-name="uni01F4" unicode="&#x1f4;" 
d="M259 -10q-65 0 -108.5 25t-62 72t-8.5 110l53 336q11 64 44 110.5t84.5 71.5t116.5 25q64 0 107.5 -25.5t62 -72.5t8.5 -112h-79q10 66 -19.5 102.5t-91.5 36.5t-102.5 -35.5t-51.5 -100.5l-53 -336q-10 -64 19.5 -100t91.5 -36q63 0 103.5 36.5t51.5 102.5l14 95h-154
l11 73h234l-26 -168q-10 -64 -44 -111.5t-85.5 -73t-115.5 -25.5zM331 810l128 140h92l-134 -140h-86z" />
    <glyph glyph-name="uni01F5" unicode="&#x1f5;" 
d="M93 -180l12 72h167q46 0 72 22t34 67l10 64l18 104h-18l22 23q-10 -62 -56.5 -99t-114.5 -37q-84 0 -125 55.5t-26 148.5l18 117q10 62 39.5 107.5t75 70.5t101.5 25q68 0 103.5 -36.5t24.5 -98.5l-14 23h16l16 102h79l-90 -569q-12 -76 -64 -118.5t-134 -42.5h-166z
M272 105q59 0 98.5 36.5t49.5 101.5l17 110q11 65 -17 101.5t-87 36.5q-60 0 -98.5 -36t-49.5 -102l-17 -110q-10 -66 17 -102t87 -36zM302 645l128 140h92l-134 -140h-86z" />
    <glyph glyph-name="AEacute" unicode="&#x1fc;" 
d="M-13 0l273 730h382l-12 -72h-189l-38 -243h161l-11 -72h-162l-43 -271h189l-11 -72h-266l33 206h-149l-77 -206h-80zM168 273h135l61 385h-54zM334 810l128 140h92l-134 -140h-86z" />
    <glyph glyph-name="aeacute" unicode="&#x1fd;" 
d="M125 -10q-62 0 -91.5 39t-19.5 103l8 57q10 61 55 97t113 36h83l13 80q7 44 -8.5 67t-52.5 23q-31 0 -53 -19.5t-28 -51.5h-76q11 63 54 101t103 38q39 0 62.5 -13.5t34.5 -32t11 -36.5h3q7 18 23.5 36.5t43 32t63.5 13.5q66 0 97.5 -42.5t19.5 -114.5l-23 -145h-224
l-18 -111q-6 -39 11 -64t50 -25q34 0 57 19.5t29 51.5h76q-12 -63 -56.5 -101t-108.5 -38q-38 0 -60.5 13t-33 32t-10.5 36h-4q-5 -17 -23 -36t-47.5 -32t-72.5 -13zM154 58q34 0 59.5 25t32.5 64l17 111h-82q-32 0 -53 -18.5t-27 -50.5l-8 -57q-6 -33 10.5 -53.5
t50.5 -20.5zM346 322h149l13 81q6 40 -10.5 64.5t-51.5 24.5q-33 0 -57 -24.5t-30 -64.5zM306 645l128 140h92l-134 -140h-86z" />
    <glyph glyph-name="Oslashacute" unicode="&#x1fe;" 
d="M-11 -40l571 790h76l-571 -790h-76zM254 -10q-63 0 -106 25t-60.5 71.5t-7.5 110.5l53 336q11 64 43.5 110.5t83 71.5t113.5 25q64 0 106.5 -25t60.5 -71.5t8 -110.5l-53 -336q-10 -64 -43 -110.5t-83.5 -71.5t-114.5 -25zM265 61q62 0 101 35.5t50 100.5l53 336
q10 65 -18 100.5t-89 35.5t-100 -35.5t-50 -100.5l-53 -336q-10 -65 17.5 -100.5t88.5 -35.5zM329 810l128 140h92l-134 -140h-86z" />
    <glyph glyph-name="oslashacute" unicode="&#x1ff;" 
d="M-8 -30l534 620h82l-535 -620h-81zM254 -10q-63 0 -106 25t-60.5 71.5t-7.5 110.5l24 156q10 64 43 110.5t84 71.5t114 25q64 0 106.5 -25t60.5 -71.5t8 -110.5l-25 -156q-10 -64 -43 -110.5t-83.5 -71.5t-114.5 -25zM265 60q63 0 103.5 36.5t50.5 100.5l24 156
q11 65 -18 101t-91 36q-63 0 -103.5 -36t-50.5 -101l-24 -156q-11 -64 18 -100.5t91 -36.5zM306 645l128 140h92l-134 -140h-86z" />
    <glyph glyph-name="uni0218" unicode="&#x218;" 
d="M258 -10q-105 0 -157.5 53.5t-39.5 145.5h80q-10 -59 24.5 -93.5t104.5 -34.5q66 0 108.5 33t52.5 91q7 51 -13 86.5t-65 49.5l-90 29q-70 23 -102.5 75.5t-22.5 123.5q10 59 42.5 101.5t83.5 66.5t115 24q95 0 143.5 -53t35.5 -142h-80q10 57 -19.5 90t-91.5 33
q-61 0 -100.5 -29.5t-47.5 -83.5q-7 -48 13 -84t63 -51l91 -30q70 -22 102.5 -76.5t21.5 -127.5q-9 -59 -43.5 -103.5t-88 -69t-120.5 -24.5zM115 -240l116 145h95l-128 -145h-83z" />
    <glyph glyph-name="uni0219" unicode="&#x219;" 
d="M230 -10q-82 0 -125.5 40t-40.5 105h79q2 -33 27.5 -53.5t71.5 -20.5h49q53 0 84.5 24t37.5 63q6 37 -14.5 61t-63.5 31l-81 13q-76 12 -110 48.5t-23 103.5q11 73 65 114t144 41h39q78 0 119.5 -37.5t41.5 -100.5h-79q-2 30 -25.5 48.5t-67.5 18.5h-39q-53 0 -82.5 -22
t-35.5 -62q-6 -37 12 -56t63 -26l80 -13q80 -12 114 -50.5t24 -108.5q-13 -74 -67.5 -117.5t-147.5 -43.5h-49zM107 -240l116 145h95l-128 -145h-83z" />
    <glyph glyph-name="uni021A" unicode="&#x21a;" 
d="M217 0l104 658h-204l11 73h488l-12 -73h-204l-104 -658h-79zM80 -240l116 145h95l-128 -145h-83z" />
    <glyph glyph-name="uni021B" unicode="&#x21b;" 
d="M316 0q-69 0 -101 36.5t-21 103.5l53 338h-156l11 72h156l24 150h80l-24 -150h221l-11 -72h-222l-53 -338q-11 -68 54 -68h146l-11 -72h-146zM115 -240l116 145h95l-128 -145h-83z" />
    <glyph glyph-name="uni0232" unicode="&#x232;" 
d="M216 0l44 275l-149 455h80l101 -308q8 -24 13 -42t6 -27l15 27t26 42l197 308h84l-294 -455l-43 -275h-80zM235 844l11 66h309l-11 -66h-309z" />
    <glyph glyph-name="uni0233" unicode="&#x233;" 
d="M91 -180l12 72h167q46 0 72.5 22t33.5 67l11 73l17 98h-20l26 29q-10 -66 -56.5 -103.5t-116.5 -37.5q-82 0 -123 51.5t-27 139.5l50 319h80l-49 -310q-11 -62 17 -97.5t84 -35.5q59 0 99.5 37t50.5 103l47 303h80l-91 -569q-11 -76 -63.5 -118.5t-134.5 -42.5h-166z
M208 674l11 66h309l-11 -66h-309z" />
    <glyph glyph-name="uni0237" unicode="&#x237;" 
d="M15 -180l12 73h131q64 0 104.5 34.5t50.5 97.5l71 453h-235l11 72h315l-83 -525q-9 -63 -43 -109t-86 -71t-118 -25h-130z" />
    <glyph glyph-name="uni0259" unicode="&#x259;" 
d="M254 -10q-64 0 -105.5 25.5t-59 72.5t-8.5 109l15 97h335l9 59q11 67 -15.5 103.5t-90.5 36.5q-53 0 -87.5 -21t-50.5 -61h-79q22 69 82.5 109t145.5 40q64 0 106 -25.5t59.5 -72t7.5 -109.5l-25 -156q-9 -62 -41.5 -109t-83 -72.5t-114.5 -25.5zM264 57q65 0 103 36.5
t49 103.5l5 35h-265l10 9l-7 -44q-10 -67 16 -103.5t89 -36.5z" />
    <glyph glyph-name="uni02B9" unicode="&#x2b9;" 
d="M191 410l128 311h119l-177 -311h-70z" />
    <glyph glyph-name="uni02BA" unicode="&#x2ba;" 
d="M355 409l128 311h119l-178 -311h-69zM81 409l128 311h119l-177 -311h-70z" />
    <glyph glyph-name="uni02BC" unicode="&#x2bc;" 
d="M200 465l128 311h119l-177 -311h-70z" />
    <glyph glyph-name="circumflex" unicode="&#x2c6;" 
d="M185 645l156 140h77l113 -140h-84l-73 86l-99 -86h-90z" />
    <glyph glyph-name="caron" unicode="&#x2c7;" 
d="M321 645l-113 140h84l74 -86l99 86h89l-156 -140h-77z" />
    <glyph glyph-name="uni02C9" unicode="&#x2c9;" 
d="M270.752 674l21.4541 66h309l-21.4541 -66h-309z" />
    <glyph glyph-name="breve" unicode="&#x2d8;" 
d="M357 641q-70 0 -106.5 39.5t-26.5 104.5h63q-6 -41 15 -66t62 -25q43 0 72 25t35 66h65q-10 -65 -59 -104.5t-120 -39.5z" />
    <glyph glyph-name="dotaccent" unicode="&#x2d9;" 
d="M361 651q-31 0 -47 16.5t-13 43.5q4 29 24 46t51 17t47.5 -17t12.5 -46q-3 -27 -23 -43.5t-52 -16.5z" />
    <glyph glyph-name="ring" unicode="&#x2da;" 
d="M353 610q-53 0 -79.5 30.5t-19.5 79.5q8 50 44.5 80t88.5 30q53 0 80 -30.5t19 -79.5q-7 -49 -44 -79.5t-89 -30.5zM360 658q28 0 47.5 17t23.5 45q5 29 -9 46t-42 17t-47.5 -17.5t-24.5 -45.5q-4 -28 10.5 -45t41.5 -17z" />
    <glyph glyph-name="ogonek" unicode="&#x2db;" 
d="M230 -201q-51 0 -78.5 25t-20.5 65q5 29 29.5 59t74.5 62h65l-13 -9q-37 -28 -56 -52t-23 -45q-3 -22 9 -36t37 -14h61l-8 -55h-77z" />
    <glyph glyph-name="tilde" unicode="&#x2dc;" 
d="M430 650q-29 0 -46 11.5t-28.5 26.5t-22.5 26.5t-29 11.5q-15 0 -26.5 -10t-14.5 -30l-5 -31h-58l4 31q8 45 36.5 69.5t69.5 24.5q29 0 46.5 -11.5t28.5 -26.5t22 -26.5t28 -11.5q16 0 26.5 10t13.5 30l6 31h58l-5 -31q-7 -45 -35 -69.5t-69 -24.5z" />
    <glyph glyph-name="hungarumlaut" unicode="&#x2dd;" 
d="M386 645l131 140h85l-136 -140h-80zM211 645l131 140h85l-136 -140h-80z" />
    <glyph glyph-name="uni02F3" unicode="&#x2f3;" 
d="M216 -249q-52 0 -79.5 27.5t-20.5 71.5q8 44 44 71.5t88 27.5t80 -27.5t20 -71.5q-7 -44 -43 -71.5t-89 -27.5zM223 -202q28 0 47.5 14.5t22.5 37.5q5 26 -9.5 39.5t-43.5 13.5q-27 0 -46 -14.5t-23 -38.5q-4 -23 10.5 -37.5t41.5 -14.5z" />
    <glyph glyph-name="uni02F7" unicode="&#x2f7;" 
d="M371 -210q-29 0 -48 11.5t-32.5 26.5t-26.5 26.5t-30 11.5q-16 0 -26 -10t-10 -30v-31h-58v31q0 45 24.5 69.5t65.5 24.5q29 0 48.5 -11.5t33 -26.5t26 -26.5t30.5 -11.5q16 0 25 10t9 30v31h58v-31q0 -45 -24 -69.5t-65 -24.5z" />
    <glyph glyph-name="gravecomb" unicode="&#x300;" horiz-adv-x="0" 
d="M362 645l-92 140h84l87 -140h-79z" />
    <glyph glyph-name="acutecomb" unicode="&#x301;" horiz-adv-x="0" 
d="M273 645l128 140h92l-134 -140h-86z" />
    <glyph glyph-name="uni0302" unicode="&#x302;" horiz-adv-x="0" 
d="M185 645l156 140h77l113 -140h-84l-73 86l-99 -86h-90z" />
    <glyph glyph-name="tildecomb" unicode="&#x303;" horiz-adv-x="0" 
d="M430 650q-29 0 -46 11.5t-28.5 26.5t-22.5 26.5t-29 11.5q-15 0 -26.5 -10t-14.5 -30l-5 -31h-58l4 31q8 45 36.5 69.5t69.5 24.5q29 0 46.5 -11.5t28.5 -26.5t22 -26.5t28 -11.5q16 0 26.5 10t13.5 30l6 31h58l-5 -31q-7 -45 -35 -69.5t-69 -24.5z" />
    <glyph glyph-name="uni0304" unicode="&#x304;" horiz-adv-x="0" 
d="M208 674l11 66h309l-11 -66h-309z" />
    <glyph glyph-name="uni0306" unicode="&#x306;" horiz-adv-x="0" 
d="M357 641q-70 0 -106.5 39.5t-26.5 104.5h63q-6 -41 15 -66t62 -25q43 0 72 25t35 66h65q-10 -65 -59 -104.5t-120 -39.5z" />
    <glyph glyph-name="uni0307" unicode="&#x307;" horiz-adv-x="0" 
d="M361 651q-31 0 -47 16.5t-13 43.5q4 29 24 46t51 17t47.5 -17t12.5 -46q-3 -27 -23 -43.5t-52 -16.5z" />
    <glyph glyph-name="uni0308" unicode="&#x308;" horiz-adv-x="0" 
d="M469 651q-27 0 -41 16t-10 44q5 29 24 46t47 17q27 0 41 -17t9 -46q-4 -27 -23 -43.5t-47 -16.5zM249 651q-27 0 -41 16t-10 44q5 29 24 46t46 17q28 0 42.5 -17t9.5 -46q-4 -27 -23.5 -43.5t-47.5 -16.5z" />
    <glyph glyph-name="hookabovecomb" unicode="&#x309;" horiz-adv-x="0" 
d="M315 645l62 66q9 10 14.5 19t6.5 15q3 22 -27 22h-81l10 57h100q38 0 57.5 -18.5t14.5 -51.5q-2 -15 -9 -29t-17 -25l-50 -55h-81z" />
    <glyph glyph-name="uni030A" unicode="&#x30a;" horiz-adv-x="0" 
d="M353 610q-53 0 -79.5 30.5t-19.5 79.5q8 50 44.5 80t88.5 30q53 0 80 -30.5t19 -79.5q-7 -49 -44 -79.5t-89 -30.5zM360 658q28 0 47.5 17t23.5 45q5 29 -9 46t-42 17t-47.5 -17.5t-24.5 -45.5q-4 -28 10.5 -45t41.5 -17z" />
    <glyph glyph-name="uni030B" unicode="&#x30b;" horiz-adv-x="0" 
d="M386 645l131 140h85l-136 -140h-80zM211 645l131 140h85l-136 -140h-80z" />
    <glyph glyph-name="uni030C" unicode="&#x30c;" horiz-adv-x="0" 
d="M321 645l-113 140h84l74 -86l99 86h89l-156 -140h-77z" />
    <glyph glyph-name="uni030F" unicode="&#x30f;" horiz-adv-x="0" 
d="M329 645h-75l-92 140h80zM501 645h-75l-92 140h80z" />
    <glyph glyph-name="uni0312" unicode="&#x312;" horiz-adv-x="0" 
d="M504 880l-121 -235h-105l163 235h63z" />
    <glyph glyph-name="uni031B" unicode="&#x31b;" horiz-adv-x="0" 
d="M532 493l9 57h34q18 0 29.5 10.5t14.5 28.5l12 71h65l-12 -75q-7 -41 -38.5 -66.5t-75.5 -25.5h-38z" />
    <glyph glyph-name="dotbelowcomb" unicode="&#x323;" horiz-adv-x="0" 
d="M223 -211q-32 0 -47.5 16.5t-11.5 44.5q5 29 26 45.5t52 16.5q32 0 47 -16.5t11 -45.5q-4 -28 -25 -44.5t-52 -16.5z" />
    <glyph glyph-name="uni0325" unicode="&#x325;" horiz-adv-x="0" 
d="M216 -249q-52 0 -79.5 27.5t-20.5 71.5q8 44 44 71.5t88 27.5t80 -27.5t20 -71.5q-7 -44 -43 -71.5t-89 -27.5zM223 -202q28 0 47.5 14.5t22.5 37.5q5 26 -9.5 39.5t-43.5 13.5q-27 0 -46 -14.5t-23 -38.5q-4 -23 10.5 -37.5t41.5 -14.5z" />
    <glyph glyph-name="uni0326" unicode="&#x326;" horiz-adv-x="0" 
d="M115 -240l116 145h95l-128 -145h-83z" />
    <glyph glyph-name="uni0327" unicode="&#x327;" horiz-adv-x="0" 
d="M131 -201l8 50h72q23 0 38.5 12t17.5 25q3 19 -23.5 32.5t-77.5 13.5l50 94h53l-31 -61q25 -2 50.5 -12t41.5 -28t12 -44q-5 -34 -40.5 -58t-87.5 -24h-83z" />
    <glyph glyph-name="uni0328" unicode="&#x328;" horiz-adv-x="0" 
d="M230 -201q-51 0 -78.5 25t-20.5 65q5 29 29.5 59t74.5 62h65l-13 -9q-37 -28 -56 -52t-23 -45q-3 -22 9 -36t37 -14h61l-8 -55h-77z" />
    <glyph glyph-name="uni0336" unicode="&#x336;" horiz-adv-x="0" 
d="M-627 294l10 62h659l-9 -62h-660z" />
    <glyph glyph-name="uni0338" unicode="&#x338;" horiz-adv-x="0" 
d="M69 -60l428 840h60l-428 -840h-60z" />
    <glyph glyph-name="uni0374" unicode="&#x374;" 
d="M191 410l128 311h119l-177 -311h-70z" />
    <glyph glyph-name="uni0375" unicode="&#x375;" 
d="M101 -160l128 311h123l-178 -311h-73z" />
    <glyph glyph-name="uni037E" unicode="&#x37e;" 
d="M106 -160l128 311h120l-178 -311h-70zM313 413q-33 0 -50 20.5t-12 52.5t29 53t56 21h18q32 0 49.5 -21t12.5 -53t-29 -52.5t-57 -20.5h-17z" />
    <glyph glyph-name="tonos" unicode="&#x384;" 
d="M276 645l128 140h87l-134 -140h-81z" />
    <glyph glyph-name="dieresistonos" unicode="&#x385;" 
d="M341 769l100 131h72l-109 -131h-63zM469 651q-27 0 -41 16t-10 44q5 29 24 46t47 17q27 0 41 -17t9 -46q-4 -27 -23 -43.5t-47 -16.5zM249 651q-27 0 -41 16t-10 44q5 29 24 46t46 17q28 0 42.5 -17t9.5 -46q-4 -27 -23.5 -43.5t-47.5 -16.5z" />
    <glyph glyph-name="Alphatonos" unicode="&#x386;" 
d="M11 0l309 730h105l76 -730h-78l-18 198h-229l-82 -198h-83zM203 266h195l-24 244q-5 61 -7.5 102.5t-2.5 53.5q-4 -12 -19 -53.5t-41 -102.5zM70 569l82 160h83l-89 -160h-76z" />
    <glyph glyph-name="anoteleia" unicode="&#x387;" 
d="M254 261q-37 0 -55 21.5t-13 57.5q6 38 31.5 60t62.5 22t55 -22t12 -60q-6 -36 -31 -57.5t-62 -21.5z" />
    <glyph glyph-name="Epsilontonos" unicode="&#x388;" 
d="M61 0l116 730h412l-11 -72h-334l-38 -241h299l-12 -71h-298l-44 -274h334l-12 -72h-412zM-53 569l82 160h83l-89 -160h-76z" />
    <glyph glyph-name="Etatonos" unicode="&#x389;" 
d="M-53 569l82 160h83l-89 -160h-76zM54 0l116 730h79l-51 -316h247l50 316h79l-116 -730h-79l54 341h-246l-54 -341h-79z" />
    <glyph glyph-name="Iotatonos" unicode="&#x38a;" 
d="M-53 569l82 160h83l-89 -160h-76zM65 0l11 72h151l93 586h-151l12 72h382l-12 -72h-150l-93 -586h150l-11 -72h-382z" />
    <glyph glyph-name="Omicrontonos" unicode="&#x38c;" 
d="M-20 569l82 160h83l-89 -160h-76zM254 -10q-63 0 -106 25t-60.5 71.5t-7.5 110.5l53 336q11 64 43.5 110.5t83 71.5t113.5 25q64 0 106.5 -25t61 -71.5t7.5 -110.5l-53 -336q-10 -64 -43 -110.5t-83.5 -71.5t-114.5 -25zM265 61q62 0 101 35.5t50 100.5l53 336
q10 65 -18 100.5t-89 35.5t-100 -35.5t-50 -100.5l-53 -336q-10 -65 17.5 -100.5t88.5 -35.5z" />
    <glyph glyph-name="Upsilontonos" unicode="&#x38e;" 
d="M-66 569l82 160h83l-89 -160h-76zM216 0l44 275l-149 455h80l101 -308q8 -24 13 -42t6 -27l15 27t26 42l197 308h84l-294 -455l-43 -275h-80z" />
    <glyph glyph-name="Omegatonos" unicode="&#x38f;" 
d="M6 0l11 71h151l1 7q-24 3 -47.5 20t-36 51t-4.5 87l47 292q10 65 43 112.5t85.5 73.5t116.5 26q66 0 109 -26t61.5 -73.5t8.5 -112.5l-47 -292q-8 -53 -31.5 -87t-52 -50.5t-52.5 -19.5l-2 -8h151l-11 -71h-211l16 103q42 0 73 36t40 93l47 296q11 66 -19 103.5t-90 37.5
q-61 0 -103.5 -37.5t-52.5 -103.5l-47 -296q-9 -57 10.5 -93t61.5 -36l-16 -103h-210zM-20 569l82 160h83l-89 -160h-76z" />
    <glyph glyph-name="iotadieresistonos" unicode="&#x390;" 
d="M372 0q-72 0 -107 40.5t-24 109.5l52 328h-202l11 72h281l-63 -400q-6 -37 11 -57.5t52 -20.5h132l-12 -72h-131zM341 769l100 131h72l-109 -131h-63zM469 651q-27 0 -41 16t-10 44q5 29 24 46t47 17q27 0 41 -17t9 -46q-4 -27 -23 -43.5t-47 -16.5zM249 651
q-27 0 -41 16t-10 44q5 29 24 46t46 17q28 0 42.5 -17t9.5 -46q-4 -27 -23.5 -43.5t-47.5 -16.5z" />
    <glyph glyph-name="Alpha" unicode="&#x391;" 
d="M11 0l309 730h105l76 -730h-78l-18 198h-229l-82 -198h-83zM203 266h195l-24 244q-5 61 -7.5 102.5t-2.5 53.5q-4 -12 -19 -53.5t-41 -102.5z" />
    <glyph glyph-name="Beta" unicode="&#x392;" 
d="M54 0l116 730h201q98 0 146 -50.5t34 -138.5q-8 -50 -34.5 -87.5t-67.5 -58t-93 -19.5l1 14q57 0 95.5 -22.5t55 -65t6.5 -100.5q-10 -62 -43 -107.5t-85 -70t-119 -24.5h-213zM143 72h128q67 0 111 35.5t54 96.5q10 63 -22.5 101.5t-99.5 38.5h-128zM197 413h123
q61 0 101.5 33t50.5 90q8 57 -21.5 89.5t-90.5 32.5h-124z" />
    <glyph glyph-name="Gamma" unicode="&#x393;" 
d="M69 0l116 730h419l-11 -72h-341l-104 -658h-79z" />
    <glyph glyph-name="uni0394" unicode="&#x394;" 
d="M11 0l309 730h105l76 -730h-490zM122 71h294l-42 439q-4 50 -7 93.5t-4 64.5q-7 -21 -23 -64.5t-36 -93.5z" />
    <glyph glyph-name="Epsilon" unicode="&#x395;" 
d="M61 0l116 730h412l-11 -72h-334l-38 -241h299l-12 -71h-298l-44 -274h334l-12 -72h-412z" />
    <glyph glyph-name="Zeta" unicode="&#x396;" 
d="M43 0l12 79l425 579h-328l11 72h411l-13 -81l-424 -577h344l-12 -72h-426z" />
    <glyph glyph-name="Eta" unicode="&#x397;" 
d="M54 0l116 730h79l-51 -316h247l50 316h79l-116 -730h-79l54 341h-246l-54 -341h-79z" />
    <glyph glyph-name="Theta" unicode="&#x398;" 
d="M214 341l11 73h192l-11 -73h-192zM254 -10q-63 0 -106 25t-60.5 71.5t-7.5 110.5l53 336q11 64 43.5 110.5t83 71.5t113.5 25q64 0 106.5 -25t61 -71.5t7.5 -110.5l-53 -336q-10 -64 -43 -110.5t-83.5 -71.5t-114.5 -25zM265 61q62 0 101 35.5t50 100.5l53 336
q10 65 -18 100.5t-89 35.5t-100 -35.5t-50 -100.5l-53 -336q-10 -65 17.5 -100.5t88.5 -35.5z" />
    <glyph glyph-name="Iota" unicode="&#x399;" 
d="M65 0l11 72h151l93 586h-151l12 72h382l-12 -72h-150l-93 -586h150l-11 -72h-382z" />
    <glyph glyph-name="Kappa" unicode="&#x39a;" 
d="M53 0l116 730h79l-50 -317h118l212 317h89l-235 -354l129 -376h-89l-115 343h-120l-55 -343h-79z" />
    <glyph glyph-name="Lambda" unicode="&#x39b;" 
d="M11 0l309 730h105l76 -730h-77l-49 510q-4 46 -7 81.5t-4 56l-1 20.5l-6.5 -20.5t-20 -56t-31.5 -81.5l-210 -510h-84z" />
    <glyph glyph-name="Mu" unicode="&#x39c;" 
d="M36 0l116 730h105l43 -248q5 -29 9.5 -59t6.5 -47q8 17 21 47t27 60l119 247h109l-116 -730h-78l50 312q7 44 17 95.5t22 103t23.5 98.5t20.5 81l-181 -369h-84l-66 369q-1 -34 -4.5 -79.5t-8 -97t-10.5 -103.5t-14 -98l-49 -312h-78z" />
    <glyph glyph-name="Nu" unicode="&#x39d;" 
d="M51 0l116 730h105l135 -638q2 23 5 56.5t7.5 68.5t9.5 63l71 450h77l-116 -730h-106l-133 638q-2 -20 -5 -51.5t-7.5 -67t-10.5 -69.5l-71 -450h-77z" />
    <glyph glyph-name="Xi" unicode="&#x39e;" 
d="M142 657l11 73h438l-12 -73h-437zM37 0l12 73h437l-11 -73h-438zM123 333l11 74h372l-11 -74h-372z" />
    <glyph glyph-name="Omicron" unicode="&#x39f;" 
d="M254 -10q-63 0 -106 25t-60.5 71.5t-7.5 110.5l53 336q11 64 43.5 110.5t83 71.5t113.5 25q64 0 106.5 -25t61 -71.5t7.5 -110.5l-53 -336q-10 -64 -43 -110.5t-83.5 -71.5t-114.5 -25zM265 61q62 0 101 35.5t50 100.5l53 336q10 65 -18 100.5t-89 35.5t-100 -35.5
t-50 -100.5l-53 -336q-10 -65 17.5 -100.5t88.5 -35.5z" />
    <glyph glyph-name="Pi" unicode="&#x3a0;" 
d="M54 0l116 730h404l-116 -730h-80l105 658h-245l-104 -658h-80z" />
    <glyph glyph-name="Rho" unicode="&#x3a1;" 
d="M53 0l116 730h229q67 0 112.5 -26t64.5 -73.5t9 -112.5q-9 -64 -44 -111.5t-88.5 -74t-120.5 -26.5h-150l-49 -306h-79zM192 378h150q63 0 106.5 38t54.5 102q10 65 -21.5 102.5t-94.5 37.5h-151z" />
    <glyph glyph-name="Sigma" unicode="&#x3a3;" 
d="M11 0l12 73l372 301l-280 283l12 73h485l-12 -71h-316l-75 2l251 -248l-14 -89l-326 -256l68 3h319l-11 -71h-485z" />
    <glyph glyph-name="Tau" unicode="&#x3a4;" 
d="M217 0l104 658h-204l11 73h488l-12 -73h-204l-104 -658h-79z" />
    <glyph glyph-name="Upsilon" unicode="&#x3a5;" 
d="M216 0l44 275l-149 455h80l101 -308q8 -24 13 -42t6 -27l15 27t26 42l197 308h84l-294 -455l-43 -275h-80z" />
    <glyph glyph-name="Phi" unicode="&#x3a6;" 
d="M215 -25l11 70q-62 0 -104.5 25.5t-60.5 72t-8 108.5l38 239q10 64 42.5 111t83 73t113.5 26l11 70h74l-11 -70q63 0 105 -26t60 -73t7 -111l-37 -239q-10 -62 -43 -108.5t-83 -72t-113 -25.5l-11 -70h-74zM236 113l83 519q-40 0 -72 -17.5t-53 -49t-28 -75.5l-38 -239
q-10 -62 19 -100t89 -38zM311 113q41 0 72.5 17t52.5 48t28 73l37 239q11 65 -18 103.5t-89 38.5z" />
    <glyph glyph-name="Chi" unicode="&#x3a7;" 
d="M-1 0l271 374l-142 356h87l81 -218q6 -17 15 -38.5t14 -34.5q9 13 23 34.5t26 38.5l152 218h90l-255 -354l152 -376h-87l-91 237q-7 17 -15.5 38.5t-12.5 36.5q-9 -15 -23.5 -36t-25.5 -38l-167 -238h-92z" />
    <glyph glyph-name="Psi" unicode="&#x3a8;" 
d="M219 0l27 170q-94 0 -141 56.5t-32 149.5l56 354h75l-56 -354q-10 -62 19 -100t89 -38l79 492h74l-78 -492q41 0 72.5 17t52.5 48t28 73l56 354h75l-56 -354q-10 -62 -43 -108.5t-83 -72t-113 -25.5l-27 -170h-74z" />
    <glyph glyph-name="uni03A9" unicode="&#x3a9;" 
d="M6 0l11 71h151l1 7q-24 3 -47.5 20t-36 51t-4.5 87l47 292q10 65 43 112.5t85.5 73.5t116.5 26q66 0 109 -26t61.5 -73.5t8.5 -112.5l-47 -292q-8 -53 -31.5 -87t-52 -50.5t-52.5 -19.5l-2 -8h151l-11 -71h-211l16 103q42 0 73 36t40 93l47 296q11 66 -19 103.5t-90 37.5
q-61 0 -103.5 -37.5t-52.5 -103.5l-47 -296q-9 -57 10.5 -93t61.5 -36l-16 -103h-210z" />
    <glyph glyph-name="Iotadieresis" unicode="&#x3aa;" 
d="M65 0l11 72h151l93 586h-151l12 72h382l-12 -72h-150l-93 -586h150l-11 -72h-382zM497 819q-28 0 -42 16.5t-10 44.5q5 29 24.5 45.5t47.5 16.5q27 0 41 -16.5t9 -45.5q-4 -28 -23.5 -44.5t-46.5 -16.5zM277 819q-28 0 -42 16.5t-10 44.5q5 29 24.5 45.5t46.5 16.5
q28 0 42 -16.5t9 -45.5q-4 -28 -23.5 -44.5t-46.5 -16.5z" />
    <glyph glyph-name="Upsilondieresis" unicode="&#x3ab;" 
d="M216 0l44 275l-149 455h80l101 -308q8 -24 13 -42t6 -27l15 27t26 42l197 308h84l-294 -455l-43 -275h-80zM497 819q-28 0 -42 16.5t-10 44.5q5 29 24.5 45.5t47.5 16.5q27 0 41 -16.5t9 -45.5q-4 -28 -23.5 -44.5t-46.5 -16.5zM277 819q-28 0 -42 16.5t-10 44.5
q5 29 24.5 45.5t46.5 16.5q28 0 42 -16.5t9 -45.5q-4 -28 -23.5 -44.5t-46.5 -16.5z" />
    <glyph glyph-name="alphatonos" unicode="&#x3ac;" 
d="M300 645l128 140h87l-134 -140h-81zM228 -10q-82 0 -122.5 55t-25.5 148l26 163q10 63 39.5 108.5t74 70.5t99.5 25q69 0 105 -38t26 -102l-16 33h19l15 97h79l-87 -550h-79l15 97h-20l28 33q-10 -65 -58.5 -102.5t-117.5 -37.5zM264 59q59 0 98.5 36.5t49.5 101.5
l24 156q11 65 -17 101.5t-87 36.5q-60 0 -98.5 -36t-49.5 -102l-24 -156q-10 -66 17 -102t87 -36z" />
    <glyph glyph-name="epsilontonos" unicode="&#x3ad;" 
d="M282 -8h-50q-87 0 -133 43.5t-34 114.5q9 60 46 94.5t103 38.5l1 4q-55 4 -80.5 36.5t-17.5 82.5q8 46 36 80t72 53t100 19h52q81 0 125.5 -39t45.5 -101h-83q-3 30 -29 49.5t-71 19.5h-52q-31 0 -55 -10.5t-39 -29.5t-19 -45q-6 -38 15.5 -62t68.5 -24h121l-10 -69h-123
q-52 0 -84.5 -26t-39.5 -68q-6 -39 19.5 -64.5t75.5 -25.5h49q51 0 85 18.5t46 47.5h83q-19 -63 -78.5 -100t-145.5 -37zM289 645l128 140h87l-134 -140h-81z" />
    <glyph glyph-name="etatonos" unicode="&#x3ae;" 
d="M53 0l87 550h79l-16 -102h20l-27 -29q11 66 57.5 103.5t116.5 37.5q82 0 123 -51.5t27 -139.5l-88 -549h-79l86 540q10 63 -17.5 98t-84.5 35q-58 0 -98 -37t-51 -103l-56 -353h-79zM314 645l128 140h87l-134 -140h-81z" />
    <glyph glyph-name="iotatonos" unicode="&#x3af;" 
d="M372 0q-72 0 -107 40.5t-24 109.5l52 328h-202l11 72h281l-63 -400q-6 -37 11 -57.5t52 -20.5h132l-12 -72h-131zM279 645l128 140h87l-134 -140h-81z" />
    <glyph glyph-name="upsilondieresistonos" unicode="&#x3b0;" 
d="M253 -10q-93 0 -139.5 56t-30.5 152l55 352h79l-55 -352q-11 -65 17 -101.5t86 -36.5q59 0 98.5 36.5t50.5 101.5l55 352h79l-55 -352q-10 -63 -43 -110t-83.5 -72.5t-113.5 -25.5zM341 769l100 131h72l-109 -131h-63zM469 651q-27 0 -41 16t-10 44q5 29 24 46t47 17
q27 0 41 -17t9 -46q-4 -27 -23 -43.5t-47 -16.5zM249 651q-27 0 -41 16t-10 44q5 29 24 46t46 17q28 0 42.5 -17t9.5 -46q-4 -27 -23.5 -43.5t-47.5 -16.5z" />
    <glyph glyph-name="alpha" unicode="&#x3b1;" 
d="M228 -10q-82 0 -122.5 55t-25.5 148l26 163q10 63 39.5 108.5t74 70.5t99.5 25q69 0 105 -38t26 -102l-16 33h19l15 97h79l-87 -550h-79l15 97h-20l28 33q-10 -65 -58.5 -102.5t-117.5 -37.5zM264 59q59 0 98.5 36.5t49.5 101.5l24 156q11 65 -17 101.5t-87 36.5
q-60 0 -98.5 -36t-49.5 -102l-24 -156q-10 -66 17 -102t87 -36z" />
    <glyph glyph-name="beta" unicode="&#x3b2;" 
d="M24 -180l114 716q10 62 42.5 108t83 71t113.5 25t106 -22t62.5 -64t9.5 -101q-10 -62 -48 -106.5t-95 -59.5q59 -15 86.5 -61.5t16.5 -117.5q-10 -62 -43.5 -109t-85.5 -73t-118 -26h-136l-29 -180h-79zM144 72h128q65 0 107.5 37t52.5 99t-20.5 97t-96.5 35h-43l11 69
h41q59 0 98.5 36.5t48.5 92.5q9 61 -19 95.5t-87 34.5q-58 0 -98 -35.5t-50 -96.5z" />
    <glyph glyph-name="gamma" unicode="&#x3b3;" 
d="M187 -180l29 180l-109 550h80l66 -374q3 -20 6 -39.5t5 -36t3 -26l1 -9.5l3.5 9.5t10 26t15 36t17.5 39.5l182 374h83l-283 -550l-29 -180h-80z" />
    <glyph glyph-name="delta" unicode="&#x3b4;" 
d="M63 216q10 64 43.5 113t83 77t106.5 28q25 0 45.5 -6t30.5 -16l4 4l-204 238l13 76h364l-11 -67h-284l191 -220q22 -25 41 -59t28.5 -77t1.5 -92q-10 -65 -47.5 -116t-93 -80t-122.5 -29q-66 0 -113 29t-67 80t-10 117zM144 219q-7 -47 6 -82.5t42.5 -56t72.5 -20.5
t79 20.5t61 56t32 82.5q8 46 -5.5 82t-43 56t-73.5 20q-42 0 -78.5 -20t-60.5 -56t-32 -82z" />
    <glyph glyph-name="epsilon" unicode="&#x3b5;" 
d="M282 -8h-50q-87 0 -133 43.5t-34 114.5q9 60 46 94.5t103 38.5l1 4q-55 4 -80.5 36.5t-17.5 82.5q8 46 36 80t72 53t100 19h52q81 0 125.5 -39t45.5 -101h-83q-3 30 -29 49.5t-71 19.5h-52q-31 0 -55 -10.5t-39 -29.5t-19 -45q-6 -38 15.5 -62t68.5 -24h121l-10 -69h-123
q-52 0 -84.5 -26t-39.5 -68q-6 -39 19.5 -64.5t75.5 -25.5h49q51 0 85 18.5t46 47.5h83q-19 -63 -78.5 -100t-145.5 -37z" />
    <glyph glyph-name="zeta" unicode="&#x3b6;" 
d="M57 179q4 32 18 64.5t41.5 70.5t74 87t116 112t167.5 145h-322l11 72h411l-13 -81l-179 -160q-68 -60 -113 -106t-73 -81.5t-41.5 -64.5t-18.5 -58q-8 -51 16.5 -79.5t76.5 -28.5h141q68 0 96 -27.5t12 -90.5l-33 -133h-79l33 133q12 47 -40 47h-142q-91 0 -132 47
t-28 132z" />
    <glyph glyph-name="eta" unicode="&#x3b7;" 
d="M53 0l87 550h79l-16 -102h20l-27 -29q11 66 57.5 103.5t116.5 37.5q82 0 123 -51.5t27 -139.5l-88 -549h-79l86 540q10 63 -17.5 98t-84.5 35q-58 0 -98 -37t-51 -103l-56 -353h-79z" />
    <glyph glyph-name="theta" unicode="&#x3b8;" 
d="M254 -10q-63 0 -106 25t-60.5 71.5t-7.5 110.5l51 326q11 64 43.5 110.5t83.5 71.5t114 25q64 0 106.5 -25t60.5 -71.5t8 -110.5l-52 -326q-10 -64 -43 -110.5t-83.5 -71.5t-114.5 -25zM265 60q62 0 101 35.5t50 101.5l51 326q11 66 -17 101.5t-89 35.5t-100.5 -35.5
t-50.5 -101.5l-51 -326q-10 -66 17.5 -101.5t88.5 -35.5zM177 398h282l-11 -69h-282z" />
    <glyph glyph-name="iota" unicode="&#x3b9;" 
d="M372 0q-72 0 -107 40.5t-24 109.5l52 328h-202l11 72h281l-63 -400q-6 -37 11 -57.5t52 -20.5h132l-12 -72h-131z" />
    <glyph glyph-name="kappa" unicode="&#x3ba;" 
d="M57 0l87 550h80l-37 -231h102l200 231h93l-226 -265l143 -285h-91l-125 250h-107l-39 -250h-80z" />
    <glyph glyph-name="lambda" unicode="&#x3bb;" 
d="M11 0l300 541l-43 189h85l148 -730h-84l-62 357q-5 34 -9 66t-5 48q-5 -16 -19 -48t-32 -66l-190 -357h-89z" />
    <glyph glyph-name="uni03BC" unicode="&#x3bc;" 
d="M24 -180l116 730h79l-56 -356q-10 -64 16.5 -99t85.5 -35t97 35t49 99l56 356h79l-56 -356q-15 -94 -76 -149t-152 -55q-44 0 -73.5 11.5t-45 30t-20.5 37.5h-3q1 0 2 -13t1.5 -31t-1.5 -35l-19 -170h-79z" />
    <glyph glyph-name="nu" unicode="&#x3bd;" 
d="M203 0l-96 550h79l63 -381q5 -31 9 -61.5t6 -47.5q8 17 21.5 47.5t29.5 61.5l180 381h84l-270 -550h-106z" />
    <glyph glyph-name="xi" unicode="&#x3be;" 
d="M59 205q11 70 53.5 117t109.5 65q-54 16 -78.5 60.5t-14.5 107.5q14 86 82 136t169 50q104 0 154.5 -54t35.5 -148h-79q10 60 -23 96t-98 36q-64 0 -107.5 -32.5t-52.5 -92.5t22.5 -98.5t95.5 -38.5h88l-12 -72h-88q-72 0 -118 -34.5t-56 -97.5q-10 -64 24.5 -98.5
t107.5 -34.5h96q68 0 96.5 -27t12.5 -91l-33 -133h-80l34 133q11 47 -41 47h-96q-113 0 -165.5 55t-38.5 149z" />
    <glyph glyph-name="omicron" unicode="&#x3bf;" 
d="M254 -10q-63 0 -106 25t-60.5 71.5t-7.5 110.5l24 156q11 64 43.5 110.5t83.5 71.5t114 25q64 0 106.5 -25t60.5 -71.5t8 -110.5l-25 -156q-10 -64 -43 -110.5t-83.5 -71.5t-114.5 -25zM265 60q62 0 101 35.5t50 101.5l24 156q11 66 -17 101.5t-89 35.5t-100 -35.5
t-51 -101.5l-24 -156q-10 -66 17.5 -101.5t88.5 -35.5z" />
    <glyph glyph-name="pi" unicode="&#x3c0;" 
d="M486 -5q-71 0 -106.5 44.5t-23.5 118.5l51 321h-186l-75 -479h-80l77 480h-83l11 70h524l-11 -68h-97l-52 -328q-7 -41 9 -63t50 -22h25l-12 -74h-21z" />
    <glyph glyph-name="rho" unicode="&#x3c1;" 
d="M24 -180l85 537q10 63 42 108.5t82.5 70t113.5 24.5t104 -24.5t58.5 -69.5t7.5 -109l-26 -163q-9 -63 -38.5 -108.5t-73.5 -70.5t-100 -25q-68 0 -103.5 38t-25.5 102l16 -33h-20l-16 -112l-27 -165h-79zM266 59q60 0 98 36t49 102l24 156q11 67 -16 102.5t-87 35.5
q-59 0 -97 -36t-49 -102l-24 -156q-11 -65 16.5 -101.5t85.5 -36.5z" />
    <glyph glyph-name="uni03C2" unicode="&#x3c2;" 
d="M81 203l23 150q11 64 43.5 110.5t84.5 71.5t116 25q94 0 144 -51t36 -139h-79q9 57 -21.5 88t-90.5 31q-61 0 -102 -35.5t-51 -100.5l-24 -150q-10 -63 19.5 -97.5t91.5 -34.5h101q68 0 95.5 -27.5t12.5 -90.5l-34 -133h-79l33 133q12 47 -40 47h-101q-97 0 -145.5 53
t-32.5 150z" />
    <glyph glyph-name="sigma" unicode="&#x3c3;" 
d="M80 197l24 156q11 64 43.5 110.5t83.5 71.5t114 25h227l-11 -70h-116l-3 -21l-22 24q22 0 41.5 -11t34 -29.5t21.5 -44t3 -55.5l-25 -156q-10 -64 -43 -110.5t-83.5 -71.5t-114.5 -25q-63 0 -106 25t-60.5 71.5t-7.5 110.5zM159 197q-10 -66 17.5 -101.5t88.5 -35.5
q62 0 101 35.5t50 101.5l24 156q11 66 -15 101.5t-91 35.5q-61 0 -100 -35.5t-51 -101.5z" />
    <glyph glyph-name="tau" unicode="&#x3c4;" 
d="M341 0q-69 0 -101 36.5t-21 103.5l53 338h-181l11 72h457l-11 -72h-197l-53 -338q-11 -68 54 -68h121l-11 -72h-121z" />
    <glyph glyph-name="upsilon" unicode="&#x3c5;" 
d="M253 -10q-93 0 -139.5 56t-30.5 152l55 352h79l-55 -352q-11 -65 17 -101.5t86 -36.5q59 0 98.5 36.5t50.5 101.5l55 352h79l-55 -352q-10 -63 -43 -110t-83.5 -72.5t-113.5 -25.5z" />
    <glyph glyph-name="phi" unicode="&#x3c6;" 
d="M190 -180l29 180q-96 0 -141.5 54t-30.5 148l55 348h74l-55 -348q-11 -64 18.5 -101t93.5 -37l77 486h102q80 0 119 -43.5t28 -118.5l-30 -186q-15 -94 -77.5 -148t-158.5 -54l-29 -180h-74zM298 64q64 0 105.5 37t51.5 101l30 186q8 46 -14.5 72.5t-68.5 26.5h-36z" />
    <glyph glyph-name="chi" unicode="&#x3c7;" 
d="M-1 -180l271 374l-142 356h87l81 -218q6 -17 15 -38.5t14 -34.5q9 13 23 34.5t26 38.5l152 218h90l-255 -354l152 -376h-87l-91 237q-7 17 -15.5 38.5t-12.5 36.5q-9 -15 -23.5 -36t-25.5 -38l-167 -238h-92z" />
    <glyph glyph-name="psi" unicode="&#x3c8;" 
d="M190 -180l29 180q-97 0 -142 54.5t-30 147.5l55 348h74l-55 -348q-11 -65 19.5 -101t93.5 -36l76 485h66l-77 -485q63 0 104 36t52 101l55 348h74l-55 -348q-15 -93 -77 -147.5t-159 -54.5l-29 -180h-74z" />
    <glyph glyph-name="omega" unicode="&#x3c9;" 
d="M141 -10q-59 0 -86.5 42.5t-16.5 117.5l34 213q14 80 60.5 133t110.5 64l-13 -82q-31 -9 -54 -39.5t-30 -75.5l-34 -213q-6 -43 7.5 -66.5t45.5 -23.5t53.5 23.5t28.5 66.5l34 213h65l-34 -213q-7 -43 7 -66.5t46 -23.5t53.5 23.5t28.5 66.5l34 213q7 45 -8 74t-44 37
l13 82q62 -10 94 -61.5t18 -131.5l-34 -213q-11 -75 -52.5 -117.5t-100.5 -42.5q-53 0 -79 35t-16 95h6q-10 -60 -47 -95t-90 -35z" />
    <glyph glyph-name="iotadieresis" unicode="&#x3ca;" 
d="M372 0q-72 0 -107 40.5t-24 109.5l52 328h-202l11 72h281l-63 -400q-6 -37 11 -57.5t52 -20.5h132l-12 -72h-131zM469 651q-27 0 -41 16t-10 44q5 29 24 46t47 17q27 0 41 -17t9 -46q-4 -27 -23 -43.5t-47 -16.5zM249 651q-27 0 -41 16t-10 44q5 29 24 46t46 17
q28 0 42.5 -17t9.5 -46q-4 -27 -23.5 -43.5t-47.5 -16.5z" />
    <glyph glyph-name="upsilondieresis" unicode="&#x3cb;" 
d="M253 -10q-93 0 -139.5 56t-30.5 152l55 352h79l-55 -352q-11 -65 17 -101.5t86 -36.5q59 0 98.5 36.5t50.5 101.5l55 352h79l-55 -352q-10 -63 -43 -110t-83.5 -72.5t-113.5 -25.5zM469 651q-27 0 -41 16t-10 44q5 29 24 46t47 17q27 0 41 -17t9 -46q-4 -27 -23 -43.5
t-47 -16.5zM249 651q-27 0 -41 16t-10 44q5 29 24 46t46 17q28 0 42.5 -17t9.5 -46q-4 -27 -23.5 -43.5t-47.5 -16.5z" />
    <glyph glyph-name="omicrontonos" unicode="&#x3cc;" 
d="M254 -10q-63 0 -106 25t-60.5 71.5t-7.5 110.5l24 156q11 64 43.5 110.5t83.5 71.5t114 25q64 0 106.5 -25t60.5 -71.5t8 -110.5l-25 -156q-10 -64 -43 -110.5t-83.5 -71.5t-114.5 -25zM265 60q62 0 101 35.5t50 101.5l24 156q11 66 -17 101.5t-89 35.5t-100 -35.5
t-51 -101.5l-24 -156q-10 -66 17.5 -101.5t88.5 -35.5zM309 645l128 140h87l-134 -140h-81z" />
    <glyph glyph-name="upsilontonos" unicode="&#x3cd;" 
d="M253 -10q-93 0 -139.5 56t-30.5 152l55 352h79l-55 -352q-11 -65 17 -101.5t86 -36.5q59 0 98.5 36.5t50.5 101.5l55 352h79l-55 -352q-10 -63 -43 -110t-83.5 -72.5t-113.5 -25.5zM309 645l128 140h87l-134 -140h-81z" />
    <glyph glyph-name="omegatonos" unicode="&#x3ce;" 
d="M141 -10q-59 0 -86.5 42.5t-16.5 117.5l34 213q14 80 60.5 133t110.5 64l-13 -82q-31 -9 -54 -39.5t-30 -75.5l-34 -213q-6 -43 7.5 -66.5t45.5 -23.5t53.5 23.5t28.5 66.5l34 213h65l-34 -213q-7 -43 7 -66.5t46 -23.5t53.5 23.5t28.5 66.5l34 213q7 45 -8 74t-44 37
l13 82q62 -10 94 -61.5t18 -131.5l-34 -213q-11 -75 -52.5 -117.5t-100.5 -42.5q-53 0 -79 35t-16 95h6q-10 -60 -47 -95t-90 -35zM296 645l128 140h87l-134 -140h-81z" />
    <glyph glyph-name="uni03CF" unicode="&#x3cf;" 
d="M291 -180l12 70h33q46 0 78 27t39 74l11 75h77l-12 -75q-13 -84 -65.5 -127.5t-138.5 -43.5h-34zM53 0l116 730h79l-50 -317h118l212 317h89l-235 -354l129 -376h-89l-115 343h-120l-55 -343h-79z" />
    <glyph glyph-name="uni03D7" unicode="&#x3d7;" 
d="M259 -180l11 70h34q45 0 77 26.5t39 72.5l2 11h-41l50 313q5 29 11 60t12.5 59.5t12.5 47.5l-311 -480h-102l87 550h77l-49 -313q-5 -28 -11.5 -59.5t-13 -59.5t-11.5 -47l309 479h103l-77 -484h40l-12 -75q-13 -84 -65 -127.5t-139 -43.5h-33z" />
    <glyph glyph-name="uni0401" unicode="&#x401;" 
d="M61 0l116 730h412l-11 -72h-334l-38 -241h299l-12 -71h-298l-44 -274h334l-12 -72h-412zM517 819q-28 0 -42 16.5t-10 44.5q5 29 24.5 45.5t47.5 16.5q27 0 41 -16.5t9 -45.5q-4 -28 -23.5 -44.5t-46.5 -16.5zM297 819q-28 0 -42 16.5t-10 44.5q5 29 24.5 45.5t46.5 16.5
q28 0 42 -16.5t9 -45.5q-4 -28 -23.5 -44.5t-46.5 -16.5z" />
    <glyph glyph-name="uni0402" unicode="&#x402;" 
d="M189 -180l12 72h62q59 0 98 33t47 90l47 292q10 59 -8.5 90t-59.5 31q-29 0 -60.5 -15.5t-65.5 -47.5l-61 -55l-49 -310h-80l105 660h-116l12 70h316l-12 -70h-121l-43 -272l28 26q88 81 174 81q68 0 101.5 -46.5t21.5 -124.5l-49 -309q-9 -59 -41.5 -103t-82.5 -68
t-113 -24h-62z" />
    <glyph glyph-name="uni0403" unicode="&#x403;" 
d="M69 0l116 730h419l-11 -72h-341l-104 -658h-79zM334 810l128 140h92l-134 -140h-86z" />
    <glyph glyph-name="uni0404" unicode="&#x404;" 
d="M259 -10q-65 0 -108.5 25t-61 72t-8.5 110l54 336q10 64 42.5 110.5t84 71.5t116.5 25q64 0 107 -25.5t61 -72.5t8 -112h-79q11 66 -17.5 102.5t-90.5 36.5t-102.5 -35.5t-50.5 -100.5l-20 -129h227l-11 -72h-228l-21 -135q-10 -64 18.5 -100t90.5 -36q63 0 103 36.5
t50 102.5h79q-10 -64 -43 -111.5t-84.5 -73t-115.5 -25.5z" />
    <glyph glyph-name="uni0405" unicode="&#x405;" 
d="M258 -10q-105 0 -157.5 53.5t-39.5 145.5h80q-10 -59 24.5 -93.5t104.5 -34.5q66 0 108.5 33t52.5 91q7 51 -13 86.5t-65 49.5l-90 29q-70 23 -102.5 75.5t-22.5 123.5q10 59 42.5 101.5t83.5 66.5t115 24q95 0 143.5 -53t35.5 -142h-80q10 57 -19.5 90t-91.5 33
q-61 0 -100.5 -29.5t-47.5 -83.5q-7 -48 13 -84t63 -51l91 -30q70 -22 102.5 -76.5t21.5 -127.5q-9 -59 -43.5 -103.5t-88 -69t-120.5 -24.5z" />
    <glyph glyph-name="uni0406" unicode="&#x406;" 
d="M65 0l11 72h151l93 586h-151l12 72h382l-12 -72h-150l-93 -586h150l-11 -72h-382z" />
    <glyph glyph-name="uni0407" unicode="&#x407;" 
d="M65 0l11 72h151l93 586h-151l12 72h382l-12 -72h-150l-93 -586h150l-11 -72h-382zM496 819q-28 0 -42 16.5t-10 44.5q5 29 24.5 45.5t47.5 16.5q27 0 41 -16.5t9 -45.5q-4 -28 -23.5 -44.5t-46.5 -16.5zM276 819q-28 0 -42 16.5t-10 44.5q5 29 24.5 45.5t46.5 16.5
q28 0 42 -16.5t9 -45.5q-4 -28 -23.5 -44.5t-46.5 -16.5z" />
    <glyph glyph-name="uni0408" unicode="&#x408;" 
d="M225 -10q-102 0 -151.5 58t-33.5 159h80q-11 -69 20 -107.5t97 -38.5t109.5 38.5t53.5 107.5l72 450h-178l11 73h258l-83 -523q-10 -67 -45 -116t-88 -75t-122 -26z" />
    <glyph glyph-name="uni0409" unicode="&#x409;" 
d="M-50 -5l12 72h20q27 0 48 31.5t30 85.5l93 546h276l-49 -303h62q72 0 108.5 -42t25.5 -111l-19 -120q-11 -70 -61 -112t-121 -42h-134l105 663h-133l-81 -479q-10 -57 -33.5 -100t-57 -66t-73.5 -23h-18zM323 67h62q39 0 66 23.5t34 63.5l19 120q6 39 -14 62.5t-59 23.5
h-62z" />
    <glyph glyph-name="uni040A" unicode="&#x40a;" 
d="M11 0l116 730h72l-48 -303h157l49 303h72l-49 -303h61q73 0 109.5 -41.5t25.5 -111.5l-19 -120q-11 -71 -60.5 -112.5t-123.5 -41.5h-132l56 360h-157l-57 -360h-72zM323 67h61q41 0 67.5 23t33.5 64l19 120q6 41 -13.5 63.5t-60.5 22.5h-61z" />
    <glyph glyph-name="uni040B" unicode="&#x40b;" 
d="M71 0l105 660h-116l12 70h316l-12 -70h-121l-43 -272l28 26q89 81 175 81q67 0 100.5 -46.5t21.5 -124.5l-51 -324h-80l49 307q10 59 -8.5 90t-59.5 31q-29 0 -60.5 -15.5t-65.5 -47.5l-61 -55l-49 -310h-80z" />
    <glyph glyph-name="uni040C" unicode="&#x40c;" 
d="M329 810l128 140h92l-134 -140h-86zM53 0l116 730h79l-50 -317h118l212 317h89l-235 -354l129 -376h-89l-115 343h-120l-55 -343h-79z" />
    <glyph glyph-name="uni040E" unicode="&#x40e;" 
d="M151 0l104 190l-128 540h85l76 -357q8 -34 12.5 -66t5.5 -49q6 17 18.5 49t28.5 66l176 357h88l-380 -730h-86zM383 806q-70 0 -106.5 39.5t-26.5 104.5h63q-6 -41 15 -66t62 -25q43 0 72 25t35 66h65q-10 -65 -59 -104.5t-120 -39.5z" />
    <glyph glyph-name="uni040F" unicode="&#x40f;" 
d="M196 -125l20 125h-162l116 730h81l-104 -657h242l104 657h81l-116 -730h-162l-20 -125h-80z" />
    <glyph glyph-name="uni0410" unicode="&#x410;" 
d="M11 0l309 730h105l76 -730h-78l-18 198h-229l-82 -198h-83zM203 266h195l-24 244q-5 61 -7.5 102.5t-2.5 53.5q-4 -12 -19 -53.5t-41 -102.5z" />
    <glyph glyph-name="uni0411" unicode="&#x411;" 
d="M54 0l116 730h398l-11 -72h-319l-37 -236h127q69 0 114 -26t64.5 -73t9.5 -112q-10 -64 -44.5 -111.5t-88 -73.5t-122.5 -26h-207zM145 72h128q65 0 108 37.5t53 101.5q11 65 -20.5 102t-96.5 37h-128z" />
    <glyph glyph-name="uni0412" unicode="&#x412;" 
d="M54 0l116 730h201q98 0 146 -50.5t34 -138.5q-8 -50 -34.5 -87.5t-67.5 -58t-93 -19.5l1 14q57 0 95.5 -22.5t55 -65t6.5 -100.5q-10 -62 -43 -107.5t-85 -70t-119 -24.5h-213zM143 72h128q67 0 111 35.5t54 96.5q10 63 -22.5 101.5t-99.5 38.5h-128zM197 413h123
q61 0 101.5 33t50.5 90q8 57 -21.5 89.5t-90.5 32.5h-124z" />
    <glyph glyph-name="uni0413" unicode="&#x413;" 
d="M69 0l116 730h419l-11 -72h-341l-104 -658h-79z" />
    <glyph glyph-name="uni0414" unicode="&#x414;" 
d="M-35 -140l33 208h42q15 20 33.5 54t35 77.5t24.5 92.5l78 438h359l-106 -662h71l-33 -208h-70l22 140h-396l-22 -140h-71zM123 68h262l94 591h-203l-65 -367q-8 -52 -24 -96t-33 -77t-31 -51z" />
    <glyph glyph-name="uni0415" unicode="&#x415;" 
d="M61 0l116 730h412l-11 -72h-334l-38 -241h299l-12 -71h-298l-44 -274h334l-12 -72h-412z" />
    <glyph glyph-name="uni0416" unicode="&#x416;" 
d="M-27 0l192 380l-67 350h81l55 -327h52l52 327h67l-52 -327h49l159 327h84l-178 -357l72 -373h-80l-61 345h-54l-55 -345h-67l55 345h-51l-170 -345h-83z" />
    <glyph glyph-name="uni0417" unicode="&#x417;" 
d="M247 -10q-102 0 -156 53.5t-44 142.5h79q-4 -58 31.5 -91.5t100.5 -33.5q71 0 117.5 37.5t56.5 99.5q10 64 -25 101t-105 37h-89l11 72h88q43 0 77 17.5t56 48t28 70.5q10 60 -22.5 93t-96.5 33q-65 0 -110 -36.5t-54 -95.5h-79q10 61 44.5 106.5t88 70.5t121.5 25
q101 0 153.5 -49t38.5 -138q-8 -51 -35.5 -90.5t-69.5 -61.5t-94 -21l2 13q56 1 94 -22.5t54.5 -66t7.5 -100.5q-10 -63 -46.5 -111t-93.5 -75.5t-129 -27.5z" />
    <glyph glyph-name="uni0418" unicode="&#x418;" 
d="M51 0l116 730h77l-72 -450q-5 -33 -12 -69t-13.5 -67t-11.5 -52l335 638h107l-116 -730h-77l72 450q4 29 11 64t14 68t13 56l-337 -638h-106z" />
    <glyph glyph-name="uni0419" unicode="&#x419;" 
d="M51 0l116 730h77l-72 -450q-5 -33 -12 -69t-13.5 -67t-11.5 -52l335 638h107l-116 -730h-77l72 450q4 29 11 64t14 68t13 56l-337 -638h-106zM383 806q-70 0 -106.5 39.5t-26.5 104.5h63q-6 -41 15 -66t62 -25q43 0 72 25t35 66h65q-10 -65 -59 -104.5t-120 -39.5z" />
    <glyph glyph-name="uni041A" unicode="&#x41a;" 
d="M53 0l116 730h79l-50 -317h118l212 317h89l-235 -354l129 -376h-89l-115 343h-120l-55 -343h-79z" />
    <glyph glyph-name="uni041B" unicode="&#x41b;" 
d="M-24 -5l13 75h21q42 0 68.5 37.5t40.5 122.5l85 500h370l-116 -730h-80l105 658h-212l-73 -428q-13 -79 -39.5 -131t-65 -78t-92.5 -26h-25z" />
    <glyph glyph-name="uni041C" unicode="&#x41c;" 
d="M36 0l116 730h105l43 -248q5 -29 9.5 -59t6.5 -47q8 17 21 47t27 60l119 247h109l-116 -730h-78l50 312q7 44 17 95.5t22 103t23.5 98.5t20.5 81l-181 -369h-84l-66 369q-1 -34 -4.5 -79.5t-8 -97t-10.5 -103.5t-14 -98l-49 -312h-78z" />
    <glyph glyph-name="uni041D" unicode="&#x41d;" 
d="M54 0l116 730h79l-51 -316h247l50 316h79l-116 -730h-79l54 341h-246l-54 -341h-79z" />
    <glyph glyph-name="uni041E" unicode="&#x41e;" 
d="M254 -10q-63 0 -106 25t-60.5 71.5t-7.5 110.5l53 336q11 64 43.5 110.5t83 71.5t113.5 25q64 0 106.5 -25t61 -71.5t7.5 -110.5l-53 -336q-10 -64 -43 -110.5t-83.5 -71.5t-114.5 -25zM265 61q62 0 101 35.5t50 100.5l53 336q10 65 -18 100.5t-89 35.5t-100 -35.5
t-50 -100.5l-53 -336q-10 -65 17.5 -100.5t88.5 -35.5z" />
    <glyph glyph-name="uni041F" unicode="&#x41f;" 
d="M54 0l116 730h404l-116 -730h-80l105 658h-245l-104 -658h-80z" />
    <glyph glyph-name="uni0420" unicode="&#x420;" 
d="M53 0l116 730h229q67 0 112.5 -26t64.5 -73.5t9 -112.5q-9 -64 -44 -111.5t-88.5 -74t-120.5 -26.5h-150l-49 -306h-79zM192 378h150q63 0 106.5 38t54.5 102q10 65 -21.5 102.5t-94.5 37.5h-151z" />
    <glyph glyph-name="uni0421" unicode="&#x421;" 
d="M259 -10q-65 0 -108.5 25t-62 72t-8.5 110l53 336q11 64 44 110.5t84.5 71.5t116.5 25q64 0 107.5 -25.5t62 -72.5t8.5 -112h-79q10 66 -19.5 102.5t-91.5 36.5t-102.5 -35.5t-51.5 -100.5l-53 -336q-10 -64 19.5 -100t91.5 -36q63 0 103.5 36.5t51.5 102.5h79
q-10 -64 -44 -111.5t-85.5 -73t-115.5 -25.5z" />
    <glyph glyph-name="uni0422" unicode="&#x422;" 
d="M217 0l104 658h-204l11 73h488l-12 -73h-204l-104 -658h-79z" />
    <glyph glyph-name="uni0423" unicode="&#x423;" 
d="M151 0l104 190l-128 540h85l76 -357q8 -34 12.5 -66t5.5 -49q6 17 18.5 49t28.5 66l176 357h88l-380 -730h-86z" />
    <glyph glyph-name="uni0424" unicode="&#x424;" 
d="M215 -25l11 70q-62 0 -104.5 25.5t-60.5 72t-8 108.5l38 239q10 64 42.5 111t83 73t113.5 26l11 70h74l-11 -70q63 0 105 -26t60 -73t7 -111l-37 -239q-10 -62 -43 -108.5t-83 -72t-113 -25.5l-11 -70h-74zM236 113l83 519q-40 0 -72 -17.5t-53 -49t-28 -75.5l-38 -239
q-10 -62 19 -100t89 -38zM311 113q41 0 72.5 17t52.5 48t28 73l37 239q11 65 -18 103.5t-89 38.5z" />
    <glyph glyph-name="uni0425" unicode="&#x425;" 
d="M-1 0l271 374l-142 356h87l81 -218q6 -17 15 -38.5t14 -34.5q9 13 23 34.5t26 38.5l152 218h90l-255 -354l152 -376h-87l-91 237q-7 17 -15.5 38.5t-12.5 36.5q-9 -15 -23.5 -36t-25.5 -38l-167 -238h-92z" />
    <glyph glyph-name="uni0426" unicode="&#x426;" 
d="M423 -140l22 140h-391l116 730h80l-105 -659h229l104 659h79l-104 -659h75l-33 -211h-72z" />
    <glyph glyph-name="uni0427" unicode="&#x427;" 
d="M378 0l46 289q-15 -3 -52 -6.5t-87 -3.5q-96 0 -142 55.5t-31 149.5l39 246h79l-39 -246q-9 -61 22.5 -98t96.5 -37q47 0 80 3.5t44 6.5l60 371h79l-116 -730h-79z" />
    <glyph glyph-name="uni0428" unicode="&#x428;" 
d="M25 0l114 730h75l-106 -669h126l106 669h66l-107 -669h126l106 669h74l-116 -730h-464z" />
    <glyph glyph-name="uni0429" unicode="&#x429;" 
d="M434 -140l22 140h-433l116 730h72l-105 -663h125l105 663h64l-105 -663h125l105 663h72l-105 -663h47l-33 -207h-72z" />
    <glyph glyph-name="uni042A" unicode="&#x42a;" 
d="M92 0l105 657h-138l12 73h217l-49 -303h109q66 0 111 -26.5t64.5 -74.5t9.5 -112t-45 -112.5t-88 -75t-119 -26.5h-189zM183 72h105q64 0 108.5 39t54.5 103q11 64 -22 102.5t-96 38.5h-105z" />
    <glyph glyph-name="uni042B" unicode="&#x42b;" 
d="M25 0l116 730h75l-48 -303h44q91 0 135.5 -51t30.5 -139l-8 -48q-13 -87 -73.5 -138t-151.5 -51h-120zM111 70h45q57 0 93 32t45 88l7 47q9 57 -17 88.5t-83 31.5h-44zM412 0l116 730h75l-116 -730h-75z" />
    <glyph glyph-name="uni042C" unicode="&#x42c;" 
d="M54 0l116 730h80l-49 -303h147q66 0 111 -26.5t64.5 -74.5t9.5 -112t-45 -112.5t-88 -75t-119 -26.5h-227zM145 72h143q64 0 108.5 39t54.5 103q11 64 -22 102.5t-96 38.5h-143z" />
    <glyph glyph-name="uni042D" unicode="&#x42d;" 
d="M251 -10q-64 0 -107 25.5t-61 73t-8 111.5h79q-10 -66 18.5 -102.5t89.5 -36.5q63 0 103 36t50 100l22 135h-228l12 72h227l21 129q10 65 -19 100.5t-91 35.5q-61 0 -101.5 -36.5t-51.5 -102.5h-79q10 65 43 112t84.5 72.5t115.5 25.5q65 0 108.5 -25t62 -71.5
t7.5 -110.5l-53 -336q-10 -63 -43 -110t-84.5 -72t-116.5 -25z" />
    <glyph glyph-name="uni042E" unicode="&#x42e;" 
d="M342 -10q-75 0 -111 49.5t-22 135.5l26 166h-87l-54 -341h-74l116 730h74l-51 -320h87l23 145q14 87 65 136t127 49q78 0 114.5 -49.5t22.5 -135.5l-60 -380q-14 -86 -66 -135.5t-130 -49.5zM354 59q44 0 72.5 30.5t37.5 85.5l60 380q9 55 -10 85.5t-63 30.5
q-45 0 -73.5 -30.5t-37.5 -85.5l-60 -380q-9 -55 10.5 -85.5t63.5 -30.5z" />
    <glyph glyph-name="uni042F" unicode="&#x42f;" 
d="M16 0l228 353l4 -35q-52 7 -87 34.5t-49.5 71t-6.5 98.5q10 63 44.5 109.5t87 72.5t117.5 26h219l-116 -730h-79l49 315h-123l-198 -315h-90zM299 386h140l43 273h-140q-59 0 -102 -37t-53 -99t21 -99.5t91 -37.5z" />
    <glyph glyph-name="uni0430" unicode="&#x430;" 
d="M228 -10q-82 0 -122.5 55t-25.5 148l26 163q10 63 39.5 108.5t74 70.5t99.5 25q69 0 105 -38t26 -102l-16 33h19l15 97h79l-87 -550h-79l15 97h-20l28 33q-10 -65 -58.5 -102.5t-117.5 -37.5zM264 59q59 0 98.5 36.5t49.5 101.5l24 156q11 65 -17 101.5t-87 36.5
q-60 0 -98.5 -36t-49.5 -102l-24 -156q-10 -66 17 -102t87 -36z" />
    <glyph glyph-name="uni0431" unicode="&#x431;" 
d="M254 -10q-96 0 -142 57t-30 157l41 256q21 130 97 200t197 70h136l-13 -79h-136q-84 0 -135.5 -49.5t-66.5 -141.5l-11 -69h14l-17 -24q10 60 54.5 94t113.5 34q88 0 127.5 -55.5t23.5 -154.5l-13 -81q-10 -67 -42.5 -115t-82.5 -73.5t-115 -25.5zM266 61q61 0 99.5 37
t49.5 106l13 81q11 68 -16 106t-87 38q-62 0 -100.5 -38t-50.5 -106l-13 -81q-10 -69 17 -106t88 -37z" />
    <glyph glyph-name="uni0432" unicode="&#x432;" 
d="M54 0l87 550h236q82 0 123 -38.5t30 -106.5q-9 -57 -53 -91.5t-108 -34.5l1 7q69 0 105.5 -35.5t27.5 -94.5q-12 -73 -68 -114.5t-143 -41.5h-238zM144 70h159q50 0 82.5 23.5t38.5 63.5q6 42 -19 65.5t-74 23.5h-160zM182 315h157q44 0 74.5 22t36.5 60t-16.5 60.5
t-67.5 22.5h-158z" />
    <glyph glyph-name="uni0433" unicode="&#x433;" 
d="M279 -10h-49q-91 0 -132.5 44t-30.5 119q11 69 57.5 107.5t130.5 50.5l83 13q46 7 71 26t31 55q6 40 -16.5 62t-75.5 22h-39q-43 0 -72.5 -18.5t-40.5 -48.5h-80q13 42 41.5 73t70.5 48t93 17h39q90 0 130.5 -41t29.5 -114q-11 -67 -56.5 -104t-125.5 -49l-84 -13
q-46 -6 -74 -30t-34 -61q-6 -39 17.5 -63t76.5 -24h49q46 0 78.5 20.5t44.5 53.5h79q-12 -43 -41.5 -76t-72.5 -51t-98 -18z" />
    <glyph glyph-name="uni0434" unicode="&#x434;" 
d="M254 -10q-64 0 -106 25.5t-59 73.5t-7 115l12 81q17 99 74 154.5t144 55.5q70 0 103.5 -34t24.5 -94l-10 24h14l11 69q14 92 -21.5 141.5t-119.5 49.5h-136l11 79h136q121 0 175.5 -70t33.5 -200l-40 -256q-16 -100 -79.5 -157t-160.5 -57zM264 61q61 0 100.5 37
t50.5 106l12 81q11 68 -15.5 106t-89.5 38q-60 0 -98.5 -38t-49.5 -106l-13 -81q-10 -69 16.5 -106t86.5 -37z" />
    <glyph glyph-name="uni0435" unicode="&#x435;" 
d="M254 -10q-64 0 -106 25.5t-60 72.5t-8 109l24 156q11 63 43.5 109.5t83 72t114.5 25.5t106.5 -25.5t60.5 -72t7 -109.5l-15 -97h-337l-9 -59q-10 -67 17 -103.5t90 -36.5q53 0 88.5 21t50.5 61h79q-14 -46 -46.5 -79.5t-79 -51.5t-103.5 -18zM435 309l6 44
q11 67 -16 103.5t-90 36.5q-64 0 -103 -36.5t-50 -103.5l-5 -35h267z" />
    <glyph glyph-name="uni0436" unicode="&#x436;" 
d="M-21 0l165 285l-70 265h75l60 -243h62l38 243h68l-39 -243h57l139 243h78l-154 -268l75 -282h-77l-64 253h-62l-40 -253h-68l41 253h-59l-144 -253h-81z" />
    <glyph glyph-name="uni0437" unicode="&#x437;" 
d="M229 -8q-86 0 -133.5 37t-48.5 100h83q3 -29 32 -47.5t78 -18.5h50q34 0 60 11.5t42.5 32.5t20.5 46q7 42 -17.5 68t-75.5 26h-123l11 69h121q47 0 76.5 24t34.5 62q4 26 -5 45t-29.5 29.5t-51.5 10.5h-51q-45 0 -77.5 -19.5t-44.5 -49.5h-83q13 42 43.5 73.5t74.5 49
t97 17.5h52q56 0 94 -19t55.5 -53t9.5 -80q-7 -50 -43 -82.5t-92 -36.5l-1 -4q65 -4 91 -38.5t17 -94.5q-7 -48 -37 -83.5t-76 -55t-105 -19.5h-49z" />
    <glyph glyph-name="uni0438" unicode="&#x438;" 
d="M230 -10q-81 0 -122 51.5t-28 139.5l59 369h79l-57 -360q-10 -62 17.5 -97.5t84.5 -35.5q58 0 98.5 37t50.5 103l56 353h79l-87 -550h-79l16 102h-20l27 29q-11 -66 -57 -103.5t-117 -37.5z" />
    <glyph glyph-name="uni0439" unicode="&#x439;" 
d="M230 -10q-81 0 -122 51.5t-28 139.5l59 369h79l-57 -360q-10 -62 17.5 -97.5t84.5 -35.5q58 0 98.5 37t50.5 103l56 353h79l-87 -550h-79l16 102h-20l27 29q-11 -66 -57 -103.5t-117 -37.5zM361 641q-70 0 -106.5 39.5t-26.5 104.5h63q-6 -41 15 -66t62 -25q43 0 72 25
t35 66h65q-10 -65 -59 -104.5t-120 -39.5z" />
    <glyph glyph-name="uni043A" unicode="&#x43a;" 
d="M57 0l87 550h80l-37 -231h102l200 231h93l-226 -265l143 -285h-91l-125 250h-107l-39 -250h-80z" />
    <glyph glyph-name="uni043B" unicode="&#x43b;" 
d="M-17 -5l12 75h20q44 0 69.5 35.5t39.5 118.5l58 326h363l-87 -550h-80l76 478h-205l-47 -257q-14 -78 -39.5 -128t-63.5 -74t-93 -24h-23z" />
    <glyph glyph-name="uni043C" unicode="&#x43c;" 
d="M36 0l87 550h108l45 -224q5 -29 9.5 -59t5.5 -47q8 17 20.5 47t28.5 60l112 223h111l-87 -550h-77l20 132q7 43 15.5 92t18 98t18 92.5t14.5 76.5l-160 -326h-84l-58 324q-4 -40 -12.5 -100.5t-18 -127.5t-18.5 -129l-21 -132h-77z" />
    <glyph glyph-name="uni043D" unicode="&#x43d;" 
d="M54 0l87 550h80l-37 -234h244l37 234h80l-87 -550h-80l39 244h-245l-38 -244h-80z" />
    <glyph glyph-name="uni043E" unicode="&#x43e;" 
d="M254 -10q-63 0 -106 25t-60.5 71.5t-7.5 110.5l24 156q11 64 43.5 110.5t83.5 71.5t114 25q64 0 106.5 -25t60.5 -71.5t8 -110.5l-25 -156q-10 -64 -43 -110.5t-83.5 -71.5t-114.5 -25zM265 60q62 0 101 35.5t50 101.5l24 156q11 66 -17 101.5t-89 35.5t-100 -35.5
t-51 -101.5l-24 -156q-10 -66 17.5 -101.5t88.5 -35.5z" />
    <glyph glyph-name="uni043F" unicode="&#x43f;" 
d="M54 0l87 550h404l-87 -550h-80l76 478h-245l-75 -478h-80z" />
    <glyph glyph-name="uni0440" unicode="&#x440;" 
d="M24 -180l116 730h79l-16 -97h21l-28 -33q10 65 58.5 102.5t118.5 37.5q83 0 122 -54.5t25 -148.5l-26 -163q-10 -63 -39 -108.5t-73.5 -70.5t-99.5 -25q-69 0 -105.5 38t-26.5 102l16 -33h-20l-16 -112l-27 -165h-79zM268 59q60 0 98.5 36t49.5 102l24 156
q11 67 -16.5 102.5t-86.5 35.5t-98.5 -36.5t-50.5 -101.5l-24 -156q-11 -65 17.5 -101.5t86.5 -36.5z" />
    <glyph glyph-name="uni0441" unicode="&#x441;" 
d="M255 -10q-64 0 -107.5 25t-61.5 71.5t-8 110.5l24 156q11 64 43.5 110.5t84.5 71.5t116 25q94 0 143 -51t37 -139h-79q6 57 -23.5 88t-88.5 31q-62 0 -102.5 -35.5t-50.5 -100.5l-25 -156q-10 -64 19.5 -100t90.5 -36q60 0 99 31.5t51 87.5h79q-16 -88 -81.5 -139
t-159.5 -51z" />
    <glyph glyph-name="uni0442" unicode="&#x442;" 
d="M216 0l76 479h-200l11 71h480l-11 -71h-200l-76 -479h-80z" />
    <glyph glyph-name="uni0443" unicode="&#x443;" 
d="M91 -180l12 72h167q46 0 72.5 22t33.5 67l11 73l17 98h-20l26 29q-10 -66 -56.5 -103.5t-116.5 -37.5q-82 0 -123 51.5t-27 139.5l50 319h80l-49 -310q-11 -62 17 -97.5t84 -35.5q59 0 99.5 37t50.5 103l47 303h80l-91 -569q-11 -76 -63.5 -118.5t-134.5 -42.5h-166z" />
    <glyph glyph-name="uni0444" unicode="&#x444;" 
d="M232 64l67 422q-63 0 -104.5 -36t-51.5 -100l-23 -148q-10 -65 19.5 -101.5t92.5 -36.5zM300 64q63 0 104 36.5t52 101.5l23 148q10 64 -19 100t-93 36zM216 -29l4 29q-96 0 -142.5 54t-31.5 148l23 148q14 93 78.5 146.5t159.5 53.5l5 29q10 70 56 110.5t121 40.5h115
l-12 -70h-115q-39 0 -63.5 -20t-30.5 -61l-4 -29q96 0 142.5 -53.5t31.5 -146.5l-23 -148q-14 -94 -78 -148t-160 -54l-5 -29q-7 -70 -54.5 -110.5t-122.5 -40.5h-114l11 70h115q40 0 64.5 20.5t29.5 60.5z" />
    <glyph glyph-name="uni0445" unicode="&#x445;" 
d="M16 0l237 285l-138 265h92l84 -178q5 -10 10 -22.5t8 -19.5q5 7 13 19.5t15 22.5l140 178h95l-222 -270l146 -280h-91l-92 188q-4 10 -10 24t-9 22q-6 -8 -15 -22t-18 -24l-150 -188h-95z" />
    <glyph glyph-name="uni0446" unicode="&#x446;" 
d="M423 -140l22 140h-391l87 550h80l-76 -479h229l75 479h79l-75 -479h75l-33 -211h-72z" />
    <glyph glyph-name="uni0447" unicode="&#x447;" 
d="M373 0l32 203q-16 -4 -51 -7.5t-76 -3.5q-100 -1 -146.5 49t-32.5 141l27 168h79l-27 -168q-8 -56 21.5 -87t93.5 -31q46 0 78.5 3.5t44.5 6.5l44 276h79l-87 -550h-79z" />
    <glyph glyph-name="uni0448" unicode="&#x448;" 
d="M25 0l85 550h75l-77 -489h126l77 489h66l-78 -489h126l77 489h74l-87 -550h-464z" />
    <glyph glyph-name="uni0449" unicode="&#x449;" 
d="M434 -140l22 140h-433l87 550h72l-76 -483h125l76 483h64l-76 -483h125l76 483h72l-76 -483h47l-33 -207h-72z" />
    <glyph glyph-name="uni044A" unicode="&#x44a;" 
d="M95 0l75 478h-136l12 72h216l-32 -202h128q93 0 139 -46.5t33 -127.5q-13 -80 -74 -127t-153 -47h-208zM187 73h128q55 0 90 26.5t42 74.5q8 48 -18.5 74.5t-81.5 26.5h-128z" />
    <glyph glyph-name="uni044B" unicode="&#x44b;" 
d="M25 0l87 550h75l-32 -204h49q88 0 132.5 -46.5t31.5 -126.5q-9 -54 -38.5 -92.5t-75 -59.5t-105.5 -21h-124zM110 65h49q56 0 92.5 28.5t44.5 79.5t-19 79.5t-83 28.5h-49zM412 0l87 550h75l-87 -550h-75z" />
    <glyph glyph-name="uni044C" unicode="&#x44c;" 
d="M59 0l87 550h79l-32 -202h165q92 0 138.5 -46.5t33.5 -127.5q-13 -80 -74 -127t-153 -47h-244zM149 72h166q56 0 91 26.5t42 75.5q8 49 -18.5 75.5t-82.5 26.5h-166z" />
    <glyph glyph-name="uni044D" unicode="&#x44d;" 
d="M251 -10q-94 0 -142 51t-36 139h80q-8 -56 21 -88t88 -32q61 0 101.5 36.5t50.5 100.5l7 46h-199l12 72h199l6 38q10 65 -18.5 101t-90.5 36q-59 0 -97.5 -31.5t-49.5 -88.5h-80q16 88 80.5 139t158.5 51q65 0 107.5 -25t60.5 -71.5t8 -110.5l-25 -156q-9 -64 -42 -110.5
t-84 -71.5t-116 -25z" />
    <glyph glyph-name="uni044E" unicode="&#x44e;" 
d="M340 -10q-69 0 -103.5 46.5t-21.5 123.5l13 87h-94l-39 -247h-73l87 550h73l-37 -239h94l13 79q12 78 60.5 124t118.5 46q73 0 109.5 -46t24.5 -124l-37 -230q-8 -52 -34 -90t-65.5 -59t-88.5 -21zM351 53q41 0 68.5 28.5t34.5 78.5l37 230q8 50 -10.5 78.5t-59.5 28.5
q-40 0 -67 -28.5t-36 -78.5l-37 -230q-7 -50 11.5 -78.5t58.5 -28.5z" />
    <glyph glyph-name="uni044F" unicode="&#x44f;" 
d="M23 0l199 240l3 -33q-76 9 -111.5 53.5t-24.5 117.5q13 80 73.5 126t152.5 46h230l-87 -550h-80l33 206h-133l-165 -206h-90zM272 277h150l32 202h-150q-54 0 -90 -27t-44 -74q-7 -47 20 -74t82 -27z" />
    <glyph glyph-name="uni0451" unicode="&#x451;" 
d="M469 651q-27 0 -41 16t-10 44q5 29 24 46t47 17q27 0 41 -17t9 -46q-4 -27 -23 -43.5t-47 -16.5zM249 651q-27 0 -41 16t-10 44q5 29 24 46t46 17q28 0 42.5 -17t9.5 -46q-4 -27 -23.5 -43.5t-47.5 -16.5zM254 -10q-64 0 -106 25.5t-60 72.5t-8 109l24 156
q11 63 43.5 109.5t83 72t114.5 25.5t106.5 -25.5t60.5 -72t7 -109.5l-15 -97h-337l-9 -59q-10 -67 17 -103.5t90 -36.5q53 0 88.5 21t50.5 61h79q-14 -46 -46.5 -79.5t-79 -51.5t-103.5 -18zM435 309l6 44q11 67 -16 103.5t-90 36.5q-64 0 -103 -36.5t-50 -103.5l-5 -35h267
z" />
    <glyph glyph-name="uni0452" unicode="&#x452;" 
d="M172 -180l12 73h45q65 0 105 34.5t51 97.5l43 275q10 63 -17 98t-84 35q-58 0 -97.5 -37t-49.5 -103l-46 -293h-80l91 574h-96l11 67h96l14 89h80l-15 -89h170l-11 -67h-170l-11 -76l-17 -106h20l-27 -32q10 66 55.5 103t115.5 37q82 0 122.5 -51.5t26.5 -139.5l-45 -284
q-10 -63 -43.5 -109t-85.5 -71t-118 -25h-45z" />
    <glyph glyph-name="uni0453" unicode="&#x453;" 
d="M279 -10h-49q-91 0 -132.5 44t-30.5 119q11 69 57.5 107.5t130.5 50.5l83 13q46 7 71 26t31 55q6 40 -16.5 62t-75.5 22h-39q-43 0 -72.5 -18.5t-40.5 -48.5h-80q13 42 41.5 73t70.5 48t93 17h39q90 0 130.5 -41t29.5 -114q-11 -67 -56.5 -104t-125.5 -49l-84 -13
q-46 -6 -74 -30t-34 -61q-6 -39 17.5 -63t76.5 -24h49q46 0 78.5 20.5t44.5 53.5h79q-12 -43 -41.5 -76t-72.5 -51t-98 -18zM336 645l128 140h92l-134 -140h-86z" />
    <glyph glyph-name="uni0454" unicode="&#x454;" 
d="M257 -10q-64 0 -107 25t-60.5 71.5t-8.5 110.5l25 156q10 64 42.5 110.5t84 71.5t115.5 25q94 0 142.5 -51t36.5 -139h-80q7 57 -21.5 88.5t-88.5 31.5q-61 0 -101 -36t-50 -101l-6 -38h199l-12 -72h-199l-7 -46q-10 -64 18 -100.5t90 -36.5q59 0 98 32t50 88h80
q-16 -88 -81 -139t-159 -51z" />
    <glyph glyph-name="uni0455" unicode="&#x455;" 
d="M230 -10q-82 0 -125.5 40t-40.5 105h79q2 -33 27.5 -53.5t71.5 -20.5h49q53 0 84.5 24t37.5 63q6 37 -14.5 61t-63.5 31l-81 13q-76 12 -110 48.5t-23 103.5q11 73 65 114t144 41h39q78 0 119.5 -37.5t41.5 -100.5h-79q-2 30 -25.5 48.5t-67.5 18.5h-39q-53 0 -82.5 -22
t-35.5 -62q-6 -37 12 -56t63 -26l80 -13q80 -12 114 -50.5t24 -108.5q-13 -74 -67.5 -117.5t-147.5 -43.5h-49z" />
    <glyph glyph-name="uni0456" unicode="&#x456;" 
d="M40 0l11 72h197l64 406h-171l11 72h251l-76 -478h186l-11 -72h-462zM376 651q-31 0 -47 16.5t-13 43.5q4 29 24 46t51 17t47.5 -17t12.5 -46q-3 -27 -23 -43.5t-52 -16.5z" />
    <glyph glyph-name="uni0457" unicode="&#x457;" 
d="M40 0l11 72h197l64 406h-171l11 72h251l-76 -478h186l-11 -72h-462zM484 651q-27 0 -41 16t-10 44q5 29 24 46t47 17q27 0 41 -17t9 -46q-4 -27 -23 -43.5t-47 -16.5zM264 651q-27 0 -41 16t-10 44q5 29 24 46t46 17q28 0 42.5 -17t9.5 -46q-4 -27 -23.5 -43.5
t-47.5 -16.5z" />
    <glyph glyph-name="uni0458" unicode="&#x458;" 
d="M15 -180l12 73h131q64 0 104.5 34.5t50.5 97.5l71 453h-235l11 72h315l-83 -525q-9 -63 -43 -109t-86 -71t-118 -25h-130zM448 651q-31 0 -47 16.5t-13 43.5q4 29 24 46t51 17t47.5 -17t12.5 -46q-3 -27 -23 -43.5t-52 -16.5z" />
    <glyph glyph-name="uni0459" unicode="&#x459;" 
d="M-40 -5l12 76h19q27 0 48 31t31 85l61 363h273l-32 -203h60q72 0 108.5 -41.5t25.5 -111.5l-6 -41q-11 -69 -61 -111t-122 -42h-131l76 482h-131l-50 -295q-15 -88 -58.5 -140t-106.5 -52h-16zM328 66h60q39 0 66.5 23.5t33.5 63.5l7 41q6 40 -13.5 63.5t-59.5 23.5h-60z
" />
    <glyph glyph-name="uni045A" unicode="&#x45a;" 
d="M23 0l87 550h74l-33 -203h149l32 203h66l-32 -203h61q71 0 108 -41.5t26 -111.5l-6 -40q-7 -46 -32.5 -81t-64 -54t-86.5 -19h-127l45 281h-149l-44 -281h-74zM322 67h61q39 0 65.5 23.5t33.5 63.5l6 40q5 39 -13.5 63t-57.5 24h-61z" />
    <glyph glyph-name="uni045B" unicode="&#x45b;" 
d="M49 574l11 67h94l15 89h79l-14 -89h171l-11 -67h-171l-13 -84l-16 -98h2q18 51 60.5 79.5t103.5 28.5q82 0 123 -51.5t27 -139.5l-49 -309h-79l48 300q9 63 -18.5 98t-84.5 35q-58 0 -98 -37t-50 -103l-47 -293h-79l91 574h-95z" />
    <glyph glyph-name="uni045C" unicode="&#x45c;" 
d="M57 0l87 550h80l-37 -231h102l200 231h93l-226 -265l143 -285h-91l-125 250h-107l-39 -250h-80zM306 645l128 140h92l-134 -140h-86z" />
    <glyph glyph-name="uni045E" unicode="&#x45e;" 
d="M361 641q-70 0 -106.5 39.5t-26.5 104.5h63q-6 -41 15 -66t62 -25q43 0 72 25t35 66h65q-10 -65 -59 -104.5t-120 -39.5zM91 -180l12 72h167q46 0 72.5 22t33.5 67l11 73l17 98h-20l26 29q-10 -66 -56.5 -103.5t-116.5 -37.5q-82 0 -123 51.5t-27 139.5l50 319h80
l-49 -310q-11 -62 17 -97.5t84 -35.5q59 0 99.5 37t50.5 103l47 303h80l-91 -569q-11 -76 -63.5 -118.5t-134.5 -42.5h-166z" />
    <glyph glyph-name="uni045F" unicode="&#x45f;" 
d="M196 -125l20 125h-162l87 550h81l-75 -477h242l75 477h81l-87 -550h-162l-20 -125h-80z" />
    <glyph glyph-name="uni0490" unicode="&#x490;" 
d="M69 0l116 730h344l15 95h75l-26 -167h-341l-104 -658h-79z" />
    <glyph glyph-name="uni0491" unicode="&#x491;" 
d="M90 0l87 550h314l17 105h76l-29 -177h-310l-76 -478h-79z" />
    <glyph glyph-name="uni04AE" unicode="&#x4ae;" 
d="M216 0l44 275l-149 455h80l101 -308q8 -24 13 -42t6 -27l15 27t26 42l197 308h84l-294 -455l-43 -275h-80z" />
    <glyph glyph-name="uni04AF" unicode="&#x4af;" 
d="M187 -180l29 180l-109 550h80l66 -374q3 -20 6 -39.5t5 -36t3 -26l1 -9.5l3.5 9.5t10 26t15 36t17.5 39.5l182 374h83l-283 -550l-29 -180h-80z" />
    <glyph glyph-name="uni04E8" unicode="&#x4e8;" 
d="M254 -10q-95 0 -141.5 56t-31.5 152l54 335q10 64 42 110.5t82.5 71.5t113.5 25q96 0 142.5 -55.5t31.5 -151.5l-54 -335q-9 -64 -42 -111t-83 -72t-114 -25zM265 60q62 0 100.5 35.5t49.5 102.5l22 140h-255l-22 -140q-10 -67 17 -102.5t88 -35.5zM194 409h255l19 124
q10 66 -17 101.5t-89 35.5q-61 0 -100 -35.5t-49 -101.5z" />
    <glyph glyph-name="uni04E9" unicode="&#x4e9;" 
d="M254 -10q-63 0 -105.5 25t-59.5 72t-8 111l25 155q10 64 42.5 110t83 71.5t113.5 25.5t105 -25.5t60 -71.5t8 -110l-25 -155q-9 -63 -42 -110t-83.5 -72.5t-113.5 -25.5zM265 60q62 0 101 35.5t50 102.5l7 47h-256l-8 -47q-10 -67 17.5 -102.5t88.5 -35.5zM177 312h257
l6 41q11 66 -17 101.5t-89 35.5t-100 -35.5t-51 -101.5z" />
    <glyph glyph-name="Wgrave" unicode="&#x1e80;" 
d="M71 0l30 730h73l-27 -540q-1 -21 -3 -45.5t-3.5 -48t-3.5 -39.5q5 16 11 39.5t13 48l13 45.5l156 540h87l-21 -540q-1 -21 -2 -45.5t-1.5 -48t-1.5 -39.5q5 16 10.5 39.5t12 48t11.5 45.5l145 540h73l-203 -730h-102l21 545q1 23 2 47t2 45.5t2 35.5q-4 -14 -9.5 -35
t-12.5 -45.5t-14 -47.5l-157 -545h-101zM358 810l-92 140h84l87 -140h-79z" />
    <glyph glyph-name="wgrave" unicode="&#x1e81;" 
d="M84 0l-2 550h69l-5 -395q0 -22 -0.5 -49t-1.5 -45q5 18 13.5 45t15.5 49l130 395h78l3 -395q1 -22 1 -49t-1 -45q5 18 13.5 45t15.5 49l122 395h69l-180 -550h-90l-1 383v57.5v46.5q-5 -17 -14.5 -46.5t-18.5 -57.5l-125 -383h-91zM332 645l-92 140h84l87 -140h-79z" />
    <glyph glyph-name="Wacute" unicode="&#x1e82;" 
d="M71 0l30 730h73l-27 -540q-1 -21 -3 -45.5t-3.5 -48t-3.5 -39.5q5 16 11 39.5t13 48l13 45.5l156 540h87l-21 -540q-1 -21 -2 -45.5t-1.5 -48t-1.5 -39.5q5 16 10.5 39.5t12 48t11.5 45.5l145 540h73l-203 -730h-102l21 545q1 23 2 47t2 45.5t2 35.5q-4 -14 -9.5 -35
t-12.5 -45.5t-14 -47.5l-157 -545h-101zM329 810l128 140h92l-134 -140h-86z" />
    <glyph glyph-name="wacute" unicode="&#x1e83;" 
d="M84 0l-2 550h69l-5 -395q0 -22 -0.5 -49t-1.5 -45q5 18 13.5 45t15.5 49l130 395h78l3 -395q1 -22 1 -49t-1 -45q5 18 13.5 45t15.5 49l122 395h69l-180 -550h-90l-1 383v57.5v46.5q-5 -17 -14.5 -46.5t-18.5 -57.5l-125 -383h-91zM306 645l128 140h92l-134 -140h-86z
" />
    <glyph glyph-name="Wdieresis" unicode="&#x1e84;" 
d="M71 0l30 730h73l-27 -540q-1 -21 -3 -45.5t-3.5 -48t-3.5 -39.5q5 16 11 39.5t13 48l13 45.5l156 540h87l-21 -540q-1 -21 -2 -45.5t-1.5 -48t-1.5 -39.5q5 16 10.5 39.5t12 48t11.5 45.5l145 540h73l-203 -730h-102l21 545q1 23 2 47t2 45.5t2 35.5q-4 -14 -9.5 -35
t-12.5 -45.5t-14 -47.5l-157 -545h-101zM497 819q-28 0 -42 16.5t-10 44.5q5 29 24.5 45.5t47.5 16.5q27 0 41 -16.5t9 -45.5q-4 -28 -23.5 -44.5t-46.5 -16.5zM277 819q-28 0 -42 16.5t-10 44.5q5 29 24.5 45.5t46.5 16.5q28 0 42 -16.5t9 -45.5q-4 -28 -23.5 -44.5
t-46.5 -16.5z" />
    <glyph glyph-name="wdieresis" unicode="&#x1e85;" 
d="M84 0l-2 550h69l-5 -395q0 -22 -0.5 -49t-1.5 -45q5 18 13.5 45t15.5 49l130 395h78l3 -395q1 -22 1 -49t-1 -45q5 18 13.5 45t15.5 49l122 395h69l-180 -550h-90l-1 383v57.5v46.5q-5 -17 -14.5 -46.5t-18.5 -57.5l-125 -383h-91zM469 651q-27 0 -41 16t-10 44
q5 29 24 46t47 17q27 0 41 -17t9 -46q-4 -27 -23 -43.5t-47 -16.5zM249 651q-27 0 -41 16t-10 44q5 29 24 46t46 17q28 0 42.5 -17t9.5 -46q-4 -27 -23.5 -43.5t-47.5 -16.5z" />
    <glyph glyph-name="uni1E9E" unicode="&#x1e9e;" 
d="M53 0l84 529q9 61 42 106t83.5 70t112.5 25h223l-13 -77l-226 -257l3 23q88 1 132.5 -55.5t29.5 -149.5q-10 -64 -44 -112.5t-86 -75t-117 -26.5h-66l12 72h58q64 0 107 38.5t53 102.5q11 64 -20.5 101t-95.5 37h-43l10 69l207 238h-136q-58 0 -98 -34.5t-49 -94.5
l-84 -529h-79z" />
    <glyph glyph-name="uni1EA0" unicode="&#x1ea0;" 
d="M11 0l309 730h105l76 -730h-78l-18 198h-229l-82 -198h-83zM203 266h195l-24 244q-5 61 -7.5 102.5t-2.5 53.5q-4 -12 -19 -53.5t-41 -102.5zM233 -211q-32 0 -47.5 16.5t-11.5 44.5q5 29 26 45.5t52 16.5q32 0 47 -16.5t11 -45.5q-4 -28 -25 -44.5t-52 -16.5z" />
    <glyph glyph-name="uni1EA1" unicode="&#x1ea1;" 
d="M228 -10q-82 0 -122.5 55t-25.5 148l26 163q10 63 39.5 108.5t74 70.5t99.5 25q69 0 105 -38t26 -102l-16 33h19l15 97h79l-87 -550h-79l15 97h-20l28 33q-10 -65 -58.5 -102.5t-117.5 -37.5zM264 59q59 0 98.5 36.5t49.5 101.5l24 156q11 65 -17 101.5t-87 36.5
q-60 0 -98.5 -36t-49.5 -102l-24 -156q-10 -66 17 -102t87 -36zM228 -211q-32 0 -47.5 16.5t-11.5 44.5q5 29 26 45.5t52 16.5q32 0 47 -16.5t11 -45.5q-4 -28 -25 -44.5t-52 -16.5z" />
    <glyph glyph-name="uni1EA2" unicode="&#x1ea2;" 
d="M11 0l309 730h105l76 -730h-78l-18 198h-229l-82 -198h-83zM203 266h195l-24 244q-5 61 -7.5 102.5t-2.5 53.5q-4 -12 -19 -53.5t-41 -102.5zM333 815l62 66q9 10 14.5 19t6.5 15q3 22 -27 22h-81l10 57h100q38 0 57.5 -18.5t14.5 -51.5q-2 -15 -9 -29t-17 -25l-50 -55
h-81z" />
    <glyph glyph-name="uni1EA3" unicode="&#x1ea3;" 
d="M228 -10q-82 0 -122.5 55t-25.5 148l26 163q10 63 39.5 108.5t74 70.5t99.5 25q69 0 105 -38t26 -102l-16 33h19l15 97h79l-87 -550h-79l15 97h-20l28 33q-10 -65 -58.5 -102.5t-117.5 -37.5zM264 59q59 0 98.5 36.5t49.5 101.5l24 156q11 65 -17 101.5t-87 36.5
q-60 0 -98.5 -36t-49.5 -102l-24 -156q-10 -66 17 -102t87 -36zM323 645l62 66q9 10 14.5 19t6.5 15q3 22 -27 22h-81l10 57h100q38 0 57.5 -18.5t14.5 -51.5q-2 -15 -9 -29t-17 -25l-50 -55h-81z" />
    <glyph glyph-name="uni1EA4" unicode="&#x1ea4;" 
d="M504 899l124 121h95l-131 -121h-88zM208 780l155 140h78l112 -140h-85l-72 86l-99 -86h-89zM11 0l309 730h105l76 -730h-78l-18 198h-229l-82 -198h-83zM203 266h195l-24 244q-5 61 -7.5 102.5t-2.5 53.5q-4 -12 -19 -53.5t-41 -102.5z" />
    <glyph glyph-name="uni1EA5" unicode="&#x1ea5;" 
d="M228 -10q-82 0 -122.5 55t-25.5 148l26 163q10 63 39.5 108.5t74 70.5t99.5 25q69 0 105 -38t26 -102l-16 33h19l15 97h79l-87 -550h-79l15 97h-20l28 33q-10 -65 -58.5 -102.5t-117.5 -37.5zM264 59q59 0 98.5 36.5t49.5 101.5l24 156q11 65 -17 101.5t-87 36.5
q-60 0 -98.5 -36t-49.5 -102l-24 -156q-10 -66 17 -102t87 -36zM482 760l137 140h93l-143 -140h-87zM185 645l156 140h77l113 -140h-84l-73 86l-99 -86h-90z" />
    <glyph glyph-name="uni1EA6" unicode="&#x1ea6;" 
d="M11 0l309 730h105l76 -730h-78l-18 198h-229l-82 -198h-83zM203 266h195l-24 244q-5 61 -7.5 102.5t-2.5 53.5q-4 -12 -19 -53.5t-41 -102.5zM545 899l-100 121h86l94 -121h-80zM208 780l155 140h78l112 -140h-85l-72 86l-99 -86h-89z" />
    <glyph glyph-name="uni1EA7" unicode="&#x1ea7;" 
d="M228 -10q-82 0 -122.5 55t-25.5 148l26 163q10 63 39.5 108.5t74 70.5t99.5 25q69 0 105 -38t26 -102l-16 33h19l15 97h79l-87 -550h-79l15 97h-20l28 33q-10 -65 -58.5 -102.5t-117.5 -37.5zM264 59q59 0 98.5 36.5t49.5 101.5l24 156q11 65 -17 101.5t-87 36.5
q-60 0 -98.5 -36t-49.5 -102l-24 -156q-10 -66 17 -102t87 -36zM537 760l-108 140h86l101 -140h-79zM185 645l156 140h77l113 -140h-84l-73 86l-99 -86h-90z" />
    <glyph glyph-name="uni1EA8" unicode="&#x1ea8;" 
d="M516 880l55 49q7 5 10.5 11t4.5 11q2 17 -16 17h-65l9 52h81q32 0 48.5 -16t11.5 -43q-2 -13 -8.5 -25t-17.5 -21l-39 -35h-74zM208 780l155 140h78l112 -140h-85l-72 86l-99 -86h-89zM11 0l309 730h105l76 -730h-78l-18 198h-229l-82 -198h-83zM203 266h195l-24 244
q-5 61 -7.5 102.5t-2.5 53.5q-4 -12 -19 -53.5t-41 -102.5z" />
    <glyph glyph-name="uni1EA9" unicode="&#x1ea9;" 
d="M228 -10q-82 0 -122.5 55t-25.5 148l26 163q10 63 39.5 108.5t74 70.5t99.5 25q69 0 105 -38t26 -102l-16 33h19l15 97h79l-87 -550h-79l15 97h-20l28 33q-10 -65 -58.5 -102.5t-117.5 -37.5zM264 59q59 0 98.5 36.5t49.5 101.5l24 156q11 65 -17 101.5t-87 36.5
q-60 0 -98.5 -36t-49.5 -102l-24 -156q-10 -66 17 -102t87 -36zM491 760l57 63q14 15 15 28q4 25 -24 25h-56l8 53h68q40 0 61.5 -18.5t16.5 -48.5q-4 -26 -27 -52l-44 -50h-75zM185 645l156 140h77l113 -140h-84l-73 86l-99 -86h-90z" />
    <glyph glyph-name="uni1EAA" unicode="&#x1eaa;" 
d="M11 0l309 730h105l76 -730h-78l-18 198h-229l-82 -198h-83zM203 266h195l-24 244q-5 61 -7.5 102.5t-2.5 53.5q-4 -12 -19 -53.5t-41 -102.5zM478 920q-28 0 -46.5 7.5t-31.5 18t-27 18t-33 7.5q-32 0 -38 -32l-2 -9h-58l2 9q5 37 32.5 59t67.5 22q29 0 47 -7.5t31 -18
t26 -18t33 -7.5q14 0 24 9t12 23l2 9h58l-1 -9q-5 -37 -31.5 -59t-66.5 -22zM208 780l135 113h109l100 -113h-84l-73 78l-98 -78h-89z" />
    <glyph glyph-name="uni1EAB" unicode="&#x1eab;" 
d="M228 -10q-82 0 -122.5 55t-25.5 148l26 163q10 63 39.5 108.5t74 70.5t99.5 25q69 0 105 -38t26 -102l-16 33h19l15 97h79l-87 -550h-79l15 97h-20l28 33q-10 -65 -58.5 -102.5t-117.5 -37.5zM264 59q59 0 98.5 36.5t49.5 101.5l24 156q11 65 -17 101.5t-87 36.5
q-60 0 -98.5 -36t-49.5 -102l-24 -156q-10 -66 17 -102t87 -36zM452 813q-30 0 -46.5 9.5t-26.5 22.5t-20.5 23t-28.5 10q-32 0 -38 -33l-4 -25h-58l3 21q6 40 34.5 63t69.5 23q31 0 47.5 -9.5t26.5 -22.5t20 -23t28 -10q31 0 37 33l4 25h58l-3 -21q-6 -40 -34 -63t-69 -23z
M185 645l156 140h77l113 -140h-84l-73 86l-99 -86h-90z" />
    <glyph glyph-name="uni1EAC" unicode="&#x1eac;" 
d="M211 810l156 140h77l113 -140h-84l-73 86l-99 -86h-90zM11 0l309 730h105l76 -730h-78l-18 198h-229l-82 -198h-83zM203 266h195l-24 244q-5 61 -7.5 102.5t-2.5 53.5q-4 -12 -19 -53.5t-41 -102.5zM233 -211q-32 0 -47.5 16.5t-11.5 44.5q5 29 26 45.5t52 16.5
q32 0 47 -16.5t11 -45.5q-4 -28 -25 -44.5t-52 -16.5z" />
    <glyph glyph-name="uni1EAD" unicode="&#x1ead;" 
d="M190 645l156 140h77l113 -140h-84l-73 86l-99 -86h-90zM228 -10q-82 0 -122.5 55t-25.5 148l26 163q10 63 39.5 108.5t74 70.5t99.5 25q69 0 105 -38t26 -102l-16 33h19l15 97h79l-87 -550h-79l15 97h-20l28 33q-10 -65 -58.5 -102.5t-117.5 -37.5zM264 59
q59 0 98.5 36.5t49.5 101.5l24 156q11 65 -17 101.5t-87 36.5q-60 0 -98.5 -36t-49.5 -102l-24 -156q-10 -66 17 -102t87 -36zM228 -211q-32 0 -47.5 16.5t-11.5 44.5q5 29 26 45.5t52 16.5q32 0 47 -16.5t11 -45.5q-4 -28 -25 -44.5t-52 -16.5z" />
    <glyph glyph-name="uni1EAE" unicode="&#x1eae;" 
d="M11 0l309 730h105l76 -730h-78l-18 198h-229l-82 -198h-83zM203 266h195l-24 244q-5 61 -7.5 102.5t-2.5 53.5q-4 -12 -19 -53.5t-41 -102.5zM340 899l123 121h89l-129 -121h-83zM356 780q-62 0 -94.5 35t-22.5 94h63q-5 -34 12 -54t51 -20h46q34 0 57.5 20t28.5 54h64
q-10 -59 -52.5 -94t-105.5 -35h-47z" />
    <glyph glyph-name="uni1EAF" unicode="&#x1eaf;" 
d="M228 -10q-82 0 -122.5 55t-25.5 148l26 163q10 63 39.5 108.5t74 70.5t99.5 25q69 0 105 -38t26 -102l-16 33h19l15 97h79l-87 -550h-79l15 97h-20l28 33q-10 -65 -58.5 -102.5t-117.5 -37.5zM264 59q59 0 98.5 36.5t49.5 101.5l24 156q11 65 -17 101.5t-87 36.5
q-60 0 -98.5 -36t-49.5 -102l-24 -156q-10 -66 17 -102t87 -36zM357 641q-72 0 -112.5 36t-31.5 93h63q-6 -34 18.5 -54t70.5 -20q47 0 77.5 20t35.5 54h65q-6 -38 -31.5 -67t-65.5 -45.5t-89 -16.5zM317 760l135 130h90l-141 -130h-84z" />
    <glyph glyph-name="uni1EB0" unicode="&#x1eb0;" 
d="M11 0l309 730h105l76 -730h-78l-18 198h-229l-82 -198h-83zM203 266h195l-24 244q-5 61 -7.5 102.5t-2.5 53.5q-4 -12 -19 -53.5t-41 -102.5zM356 780q-62 0 -94.5 35t-22.5 94h63q-5 -34 12 -54t51 -20h46q34 0 57.5 20t28.5 54h64q-10 -59 -52.5 -94t-105.5 -35h-47z
M379 899l-81 121h82l75 -121h-76z" />
    <glyph glyph-name="uni1EB1" unicode="&#x1eb1;" 
d="M228 -10q-82 0 -122.5 55t-25.5 148l26 163q10 63 39.5 108.5t74 70.5t99.5 25q69 0 105 -38t26 -102l-16 33h19l15 97h79l-87 -550h-79l15 97h-20l28 33q-10 -65 -58.5 -102.5t-117.5 -37.5zM264 59q59 0 98.5 36.5t49.5 101.5l24 156q11 65 -17 101.5t-87 36.5
q-60 0 -98.5 -36t-49.5 -102l-24 -156q-10 -66 17 -102t87 -36zM357 641q-72 0 -112.5 36t-31.5 93h63q-6 -34 18.5 -53.5t70.5 -19.5q47 0 77.5 19.5t35.5 53.5h65q-6 -38 -31.5 -67t-65.5 -45.5t-89 -16.5zM355 760l-99 130h84l92 -130h-77z" />
    <glyph glyph-name="uni1EB2" unicode="&#x1eb2;" 
d="M11 0l309 730h105l76 -730h-78l-18 198h-229l-82 -198h-83zM203 266h195l-24 244q-5 61 -7.5 102.5t-2.5 53.5q-4 -12 -19 -53.5t-41 -102.5zM350 880l55 55q7 7 11 12t5 9q2 11 -13 11h-72l9 53h90q28 0 41.5 -12.5t9.5 -35.5q-2 -14 -8.5 -28t-17.5 -25l-38 -39h-72z
M356 780q-62 0 -94.5 35t-22.5 94h63q-5 -34 12 -54t51 -20h46q34 0 57.5 20t28.5 54h64q-10 -59 -52.5 -94t-105.5 -35h-47z" />
    <glyph glyph-name="uni1EB3" unicode="&#x1eb3;" 
d="M228 -10q-82 0 -122.5 55t-25.5 148l26 163q10 63 39.5 108.5t74 70.5t99.5 25q69 0 105 -38t26 -102l-16 33h19l15 97h79l-87 -550h-79l15 97h-20l28 33q-10 -65 -58.5 -102.5t-117.5 -37.5zM264 59q59 0 98.5 36.5t49.5 101.5l24 156q11 65 -17 101.5t-87 36.5
q-60 0 -98.5 -36t-49.5 -102l-24 -156q-10 -66 17 -102t87 -36zM357 641q-72 0 -112.5 36t-31.5 93h63q-5 -34 19.5 -53.5t70.5 -19.5q47 0 77.5 19.5t35.5 53.5h64q-6 -38 -31.5 -67t-65.5 -45.5t-89 -16.5zM326 760l58 63q14 15 15 28q4 25 -24 25h-56l8 53h68
q40 0 61.5 -18.5t16.5 -48.5q-2 -13 -9 -26.5t-18 -25.5l-44 -50h-76z" />
    <glyph glyph-name="uni1EB4" unicode="&#x1eb4;" 
d="M11 0l309 730h105l76 -730h-78l-18 198h-229l-82 -198h-83zM203 266h195l-24 244q-5 61 -7.5 102.5t-2.5 53.5q-4 -12 -19 -53.5t-41 -102.5zM356 780q-62 0 -95 31t-23 89h63q-5 -33 12.5 -49t51.5 -16h46q34 0 57 16t29 49h63q-10 -58 -52 -89t-105 -31h-47zM478 920
q-28 0 -46.5 7.5t-31.5 18t-27 18t-33 7.5q-32 0 -38 -32l-2 -9h-58l2 9q5 37 32.5 59t67.5 22q29 0 47 -7.5t31 -18t26 -18t33 -7.5q14 0 24 9t12 23l2 9h58l-1 -9q-5 -37 -31.5 -59t-66.5 -22z" />
    <glyph glyph-name="uni1EB5" unicode="&#x1eb5;" 
d="M228 -10q-82 0 -122.5 55t-25.5 148l26 163q10 63 39.5 108.5t74 70.5t99.5 25q69 0 105 -38t26 -102l-16 33h19l15 97h79l-87 -550h-79l15 97h-20l28 33q-10 -65 -58.5 -102.5t-117.5 -37.5zM264 59q59 0 98.5 36.5t49.5 101.5l24 156q11 65 -17 101.5t-87 36.5
q-60 0 -98.5 -36t-49.5 -102l-24 -156q-10 -66 17 -102t87 -36zM358 645q-71 0 -108.5 35.5t-28.5 93.5h59q-6 -35 17 -56t68 -21t75 21t36 56h60q-6 -39 -30.5 -68t-62.5 -45t-85 -16zM452 813q-29 0 -45 9.5t-26 22.5t-21 23t-30 10q-32 0 -38 -33l-4 -25h-58l3 21
q6 40 34.5 63t69.5 23q29 0 45.5 -9.5t26 -22.5t20.5 -23t30 -10q15 0 24.5 9t12.5 24l4 25h58l-3 -21q-6 -40 -34 -63t-69 -23z" />
    <glyph glyph-name="uni1EB6" unicode="&#x1eb6;" 
d="M383 806q-70 0 -106.5 39.5t-26.5 104.5h63q-6 -41 15 -66t62 -25q43 0 72 25t35 66h65q-10 -65 -59 -104.5t-120 -39.5zM11 0l309 730h105l76 -730h-78l-18 198h-229l-82 -198h-83zM203 266h195l-24 244q-5 61 -7.5 102.5t-2.5 53.5q-4 -12 -19 -53.5t-41 -102.5z
M233 -211q-32 0 -47.5 16.5t-11.5 44.5q5 29 26 45.5t52 16.5q32 0 47 -16.5t11 -45.5q-4 -28 -25 -44.5t-52 -16.5z" />
    <glyph glyph-name="uni1EB7" unicode="&#x1eb7;" 
d="M362 641q-70 0 -106.5 39.5t-26.5 104.5h63q-6 -41 15 -66t62 -25q43 0 72 25t35 66h65q-10 -65 -59 -104.5t-120 -39.5zM228 -10q-82 0 -122.5 55t-25.5 148l26 163q10 63 39.5 108.5t74 70.5t99.5 25q69 0 105 -38t26 -102l-16 33h19l15 97h79l-87 -550h-79l15 97h-20
l28 33q-10 -65 -58.5 -102.5t-117.5 -37.5zM264 59q59 0 98.5 36.5t49.5 101.5l24 156q11 65 -17 101.5t-87 36.5q-60 0 -98.5 -36t-49.5 -102l-24 -156q-10 -66 17 -102t87 -36zM228 -211q-32 0 -47.5 16.5t-11.5 44.5q5 29 26 45.5t52 16.5q32 0 47 -16.5t11 -45.5
q-4 -28 -25 -44.5t-52 -16.5z" />
    <glyph glyph-name="uni1EB8" unicode="&#x1eb8;" 
d="M61 0l116 730h412l-11 -72h-334l-38 -241h299l-12 -71h-298l-44 -274h334l-12 -72h-412zM243 -211q-32 0 -47.5 16.5t-11.5 44.5q5 29 26 45.5t52 16.5q32 0 47 -16.5t11 -45.5q-4 -28 -25 -44.5t-52 -16.5z" />
    <glyph glyph-name="uni1EB9" unicode="&#x1eb9;" 
d="M254 -10q-64 0 -106 25.5t-60 72.5t-8 109l24 156q11 63 43.5 109.5t83 72t114.5 25.5t106.5 -25.5t60.5 -72t7 -109.5l-15 -97h-337l-9 -59q-10 -67 17 -103.5t90 -36.5q53 0 88.5 21t50.5 61h79q-14 -46 -46.5 -79.5t-79 -51.5t-103.5 -18zM435 309l6 44
q11 67 -16 103.5t-90 36.5q-64 0 -103 -36.5t-50 -103.5l-5 -35h267zM223 -211q-32 0 -47.5 16.5t-11.5 44.5q5 29 26 45.5t52 16.5q32 0 47 -16.5t11 -45.5q-4 -28 -25 -44.5t-52 -16.5z" />
    <glyph glyph-name="uni1EBA" unicode="&#x1eba;" 
d="M61 0l116 730h412l-11 -72h-334l-38 -241h299l-12 -71h-298l-44 -274h334l-12 -72h-412zM339 800l62 66q9 10 14.5 19t6.5 15q3 22 -27 22h-81l10 57h100q38 0 57.5 -18.5t14.5 -51.5q-2 -15 -9 -29t-17 -25l-50 -55h-81z" />
    <glyph glyph-name="uni1EBB" unicode="&#x1ebb;" 
d="M254 -10q-64 0 -106 25.5t-60 72.5t-8 109l24 156q11 63 43.5 109.5t83 72t114.5 25.5t106.5 -25.5t60.5 -72t7 -109.5l-15 -97h-337l-9 -59q-10 -67 17 -103.5t90 -36.5q53 0 88.5 21t50.5 61h79q-14 -46 -46.5 -79.5t-79 -51.5t-103.5 -18zM435 309l6 44
q11 67 -16 103.5t-90 36.5q-64 0 -103 -36.5t-50 -103.5l-5 -35h267zM315 645l62 66q9 10 14.5 19t6.5 15q3 22 -27 22h-81l10 57h100q38 0 57.5 -18.5t14.5 -51.5q-2 -15 -9 -29t-17 -25l-50 -55h-81z" />
    <glyph glyph-name="uni1EBC" unicode="&#x1ebc;" 
d="M61 0l116 730h412l-11 -72h-334l-38 -241h299l-12 -71h-298l-44 -274h334l-12 -72h-412zM476 815q-29 0 -46 11.5t-28.5 26.5t-22.5 26.5t-29 11.5q-15 0 -26.5 -10t-14.5 -30l-5 -31h-58l5 31q7 45 35.5 69.5t69.5 24.5q29 0 46.5 -11.5t28.5 -26.5t22 -26.5t29 -11.5
q15 0 25.5 10t13.5 30l6 31h58l-5 -31q-7 -45 -35 -69.5t-69 -24.5z" />
    <glyph glyph-name="uni1EBD" unicode="&#x1ebd;" 
d="M254 -10q-64 0 -106 25.5t-60 72.5t-8 109l24 156q11 63 43.5 109.5t83 72t114.5 25.5t106.5 -25.5t60.5 -72t7 -109.5l-15 -97h-337l-9 -59q-10 -67 17 -103.5t90 -36.5q53 0 88.5 21t50.5 61h79q-14 -46 -46.5 -79.5t-79 -51.5t-103.5 -18zM435 309l6 44
q11 67 -16 103.5t-90 36.5q-64 0 -103 -36.5t-50 -103.5l-5 -35h267zM430 650q-29 0 -46 11.5t-28.5 26.5t-22.5 26.5t-29 11.5q-15 0 -26.5 -10t-14.5 -30l-5 -31h-58l4 31q8 45 36.5 69.5t69.5 24.5q29 0 46.5 -11.5t28.5 -26.5t22 -26.5t28 -11.5q16 0 26.5 10t13.5 30
l6 31h58l-5 -31q-7 -45 -35 -69.5t-69 -24.5z" />
    <glyph glyph-name="uni1EBE" unicode="&#x1ebe;" 
d="M61 0l116 730h412l-11 -72h-334l-38 -241h299l-12 -71h-298l-44 -274h334l-12 -72h-412zM504 899l124 121h95l-131 -121h-88zM208 780l155 140h78l112 -140h-85l-72 86l-99 -86h-89z" />
    <glyph glyph-name="uni1EBF" unicode="&#x1ebf;" 
d="M254 -10q-64 0 -106 25.5t-60 72.5t-8 109l24 156q11 63 43.5 109.5t83 72t114.5 25.5t106.5 -25.5t60.5 -72t7 -109.5l-15 -97h-337l-9 -59q-10 -67 17 -103.5t90 -36.5q53 0 88.5 21t50.5 61h79q-14 -46 -46.5 -79.5t-79 -51.5t-103.5 -18zM435 309l6 44
q11 67 -16 103.5t-90 36.5q-64 0 -103 -36.5t-50 -103.5l-5 -35h267zM482 760l137 140h93l-143 -140h-87zM185 645l156 140h77l113 -140h-84l-73 86l-99 -86h-90z" />
    <glyph glyph-name="uni1EC0" unicode="&#x1ec0;" 
d="M61 0l116 730h412l-11 -72h-334l-38 -241h299l-12 -71h-298l-44 -274h334l-12 -72h-412zM545 899l-100 121h86l94 -121h-80zM208 780l155 140h78l112 -140h-85l-72 86l-99 -86h-89z" />
    <glyph glyph-name="uni1EC1" unicode="&#x1ec1;" 
d="M254 -10q-64 0 -106 25.5t-60 72.5t-8 109l24 156q11 63 43.5 109.5t83 72t114.5 25.5t106.5 -25.5t60.5 -72t7 -109.5l-15 -97h-337l-9 -59q-10 -67 17 -103.5t90 -36.5q53 0 88.5 21t50.5 61h79q-14 -46 -46.5 -79.5t-79 -51.5t-103.5 -18zM435 309l6 44
q11 67 -16 103.5t-90 36.5q-64 0 -103 -36.5t-50 -103.5l-5 -35h267zM537 760l-108 140h86l101 -140h-79zM185 645l156 140h77l113 -140h-84l-73 86l-99 -86h-90z" />
    <glyph glyph-name="uni1EC2" unicode="&#x1ec2;" 
d="M61 0l116 730h412l-11 -72h-334l-38 -241h299l-12 -71h-298l-44 -274h334l-12 -72h-412zM516 880l55 49q7 5 10.5 11t4.5 11q2 17 -16 17h-65l9 52h81q32 0 48.5 -16t11.5 -43q-2 -13 -8.5 -25t-17.5 -21l-39 -35h-74zM208 780l155 140h78l112 -140h-85l-72 86l-99 -86
h-89z" />
    <glyph glyph-name="uni1EC3" unicode="&#x1ec3;" 
d="M254 -10q-64 0 -106 25.5t-60 72.5t-8 109l24 156q11 63 43.5 109.5t83 72t114.5 25.5t106.5 -25.5t60.5 -72t7 -109.5l-15 -97h-337l-9 -59q-10 -67 17 -103.5t90 -36.5q53 0 88.5 21t50.5 61h79q-14 -46 -46.5 -79.5t-79 -51.5t-103.5 -18zM435 309l6 44
q11 67 -16 103.5t-90 36.5q-64 0 -103 -36.5t-50 -103.5l-5 -35h267zM491 760l57 63q14 15 15 28q4 25 -24 25h-56l8 53h68q40 0 61.5 -18.5t16.5 -48.5q-4 -26 -27 -52l-44 -50h-75zM185 645l156 140h77l113 -140h-84l-73 86l-99 -86h-90z" />
    <glyph glyph-name="uni1EC4" unicode="&#x1ec4;" 
d="M61 0l116 730h412l-11 -72h-334l-38 -241h299l-12 -71h-298l-44 -274h334l-12 -72h-412zM478 920q-28 0 -46.5 7.5t-31.5 18t-27 18t-33 7.5q-32 0 -38 -32l-2 -9h-58l2 9q5 37 32.5 59t67.5 22q29 0 47 -7.5t31 -18t26 -18t33 -7.5q14 0 24 9t12 23l2 9h58l-1 -9
q-5 -37 -31.5 -59t-66.5 -22zM208 780l135 113h109l100 -113h-84l-73 78l-98 -78h-89z" />
    <glyph glyph-name="uni1EC5" unicode="&#x1ec5;" 
d="M254 -10q-64 0 -106 25.5t-60 72.5t-8 109l24 156q11 63 43.5 109.5t83 72t114.5 25.5t106.5 -25.5t60.5 -72t7 -109.5l-15 -97h-337l-9 -59q-10 -67 17 -103.5t90 -36.5q53 0 88.5 21t50.5 61h79q-14 -46 -46.5 -79.5t-79 -51.5t-103.5 -18zM435 309l6 44
q11 67 -16 103.5t-90 36.5q-64 0 -103 -36.5t-50 -103.5l-5 -35h267zM452 813q-30 0 -46.5 9.5t-26.5 22.5t-20.5 23t-28.5 10q-32 0 -38 -33l-4 -25h-58l3 21q6 40 34.5 63t69.5 23q31 0 47.5 -9.5t26.5 -22.5t20 -23t28 -10q31 0 37 33l4 25h58l-3 -21q-6 -40 -34 -63
t-69 -23zM185 645l156 140h77l113 -140h-84l-73 86l-99 -86h-90z" />
    <glyph glyph-name="uni1EC6" unicode="&#x1ec6;" 
d="M211 810l156 140h77l113 -140h-84l-73 86l-99 -86h-90zM61 0l116 730h412l-11 -72h-334l-38 -241h299l-12 -71h-298l-44 -274h334l-12 -72h-412zM243 -211q-32 0 -47.5 16.5t-11.5 44.5q5 29 26 45.5t52 16.5q32 0 47 -16.5t11 -45.5q-4 -28 -25 -44.5t-52 -16.5z" />
    <glyph glyph-name="uni1EC7" unicode="&#x1ec7;" 
d="M188 645l156 140h77l113 -140h-84l-73 86l-99 -86h-90zM254 -10q-64 0 -106 25.5t-60 72.5t-8 109l24 156q11 63 43.5 109.5t83 72t114.5 25.5t106.5 -25.5t60.5 -72t7 -109.5l-15 -97h-337l-9 -59q-10 -67 17 -103.5t90 -36.5q53 0 88.5 21t50.5 61h79
q-14 -46 -46.5 -79.5t-79 -51.5t-103.5 -18zM435 309l6 44q11 67 -16 103.5t-90 36.5q-64 0 -103 -36.5t-50 -103.5l-5 -35h267zM223 -211q-32 0 -47.5 16.5t-11.5 44.5q5 29 26 45.5t52 16.5q32 0 47 -16.5t11 -45.5q-4 -28 -25 -44.5t-52 -16.5z" />
    <glyph glyph-name="uni1EC8" unicode="&#x1ec8;" 
d="M65 0l11 72h151l93 586h-151l12 72h382l-12 -72h-150l-93 -586h150l-11 -72h-382zM357 800l62 66q9 10 14.5 19t6.5 15q3 22 -27 22h-81l10 57h100q38 0 57.5 -18.5t14.5 -51.5q-2 -15 -9 -29t-17 -25l-50 -55h-81z" />
    <glyph glyph-name="uni1EC9" unicode="&#x1ec9;" 
d="M40 0l11 72h197l64 406h-171l11 72h251l-76 -478h186l-11 -72h-462zM333 645l62 66q9 10 14.5 19t6.5 15q3 22 -27 22h-81l10 57h100q38 0 57.5 -18.5t14.5 -51.5q-2 -15 -9 -29t-17 -25l-50 -55h-81z" />
    <glyph glyph-name="uni1ECA" unicode="&#x1eca;" 
d="M65 0l11 72h151l93 586h-151l12 72h382l-12 -72h-150l-93 -586h150l-11 -72h-382zM223 -211q-32 0 -47.5 16.5t-11.5 44.5q5 29 26 45.5t52 16.5q32 0 47 -16.5t11 -45.5q-4 -28 -25 -44.5t-52 -16.5z" />
    <glyph glyph-name="uni1ECB" unicode="&#x1ecb;" 
d="M40 0l11 72h197l64 406h-171l11 72h251l-76 -478h186l-11 -72h-462zM376 651q-31 0 -47 16.5t-13 43.5q4 29 24 46t51 17t47.5 -17t12.5 -46q-3 -27 -23 -43.5t-52 -16.5zM238 -211q-32 0 -47.5 16.5t-11.5 44.5q5 29 26 45.5t52 16.5q32 0 47 -16.5t11 -45.5
q-4 -28 -25 -44.5t-52 -16.5z" />
    <glyph glyph-name="uni1ECC" unicode="&#x1ecc;" 
d="M254 -10q-63 0 -106 25t-60.5 71.5t-7.5 110.5l53 336q11 64 43.5 110.5t83 71.5t113.5 25q64 0 106.5 -25t61 -71.5t7.5 -110.5l-53 -336q-10 -64 -43 -110.5t-83.5 -71.5t-114.5 -25zM265 61q62 0 101 35.5t50 100.5l53 336q10 65 -18 100.5t-89 35.5t-100 -35.5
t-50 -100.5l-53 -336q-10 -65 17.5 -100.5t88.5 -35.5zM233 -211q-32 0 -47.5 16.5t-11.5 44.5q5 29 26 45.5t52 16.5q32 0 47 -16.5t11 -45.5q-4 -28 -25 -44.5t-52 -16.5z" />
    <glyph glyph-name="uni1ECD" unicode="&#x1ecd;" 
d="M254 -10q-63 0 -106 25t-60.5 71.5t-7.5 110.5l24 156q11 64 43.5 110.5t83.5 71.5t114 25q64 0 106.5 -25t60.5 -71.5t8 -110.5l-25 -156q-10 -64 -43 -110.5t-83.5 -71.5t-114.5 -25zM265 60q62 0 101 35.5t50 101.5l24 156q11 66 -17 101.5t-89 35.5t-100 -35.5
t-51 -101.5l-24 -156q-10 -66 17.5 -101.5t88.5 -35.5zM233 -211q-32 0 -47.5 16.5t-11.5 44.5q5 29 26 45.5t52 16.5q32 0 47 -16.5t11 -45.5q-4 -28 -25 -44.5t-52 -16.5z" />
    <glyph glyph-name="uni1ECE" unicode="&#x1ece;" 
d="M254 -10q-63 0 -106 25t-60.5 71.5t-7.5 110.5l53 336q11 64 43.5 110.5t83 71.5t113.5 25q64 0 106.5 -25t61 -71.5t7.5 -110.5l-53 -336q-10 -64 -43 -110.5t-83.5 -71.5t-114.5 -25zM265 61q62 0 101 35.5t50 100.5l53 336q10 65 -18 100.5t-89 35.5t-100 -35.5
t-50 -100.5l-53 -336q-10 -65 17.5 -100.5t88.5 -35.5zM357 800l62 66q9 10 14.5 19t6.5 15q3 22 -27 22h-81l10 57h100q38 0 57.5 -18.5t14.5 -51.5q-2 -15 -9 -29t-17 -25l-50 -55h-81z" />
    <glyph glyph-name="uni1ECF" unicode="&#x1ecf;" 
d="M254 -10q-63 0 -106 25t-60.5 71.5t-7.5 110.5l24 156q11 64 43.5 110.5t83.5 71.5t114 25q64 0 106.5 -25t60.5 -71.5t8 -110.5l-25 -156q-10 -64 -43 -110.5t-83.5 -71.5t-114.5 -25zM265 60q62 0 101 35.5t50 101.5l24 156q11 66 -17 101.5t-89 35.5t-100 -35.5
t-51 -101.5l-24 -156q-10 -66 17.5 -101.5t88.5 -35.5zM315 645l62 66q9 10 14.5 19t6.5 15q3 22 -27 22h-81l10 57h100q38 0 57.5 -18.5t14.5 -51.5q-2 -15 -9 -29t-17 -25l-50 -55h-81z" />
    <glyph glyph-name="uni1ED0" unicode="&#x1ed0;" 
d="M254 -10q-63 0 -106 25t-60.5 71.5t-7.5 110.5l53 336q11 64 43.5 110.5t83 71.5t113.5 25q64 0 106.5 -25t61 -71.5t7.5 -110.5l-53 -336q-10 -64 -43 -110.5t-83.5 -71.5t-114.5 -25zM265 61q62 0 101 35.5t50 100.5l53 336q10 65 -18 100.5t-89 35.5t-100 -35.5
t-50 -100.5l-53 -336q-10 -65 17.5 -100.5t88.5 -35.5zM504 899l124 121h95l-131 -121h-88zM208 780l155 140h78l112 -140h-85l-72 86l-99 -86h-89z" />
    <glyph glyph-name="uni1ED1" unicode="&#x1ed1;" 
d="M254 -10q-63 0 -106 25t-60.5 71.5t-7.5 110.5l24 156q11 64 43.5 110.5t83.5 71.5t114 25q64 0 106.5 -25t60.5 -71.5t8 -110.5l-25 -156q-10 -64 -43 -110.5t-83.5 -71.5t-114.5 -25zM265 60q62 0 101 35.5t50 101.5l24 156q11 66 -17 101.5t-89 35.5t-100 -35.5
t-51 -101.5l-24 -156q-10 -66 17.5 -101.5t88.5 -35.5zM482 760l137 140h93l-143 -140h-87zM185 645l156 140h77l113 -140h-84l-73 86l-99 -86h-90z" />
    <glyph glyph-name="uni1ED2" unicode="&#x1ed2;" 
d="M254 -10q-63 0 -106 25t-60.5 71.5t-7.5 110.5l53 336q11 64 43.5 110.5t83 71.5t113.5 25q64 0 106.5 -25t61 -71.5t7.5 -110.5l-53 -336q-10 -64 -43 -110.5t-83.5 -71.5t-114.5 -25zM265 61q62 0 101 35.5t50 100.5l53 336q10 65 -18 100.5t-89 35.5t-100 -35.5
t-50 -100.5l-53 -336q-10 -65 17.5 -100.5t88.5 -35.5zM545 899l-100 121h86l94 -121h-80zM208 780l155 140h78l112 -140h-85l-72 86l-99 -86h-89z" />
    <glyph glyph-name="uni1ED3" unicode="&#x1ed3;" 
d="M254 -10q-63 0 -106 25t-60.5 71.5t-7.5 110.5l24 156q11 64 43.5 110.5t83.5 71.5t114 25q64 0 106.5 -25t60.5 -71.5t8 -110.5l-25 -156q-10 -64 -43 -110.5t-83.5 -71.5t-114.5 -25zM265 60q62 0 101 35.5t50 101.5l24 156q11 66 -17 101.5t-89 35.5t-100 -35.5
t-51 -101.5l-24 -156q-10 -66 17.5 -101.5t88.5 -35.5zM537 760l-108 140h86l101 -140h-79zM185 645l156 140h77l113 -140h-84l-73 86l-99 -86h-90z" />
    <glyph glyph-name="uni1ED4" unicode="&#x1ed4;" 
d="M254 -10q-63 0 -106 25t-60.5 71.5t-7.5 110.5l53 336q11 64 43.5 110.5t83 71.5t113.5 25q64 0 106.5 -25t61 -71.5t7.5 -110.5l-53 -336q-10 -64 -43 -110.5t-83.5 -71.5t-114.5 -25zM265 61q62 0 101 35.5t50 100.5l53 336q10 65 -18 100.5t-89 35.5t-100 -35.5
t-50 -100.5l-53 -336q-10 -65 17.5 -100.5t88.5 -35.5zM516 880l55 49q7 5 10.5 11t4.5 11q2 17 -16 17h-65l9 52h81q32 0 48.5 -16t11.5 -43q-2 -13 -8.5 -25t-17.5 -21l-39 -35h-74zM208 780l155 140h78l112 -140h-85l-72 86l-99 -86h-89z" />
    <glyph glyph-name="uni1ED5" unicode="&#x1ed5;" 
d="M254 -10q-63 0 -106 25t-60.5 71.5t-7.5 110.5l24 156q11 64 43.5 110.5t83.5 71.5t114 25q64 0 106.5 -25t60.5 -71.5t8 -110.5l-25 -156q-10 -64 -43 -110.5t-83.5 -71.5t-114.5 -25zM265 60q62 0 101 35.5t50 101.5l24 156q11 66 -17 101.5t-89 35.5t-100 -35.5
t-51 -101.5l-24 -156q-10 -66 17.5 -101.5t88.5 -35.5zM491 760l57 63q14 15 15 28q4 25 -24 25h-56l8 53h68q40 0 61.5 -18.5t16.5 -48.5q-4 -26 -27 -52l-44 -50h-75zM185 645l156 140h77l113 -140h-84l-73 86l-99 -86h-90z" />
    <glyph glyph-name="uni1ED6" unicode="&#x1ed6;" 
d="M254 -10q-63 0 -106 25t-60.5 71.5t-7.5 110.5l53 336q11 64 43.5 110.5t83 71.5t113.5 25q64 0 106.5 -25t61 -71.5t7.5 -110.5l-53 -336q-10 -64 -43 -110.5t-83.5 -71.5t-114.5 -25zM265 61q62 0 101 35.5t50 100.5l53 336q10 65 -18 100.5t-89 35.5t-100 -35.5
t-50 -100.5l-53 -336q-10 -65 17.5 -100.5t88.5 -35.5zM478 920q-28 0 -46.5 7.5t-31.5 18t-27 18t-33 7.5q-32 0 -38 -32l-2 -9h-58l2 9q5 37 32.5 59t67.5 22q29 0 47 -7.5t31 -18t26 -18t33 -7.5q14 0 24 9t12 23l2 9h58l-1 -9q-5 -37 -31.5 -59t-66.5 -22zM208 780
l135 113h109l100 -113h-84l-73 78l-98 -78h-89z" />
    <glyph glyph-name="uni1ED7" unicode="&#x1ed7;" 
d="M254 -10q-63 0 -106 25t-60.5 71.5t-7.5 110.5l24 156q11 64 43.5 110.5t83.5 71.5t114 25q64 0 106.5 -25t60.5 -71.5t8 -110.5l-25 -156q-10 -64 -43 -110.5t-83.5 -71.5t-114.5 -25zM265 60q62 0 101 35.5t50 101.5l24 156q11 66 -17 101.5t-89 35.5t-100 -35.5
t-51 -101.5l-24 -156q-10 -66 17.5 -101.5t88.5 -35.5zM452 813q-30 0 -46.5 9.5t-26.5 22.5t-20.5 23t-28.5 10q-32 0 -38 -33l-4 -25h-58l3 21q6 40 34.5 63t69.5 23q31 0 47.5 -9.5t26.5 -22.5t20 -23t28 -10q31 0 37 33l4 25h58l-3 -21q-6 -40 -34 -63t-69 -23zM185 645
l156 140h77l113 -140h-84l-73 86l-99 -86h-90z" />
    <glyph glyph-name="uni1ED8" unicode="&#x1ed8;" 
d="M211 810l156 140h77l113 -140h-84l-73 86l-99 -86h-90zM254 -10q-63 0 -106 25t-60.5 71.5t-7.5 110.5l53 336q11 64 43.5 110.5t83 71.5t113.5 25q64 0 106.5 -25t61 -71.5t7.5 -110.5l-53 -336q-10 -64 -43 -110.5t-83.5 -71.5t-114.5 -25zM265 61q62 0 101 35.5
t50 100.5l53 336q10 65 -18 100.5t-89 35.5t-100 -35.5t-50 -100.5l-53 -336q-10 -65 17.5 -100.5t88.5 -35.5zM223 -211q-32 0 -47.5 16.5t-11.5 44.5q5 29 26 45.5t52 16.5q32 0 47 -16.5t11 -45.5q-4 -28 -25 -44.5t-52 -16.5z" />
    <glyph glyph-name="uni1ED9" unicode="&#x1ed9;" 
d="M185 645l156 140h77l113 -140h-84l-73 86l-99 -86h-90zM254 -10q-63 0 -106 25t-60.5 71.5t-7.5 110.5l24 156q11 64 43.5 110.5t83.5 71.5t114 25q64 0 106.5 -25t60.5 -71.5t8 -110.5l-25 -156q-10 -64 -43 -110.5t-83.5 -71.5t-114.5 -25zM265 60q62 0 101 35.5
t50 101.5l24 156q11 66 -17 101.5t-89 35.5t-100 -35.5t-51 -101.5l-24 -156q-10 -66 17.5 -101.5t88.5 -35.5zM233 -211q-32 0 -47.5 16.5t-11.5 44.5q5 29 26 45.5t52 16.5q32 0 47 -16.5t11 -45.5q-4 -28 -25 -44.5t-52 -16.5z" />
    <glyph glyph-name="uni1EDA" unicode="&#x1eda;" 
d="M456 643l9 57h27q17 0 28.5 10.5t14.5 28.5l11 71h66l-11 -75q-7 -41 -38 -66.5t-76 -25.5h-31zM254 -10q-63 0 -106 25t-60.5 71.5t-7.5 110.5l53 336q11 64 43.5 110.5t83 71.5t113.5 25q64 0 106.5 -25t61 -71.5t7.5 -110.5l-53 -336q-10 -64 -43 -110.5t-83.5 -71.5
t-114.5 -25zM265 61q62 0 101 35.5t50 100.5l53 336q10 65 -18 100.5t-89 35.5t-100 -35.5t-50 -100.5l-53 -336q-10 -65 17.5 -100.5t88.5 -35.5zM326 810l128 140h92l-134 -140h-86z" />
    <glyph glyph-name="uni1EDB" unicode="&#x1edb;" 
d="M430 473l9 57h34q18 0 29.5 10.5t13.5 28.5l12 71h65l-11 -75q-7 -41 -38.5 -66.5t-75.5 -25.5h-38zM254 -10q-63 0 -106 25t-60.5 71.5t-7.5 110.5l24 156q11 64 43.5 110.5t83.5 71.5t114 25q64 0 106.5 -25t60.5 -71.5t8 -110.5l-25 -156q-10 -64 -43 -110.5
t-83.5 -71.5t-114.5 -25zM265 60q62 0 101 35.5t50 101.5l24 156q11 66 -17 101.5t-89 35.5t-100 -35.5t-51 -101.5l-24 -156q-10 -66 17.5 -101.5t88.5 -35.5zM298 645l128 140h92l-134 -140h-86z" />
    <glyph glyph-name="uni1EDC" unicode="&#x1edc;" 
d="M456 643l9 57h27q17 0 28.5 10.5t14.5 28.5l11 71h66l-11 -75q-7 -41 -38 -66.5t-76 -25.5h-31zM254 -10q-63 0 -106 25t-60.5 71.5t-7.5 110.5l53 336q11 64 43.5 110.5t83 71.5t113.5 25q64 0 106.5 -25t61 -71.5t7.5 -110.5l-53 -336q-10 -64 -43 -110.5t-83.5 -71.5
t-114.5 -25zM265 61q62 0 101 35.5t50 100.5l53 336q10 65 -18 100.5t-89 35.5t-100 -35.5t-50 -100.5l-53 -336q-10 -65 17.5 -100.5t88.5 -35.5zM355 810l-92 140h84l87 -140h-79z" />
    <glyph glyph-name="uni1EDD" unicode="&#x1edd;" 
d="M430 473l9 57h34q18 0 29.5 10.5t13.5 28.5l12 71h65l-11 -75q-7 -41 -38.5 -66.5t-75.5 -25.5h-38zM254 -10q-63 0 -106 25t-60.5 71.5t-7.5 110.5l24 156q11 64 43.5 110.5t83.5 71.5t114 25q64 0 106.5 -25t60.5 -71.5t8 -110.5l-25 -156q-10 -64 -43 -110.5
t-83.5 -71.5t-114.5 -25zM265 60q62 0 101 35.5t50 101.5l24 156q11 66 -17 101.5t-89 35.5t-100 -35.5t-51 -101.5l-24 -156q-10 -66 17.5 -101.5t88.5 -35.5zM324 645l-92 140h84l87 -140h-79z" />
    <glyph glyph-name="uni1EDE" unicode="&#x1ede;" 
d="M456 643l9 57h27q17 0 28.5 10.5t14.5 28.5l11 71h66l-11 -75q-7 -41 -38 -66.5t-76 -25.5h-31zM254 -10q-63 0 -106 25t-60.5 71.5t-7.5 110.5l53 336q11 64 43.5 110.5t83 71.5t113.5 25q64 0 106.5 -25t61 -71.5t7.5 -110.5l-53 -336q-10 -64 -43 -110.5t-83.5 -71.5
t-114.5 -25zM265 61q62 0 101 35.5t50 100.5l53 336q10 65 -18 100.5t-89 35.5t-100 -35.5t-50 -100.5l-53 -336q-10 -65 17.5 -100.5t88.5 -35.5zM339 800l62 66q9 10 14.5 19t6.5 15q3 22 -27 22h-81l10 57h100q38 0 57.5 -18.5t14.5 -51.5q-2 -15 -9 -29t-17 -25l-50 -55
h-81z" />
    <glyph glyph-name="uni1EDF" unicode="&#x1edf;" 
d="M430 473l9 57h34q18 0 29.5 10.5t13.5 28.5l12 71h65l-11 -75q-7 -41 -38.5 -66.5t-75.5 -25.5h-38zM254 -10q-63 0 -106 25t-60.5 71.5t-7.5 110.5l24 156q11 64 43.5 110.5t83.5 71.5t114 25q64 0 106.5 -25t60.5 -71.5t8 -110.5l-25 -156q-10 -64 -43 -110.5
t-83.5 -71.5t-114.5 -25zM265 60q62 0 101 35.5t50 101.5l24 156q11 66 -17 101.5t-89 35.5t-100 -35.5t-51 -101.5l-24 -156q-10 -66 17.5 -101.5t88.5 -35.5zM315 645l62 66q9 10 14.5 19t6.5 15q3 22 -27 22h-81l10 57h100q38 0 57.5 -18.5t14.5 -51.5q-2 -15 -9 -29
t-17 -25l-50 -55h-81z" />
    <glyph glyph-name="uni1EE0" unicode="&#x1ee0;" 
d="M456 643l9 57h27q17 0 28.5 10.5t14.5 28.5l11 71h66l-11 -75q-7 -41 -38 -66.5t-76 -25.5h-31zM254 -10q-63 0 -106 25t-60.5 71.5t-7.5 110.5l53 336q11 64 43.5 110.5t83 71.5t113.5 25q64 0 106.5 -25t61 -71.5t7.5 -110.5l-53 -336q-10 -64 -43 -110.5t-83.5 -71.5
t-114.5 -25zM265 61q62 0 101 35.5t50 100.5l53 336q10 65 -18 100.5t-89 35.5t-100 -35.5t-50 -100.5l-53 -336q-10 -65 17.5 -100.5t88.5 -35.5zM453 815q-29 0 -46 11.5t-28.5 26.5t-22.5 26.5t-29 11.5q-15 0 -26.5 -10t-14.5 -30l-5 -31h-58l5 31q7 45 35.5 69.5
t69.5 24.5q29 0 46.5 -11.5t28.5 -26.5t22 -26.5t29 -11.5q15 0 25.5 10t13.5 30l6 31h58l-5 -31q-7 -45 -35 -69.5t-69 -24.5z" />
    <glyph glyph-name="uni1EE1" unicode="&#x1ee1;" 
d="M430 473l9 57h34q18 0 29.5 10.5t13.5 28.5l12 71h65l-11 -75q-7 -41 -38.5 -66.5t-75.5 -25.5h-38zM254 -10q-63 0 -106 25t-60.5 71.5t-7.5 110.5l24 156q11 64 43.5 110.5t83.5 71.5t114 25q64 0 106.5 -25t60.5 -71.5t8 -110.5l-25 -156q-10 -64 -43 -110.5
t-83.5 -71.5t-114.5 -25zM265 60q62 0 101 35.5t50 101.5l24 156q11 66 -17 101.5t-89 35.5t-100 -35.5t-51 -101.5l-24 -156q-10 -66 17.5 -101.5t88.5 -35.5zM422 650q-29 0 -46 11.5t-28.5 26.5t-22.5 26.5t-29 11.5q-15 0 -26.5 -10t-14.5 -30l-5 -31h-58l4 31
q8 45 36.5 69.5t69.5 24.5q29 0 46.5 -11.5t28.5 -26.5t22 -26.5t28 -11.5q16 0 26.5 10t13.5 30l6 31h58l-5 -31q-7 -45 -35 -69.5t-69 -24.5z" />
    <glyph glyph-name="uni1EE2" unicode="&#x1ee2;" 
d="M456 643l9 57h27q17 0 28.5 10.5t14.5 28.5l11 71h66l-11 -75q-7 -41 -38 -66.5t-76 -25.5h-31zM254 -10q-63 0 -106 25t-60.5 71.5t-7.5 110.5l53 336q11 64 43.5 110.5t83 71.5t113.5 25q64 0 106.5 -25t61 -71.5t7.5 -110.5l-53 -336q-10 -64 -43 -110.5t-83.5 -71.5
t-114.5 -25zM265 61q62 0 101 35.5t50 100.5l53 336q10 65 -18 100.5t-89 35.5t-100 -35.5t-50 -100.5l-53 -336q-10 -65 17.5 -100.5t88.5 -35.5zM233 -211q-32 0 -47.5 16.5t-11.5 44.5q5 29 26 45.5t52 16.5q32 0 47 -16.5t11 -45.5q-4 -28 -25 -44.5t-52 -16.5z" />
    <glyph glyph-name="uni1EE3" unicode="&#x1ee3;" 
d="M430 473l9 57h34q18 0 29.5 10.5t13.5 28.5l12 71h65l-11 -75q-7 -41 -38.5 -66.5t-75.5 -25.5h-38zM254 -10q-63 0 -106 25t-60.5 71.5t-7.5 110.5l24 156q11 64 43.5 110.5t83.5 71.5t114 25q64 0 106.5 -25t60.5 -71.5t8 -110.5l-25 -156q-10 -64 -43 -110.5
t-83.5 -71.5t-114.5 -25zM265 60q62 0 101 35.5t50 101.5l24 156q11 66 -17 101.5t-89 35.5t-100 -35.5t-51 -101.5l-24 -156q-10 -66 17.5 -101.5t88.5 -35.5zM233 -211q-32 0 -47.5 16.5t-11.5 44.5q5 29 26 45.5t52 16.5q32 0 47 -16.5t11 -45.5q-4 -28 -25 -44.5
t-52 -16.5z" />
    <glyph glyph-name="uni1EE4" unicode="&#x1ee4;" 
d="M254 -10q-98 0 -142.5 56t-29.5 151l85 533h79l-84 -533q-11 -63 15 -99.5t89 -36.5q62 0 99.5 36.5t47.5 99.5l85 533h79l-84 -533q-10 -63 -42 -110t-81.5 -72t-115.5 -25zM223 -211q-32 0 -47.5 16.5t-11.5 44.5q5 29 26 45.5t52 16.5q32 0 47 -16.5t11 -45.5
q-4 -28 -25 -44.5t-52 -16.5z" />
    <glyph glyph-name="uni1EE5" unicode="&#x1ee5;" 
d="M253 -10q-93 0 -139.5 56t-30.5 152l55 352h79l-55 -352q-11 -65 17 -101.5t86 -36.5q59 0 98.5 36.5t50.5 101.5l55 352h79l-55 -352q-10 -63 -43 -110t-83.5 -72.5t-113.5 -25.5zM223 -211q-32 0 -47.5 16.5t-11.5 44.5q5 29 26 45.5t52 16.5q32 0 47 -16.5t11 -45.5
q-4 -28 -25 -44.5t-52 -16.5z" />
    <glyph glyph-name="uni1EE6" unicode="&#x1ee6;" 
d="M254 -10q-98 0 -142.5 56t-29.5 151l85 533h79l-84 -533q-11 -63 15 -99.5t89 -36.5q62 0 99.5 36.5t47.5 99.5l85 533h79l-84 -533q-10 -63 -42 -110t-81.5 -72t-115.5 -25zM339 800l62 66q9 10 14.5 19t6.5 15q3 22 -27 22h-81l10 57h100q38 0 57.5 -18.5t14.5 -51.5
q-2 -15 -9 -29t-17 -25l-50 -55h-81z" />
    <glyph glyph-name="uni1EE7" unicode="&#x1ee7;" 
d="M253 -10q-93 0 -139.5 56t-30.5 152l55 352h79l-55 -352q-11 -65 17 -101.5t86 -36.5q59 0 98.5 36.5t50.5 101.5l55 352h79l-55 -352q-10 -63 -43 -110t-83.5 -72.5t-113.5 -25.5zM315 645l62 66q9 10 14.5 19t6.5 15q3 22 -27 22h-81l10 57h100q38 0 57.5 -18.5
t14.5 -51.5q-2 -15 -9 -29t-17 -25l-50 -55h-81z" />
    <glyph glyph-name="uni1EE8" unicode="&#x1ee8;" 
d="M500 673l9 57h60q17 0 28.5 10.5t14.5 28.5l11 71h66l-12 -75q-7 -41 -38 -66.5t-76 -25.5h-63zM254 -10q-98 0 -142.5 56t-29.5 151l85 533h79l-84 -533q-11 -63 15 -99.5t89 -36.5q62 0 99.5 36.5t47.5 99.5l85 533h79l-84 -533q-10 -63 -42 -110t-81.5 -72t-115.5 -25
zM326 810l128 140h92l-134 -140h-86z" />
    <glyph glyph-name="uni1EE9" unicode="&#x1ee9;" 
d="M83 198l55 352h79l-55 -352q-11 -65 17 -101.5t86 -36.5q59 0 98.5 36.5t50.5 101.5l55 352h64q18 0 29.5 10.5t14.5 28.5l12 71h66l-13 -75q-6 -41 -32 -66.5t-70 -25.5l-47 -295q-10 -63 -43 -110t-83.5 -72.5t-113.5 -25.5q-93 0 -139.5 56t-30.5 152zM306 645
l128 140h92l-134 -140h-86z" />
    <glyph glyph-name="uni1EEA" unicode="&#x1eea;" 
d="M500 673l9 57h60q17 0 28.5 10.5t14.5 28.5l11 71h66l-12 -75q-7 -41 -38 -66.5t-76 -25.5h-63zM254 -10q-98 0 -142.5 56t-29.5 151l85 533h79l-84 -533q-11 -63 15 -99.5t89 -36.5q62 0 99.5 36.5t47.5 99.5l85 533h79l-84 -533q-10 -63 -42 -110t-81.5 -72t-115.5 -25
zM355 810l-92 140h84l87 -140h-79z" />
    <glyph glyph-name="uni1EEB" unicode="&#x1eeb;" 
d="M83 198l55 352h79l-55 -352q-11 -65 17 -101.5t86 -36.5q59 0 98.5 36.5t50.5 101.5l55 352h64q18 0 29.5 10.5t14.5 28.5l12 71h66l-13 -75q-6 -41 -32 -66.5t-70 -25.5l-47 -295q-10 -63 -43 -110t-83.5 -72.5t-113.5 -25.5q-93 0 -139.5 56t-30.5 152zM332 645
l-92 140h84l87 -140h-79z" />
    <glyph glyph-name="uni1EEC" unicode="&#x1eec;" 
d="M500 673l9 57h60q17 0 28.5 10.5t14.5 28.5l11 71h66l-12 -75q-7 -41 -38 -66.5t-76 -25.5h-63zM254 -10q-98 0 -142.5 56t-29.5 151l85 533h79l-84 -533q-11 -63 15 -99.5t89 -36.5q62 0 99.5 36.5t47.5 99.5l85 533h79l-84 -533q-10 -63 -42 -110t-81.5 -72t-115.5 -25
zM339 800l62 66q9 10 14.5 19t6.5 15q3 22 -27 22h-81l10 57h100q38 0 57.5 -18.5t14.5 -51.5q-2 -15 -9 -29t-17 -25l-50 -55h-81z" />
    <glyph glyph-name="uni1EED" unicode="&#x1eed;" 
d="M83 198l55 352h79l-55 -352q-11 -65 17 -101.5t86 -36.5q59 0 98.5 36.5t50.5 101.5l55 352h64q18 0 29.5 10.5t14.5 28.5l12 71h66l-13 -75q-6 -41 -32 -66.5t-70 -25.5l-47 -295q-10 -63 -43 -110t-83.5 -72.5t-113.5 -25.5q-93 0 -139.5 56t-30.5 152zM315 645l62 66
q9 10 14.5 19t6.5 15q3 22 -27 22h-81l10 57h100q38 0 57.5 -18.5t14.5 -51.5q-2 -15 -9 -29t-17 -25l-50 -55h-81z" />
    <glyph glyph-name="uni1EEE" unicode="&#x1eee;" 
d="M500 673l9 57h60q17 0 28.5 10.5t14.5 28.5l11 71h66l-12 -75q-7 -41 -38 -66.5t-76 -25.5h-63zM254 -10q-98 0 -142.5 56t-29.5 151l85 533h79l-84 -533q-11 -63 15 -99.5t89 -36.5q62 0 99.5 36.5t47.5 99.5l85 533h79l-84 -533q-10 -63 -42 -110t-81.5 -72t-115.5 -25
zM453 815q-29 0 -46 11.5t-28.5 26.5t-22.5 26.5t-29 11.5q-15 0 -26.5 -10t-14.5 -30l-5 -31h-58l5 31q7 45 35.5 69.5t69.5 24.5q29 0 46.5 -11.5t28.5 -26.5t22 -26.5t29 -11.5q15 0 25.5 10t13.5 30l6 31h58l-5 -31q-7 -45 -35 -69.5t-69 -24.5z" />
    <glyph glyph-name="uni1EEF" unicode="&#x1eef;" 
d="M83 198l55 352h79l-55 -352q-11 -65 17 -101.5t86 -36.5q59 0 98.5 36.5t50.5 101.5l55 352h64q18 0 29.5 10.5t14.5 28.5l12 71h66l-13 -75q-6 -41 -32 -66.5t-70 -25.5l-47 -295q-10 -63 -43 -110t-83.5 -72.5t-113.5 -25.5q-93 0 -139.5 56t-30.5 152zM430 650
q-29 0 -46 11.5t-28.5 26.5t-22.5 26.5t-29 11.5q-15 0 -26.5 -10t-14.5 -30l-5 -31h-58l4 31q8 45 36.5 69.5t69.5 24.5q29 0 46.5 -11.5t28.5 -26.5t22 -26.5t28 -11.5q16 0 26.5 10t13.5 30l6 31h58l-5 -31q-7 -45 -35 -69.5t-69 -24.5z" />
    <glyph glyph-name="uni1EF0" unicode="&#x1ef0;" 
d="M233 -211q-32 0 -47.5 16.5t-11.5 44.5q5 29 26 45.5t52 16.5q32 0 47 -16.5t11 -45.5q-4 -28 -25 -44.5t-52 -16.5zM500 673l9 57h60q17 0 28.5 10.5t14.5 28.5l11 71h66l-12 -75q-7 -41 -38 -66.5t-76 -25.5h-63zM254 -10q-98 0 -142.5 56t-29.5 151l85 533h79
l-84 -533q-11 -63 15 -99.5t89 -36.5q62 0 99.5 36.5t47.5 99.5l85 533h79l-84 -533q-10 -63 -42 -110t-81.5 -72t-115.5 -25z" />
    <glyph glyph-name="uni1EF1" unicode="&#x1ef1;" 
d="M83 198l55 352h79l-55 -352q-11 -65 17 -101.5t86 -36.5q59 0 98.5 36.5t50.5 101.5l55 352h64q18 0 29.5 10.5t14.5 28.5l12 71h66l-13 -75q-6 -41 -32 -66.5t-70 -25.5l-47 -295q-10 -63 -43 -110t-83.5 -72.5t-113.5 -25.5q-93 0 -139.5 56t-30.5 152zM222 -211
q-32 0 -47.5 16.5t-11.5 44.5q5 29 26 45.5t52 16.5q32 0 47 -16.5t11 -45.5q-4 -28 -25 -44.5t-52 -16.5z" />
    <glyph glyph-name="Ygrave" unicode="&#x1ef2;" 
d="M216 0l44 275l-149 455h80l101 -308q8 -24 13 -42t6 -27l15 27t26 42l197 308h84l-294 -455l-43 -275h-80zM358 810l-92 140h84l87 -140h-79z" />
    <glyph glyph-name="ygrave" unicode="&#x1ef3;" 
d="M91 -180l12 72h167q46 0 72.5 22t33.5 67l11 73l17 98h-20l26 29q-10 -66 -56.5 -103.5t-116.5 -37.5q-82 0 -123 51.5t-27 139.5l50 319h80l-49 -310q-11 -62 17 -97.5t84 -35.5q59 0 99.5 37t50.5 103l47 303h80l-91 -569q-11 -76 -63.5 -118.5t-134.5 -42.5h-166z
M332 645l-92 140h84l87 -140h-79z" />
    <glyph glyph-name="uni1EF4" unicode="&#x1ef4;" 
d="M216 0l44 275l-149 455h80l101 -308q8 -24 13 -42t6 -27l15 27t26 42l197 308h84l-294 -455l-43 -275h-80zM233 -211q-32 0 -47.5 16.5t-11.5 44.5q5 29 26 45.5t52 16.5q32 0 47 -16.5t11 -45.5q-4 -28 -25 -44.5t-52 -16.5z" />
    <glyph glyph-name="uni1EF5" unicode="&#x1ef5;" 
d="M91 -180l12 72h167q46 0 72.5 22t33.5 67l11 73l17 98h-20l26 29q-10 -66 -56.5 -103.5t-116.5 -37.5q-82 0 -123 51.5t-27 139.5l50 319h80l-49 -310q-11 -62 17 -97.5t84 -35.5q59 0 99.5 37t50.5 103l47 303h80l-91 -569q-11 -76 -63.5 -118.5t-134.5 -42.5h-166z
M459 -251q-32 0 -47.5 16.5t-11.5 44.5q5 29 26 45.5t52 16.5q32 0 47 -16.5t11 -45.5q-4 -28 -25 -44.5t-52 -16.5z" />
    <glyph glyph-name="uni1EF6" unicode="&#x1ef6;" 
d="M216 0l44 275l-149 455h80l101 -308q8 -24 13 -42t6 -27l15 27t26 42l197 308h84l-294 -455l-43 -275h-80zM339 800l62 66q9 10 14.5 19t6.5 15q3 22 -27 22h-81l10 57h100q38 0 57.5 -18.5t14.5 -51.5q-2 -15 -9 -29t-17 -25l-50 -55h-81z" />
    <glyph glyph-name="uni1EF7" unicode="&#x1ef7;" 
d="M91 -180l12 72h167q46 0 72.5 22t33.5 67l11 73l17 98h-20l26 29q-10 -66 -56.5 -103.5t-116.5 -37.5q-82 0 -123 51.5t-27 139.5l50 319h80l-49 -310q-11 -62 17 -97.5t84 -35.5q59 0 99.5 37t50.5 103l47 303h80l-91 -569q-11 -76 -63.5 -118.5t-134.5 -42.5h-166z
M315 645l62 66q9 10 14.5 19t6.5 15q3 22 -27 22h-81l10 57h100q38 0 57.5 -18.5t14.5 -51.5q-2 -15 -9 -29t-17 -25l-50 -55h-81z" />
    <glyph glyph-name="uni1EF8" unicode="&#x1ef8;" 
d="M216 0l44 275l-149 455h80l101 -308q8 -24 13 -42t6 -27l15 27t26 42l197 308h84l-294 -455l-43 -275h-80zM456 815q-29 0 -46 11.5t-28.5 26.5t-22.5 26.5t-29 11.5q-15 0 -26.5 -10t-14.5 -30l-5 -31h-58l5 31q7 45 35.5 69.5t69.5 24.5q29 0 46.5 -11.5t28.5 -26.5
t22 -26.5t29 -11.5q15 0 25.5 10t13.5 30l6 31h58l-5 -31q-7 -45 -35 -69.5t-69 -24.5z" />
    </font>
</defs>
</svg>
