<?xml version="1.0" encoding="utf-8"?>
<!-- Generator: Adobe Illustrator 27.9.0, SVG Export Plug-In . SVG Version: 6.00 Build 0)  -->
<svg version="1.1" id="a" xmlns="http://www.w3.org/2000/svg" xmlns:xlink="http://www.w3.org/1999/xlink" x="0px" y="0px"
	 viewBox="0 0 3000 2813" style="enable-background:new 0 0 3000 2813;" xml:space="preserve">
<g>
	<g>
		<g>
			<ellipse cx="2561.6" cy="2141.4" rx="223" ry="155.4"/>
		</g>
	</g>
</g>
<g>
	<g>
		<g>
			<path d="M2712,1962.5c42.2-112.1,65-232,65-356.6c0-61.2-5.5-121.2-16.1-179.6c230-73.6-47.6-690.8-54.1-692.3
				c-36.1-7.9-71.9-15-107.5-21.4c-25.7-4.6-51.2-8.8-76.6-12.7C1303.3,514.5,373.8,1174.4,114.1,1633.3
				c-69.4-283-206.9-1176.9,711-1516.6c662.8-245.3,1463.8,202.7,1697.5,583.2c25.4,3.9,51,8.1,76.6,12.7
				C2375.6,268.8,1514-186.1,799.9,78.2C-246.5,465.5,13.2,1538.6,69.7,1732.2c-143.8,431.7,405.7,741.1,407.9,738.2
				c23-29.6,46.1-58.3,69.4-86.3c235.3,219.7,569.2,357,939.4,357c250.4,0,484.3-62.8,682.2-171.4c71.8,144.3,220.8,243.5,393,243.4
				c242.1-0.1,438.4-196.4,438.4-438.5v-0.2C2999.9,2185.1,2880,2023.8,2712,1962.5z M496.5,2367.1c-2.2,2.9-579.7-267.1-331-712
				S1364,547.3,2629.2,773.3c6.7,1.2,286.5,555.4,85.2,606.4C2714.4,1379.7,1408.7,1192.7,496.5,2367.1z M2376.6,1438.2
				c2.4,23,32.6,38.7,67.3,34.9c34.7-3.7,60.8-25.3,58.4-48.3c-0.4-3.6-1.4-7-3.1-10.2c51.8-0.3,96.6,1.3,133.4,3.5
				c-3.7,57.5-90.2,106.6-198.2,111.1c-109.6,4.5-200.6-38.4-207-96.6c54.7-6.8,106.3-11.3,154.1-14.1
				C2377.7,1424.6,2375.8,1431.3,2376.6,1438.2z M1586.9,1632.9c-4.1-9-9.9-16.9-17.2-23.6c107.4-45.5,211.8-80.8,311.2-108
				c0.2,0.6,0.5,1.2,0.7,1.9c51.6,138.8-115.7,329.2-373.8,425.2c-196.4,73.1-388.8,70.4-492.3,3.9
				c94.5-72.1,189.2-134.4,282.9-188.2c1,5.5,2.6,10.8,4.9,15.9c23.2,51.8,105.5,65.3,183.8,30.2
				C1565.4,1755.1,1610.1,1684.7,1586.9,1632.9z M2141.2,2500.1c-181.7,96.9-394.5,152.6-621.9,152.6
				c-356.3,0-676.6-136.8-898.1-354.4c67.3-75.1,135.6-143.9,204.4-207c176.1,15.6,570,32.8,831.5-90
				c345.4-162.3,476.1-441.1,476.1-441.1s210.1,96,350.8,70.2c120.3-22.1,214.5-131,239.2-162.1c4.1,36,6.2,72.5,6.2,109.5
				c0,129.5-25.8,253.6-73,368.5c-30.6-6.8-62.5-10.3-95.1-10.3c-242.2,0.1-438.5,196.5-438.4,438.7
				C2122.9,2418.2,2129.3,2460.3,2141.2,2500.1z M2561.6,2744.4c-213.6,0-386.7-173.1-386.7-386.7S2348,1971,2561.6,1971
				c213.5,0,386.6,173.1,386.7,386.7C2948.3,2571.3,2775.2,2744.4,2561.6,2744.4z"/>
		</g>
	</g>
</g>
</svg>
