<?xml version="1.0" encoding="utf-8"?>
<!-- Generator: Adobe Illustrator 27.9.0, SVG Export Plug-In . SVG Version: 6.00 Build 0)  -->
<svg version="1.1" id="attkzach_logo" xmlns="http://www.w3.org/2000/svg" xmlns:xlink="http://www.w3.org/1999/xlink" x="0px"
	 y="0px" viewBox="0 0 3000 2813" enable-background="new 0 0 3000 2813" xml:space="preserve">
<g id="Face">
	<path fill-rule="evenodd" clip-rule="evenodd" d="M1486.4,470.4c712.7,0,1290.5,508.3,1290.5,1135.3s-577.8,1135.2-1290.5,1135.2
		S195.9,2232.5,195.9,1605.6S773.7,470.4,1486.4,470.4z"/>
	
		<radialGradient id="SVGID_1_" cx="1519.2054" cy="1236.4265" r="1074.9618" gradientTransform="matrix(1 0 0 -1 0 2814)" gradientUnits="userSpaceOnUse">
		<stop  offset="0" style="stop-color:#E0C9B7"/>
		<stop  offset="0.518" style="stop-color:#E0C9B7"/>
		<stop  offset="1" style="stop-color:#A98D81"/>
	</radialGradient>
	<path fill-rule="evenodd" clip-rule="evenodd" fill="url(#SVGID_1_)" d="M1519.2,502.5c668.3,0,1210.2,481.3,1210.2,1075.1
		s-541.8,1075-1210.2,1075S309,2171.3,309,1577.6S850.8,502.5,1519.2,502.5z"/>
	<path fill-rule="evenodd" clip-rule="evenodd" fill="#966664" d="M2200.5,2149.5c52.6,0,95.2,35.9,95.2,80.2s-42.6,80.2-95.2,80.2
		c-52.6,0-95.2-35.9-95.2-80.2S2147.9,2149.5,2200.5,2149.5z"/>
	<path fill-rule="evenodd" clip-rule="evenodd" d="M735,2081.3c0,0,576.7,82.1,922.1-80.2c345.4-162.3,476.1-441.1,476.1-441.1
		s210.1,96,350.8,70.2c140.7-25.9,245.6-170.4,245.6-170.4l-40.1-210.5l-1413.2,90.2L609.7,1946L735,2081.3z"/>
	
		<linearGradient id="SVGID_00000083802912857636366230000017485338101886099357_" gradientUnits="userSpaceOnUse" x1="1414.2864" y1="831.4069" x2="1414.2864" y2="1442.7255" gradientTransform="matrix(1 0 0 -1 0 2814)">
		<stop  offset="0" style="stop-color:#C7D1D2"/>
		<stop  offset="1" style="stop-color:#FBFDFC"/>
	</linearGradient>
	<path fill-rule="evenodd" clip-rule="evenodd" fill="url(#SVGID_00000083802912857636366230000017485338101886099357_)" d="
		M1320.8,1425.6c258.1-96.1,509.2-61.4,560.8,77.4c51.6,138.8-115.7,329.2-373.8,425.2s-509.2,61.4-560.8-77.4
		S1062.7,1521.7,1320.8,1425.6z"/>
	
		<radialGradient id="SVGID_00000039121689118942248260000004412903891701868171_" cx="1445.1117" cy="1117.611" r="113.2065" gradientTransform="matrix(1 0 0 -1 0 2814)" gradientUnits="userSpaceOnUse">
		<stop  offset="0" style="stop-color:#9AD5FF"/>
		<stop  offset="1" style="stop-color:#33ABFF"/>
	</radialGradient>
	<path fill-rule="evenodd" clip-rule="evenodd" fill="url(#SVGID_00000039121689118942248260000004412903891701868171_)" d="
		M1403.1,1602.6c78.3-35.1,160.6-21.6,183.8,30.2s-21.5,122.2-99.8,157.3c-78.3,35.1-160.6,21.6-183.8-30.2
		C1280.2,1708.2,1324.8,1637.8,1403.1,1602.6z"/>
	
		<linearGradient id="Ellipse_3_copy_00000079453024341254167180000010489170720479560581_" gradientUnits="userSpaceOnUse" x1="2429.8152" y1="1284.9691" x2="2429.8152" y2="1503.2068" gradientTransform="matrix(1 0 0 -1 0 2814)">
		<stop  offset="0" style="stop-color:#C7D1D2"/>
		<stop  offset="1" style="stop-color:#FBFDFC"/>
	</linearGradient>
	
		<path id="Ellipse_3_copy" fill-rule="evenodd" clip-rule="evenodd" fill="url(#Ellipse_3_copy_00000079453024341254167180000010489170720479560581_)" d="
		M2425.4,1310.9c112-4.6,204.8,40.4,207.3,100.7c2.5,60.2-86.3,112.8-198.3,117.4c-112.1,4.6-204.8-40.4-207.3-100.7
		C2224.5,1368.2,2313.3,1315.6,2425.4,1310.9z"/>
	
		<radialGradient id="Ellipse_4_copy_00000017516286227268012100000009095534663667036328_" cx="2439.4238" cy="1382.5649" r="41.8978" gradientTransform="matrix(1 0 0 -1 0 2814)" gradientUnits="userSpaceOnUse">
		<stop  offset="0" style="stop-color:#9AD5FF"/>
		<stop  offset="1" style="stop-color:#33ABFF"/>
	</radialGradient>
	
		<path id="Ellipse_4_copy" fill-rule="evenodd" clip-rule="evenodd" fill="url(#Ellipse_4_copy_00000017516286227268012100000009095534663667036328_)" d="
		M2435,1389.8c34.7-3.7,64.9,11.9,67.3,34.9c2.4,23-23.7,44.6-58.4,48.3c-34.7,3.8-64.9-11.9-67.3-34.9
		C2374.1,1415.2,2400.2,1393.5,2435,1389.8z"/>
	
		<linearGradient id="SVGID_00000127023134310328716450000013865750338036044468_" gradientUnits="userSpaceOnUse" x1="1812.1864" y1="767.3878" x2="1812.1864" y2="1561.7079" gradientTransform="matrix(1 0 0 -1 0 2814)">
		<stop  offset="0" style="stop-color:#000000;stop-opacity:0.251"/>
		<stop  offset="1" style="stop-color:#000000;stop-opacity:0.251"/>
	</linearGradient>
	<path fill-rule="evenodd" clip-rule="evenodd" fill="url(#SVGID_00000127023134310328716450000013865750338036044468_)" d="
		M2696.7,1417.7c0,0-946.5,23.2-1703.8,626.5c-47.6,38-65.2-385.9-65.2-385.9l1713.8-406L2696.7,1417.7z"/>
</g>
<g id="Bubble">
	
		<radialGradient id="SVGID_00000130637881753426979050000004894430367744252348_" cx="2564.0596" cy="452.1201" r="420.8497" gradientTransform="matrix(1 0 0 -1 0 2814)" gradientUnits="userSpaceOnUse">
		<stop  offset="0" style="stop-color:#E5E9EC"/>
		<stop  offset="6.000000e-03" style="stop-color:#E5E9EC;stop-opacity:0.251"/>
		<stop  offset="1" style="stop-color:#E5E9EC;stop-opacity:0.8"/>
	</radialGradient>
	<path fill-rule="evenodd" clip-rule="evenodd" fill="url(#SVGID_00000130637881753426979050000004894430367744252348_)" d="
		M2564.1,1940.9c232.5,2.7,418.8,193.4,416.1,425.9c-2.7,232.5-193.4,418.8-425.9,416.1c-230.6-2.7-416.1-190.4-416.1-421
		C2139.5,2128,2330.2,1939.5,2564.1,1940.9z"/>
	
		<linearGradient id="SVGID_00000043437250086138158150000012497843402138746502_" gradientUnits="userSpaceOnUse" x1="2561.4431" y1="1.0434" x2="2561.4431" y2="878.161" gradientTransform="matrix(1 0 0 -1 0 2814)">
		<stop  offset="0" style="stop-color:#E5E9EC"/>
		<stop  offset="1" style="stop-color:#FFFFFF"/>
	</linearGradient>
	<path fill-rule="evenodd" clip-rule="evenodd" fill="url(#SVGID_00000043437250086138158150000012497843402138746502_)" d="
		M2561.6,2813c-242.2,0.1-438.6-196.2-438.7-438.4c-0.1-242.2,196.2-438.6,438.4-438.7c242.2-0.1,438.6,196.2,438.7,438.4
		c0,0.1,0,0.1,0,0.2C3000,2616.6,2803.7,2812.9,2561.6,2813z M2561.6,1970.9c-213.6,0-386.7,173.1-386.7,386.7
		c0,213.6,173.1,386.7,386.7,386.7c213.6,0,386.7-173.1,386.7-386.7l0,0C2948.2,2144,2775.1,1970.9,2561.6,1970.9z M2561.6,2296.7
		c-123.2,0-223-69.6-223-155.4c0-85.8,99.8-155.4,223-155.4c123.2,0,223,69.6,223,155.4S2684.7,2296.7,2561.6,2296.7z"/>
</g>
<g id="Beanie">
	<path id="Shape_3_copy" fill-rule="evenodd" clip-rule="evenodd" d="M79,1762.2c0,0-431.2-1257.7,720.9-1684.1
		c763.6-282.6,1695.9,257.1,1836.3,726.3C2778.4,1279.4,79,1762.2,79,1762.2z"/>
	
		<linearGradient id="SVGID_00000165942483248673888700000015124683388721474711_" gradientUnits="userSpaceOnUse" x1="1321.6643" y1="1093.5486" x2="1321.6643" y2="2767.4985" gradientTransform="matrix(1 0 0 -1 0 2814)">
		<stop  offset="0" style="stop-color:#4A515B"/>
		<stop  offset="1" style="stop-color:#818994"/>
	</linearGradient>
	<path fill-rule="evenodd" clip-rule="evenodd" fill="url(#SVGID_00000165942483248673888700000015124683388721474711_)" d="
		M138.6,1720.5c0,0-410.7-1197.8,686.5-1603.9c727.3-269.2,1621.1,296.5,1748.9,691.7C2719.4,1257.5,138.6,1720.5,138.6,1720.5z"/>
	
		<linearGradient id="SVGID_00000170258924965028583280000009151848673292360590_" gradientUnits="userSpaceOnUse" x1="1312.4418" y1="1135.6827" x2="1312.4418" y2="2185.4609" gradientTransform="matrix(1 0 0 -1 0 2814)">
		<stop  offset="0" style="stop-color:#000000;stop-opacity:0.251"/>
		<stop  offset="1" style="stop-color:#000000;stop-opacity:0.251"/>
	</linearGradient>
	<path fill-rule="evenodd" clip-rule="evenodd" fill="url(#SVGID_00000170258924965028583280000009151848673292360590_)" d="
		M2561.3,721c0,0-1314-486.4-2485.5,771.9c-47.6,51.2,60.1,185.4,60.1,185.4L2561.3,721z"/>
	<path id="Shape_2_copy" fill-rule="evenodd" clip-rule="evenodd" d="M2747.6,1429.7c0,0-1287.8-223.3-2270,1040.6
		c-2.4,3.1-635.8-353.9-364.3-835.7s1283-1186.7,2593.4-900.7C2713.4,735.4,3001.2,1375.5,2747.6,1429.7z"/>
	
		<linearGradient id="SVGID_00000029004024699304282480000018253494497260899751_" gradientUnits="userSpaceOnUse" x1="1445.2122" y1="446.9966" x2="1445.2122" y2="2086.5276" gradientTransform="matrix(1 0 0 -1 0 2814)">
		<stop  offset="0" style="stop-color:#4A515B"/>
		<stop  offset="1" style="stop-color:#A0A7B1"/>
	</linearGradient>
	<path fill-rule="evenodd" clip-rule="evenodd" fill="url(#SVGID_00000029004024699304282480000018253494497260899751_)" d="
		M2714.4,1379.6c0,0-1305.7-187-2217.9,987.4c-2.2,2.9-579.7-267.1-331-712S1364,547.2,2629.2,773.2
		C2635.9,774.4,2915.7,1328.6,2714.4,1379.6z"/>
</g>
</svg>
