<?xml version="1.0" encoding="utf-8"?>
<!-- Generator: Adobe Illustrator 27.9.0, SVG Export Plug-In . SVG Version: 6.00 Build 0)  -->
<svg version="1.1" id="attkzach_logo" xmlns="http://www.w3.org/2000/svg" xmlns:xlink="http://www.w3.org/1999/xlink" x="0px"
	 y="0px" viewBox="0 0 3000 2813" enable-background="new 0 0 3000 2813" xml:space="preserve">
<g id="Face_00000179644359600683139840000009677059016098695313_">
	<path fill-rule="evenodd" clip-rule="evenodd" d="M1486.4,470.4c712.7,0,1290.5,508.3,1290.5,1135.3s-577.8,1135.2-1290.5,1135.2
		S195.9,2232.5,195.9,1605.6S773.7,470.4,1486.4,470.4z"/>
	<path fill-rule="evenodd" clip-rule="evenodd" fill="#FFFFFF" d="M1519.2,502.5c668.3,0,1210.2,481.3,1210.2,1075.1
		s-541.8,1075-1210.2,1075S309,2171.3,309,1577.6S850.8,502.5,1519.2,502.5z"/>
	<path fill-rule="evenodd" clip-rule="evenodd" d="M735,2081.3c0,0,576.7,82.1,922.1-80.2c345.4-162.3,476.1-441.1,476.1-441.1
		s210.1,96,350.8,70.2c140.7-25.9,245.6-170.4,245.6-170.4l-40.1-210.5l-1413.2,90.2L609.7,1946L735,2081.3z"/>
	<path fill-rule="evenodd" clip-rule="evenodd" fill="#FFFFFF" d="M1320.8,1425.6c258.1-96.1,509.2-61.4,560.8,77.4
		c51.6,138.8-115.7,329.2-373.8,425.2s-509.2,61.4-560.8-77.4S1062.7,1521.7,1320.8,1425.6z"/>
	<path fill-rule="evenodd" clip-rule="evenodd" d="M1403.1,1602.6c78.3-35.1,160.6-21.6,183.8,30.2s-21.5,122.2-99.8,157.3
		c-78.3,35.1-160.6,21.6-183.8-30.2C1280.2,1708.2,1324.8,1637.8,1403.1,1602.6z"/>
	
		<path id="Ellipse_3_copy_00000162337019549895167560000006715706124404896925_" fill-rule="evenodd" clip-rule="evenodd" fill="#FFFFFF" d="
		M2425.4,1310.9c112-4.6,204.8,40.4,207.3,100.7c2.5,60.2-86.3,112.8-198.3,117.4c-112.1,4.6-204.8-40.4-207.3-100.7
		C2224.5,1368.2,2313.3,1315.6,2425.4,1310.9z"/>
	<path id="Ellipse_4_copy_00000173864451301564199720000009452610823148406705_" fill-rule="evenodd" clip-rule="evenodd" d="
		M2435,1389.8c34.7-3.7,64.9,11.9,67.3,34.9c2.4,23-23.7,44.6-58.4,48.3c-34.7,3.8-64.9-11.9-67.3-34.9
		C2374.1,1415.2,2400.2,1393.5,2435,1389.8z"/>
</g>
<g id="Bubble_00000005952784160423354340000015989138139889306795_">
	<path fill-rule="evenodd" clip-rule="evenodd" fill="#FFFFFF" d="M2564.1,1940.9c232.5,2.7,418.8,193.4,416.1,425.9
		c-2.7,232.5-193.4,418.8-425.9,416.1c-230.6-2.7-416.1-190.4-416.1-421C2139.5,2128,2330.2,1939.5,2564.1,1940.9z"/>
	<path fill-rule="evenodd" clip-rule="evenodd" d="M2561.6,2813c-242.2,0.1-438.6-196.2-438.7-438.4
		c-0.1-242.2,196.2-438.6,438.4-438.7c242.2-0.1,438.6,196.2,438.7,438.4c0,0.1,0,0.1,0,0.2C3000,2616.6,2803.7,2812.9,2561.6,2813z
		 M2561.6,1970.9c-213.6,0-386.7,173.1-386.7,386.7c0,213.6,173.1,386.7,386.7,386.7c213.6,0,386.7-173.1,386.7-386.7l0,0
		C2948.2,2144,2775.1,1970.9,2561.6,1970.9z M2561.6,2296.7c-123.2,0-223-69.6-223-155.4c0-85.8,99.8-155.4,223-155.4
		c123.2,0,223,69.6,223,155.4S2684.7,2296.7,2561.6,2296.7z"/>
</g>
<g id="Beanie_00000008127583333526214290000016787396083446344582_">
	<path id="Shape_3_copy_00000041980021299725117620000015299373956549984701_" fill-rule="evenodd" clip-rule="evenodd" d="
		M79,1762.2c0,0-431.2-1257.7,720.9-1684.1c763.6-282.6,1695.9,257.1,1836.3,726.3C2778.4,1279.4,79,1762.2,79,1762.2z"/>
	<path fill-rule="evenodd" clip-rule="evenodd" fill="#FFFFFF" d="M138.6,1720.5c0,0-410.7-1197.8,686.5-1603.9
		c727.3-269.2,1621.1,296.5,1748.9,691.7C2719.4,1257.5,138.6,1720.5,138.6,1720.5z"/>
	<path id="Shape_2_copy_00000018238381261789074160000015757438493449256326_" fill-rule="evenodd" clip-rule="evenodd" d="
		M2747.6,1429.7c0,0-1287.8-223.3-2270,1040.6c-2.4,3.1-635.8-353.9-364.3-835.7s1283-1186.7,2593.4-900.7
		C2713.4,735.4,3001.2,1375.5,2747.6,1429.7z"/>
	<path fill-rule="evenodd" clip-rule="evenodd" fill="#FFFFFF" d="M2714.4,1379.6c0,0-1305.7-187-2217.9,987.4
		c-2.2,2.9-579.7-267.1-331-712S1364,547.2,2629.2,773.2C2635.9,774.4,2915.7,1328.6,2714.4,1379.6z"/>
</g>
</svg>
