<?xml version="1.0" encoding="utf-8"?>
<!-- Generator: Adobe Illustrator 27.9.0, SVG Export Plug-In . SVG Version: 6.00 Build 0)  -->
<svg version="1.1" id="attkzach_logo" xmlns="http://www.w3.org/2000/svg" xmlns:xlink="http://www.w3.org/1999/xlink" x="0px"
	 y="0px" viewBox="0 0 3000 2813" style="enable-background:new 0 0 3000 2813;" xml:space="preserve">
<style type="text/css">
	.st0{clip-path:url(#SVGID_00000000195350984853095150000002444491784586466227_);}
	.st1{clip-path:url(#SVGID_00000090279158507600179090000007612138936444138166_);}
	.st2{fill-rule:evenodd;clip-rule:evenodd;fill:#FFFFFF;}
	.st3{clip-path:url(#SVGID_00000029018937822989464080000007146440409715240326_);}
	.st4{fill:#FFFFFF;}
	.st5{clip-path:url(#SVGID_00000093878416030709017950000018145180194276987264_);}
</style>
<g id="Face_00000046337452550169831300000001058702333319944879_">
	<g>
		<defs>
			<polygon id="SVGID_1_" points="436.3,2167.2 376.9,2713 2269,2847.5 2147.1,2419 2579.9,1959.3 2784.6,1996.8 2969.6,1361.9 
				1868.7,1114.9 376.9,1762.2 			"/>
		</defs>
		<clipPath id="SVGID_00000010272349780825262160000012714403592160671649_">
			<use xlink:href="#SVGID_1_"  style="overflow:visible;"/>
		</clipPath>
		<g style="clip-path:url(#SVGID_00000010272349780825262160000012714403592160671649_);">
			<defs>
				<polygon id="SVGID_00000165955019117617647410000001114158933862141578_" points="514.5,2374.5 652.1,2212.6 2663.1,1505.8 
					2816.3,1343.2 3235.4,1649.7 3213.5,2856.9 993,2991.3 502,2616 				"/>
			</defs>
			<clipPath id="SVGID_00000061437383932494812020000009514325114644996277_">
				<use xlink:href="#SVGID_00000165955019117617647410000001114158933862141578_"  style="overflow:visible;"/>
			</clipPath>
			<g style="clip-path:url(#SVGID_00000061437383932494812020000009514325114644996277_);">
				<g>
					<g>
						<path class="st2" d="M1486.4,470.4c-712.7,0-1290.5,508.3-1290.5,1135.2s577.8,1135.3,1290.5,1135.3
							s1290.5-508.2,1290.5-1135.2S2199.1,470.4,1486.4,470.4z M1519.2,2652.6c-668.4,0-1210.2-481.3-1210.2-1075
							S850.8,502.5,1519.2,502.5c668.3,0,1210.2,481.3,1210.2,1075.1S2187.6,2652.6,1519.2,2652.6z"/>
					</g>
				</g>
			</g>
		</g>
	</g>
	<g>
		<defs>
			<polygon id="SVGID_00000183247502344684421480000000169835106341509295_" points="730.3,2128.2 1068.1,1849.8 1537.2,1590.2 
				1996.9,1431.4 2456.7,1389.3 2763.2,1402.6 2878.9,1512 1074.3,2419 			"/>
		</defs>
		<clipPath id="SVGID_00000055665134491181140750000009288827692100123562_">
			<use xlink:href="#SVGID_00000183247502344684421480000000169835106341509295_"  style="overflow:visible;"/>
		</clipPath>
		<g style="clip-path:url(#SVGID_00000055665134491181140750000009288827692100123562_);">
			<g>
				<path class="st2" d="M1403.1,1602.6c78.3-35.1,160.6-21.6,183.8,30.2s-21.5,122.2-99.8,157.3c-78.3,35.1-160.6,21.6-183.8-30.2
					C1280.2,1708.2,1324.8,1637.8,1403.1,1602.6z M735,2081.3c0,0,576.7,82.1,922.1-80.2s476.1-441.1,476.1-441.1
					s210.1,96,350.8,70.2c140.7-25.9,245.6-170.4,245.6-170.4l-40.1-210.5l-1413.2,90.2L609.7,1946L735,2081.3z M1320.8,1425.6
					c258.1-96.1,509.2-61.4,560.8,77.4c51.6,138.8-115.7,329.2-373.8,425.2s-509.2,61.4-560.8-77.4S1062.7,1521.7,1320.8,1425.6z
					 M2425.4,1310.9c112-4.6,204.8,40.4,207.3,100.7c2.5,60.2-86.3,112.8-198.3,117.4c-112.1,4.6-204.8-40.4-207.3-100.7
					C2224.5,1368.2,2313.3,1315.6,2425.4,1310.9z M2435,1389.8c34.7-3.7,64.9,11.9,67.3,34.9c2.4,23-23.7,44.6-58.4,48.3
					c-34.7,3.8-64.9-11.9-67.3-34.9C2374.1,1415.2,2400.2,1393.5,2435,1389.8z"/>
			</g>
		</g>
	</g>
</g>
<g id="Bubble_00000052802958786454541190000013463303233299030962_">
	<g>
		<g>
			<path class="st4" d="M2561.3,1935.9c-242.2,0.1-438.5,196.5-438.4,438.7c0.1,242.2,196.5,438.5,438.7,438.4
				c242.1-0.1,438.4-196.4,438.4-438.5c0-0.1,0-0.1,0-0.2C2999.9,2132.1,2803.5,1935.8,2561.3,1935.9z M2561.6,2744.3
				c-213.6,0-386.7-173.1-386.7-386.7s173.1-386.7,386.7-386.7c213.5,0,386.6,173.1,386.7,386.7
				C2948.3,2571.2,2775.2,2744.3,2561.6,2744.3z"/>
			<ellipse class="st4" cx="2561.6" cy="2141.3" rx="223" ry="155.4"/>
		</g>
	</g>
</g>
<g id="Beanie_00000002377090195868613590000007629147020507266951_">
	<g>
		<defs>
			<polygon id="SVGID_00000183214774998014882870000007692025654352384152_" points="2469.2,727.5 2660,752.1 1940.6,-289.4 
				-514.4,67.1 -92.2,1881.1 86,1799.8 186.1,1518.3 455.1,1243.1 924.2,946 1355.8,783.3 1706.1,705.2 2068.9,683.3 			"/>
		</defs>
		<clipPath id="SVGID_00000137824478144952996450000005504314045668765624_">
			<use xlink:href="#SVGID_00000183214774998014882870000007692025654352384152_"  style="overflow:visible;"/>
		</clipPath>
		<g style="clip-path:url(#SVGID_00000137824478144952996450000005504314045668765624_);">
			<g>
				<path class="st2" d="M79,1762.2c0,0-431.2-1257.7,720.9-1684.1c763.6-282.6,1695.9,257.1,1836.3,726.3
					C2778.4,1279.4,79,1762.2,79,1762.2z M138.6,1720.5c0,0-410.7-1197.8,686.5-1603.9C1552.4-152.6,2446.2,413.1,2574,808.3
					C2719.4,1257.5,138.6,1720.5,138.6,1720.5z"/>
			</g>
		</g>
	</g>
	<g>
		<g>
			<path class="st2" d="M2747.6,1429.7c0,0-1287.8-223.3-2270,1040.6c-2.4,3.1-635.8-353.9-364.3-835.7s1283-1186.7,2593.4-900.7
				C2713.4,735.4,3001.2,1375.5,2747.6,1429.7z M2714.4,1379.6c0,0-1305.7-187-2217.9,987.4c-2.2,2.9-579.7-267.1-331-712
				S1364,547.2,2629.2,773.2C2635.9,774.4,2915.7,1328.6,2714.4,1379.6z"/>
		</g>
	</g>
</g>
</svg>
