<?xml version="1.0" encoding="utf-8"?>
<!-- Generator: Adobe Illustrator 27.9.0, SVG Export Plug-In . SVG Version: 6.00 Build 0)  -->
<svg version="1.1" id="a" xmlns="http://www.w3.org/2000/svg" xmlns:xlink="http://www.w3.org/1999/xlink" x="0px" y="0px"
	 viewBox="0 0 3000 2813" style="enable-background:new 0 0 3000 2813;" xml:space="preserve">
<style type="text/css">
	.st0{fill:#FFFFFF;}
</style>
<ellipse class="st0" cx="2561.6" cy="2141.4" rx="223" ry="155.4"/>
<path class="st0" d="M2712,1962.5c42.2-112.2,65-232.1,65-356.7c-0.1-61.1-5.6-121-16.2-179.5c230-73.6-47.6-690.8-54.1-692.3
	c-36.1-7.9-71.9-15-107.5-21.4c-25.7-4.6-51.2-8.8-76.6-12.7C1303.3,514.5,373.8,1174.4,114.1,1633.3
	c-69.4-283-206.9-1176.9,711-1516.6c662.8-245.3,1463.8,202.7,1697.5,583.2c25.4,3.9,51,8.1,76.6,12.7
	C2375.6,268.8,1514-186.1,799.9,78.2C-246.5,465.5,13.2,1538.6,69.7,1732.2c-143.8,431.7,405.7,741.1,407.9,738.2
	c23-29.6,46.1-58.3,69.4-86.3c235.3,219.7,569.2,356.9,939.4,356.9c250.5,0,484.2-62.8,682.2-171.4
	c71.8,144.4,220.9,243.6,393,243.5c242.1-0.1,438.4-196.4,438.4-438.5v-0.2C2999.9,2185.1,2880,2023.9,2712,1962.5z M1881.6,1503.1
	c51.6,138.8-115.7,329.2-373.8,425.2c-196.5,73.1-388.8,70.4-492.2,3.9c94.4-72,189.1-134.3,282.7-188.1c1,5.5,2.6,10.8,4.9,16
	c23.3,51.7,105.6,65.2,183.9,30.1c78.3-35.1,123-105.5,99.8-157.3c-4.1-9-9.9-16.9-17.3-23.5c107.4-45.5,211.9-80.8,311.3-108
	C1881.2,1501.9,1881.4,1502.5,1881.6,1503.1z M2381.5,1418.4c-3.8,6.1-5.6,12.8-4.9,19.6c2.4,23.1,32.6,38.8,67.3,35
	c34.7-3.7,60.8-25.3,58.4-48.3c-0.4-3.6-1.4-7-3.1-10.2c51.8-0.3,96.6,1.3,133.4,3.5c-3.8,57.5-90.2,106.5-198.2,111
	c-109.5,4.5-200.5-38.3-207-96.5C2282.2,1425.7,2333.8,1421.2,2381.5,1418.4z M165.5,1655.1C414.2,1210.2,1364,547.3,2629.2,773.3
	c6.7,1.2,286.5,555.4,85.2,606.4c0,0-1305.7-187-2217.9,987.4C494.3,2370-83.2,2100,165.5,1655.1z M1519.2,2652.7
	c-356.3,0-676.6-136.8-898.1-354.4c67.3-75.1,135.6-144,204.5-207.1c176.1,15.6,570,32.8,831.5-90
	c345.4-162.3,476.1-441.1,476.1-441.1s210.1,96,350.8,70.2c120.3-22.1,214.5-131,239.2-162.1c4.1,36,6.2,72.5,6.2,109.5
	c0,129.5-25.8,253.6-73,368.6c-30.7-6.8-62.5-10.3-95.2-10.3c-242.2,0.1-438.5,196.5-438.4,438.7c0,43.6,6.4,85.6,18.2,125.3
	C1959.4,2597,1746.6,2652.7,1519.2,2652.7z M2561.6,2744.4c-213.6,0-386.7-173.1-386.7-386.7S2348,1971,2561.6,1971
	c213.5,0,386.6,173.1,386.7,386.7C2948.3,2571.3,2775.2,2744.4,2561.6,2744.4z"/>
</svg>
