<?xml version="1.0" standalone="no"?>
<!DOCTYPE svg PUBLIC "-//W3C//DTD SVG 1.1//EN" "http://www.w3.org/Graphics/SVG/1.1/DTD/svg11.dtd" >
<svg xmlns="http://www.w3.org/2000/svg" xmlns:xlink="http://www.w3.org/1999/xlink" version="1.1">
<metadata>
Created by FontForge 20201107 at Fri Nov 24 20:59:47 2023
 By 
Copyright 2020-2023 Google LLC.  All Rights Reserved.
</metadata>
<defs>
<font id="MaterialSymbolsRounded48pt-Regular" horiz-adv-x="960" >
  <font-face 
    font-family="Material Symbols Rounded 48pt"
    font-weight="400"
    font-stretch="normal"
    units-per-em="960"
    panose-1="5 10 1 3 1 2 2 2 2 2"
    ascent="768"
    descent="-192"
    cap-height="683"
    bbox="-8 -91 961.378 961"
    underline-thickness="0"
    underline-position="0"
    unicode-range="U+000D-F8FF"
  />
<missing-glyph 
d="M200 -1v961h560v-961h-560zM281 124l177 358l-177 358v-716zM682 124v716l-181 -357zM301 81h357l-177 354zM481 526l176 356h-355z" />
    <glyph glyph-name="error" unicode="ERROR_CIRCLE_ROUNDED" 
d="M480 280q14 0 23.5 9.5t9.5 23.5t-9.5 23.5t-23.5 9.5t-23.5 -9.5t-9.5 -23.5t9.5 -23.5t23.5 -9.5zM483 433q13 0 21.5 8.5t8.5 21.5v193q0 13 -8.5 21.5t-21.5 8.5t-21.5 -8.5t-8.5 -21.5v-193q0 -13 8.5 -21.5t21.5 -8.5zM480 80q-82 0 -155 31.5t-127.5 86t-86 127.5
t-31.5 156q0 82 31.5 155t86 127t127.5 85.5t156 31.5q82 0 155 -31.5t127 -85.5t85.5 -127t31.5 -156q0 -82 -31.5 -155t-85.5 -127.5t-127 -86t-156 -31.5zM481 140q141 0 240 99.5t99 241.5q0 141 -99 240t-241 99q-141 0 -240.5 -99t-99.5 -241q0 -141 99.5 -240.5
t241.5 -99.5zM480 480v0v0v0v0v0v0v0v0z" />
    <glyph glyph-name="warning" unicode="REPORT_PROBLEM" 
d="M92 120q-9 0 -15.5 4t-10.5 11t-4.5 14.5t4.5 15.5l388 670q5 8 11.5 11.5t14.5 3.5t14.5 -3.5t11.5 -11.5l388 -670q5 -8 4.5 -15.5t-4.5 -14.5t-10.5 -11t-15.5 -4h-776zM144 180h672l-336 580zM484 237q13 0 21.5 8.5t8.5 21.5t-8.5 21.5t-21.5 8.5t-21.5 -8.5
t-8.5 -21.5t8.5 -21.5t21.5 -8.5zM484 348q13 0 21.5 8.5t8.5 21.5v164q0 13 -8.5 21.5t-21.5 8.5t-21.5 -8.5t-8.5 -21.5v-164q0 -13 8.5 -21.5t21.5 -8.5zM480 470v0v0v0z" />
    <glyph glyph-name="add_alert" unicode="ADD_ALERT" 
d="M190 200q-13 0 -21.5 8.5t-8.5 21.5t8.5 21.5t21.5 8.5h50v304q0 84 49.5 150.5t130.5 83.5v22q0 25 17.5 42.5t42.5 17.5t42.5 -17.5t17.5 -42.5v-22q81 -17 130.5 -83.5t49.5 -150.5v-304h50q13 0 21.5 -8.5t8.5 -21.5t-8.5 -21.5t-21.5 -8.5h-580zM480 502v0v0v0v0v0
v0v0zM480 80q-33 0 -56.5 23.5t-23.5 56.5h160q0 -33 -23.5 -56.5t-56.5 -23.5zM300 260h360v304q0 75 -52.5 127.5t-127.5 52.5t-127.5 -52.5t-52.5 -127.5v-304zM450 452v-54q0 -13 8.5 -21.5t21.5 -8.5t21.5 8.5t8.5 21.5v54h54q13 0 21.5 8.5t8.5 21.5t-8.5 21.5
t-21.5 8.5h-54v54q0 13 -8.5 21.5t-21.5 8.5t-21.5 -8.5t-8.5 -21.5v-54h-54q-13 0 -21.5 -8.5t-8.5 -21.5t8.5 -21.5t21.5 -8.5h54z" />
    <glyph glyph-name="notification_important" unicode="NOTIFICATION_IMPORTANT" 
d="M190 200q-13 0 -21.5 8.5t-8.5 21.5t8.5 21.5t21.5 8.5h50v304q0 84 49.5 150.5t130.5 83.5v22q0 25 17.5 42.5t42.5 17.5t42.5 -17.5t17.5 -42.5v-22q81 -17 130.5 -83.5t49.5 -150.5v-304h50q13 0 21.5 -8.5t8.5 -21.5t-8.5 -21.5t-21.5 -8.5h-580zM480 502v0v0v0v0v0
v0v0zM480 80q-33 0 -56.5 23.5t-23.5 56.5h160q0 -33 -23.5 -56.5t-56.5 -23.5zM300 260h360v304q0 75 -52.5 127.5t-127.5 52.5t-127.5 -52.5t-52.5 -127.5v-304zM480 426q13 0 21.5 8.5t8.5 21.5v154q0 13 -8.5 21.5t-21.5 8.5t-21.5 -8.5t-8.5 -21.5v-154
q0 -13 8.5 -21.5t21.5 -8.5zM480 320q14 0 23.5 9.5t9.5 23.5t-9.5 23.5t-23.5 9.5t-23.5 -9.5t-9.5 -23.5t9.5 -23.5t23.5 -9.5z" />
    <glyph glyph-name="qr_code_2" unicode="QR_CODE_&#x32;" 
d="M520 120v80h80v-80h-80zM440 200v200h80v-200h-80zM760 320v160h80v-160h-80zM680 480v80h80v-80h-80zM200 400v80h80v-80h-80zM120 480v80h80v-80h-80zM480 760v80h80v-80h-80zM170 650h140v140h-140v-140zM120 630v180q0 13 8.5 21.5t21.5 8.5h180q13 0 21.5 -8.5
t8.5 -21.5v-180q0 -13 -8.5 -21.5t-21.5 -8.5h-180q-13 0 -21.5 8.5t-8.5 21.5zM170 170h140v140h-140v-140zM120 150v180q0 13 8.5 21.5t21.5 8.5h180q13 0 21.5 -8.5t8.5 -21.5v-180q0 -13 -8.5 -21.5t-21.5 -8.5h-180q-13 0 -21.5 8.5t-8.5 21.5zM650 650h140v140h-140
v-140zM600 630v180q0 13 8.5 21.5t21.5 8.5h180q13 0 21.5 -8.5t8.5 -21.5v-180q0 -13 -8.5 -21.5t-21.5 -8.5h-180q-13 0 -21.5 8.5t-8.5 21.5zM680 120v120h-80v80h160v-120h80v-80h-160zM520 400v80h160v-80h-160zM360 400v80h-80v80h240v-80h-80v-80h-80zM400 600v160
h80v-80h80v-80h-160zM210 690v60h60v-60h-60zM210 210v60h60v-60h-60zM690 690v60h60v-60h-60z" />
    <glyph glyph-name="flutter_dash" unicode="FLUTTER_DASH" 
d="M295 320q-3 4 19.5 31.5t51.5 58.5q33 37 77 82q12 18 33 18t35 -16q12 -16 9 -36.5t-22 -29.5q-55 -33 -98 -58q-38 -21 -70 -37.5t-35 -12.5zM430 40q-5 0 -10 2t-8 7q-4 6 -8 16.5t-4 24.5q0 9 1 16.5t3 15.5q-27 5 -45.5 27t-18.5 51q0 4 3 21q-74 26 -119.5 83
t-58.5 147q-5 -5 -11 -8t-14 -3q-15 0 -37.5 22.5t-22.5 97.5q0 69 40.5 124.5t79.5 55.5q13 0 16.5 -11.5t3.5 -22.5q38 54 95.5 89t126.5 43q6 29 29 45.5t49 16.5v-40q4 6 10 10q5 4 12.5 7t17.5 3t17.5 -3t12.5 -7q6 -4 10 -10q-15 0 -25 -9t-13 -22q54 -14 100 -46
t78 -77q0 11 3.5 22.5t16.5 11.5q39 0 79.5 -55.5t40.5 -124.5q0 -75 -22.5 -97.5t-37.5 -22.5q-7 0 -13.5 2.5t-11.5 7.5q-14 -100 -68.5 -159.5t-144.5 -79.5q3 -14 13.5 -22.5t24.5 -8.5v0h23q7 0 12 -4t7 -10q5 -16 17.5 -30t23.5 -23q8 -7 7.5 -16.5t-8.5 -14.5
q-11 -8 -28 -14t-44 -8q-5 0 -10 2t-8 7q-4 6 -8 16.5t-4 24.5q0 9 1 16.5t3 15.5q-24 5 -40.5 22t-21.5 40q-15 -2 -30 -3t-32 -1q-26 0 -50.5 2.5t-47.5 7.5l-2 -10q0 -17 11.5 -28.5t28.5 -11.5v0h23q7 0 12 -4t7 -10q5 -16 17.5 -30t23.5 -23q8 -7 7.5 -16.5t-8.5 -14.5
q-11 -8 -28 -14t-44 -8zM750 431q5 20 7.5 42t2.5 47q0 116 -82 198t-198 82t-198 -82t-82 -198q0 -24 2.5 -46t7.5 -42q5 20 13.5 39.5t19.5 36.5q-6 14 -9.5 29.5t-3.5 32.5q0 63 43.5 106.5t106.5 43.5q29 0 54.5 -10.5t45.5 -28.5q20 18 45.5 28.5t54.5 10.5
q63 0 106.5 -43.5t43.5 -106.5q0 -17 -3.5 -32.5t-10.5 -29.5q11 -17 20 -36.5t14 -40.5zM480 240q87 0 146.5 27t92.5 81q0 3 0.5 6t0.5 6q0 30 -7 58t-21 53q-21 -23 -49.5 -37t-62.5 -14q-8 0 -16 1t-16 3q5 7 7.5 14.5t3.5 15.5q1 2 1 4v4q5 -1 10 -1.5t10 -0.5
q46 0 78 32t32 78t-32 78t-78 32q-20 0 -39 -7.5t-34 -21.5l-27 -24l-27 24q-15 14 -34 21.5t-39 7.5q-46 0 -78 -32t-32 -78q0 -41 25.5 -70.5t63.5 -37.5l-30 -33q-18 7 -33.5 17.5t-27.5 24.5q-14 -25 -21 -53t-7 -58v-10q34 -54 94 -82t146 -28zM580 500
q-25 0 -42.5 20.5t-17.5 49.5t17.5 49.5t42.5 20.5t42.5 -20.5t17.5 -49.5t-17.5 -49.5t-42.5 -20.5zM595 590q7 0 11 4.5t4 10.5t-4.5 10.5t-10.5 4.5q-7 0 -11 -4.5t-4 -10.5q0 -7 4.5 -11t10.5 -4zM380 500q-25 0 -42.5 20.5t-17.5 49.5t17.5 49.5t42.5 20.5t42.5 -20.5
t17.5 -49.5t-17.5 -49.5t-42.5 -20.5zM395 590q7 0 11 4.5t4 10.5t-4.5 10.5t-10.5 4.5q-7 0 -11 -4.5t-4 -10.5q0 -7 4.5 -11t10.5 -4z" />
    <glyph glyph-name="align_vertical_top" unicode="ALIGN_VERTICAL_TOP" 
d="M340 80q-21 0 -35.5 14.5t-14.5 35.5v540q0 21 14.5 35.5t35.5 14.5t35.5 -14.5t14.5 -35.5v-540q0 -21 -14.5 -35.5t-35.5 -14.5zM620 320q-21 0 -35.5 14.5t-14.5 35.5v300q0 21 14.5 35.5t35.5 14.5t35.5 -14.5t14.5 -35.5v-300q0 -21 -14.5 -35.5t-35.5 -14.5z
M110 820q-13 0 -21.5 8.5t-8.5 21.5t8.5 21.5t21.5 8.5h740q13 0 21.5 -8.5t8.5 -21.5t-8.5 -21.5t-21.5 -8.5h-740z" />
    <glyph glyph-name="align_horizontal_left" unicode="ALIGN_HORIZONTAL_LEFT" 
d="M110 80q-13 0 -21.5 8.5t-8.5 21.5v740q0 13 8.5 21.5t21.5 8.5t21.5 -8.5t8.5 -21.5v-740q0 -13 -8.5 -21.5t-21.5 -8.5zM290 290q-21 0 -35.5 14.5t-14.5 35.5t14.5 35.5t35.5 14.5h300q21 0 35.5 -14.5t14.5 -35.5t-14.5 -35.5t-35.5 -14.5h-300zM290 570
q-21 0 -35.5 14.5t-14.5 35.5t14.5 35.5t35.5 14.5h540q21 0 35.5 -14.5t14.5 -35.5t-14.5 -35.5t-35.5 -14.5h-540z" />
    <glyph glyph-name="align_horizontal_center" unicode="ALIGN_HORIZONTAL_CENTER" 
d="M450 110v180h-160q-21 0 -35.5 14.5t-14.5 35.5t14.5 35.5t35.5 14.5h160v180h-280q-21 0 -35.5 14.5t-14.5 35.5t14.5 35.5t35.5 14.5h280v180q0 13 8.5 21.5t21.5 8.5t21.5 -8.5t8.5 -21.5v-180h280q21 0 35.5 -14.5t14.5 -35.5t-14.5 -35.5t-35.5 -14.5h-280v-180h160
q21 0 35.5 -14.5t14.5 -35.5t-14.5 -35.5t-35.5 -14.5h-160v-180q0 -13 -8.5 -21.5t-21.5 -8.5t-21.5 8.5t-8.5 21.5z" />
    <glyph glyph-name="align_horizontal_right" unicode="ALIGN_HORIZONTAL_RIGHT" 
d="M850 80q-13 0 -21.5 8.5t-8.5 21.5v740q0 13 8.5 21.5t21.5 8.5t21.5 -8.5t8.5 -21.5v-740q0 -13 -8.5 -21.5t-21.5 -8.5zM370 290q-21 0 -35.5 14.5t-14.5 35.5t14.5 35.5t35.5 14.5h300q21 0 35.5 -14.5t14.5 -35.5t-14.5 -35.5t-35.5 -14.5h-300zM130 570
q-21 0 -35.5 14.5t-14.5 35.5t14.5 35.5t35.5 14.5h540q21 0 35.5 -14.5t14.5 -35.5t-14.5 -35.5t-35.5 -14.5h-540z" />
    <glyph glyph-name="align_vertical_center" unicode="ALIGN_VERTICAL_CENTER" 
d="M340 120q-21 0 -35.5 14.5t-14.5 35.5v280h-180q-13 0 -21.5 8.5t-8.5 21.5t8.5 21.5t21.5 8.5h180v280q0 21 14.5 35.5t35.5 14.5t35.5 -14.5t14.5 -35.5v-280h180v160q0 21 14.5 35.5t35.5 14.5t35.5 -14.5t14.5 -35.5v-160h180q13 0 21.5 -8.5t8.5 -21.5t-8.5 -21.5
t-21.5 -8.5h-180v-160q0 -21 -14.5 -35.5t-35.5 -14.5t-35.5 14.5t-14.5 35.5v160h-180v-280q0 -21 -14.5 -35.5t-35.5 -14.5z" />
    <glyph glyph-name="team_dashboard" unicode="TEAM_DASHBOARD" 
d="M180 120q-25 0 -42.5 17.5t-17.5 42.5v600q0 25 17.5 42.5t42.5 17.5h600q25 0 42.5 -17.5t17.5 -42.5v-600q0 -25 -17.5 -42.5t-42.5 -17.5h-600zM410 180v270h-230v-270v0v0h230zM470 180h310v0v0v270h-310v-270zM180 510h600v270v0v0h-600v0v0v-270z" />
    <glyph glyph-name="horizontal_distribute" unicode="HORIZONTAL_DISTRIBUTE" 
d="M110 80q-13 0 -21.5 8.5t-8.5 21.5v740q0 13 8.5 21.5t21.5 8.5t21.5 -8.5t8.5 -21.5v-740q0 -13 -8.5 -21.5t-21.5 -8.5zM480 280q-21 0 -35.5 14.5t-14.5 35.5v300q0 21 14.5 35.5t35.5 14.5t35.5 -14.5t14.5 -35.5v-300q0 -21 -14.5 -35.5t-35.5 -14.5zM850 80
q-13 0 -21.5 8.5t-8.5 21.5v740q0 13 8.5 21.5t21.5 8.5t21.5 -8.5t8.5 -21.5v-740q0 -13 -8.5 -21.5t-21.5 -8.5z" />
    <glyph glyph-name="align_vertical_bottom" unicode="ALIGN_VERTICAL_BOTTOM" 
d="M110 80q-13 0 -21.5 8.5t-8.5 21.5t8.5 21.5t21.5 8.5h740q13 0 21.5 -8.5t8.5 -21.5t-8.5 -21.5t-21.5 -8.5h-740zM340 240q-21 0 -35.5 14.5t-14.5 35.5v540q0 21 14.5 35.5t35.5 14.5t35.5 -14.5t14.5 -35.5v-540q0 -21 -14.5 -35.5t-35.5 -14.5zM620 240
q-21 0 -35.5 14.5t-14.5 35.5v300q0 21 14.5 35.5t35.5 14.5t35.5 -14.5t14.5 -35.5v-300q0 -21 -14.5 -35.5t-35.5 -14.5z" />
    <glyph glyph-name="bring_your_own_ip" unicode="BRING_YOUR_OWN_IP" 
d="M480 80q-84 0 -157 31.5t-127 85.5t-85 127.5t-31 157.5t31 156.5t85 126.5t127 84.5t157 30.5q23 0 45.5 -2.5t44.5 -7.5v-208q-14 45 -37 85.5t-53 72.5q-32 -27 -54 -71t-42 -119h186v-60h-197q-4 -31 -5 -49.5t-1 -38.5q0 -21 1 -40.5t5 -50.5h215q4 31 5 50.5
t1 40.5q0 20 -1 38.5t-5 49.5h61q3 -35 4 -53.5t1 -34.5q0 -22 -1.5 -41.5t-4.5 -49.5h160q7 24 9.5 44.5t2.5 46.5t-2.5 45t-9.5 43h63q5 -21 7 -43t2 -45q0 -84 -31 -157.5t-85 -127.5t-127 -85.5t-157 -31.5zM152 391h159q-3 27 -3.5 48.5t-0.5 42.5q0 25 1 44.5t4 43.5
h-160q-7 -24 -9.5 -43t-2.5 -45t2.5 -46.5t9.5 -44.5zM395 150q-25 38 -43 82t-30 99h-150q38 -71 88 -111.5t135 -69.5zM172 630h151q11 54 28 96.5t43 82.5q-75 -19 -131 -64t-91 -115zM480 138q35 36 58.5 82.5t38.5 110.5h-193q14 -60 37.5 -108t58.5 -85zM566 151
q72 23 129.5 69t92.5 111h-149q-13 -54 -30.5 -98t-42.5 -82zM660 690v160q0 13 8.5 21.5t21.5 8.5h160q13 0 21.5 -8.5t8.5 -21.5v-160q0 -13 -8.5 -21.5t-21.5 -8.5h-160q-13 0 -21.5 8.5t-8.5 21.5zM760 760h100v100h-100v-100z" />
    <glyph glyph-name="discover_tune" unicode="DISCOVER_TUNE" 
d="M550 590q-13 0 -21.5 8.5t-8.5 21.5t8.5 21.5t21.5 8.5h100v160q0 13 8.5 21.5t21.5 8.5t21.5 -8.5t8.5 -21.5v-160h100q13 0 21.5 -8.5t8.5 -21.5t-8.5 -21.5t-21.5 -8.5h-260zM680 120q-13 0 -21.5 8.5t-8.5 21.5v350q0 13 8.5 21.5t21.5 8.5t21.5 -8.5t8.5 -21.5v-350
q0 -13 -8.5 -21.5t-21.5 -8.5zM280 120q-13 0 -21.5 8.5t-8.5 21.5v150h-100q-13 0 -21.5 8.5t-8.5 21.5t8.5 21.5t21.5 8.5h260q13 0 21.5 -8.5t8.5 -21.5t-8.5 -21.5t-21.5 -8.5h-100v-150q0 -13 -8.5 -21.5t-21.5 -8.5zM280 420q-13 0 -21.5 8.5t-8.5 21.5v360
q0 13 8.5 21.5t21.5 8.5t21.5 -8.5t8.5 -21.5v-360q0 -13 -8.5 -21.5t-21.5 -8.5z" />
    <glyph glyph-name="album" unicode="ALBUM" 
d="M480 316q70 0 120 47.5t50 116.5q0 71 -49.5 120.5t-120.5 49.5q-69 0 -116.5 -50t-47.5 -120q0 -69 47.5 -116.5t116.5 -47.5zM480 440q-17 0 -28.5 11.5t-11.5 28.5t11.5 28.5t28.5 11.5t28.5 -11.5t11.5 -28.5t-11.5 -28.5t-28.5 -11.5zM480 80q-82 0 -155 31.5
t-127.5 86t-86 127.5t-31.5 155q0 83 31.5 156t86 127t127.5 85.5t155 31.5q83 0 156 -31.5t127 -85.5t85.5 -127t31.5 -156q0 -82 -31.5 -155t-85.5 -127.5t-127 -86t-156 -31.5zM480 140q142 0 241 99.5t99 240.5q0 142 -99 241t-241 99q-141 0 -240.5 -99t-99.5 -241
q0 -141 99.5 -240.5t240.5 -99.5zM480 480v0v0v0v0v0v0v0v0z" />
    <glyph glyph-name="artist" unicode="ARTIST" 
d="M692 160q-47 0 -76 29t-29 76t29 76t76 29q17 0 31 -4t25 -12v176q0 13 8.5 21.5t21.5 8.5h72q13 0 21.5 -8.5t8.5 -21.5t-8.5 -21.5t-21.5 -8.5h-53v-235q0 -47 -29 -76t-76 -29zM80 190v64q0 32 17 61.5t51 44.5q75 33 133.5 46.5t118.5 13.5q47 0 90.5 -7.5
t90.5 -24.5q-12 -11 -21 -22.5t-16 -25.5q-32 10 -68 15t-76 5q-58 0 -109 -11t-119 -43q-16 -8 -24 -22.5t-8 -29.5v-34h390q4 -19 11.5 -34t18.5 -26h-450q-13 0 -21.5 8.5t-8.5 21.5zM400 481q-66 0 -108 42t-42 108t42 108t108 42t108 -42t42 -108t-42 -108t-108 -42z
M400 541q39 0 64.5 25.5t25.5 64.5t-25.5 64.5t-64.5 25.5t-64.5 -25.5t-25.5 -64.5t25.5 -64.5t64.5 -25.5zM400 631v0v0v0v0v0v0v0v0zM400 220v0v0v0v0v0v0v0v0v0v0z" />
    <glyph glyph-name="av_timer" unicode="AV_TIMER" 
d="M480 120q-75 0 -140.5 28.5t-114 77t-77 114t-28.5 140.5t30.5 142t84.5 116q11 10 25 13t24 -7l228 -228q9 -9 9 -21t-9 -21t-21.5 -9t-21.5 9l-208 208q-39 -42 -60 -93.5t-21 -108.5q0 -125 87.5 -212.5t212.5 -87.5t212.5 87.5t87.5 212.5q0 118 -79 204.5t-197 94.5
v-70q0 -13 -8.5 -21.5t-21.5 -8.5t-21.5 8.5t-8.5 21.5v101q0 13 8.5 21.5t21.5 8.5q75 0 141.5 -28.5t116.5 -77t79 -114t29 -140.5t-28.5 -140.5t-77 -114t-114 -77t-140.5 -28.5zM260 444q-16 0 -27 11t-11 27t11 27t27 11t27 -11t11 -27t-11 -27t-27 -11zM478 223
q-16 0 -27 11t-11 27t11 27t27 11t27 -11t11 -27t-11 -27t-27 -11zM699 444q-16 0 -27 11t-11 27t11 27t27 11t27 -11t11 -27t-11 -27t-27 -11z" />
    <glyph glyph-name="closed_caption" unicode="CLOSED_CAPTION_OFF" 
d="M180 160q-24 0 -42 18t-18 42v520q0 24 18 42t42 18h600q24 0 42 -18t18 -42v-520q0 -24 -18 -42t-42 -18h-600zM180 220h600v0v0v520v0v0h-600v0v0v-520v0v0zM270 361h142q13 0 21.5 8.5t8.5 21.5v20q0 10 -6.5 16.5t-16.5 6.5h-4q-10 0 -16.5 -6.5t-6.5 -16.5v0v0v0
h-102v0v0v138v0v0h102v0v0v0q0 -10 6.5 -16.5t16.5 -6.5h4q10 0 16.5 6.5t6.5 16.5v20q0 13 -8.5 21.5t-21.5 8.5h-142q-13 0 -21.5 -8.5t-8.5 -21.5v-178q0 -13 8.5 -21.5t21.5 -8.5zM691 599h-142q-13 0 -21.5 -8.5t-8.5 -21.5v-178q0 -13 8.5 -21.5t21.5 -8.5h142
q13 0 21.5 8.5t8.5 21.5v20q0 10 -6.5 16.5t-16.5 6.5h-4q-10 0 -16.5 -6.5t-6.5 -16.5v0v0v0h-102v0v0v138v0v0h102v0v0v0q0 -10 6.5 -16.5t16.5 -6.5h4q10 0 16.5 6.5t6.5 16.5v20q0 13 -8.5 21.5t-21.5 8.5zM180 220v0v0v520v0v0v0v0v0v-520v0v0v0z" />
    <glyph glyph-name="equalizer" unicode="EQUALIZER" 
d="M230 160q-29 0 -49.5 20.5t-20.5 49.5v180q0 29 20.5 49.5t49.5 20.5t49.5 -20.5t20.5 -49.5v-180q0 -29 -20.5 -49.5t-49.5 -20.5zM480 160q-29 0 -49.5 20.5t-20.5 49.5v500q0 29 20.5 49.5t49.5 20.5t49.5 -20.5t20.5 -49.5v-500q0 -29 -20.5 -49.5t-49.5 -20.5z
M730 160q-29 0 -49.5 20.5t-20.5 49.5v300q0 29 20.5 49.5t49.5 20.5t49.5 -20.5t20.5 -49.5v-300q0 -29 -20.5 -49.5t-49.5 -20.5z" />
    <glyph glyph-name="explicit" unicode="EXPLICIT" 
d="M426 340v106h137q13 0 21.5 8.5t8.5 21.5t-8.5 21.5t-21.5 8.5h-137v107h137q13 0 21.5 8.5t8.5 21.5t-8.5 21.5t-21.5 8.5h-167q-13 0 -21.5 -8.5t-8.5 -21.5v-333q0 -13 8.5 -21.5t21.5 -8.5h167q13 0 21.5 8.5t8.5 21.5t-8.5 21.5t-21.5 8.5h-137zM180 120
q-24 0 -42 18t-18 42v600q0 24 18 42t42 18h600q24 0 42 -18t18 -42v-600q0 -24 -18 -42t-42 -18h-600zM180 180h600v0v0v600v0v0h-600v0v0v-600v0v0zM180 780v0v0v0v-600v0v0v0v0v0v600v0v0z" />
    <glyph glyph-name="fast_forward" unicode="FAST_FORWARD" 
d="M104 297v366q0 14 9 22t21 8q5 0 9 -1.5t8 -4.5l263 -182q7 -5 10 -11.5t3 -13.5t-3 -13.5t-10 -11.5l-263 -182q-4 -3 -8 -4.5t-9 -1.5q-12 0 -21 8t-9 22zM511 297v366q0 14 9 22t21 8q5 0 9 -1.5t8 -4.5l263 -182q7 -5 10 -11.5t3 -13.5t-3 -13.5t-10 -11.5l-263 -182
q-4 -3 -8 -4.5t-9 -1.5q-12 0 -21 8t-9 22zM164 480v0v0v0zM571 480v0v0v0zM164 355l181 125l-181 125v-250zM571 355l181 125l-181 125v-250z" />
    <glyph glyph-name="fast_rewind" unicode="FAST_REWIND" 
d="M807 273l-263 182q-7 5 -10 11.5t-3 13.5t3 13.5t10 11.5l263 182q4 3 8 4.5t9 1.5q12 0 21 -8t9 -22v-366q0 -14 -9 -22t-21 -8q-5 0 -9 1.5t-8 4.5zM405 273l-263 182q-7 5 -10 11.5t-3 13.5t3 13.5t10 11.5l263 182q4 3 8 4.5t9 1.5q12 0 21 -8t9 -22v-366
q0 -14 -9 -22t-21 -8q-5 0 -9 1.5t-8 4.5zM392 480v0v0v0zM794 480v0v0v0zM392 355v250l-181 -125zM794 355v250l-181 -125z" />
    <glyph glyph-name="gamepad" unicode="GAMEPAD" 
d="M480 634v0v0v0v0v0zM634 480v0v0v0v0v0zM327 480v0v0v0v0v0zM480 327v0v0v0v0v0zM459 572l-81 82q-5 5 -7 10t-2 11v175q0 13 8.5 21.5t21.5 8.5h163q13 0 21.5 -8.5t8.5 -21.5v-175q0 -6 -2 -11t-7 -10l-82 -82q-5 -5 -10 -6.5t-11 -1.5t-11 1.5t-10 6.5zM572 459
q-5 5 -6.5 10t-1.5 11t1.5 11t6.5 10l82 82q5 5 10 7t11 2h175q13 0 21.5 -8.5t8.5 -21.5v-163q0 -13 -8.5 -21.5t-21.5 -8.5h-175q-6 0 -11 2t-10 7zM80 399v163q0 13 8.5 21.5t21.5 8.5h175q6 0 11 -2t10 -7l82 -82q5 -5 6.5 -10t1.5 -11t-1.5 -11t-6.5 -10l-82 -81
q-5 -5 -10 -7t-11 -2h-175q-13 0 -21.5 8.5t-8.5 21.5zM369 110v175q0 6 2 11t7 10l81 82q5 5 10 6.5t11 1.5t11 -1.5t10 -6.5l82 -82q5 -5 7 -10t2 -11v-175q0 -13 -8.5 -21.5t-21.5 -8.5h-163q-13 0 -21.5 8.5t-8.5 21.5zM480 634l52 52v134h-103v-134zM140 429h135l52 51
l-52 52h-135v-103zM429 140h103v135l-52 52l-51 -52v-135zM686 429h134v103h-134l-52 -52z" />
    <glyph glyph-name="genres" unicode="GENRES" 
d="M398 232q51 0 86 35.5t35 86.5v315h92q13 0 21.5 8.5t8.5 21.5t-8.5 21.5t-21.5 8.5h-107q-13 0 -21.5 -8.5t-8.5 -21.5v-245q-17 11 -36.5 16.5t-39.5 5.5q-51 0 -86.5 -35.5t-35.5 -86.5t35.5 -86.5t86.5 -35.5zM480 80q-82 0 -155 31.5t-127.5 86t-86 127.5t-31.5 156
q0 82 31.5 155t86 127t127.5 85.5t156 31.5q82 0 155 -31.5t127 -85.5t85.5 -127t31.5 -156q0 -82 -31.5 -155t-85.5 -127.5t-127 -86t-156 -31.5zM481 140q141 0 240 99.5t99 241.5q0 141 -99 240t-241 99q-141 0 -240.5 -99t-99.5 -241q0 -141 99.5 -240.5t241.5 -99.5z
M480 480v0v0v0v0v0v0v0v0z" />
    <glyph glyph-name="hearing" unicode="HEARING" 
d="M180 608q0 -66 21 -127.5t62 -112.5q8 -11 8.5 -24t-9.5 -22t-23.5 -7t-21.5 13q-47 60 -72 131t-25 149q0 77 24 149t72 131q8 11 22 12.5t24 -7.5q10 -8 9 -21t-9 -23q-42 -51 -62 -113t-20 -128zM562 511q-39 0 -66 27t-27 66t27 67t66 28t67 -28t28 -67t-28 -66
t-67 -27zM779 224q0 13 8.5 21.5t21.5 8.5t21.5 -8.5t8.5 -21.5q-4 -60 -47.5 -101.5t-103.5 -41.5q-57 0 -99 31t-62 82t-39.5 79.5t-73.5 71.5q-66 53 -95 113t-29 146q0 120 76 196.5t196 76.5q118 0 196 -73.5t82 -187.5q0 -13 -8.5 -21.5t-21.5 -8.5t-21.5 8.5
t-8.5 21.5q-4 88 -65 144.5t-153 56.5q-90 0 -151 -61.5t-61 -151.5q0 -72 28 -124.5t93 -101.5q39 -29 62.5 -63t44.5 -84q17 -42 44.5 -66t65.5 -24q35 0 61 24t30 59z" />
    <glyph glyph-name="high_quality" unicode="HIGH_QUALITY" 
d="M595 357v-40q0 -11 7 -18t18 -7t18 7t7 18v40h41q14 0 24 9.5t10 23.5v179q0 14 -10 24t-24 10h-126q-14 0 -27 -10t-13 -24v-179q0 -14 13 -23.5t27 -9.5h35zM290 446h100v-64q0 -11 7 -18t18 -7t18 7t7 18v196q0 11 -7 18t-18 7t-18 -7t-7 -18v-82h-100v82q0 11 -7 18
t-18 7t-18 -7t-7 -18v-196q0 -11 7 -18t18 -7t18 7t7 18v64zM570 407v0v0v146v0v0h100v0v0v-146v0v0h-100zM140 160q-24 0 -42 18t-18 42v520q0 24 18 42t42 18h680q24 0 42 -18t18 -42v-520q0 -24 -18 -42t-42 -18h-680zM140 220h680v0v0v520v0v0h-680v0v0v-520v0v0z
M140 220v0v0v520v0v0v0v0v0v-520v0v0v0z" />
    <glyph glyph-name="ifl" unicode="IFL" 
d="M648 253q25 0 42 17t17 42t-17 42t-42 17t-42 -17t-17 -42t17 -42t42 -17zM478 423q25 0 42 17t17 42t-17 42t-42 17t-42 -17t-17 -42t17 -42t42 -17zM312 589q25 0 42 17t17 42t-17 42t-42 17t-42 -17t-17 -42t17 -42t42 -17zM180 120q-24 0 -42 18t-18 42v600
q0 24 18 42t42 18h600q24 0 42 -18t18 -42v-600q0 -24 -18 -42t-42 -18h-600zM180 180h600v0v0v600v0v0h-600v0v0v-600v0v0zM180 780v0v0v0v-600v0v0v0v0v0v600v0v0z" />
    <glyph glyph-name="instant_mix" unicode="INSTANT_MIX" 
d="M232 160q-13 0 -21.5 8.5t-8.5 21.5v264h-52q-13 0 -21.5 8.5t-8.5 21.5t8.5 21.5t21.5 8.5h164q13 0 21.5 -8.5t8.5 -21.5t-8.5 -21.5t-21.5 -8.5h-52v-264q0 -13 -8.5 -21.5t-21.5 -8.5zM232 574q-13 0 -21.5 8.5t-8.5 21.5v166q0 13 8.5 21.5t21.5 8.5t21.5 -8.5
t8.5 -21.5v-166q0 -13 -8.5 -21.5t-21.5 -8.5zM398 615q-13 0 -21.5 8.5t-8.5 21.5t8.5 21.5t21.5 8.5h52v95q0 13 8.5 21.5t21.5 8.5t21.5 -8.5t8.5 -21.5v-95h52q13 0 21.5 -8.5t8.5 -21.5t-8.5 -21.5t-21.5 -8.5h-164zM480 160q-13 0 -21.5 8.5t-8.5 21.5v335
q0 13 8.5 21.5t21.5 8.5t21.5 -8.5t8.5 -21.5v-335q0 -13 -8.5 -21.5t-21.5 -8.5zM728 160q-13 0 -21.5 8.5t-8.5 21.5v97h-52q-13 0 -21.5 8.5t-8.5 21.5t8.5 21.5t21.5 8.5h164q13 0 21.5 -8.5t8.5 -21.5t-8.5 -21.5t-21.5 -8.5h-52v-97q0 -13 -8.5 -21.5t-21.5 -8.5z
M728 407q-13 0 -21.5 8.5t-8.5 21.5v333q0 13 8.5 21.5t21.5 8.5t21.5 -8.5t8.5 -21.5v-333q0 -13 -8.5 -21.5t-21.5 -8.5z" />
    <glyph glyph-name="ios" unicode="IOS" 
d="M190 280q-13 0 -21.5 8.5t-8.5 21.5v215q0 13 8.5 21.5t21.5 8.5t21.5 -8.5t8.5 -21.5v-215q0 -13 -8.5 -21.5t-21.5 -8.5zM347 280q-25 0 -42.5 17.5t-17.5 42.5v280q0 25 17.5 42.5t42.5 17.5h105q25 0 42.5 -17.5t17.5 -42.5v-280q0 -25 -17.5 -42.5t-42.5 -17.5h-105
zM347 340h105v0v0v280v0v0h-105v0v0v-280v0v0zM605 280q-13 0 -21.5 8.5t-8.5 21.5t8.5 21.5t21.5 8.5h135v0v0v114v0v0h-105q-25 0 -42.5 17.5t-17.5 42.5v106q0 25 17.5 42.5t42.5 17.5h135q13 0 21.5 -8.5t8.5 -21.5t-8.5 -21.5t-21.5 -8.5h-135v0v0v-106v0v0h105
q25 0 42.5 -17.5t17.5 -42.5v-114q0 -25 -17.5 -42.5t-42.5 -17.5h-135zM190 615q-13 0 -21.5 8.5t-8.5 21.5t8.5 21.5t21.5 8.5t21.5 -8.5t8.5 -21.5t-8.5 -21.5t-21.5 -8.5z" />
    <glyph glyph-name="autorenew" unicode="AUTORENEW" 
d="M220 478q0 -20 2.5 -39t7.5 -36q3 -12 -1.5 -24t-15.5 -17t-22.5 0t-15.5 16q-8 25 -11.5 49.5t-3.5 50.5q0 131 94.5 225.5t225.5 94.5h43l-61 61q-8 8 -8 19t8 19t19.5 8t19.5 -8l109 -108q9 -9 9 -21t-9 -21l-108 -108q-8 -8 -20 -8t-20 8t-8 20t8 20l59 59h-41
q-107 0 -183.5 -76.5t-76.5 -183.5zM740 479q0 20 -2.5 39t-7.5 37q-4 12 0.5 24t15.5 17t22 0t15 -16q9 -25 13 -50t4 -51q0 -131 -94.5 -225.5t-225.5 -94.5h-45l61 -61q8 -8 8 -19t-8 -19t-19.5 -8t-19.5 8l-109 108q-9 9 -9 21t9 21l109 109q8 8 19.5 8t19.5 -8t8 -19.5
t-8 -19.5l-61 -61h45q107 0 183.5 76.5t76.5 183.5z" />
    <glyph glyph-name="mic" unicode="KEYBOARD_VOICE" 
d="M480 423q-43 0 -72 31t-29 75v251q0 42 29.5 71t71.5 29t71.5 -29t29.5 -71v-251q0 -44 -29 -75t-72 -31zM480 651v0v0v0v0v0v0v0v0v0v0zM450 150v106q-96 11 -166.5 77.5t-81.5 164.5q-2 13 6.5 22t21.5 9t21.5 -9t10.5 -22q12 -81 74.5 -132.5t143.5 -51.5t143.5 51.5
t74.5 132.5q2 13 10.5 22t21.5 9t21.5 -9t6.5 -22q-11 -97 -81 -164t-167 -78v-106q0 -13 -8.5 -21.5t-21.5 -8.5t-21.5 8.5t-8.5 21.5zM480 483q18 0 29.5 13.5t11.5 32.5v251q0 17 -12 28.5t-29 11.5t-29 -11.5t-12 -28.5v-251q0 -19 11.5 -32.5t29.5 -13.5z" />
    <glyph glyph-name="mic_off" unicode="MIC_OFF" 
d="M686 361l-43 43q17 20 26 44t13 50q2 13 10.5 22t21.5 9t21.5 -9t6.5 -22q-5 -38 -19 -72.5t-37 -64.5zM461 586v0v0v0v0v0v0v0zM558 489l-53 52v238q0 17 -12 29t-29 12t-29 -12t-12 -29v-155l-60 60v95q0 42 29.5 71.5t71.5 29.5t71.5 -29.5t29.5 -71.5v-250
q0 -8 -1.5 -20t-5.5 -20zM434 150v106q-96 11 -166.5 77.5t-81.5 164.5q-2 13 6.5 22t21.5 9t21.5 -9t10.5 -22q12 -81 75 -132.5t143 -51.5q38 0 73 12.5t64 34.5l43 -43q-31 -26 -69 -41.5t-81 -20.5v-106q0 -13 -8.5 -21.5t-21.5 -8.5t-21.5 8.5t-8.5 21.5zM812 74
l-757 757q-8 8 -8 19t8 19t19 8t19 -8l757 -757q8 -8 8 -19t-8 -19t-19 -8t-19 8z" />
    <glyph glyph-name="movie" unicode="MOVIE_CREATION" 
d="M140 800l74 -152h130l-74 152h89l74 -152h130l-74 152h89l74 -152h130l-74 152h112q24 0 42 -18t18 -42v-520q0 -24 -18 -42t-42 -18h-680q-24 0 -42 18t-18 42v520q0 24 18 42t42 18v0zM140 588v-368v0v0h680v0v0v368h-680zM140 588v0v-368v0v0v0v0v0v368z" />
    <glyph glyph-name="movie_info" unicode="MOVIE_INFO" 
d="M140 120q-24 0 -42 18t-18 42v599q0 24 18 42.5t42 18.5h681q24 0 41.5 -18.5t17.5 -42.5v-599q0 -24 -17.5 -42t-41.5 -18h-681zM155 180h75q6 0 10.5 4.5t4.5 10.5v75q0 6 -4.5 10.5t-10.5 4.5h-75q-6 0 -10.5 -4.5t-4.5 -10.5v-75q0 -6 4.5 -10.5t10.5 -4.5zM731 180
h75q6 0 10.5 4.5t4.5 10.5v75q0 6 -4.5 10.5t-10.5 4.5h-75q-6 0 -10.5 -4.5t-4.5 -10.5v-75q0 -6 4.5 -10.5t10.5 -4.5zM480 294q13 0 21.5 8.5t8.5 21.5v173q0 13 -8.5 21.5t-21.5 8.5t-21.5 -8.5t-8.5 -21.5v-173q0 -13 8.5 -21.5t21.5 -8.5zM155 344h75q6 0 10.5 4.5
t4.5 10.5v75q0 6 -4.5 10.5t-10.5 4.5h-75q-6 0 -10.5 -4.5t-4.5 -10.5v-75q0 -6 4.5 -10.5t10.5 -4.5zM731 344h75q6 0 10.5 4.5t4.5 10.5v75q0 6 -4.5 10.5t-10.5 4.5h-75q-6 0 -10.5 -4.5t-4.5 -10.5v-75q0 -6 4.5 -10.5t10.5 -4.5zM155 509h75q6 0 10.5 4.5t4.5 10.5v75
q0 6 -4.5 10.5t-10.5 4.5h-75q-6 0 -10.5 -4.5t-4.5 -10.5v-75q0 -6 4.5 -10.5t10.5 -4.5zM731 509h75q6 0 10.5 4.5t4.5 10.5v75q0 6 -4.5 10.5t-10.5 4.5h-75q-6 0 -10.5 -4.5t-4.5 -10.5v-75q0 -6 4.5 -10.5t10.5 -4.5zM480 613q13 0 21.5 8.5t8.5 21.5t-8.5 21.5
t-21.5 8.5t-21.5 -8.5t-8.5 -21.5t8.5 -21.5t21.5 -8.5zM155 674h75q6 0 10.5 4.5t4.5 10.5v75q0 6 -4.5 10.5t-10.5 4.5h-75q-6 0 -10.5 -4.5t-4.5 -10.5v-75q0 -6 4.5 -10.5t10.5 -4.5zM731 674h75q6 0 10.5 4.5t4.5 10.5v75q0 6 -4.5 10.5t-10.5 4.5h-75q-6 0 -10.5 -4.5
t-4.5 -10.5v-75q0 -6 4.5 -10.5t10.5 -4.5zM335 180h292q13 0 21.5 8.5t8.5 21.5v539q0 13 -8.5 21.5t-21.5 8.5h-292q-13 0 -21.5 -8.5t-8.5 -21.5v-539q0 -13 8.5 -21.5t21.5 -8.5zM305 779v0h352v0h-352z" />
    <glyph glyph-name="library_add" unicode="LIBRARY_ADD" 
d="M540 378q13 0 21.5 8.5t8.5 21.5v102h102q13 0 21.5 8.5t8.5 21.5t-8.5 21.5t-21.5 8.5h-102v102q0 13 -8.5 21.5t-21.5 8.5t-21.5 -8.5t-8.5 -21.5v-102h-102q-13 0 -21.5 -8.5t-8.5 -21.5t8.5 -21.5t21.5 -8.5h102v-102q0 -13 8.5 -21.5t21.5 -8.5zM260 200
q-24 0 -42 18t-18 42v560q0 24 18 42t42 18h560q24 0 42 -18t18 -42v-560q0 -24 -18 -42t-42 -18h-560zM260 260h560v0v0v560v0v0h-560v0v0v-560v0v0zM140 80q-24 0 -42 18t-18 42v590q0 13 8.5 21.5t21.5 8.5t21.5 -8.5t8.5 -21.5v-590v0v0h590q13 0 21.5 -8.5t8.5 -21.5
t-8.5 -21.5t-21.5 -8.5h-590zM260 820v0v0v0v-560v0v0v0v0v0v560v0v0z" />
    <glyph glyph-name="library_books" unicode="LIBRARY_BOOKS" 
d="M373 420h165q13 0 21.5 8.5t8.5 21.5t-8.5 21.5t-21.5 8.5h-165q-13 0 -21.5 -8.5t-8.5 -21.5t8.5 -21.5t21.5 -8.5zM373 510h335q13 0 21.5 8.5t8.5 21.5t-8.5 21.5t-21.5 8.5h-335q-13 0 -21.5 -8.5t-8.5 -21.5t8.5 -21.5t21.5 -8.5zM373 600h335q13 0 21.5 8.5
t8.5 21.5t-8.5 21.5t-21.5 8.5h-335q-13 0 -21.5 -8.5t-8.5 -21.5t8.5 -21.5t21.5 -8.5zM260 200q-24 0 -42 18t-18 42v560q0 24 18 42t42 18h560q24 0 42 -18t18 -42v-560q0 -24 -18 -42t-42 -18h-560zM260 260h560v0v0v560v0v0h-560v0v0v-560v0v0zM140 80q-24 0 -42 18
t-18 42v590q0 13 8.5 21.5t21.5 8.5t21.5 -8.5t8.5 -21.5v-590v0v0h590q13 0 21.5 -8.5t8.5 -21.5t-8.5 -21.5t-21.5 -8.5h-590zM260 820v0v0v0v-560v0v0v0v0v0v560v0v0z" />
    <glyph glyph-name="library_music" unicode="LIBRARY_MUSIC" 
d="M486 333q41 0 70 28.5t29 69.5v252h86q13 0 21.5 8.5t8.5 21.5t-8.5 21.5t-21.5 8.5h-96q-13 0 -21.5 -8.5t-8.5 -21.5v-207q-11 9 -26.5 14t-32.5 5q-39 0 -66 -27.5t-27 -66.5q0 -40 27 -69t66 -29zM260 200q-24 0 -42 18t-18 42v560q0 24 18 42t42 18h560q24 0 42 -18
t18 -42v-560q0 -24 -18 -42t-42 -18h-560zM260 260h560v0v0v560v0v0h-560v0v0v-560v0v0zM140 80q-24 0 -42 18t-18 42v590q0 13 8.5 21.5t21.5 8.5t21.5 -8.5t8.5 -21.5v-590v0v0h590q13 0 21.5 -8.5t8.5 -21.5t-8.5 -21.5t-21.5 -8.5h-590zM260 820v0v0v0v-560v0v0v0v0v0
v560v0v0z" />
    <glyph glyph-name="verified" unicode="NEW_RELEASES" 
d="M437 433l-73 76q-9 10 -22 10t-23 -9q-10 -10 -10 -23t10 -23l97 -96q9 -9 21 -9t21 9l183 182q9 9 9 22t-10 22q-9 8 -21.5 7.5t-20.5 -8.5zM332 84l-62 106l-124 25q-11 2 -18.5 12t-5.5 21l14 120l-79 92q-8 8 -8 20t8 20l79 91l-14 120q-2 11 5.5 21t18.5 12l124 25
l62 107q6 10 17 14t22 -1l109 -51l109 51q11 5 22 1.5t17 -13.5l63 -108l123 -25q11 -2 18.5 -12t5.5 -21l-14 -120l79 -91q8 -8 8 -20t-8 -20l-79 -92l14 -120q2 -11 -5.5 -21t-18.5 -12l-123 -25l-63 -107q-6 -10 -17 -13.5t-22 1.5l-109 51l-109 -51q-11 -5 -22 -1
t-17 14zM373 139l107 45l110 -45l67 100l117 30l-12 119l81 92l-81 94l12 119l-117 28l-69 100l-108 -45l-110 45l-67 -100l-117 -28l12 -119l-81 -94l81 -92l-12 -121l117 -28zM480 480v0v0v0v0v0v0v0v0v0v0v0v0v0v0v0v0v0v0v0v0z" />
    <glyph glyph-name="news" unicode="NEWS" 
d="M180 120q-24 0 -42 18t-18 42v600q0 24 18 42t42 18h437q12 0 23.5 -5t19.5 -13l162 -162q8 -8 13 -19.5t5 -23.5v-437q0 -24 -18 -42t-42 -18h-600zM180 180h600v0v0v429h-141q-13 0 -21.5 8.5t-8.5 21.5v141h-429v0v0v-600v0v0zM651 291q13 0 21.5 8.5t8.5 21.5
t-8.5 21.5t-21.5 8.5h-342q-13 0 -21.5 -8.5t-8.5 -21.5t8.5 -21.5t21.5 -8.5h342zM450 609q13 0 21.5 8.5t8.5 21.5t-8.5 21.5t-21.5 8.5h-141q-13 0 -21.5 -8.5t-8.5 -21.5t8.5 -21.5t21.5 -8.5h141zM651 450q13 0 21.5 8.5t8.5 21.5t-8.5 21.5t-21.5 8.5h-342
q-13 0 -21.5 -8.5t-8.5 -21.5t8.5 -21.5t21.5 -8.5h342zM180 780v0v-171v0v171v-171v0v-429v0v0v0v0v0v600v0v0z" />
    <glyph glyph-name="block" unicode="BLOCK" 
d="M480 80q-83 0 -156 31.5t-127 85.5t-85.5 127t-31.5 156t31.5 156t85.5 127t127 85.5t156 31.5t156 -31.5t127 -85.5t85.5 -127t31.5 -156t-31.5 -156t-85.5 -127t-127 -85.5t-156 -31.5zM480 140q61 0 117.5 20.5t101.5 59.5l-479 479q-38 -46 -59 -102t-21 -117
q0 -142 99 -241t241 -99zM739 261q37 45 59 101.5t22 117.5q0 142 -99 241t-241 99q-61 0 -117 -21t-102 -60z" />
    <glyph glyph-name="pause" unicode="PAUSE" 
d="M585 200q-25 0 -42.5 17.5t-17.5 42.5v440q0 25 17.5 42.5t42.5 17.5h115q25 0 42.5 -17.5t17.5 -42.5v-440q0 -25 -17.5 -42.5t-42.5 -17.5h-115zM260 200q-25 0 -42.5 17.5t-17.5 42.5v440q0 25 17.5 42.5t42.5 17.5h115q25 0 42.5 -17.5t17.5 -42.5v-440
q0 -25 -17.5 -42.5t-42.5 -17.5h-115zM585 260h115v440h-115v-440zM260 260h115v440h-115v-440zM260 700v0v-440v0v440zM585 700v0v-440v0v440z" />
    <glyph glyph-name="pause_circle" unicode="PAUSE_CIRCLE_OUTLINE" 
d="M400 320q13 0 21.5 8.5t8.5 21.5v260q0 13 -8.5 21.5t-21.5 8.5t-21.5 -8.5t-8.5 -21.5v-260q0 -13 8.5 -21.5t21.5 -8.5zM560 320q13 0 21.5 8.5t8.5 21.5v260q0 13 -8.5 21.5t-21.5 8.5t-21.5 -8.5t-8.5 -21.5v-260q0 -13 8.5 -21.5t21.5 -8.5zM480 80q-82 0 -155 31.5
t-127.5 86t-86 127.5t-31.5 156q0 82 31.5 155t86 127t127.5 85.5t156 31.5q82 0 155 -31.5t127 -85.5t85.5 -127t31.5 -156q0 -82 -31.5 -155t-85.5 -127.5t-127 -86t-156 -31.5zM481 140q141 0 240 99.5t99 241.5q0 141 -99 240t-241 99q-141 0 -240.5 -99t-99.5 -241
q0 -141 99.5 -240.5t241.5 -99.5zM480 480v0v0v0v0v0v0v0v0z" />
    <glyph glyph-name="play_arrow" unicode="PLAY_ARROW" 
d="M320 258v450q0 14 9 22t21 8q4 0 8 -1t8 -3l354 -226q7 -5 10.5 -11t3.5 -14t-3.5 -14t-10.5 -11l-354 -226q-4 -2 -8 -3t-8 -1q-12 0 -21 8t-9 22zM380 483v0v0v0zM380 312l269 171l-269 171v-342z" />
    <glyph glyph-name="play_circle" unicode="PLAY_CIRCLE" 
d="M418 332l202 129q11 7 11 19t-11 19l-202 129q-11 8 -23 1.5t-12 -20.5v-258q0 -14 12 -20.5t23 1.5zM480 80q-82 0 -155 31.5t-127.5 86t-86 127.5t-31.5 155q0 83 31.5 156t86 127t127.5 85.5t155 31.5q83 0 156 -31.5t127 -85.5t85.5 -127t31.5 -156q0 -82 -31.5 -155
t-85.5 -127.5t-127 -86t-156 -31.5zM480 140q142 0 241 99.5t99 240.5q0 142 -99 241t-241 99q-141 0 -240.5 -99t-99.5 -241q0 -141 99.5 -240.5t240.5 -99.5zM480 480v0v0v0v0v0v0v0v0z" />
    <glyph glyph-name="playlist_add" unicode="PLAYLIST_ADD" 
d="M150 330q-13 0 -21.5 8.5t-8.5 21.5t8.5 21.5t21.5 8.5h240q13 0 21.5 -8.5t8.5 -21.5t-8.5 -21.5t-21.5 -8.5h-240zM150 495q-13 0 -21.5 8.5t-8.5 21.5t8.5 21.5t21.5 8.5h410q13 0 21.5 -8.5t8.5 -21.5t-8.5 -21.5t-21.5 -8.5h-410zM150 660q-13 0 -21.5 8.5
t-8.5 21.5t8.5 21.5t21.5 8.5h410q13 0 21.5 -8.5t8.5 -21.5t-8.5 -21.5t-21.5 -8.5h-410zM680 160q-13 0 -21.5 8.5t-8.5 21.5v140h-140q-13 0 -21.5 8.5t-8.5 21.5t8.5 21.5t21.5 8.5h140v140q0 13 8.5 21.5t21.5 8.5t21.5 -8.5t8.5 -21.5v-140h140q13 0 21.5 -8.5
t8.5 -21.5t-8.5 -21.5t-21.5 -8.5h-140v-140q0 -13 -8.5 -21.5t-21.5 -8.5z" />
    <glyph glyph-name="queue_music" unicode="QUEUE_MUSIC" 
d="M643 160q-48 0 -81.5 33.5t-33.5 81.5t32.5 81.5t79.5 33.5q16 0 30.5 -3t27.5 -10v308q0 15 10.5 25t25.5 10h111q15 0 25 -10.5t10 -25.5t-10 -25t-25 -10h-87v-375q0 -47 -33.5 -80.5t-81.5 -33.5zM150 320q-13 0 -21.5 8.5t-8.5 21.5t8.5 21.5t21.5 8.5h246
q13 0 21.5 -8.5t8.5 -21.5t-8.5 -21.5t-21.5 -8.5h-246zM150 490q-13 0 -21.5 8.5t-8.5 21.5t8.5 21.5t21.5 8.5h413q13 0 21.5 -8.5t8.5 -21.5t-8.5 -21.5t-21.5 -8.5h-413zM150 660q-13 0 -21.5 8.5t-8.5 21.5t8.5 21.5t21.5 8.5h413q13 0 21.5 -8.5t8.5 -21.5t-8.5 -21.5
t-21.5 -8.5h-413z" />
    <glyph glyph-name="radio" unicode="RADIO" 
d="M140 80q-24 0 -42 18t-18 42v511q0 22 15 38.5t35 24.5l471 190q11 5 21 0.5t14 -15.5t0 -21t-15 -14l-335 -134h534q24 0 42 -18t18 -42v-520q0 -24 -18 -42t-42 -18h-680zM140 140h680v0v0v310h-680v-310v0v0zM319 203q41 0 69 28t28 69t-28 69t-69 28t-69 -28t-28 -69
t28 -69t69 -28zM140 510h520v30q0 13 8.5 21.5t21.5 8.5t21.5 -8.5t8.5 -21.5v-30h100v150v0v0h-680v0v0v-150zM140 140v0v0v310v0v-310v0v0v0z" />
    <glyph glyph-name="recent_actors" unicode="RECENT_ACTORS" 
d="M100 200q-24 0 -42 18t-18 42v440q0 24 18 42t42 18h440q24 0 42 -18t18 -42v-440q0 -24 -18 -42t-42 -18h-440zM100 312q49 32 105.5 48t114.5 16t114.5 -16t105.5 -48v388v0v0h-440v0v0v-388zM320 316q-53 0 -101 -13.5t-89 -42.5v0v0h380v0v0q-43 29 -92 42.5
t-98 13.5zM320 429q-46 0 -78.5 32.5t-32.5 78.5t32.5 78.5t78.5 32.5t78.5 -32.5t32.5 -78.5t-32.5 -78.5t-78.5 -32.5zM320 482q24 0 41 16.5t17 41.5q0 24 -17 41t-41 17q-25 0 -41.5 -17t-16.5 -41q0 -25 16.5 -41.5t41.5 -16.5zM730 200q-13 0 -21.5 8.5t-8.5 21.5v500
q0 13 8.5 21.5t21.5 8.5t21.5 -8.5t8.5 -21.5v-500q0 -13 -8.5 -21.5t-21.5 -8.5zM890 200q-13 0 -21.5 8.5t-8.5 21.5v500q0 13 8.5 21.5t21.5 8.5t21.5 -8.5t8.5 -21.5v-500q0 -13 -8.5 -21.5t-21.5 -8.5zM320 540v0v0v0v0v0v0v0v0zM320 260v0v0v0v0v0v0v0v0v0z" />
    <glyph glyph-name="repeat" unicode="REPEAT" 
d="M236 210l65 -65q9 -9 8.5 -21t-8.5 -21q-9 -9 -21.5 -9.5t-21.5 8.5l-117 117q-5 5 -7 10t-2 11t2 11t7 10l117 117q9 9 21.5 8.5t21.5 -9.5q8 -9 8.5 -21t-8.5 -21l-65 -65h464v0v0v130q0 13 8.5 21.5t21.5 8.5t21.5 -8.5t8.5 -21.5v-130q0 -25 -17.5 -42.5t-42.5 -17.5
h-464zM724 690h-464v0v0v-130q0 -13 -8.5 -21.5t-21.5 -8.5t-21.5 8.5t-8.5 21.5v130q0 25 17.5 42.5t42.5 17.5h464l-65 65q-9 9 -8.5 21t8.5 21q9 9 21.5 9.5t21.5 -8.5l117 -117q5 -5 7 -10t2 -11t-2 -11t-7 -10l-117 -117q-9 -9 -21.5 -8.5t-21.5 9.5q-8 9 -8.5 21
t8.5 21z" />
    <glyph glyph-name="repeat_one" unicode="REPEAT_ONE" 
d="M466 551h-32q-10 0 -17 7t-7 18t7 17.5t18 6.5h50q13 0 21.5 -8.5t8.5 -21.5v-184q0 -10 -6.5 -17t-17.5 -7t-18 7t-7 18v164zM236 210l65 -65q9 -9 8.5 -21t-8.5 -21q-9 -9 -21.5 -9.5t-21.5 8.5l-117 117q-5 5 -7 10t-2 11t2 11t7 10l117 117q9 9 21.5 8.5t21.5 -9.5
q8 -9 8.5 -21t-8.5 -21l-65 -65h464v0v0v130q0 13 8.5 21.5t21.5 8.5t21.5 -8.5t8.5 -21.5v-130q0 -25 -17.5 -42.5t-42.5 -17.5h-464zM724 690h-464v0v0v-130q0 -13 -8.5 -21.5t-21.5 -8.5t-21.5 8.5t-8.5 21.5v130q0 25 17.5 42.5t42.5 17.5h464l-65 65q-9 9 -8.5 21
t8.5 21q9 9 21.5 9.5t21.5 -8.5l117 -117q5 -5 7 -10t2 -11t-2 -11t-7 -10l-117 -117q-9 -9 -21.5 -8.5t-21.5 9.5q-8 9 -8.5 21t8.5 21z" />
    <glyph glyph-name="replay" unicode="REPLAY" 
d="M480 80q-75 0 -140.5 28t-114.5 77t-77 114.5t-28 140.5q0 13 8.5 21.5t21.5 8.5t21.5 -8.5t8.5 -21.5q0 -125 87.5 -212.5t212.5 -87.5t212.5 87.5t87.5 212.5t-85 212.5t-210 87.5h-22l52 -52q9 -9 9 -21t-9 -21t-21 -9t-21 9l-105 105q-9 9 -9 21t9 21l106 106
q8 8 20.5 8t20.5 -8t8 -20.5t-8 -20.5l-58 -58h23q75 0 140.5 -28t114.5 -77t77 -114.5t28 -140.5t-28 -140.5t-77 -114.5t-114.5 -77t-140.5 -28z" />
    <glyph glyph-name="shuffle" unicode="SHUFFLE" 
d="M696 220l-174 173l42 43l176 -174v91q0 13 8.5 21.5t21.5 8.5t21.5 -8.5t8.5 -21.5v-163q0 -13 -8.5 -21.5t-21.5 -8.5h-164q-13 0 -21.5 8.5t-8.5 21.5t8.5 21.5t21.5 8.5h90zM740 697l-528 -528q-9 -9 -21 -8.5t-21 9.5t-9 21t9 21l528 528h-92q-13 0 -21.5 8.5
t-8.5 21.5t8.5 21.5t21.5 8.5h164q13 0 21.5 -8.5t8.5 -21.5v-163q0 -13 -8.5 -21.5t-21.5 -8.5t-21.5 8.5t-8.5 21.5v90zM395 523l-226 226q-9 9 -9 21.5t9 21.5t21 9t21 -9l227 -226z" />
    <glyph glyph-name="skip_next" unicode="SKIP_NEXT" 
d="M680 270v420q0 13 8.5 21.5t21.5 8.5t21.5 -8.5t8.5 -21.5v-420q0 -13 -8.5 -21.5t-21.5 -8.5t-21.5 8.5t-8.5 21.5zM220 297v366q0 14 9 22t21 8q5 0 9 -1.5t8 -4.5l263 -182q7 -5 10 -11.5t3 -13.5t-3 -13.5t-10 -11.5l-263 -182q-4 -3 -8 -4.5t-9 -1.5q-12 0 -21 8.5
t-9 21.5zM280 480v0v0v0zM280 355l181 125l-181 125v-250z" />
    <glyph glyph-name="skip_previous" unicode="SKIP_PREVIOUS" 
d="M220 270v420q0 13 8.5 21.5t21.5 8.5t21.5 -8.5t8.5 -21.5v-420q0 -13 -8.5 -21.5t-21.5 -8.5t-21.5 8.5t-8.5 21.5zM693 273l-263 182q-7 5 -10 11.5t-3 13.5t3 13.5t10 11.5l263 182q4 3 8 4.5t9 1.5q12 0 21 -8t9 -22v-366q0 -13 -9 -21.5t-21 -8.5q-5 0 -9 1.5
t-8 4.5zM680 480v0v0v0zM680 355v250l-181 -125z" />
    <glyph glyph-name="snooze" unicode="SNOOZE" 
d="M452 381l120 136l4 10v18q0 11 -7 18t-18 7h-143q-11 0 -18 -7t-7 -18t7 -18t18 -7h101l-122 -138l-4 -10v-16q0 -11 7 -18t18 -7h143q11 0 18 7t7 18t-7 18t-18 7h-99zM479 82q-74 0 -139.5 28t-114 76.5t-77 114t-28.5 140.5q0 74 28.5 139.5t77 114.5t114 77t139.5 28
t139.5 -28t114.5 -77t77 -114.5t28 -139.5q0 -75 -28 -140.5t-77 -114t-114.5 -76.5t-139.5 -28zM479 439v0v0v0v0v0v0v0v0zM71 688q-9 9 -8.5 21t9.5 21l121 117q9 8 21.5 7.5t20.5 -8.5q9 -9 8.5 -21t-9.5 -21l-121 -117q-9 -8 -21.5 -7.5t-20.5 8.5zM887 688
q-8 -8 -20.5 -8.5t-21.5 7.5l-121 117q-9 8 -9.5 20.5t8.5 21.5q8 8 20.5 8.5t21.5 -7.5l121 -117q9 -8 9.5 -20.5t-8.5 -21.5zM479 142q125 0 212 87t87 212t-87 212t-212 87t-212 -87t-87 -212t87 -212t212 -87z" />
    <glyph glyph-name="stop" unicode="STOP" 
d="M240 300v360q0 25 17.5 42.5t42.5 17.5h360q25 0 42.5 -17.5t17.5 -42.5v-360q0 -25 -17.5 -42.5t-42.5 -17.5h-360q-25 0 -42.5 17.5t-17.5 42.5zM300 300h360v0v0v360v0v0h-360v0v0v-360v0v0zM480 480v0v0v0v0v0v0v0v0v0v0v0v0z" />
    <glyph glyph-name="subtitles" unicode="SUBTITLES" 
d="M140 160q-24 0 -42 18t-18 42v520q0 24 18 42t42 18h680q24 0 42 -18t18 -42v-520q0 -24 -18 -42t-42 -18h-680zM140 220h680v0v0v520v0v0h-680v0v0v-520v0v0zM140 220v0v0v520v0v0v0v0v0v-520v0v0v0zM270 350h300q13 0 21.5 8.5t8.5 21.5t-8.5 21.5t-21.5 8.5h-300
q-13 0 -21.5 -8.5t-8.5 -21.5t8.5 -21.5t21.5 -8.5zM390 470h300q13 0 21.5 8.5t8.5 21.5t-8.5 21.5t-21.5 8.5h-300q-13 0 -21.5 -8.5t-8.5 -21.5t8.5 -21.5t21.5 -8.5zM270 470q13 0 21.5 8.5t8.5 21.5t-8.5 21.5t-21.5 8.5t-21.5 -8.5t-8.5 -21.5t8.5 -21.5t21.5 -8.5z
M690 350q13 0 21.5 8.5t8.5 21.5t-8.5 21.5t-21.5 8.5t-21.5 -8.5t-8.5 -21.5t8.5 -21.5t21.5 -8.5z" />
    <glyph glyph-name="surround_sound" unicode="SURROUND_SOUND" 
d="M483 368q46 0 78.5 32.5t32.5 78.5t-32.5 78.5t-78.5 32.5t-78.5 -32.5t-32.5 -78.5t32.5 -78.5t78.5 -32.5zM694 479q0 -35 -11.5 -66.5t-31.5 -59.5q-8 -11 -7.5 -23t9.5 -21t21 -9t20 10q29 36 44.5 79t15.5 90t-15.5 90t-44.5 79q-8 10 -20 10t-21 -9t-9.5 -21
t7.5 -23q20 -28 31.5 -59.5t11.5 -66.5zM272 479q0 35 11.5 66.5t31.5 59.5q8 11 7.5 23t-9.5 21t-21.5 9t-20.5 -10q-29 -36 -44 -79t-15 -90t15 -90t44 -79q8 -10 20.5 -10t21.5 9t9.5 21t-7.5 23q-20 28 -31.5 59.5t-11.5 66.5zM140 160q-24 0 -42 18t-18 42v520
q0 24 18 42t42 18h680q24 0 42 -18t18 -42v-520q0 -24 -18 -42t-42 -18h-680zM140 220h680v0v0v520v0v0h-680v0v0v-520v0v0zM140 220v0v0v520v0v0v0v0v0v-520v0v0v0z" />
    <glyph glyph-name="video_library" unicode="VIDEO_LIBRARY" 
d="M655 521q11 7 11 19t-11 19l-196 126q-11 8 -23 1.5t-12 -20.5v-252q0 -14 12 -20.5t23 1.5zM260 200q-24 0 -42 18t-18 42v560q0 24 18 42t42 18h560q24 0 42 -18t18 -42v-560q0 -24 -18 -42t-42 -18h-560zM260 260h560v0v0v560v0v0h-560v0v0v-560v0v0zM140 80
q-24 0 -42 18t-18 42v590q0 13 8.5 21.5t21.5 8.5t21.5 -8.5t8.5 -21.5v-590v0v0h590q13 0 21.5 -8.5t8.5 -21.5t-8.5 -21.5t-21.5 -8.5h-590zM260 820v0v0v0v-560v0v0v0v0v0v560v0v0z" />
    <glyph glyph-name="videocam" unicode="VIDEOCAM" 
d="M140 160q-24 0 -42 18t-18 42v520q0 24 18 42t42 18h520q24 0 42 -18t18 -42v-215l134 134q7 7 16.5 3.5t9.5 -13.5v-338q0 -10 -9.5 -13.5t-16.5 3.5l-134 134v-215q0 -24 -18 -42t-42 -18h-520zM140 220h520v0v0v520v0v0h-520v0v0v-520v0v0zM140 220v0v0v520v0v0v0v0v0
v-520v0v0v0z" />
    <glyph glyph-name="videocam_off" unicode="VIDEOCAM_OFF" 
d="M720 435v-111l-60 60v356v0v0h-356l-60 60h416q24 0 42 -18t18 -42v-215l134 134q7 7 16.5 3.5t9.5 -13.5v-338q0 -10 -9.5 -13.5t-16.5 3.5zM827 48l-767 767q-9 9 -9 21t9 21t21 9t21 -9l767 -767q9 -9 9 -21t-9 -21t-21 -9t-21 9zM484 560v0v0v0v0v0zM397 478v0v0v0v0
v0v0v0v0v0zM159 800l60 -60h-79v0v0v-520v0v0h520v0v0v79l60 -60v-19q0 -24 -18 -42t-42 -18h-520q-24 0 -42 18t-18 42v520q0 24 18 42t42 18h19z" />
    <glyph glyph-name="volume_down" unicode="VOLUME_DOWN" 
d="M360 360h-130q-13 0 -21.5 8.5t-8.5 21.5v180q0 13 8.5 21.5t21.5 8.5h130l149 149q14 14 32.5 6.5t18.5 -27.5v-496q0 -20 -18.5 -27.5t-32.5 6.5zM740 480q0 -52 -26 -94t-73 -64q-8 -4 -14.5 1t-6.5 13v289q0 8 6.5 13t14.5 1q47 -22 73 -65t26 -94zM500 648
l-113 -108h-127v-120h127l113 -109v337zM378 480v0v0v0v0v0v0z" />
    <glyph glyph-name="volume_mute" unicode="VOLUME_MUTE" 
d="M440 360h-130q-13 0 -21.5 8.5t-8.5 21.5v180q0 13 8.5 21.5t21.5 8.5h130l149 149q14 14 32.5 6.5t18.5 -27.5v-496q0 -20 -18.5 -27.5t-32.5 6.5zM340 420h127l113 -109v337l-113 -108h-127v-120zM459 480v0v0v0v0v0v0z" />
    <glyph glyph-name="volume_off" unicode="VOLUME_OFF" 
d="M681 188q-17 -12 -35.5 -22t-38.5 -18q-12 -5 -24.5 0t-17.5 17q-5 11 0.5 22t17.5 16q17 6 33.5 14.5t30.5 21.5l-174 158v-165q0 -20 -18.5 -27.5t-32.5 6.5l-149 149h-130q-13 0 -21.5 8.5t-8.5 21.5v180q0 13 8.5 21.5t21.5 8.5h126l-199 199q-9 9 -8.5 21.5
t9.5 21.5t21.5 9t21.5 -9l721 -721q9 -9 9 -21.5t-9 -21.5t-22 -9t-22 9zM777 288l-43 43q20 34 29.5 72t9.5 78q0 93 -52.5 168.5t-137.5 109.5q-12 5 -17 16t0 22q5 12 17.5 16.5t25.5 -0.5q101 -41 162.5 -130.5t61.5 -201.5q0 -51 -14 -100t-42 -93zM643 422l-90 90v103
q0 9 7.5 13.5t15.5 -0.5q38 -23 57.5 -63.5t19.5 -84.5q0 -15 -2.5 -29.5t-7.5 -28.5zM473 592l-104 104l53 53q14 14 32.5 6.5t18.5 -27.5v-136zM413 306v150l-84 84v0h-156v-120h126zM371 498v0v0v0v0v0v0v0z" />
    <glyph glyph-name="volume_up" unicode="VOLUME_UP" 
d="M780 481q0 94 -52.5 169t-137.5 109q-12 5 -17 16t0 22q5 12 17.5 16.5t25.5 -0.5q101 -41 162.5 -131t61.5 -201t-61.5 -201t-162.5 -131q-13 -5 -25.5 -0.5t-17.5 16.5q-5 11 0 22t17 16q85 34 137.5 109t52.5 169zM280 360h-130q-13 0 -21.5 8.5t-8.5 21.5v180
q0 13 8.5 21.5t21.5 8.5h130l149 149q14 14 32.5 6.5t18.5 -27.5v-496q0 -20 -18.5 -27.5t-32.5 6.5zM660 480q0 -52 -26 -94t-73 -64q-8 -4 -14.5 1t-6.5 13v289q0 8 6.5 13t14.5 1q47 -22 73 -65t26 -94zM420 648l-113 -108h-127v-120h127l113 -109v337zM298 480v0v0v0v0
v0v0z" />
    <glyph glyph-name="web" unicode="WEB" 
d="M140 160q-24 0 -42 18t-18 42v520q0 24 18 42t42 18h680q24 0 42 -18t18 -42v-520q0 -24 -18 -42t-42 -18h-680zM140 220h461v163h-461v-163v0v0zM661 220h159v0v0v386h-159v-386zM140 443h461v163h-461v-163z" />
    <glyph glyph-name="hd" unicode="HD" 
d="M290 446h100v-64q0 -11 7 -18t18 -7t18 7t7 18v196q0 11 -7 18t-18 7t-18 -7t-7 -18v-82h-100v82q0 11 -7 18t-18 7t-18 -7t-7 -18v-196q0 -11 7 -18t18 -7t18 7t7 18v64zM535 357h135q20 0 35 15t15 35v146q0 20 -15 35t-35 15h-135q-6 0 -10.5 -4.5t-4.5 -10.5v-216
q0 -6 4.5 -10.5t10.5 -4.5zM570 407v146h100v0v0v-146v0v0h-100zM140 160q-24 0 -42 18t-18 42v520q0 24 18 42t42 18h680q24 0 42 -18t18 -42v-520q0 -24 -18 -42t-42 -18h-680zM140 220h680v0v0v520v0v0h-680v0v0v-520v0v0zM140 220v0v0v520v0v0v0v0v0v-520v0v0v0z" />
    <glyph glyph-name="sort_by_alpha" unicode="SORT_BY_ALPHA" 
d="M181 379l-31 -81q-3 -8 -10.5 -13t-16.5 -5q-16 0 -24.5 13t-2.5 27l139 342q3 8 10.5 13t16.5 5h23q9 0 16.5 -5t10.5 -13l138 -342q6 -14 -2.5 -27t-24.5 -13q-9 0 -16.5 5.5t-10.5 13.5l-31 80h-184zM201 431h144l-70 185h-4zM607 332h207q11 0 18.5 -7.5t7.5 -18.5
t-7.5 -18.5t-18.5 -7.5h-247q-8 0 -13.5 5.5t-5.5 13.5v32q0 5 2 10t5 9l226 278h-189q-11 0 -18.5 7.5t-7.5 18.5t7.5 18.5t18.5 7.5h226q8 0 14 -6t6 -14v-32q0 -5 -2 -10t-5 -9zM397 797l72 72q5 5 11 5t11 -5l72 -72q4 -4 2 -8.5t-7 -4.5h-156q-5 0 -7 4.5t2 8.5z
M469 91l-72 72q-4 4 -2 8.5t7 4.5h156q5 0 7 -4.5t-2 -8.5l-72 -72q-5 -5 -11 -5t-11 5z" />
    <glyph glyph-name="airplay" unicode="AIRPLAY" 
d="M80 260v520q0 24 18 42t42 18h680q24 0 42 -18t18 -42v-520q0 -25 -17.5 -42.5t-42.5 -17.5h-120v60h120v0v0v520v0v0h-680v0v0v-520v0v0h119v-60h-119q-25 0 -42.5 17.5t-17.5 42.5zM312 158l147 147q9 9 21 9t21 -9l147 -147q11 -11 5 -24.5t-21 -14.5h-304
q-15 0 -21 14t5 25zM480 490v0v0v0v0v0v0v0v0v0v0v0v0v0v0v0v0v0z" />
    <glyph glyph-name="forward_10" unicode="FORWARD_&#x31;&#x30;" 
d="M480 80q-75 0 -140.5 28t-114.5 77t-77 114.5t-28 140.5t28 140.5t77 114.5t114.5 77t140.5 28h23l-57 57q-8 8 -8 20.5t8 20.5t20 8.5t20 -7.5l106 -106q9 -9 9 -21t-9 -21l-105 -105q-9 -9 -21 -9t-21 9t-9 21t9 21l52 52h-22q-125 0 -210 -87.5t-85 -212.5
t87.5 -212.5t212.5 -87.5t212.5 87.5t87.5 212.5q0 13 8.5 21.5t21.5 8.5t21.5 -8.5t8.5 -21.5q0 -75 -28 -140.5t-77 -114.5t-114.5 -77t-140.5 -28zM360 522h-30q-10 0 -17 7t-7 18t7 17.5t18 6.5h55q11 0 17.5 -6.5t6.5 -17.5v-212q0 -11 -7 -18t-18 -7t-18 7t-7 18v187z
M507 310q-19 0 -31.5 12.5t-12.5 31.5v173q0 19 12.5 31.5t31.5 12.5h83q19 0 31.5 -12.5t12.5 -31.5v-173q0 -19 -12.5 -31.5t-31.5 -12.5h-83zM513 360h71v0v0v162v0v0h-71v0v0v-162v0v0z" />
    <glyph glyph-name="forward_30" unicode="FORWARD_&#x33;&#x30;" 
d="M480 80q-75 0 -140.5 28t-114.5 77t-77 114.5t-28 140.5t28 140.5t77 114.5t114.5 77t140.5 28h23l-57 57q-8 8 -8 20.5t8 20.5t20 8.5t20 -7.5l106 -106q9 -9 9 -21t-9 -21l-105 -105q-9 -9 -21 -9t-21 9t-9 21t9 21l52 52h-22q-125 0 -210 -87.5t-85 -212.5
t87.5 -212.5t212.5 -87.5t212.5 87.5t87.5 212.5q0 13 8.5 21.5t21.5 8.5t21.5 -8.5t8.5 -21.5q0 -75 -28 -140.5t-77 -114.5t-114.5 -77t-140.5 -28zM408 310h-102q-11 0 -18 7t-7 18t7 18t18 7h96v55h-57q-11 0 -18 7t-7 18t7 18t18 7h57v56h-96q-11 0 -18 7t-7 18t7 18
t18 7h102q19 0 31.5 -12.5t12.5 -31.5v-173q0 -19 -12.5 -31.5t-31.5 -12.5zM553 310q-19 0 -31.5 12.5t-12.5 31.5v173q0 19 12.5 31.5t31.5 12.5h83q19 0 31.5 -12.5t12.5 -31.5v-173q0 -19 -12.5 -31.5t-31.5 -12.5h-83zM559 360h71v0v0v161v0v0h-71v0v0v-161v0v0z" />
    <glyph glyph-name="forward_5" unicode="FORWARD_&#x35;" 
d="M480 80q-75 0 -140.5 28t-114.5 77t-77 114.5t-28 140.5t28 140.5t77 114.5t114.5 77t140.5 28h23l-57 57q-8 8 -8 20.5t8 20.5t20 8.5t20 -7.5l106 -106q9 -9 9 -21t-9 -21l-105 -105q-9 -9 -21 -9t-21 9t-9 21t9 21l52 52h-22q-125 0 -210 -87.5t-85 -212.5
t87.5 -212.5t212.5 -87.5t212.5 87.5t87.5 212.5q0 13 8.5 21.5t21.5 8.5t21.5 -8.5t8.5 -21.5q0 -75 -28 -140.5t-77 -114.5t-114.5 -77t-140.5 -28zM522 310h-117q-11 0 -18 7t-7 18t7 18t18 7h102v56h-102q-11 0 -18 7t-7 18v106q0 11 7 17.5t18 6.5h127q10 0 17 -6.5
t7 -17.5t-6.5 -18t-17.5 -7h-102v-57h102q11 0 17.5 -6.5t6.5 -17.5v-97q0 -14 -10 -24t-24 -10z" />
    <glyph glyph-name="replay_10" unicode="REPLAY_&#x31;&#x30;" 
d="M360 522h-30q-10 0 -17 7t-7 18t7 17.5t18 6.5h55q11 0 17.5 -6.5t6.5 -17.5v-212q0 -11 -7 -18t-18 -7t-18 7t-7 18v187zM507 310q-19 0 -31.5 12.5t-12.5 31.5v173q0 19 12.5 31.5t31.5 12.5h83q19 0 31.5 -12.5t12.5 -31.5v-173q0 -19 -12.5 -31.5t-31.5 -12.5h-83z
M513 360h71v0v0v162v0v0h-71v0v0v-162v0v0zM480 80q-75 0 -140.5 28t-114.5 77t-77 114.5t-28 140.5q0 13 8.5 21.5t21.5 8.5t21.5 -8.5t8.5 -21.5q0 -125 87.5 -212.5t212.5 -87.5t212.5 87.5t87.5 212.5t-85 212.5t-210 87.5h-22l52 -52q9 -9 9 -21t-9 -21t-21 -9t-21 9
l-105 105q-9 9 -9 21t9 21l106 106q8 8 20.5 8t20.5 -8t8 -20.5t-8 -20.5l-58 -58h23q75 0 140.5 -28t114.5 -77t77 -114.5t28 -140.5t-28 -140.5t-77 -114.5t-114.5 -77t-140.5 -28z" />
    <glyph glyph-name="replay_30" unicode="REPLAY_&#x33;&#x30;" 
d="M408 310h-102q-11 0 -18 7t-7 18t7 18t18 7h96v55h-57q-11 0 -18 7t-7 18t7 18t18 7h57v56h-96q-11 0 -18 7t-7 18t7 18t18 7h102q19 0 31.5 -12.5t12.5 -31.5v-173q0 -19 -12.5 -31.5t-31.5 -12.5zM553 310q-19 0 -31.5 12.5t-12.5 31.5v173q0 19 12.5 31.5t31.5 12.5
h83q19 0 31.5 -12.5t12.5 -31.5v-173q0 -19 -12.5 -31.5t-31.5 -12.5h-83zM559 360h71v0v0v161v0v0h-71v0v0v-161v0v0zM480 80q-75 0 -140.5 28t-114.5 77t-77 114.5t-28 140.5q0 13 8.5 21.5t21.5 8.5t21.5 -8.5t8.5 -21.5q0 -125 87.5 -212.5t212.5 -87.5t212.5 87.5
t87.5 212.5t-85 212.5t-210 87.5h-22l52 -52q9 -9 9 -21t-9 -21t-21 -9t-21 9l-105 105q-9 9 -9 21t9 21l106 106q8 8 20.5 8t20.5 -8t8 -20.5t-8 -20.5l-58 -58h23q75 0 140.5 -28t114.5 -77t77 -114.5t28 -140.5t-28 -140.5t-77 -114.5t-114.5 -77t-140.5 -28z" />
    <glyph glyph-name="replay_5" unicode="REPLAY_&#x35;" 
d="M522 310h-117q-11 0 -18 7t-7 18t7 18t18 7h102v56h-102q-11 0 -18 7t-7 18v106q0 11 7 17.5t18 6.5h127q10 0 17 -6.5t7 -17.5t-6.5 -18t-17.5 -7h-102v-57h102q11 0 17.5 -6.5t6.5 -17.5v-97q0 -14 -10 -24t-24 -10zM480 80q-75 0 -140.5 28t-114.5 77t-77 114.5
t-28 140.5q0 13 8.5 21.5t21.5 8.5t21.5 -8.5t8.5 -21.5q0 -125 87.5 -212.5t212.5 -87.5t212.5 87.5t87.5 212.5t-85 212.5t-210 87.5h-22l52 -52q9 -9 9 -21t-9 -21t-21 -9t-21 9l-105 105q-9 9 -9 21t9 21l106 106q8 8 20.5 8t20.5 -8t8 -20.5t-8 -20.5l-58 -58h23
q75 0 140.5 -28t114.5 -77t77 -114.5t28 -140.5t-28 -140.5t-77 -114.5t-114.5 -77t-140.5 -28z" />
    <glyph glyph-name="add_to_queue" unicode="ADD_TO_QUEUE" 
d="M450 490v-100q0 -13 8.5 -21.5t21.5 -8.5t21.5 8.5t8.5 21.5v100h100q13 0 21.5 8.5t8.5 21.5t-8.5 21.5t-21.5 8.5h-100v100q0 13 -8.5 21.5t-21.5 8.5t-21.5 -8.5t-8.5 -21.5v-100h-100q-13 0 -21.5 -8.5t-8.5 -21.5t8.5 -21.5t21.5 -8.5h100zM140 200q-24 0 -42 18
t-18 42v520q0 24 18 42t42 18h680q24 0 42 -18t18 -42v-520q0 -24 -18 -42t-42 -18h-190v-50q0 -13 -8.5 -21.5t-21.5 -8.5h-240q-13 0 -21.5 8.5t-8.5 21.5v50h-190zM140 260h680v0v0v520v0v0h-680v0v0v-520v0v0zM140 260v0v0v520v0v0v0v0v0v-520v0v0v0z" />
    <glyph glyph-name="fiber_dvr" unicode="FIBER_DVR" 
d="M174 357h132q20 0 35 15t15 35v146q0 20 -15 35t-35 15h-132q-6 0 -10.5 -4.5t-4.5 -10.5v-216q0 -6 4.5 -10.5t10.5 -4.5zM209 407v146h97v0v0v-146v0v0h-97zM479 428l-49 160q-2 7 -7.5 11t-13.5 4q-11 0 -17 -8t-3 -19l57 -202q2 -8 8.5 -12.5t14.5 -4.5h14
q8 0 14.5 4.5t8.5 12.5l63 199q4 11 -3.5 20.5t-19.5 9.5q-8 0 -14.5 -5t-8.5 -13zM655 446h58l27 -74q2 -7 8 -11t14 -4q12 0 19.5 10.5t2.5 21.5l-23 62v0q17 4 29 16.5t12 28.5v57q0 20 -15 35t-35 15h-132q-6 0 -10.5 -4.5t-4.5 -10.5v-206q0 -11 7 -18t18 -7t18 7t7 18
v64zM655 496v57h97v0v0v-57v0v0h-97zM100 160q-24 0 -42 18t-18 42v520q0 24 18 42t42 18h760q25 0 42.5 -18t17.5 -42v-520q0 -24 -17.5 -42t-42.5 -18h-760zM100 220h760v0v0v520v0v0h-760v0v0v-520v0v0zM100 220v0v0v520v0v0v0v0v0v-520v0v0v0z" />
    <glyph glyph-name="fiber_new" unicode="FIBER_NEW" 
d="M100 160q-24 0 -42 18t-18 42v520q0 24 18 42t42 18h760q25 0 42.5 -18t17.5 -42v-520q0 -24 -17.5 -42t-42.5 -18h-760zM100 220h760v0v0v520v0v0h-760v0v0v-520v0v0zM175 527l110 -161q3 -5 7.5 -7t9.5 -2h11q9 0 15 6t6 15v203q0 9 -6.5 15.5t-15.5 6.5t-16 -6.5
t-7 -15.5v-148l-107 160q-3 5 -8.5 7.5t-10.5 2.5h-10q-9 0 -16 -6.5t-7 -15.5v-202q0 -9 7 -15.5t16 -6.5t15.5 7t6.5 16v147zM394 357h120q9 0 15.5 7t6.5 16t-6.5 15.5t-15.5 6.5h-85v54h85q9 0 15.5 7t6.5 16t-6.5 15.5t-15.5 6.5h-85v56h84q10 0 16.5 6.5t6.5 16.5
t-6.5 16.5t-16.5 6.5h-119q-6 0 -10.5 -4.5t-4.5 -10.5v-216q0 -6 4.5 -10.5t10.5 -4.5zM627 357h170q14 0 24 9.5t10 23.5v191q0 9 -6.5 15.5t-15.5 6.5t-16 -6.5t-7 -15.5v-174h-53v133q0 9 -6.5 15.5t-15.5 6.5t-16 -6.5t-7 -15.5v-133h-49v174q0 9 -6.5 15.5t-15.5 6.5
t-16 -6.5t-7 -15.5v-191q0 -14 9.5 -23.5t23.5 -9.5zM100 220v0v0v520v0v0v0v0v0v-520v0v0v0z" />
    <glyph glyph-name="playlist_play" unicode="PLAYLIST_PLAY" 
d="M150 330q-13 0 -21.5 8.5t-8.5 21.5t8.5 21.5t21.5 8.5h246q13 0 21.5 -8.5t8.5 -21.5t-8.5 -21.5t-21.5 -8.5h-246zM150 495q-13 0 -21.5 8.5t-8.5 21.5t8.5 21.5t21.5 8.5h413q13 0 21.5 -8.5t8.5 -21.5t-8.5 -21.5t-21.5 -8.5h-413zM150 660q-13 0 -21.5 8.5
t-8.5 21.5t8.5 21.5t21.5 8.5h413q13 0 21.5 -8.5t8.5 -21.5t-8.5 -21.5t-21.5 -8.5h-413zM686 138q-4 -3 -8 -3.5t-8 1.5t-6 5.5t-2 8.5v262q0 5 2 8.5t6 5.5t8 1.5t8 -3.5l178 -131q3 -2 4.5 -5t1.5 -7t-1.5 -7t-4.5 -5z" />
    <glyph glyph-name="art_track" unicode="ART_TRACK" 
d="M100 200q-24 0 -42 18t-18 42v440q0 24 18 42t42 18h440q24 0 42 -18t18 -42v-440q0 -24 -18 -42t-42 -18h-440zM100 260h440v0v0v440v0v0h-440v0v0v-440v0v0zM296 380l-48 66q-5 6 -12 6t-12 -6l-50 -65q-6 -8 -1.5 -16t13.5 -8h265q9 0 13 8t-1 16l-70 93q-5 6 -12 6
t-12 -6zM730 200q-13 0 -21.5 8.5t-8.5 21.5v500q0 13 8.5 21.5t21.5 8.5t21.5 -8.5t8.5 -21.5v-500q0 -13 -8.5 -21.5t-21.5 -8.5zM890 200q-13 0 -21.5 8.5t-8.5 21.5v500q0 13 8.5 21.5t21.5 8.5t21.5 -8.5t8.5 -21.5v-500q0 -13 -8.5 -21.5t-21.5 -8.5zM100 260v0v0v440
v0v0v0v0v0v-440v0v0v0z" />
    <glyph glyph-name="fiber_manual_record" unicode="FIBER_MANUAL_RECORD" 
d="M478 478v0v0v0v0v0v0v0v0zM480 200q-117 0 -198.5 81.5t-81.5 198.5t81.5 198.5t198.5 81.5t198.5 -81.5t81.5 -198.5t-81.5 -198.5t-198.5 -81.5zM480 260q92 0 156 64t64 156t-64 156t-156 64t-156 -64t-64 -156t64 -156t156 -64z" />
    <glyph glyph-name="fiber_smart_record" unicode="FIBER_SMART_RECORD" 
d="M360 200q-117 0 -198.5 81.5t-81.5 198.5t81.5 198.5t198.5 81.5t198.5 -81.5t81.5 -198.5t-81.5 -198.5t-198.5 -81.5zM360 480v0v0v0v0v0v0v0v0zM683 216q-15 -5 -26.5 4.5t-11.5 26.5q0 8 6 15.5t14 9.5q69 20 112 78.5t43 132.5t-43 132t-112 78q-8 2 -14 9.5
t-6 16.5q0 17 11.5 26t26.5 4q87 -26 142 -99t55 -167t-55 -167t-142 -100zM360 260q92 0 156 64t64 156t-64 156t-156 64t-156 -64t-64 -156t64 -156t156 -64z" />
    <glyph glyph-name="music_video" unicode="MUSIC_VIDEO" 
d="M430 290q38 0 64 26.5t26 63.5v218h72q15 0 25.5 10.5t10.5 25.5t-10.5 25.5t-25.5 10.5h-72q-15 0 -25.5 -10.5t-10.5 -25.5v-180q-10 7 -25.5 11.5t-28.5 4.5q-38 0 -64 -26.5t-26 -63.5t26 -63.5t64 -26.5zM140 160q-24 0 -42 18t-18 42v520q0 24 18 42t42 18h680
q24 0 42 -18t18 -42v-520q0 -24 -18 -42t-42 -18h-680zM140 220h680v0v0v520v0v0h-680v0v0v-520v0v0zM140 220v0v0v520v0v0v0v0v0v-520v0v0v0z" />
    <glyph glyph-name="subscriptions" unicode="SUBSCRIPTIONS" 
d="M140 80q-24 0 -42 18t-18 42v440q0 24 18 42t42 18h680q24 0 42 -18t18 -42v-440q0 -24 -18 -42t-42 -18h-680zM140 140h680v0v0v440v0v0h-680v0v0v-440v0v0zM430 227l179 121q7 5 7 12t-7 12l-179 120q-8 5 -15.5 1t-7.5 -13v-241q0 -9 7.5 -13t15.5 1zM179 700
q-13 0 -21.5 8.5t-8.5 21.5t8.5 21.5t21.5 8.5h602q13 0 21.5 -8.5t8.5 -21.5t-8.5 -21.5t-21.5 -8.5h-602zM310 820q-13 0 -21.5 8.5t-8.5 21.5t8.5 21.5t21.5 8.5h340q13 0 21.5 -8.5t8.5 -21.5t-8.5 -21.5t-21.5 -8.5h-340zM140 140v0v0v440v0v0v0v0v0v-440v0v0v0z" />
    <glyph glyph-name="playlist_add_check" unicode="PLAYLIST_ADD_CHECK" 
d="M150 331q-13 0 -21.5 8.5t-8.5 21.5t8.5 21.5t21.5 8.5h246q13 0 21.5 -8.5t8.5 -21.5t-8.5 -21.5t-21.5 -8.5h-246zM150 496q-13 0 -21.5 8.5t-8.5 21.5t8.5 21.5t21.5 8.5h413q13 0 21.5 -8.5t8.5 -21.5t-8.5 -21.5t-21.5 -8.5h-413zM150 661q-13 0 -21.5 8.5
t-8.5 21.5t8.5 21.5t21.5 8.5h413q13 0 21.5 -8.5t8.5 -21.5t-8.5 -21.5t-21.5 -8.5h-413zM652 213q-6 0 -11 2t-10 7l-94 94q-9 9 -9 21t9 21t21.5 9.5t21.5 -8.5l72 -72l164 164q9 9 21 8.5t21 -9.5t9 -21.5t-9 -21.5l-185 -185q-5 -5 -10 -7t-11 -2z" />
    <glyph glyph-name="queue_play_next" unicode="QUEUE_PLAY_NEXT" 
d="M868 230l-100 100q-10 10 -10 23t10 23t23 10t23 -10l126 -125q9 -9 9 -21t-9 -21l-126 -126q-10 -10 -23 -10t-23 10t-10 23.5t10 23.5zM360 120q-13 0 -21.5 8.5t-8.5 21.5v50h-190q-24 0 -42 18t-18 42v520q0 24 18 42t42 18h680q24 0 42 -18t18 -42v-267
q0 -13 -8.5 -21.5t-21.5 -8.5v0q-13 0 -21.5 8.5t-8.5 21.5v267v0v0h-680v0v0v-520v0v0h516q13 0 21.5 -8.5t8.5 -21.5v0q0 -13 -8.5 -21.5t-21.5 -8.5h-26v-50q0 -13 -8.5 -21.5t-21.5 -8.5h-240zM449 499v-100q0 -13 8.5 -21.5t21.5 -8.5t21.5 8.5t8.5 21.5v100h100
q13 0 21.5 8.5t8.5 21.5t-8.5 21.5t-21.5 8.5h-100v100q0 13 -8.5 21.5t-21.5 8.5t-21.5 -8.5t-8.5 -21.5v-100h-100q-13 0 -21.5 -8.5t-8.5 -21.5t8.5 -21.5t21.5 -8.5h100zM140 260v0v0v0v520v0v0v0v0v0v-520v0v0v0v0z" />
    <glyph glyph-name="remove_from_queue" unicode="REMOVE_FROM_QUEUE" 
d="M350 493h260q13 0 21.5 8.5t8.5 21.5t-8.5 21.5t-21.5 8.5h-260q-13 0 -21.5 -8.5t-8.5 -21.5t8.5 -21.5t21.5 -8.5zM140 200q-24 0 -42 18t-18 42v520q0 24 18 42t42 18h680q24 0 42 -18t18 -42v-520q0 -24 -18 -42t-42 -18h-190v-50q0 -13 -8.5 -21.5t-21.5 -8.5h-240
q-13 0 -21.5 8.5t-8.5 21.5v50h-190zM140 260h680v0v0v520v0v0h-680v0v0v-520v0v0zM140 260v0v0v520v0v0v0v0v0v-520v0v0v0z" />
    <glyph glyph-name="slow_motion_video" unicode="SLOW_MOTION_VIDEO" 
d="M418 332l202 129q11 7 11 19t-11 19l-202 129q-11 8 -23 1.5t-12 -20.5v-258q0 -14 12 -20.5t23 1.5zM112 450q14 0 23.5 -8.5t12.5 -22.5q6 -30 17 -59t28 -55q8 -12 7 -25t-11 -23q-10 -9 -22.5 -8.5t-20.5 11.5q-24 35 -39.5 75t-21.5 82q-2 13 6 23t21 10zM189 724
q10 -10 11.5 -23.5t-6.5 -25.5q-17 -26 -28.5 -55t-17.5 -59q-3 -13 -12.5 -22t-23.5 -9q-13 0 -21.5 9.5t-6.5 22.5q6 42 21.5 82.5t40.5 75.5q8 11 20.5 12t22.5 -8zM248 196q10 11 24 12.5t27 -6.5q26 -15 54.5 -27t57.5 -20q13 -3 21.5 -13t8.5 -23q0 -12 -10 -19.5
t-22 -5.5q-42 8 -81 22.5t-74 36.5q-11 7 -13 20t7 23zM444 861q0 -13 -8.5 -23t-21.5 -13q-30 -7 -58 -18.5t-54 -27.5q-13 -8 -27.5 -7t-25.5 12q-10 10 -8 23t13 21q36 23 76 36.5t83 21.5q12 2 21.5 -5.5t9.5 -19.5zM820 490q0 122 -76.5 216t-194.5 120q-11 2 -18 12.5
t-7 22.5t9 20t21 6q143 -25 234.5 -137t91.5 -260t-91.5 -259.5t-234.5 -137.5q-12 -2 -21 6t-9 20t7 22.5t18 12.5q118 26 194.5 120t76.5 216z" />
    <glyph glyph-name="web_asset" unicode="WEB_ASSET" 
d="M140 160q-24 0 -42 18t-18 42v520q0 24 18 42t42 18h680q24 0 42 -18t18 -42v-520q0 -24 -18 -42t-42 -18h-680zM140 220h680v0v0v436h-680v-436v0v0z" />
    <glyph glyph-name="fiber_pin" unicode="FIBER_PIN" 
d="M243 446h100q23 0 36.5 14.5t13.5 35.5v57q0 21 -13.5 35.5t-36.5 14.5h-135q-6 0 -10.5 -4.5t-4.5 -10.5v-206q0 -11 7 -18t18 -7t18 7t7 18v64zM470 603q-11 0 -18 -7t-7 -18v-196q0 -11 7 -18t18 -7t18 7t7 18v196q0 11 -7 18t-18 7zM598 535l112 -167q4 -5 9 -8
t11 -3h12q11 0 17.5 6.5t6.5 17.5v200q0 9 -6.5 15.5t-15.5 6.5t-16 -6.5t-7 -15.5v-149l-116 162q-3 5 -8 7t-10 2h-11q-9 0 -16 -6.5t-7 -15.5v-202q0 -9 7 -15.5t16 -6.5t15.5 7t6.5 16v155zM243 496v57h100v0v0v-57v0v0h-100zM140 160q-24 0 -42 18t-18 42v520
q0 24 18 42t42 18h680q24 0 42 -18t18 -42v-520q0 -24 -18 -42t-42 -18h-680zM140 220h680v0v0v520v0v0h-680v0v0v-520v0v0zM140 220v0v0v520v0v0v0v0v0v-520v0v0v0z" />
    <glyph glyph-name="branding_watermark" unicode="BRANDING_WATERMARK" 
d="M435 274h301q13 0 21.5 8.5t8.5 21.5v198q0 13 -8.5 21.5t-21.5 8.5h-301q-13 0 -21.5 -8.5t-8.5 -21.5v-198q0 -13 8.5 -21.5t21.5 -8.5zM140 160q-24 0 -42 18t-18 42v520q0 24 18 42t42 18h680q24 0 42 -18t18 -42v-520q0 -24 -18 -42t-42 -18h-680zM140 220h680v0v0
v520v0v0h-680v0v0v-520v0v0zM140 220v0v0v520v0v0v0v0v0v-520v0v0v0z" />
    <glyph glyph-name="call_to_action" unicode="CALL_TO_ACTION" 
d="M140 160q-24 0 -42 18t-18 42v520q0 24 18 42t42 18h680q24 0 42 -18t18 -42v-520q0 -24 -18 -42t-42 -18h-680zM140 220h680v0v0v520v0v0h-680v0v0v-520v0v0zM140 220v0v0v520v0v0v0v0v0v-520v0v0v0zM289 274h383q22 0 37 15.5t15 37.5t-15 37t-37 15h-384
q-22 0 -37 -15t-15 -37t15.5 -37.5t37.5 -15.5z" />
    <glyph glyph-name="featured_play_list" unicode="FEATURED_PLAY_LIST" 
d="M267 454h301q13 0 21.5 8.5t8.5 21.5t-8.5 21.5t-21.5 8.5h-301q-13 0 -21.5 -8.5t-8.5 -21.5t8.5 -21.5t21.5 -8.5zM267 583h301q13 0 21.5 8.5t8.5 21.5t-8.5 21.5t-21.5 8.5h-301q-13 0 -21.5 -8.5t-8.5 -21.5t8.5 -21.5t21.5 -8.5zM140 160q-24 0 -42 18t-18 42v520
q0 24 18 42t42 18h680q24 0 42 -18t18 -42v-520q0 -24 -18 -42t-42 -18h-680zM140 220h680v0v0v520v0v0h-680v0v0v-520v0v0zM140 220v0v0v520v0v0v0v0v0v-520v0v0v0z" />
    <glyph glyph-name="featured_video" unicode="FEATURED_VIDEO" 
d="M224 408h301q13 0 21.5 8.5t8.5 21.5v218q0 13 -8.5 21.5t-21.5 8.5h-301q-13 0 -21.5 -8.5t-8.5 -21.5v-218q0 -13 8.5 -21.5t21.5 -8.5zM140 160q-24 0 -42 18t-18 42v520q0 24 18 42t42 18h680q24 0 42 -18t18 -42v-520q0 -24 -18 -42t-42 -18h-680zM140 220h680v0v0
v520v0v0h-680v0v0v-520v0v0zM140 220v0v0v520v0v0v0v0v0v-520v0v0v0z" />
    <glyph glyph-name="note" unicode="DRAFT" 
d="M220 80q-24 0 -42 18t-18 42v680q0 24 18 42t42 18h336q12 0 23.5 -5t19.5 -13l183 -183q8 -8 13 -19.5t5 -23.5v-496q0 -24 -18 -42t-42 -18h-520zM551 664v156h-331v0v0v-680v0v0h520v0v0v494h-159q-13 0 -21.5 8.5t-8.5 21.5zM220 820v0v-156v-21.5v-8.5v0v186v-156
v-21.5v-8.5v0v-494v0v0v0v0v0v680v0v0z" />
    <glyph glyph-name="video_call" unicode="VIDEO_CALL" 
d="M372 452v-102q0 -13 8.5 -21.5t21.5 -8.5t21.5 8.5t8.5 21.5v102h102q13 0 21.5 8.5t8.5 21.5t-8.5 21.5t-21.5 8.5h-102v102q0 13 -8.5 21.5t-21.5 8.5t-21.5 -8.5t-8.5 -21.5v-102h-102q-13 0 -21.5 -8.5t-8.5 -21.5t8.5 -21.5t21.5 -8.5h102zM140 160q-24 0 -42 18
t-18 42v520q0 24 18 42t42 18h520q24 0 42 -18t18 -42v-215l134 134q7 7 16.5 3.5t9.5 -13.5v-338q0 -10 -9.5 -13.5t-16.5 3.5l-134 134v-215q0 -24 -18 -42t-42 -18h-520zM140 220h520v0v0v520v0v0h-520v0v0v-520v0v0zM140 220v0v0v520v0v0v0v0v0v-520v0v0v0z" />
    <glyph glyph-name="video_label" unicode="VIDEO_LABEL" 
d="M140 160q-24 0 -42 18t-18 42v520q0 24 18 42t42 18h680q24 0 42 -18t18 -42v-520q0 -24 -18 -42t-42 -18h-680zM140 349h680v391v0v0h-680v0v0v-391z" />
    <glyph glyph-name="_4k" unicode="&#x34;K" 
d="M570 450l77 -82q2 -2 17 -8q16 0 22.5 15t-4.5 26l-74 79l74 80q11 11 4.5 25.5t-22.5 14.5q-5 0 -9 -2t-8 -6l-77 -82v65q0 11 -7 18t-18 7t-18 -7t-7 -18v-190q0 -11 7 -18t18 -7t18 7t7 18v65zM370 423v-38q0 -11 7 -18t18 -7t18 7t7 18v38h15q11 0 18 7t7 18t-7 18
t-18 7h-15v102q0 11 -7 18t-18 7t-18 -7t-7 -18v-102h-64v102q0 11 -7 18t-18 7t-18 -7t-7 -18v-127q0 -11 7 -18t18 -7h89zM180 120q-24 0 -42 18t-18 42v600q0 24 18 42t42 18h600q24 0 42 -18t18 -42v-600q0 -24 -18 -42t-42 -18h-600zM180 180h600v0v0v600v0v0h-600v0v0
v-600v0v0zM180 780v0v0v0v-600v0v0v0v0v0v600v0v0z" />
    <glyph glyph-name="missed_video_call" unicode="MISSED_VIDEO_CALL_FILLED" 
d="M429 343q6 0 11 2t10 7l133 133q9 9 9 21.5t-9 21.5t-21.5 9t-21.5 -9l-111 -111l-123 123h60q13 0 21.5 8.5t8.5 21.5t-8.5 21.5t-21.5 8.5h-136q-13 0 -21.5 -8.5t-8.5 -21.5v-130q0 -13 8.5 -21.5t21.5 -8.5t21.5 8.5t8.5 21.5v60l148 -148q5 -5 10 -7t11 -2zM140 160
q-24 0 -42 18t-18 42v520q0 24 18 42t42 18h520q24 0 42 -18t18 -42v-215l134 134q7 7 16.5 3.5t9.5 -13.5v-338q0 -10 -9.5 -13.5t-16.5 3.5l-134 134v-215q0 -24 -18 -42t-42 -18h-520zM140 220h520v0v0v520v0v0h-520v0v0v-520v0v0zM140 220v0v0v520v0v0v0v0v0v-520v0v0v0
z" />
    <glyph glyph-name="control_camera" unicode="CONTROL_CAMERA" 
d="M480 375q-44 0 -74.5 30.5t-30.5 74.5t30.5 74.5t74.5 30.5t74.5 -30.5t30.5 -74.5t-30.5 -74.5t-74.5 -30.5zM437 122l-115 115q-9 9 -9 21t9 21t21 9t21 -9l114 -115v0v0l116 116q9 9 21 9t21 -9t9 -21.5t-9 -21.5l-114 -115q-9 -9 -20 -13.5t-23 -4.5q-11 0 -22 4.5
t-20 13.5zM237 321l-115 115q-9 9 -13.5 20t-4.5 22t4.5 22.5t13.5 20.5l115 115q9 9 21 9t21 -9t9 -21t-9 -21l-115 -115v0v0l115 -115q9 -9 9 -21.5t-9 -21.5t-21 -9t-21 9zM321 721l115 115q9 9 20 13t22 4t22 -4t20 -13l116 -115q9 -9 9 -21t-9 -21t-21 -9t-21 9
l-115 115v0v0l-116 -116q-9 -9 -21 -8.5t-21 9.5t-9 21t9 21zM679 364l114 114v0v0l-115 116q-9 9 -9 21.5t9 21.5t21.5 9t21.5 -9l116 -116q9 -9 13 -20t4 -22t-4 -22t-13 -20l-116 -116q-9 -9 -21 -8.5t-21 9.5t-9 21t9 21z" />
    <glyph glyph-name="update_disabled" unicode="UPDATE_DISABLED" 
d="M483 120q-75 0 -141 28.5t-115.5 77.5t-78 115t-28.5 141q0 58 17 110t49 96l-104 104q-9 9 -9 21.5t9 21.5t21.5 9t21.5 -9l710 -710q9 -9 9 -21t-9 -21t-21.5 -9t-21.5 9l-104 103q-44 -32 -95.5 -49t-109.5 -17zM483 180q45 0 86 13t76 36l-416 416q-23 -35 -36 -75
t-13 -85q0 -127 88 -216t215 -89zM483 780q-47 0 -89 -13t-79 -36l-43 43q45 32 98.5 49t112.5 17q80 0 151.5 -35t123.5 -96v76q0 13 8.5 21.5t21.5 8.5t21.5 -8.5t8.5 -21.5v-148q0 -13 -8.5 -21.5t-21.5 -8.5h-149q-13 0 -21.5 8.5t-8.5 21.5t8.5 21.5t21.5 8.5h75
q-44 51 -103.5 82t-127.5 31zM511 535l-60 60v58q0 13 8.5 21.5t21.5 8.5t21.5 -8.5t8.5 -21.5v-118zM774 272l-43 43q20 30 32 64t16 72q2 13 10.5 21.5t20.5 8.5q13 0 21.5 -9t7.5 -21q-5 -51 -21.5 -96t-43.5 -83z" />
    <glyph glyph-name="vertical_distribute" unicode="VERTICAL_DISTRIBUTE" 
d="M110 80q-13 0 -21.5 8.5t-8.5 21.5t8.5 21.5t21.5 8.5h740q13 0 21.5 -8.5t8.5 -21.5t-8.5 -21.5t-21.5 -8.5h-740zM330 430q-21 0 -35.5 14.5t-14.5 35.5t14.5 35.5t35.5 14.5h300q21 0 35.5 -14.5t14.5 -35.5t-14.5 -35.5t-35.5 -14.5h-300zM110 820q-13 0 -21.5 8.5
t-8.5 21.5t8.5 21.5t21.5 8.5h740q13 0 21.5 -8.5t8.5 -21.5t-8.5 -21.5t-21.5 -8.5h-740z" />
    <glyph glyph-name="start" unicode="START" 
d="M110 240q-13 0 -21.5 8.5t-8.5 21.5v420q0 13 8.5 21.5t21.5 8.5t21.5 -8.5t8.5 -21.5v-420q0 -13 -8.5 -21.5t-21.5 -8.5zM765 450h-496q-13 0 -21.5 8.5t-8.5 21.5t8.5 21.5t21.5 8.5h496l-147 148q-9 9 -9 21t9 21t21 9t21 -9l199 -199q5 -5 7 -10t2 -11t-2 -11
t-7 -10l-199 -199q-9 -9 -21 -9t-21 9t-9 21.5t9 21.5z" />
    <glyph glyph-name="call_log" unicode="CALL_LOG" 
d="M755 80q-116 0 -236.5 56t-223.5 159t-159 223.5t-56 236.5q0 19 13 32t32 13h140q14 0 24 -10t14 -25l27 -126q2 -14 -0.5 -25.5t-10.5 -19.5l-100 -101q26 -44 55 -82t64 -72q37 -38 78 -69.5t86 -55.5l95 98q10 11 23 15t26 2l119 -26q15 -4 25 -16t10 -27v-135
q0 -19 -13 -32t-32 -13zM189 548l81 82v0v0l-23 110v0v0h-107v0v0q2 -42 13.5 -88.5t35.5 -103.5zM558 185q41 -19 89 -31t93 -14v0v0v107v0v0l-103 21v0v0zM189 548v0v0v0v0v0v0v0v0v0v0v0zM558 185v0v0v0v0v0v0v0v0v0v0v0zM530 820q-13 0 -21.5 8.5t-8.5 21.5t8.5 21.5
t21.5 8.5h320q13 0 21.5 -8.5t8.5 -21.5t-8.5 -21.5t-21.5 -8.5h-320zM530 680q-13 0 -21.5 8.5t-8.5 21.5t8.5 21.5t21.5 8.5h320q13 0 21.5 -8.5t8.5 -21.5t-8.5 -21.5t-21.5 -8.5h-320zM530 540q-13 0 -21.5 8.5t-8.5 21.5t8.5 21.5t21.5 8.5h320q13 0 21.5 -8.5
t8.5 -21.5t-8.5 -21.5t-21.5 -8.5h-320z" />
    <glyph glyph-name="add_notes" unicode="ADD_NOTES" 
d="M180 120q-25 0 -42.5 17.5t-17.5 42.5v600q0 25 17.5 42.5t42.5 17.5h600q25 0 42.5 -17.5t17.5 -42.5v-329q-14 8 -29.5 13t-30.5 8v308v0v0h-600v0v0v-600v0v0h309q4 -16 9 -31t12 -29h-330zM180 227v-24.5v-22.5v0v0v0v600v0v0v0v0v0v-308v3v1v-73.5v-175.5zM280 310
q0 -13 8.5 -21.5t21.5 -8.5h181q4 16 9 31t13 29h-203q-13 0 -21.5 -8.5t-8.5 -21.5zM280 480q0 -13 8.5 -21.5t21.5 -8.5h314q14 7 27 11.5t29 8.5v10q0 12 -9 21t-21 9h-340q-13 0 -21.5 -8.5t-8.5 -21.5zM280 650q0 -13 8.5 -21.5t21.5 -8.5h340q13 0 21.5 8.5t8.5 21.5
t-8.5 21.5t-21.5 8.5h-340q-13 0 -21.5 -8.5t-8.5 -21.5zM733 41q-78 0 -133 55.5t-55 131.5q0 78 55 133.5t133 55.5q77 0 132.5 -55.5t55.5 -133.5q0 -76 -55.5 -131.5t-132.5 -55.5zM718 211v-94q0 -7 5 -11.5t12 -4.5t11.5 5t4.5 12v93h94q7 0 11.5 5t4.5 12t-4.5 11.5
t-11.5 4.5h-94v94q0 7 -4.5 11.5t-11.5 4.5t-12 -4.5t-5 -11.5v-94h-94q-7 0 -11.5 -4.5t-4.5 -11.5t5 -12t12 -5h93z" />
    <glyph glyph-name="all_match" unicode="ALL_MATCH" 
d="M230 260l142 220l-142 220v0v0v0l142 -220v0v0l-22 -34.5t-49 -75.5t-49 -75.5l-22 -34.5v0zM487 200h-312q-18 0 -26.5 15.5t1.5 30.5l150 234l-150 234q-10 15 -1.5 30.5t26.5 15.5h423q22 0 40 -11.5t31 -28.5l171 -240l-15 -21q-14 6 -27 9.5t-24 5.5l-164 226v0v0
h-380l142 -220l-142 -220h257q-2 -15 -2 -30t2 -30zM704 224l-17 17q-9 9 -21.5 9t-21.5 -9t-9 -21t9 -21l44 -44q7 -7 16 -7t16 7l102 100q9 9 9 21.5t-9 21.5t-21.5 9t-21.5 -9zM733 41q-78 0 -133 55.5t-55 131.5q0 78 55 133.5t133 55.5q77 0 132.5 -55.5t55.5 -133.5
q0 -76 -55.5 -131.5t-132.5 -55.5z" />
    <glyph glyph-name="allergies" unicode="ALLERGIES" 
d="M390 513v-233q0 -13 8.5 -21.5t21.5 -8.5t21.5 8.5t8.5 21.5v237q0 5 -1.5 10t-3.5 10l-60 121q-5 11 -17.5 15t-23.5 -2q-11 -5 -14.5 -17t1.5 -23zM570 513l59 118q5 11 1.5 23t-14.5 17t-23.5 1.5t-17.5 -14.5l-60 -121q-2 -5 -3.5 -10t-1.5 -10v-237q0 -13 8.5 -21.5
t21.5 -8.5t21.5 8.5t8.5 21.5v233zM644 449q11 -5 23.5 -1.5t17.5 14.5l44 89q5 11 1 23t-15 17t-23 1t-17 -15l-44 -88q-5 -11 -1.5 -23t14.5 -17zM315 449q11 5 15 17t-1 23l-44 89q-5 11 -17.5 14.5t-23.5 -1.5t-14.5 -17t1.5 -23l44 -89q5 -11 17 -14.5t23 1.5zM480 80
q-82 0 -155 31.5t-127.5 86t-86 127.5t-31.5 155q0 83 31.5 156t86 127t127.5 85.5t155 31.5q83 0 156 -31.5t127 -85.5t85.5 -127t31.5 -156q0 -82 -31.5 -155t-85.5 -127.5t-127 -86t-156 -31.5zM480 140q142 0 241 99.5t99 240.5q0 142 -99 241t-241 99
q-141 0 -240.5 -99t-99.5 -241q0 -141 99.5 -240.5t240.5 -99.5zM480 480v0v0v0v0v0v0v0v0z" />
    <glyph glyph-name="blood_pressure" unicode="BLOOD_PRESSURE" 
d="M80 570v170q0 24 18 42t42 18h680q24 0 42 -18t18 -42v-230q0 -13 -8.5 -21.5t-21.5 -8.5t-21.5 8.5t-8.5 21.5v230v0v0h-680v0v0v-170h-60zM280 290q-9 0 -16 4t-12 12l-71 144h-71q-13 0 -21.5 8.5t-8.5 21.5t8.5 21.5t21.5 8.5h90q8 0 15 -4.5t11 -12.5l54 -106
l133 266q4 8 11.5 11.5t15.5 3.5t15.5 -3.5t11.5 -11.5l80 -161q-13 -8 -25 -18.5t-23 -21.5l-59 120l-134 -266q-4 -8 -11 -12t-15 -4zM461 160h-321q-24 0 -42 18t-18 42v170h60v-170v0v0h297q4 -16 10 -31t14 -29zM480 480v0v0v0v0v0v0v0v0v0v0v0v0v0v0v0v0zM680 90
q-79 0 -134.5 55.5t-55.5 134.5t55.5 134.5t134.5 55.5t134.5 -55.5t55.5 -134.5t-55.5 -134.5t-134.5 -55.5zM765 337q6 6 6 14t-6 14t-14 6t-14 -6l-63 -62q-6 -6 -6 -14.5t6 -14.5t14.5 -6t14.5 6z" />
    <glyph glyph-name="body_fat" unicode="BODY_FAT" 
d="M713 113l-625 312q-17 8 -25 23t-8 30q0 16 8 31t25 23l625 312q15 8 30.5 6.5t28.5 -9.5t20.5 -21t7.5 -30v-170h10q13 0 21.5 -8.5t8.5 -21.5t-8.5 -21.5t-21.5 -8.5h-80q-12 0 -21 8.5t-9 21.5t8.5 21.5t21.5 8.5h10v168v0v0l-219 -108q32 -44 50.5 -95t18.5 -105
q0 -56 -19 -107t-52 -96l220 -109v0v0v171h-9q-13 0 -21.5 9t-8.5 22t8.5 21.5t21.5 8.5h80q13 0 21.5 -8.5t8.5 -21.5t-9 -22t-22 -9h-9v-172q0 -17 -7.5 -30t-20.5 -21t-28.5 -9.5t-30.5 6.5zM464 305q29 38 47.5 82.5t18.5 92.5t-18 91t-47 81l-350 -173v0v0z" />
    <glyph glyph-name="body_system" unicode="BODY_SYSTEM" 
d="M437 453l-47 -190q-1 -5 -4 -9t-6.5 -7t-8.5 -5t-11 -2q-14 0 -23 11t-6 25l73 350l-101 -43v-63q0 -13 -8.5 -21.5t-21.5 -8.5t-22 9t-9 22v102l192 81q14 6 29.5 7.5t30.5 -1.5q17 -3 29.5 -11t20.5 -20l42 -66q20 -32 51 -59t59 -38q11 -5 19 -14.5t8 -21.5t-8 -20.5
t-19 -5.5q-38 10 -83 40t-81 80l-27 -98l92 -83v-123q0 -13 -8.5 -21.5t-21.5 -8.5t-21.5 8.5t-8.5 21.5v92zM550 754q-30 0 -51.5 21.5t-21.5 51.5t21.5 51.5t51.5 21.5t51.5 -21.5t21.5 -51.5t-21.5 -51.5t-51.5 -21.5zM480 80q-82 0 -155 31.5t-127.5 86t-86 127.5
t-31.5 155q0 110 53.5 200t141.5 143q11 7 23 3t17 -15t2 -22.5t-14 -18.5q-73 -45 -118 -121t-45 -169q0 -141 99.5 -240.5t240.5 -99.5q135 0 231.5 90.5t107.5 221.5q1 12 10 20t21 8q13 0 21.5 -10t7.5 -23q-13 -155 -127 -261t-272 -106z" />
    <glyph glyph-name="cardiology" unicode="CARDIOLOGY" 
d="M290 840q57 0 105.5 -27t84.5 -78q42 54 89 79.5t101 25.5q89 0 149.5 -60.5t60.5 -150.5q0 -15 -1.5 -29.5t-5.5 -29.5h-62q5 15 7 29.5t2 29.5q0 66 -42 108.5t-108 42.5q-51 0 -95 -31.5t-71 -88.5v0h-49v0q-26 56 -70 88t-95 32q-66 0 -108 -42.5t-42 -108.5
q0 -15 2 -29.5t7 -29.5h-62q-4 15 -5.5 29.5t-1.5 29.5q0 90 60.5 150.5t149.5 60.5zM480 128q-11 0 -21.5 3.5t-18.5 11.5q-42 39 -78.5 73t-67 64.5t-56 58t-46.5 51.5h78q38 -42 89.5 -91.5t120.5 -112.5q69 63 120 112.5t89 91.5h79q-21 -24 -46.5 -51.5t-56 -58
t-67 -64.5t-78.5 -73q-8 -8 -18.5 -11.5t-21.5 -3.5zM442 330q9 0 16 5.5t10 14.5l61 181l46 -68q5 -6 11 -9.5t14 -3.5h280q13 0 21.5 8.5t8.5 21.5t-8.5 21.5t-21.5 8.5h-263l-72 106q-5 7 -12 10t-15 3q-9 0 -16.5 -5.5t-10.5 -14.5l-60 -181l-47 69q-5 6 -10.5 9.5
t-13.5 3.5h-280q-13 0 -21.5 -8.5t-8.5 -21.5t8.5 -21.5t21.5 -8.5h262l72 -107q5 -7 12.5 -10t15.5 -3zM480 483v0v0v0v0v0v0v0v0v0v0v0v0v0v0v0v0v0v0v0z" />
    <glyph glyph-name="clinical_notes" unicode="CLINICAL_NOTES" 
d="M680 330q-50 0 -85 35t-35 85t35 85t85 35t85 -35t35 -85t-35 -85t-85 -35zM680 390q26 0 43 17.5t17 42.5q0 26 -17 43t-43 17q-25 0 -42.5 -17t-17.5 -43q0 -25 17.5 -42.5t42.5 -17.5zM470 50q-13 0 -21.5 8.5t-8.5 21.5v86q0 21 10 39.5t28 29.5q28 17 47.5 25
t51.5 16q10 2 19.5 0.5t15.5 -9.5l68 -88l68 88q6 8 15.5 9.5t19.5 -0.5q32 -8 51 -16t47 -25q18 -11 28.5 -29.5t10.5 -39.5v-86q0 -13 -8.5 -21.5t-21.5 -8.5h-420zM500 110h157l-82 106q-20 -8 -39 -17.5t-36 -20.5v-68zM703 110h157v68q-17 11 -35.5 20.5t-38.5 17.5z
M657 110v0v0v0v0v0zM703 110v0v0v0v0v0zM680 450v0v0v0v0v0v0v0v0zM180 180v0v0v0v600v0v0v0v0v0v-180v22v8v-52.5v-127.5v-60.5v-60.5v-21v-21v-53.5v-53.5zM180 120q-25 0 -42.5 17.5t-17.5 42.5v600q0 25 17.5 42.5t42.5 17.5h600q25 0 42.5 -17.5t17.5 -42.5v-247
q-11 20 -26 37t-34 30v180v0v0h-600v0v0v-600v0v0h200v-6.5v-7.5v-46h-200zM310 620h311q14 5 29 7.5t30 2.5v50v0v0h-370q-13 0 -21.5 -8.5t-8.5 -21.5t8.5 -21.5t21.5 -8.5zM310 450h190q0 15 2.5 30.5t7.5 29.5h-200q-13 0 -21.5 -8.5t-8.5 -21.5t8.5 -21.5t21.5 -8.5z
M310 280h128q17 13 36 21.5t39 16.5v0q-4 11 -11 16.5t-21 5.5h-171q-13 0 -21.5 -8.5t-8.5 -21.5t8.5 -21.5t21.5 -8.5z" />
    <glyph glyph-name="cognition" unicode="COGNITION" 
d="M491 349q66 0 112 42t46 102q0 52 -33.5 89t-81.5 37q-42 0 -72 -27.5t-30 -66.5q0 -17 6 -34t20 -29q11 -11 23.5 -9t20.5 10t9 19.5t-9 21.5q-5 5 -7.5 9.5t-2.5 10.5q0 14 11 24t31 10q23 0 39.5 -18.5t16.5 -47.5q0 -35 -28 -59.5t-70 -24.5q-51 0 -86.5 40.5
t-35.5 100.5q0 23 6.5 45t19.5 41q7 11 6.5 23t-9.5 21t-21 9t-20 -10q-21 -27 -32 -60t-11 -68q0 -84 53 -142.5t129 -58.5zM240 252q-57 52 -88.5 121.5t-31.5 146.5q0 150 105 255t255 105q125 0 221.5 -73.5t125.5 -191.5l55 -218q4 -14 -5 -25.5t-24 -11.5h-93v-140
q0 -25 -17.5 -42.5t-42.5 -17.5h-100v-50q0 -13 -8.5 -21.5t-21.5 -8.5v0q-13 0 -21.5 8.5t-8.5 21.5v80q0 13 8.5 21.5t21.5 8.5h130v0v0v170q0 13 8.5 21.5t21.5 8.5h84l-45 180q-24 97 -105 158.5t-184 61.5q-125 0 -212.5 -86.5t-87.5 -211.5q0 -64 26.5 -122t74.5 -103
l19 -18v-169q0 -13 -8.5 -21.5t-21.5 -8.5v0q-13 0 -21.5 8.5t-8.5 21.5v142zM497 450v0v0v0v0v0v0v0v0v0v0v0v0v0v0v0v0v0v0v0v0z" />
    <glyph glyph-name="conditions" unicode="CONDITIONS" 
d="M400 734q-30 0 -51.5 21.5t-21.5 51.5t21.5 51.5t51.5 21.5t51.5 -21.5t21.5 -51.5t-21.5 -51.5t-51.5 -21.5zM660 230q46 0 78 32t32 78t-32 78t-78 32t-78 -32t-32 -78t32 -78t78 -32zM757 201q-22 -15 -46.5 -23t-50.5 -8q-71 0 -120.5 49.5t-49.5 120.5t49.5 120.5
t120.5 49.5t120.5 -49.5t49.5 -120.5q0 -26 -8 -50.5t-23 -46.5l86 -86q9 -9 9 -21t-9 -21t-21 -9t-21 9zM447 253q10 -25 25 -46.5t35 -38.5v-58q0 -13 -8.5 -21.5t-21.5 -8.5v0q-13 0 -21.5 8.5t-8.5 21.5v143zM353 340v-230q0 -13 -8.5 -21.5t-21.5 -8.5t-21.5 8.5
t-8.5 21.5v503q-56 5 -111 11.5t-110 18.5q-13 3 -20 13.5t-4 23.5t15 19t26 3q77 -16 155 -22.5t156 -6.5t156 6.5t155 22.5q14 3 26.5 -3t15.5 -19t-5.5 -24t-22.5 -14q-54 -11 -108.5 -17.5t-109.5 -11.5v-101q-35 -32 -56 -76.5t-21 -95.5v0v0h-77z" />
    <glyph glyph-name="congenital" unicode="CONGENITAL" 
d="M392 200q-100 0 -185.5 51t-132.5 140l-25 46q-11 22 -8.5 46t18.5 43l212 257q7 8 16 13.5t19 7.5t20 0.5t20 -6.5l134 -72l98 54q17 10 36 7t33 -17q14 -13 17.5 -31.5t-4.5 -35.5l-124 -289q-11 -26 -36 -39t-54 -7l-328 69v0q39 -80 112.5 -128.5t161.5 -48.5h179
q64 0 120.5 27.5t102.5 72.5v0h-61q-37 0 -60.5 28t-18.5 64l27 178q3 19 15 31t28 17t32.5 0.5t29.5 -18.5l114 -134q15 -18 18.5 -41.5t-6.5 -44.5l-15 -32q-45 -95 -132.5 -151.5t-193.5 -56.5h-179zM838 421l26 56v0v0l-124 143v0v0l-30 -199v0v0h128zM115 500l360 -77
v0v0l131 304v0v0l-126 -70l-164 89v0v0zM360 584v0v0v0v0v0v0v0v0v0v0v0zM787 477v0v0v0v0v0v0v0v0v0v0z" />
    <glyph glyph-name="deceased" unicode="DECEASED" 
d="M455 137q-29 84 -70 126.5t-126 71.5q4 -48 18 -84.5t36 -58.5q17 -17 32.5 -26.5t32.5 -15.5t36 -8.5t41 -4.5zM505 137q97 9 143 55t55 143q-43 -15 -75 -33t-52 -38q-15 -15 -25.5 -29.5t-18.5 -29.5t-14 -31.5t-13 -36.5zM480 500q75 0 127.5 52.5t52.5 127.5v91
l-87 -74l-93 112l-93 -112l-87 74v-91q0 -75 52.5 -127.5t127.5 -52.5zM440 80q-100 0 -170 70t-70 170v80q71 1 134 -29t106 -81v152q-86 14 -143 81t-57 157v157q0 20 18 28t32 -5l90 -78l77 93q9 11 23 11t23 -11l77 -93l90 78q14 13 32 5t18 -28v-157q0 -90 -57 -157
t-143 -81v-152q43 51 106 81t134 29v-80q0 -100 -70 -170t-170 -70h-80zM480 655v0v0v0v0v0v0v0v0v0v0zM604 236v0v0v0v0v0v0v0v0zM357 236v0v0v0v0v0v0v0v0z" />
    <glyph glyph-name="dentistry" unicode="DENTISTRY" 
d="M680 875q66 0 113 -47t47 -113q0 -11 -1.5 -29.5t-4.5 -42.5l-55 -403q-5 -41 -36 -63.5t-66 -22.5q-21 0 -41 9t-34 29l-107 156q-2 3 -6.5 5t-9.5 2q-2 0 -16 -9l-104 -151q-14 -21 -35 -31t-43 -10q-35 0 -65.5 22.5t-35.5 64.5l-54 402q-3 24 -4.5 42.5t-1.5 29.5
q0 66 47 113t113 47q36 0 57.5 -9.5t41.5 -20.5t42.5 -20.5t58.5 -9.5t58.5 9.5t42.5 20.5t42 20.5t57 9.5zM680 815q-23 0 -40 -7t-35 -18q-32 -18 -59.5 -26.5t-65.5 -8.5t-65 8.5t-59 26.5q-18 11 -35.5 18t-40.5 7q-42 0 -71 -29t-29 -71q0 -8 1 -24t4 -37l55 -404
q2 -17 14.5 -26t26.5 -9q9 0 17 4.5t14 12.5l101 148q12 17 30 26t37 9t36.5 -9t29.5 -26l103 -151q5 -8 13 -11.5t16 -3.5q14 0 26.5 9.5t14.5 24.5l56 406q3 21 4 37t1 24q0 42 -29 71t-71 29zM480 515v0v0v0v0v0v0v0v0v0v0v0v0v0v0v0v0v0v0v0v0v0v0v0v0v0v0v0v0v0v0v0v0z
" />
    <glyph glyph-name="dermatology" unicode="DERMATOLOGY" 
d="M110 120q-13 0 -21.5 8.5t-8.5 21.5v350q0 25 17.5 42.5t42.5 17.5h190q6 0 11.5 -2.5t9.5 -6.5t6.5 -9.5t2.5 -11.5v-50q0 -50 35 -85t85 -35t85 35t35 85v50q0 6 2.5 11.5t6.5 9.5t9.5 6.5t11.5 2.5h190q25 0 42.5 -17.5t17.5 -42.5v-350q0 -13 -8.5 -21.5t-21.5 -8.5
h-740zM140 180h680v320v0v0h-160v-20q0 -75 -52.5 -127.5t-127.5 -52.5t-127.5 52.5t-52.5 127.5v20h-160v0v0v-320zM480 460q-13 0 -21.5 8.5t-8.5 21.5q0 107 24.5 210t105.5 172q10 8 22 7t20 -10q8 -10 7.5 -22t-10.5 -20q-72 -60 -90.5 -151.5t-18.5 -185.5
q0 -13 -8.5 -21.5t-21.5 -8.5zM230 340q13 0 21.5 8.5t8.5 21.5t-8.5 21.5t-21.5 8.5t-21.5 -8.5t-8.5 -21.5t8.5 -21.5t21.5 -8.5zM270 240q13 0 21.5 8.5t8.5 21.5t-8.5 21.5t-21.5 8.5t-21.5 -8.5t-8.5 -21.5t8.5 -21.5t21.5 -8.5zM730 340q13 0 21.5 8.5t8.5 21.5
t-8.5 21.5t-21.5 8.5t-21.5 -8.5t-8.5 -21.5t8.5 -21.5t21.5 -8.5zM140 180v0v0v0v0v0h170.5h169.5h170.5h169.5v0v0v0v0v0h-680z" />
    <glyph glyph-name="diagnosis" unicode="DIAGNOSIS" 
d="M350 210h260q13 0 21.5 8.5t8.5 21.5t-8.5 21.5t-21.5 8.5h-260q-13 0 -21.5 -8.5t-8.5 -21.5t8.5 -21.5t21.5 -8.5zM350 330h260q13 0 21.5 8.5t8.5 21.5t-8.5 21.5t-21.5 8.5h-260q-13 0 -21.5 -8.5t-8.5 -21.5t8.5 -21.5t21.5 -8.5zM480 712q-15 19 -31 28.5t-41 9.5
q-32 0 -55 -23t-23 -55q0 -52 47.5 -95.5t82.5 -74.5q8 -8 20 -8t20 8q35 31 82.5 75t47.5 95q0 32 -23 55t-55 23q-25 0 -41 -9.5t-31 -28.5zM740 80h-520q-24 0 -42 18t-18 42v680q0 24 18 42t42 18h520q24 0 42 -18t18 -42v-680q0 -24 -18 -42t-42 -18zM220 140h520v0v0
v680v0v0h-520v0v0v-680v0v0zM220 140v0v0v680v0v0v0v0v0v-680v0v0v0z" />
    <glyph glyph-name="endocrinology" unicode="ENDOCRINOLOGY" 
d="M390 260q25 0 42.5 17.5t17.5 42.5q0 50 -32.5 97t-87.5 80v-177q0 -25 17.5 -42.5t42.5 -17.5zM570 260q25 0 42.5 17.5t17.5 42.5v177q-55 -33 -87.5 -80t-32.5 -97q0 -25 17.5 -42.5t42.5 -17.5zM160 326v447q-15 17 -28 36.5t-24 39.5q-5 10 0 20.5t16 15.5t23 0.5
t18 -15.5q48 -87 131.5 -136.5t183.5 -49.5t182.5 48.5t130.5 133.5q7 12 19 18t24 1q11 -5 15.5 -17t-1.5 -23q-11 -20 -23.5 -37.5t-26.5 -34.5v-447q0 -38 18 -70t49 -52q10 -7 13.5 -18.5t-0.5 -22.5t-14 -16t-20 0q-48 27 -77 74.5t-29 104.5v389q-55 -44 -121.5 -67.5
t-138.5 -23.5t-138.5 23.5t-121.5 67.5v-389q0 -57 -29.5 -104.5t-77.5 -74.5q-10 -5 -20 0t-14 16t0 22.5t14 18.5q31 20 49 52t18 70zM390 200q-50 0 -85 35t-35 85v222q0 11 8.5 18t19.5 4l26 -6q51 -13 91.5 -44.5t64.5 -76.5q24 45 64.5 76.5t91.5 44.5l26 6
q11 3 19.5 -4t8.5 -18v-222q0 -50 -35 -85t-85 -35q-27 0 -50 11t-40 30q-17 -19 -40 -30t-50 -11zM570 320v0v0v0v0v0v0v0zM390 320v0v0v0v0v0v0v0z" />
    <glyph glyph-name="ent" unicode="ENT" 
d="M460 330h100q13 0 21.5 8.5t8.5 21.5t-8.5 21.5t-21.5 8.5h-94l6 55q2 19 16 32t33 13h119q13 0 21.5 8.5t8.5 21.5t-8.5 21.5t-21.5 8.5h-118q-43 0 -74 -28.5t-36 -70.5l-35 -338q-1 -7 1 -13t6.5 -10.5t10 -7t12.5 -2.5v0q11 0 19.5 8t10.5 19zM240 252
q-57 52 -88.5 121.5t-31.5 146.5q0 150 105 255t255 105q125 0 221.5 -73.5t125.5 -191.5l55 -218q4 -14 -5 -25.5t-24 -11.5h-93v-140q0 -25 -17.5 -42.5t-42.5 -17.5h-100v-50q0 -13 -8.5 -21.5t-21.5 -8.5v0q-13 0 -21.5 8.5t-8.5 21.5v80q0 13 8.5 21.5t21.5 8.5h130v0
v0v170q0 13 8.5 21.5t21.5 8.5h84l-45 180q-24 97 -105 158.5t-184 61.5q-125 0 -212.5 -86.5t-87.5 -211.5q0 -64 26.5 -122t74.5 -103l19 -18v-169q0 -13 -8.5 -21.5t-21.5 -8.5v0q-13 0 -21.5 8.5t-8.5 21.5v142zM497 450v0v0v0v0v0v0v0v0v0v0v0v0v0v0v0v0v0v0v0v0z" />
    <glyph glyph-name="export_notes" unicode="EXPORT_NOTES" 
d="M778 253v-84q0 -6 4.5 -10.5t10.5 -4.5t10.5 4.5t4.5 10.5v120q0 6 -4.5 10.5t-10.5 4.5h-120q-6 0 -10.5 -4.5t-4.5 -10.5t4.5 -10.5t10.5 -4.5h84l-106 -106q-5 -5 -5 -10.5t5 -10.5t10.5 -5t10.5 5zM180 120q-25 0 -42.5 17.5t-17.5 42.5v600q0 25 17.5 42.5
t42.5 17.5h600q25 0 42.5 -17.5t17.5 -42.5v-329q-14 8 -29.5 13t-30.5 8v308v0v0h-600v0v0v-600v0v0h309q4 -16 9 -31t12 -29h-330zM180 227v-24.5v-22.5v0v0v0v600v0v0v0v0v0v-308v3v1v-73.5v-175.5zM280 310q0 -13 8.5 -21.5t21.5 -8.5h181q4 16 9 31t13 29h-203
q-13 0 -21.5 -8.5t-8.5 -21.5zM280 480q0 -13 8.5 -21.5t21.5 -8.5h314q14 7 27 11.5t29 8.5v10q0 12 -9 21t-21 9h-340q-13 0 -21.5 -8.5t-8.5 -21.5zM280 650q0 -13 8.5 -21.5t21.5 -8.5h340q13 0 21.5 8.5t8.5 21.5t-8.5 21.5t-21.5 8.5h-340q-13 0 -21.5 -8.5
t-8.5 -21.5zM733 41q-78 0 -133 55.5t-55 131.5q0 78 55 133.5t133 55.5q77 0 132.5 -55.5t55.5 -133.5q0 -76 -55.5 -131.5t-132.5 -55.5z" />
    <glyph glyph-name="family_history" unicode="FAMILY_HISTORY" 
d="M480 60q-63 0 -106.5 43.5t-43.5 106.5q0 55 34.5 95.5t85.5 51.5v93h-180q-25 0 -42.5 17.5t-17.5 42.5v90h-80q-13 0 -21.5 8.5t-8.5 21.5v220q0 13 8.5 21.5t21.5 8.5h220q13 0 21.5 -8.5t8.5 -21.5v-220q0 -13 -8.5 -21.5t-21.5 -8.5h-80v-90v0v0h420v0v0v93
q-51 11 -85.5 51.5t-34.5 95.5q0 63 43.5 106.5t106.5 43.5t106.5 -43.5t43.5 -106.5q0 -55 -34.5 -95.5t-85.5 -51.5v-93q0 -25 -17.5 -42.5t-42.5 -17.5h-180v-93q51 -11 85.5 -51.5t34.5 -95.5q0 -63 -43.5 -106.5t-106.5 -43.5zM720 660q37 0 63.5 26.5t26.5 63.5
t-26.5 63.5t-63.5 26.5t-63.5 -26.5t-26.5 -63.5t26.5 -63.5t63.5 -26.5zM160 660h160v160h-160v-160zM480 120q37 0 63.5 26.5t26.5 63.5t-26.5 63.5t-63.5 26.5t-63.5 -26.5t-26.5 -63.5t26.5 -63.5t63.5 -26.5zM240 740v0v0v0v0zM720 750v0v0v0v0v0v0v0v0zM480 210v0v0v0
v0v0v0v0v0z" />
    <glyph glyph-name="flowsheet" unicode="FLOWSHEET" 
d="M132 450v-156v-32.5v-41.5v0v0v0v520v0v0v0v0v0v-49.5v-120.5v-66v-54v0zM551 100q20 0 34.5 15t14.5 36q0 20 -14.5 34.5t-35.5 14.5q-20 0 -35 -14.5t-15 -35.5q0 -20 15 -35t36 -15zM811 520q20 0 34.5 15t14.5 36q0 20 -14.5 34.5t-35.5 14.5q-20 0 -35 -14.5
t-15 -35.5q0 -20 15 -35t36 -15zM410 540q13 0 21.5 8.5t8.5 21.5t-8.5 21.5t-21.5 8.5h-140q-13 0 -21.5 -8.5t-8.5 -21.5t8.5 -21.5t21.5 -8.5h140zM410 360q13 0 21.5 8.5t8.5 21.5t-8.5 21.5t-21.5 8.5h-140q-13 0 -21.5 -8.5t-8.5 -21.5t8.5 -21.5t21.5 -8.5h140z
M132 160q-24 0 -42 18t-18 42v520q0 24 18 42t42 18h696q24 0 42 -18t18 -42h-60v0v0h-696v0v0v-520v0v0h248v-60h-248zM550 40q-46 0 -78 32t-32 78q0 38 22.5 67t57.5 39v104q0 13 8.5 21.5t21.5 8.5h230v74q-35 10 -57.5 39t-22.5 67q0 46 32 78t78 32t78 -32t32 -78
q0 -38 -22.5 -67t-57.5 -39v-104q0 -13 -8.5 -21.5t-21.5 -8.5h-230v-74q35 -10 57.5 -39t22.5 -67q0 -46 -32 -78t-78 -32z" />
    <glyph glyph-name="domain" unicode="BUSINESS" 
d="M80 180v600q0 25 17.5 42.5t42.5 17.5h270q25 0 42.5 -17.5t17.5 -42.5v-105h350q25 0 42.5 -17.5t17.5 -42.5v-435q0 -25 -17.5 -42.5t-42.5 -17.5h-680q-25 0 -42.5 17.5t-17.5 42.5zM140 180h105v105h-105v-105zM140 345h105v105h-105v-105zM140 510h105v105h-105
v-105zM140 675h105v105h-105v-105zM305 180h105v105h-105v-105zM305 345h105v105h-105v-105zM305 510h105v105h-105v-105zM305 675h105v105h-105v-105zM470 180h350v435h-350v-105h80v-60h-80v-105h80v-60h-80v-105zM655 450v60h60v-60h-60zM655 285v60h60v-60h-60z" />
    <glyph glyph-name="call" unicode="CALL" 
d="M795 120q-116 0 -236.5 56t-223.5 159t-159 223.5t-56 236.5q0 19 13 32t32 13h140q14 0 24 -10t14 -25l27 -126q2 -14 -0.5 -25.5t-10.5 -19.5l-100 -101q26 -44 55 -82t64 -72q37 -38 78 -69.5t86 -55.5l95 98q10 11 23 15t26 2l119 -26q15 -4 25 -16t10 -27v-135
q0 -19 -13 -32t-32 -13zM229 588l81 82v0v0l-23 110v0v0h-107v0v0q2 -42 13.5 -88.5t35.5 -103.5zM598 225q41 -19 89 -31t93 -14v0v0v107v0v0l-103 21v0v0zM229 588v0v0v0v0v0v0v0v0v0v0v0zM598 225v0v0v0v0v0v0v0v0v0v0v0z" />
    <glyph glyph-name="call_end" unicode="CALL_END_ALT" 
d="M136 306l-94 94q-9 9 -8.5 21t8.5 22q82 96 197 146.5t241 50.5t241 -50.5t197 -146.5q8 -10 8.5 -22t-8.5 -21l-94 -94q-8 -8 -23 -9t-24 6l-114 85q-6 5 -9 11t-3 13v139q-42 16 -85.5 22.5t-85.5 6.5t-85.5 -6.5t-85.5 -22.5v-139q0 -7 -3 -13t-9 -11l-114 -85
q-12 -9 -24.5 -8t-22.5 11zM244 526q-38 -19 -73 -45.5t-67 -56.5v0v0l57 -59v0v0l83 61v0v0v100zM711 530v-98v0v0l87 -66v0v0l58 58v0v0q-32 33 -68.5 58.5t-76.5 47.5zM244 526v0v0v0v0v0v0v0v0v0v0v0zM711 530v0v0v0v0v0v0v0v0v0v0v0z" />
    <glyph glyph-name="call_made" unicode="CALL_MADE" 
d="M700 658l-477 -477q-9 -9 -21 -9t-21 9t-9 21t9 21l477 477h-264q-13 0 -21.5 8.5t-8.5 21.5t8.5 21.5t21.5 8.5h336q13 0 21.5 -8.5t8.5 -21.5v-336q0 -13 -8.5 -21.5t-21.5 -8.5t-21.5 8.5t-8.5 21.5v264z" />
    <glyph glyph-name="call_merge" unicode="CALL_MERGE" 
d="M251 182q-9 9 -9 21t9 21l197 197v0v0v303l-101 -101q-9 -9 -21 -8.5t-21 9.5t-9 21.5t9 21.5l152 152q5 5 10 7t11 2t11 -2t10 -7l153 -153q9 -9 9 -21t-9 -21t-21.5 -9t-21.5 9l-101 100v-303q0 -12 -5 -23.5t-13 -19.5l-197 -197q-9 -9 -21 -8.5t-21 9.5zM703 182
q-9 -9 -21.5 -9t-21.5 9l-120 119q-9 9 -8.5 21t9.5 21t21.5 9t21.5 -9l119 -119q9 -9 9 -21t-9 -21z" />
    <glyph glyph-name="call_missed" unicode="CALL_MISSED" 
d="M180 571v-182q0 -13 -8.5 -21.5t-21.5 -8.5t-21.5 8.5t-8.5 21.5v258q0 13 8.5 21.5t21.5 8.5h251q13 0 21.5 -8.5t8.5 -21.5t-8.5 -21.5t-21.5 -8.5h-182l266 -266v0v0l293 293q9 9 21 8.5t21 -9.5t9 -21t-9 -21l-293 -293q-9 -9 -20 -13t-22 -4t-22 4t-20 13z" />
    <glyph glyph-name="call_received" unicode="CALL_RECEIVED" 
d="M230 200q-13 0 -21.5 8.5t-8.5 21.5v336q0 13 8.5 21.5t21.5 8.5t21.5 -8.5t8.5 -21.5v-264l477 477q9 9 21 9t21 -9t9 -21t-9 -21l-477 -477h264q13 0 21.5 -8.5t8.5 -21.5t-8.5 -21.5t-21.5 -8.5h-336z" />
    <glyph glyph-name="call_split" unicode="CALL_SPLIT" 
d="M220 698v-93q0 -13 -8.5 -21.5t-21.5 -8.5t-21.5 8.5t-8.5 21.5v165q0 13 8.5 21.5t21.5 8.5h165q13 0 21.5 -8.5t8.5 -21.5t-8.5 -21.5t-21.5 -8.5h-92l231 -231q8 -8 13 -19.5t5 -23.5v-276q0 -13 -8.5 -21.5t-21.5 -8.5t-21.5 8.5t-8.5 21.5v276v0v0zM740 698
l-154 -153q-9 -9 -21 -9t-21 9t-9 21t9 21l153 153h-92q-13 0 -21.5 8.5t-8.5 21.5t8.5 21.5t21.5 8.5h165q13 0 21.5 -8.5t8.5 -21.5v-165q0 -13 -8.5 -21.5t-21.5 -8.5t-21.5 8.5t-8.5 21.5v93z" />
    <glyph glyph-name="chat" unicode="CHAT" 
d="M240 240l-109 -109q-14 -14 -32.5 -6.5t-18.5 27.5v668q0 24 18 42t42 18h680q24 0 42 -18t18 -42v-520q0 -24 -18 -42t-42 -18h-580zM214 300h606v0v0v520v0v0h-680v0v0v-600zM140 300v0v520v0v0v0v0v0v-520v0v0v0zM270 399h253q13 0 21.5 8.5t8.5 21.5t-8.5 21.5
t-21.5 8.5h-253q-13 0 -21.5 -8.5t-8.5 -21.5t8.5 -21.5t21.5 -8.5zM270 529h420q13 0 21.5 8.5t8.5 21.5t-8.5 21.5t-21.5 8.5h-420q-13 0 -21.5 -8.5t-8.5 -21.5t8.5 -21.5t21.5 -8.5zM270 659h420q13 0 21.5 8.5t8.5 21.5t-8.5 21.5t-21.5 8.5h-420q-13 0 -21.5 -8.5
t-8.5 -21.5t8.5 -21.5t21.5 -8.5z" />
    <glyph glyph-name="clear_all" unicode="CLEAR_ALL" 
d="M150 280q-13 0 -21.5 8.5t-8.5 21.5t8.5 21.5t21.5 8.5h500q13 0 21.5 -8.5t8.5 -21.5t-8.5 -21.5t-21.5 -8.5h-500zM230 450q-13 0 -21.5 8.5t-8.5 21.5t8.5 21.5t21.5 8.5h500q13 0 21.5 -8.5t8.5 -21.5t-8.5 -21.5t-21.5 -8.5h-500zM310 620q-13 0 -21.5 8.5
t-8.5 21.5t8.5 21.5t21.5 8.5h500q13 0 21.5 -8.5t8.5 -21.5t-8.5 -21.5t-21.5 -8.5h-500z" />
    <glyph glyph-name="comment" unicode="COMMENT" 
d="M270 400h420q13 0 21.5 8.5t8.5 21.5t-8.5 21.5t-21.5 8.5h-420q-13 0 -21.5 -8.5t-8.5 -21.5t8.5 -21.5t21.5 -8.5zM270 530h420q13 0 21.5 8.5t8.5 21.5t-8.5 21.5t-21.5 8.5h-420q-13 0 -21.5 -8.5t-8.5 -21.5t8.5 -21.5t21.5 -8.5zM270 660h420q13 0 21.5 8.5
t8.5 21.5t-8.5 21.5t-21.5 8.5h-420q-13 0 -21.5 -8.5t-8.5 -21.5t8.5 -21.5t21.5 -8.5zM140 240q-24 0 -42 18t-18 42v520q0 24 18 42t42 18h680q24 0 42 -18t18 -42v-668q0 -20 -18.5 -27.5t-32.5 6.5l-109 109h-580zM746 300l74 -80v600v0v0h-680v0v0v-520v0v0h606z
M140 300v0v0v520v0v0v0v0v0v-520v0z" />
    <glyph glyph-name="contacts" unicode="CONTACTS" 
d="M174 40q-13 0 -21.5 8.5t-8.5 21.5t8.5 21.5t21.5 8.5h612q13 0 21.5 -8.5t8.5 -21.5t-8.5 -21.5t-21.5 -8.5h-612zM174 860q-13 0 -21.5 8.5t-8.5 21.5t8.5 21.5t21.5 8.5h612q13 0 21.5 -8.5t8.5 -21.5t-8.5 -21.5t-21.5 -8.5h-612zM480 444q50 0 84 34t34 84t-34 84
t-84 34t-84 -34t-34 -84t34 -84t84 -34zM132 160q-24 0 -42 18t-18 42v520q0 26 18 43t42 17h696q24 0 42 -18t18 -42v-520q0 -24 -18 -42t-42 -18h-696zM220 220q51 63 121 94.5t139 31.5q68 0 139.5 -31.5t120.5 -94.5h88v0v0v520v0v0h-696v0v0v-520v0v0h88zM314 220h334
q-31 30 -72.5 48t-95.5 18t-94.5 -18t-71.5 -48zM480 504q-24 0 -40.5 17t-16.5 41t16.5 41t40.5 17t40.5 -17t16.5 -41t-16.5 -41t-40.5 -17zM480 480v0v0v0v0v0v0v0v0v0v0v0v0v0v0v0v0v0z" />
    <glyph glyph-name="dialer_sip" unicode="DIALER_SIP" 
d="M483 635q-7 0 -11.5 5t-4.5 12t5 11.5t12 4.5h69v53h-69q-7 0 -12 5t-5 12v86q0 7 5 11.5t12 4.5h86q7 0 11.5 -4.5t4.5 -11.5t-4.5 -12t-11.5 -5h-70v-53h70q7 0 11.5 -4.5t4.5 -11.5v-86q0 -7 -5 -12t-12 -5h-86zM655 635q-7 0 -12 4.5t-5 11.5v173q0 7 5 11.5t12 4.5
t11.5 -4.5t4.5 -11.5v-173q0 -7 -4.5 -11.5t-11.5 -4.5zM740 635q-7 0 -12 5t-5 12v172q0 7 5 11.5t12 4.5h86q7 0 11.5 -4.5t4.5 -11.5v-86q0 -7 -4.5 -12t-11.5 -5h-70v-70q0 -7 -4.5 -11.5t-11.5 -4.5zM756 754h53v53h-53v-53zM795 120q-116 0 -236.5 56t-223.5 159
t-159 223.5t-56 236.5q0 19 13 32t32 13h140q14 0 24 -10t14 -25l27 -126q2 -14 -0.5 -25.5t-10.5 -19.5l-100 -101q26 -44 55 -82t64 -72q37 -38 78 -69.5t86 -55.5l95 98q10 11 23 15t26 2l119 -26q15 -4 25 -16t10 -27v-135q0 -19 -13 -32t-32 -13zM229 588l81 82v0v0
l-23 110v0v0h-107v0v0q2 -42 13.5 -88.5t35.5 -103.5zM598 225q41 -19 89 -31t93 -14v0v0v107v0v0l-103 21v0v0zM229 588v0v0v0v0v0v0v0v0v0v0v0zM598 225v0v0v0v0v0v0v0v0v0v0v0z" />
    <glyph glyph-name="dialpad" unicode="DIALPAD" 
d="M480 40q-29 0 -49.5 20.5t-20.5 49.5t20.5 49.5t49.5 20.5t49.5 -20.5t20.5 -49.5t-20.5 -49.5t-49.5 -20.5zM230 780q-29 0 -49.5 20.5t-20.5 49.5t20.5 49.5t49.5 20.5t49.5 -20.5t20.5 -49.5t-20.5 -49.5t-49.5 -20.5zM230 534q-29 0 -49.5 20.5t-20.5 49.5t20.5 49.5
t49.5 20.5t49.5 -20.5t20.5 -49.5t-20.5 -49.5t-49.5 -20.5zM230 287q-29 0 -49.5 20.5t-20.5 49.5t20.5 49.5t49.5 20.5t49.5 -20.5t20.5 -49.5t-20.5 -49.5t-49.5 -20.5zM730 780q-29 0 -49.5 20.5t-20.5 49.5t20.5 49.5t49.5 20.5t49.5 -20.5t20.5 -49.5t-20.5 -49.5
t-49.5 -20.5zM480 287q-29 0 -49.5 20.5t-20.5 49.5t20.5 49.5t49.5 20.5t49.5 -20.5t20.5 -49.5t-20.5 -49.5t-49.5 -20.5zM730 287q-29 0 -49.5 20.5t-20.5 49.5t20.5 49.5t49.5 20.5t49.5 -20.5t20.5 -49.5t-20.5 -49.5t-49.5 -20.5zM730 534q-29 0 -49.5 20.5
t-20.5 49.5t20.5 49.5t49.5 20.5t49.5 -20.5t20.5 -49.5t-20.5 -49.5t-49.5 -20.5zM480 534q-29 0 -49.5 20.5t-20.5 49.5t20.5 49.5t49.5 20.5t49.5 -20.5t20.5 -49.5t-20.5 -49.5t-49.5 -20.5zM480 780q-29 0 -49.5 20.5t-20.5 49.5t20.5 49.5t49.5 20.5t49.5 -20.5
t20.5 -49.5t-20.5 -49.5t-49.5 -20.5z" />
    <glyph glyph-name="mail" unicode="EMAIL" 
d="M140 160q-24 0 -42 18t-18 42v520q0 24 18 42t42 18h680q24 0 42 -18t18 -42v-520q0 -24 -18 -42t-42 -18h-680zM820 685l-324 -212q-4 -2 -7.5 -3.5t-8.5 -1.5t-8.5 1.5t-7.5 3.5l-324 212v-465v0v0h680v0v0v465zM480 522l336 218h-671zM140 685v-7v8v11v20.5t0 -0.5v23
v0v-23q0 8 0 1v-20v-11.5v-8.5v7v-465v0v0v0v0v0v465z" />
    <glyph glyph-name="forum" unicode="FORUM" 
d="M281 240q-14 0 -27.5 14t-13.5 28v98h500v0v340h100q14 0 27 -14t13 -29v-524q0 -20 -18.5 -27.5t-32.5 6.5l-108 108h-440zM240 440l-109 -109q-14 -14 -32.5 -6.5t-18.5 27.5v486q0 14 13 28t27 14h519q15 0 28 -13.5t13 -28.5v-356q0 -14 -13 -28t-28 -14h-399z
M620 500v320h-480v-320v0h480zM140 500v0v0v320v0v-320z" />
    <glyph glyph-name="hangout_video" unicode="HANGOUT_VIDEO" 
d="M276 324h252q13 0 21.5 8.5t8.5 21.5v93l121 -95q11 -9 23.5 -2.5t12.5 20.5v220q0 14 -12.5 20.5t-23.5 -2.5l-121 -95v93q0 13 -8.5 21.5t-21.5 8.5h-252q-13 0 -21.5 -8.5t-8.5 -21.5v-252q0 -13 8.5 -21.5t21.5 -8.5zM140 160q-24 0 -42 18t-18 42v520q0 24 18 42
t42 18h680q24 0 42 -18t18 -42v-520q0 -24 -18 -42t-42 -18h-680zM140 220h680v0v0v520v0v0h-680v0v0v-520v0v0zM140 740v0v0v0v-520v0v0v0v0v0v520v0v0z" />
    <glyph glyph-name="hangout_video_off" unicode="HANGOUT_VIDEO_OFF" 
d="M400 639h138q13 0 21.5 -8.5t8.5 -21.5v-138zM545 494l143 113q11 9 23.5 2.5t12.5 -20.5v-274zM865 177q9 8 16 20t7 32v507q0 24 -18 42t-42 18h-585l60 -60h525v0v0v-522v0v0zM161 796l60 -60h-69v0v0v-507v0v0h491l-100 100h-256q-13 0 -21.5 8.5t-8.5 21.5v256
l-197 197q-9 9 -9.5 21.5t8.5 21.5t21.5 9t21.5 -9l763 -763q9 -9 9 -21t-9 -21t-21.5 -9t-21.5 9l-120 119h-550q-24 0 -42 18t-18 42v507q0 24 18 42t42 18h9zM567 472v0v0v0v0v0v0v0v0zM399 473v0v0v0v0v0v0v0v0z" />
    <glyph glyph-name="swap_vert" unicode="IMPORT_EXPORT" 
d="M353 450q-13 0 -21.5 8.5t-8.5 21.5v286l-100 -100q-9 -9 -21 -9t-21 9t-9 21t9 21l151 151q5 5 10 7t11 2t11 -2t10 -7l151 -151q9 -9 9 -21t-9 -21t-21 -9t-21 9l-100 100v-286q0 -13 -8.5 -21.5t-21.5 -8.5zM607 92q-6 0 -11 2t-10 7l-151 151q-9 9 -9 21t9 21t21 9
t21 -9l100 -100v286q0 13 8.5 21.5t21.5 8.5t21.5 -8.5t8.5 -21.5v-286l100 100q9 9 21 9t21 -9t9 -21t-9 -21l-151 -151q-5 -5 -10 -7t-11 -2z" />
    <glyph glyph-name="invert_colors_off" unicode="INVERT_COLORS_OFF" 
d="M757 276l-277 277v243l-122 -121l-43 43l133 131q7 7 15.5 10t16.5 3t16.5 -3t15.5 -10l194 -191q46 -45 70 -106.5t24 -117.5q0 -42 -12 -85.5t-31 -72.5zM480 120q-132 0 -226 91.5t-94 223.5q0 51 16 100t54 97l-152 152q-9 9 -9 21.5t9 21.5t21.5 9t21.5 -9l707 -707
q9 -9 9 -21t-9 -21t-21.5 -9t-21.5 9l-109 108q-45 -34 -94.5 -50t-101.5 -16zM480 180v203l-207 207q-30 -37 -41.5 -77t-11.5 -78q0 -107 76.5 -181t183.5 -74z" />
    <glyph glyph-name="live_help" unicode="LIVE_HELP" 
d="M360 160h-180q-24 0 -42 18.5t-18 41.5v600q0 24 18 42t42 18h600q23 0 41.5 -18t18.5 -42v-600q0 -23 -18.5 -41.5t-41.5 -18.5h-180l-99 -99q-9 -9 -21 -9t-21 9zM180 220h204l96 -96l96 96h204v0v0v600v0v0h-600v0v0v-600v0v0zM480 517v0v0v0v0v0v0v0v0v0v0v0v0v0v0v0
zM486 285q16 0 27 11t11 27t-11 27t-27 11t-27 -11t-11 -27t11 -27t27 -11zM557 638q0 -20 -11 -38.5t-37 -43.5q-18 -17 -28.5 -30t-16.5 -26q-4 -8 -6 -17.5t-4 -20.5t6.5 -20t20.5 -9q11 0 19.5 8t11.5 21q4 17 13.5 31.5t29.5 34.5q33 33 46 58.5t13 53.5q0 53 -34 84
t-92 31q-43 0 -76 -18t-53 -50q-6 -10 -1.5 -20t15.5 -15t21.5 -1.5t18.5 12.5q14 17 33 26t42 9q32 0 50.5 -16t18.5 -44z" />
    <glyph glyph-name="location_off" unicode="LOCATION_OFF" 
d="M550 560q0 29 -20.5 49.5t-49.5 20.5q-14 0 -25.5 -5t-20.5 -13l98 -98q8 9 13 20.5t5 25.5zM717 329l-44 44q34 51 50.5 96t16.5 83q0 118 -75.5 193t-184.5 75q-54 0 -100.5 -18.5t-81.5 -53.5l-42 42q45 44 103 67t121 23q127 0 223.5 -89t96.5 -239
q0 -51 -20.5 -106.5t-62.5 -116.5zM597 277l-364 364q-7 -20 -10 -42.5t-3 -46.5q0 -75 65 -173.5t195 -219.5q34 31 63 60.5t54 57.5zM480 100q-11 0 -21.5 3.5t-18.5 11.5q-42 38 -91 87.5t-91 106.5t-70 119t-28 124q0 38 6.5 72t19.5 64l-139 139q-9 9 -9 21.5t9 21.5
t21.5 9t21.5 -9l765 -765q9 -9 9 -21.5t-9 -21.5t-21.5 -9t-21.5 9l-172 172q-18 -20 -42.5 -45t-77.5 -74q-8 -8 -18.5 -11.5t-21.5 -3.5zM415 459v0v0v0v0v0v0v0zM486 560v0v0v0v0v0v0v0z" />
    <glyph glyph-name="place" unicode="FMD_GOOD" 
d="M480 159q133 121 196.5 219.5t63.5 173.5q0 118 -75.5 193t-184.5 75t-184.5 -75t-75.5 -193q0 -75 65 -173.5t195 -219.5zM480 100q-11 0 -21.5 3.5t-18.5 11.5q-42 38 -91 87.5t-91 106.5t-70 119t-28 124q0 150 96.5 239t223.5 89t223.5 -89t96.5 -239q0 -62 -28 -124
t-70 -119t-91 -106.5t-91 -87.5q-8 -8 -18.5 -11.5t-21.5 -3.5zM480 560v0v0v0v0v0v0v0v0zM480 490q29 0 49.5 20.5t20.5 49.5t-20.5 49.5t-49.5 20.5t-49.5 -20.5t-20.5 -49.5t20.5 -49.5t49.5 -20.5z" />
    <glyph glyph-name="chat_bubble" unicode="CHAT_BUBBLE_OUTLINE" 
d="M240 240l-109 -109q-14 -14 -32.5 -6.5t-18.5 27.5v668q0 24 18 42t42 18h680q24 0 42 -18t18 -42v-520q0 -24 -18 -42t-42 -18h-580zM214 300h606v0v0v520v0v0h-680v0v0v-600zM140 300v0v520v0v0v0v0v0v-520v0v0v0z" />
    <glyph glyph-name="no_sim" unicode="NO_SIM" 
d="M800 237l-60 60v523v0v0h-313l-105 -105l-44 44l121 121h341q25 0 42.5 -18t17.5 -42v-583zM220 80q-24 0 -42 18t-18 42v470q0 12 4.5 23.5t13.5 19.5l19 18l-137 137q-9 9 -9 21t9 21t21 9t21 -9l765 -765q9 -9 9 -21t-9 -21t-21 -9t-21 9l-583 584l-22 -22v-465v0v0
h520v0v0v72l60 -60v-12q0 -24 -18 -42t-42 -18h-520zM535 502v0v0v0v0v0v0zM489 380v0v0v0v0v0v0v0v0z" />
    <glyph glyph-name="wifi_tethering_off" unicode="PORTABLE_WIFI_OFF" 
d="M792 83l-475 474q-8 -17 -12.5 -36.5t-4.5 -40.5q0 -32 10.5 -60t28.5 -51q8 -10 8 -23t-9 -22t-21.5 -8.5t-20.5 10.5q-26 32 -41 70.5t-15 83.5q0 33 8.5 63.5t24.5 57.5l-73 73q-28 -42 -44 -91t-16 -103q0 -65 22 -122t62 -102q9 -10 10 -22.5t-8 -21.5t-22.5 -9
t-21.5 10q-48 54 -75 121.5t-27 145.5q0 67 20.5 127t56.5 110l-75 75q-9 9 -9 21.5t9 21.5t21.5 9t21.5 -9l710 -710q9 -9 9 -21t-9 -21t-21.5 -9t-21.5 9zM803 243l-44 44q29 41 45 90t16 103q0 142 -99 241t-241 99q-54 0 -103 -15.5t-91 -44.5l-43 43q51 36 110.5 56.5
t126.5 20.5q83 0 156 -31.5t127 -85.5t85.5 -127t31.5 -156q0 -66 -20.5 -126t-56.5 -111zM687 359l-44 44q8 17 12.5 36.5t4.5 40.5q0 75 -52.5 127.5t-127.5 52.5q-21 0 -40.5 -4.5t-36.5 -12.5l-44 44q26 16 57 24.5t64 8.5q100 0 170 -70t70 -170q0 -33 -8.5 -64
t-24.5 -57z" />
    <glyph glyph-name="contact_phone" unicode="CONTACT_PHONE_FILLED" 
d="M690 479q0 26 3.5 47t12.5 47h54q8 0 14 3.5t11 9.5l33 47q6 9 5.5 20t-8.5 19l-38 37q-9 9 -21 8.5t-21 -8.5q-47 -46 -71 -105t-24 -125t24 -125t71 -105q9 -8 21 -8.5t21 8.5l38 37q8 8 8.5 19t-5.5 20l-33 47q-5 6 -11 9.5t-14 3.5h-54q-9 25 -12.5 46.5t-3.5 47.5z
M60 120q-24 0 -42 18t-18 42v600q0 24 18 42t42 18h840q24 0 42 -18t18 -42v-600q0 -24 -18 -42t-42 -18h-840zM591 180h309v0v0v600v0v0h-840v0v0v-600v0v0h7q44 69 112.5 109t149.5 40t149.5 -40t112.5 -109zM329 400q50 0 85 35t35 85t-35 85t-85 35t-85 -35t-35 -85
t35 -85t85 -35zM143 180h372q-36 42 -84.5 65.5t-101.5 23.5t-101.5 -23.5t-84.5 -65.5zM329 460q-25 0 -42.5 17.5t-17.5 42.5q0 26 17.5 43t42.5 17q26 0 43 -17t17 -43q0 -25 -17 -42.5t-43 -17.5zM480 480v0v0v0v0v0v0v0v0v0v0v0v0v0v0v0v0v0z" />
    <glyph glyph-name="contact_mail" unicode="CONTACT_MAIL" 
d="M592 524h208q13 0 21.5 8.5t8.5 21.5v126q0 13 -8.5 21.5t-21.5 8.5h-208q-13 0 -21.5 -8.5t-8.5 -21.5v-126q0 -13 8.5 -21.5t21.5 -8.5zM696 601l79 60q8 6 16.5 1.5t8.5 -14.5q0 -1 -6 -13l-79 -60q-8 -6 -18 -6t-18 6l-81 60q-2 2 -6 13q0 10 9 14.5t17 -1.5zM60 120
q-24 0 -42 18t-18 42v600q0 24 18 42t42 18h840q24 0 42 -18t18 -42v-600q0 -24 -18 -42t-42 -18h-840zM591 180h309v0v0v600v0v0h-840v0v0v-600v0v0h7q44 69 112.5 109t149.5 40t149.5 -40t112.5 -109zM329 400q50 0 85 35t35 85t-35 85t-85 35t-85 -35t-35 -85t35 -85
t85 -35zM143 180h372q-36 42 -84.5 65.5t-101.5 23.5t-101.5 -23.5t-84.5 -65.5zM329 460q-25 0 -42.5 17.5t-17.5 42.5q0 26 17.5 43t42.5 17q26 0 43 -17t17 -43q0 -25 -17 -42.5t-43 -17.5zM480 480v0v0v0v0v0v0v0v0v0v0v0v0v0v0v0v0v0z" />
    <glyph glyph-name="ring_volume" unicode="RING_VOLUME_FILLED" 
d="M480 692q-13 0 -21.5 8.5t-8.5 21.5v128q0 13 8.5 21.5t21.5 8.5t21.5 -8.5t8.5 -21.5v-128q0 -13 -8.5 -21.5t-21.5 -8.5zM688 602q-9 9 -8.5 22t9.5 22l89 87q9 9 22 9t21 -10q8 -9 7.5 -21t-8.5 -20l-88 -89q-9 -9 -22 -9t-22 9zM274 603q-8 -10 -20.5 -10t-21.5 9
l-90 88q-9 9 -9.5 21.5t8.5 21.5t22 9t22 -9l89 -90q8 -8 8 -19.5t-8 -20.5zM136 146l-94 94q-9 9 -8.5 21t8.5 22q82 96 197 146.5t241 50.5t241 -50.5t197 -146.5q8 -10 8.5 -22t-8.5 -21l-94 -94q-8 -8 -23 -9t-24 6l-114 85q-6 5 -9 11t-3 13v139q-42 16 -85.5 22.5
t-85.5 6.5t-85.5 -6.5t-85.5 -22.5v-139q0 -7 -3 -13t-9 -11l-114 -85q-12 -9 -24.5 -8t-22.5 11zM244 370q-38 -19 -73 -45.5t-67 -56.5v0v0l57 -59v0v0l83 61v0v0v100zM711 374v-98v0v0l87 -66v0v0l58 58v0v0q-32 33 -68.5 58.5t-76.5 47.5zM244 370v0v0v0v0v0v0v0v0v0v0
v0zM711 374v0v0v0v0v0v0v0v0v0v0v0z" />
    <glyph glyph-name="speaker_phone" unicode="SPEAKER_PHONE" 
d="M480 741q-42 0 -83.5 -12t-77.5 -37q-11 -8 -24 -7t-22 10t-8 20.5t11 19.5q42 31 94 48.5t110 17.5t110 -17.5t94 -48.5q10 -8 10.5 -19.5t-8.5 -20.5t-21.5 -10t-23.5 7q-36 25 -77.5 37t-83.5 12zM480 861q-70 0 -131 -22t-112 -62q-11 -8 -23.5 -8.5t-21.5 8.5
t-8.5 22t10.5 21q57 46 132.5 73.5t153.5 27.5t153.5 -27.5t132.5 -73.5q10 -8 11 -21t-8 -22t-22 -8.5t-24 8.5q-51 40 -112 62t-131 22zM369 80q-24 0 -42 18t-18 42v379q0 24 18 42t42 18h221q24 0 42 -18t18 -42v-379q0 -24 -18 -42t-42 -18h-221zM590 140v0v0v379v0v0
h-221v0v0v-379v0v0h221zM590 140h-221v0v0v0v0v0h221v0v0v0v0v0z" />
    <glyph glyph-name="stay_current_landscape" unicode="STAY_CURRENT_LANDSCAPE" 
d="M100 200q-24 0 -42 18t-18 42v440q0 24 18 42t42 18h760q24 0 42 -18t18 -42v-440q0 -24 -18 -42t-42 -18h-760zM130 260v440h-30v0v0v-440v0v0h30zM190 260h580v440h-580v-440zM830 260h30v0v0v440v0v0h-30v-440zM130 700h-30v0v0v0v0v0h30v0zM830 700v0h30v0v0v0v0v0
h-30z" />
    <glyph glyph-name="stay_current_portrait" unicode="STAY_CURRENT_PORTRAIT" 
d="M260 40q-24 0 -42 18t-18 42v760q0 24 18 42t42 18h440q24 0 42 -18t18 -42v-760q0 -24 -18 -42t-42 -18h-440zM260 130v-30v0v0h440v0v0v30h-440zM260 190h440v580h-440v-580zM260 830h440v30v0v0h-440v0v0v-30zM260 830v30v0v0v0v0v0v-30v0zM260 130v0v-30v0v0v0v0v0
v30z" />
    <glyph glyph-name="stay_primary_landscape" unicode="STAY_PRIMARY_LANDSCAPE" 
d="M100 200q-24 0 -42 18t-18 42v440q0 24 18 42t42 18h760q24 0 42 -18t18 -42v-440q0 -24 -18 -42t-42 -18h-760zM130 260v440h-30v0v0v-440v0v0h30zM190 260h580v440h-580v-440zM830 260h30v0v0v440v0v0h-30v-440zM130 700h-30v0v0v0v0v0h30v0zM830 700v0h30v0v0v0v0v0
h-30z" />
    <glyph glyph-name="stay_primary_portrait" unicode="STAY_PRIMARY_PORTRAIT" 
d="M480 286q-14 0 -23.5 9.5t-9.5 23.5t9.5 23.5t23.5 9.5t23.5 -9.5t9.5 -23.5t-9.5 -23.5t-23.5 -9.5zM481 396q-13 0 -21.5 8.5t-8.5 21.5v208q0 13 8.5 21.5t21.5 8.5t21.5 -8.5t8.5 -21.5v-208q0 -13 -8.5 -21.5t-21.5 -8.5zM260 40q-24 0 -42 18t-18 42v760
q0 24 18 42t42 18h440q24 0 42 -18t18 -42v-760q0 -24 -18 -42t-42 -18h-440zM260 130v-30v0v0h440v0v0v30h-440zM260 190h440v580h-440v-580zM260 830h440v30v0v0h-440v0v0v-30zM260 830v30v0v0v0v0v0v-30v0zM260 130v0v-30v0v0v0v0v0v30z" />
    <glyph glyph-name="swap_calls" unicode="SWAP_CALLS" 
d="M200 320v325q0 65 45 110t110 45t110 -45t45 -110v-289q0 -39 28 -67t67 -28t67 28t28 67v324l-53 -53q-9 -9 -22 -9t-22 9t-9 22.5t9 22.5l106 107q5 5 10 7t11 2t11 -2t10 -7l107 -107q9 -9 9 -22t-9 -22t-22.5 -9t-22.5 9l-53 52v-324q0 -65 -45 -110t-110 -45
t-110 45t-45 110v289q0 39 -28 67t-67 28t-67 -28t-28 -67v-325l53 53q9 9 22.5 9t22.5 -9t9 -22.5t-9 -22.5l-107 -107q-5 -5 -10 -7t-11 -2t-11 2t-10 7l-107 107q-9 9 -8.5 22.5t9.5 22.5t22.5 9t22.5 -9z" />
    <glyph glyph-name="sms" unicode="SMS" 
d="M306 523q17 0 28.5 11.5t11.5 28.5t-11.5 28.5t-28.5 11.5t-28.5 -11.5t-11.5 -28.5t11.5 -28.5t28.5 -11.5zM483 523q17 0 28.5 11.5t11.5 28.5t-11.5 28.5t-28.5 11.5t-28.5 -11.5t-11.5 -28.5t11.5 -28.5t28.5 -11.5zM653 523q17 0 28.5 11.5t11.5 28.5t-11.5 28.5
t-28.5 11.5t-28.5 -11.5t-11.5 -28.5t11.5 -28.5t28.5 -11.5zM240 240l-109 -109q-14 -14 -32.5 -6.5t-18.5 27.5v668q0 24 18 42t42 18h680q24 0 42 -18t18 -42v-520q0 -24 -18 -42t-42 -18h-580zM214 300h606v0v0v520v0v0h-680v0v0v-600zM140 300v0v520v0v0v0v0v0v-520v0
v0v0z" />
    <glyph glyph-name="voicemail" unicode="VOICEMAIL" 
d="M251 320q-75 0 -127.5 52.5t-52.5 127.5t52.5 127.5t127.5 52.5t127.5 -52.5t52.5 -127.5q0 -34 -13.5 -65t-36.5 -55h199q-23 25 -36.5 55.5t-13.5 64.5q0 75 52.5 127.5t127.5 52.5t128 -52.5t53 -127.5t-53 -127.5t-128 -52.5h-459zM251 380q50 0 85 35t35 85t-35 85
t-85 35t-85 -35t-35 -85t35 -85t85 -35zM710 380q50 0 85 35t35 85t-35 85t-85 35t-85 -35t-35 -85t35 -85t85 -35z" />
    <glyph glyph-name="vpn_key" unicode="VPN_KEY" 
d="M280 240q-100 0 -170 70t-70 170t70 170t170 70q78 0 131.5 -37.5t79.5 -99.5h369q25 0 42.5 -17.5t17.5 -42.5v-86q0 -25 -17.5 -42.5t-42.5 -17.5h-46v-77q0 -25 -17.5 -42.5t-42.5 -17.5h-66q-25 0 -42.5 17.5t-17.5 42.5v77h-137q-26 -62 -79.5 -99.5t-131.5 -37.5z
M280 300q71 0 116.5 47t53.5 90h242v-137v0v0h62v0v0v137h106v0v0v86v0v0h-410q-8 43 -53.5 90t-116.5 47q-75 0 -127.5 -52.5t-52.5 -127.5t52.5 -127.5t127.5 -52.5zM280 412q29 0 48.5 19.5t19.5 48.5t-19.5 48.5t-48.5 19.5t-48.5 -19.5t-19.5 -48.5t19.5 -48.5
t48.5 -19.5zM280 480v0v0v0v0v0v0v0v0v0v0v0v0v0v0v0z" />
    <glyph glyph-name="phonelink_erase" unicode="PHONELINK_ERASE" 
d="M686 439l-91 -91q-9 -9 -21 -9t-21 9t-9 21t9 21l91 91l-91 91q-9 9 -9 21t9 21t21 9t21 -9l91 -91l91 91q9 9 21 9t21 -9t9 -21t-9 -21l-91 -91l91 -91q9 -9 9 -21t-9 -21t-21 -9t-21 9zM220 40q-25 0 -42.5 17.5t-17.5 42.5v760q0 25 17.5 42.5t42.5 17.5h440
q25 0 42.5 -17.5t17.5 -42.5v-146h-60v56h-440v-580h440v56h60v-146q0 -25 -17.5 -42.5t-42.5 -17.5h-440zM220 130v-30v0v0h440v0v0v30h-440zM220 830h440v30v0v0h-440v0v0v-30zM220 830v30v0v0v0v0v0v-30v0zM220 130v0v-30v0v0v0v0v0v30z" />
    <glyph glyph-name="phonelink_lock" unicode="PHONELINK_LOCK" 
d="M634 320q-14 0 -24 10t-10 24v132q0 14 10 24t24 10h6v40q0 33 23.5 56.5t56.5 23.5t56.5 -23.5t23.5 -56.5v-40h6q14 0 24 -10t10 -24v-132q0 -14 -10 -24t-24 -10h-172zM680 520h80v40q0 17 -11.5 28.5t-28.5 11.5t-28.5 -11t-11.5 -27v-42zM260 40q-25 0 -42.5 17.5
t-17.5 42.5v760q0 25 17.5 42.5t42.5 17.5h440q25 0 42.5 -17.5t17.5 -42.5v-146h-60v56h-440v-580h440v56h60v-146q0 -25 -17.5 -42.5t-42.5 -17.5h-440zM260 130v-30v0v0h440v0v0v30h-440zM260 830h440v30v0v0h-440v0v0v-30zM260 830v30v0v0v0v0v0v-30v0zM260 130v0v-30v0
v0v0v0v0v30z" />
    <glyph glyph-name="phonelink_ring" unicode="PHONELINK_RING" 
d="M800 483q0 -28 -8.5 -54.5t-25.5 -49.5q-7 -10 -19 -10t-21 9q-8 8 -9 20.5t6 23.5q8 14 12.5 29t4.5 32q0 16 -4.5 31.5t-12.5 29.5q-6 11 -5.5 23t8.5 20q8 9 20.5 9t19.5 -10q17 -23 25.5 -49t8.5 -54zM920 481q0 -52 -17.5 -100t-50.5 -86q-8 -10 -20 -10t-21 9
q-8 9 -8.5 21t7.5 22q24 31 37 68t13 76t-13 75t-39 65q-9 10 -10 23.5t8 22.5q10 10 23.5 10t22.5 -11q33 -38 50.5 -86t17.5 -99zM260 40q-25 0 -42.5 17.5t-17.5 42.5v760q0 25 17.5 42.5t42.5 17.5h440q25 0 42.5 -17.5t17.5 -42.5v-146h-60v56h-440v-580h440v56h60
v-146q0 -25 -17.5 -42.5t-42.5 -17.5h-440zM260 130v-30v0v0h440v0v0v30h-440zM260 830h440v30v0v0h-440v0v0v-30zM260 830v30v0v0v0v0v0v-30v0zM260 130v0v-30v0v0v0v0v0v30z" />
    <glyph glyph-name="phonelink_setup" unicode="APP_SETTINGS_ALT" 
d="M260 40q-25 0 -42.5 17.5t-17.5 42.5v760q0 25 17.5 42.5t42.5 17.5h440q25 0 42.5 -17.5t17.5 -42.5v-146h-60v56h-440v-580h440v56h60v-146q0 -25 -17.5 -42.5t-42.5 -17.5h-440zM260 130v-30v0v0h440v0v0v30h-440zM696 378q-12 3 -22 9t-17 14l-28 -13q-5 -2 -10.5 -1
t-8.5 6l-15 23q-3 5 -2 10.5t6 9.5l25 19q-5 11 -5 27t5 27l-25 19q-5 4 -6 9.5t2 10.5l15 23q3 5 8.5 6t10.5 -1l28 -13q7 8 16 14t23 9l4 33q1 6 4.5 9.5t9.5 3.5h30q6 0 9.5 -3.5t4.5 -9.5l4 -33q14 -3 23 -9t16 -14l28 13q5 2 10.5 1t8.5 -6l15 -23q3 -5 2 -10.5
t-6 -9.5l-25 -19q5 -11 5 -27t-5 -27l25 -19q5 -4 6 -9.5t-2 -10.5l-15 -23q-3 -5 -8.5 -6t-10.5 1l-28 13q-7 -8 -17 -14t-22 -9l-4 -33q-1 -6 -4.5 -9.5t-9.5 -3.5h-30q-6 0 -9.5 3.5t-4.5 9.5zM729 416q28 0 47 19t19 47t-19 47t-47 19t-47 -19t-19 -47t19 -47t47 -19z
M260 830h440v30v0v0h-440v0v0v-30zM260 830v30v0v0v0v0v0v-30v0zM260 130v0v-30v0v0v0v0v0v30z" />
    <glyph glyph-name="present_to_all" unicode="PRESENT_TO_ALL" 
d="M451 522v-165q0 -12 9 -20.5t21 -8.5t20.5 9t8.5 21v164l58 -59q9 -9 21 -9.5t21 8.5t9 21.5t-9 21.5l-110 110q-9 9 -21 9t-21 -9l-110 -110q-9 -9 -8.5 -21t9.5 -21t21.5 -9t21.5 9zM140 160q-24 0 -42 18t-18 42v520q0 24 18 42t42 18h680q24 0 42 -18t18 -42v-520
q0 -24 -18 -42t-42 -18h-680zM140 220h680v0v0v520v0v0h-680v0v0v-520v0v0zM140 220v0v0v520v0v0v0v0v0v-520v0v0v0z" />
    <glyph glyph-name="import_contacts" unicode="IMPORT_CONTACTS" 
d="M248 300q54 0 104.5 -12.5t99.5 -37.5v427q-45 30 -97.5 46.5t-106.5 16.5q-38 0 -74.5 -9.5t-73.5 -23.5v0v0v-434v0v0q31 14 70.5 20.5t77.5 6.5zM512 250q50 25 98 37.5t102 12.5q38 0 78.5 -6t69.5 -16v0v0v429v0v0q-34 17 -72 25t-76 8q-54 0 -104.5 -16.5
t-95.5 -46.5v-427zM482 171q-8 0 -14.5 1.5t-11.5 5.5q-47 29 -100 45t-108 16q-37 0 -72 -9t-70 -22q-23 -11 -44.5 3t-21.5 40v463q0 15 7 27.5t21 19.5q42 20 87.5 29.5t92.5 9.5q63 0 122.5 -17t111.5 -52q51 35 109.5 52t120.5 17q47 0 92 -9.5t87 -29.5
q14 -7 21.5 -19.5t7.5 -27.5v-463q0 -28 -22.5 -42.5t-44.5 -0.5q-34 14 -69 22.5t-72 8.5q-54 0 -106 -16t-98 -45q-5 -4 -11.5 -5.5t-14.5 -1.5zM276 489v0v0v0v0v0v0v0v0v0v0v0v0v0v0z" />
    <glyph glyph-name="screen_share" unicode="SCREEN_SHARE" 
d="M449 533h81v-52q0 -5 4.5 -7t8.5 2l76 76q5 5 5 11t-5 11l-76 76q-4 4 -8.5 2t-4.5 -7v-52h-81q-48 0 -82 -34t-34 -82v-60q0 -13 8.5 -21.5t21.5 -8.5t21.5 8.5t8.5 21.5v60q0 24 16 40t40 16zM70 120q-13 0 -21.5 8.5t-8.5 21.5t8.5 21.5t21.5 8.5h820q13 0 21.5 -8.5
t8.5 -21.5t-8.5 -21.5t-21.5 -8.5h-820zM140 240q-24 0 -42 18t-18 42v480q0 24 18 42t42 18h680q24 0 42 -18t18 -42v-480q0 -24 -18 -42t-42 -18h-680zM140 300h680v0v0v480v0v0h-680v0v0v-480v0v0zM140 300v0v0v480v0v0v0v0v0v-480v0v0v0z" />
    <glyph glyph-name="stop_screen_share" unicode="STOP_SCREEN_SHARE" 
d="M552 485l-108 108h86v52q0 5 4.5 7t8.5 -2l76 -76q5 -5 5 -11t-5 -11zM805 231l-60 60h69v0v0v483v0v0h-552l-60 60h612q24 0 42 -18t18 -42v-483q0 -26 -20 -44t-49 -16zM740 125h-670q-13 0 -21.5 8.5t-8.5 21.5t8.5 21.5t21.5 8.5h610l-46 46h-487q-24 0 -42 18
t-18 42v483v2v2l-34 34q-9 9 -9 21.5t9 21.5t21.5 9t21.5 -9l763 -763q9 -9 9 -21t-9 -21t-21.5 -9t-21.5 9zM393 472v0v0v-55q0 -13 -8.5 -21.5t-21.5 -8.5t-21.5 8.5t-8.5 21.5v60q0 10 2 22.5t7 23.5l-195 195v0v0v-427v0v0h427zM504 533v0v0v0v0v0v0v0v0zM361 505v0v0v0
v0v0v0v0z" />
    <glyph glyph-name="call_missed_outgoing" unicode="CALL_MISSED_OUTGOING" 
d="M780 571l-263 -263q-9 -9 -20 -13t-22 -4t-22 4t-20 13l-293 293q-9 9 -9 21t9 21t21.5 9t21.5 -9l292 -292v0v0l266 266h-182q-13 0 -21.5 8.5t-8.5 21.5t8.5 21.5t21.5 8.5h251q13 0 21.5 -8.5t8.5 -21.5v-258q0 -13 -8.5 -21.5t-21.5 -8.5t-21.5 8.5t-8.5 21.5v182z
" />
    <glyph glyph-name="rss_feed" unicode="RSS_FEED" 
d="M195 120q-31 0 -53 22t-22 53t22 53t53 22t53 -22t22 -53t-22 -53t-53 -22zM755 120q-20 0 -32.5 14t-14.5 34q-9 109 -54 203t-117 166t-166 117t-203 54q-20 2 -34 14.5t-14 32.5t15 32.5t35 10.5q127 -9 236.5 -60.5t194.5 -136.5t136.5 -194.5t60.5 -236.5
q2 -20 -10.5 -35t-32.5 -15zM497 120q-19 0 -32.5 13.5t-15.5 33.5q-8 57 -32 106t-62 87t-85.5 63.5t-103.5 33.5q-19 3 -32.5 16t-13.5 32t13.5 32t31.5 11q75 -8 139.5 -40.5t114.5 -83.5t81.5 -117.5t39.5 -141.5q2 -19 -11 -32t-32 -13z" />
    <glyph glyph-name="alternate_email" unicode="ALTERNATE_EMAIL" 
d="M480 80q-83 0 -156 31.5t-127 85.5t-85.5 127t-31.5 156t31.5 156t85.5 127t127 85.5t156 31.5t156 -31.5t127 -85.5t85.5 -127t31.5 -156v-53q0 -56 -39.5 -94.5t-96.5 -38.5q-36 0 -68 17.5t-49 49.5q-26 -34 -65 -50.5t-82 -16.5q-78 0 -132.5 54t-54.5 132t54.5 133
t132.5 55t132.5 -55t54.5 -133v-53q0 -31 22.5 -52t54.5 -21q31 0 53.5 21t22.5 52v53q0 142 -99 241t-241 99t-241 -99t-99 -241t99 -241t241 -99h184q13 0 21.5 -8.5t8.5 -21.5t-8.5 -21.5t-21.5 -8.5h-184zM480 354q53 0 90 37t37 89q0 54 -37 91t-90 37t-90 -37t-37 -91
q0 -52 37 -89t90 -37z" />
    <glyph glyph-name="mobile_screen_share" unicode="MOBILE_SCREEN_SHARE" 
d="M401 361q-13 0 -21.5 8.5t-8.5 21.5v26q0 48 34 80t82 32h43v48q0 5 4.5 7t8.5 -2l72 -72q5 -5 5 -11t-5 -11l-72 -72q-4 -4 -8.5 -2t-4.5 7v48h-43q-23 0 -39.5 -15t-16.5 -37v-26q0 -13 -8.5 -21.5t-21.5 -8.5zM260 40q-24 0 -42 18t-18 42v760q0 24 18 42t42 18h440
q24 0 42 -18t18 -42v-760q0 -24 -18 -42t-42 -18h-440zM260 130v-30v0v0h440v0v0v30h-440zM260 190h440v580h-440v-580zM260 830h440v30v0v0h-440v0v0v-30zM260 830v30v0v0v0v0v0v-30v0zM260 130v0v-30v0v0v0v0v0v30z" />
    <glyph glyph-name="add_call" unicode="ADD_IC_CALL" 
d="M652 652h-98q-13 0 -21.5 8.5t-8.5 21.5t8.5 21.5t21.5 8.5h98v98q0 13 8.5 21.5t21.5 8.5t21.5 -8.5t8.5 -21.5v-98h98q13 0 21.5 -8.5t8.5 -21.5t-8.5 -21.5t-21.5 -8.5h-98v-98q0 -13 -8.5 -21.5t-21.5 -8.5t-21.5 8.5t-8.5 21.5v98zM795 120q-116 0 -236.5 56
t-223.5 159t-159 223.5t-56 236.5q0 19 13 32t32 13h140q14 0 24 -10t14 -25l27 -126q2 -14 -0.5 -25.5t-10.5 -19.5l-100 -101q26 -44 55 -82t64 -72q37 -38 78 -69.5t86 -55.5l95 98q10 11 23 15t26 2l119 -26q15 -4 25 -16t10 -27v-135q0 -19 -13 -32t-32 -13zM229 588
l81 82v0v0l-23 110v0v0h-107v0v0q2 -42 13.5 -88.5t35.5 -103.5zM598 225q41 -19 89 -31t93 -14v0v0v107v0v0l-103 21v0v0zM229 588v0v0v0v0v0v0v0v0v0v0v0zM598 225v0v0v0v0v0v0v0v0v0v0v0z" />
    <glyph glyph-name="cancel_presentation" unicode="CANCEL_PRESENTATION" 
d="M438 480l-101 -101q-9 -9 -9 -21t9 -21t21 -9t21 9l101 101l101 -101q9 -9 21 -9t21 9t9 21t-9 21l-101 101l101 101q9 9 9 21t-9 21t-21 9t-21 -9l-101 -101l-101 101q-9 9 -21 9t-21 -9t-9 -21t9 -21zM140 160q-24 0 -42 18t-18 42v520q0 24 18 42t42 18h680
q24 0 42 -18t18 -42v-520q0 -24 -18 -42t-42 -18h-680zM140 220h680v0v0v520v0v0h-680v0v0v-520v0v0zM140 220v0v0v520v0v0v0v0v0v-520v0v0v0z" />
    <glyph glyph-name="pause_presentation" unicode="PAUSE_PRESENTATION" 
d="M402 321q13 0 21.5 8.5t8.5 21.5v258q0 13 -8.5 21.5t-21.5 8.5t-21.5 -8.5t-8.5 -21.5v-258q0 -13 8.5 -21.5t21.5 -8.5zM558 321q13 0 21.5 8.5t8.5 21.5v258q0 13 -8.5 21.5t-21.5 8.5t-21.5 -8.5t-8.5 -21.5v-258q0 -13 8.5 -21.5t21.5 -8.5zM140 160q-24 0 -42 18
t-18 42v520q0 24 18 42t42 18h680q24 0 42 -18t18 -42v-520q0 -24 -18 -42t-42 -18h-680zM140 220h680v0v0v520v0v0h-680v0v0v-520v0v0zM140 220v0v0v520v0v0v0v0v0v-520v0v0v0z" />
    <glyph glyph-name="unsubscribe" unicode="UNSUBSCRIBE" 
d="M140 160q-24 0 -42 18.5t-18 41.5v520q0 23 18 41.5t42 18.5h680q23 0 41.5 -18.5t18.5 -41.5v-291q-11 6 -28.5 11.5t-31.5 8.5v211l-324 -207q-4 -2 -7.5 -3t-8.5 -1t-8.5 1t-7.5 3l-324 207v-460v0v0h386q0 -14 2.5 -30.5t6.5 -29.5h-395zM480 527l340 213h-680z
M140 220v100.5v80.5v53.5v19.5v-1.5v-3.5v211v-7v8.5v12.5v22.5t0 -0.5v24v0v-24v0v-22v-12.5v-8.5v7v-460v0v0v0zM773 40q-78 0 -132.5 54t-54.5 132t54.5 133t132.5 55t132.5 -55t54.5 -133t-54.5 -132t-132.5 -54zM680 210h186q8 0 14 6t6 14t-6 14t-14 6h-186
q-8 0 -14 -6t-6 -14t6 -14t14 -6z" />
    <glyph glyph-name="cell_wifi" unicode="CELL_WIFI" 
d="M312 80q-20 0 -27.5 18.5t6.5 32.5l538 538q14 14 32.5 6.5t18.5 -27.5v-523q0 -19 -13 -32t-32 -13h-523zM727 140h93v435l-93 -93v-342zM442 486q-25 0 -41 16.5t-16 40.5q0 25 16 41t41 16q24 0 40.5 -16t16.5 -41q0 -24 -16.5 -40.5t-40.5 -16.5zM442 660
q-38 0 -69.5 -14t-57.5 -37q-9 -8 -21.5 -8t-20.5 8q-9 9 -9 22t10 22q33 31 76.5 49t91.5 18t91.5 -18t76.5 -49q10 -9 10 -22t-9 -22q-8 -8 -20.5 -8t-21.5 8q-26 23 -57.5 37t-69.5 14zM442 780q-59 0 -113.5 -21.5t-99.5 -60.5q-10 -8 -22.5 -9t-21.5 8t-8 22.5t11 22.5
q51 47 118 72.5t136 25.5t136 -25.5t118 -72.5q10 -9 11 -22.5t-8 -22.5t-21.5 -8t-22.5 9q-45 39 -99.5 60.5t-113.5 21.5z" />
    <glyph glyph-name="sentiment_satisfied" unicode="SENTIMENT_SATISFIED_ALT" 
d="M480 261q56 0 105.5 25t78.5 72q8 11 1.5 23t-19.5 12q-8 0 -13.5 -3.5t-10.5 -9.5q-24 -34 -61.5 -52t-79.5 -18t-80 17t-62 52q-4 6 -10 10t-14 4q-13 0 -18.5 -12.5t2.5 -25.5q29 -46 77.5 -70t103.5 -24zM626 533q23 0 38.5 16t15.5 38q0 23 -15.5 38.5t-38.5 15.5
q-22 0 -38 -15.5t-16 -38.5q0 -22 16 -38t38 -16zM334 533q23 0 38.5 16t15.5 38q0 23 -15.5 38.5t-38.5 15.5q-22 0 -38 -15.5t-16 -38.5q0 -22 16 -38t38 -16zM480 80q-83 0 -156 31.5t-127 85.5t-85.5 127t-31.5 156t31.5 156t85.5 127t127 85.5t156 31.5t156 -31.5
t127 -85.5t85.5 -127t31.5 -156t-31.5 -156t-85.5 -127t-127 -85.5t-156 -31.5zM480 480v0v0v0v0v0v0v0v0zM480 140q142 0 241 99t99 241t-99 241t-241 99t-241 -99t-99 -241t99 -241t241 -99z" />
    <glyph glyph-name="list_alt" unicode="LIST_ALT" 
d="M300 286q12 0 21 9t9 21t-9 21t-21 9t-21 -9t-9 -21t9 -21t21 -9zM300 450q12 0 21 9t9 21t-9 21t-21 9t-21 -9t-9 -21t9 -21t21 -9zM300 614q12 0 21 9t9 21t-9 21t-21 9t-21 -9t-9 -21t9 -21t21 -9zM462 286h184q13 0 21.5 8.5t8.5 21.5t-8.5 21.5t-21.5 8.5h-184
q-13 0 -21.5 -8.5t-8.5 -21.5t8.5 -21.5t21.5 -8.5zM462 450h184q13 0 21.5 8.5t8.5 21.5t-8.5 21.5t-21.5 8.5h-184q-13 0 -21.5 -8.5t-8.5 -21.5t8.5 -21.5t21.5 -8.5zM462 614h184q13 0 21.5 8.5t8.5 21.5t-8.5 21.5t-21.5 8.5h-184q-13 0 -21.5 -8.5t-8.5 -21.5
t8.5 -21.5t21.5 -8.5zM180 120q-24 0 -42 18t-18 42v600q0 24 18 42t42 18h600q24 0 42 -18t18 -42v-600q0 -24 -18 -42t-42 -18h-600zM180 180h600v0v0v600v0v0h-600v0v0v-600v0v0zM180 780v0v0v0v-600v0v0v0v0v0v600v0v0z" />
    <glyph glyph-name="domain_disabled" unicode="DOMAIN_DISABLED" 
d="M880 151l-60 60v404h-404l-6 5v160h-158l-60 60h218q25 0 42.5 -17.5t17.5 -42.5v-105h350q25 0 42.5 -17.5t17.5 -42.5v-464zM813 49l-71 71h-602q-25 0 -42.5 17.5t-17.5 42.5v601l-31 31q-9 9 -9 21t9 21t21.5 9t21.5 -9l763 -763q9 -9 9 -21t-9 -21t-21 -9t-21 9z
M140 180h105v105h-105v-105zM140 345h105v105h-105v-105zM140 510h105v105h-105v-105zM305 180h105v105h-105v-105zM305 345h105v105h-105v-105zM470 180h211l-105 105h-106v-105zM715 450h-60v0v60h60v-60z" />
    <glyph glyph-name="lightbulb" unicode="LIGHTBULB_OUTLINE" 
d="M480 80q-34 0 -57.5 23.5t-23.5 57.5h162q0 -34 -23.5 -57.5t-57.5 -23.5zM348 223q-13 0 -21.5 8.5t-8.5 21.5t8.5 21.5t21.5 8.5h264q13 0 21.5 -8.5t8.5 -21.5t-8.5 -21.5t-21.5 -8.5h-264zM323 344q-66 43 -104.5 107.5t-38.5 145.5q0 122 89 211t211 89t211 -89
t89 -211q0 -81 -38 -145.5t-105 -107.5h-314zM345 404h271q48 32 76 83t28 110q0 99 -70.5 169.5t-169.5 70.5t-169.5 -70.5t-70.5 -169.5q0 -59 28 -110t77 -83zM480 404v0v0v0v0v0v0v0v0v0z" />
    <glyph glyph-name="gastroenterology" unicode="GASTROENTEROLOGY" 
d="M120 320q0 46 32 78t78 32h80q75 0 102.5 33t27.5 77q0 32 -17 51t-43 19q-25 0 -42.5 17.5t-17.5 42.5v180q0 13 8.5 21.5t21.5 8.5t21.5 -8.5t8.5 -21.5v-180v0v0q50 0 85 -36.5t35 -93.5q0 -69 -45 -119.5t-145 -50.5h-80q-21 0 -35.5 -14.5t-14.5 -35.5v-210
q0 -13 -8.5 -21.5t-21.5 -8.5t-21.5 8.5t-8.5 21.5v210zM300 160q0 46 32 78t78 32h160q88 0 149 61t61 149v40q0 88 -66 149t-154 61q-25 0 -42.5 17.5t-17.5 42.5v60q0 13 8.5 21.5t21.5 8.5t21.5 -8.5t8.5 -21.5v-60v0v0q112 0 196 -79t84 -191v-40q0 -112 -79 -191
t-191 -79h-160q-21 0 -35.5 -14.5t-14.5 -35.5v-50q0 -13 -8.5 -21.5t-21.5 -8.5t-21.5 8.5t-8.5 21.5v50zM180 80v240q0 21 14.5 35.5t35.5 14.5h80q100 0 145 50.5t45 119.5q0 57 -34.5 93.5t-85.5 36.5v0v0v210v0v-210v0v0q51 0 85.5 -36.5t34.5 -93.5v0
q0 -69 -45 -119.5t-145 -50.5h-80q-21 0 -35.5 -14.5t-14.5 -35.5v-240v0z" />
    <glyph glyph-name="genetics" unicode="GENETICS" 
d="M200 80q0 140 65 226t169 174q-104 88 -169 174t-65 226v20q0 13 8.5 21.5t21.5 8.5t21.5 -8.5t8.5 -21.5v-20q0 -11 0.5 -20.5t1.5 -19.5h436q1 10 1.5 19.5t0.5 20.5v20q0 13 8.5 21.5t21.5 8.5t21.5 -8.5t8.5 -21.5v-20q0 -140 -65 -226t-169 -174q104 -88 169 -174
t65 -226v-20q0 -13 -8.5 -21.5t-21.5 -8.5t-21.5 8.5t-8.5 21.5v20q0 11 -0.5 20.5t-1.5 19.5h-436q-1 -10 -1.5 -19.5t-0.5 -20.5v-20q0 -13 -8.5 -21.5t-21.5 -8.5t-21.5 8.5t-8.5 21.5v20zM320 680h320q16 23 27.5 47.5t19.5 52.5h-414q8 -28 19.5 -52.5t27.5 -47.5z
M480 519q31 26 59 50.5t52 50.5h-222q24 -26 51.5 -50.5t59.5 -50.5zM369 340h222q-24 26 -52 50.5t-59 50.5q-31 -26 -59 -50.5t-52 -50.5zM273 180h414q-8 28 -19.5 52.5t-27.5 47.5h-320q-16 -23 -27.5 -47.5t-19.5 -52.5z" />
    <glyph glyph-name="gynecology" unicode="GYNECOLOGY" 
d="M328 232q0 22 6 43t19 39q8 13 13 27t5 29q0 17 -6 32t-14 30q-8 18 -14.5 37t-6.5 39v162q0 29 -18.5 49.5t-46.5 20.5q-26 0 -44.5 -16.5t-20.5 -40.5q35 -13 57.5 -43.5t22.5 -69.5q0 -50 -35 -85t-85 -35t-85 35t-35 85q0 45 28.5 78t71.5 40q4 48 40 80t85 32
q8 0 15.5 -1t14.5 -3q42 25 89 34.5t96 9.5q48 0 95 -9.5t89 -34.5q7 2 14.5 3t15.5 1q49 0 85 -31.5t40 -79.5q43 -7 72 -40.5t29 -78.5q0 -50 -35 -85t-85 -35t-85 35t-35 85q0 39 22 69.5t57 43.5q-2 25 -20.5 41t-44.5 16q-27 0 -45.5 -20.5t-18.5 -49.5v-162
q0 -20 -7 -39t-16 -37q-7 -15 -12.5 -30t-5.5 -32q0 -15 4.5 -29.5t12.5 -26.5q13 -18 19.5 -39t6.5 -43q0 -18 -4 -35t-12 -33l-18 -35q-6 -15 -23.5 -18l-17.5 -3q-10 10 -14.5 23t1.5 25l17 35q5 10 8 20t3 22q0 13 -4 25t-12 23q-14 20 -20.5 42.5t-6.5 45.5
q0 21 6.5 40.5t16.5 38.5q7 14 12.5 29t5.5 31v162q0 26 9 49t25 40q-29 11 -60.5 16t-63.5 5t-63.5 -5t-60.5 -16q16 -17 25 -40t9 -49v-162q0 -16 5 -31t13 -29q9 -19 16 -38.5t7 -40.5q0 -23 -7 -45.5t-21 -42.5q-8 -11 -11.5 -23t-3.5 -26q0 -11 2.5 -21t7.5 -20l17 -35
q5 -11 1 -23t-15 -17t-22.5 -1.5t-17.5 14.5l-18 35q-8 16 -11.5 33t-3.5 35zM160 510q26 0 43 17.5t17 42.5q0 26 -17 43t-43 17q-25 0 -42.5 -17t-17.5 -43q0 -25 17.5 -42.5t42.5 -17.5zM800 510q26 0 43 17.5t17 42.5q0 26 -17 43t-43 17q-25 0 -42.5 -17t-17.5 -43
q0 -25 17.5 -42.5t42.5 -17.5zM800 570v0v0v0v0v0v0v0v0zM160 570v0v0v0v0v0v0v0v0z" />
    <glyph glyph-name="hematology" unicode="HEMATOLOGY" 
d="M520 40q-73 0 -116.5 61t-43.5 139t43.5 139t116.5 61t116.5 -61t43.5 -139t-43.5 -139t-116.5 -61zM220 480q0 -94 -11.5 -186.5t-36.5 -183.5q-4 -14 -15 -22.5t-24 -3.5t-18 17t-1 26q23 87 34.5 175t11.5 179q0 90 -11.5 178t-34.5 175q-4 14 1 26t18 17t24 -3.5
t15 -22.5q24 -91 36 -184t12 -187zM800 480q0 -90 11.5 -178t34.5 -175q4 -14 -1 -26t-18 -17q-12 -5 -23.5 3.5t-15.5 22.5q-25 91 -36.5 183.5t-11.5 186.5t12 187t36 184q4 14 15 22.5t24 3.5t18 -17t1 -26q-23 -87 -34.5 -175t-11.5 -179zM520 100q48 0 74 43t26 97
t-26 97t-74 43t-74 -43t-26 -97t26 -97t74 -43zM489 168q9 -8 21 -8t21 9q14 14 21.5 32.5t7.5 38.5t-7 38.5t-21 32.5q-8 9 -20.5 9t-21.5 -8t-9.5 -21t7.5 -22l6 -8.5t6 -20.5t-6 -20.5l-6 -8.5q-9 -9 -8.5 -22t9.5 -21zM440 520q-73 0 -116.5 61t-43.5 139t43.5 139
t116.5 61t116.5 -61t43.5 -139t-43.5 -139t-116.5 -61zM440 580q48 0 74 43t26 97t-26 97t-74 43t-74 -43t-26 -97t26 -97t74 -43zM470 648q9 8 9.5 21t-7.5 22q-5 6 -8.5 13.5t-3.5 15.5t3.5 15.5t8.5 13.5q8 9 8 21.5t-9 21.5q-9 8 -21 8t-21 -9q-14 -14 -21.5 -32.5
t-7.5 -38.5t7 -38.5t21 -32.5q9 -9 21 -9t21 8zM440 720v0v0v0v0v0v0v0v0zM520 240v0v0v0v0v0v0v0v0z" />
    <glyph glyph-name="immunology" unicode="IMMUNOLOGY" 
d="M521 80q-60 0 -150 16.5t-144 57.5q-30 23 -63 72t-60.5 107t-45.5 116t-18 99q0 85 58 138.5t124 96.5q60 39 133 68t151 29t141.5 -30t126.5 -73q15 -10 39 -30t47.5 -50t41 -70.5t18.5 -92.5q2 -74 -30.5 -154.5t-88 -147t-128.5 -109.5t-152 -43zM520 140
q66 0 127.5 38t109.5 96t76.5 127t26.5 131q-2 75 -44.5 123.5t-75.5 71.5q-54 36 -110.5 64.5t-123.5 28.5q-69 0 -136 -27t-121 -63q-43 -29 -96.5 -75t-53.5 -103q0 -34 16.5 -86t41 -104.5t53 -97t52.5 -62.5q38 -29 116.5 -45.5t141.5 -16.5zM414 250q49 0 81.5 35
t32.5 79q0 20 -8.5 39.5t-26.5 36.5q-23 21 -38 46t-22 56q-9 40 -40 64t-69 24q-45 0 -79.5 -34.5t-34.5 -79.5q0 -37 15.5 -83t43 -86.5t65 -68.5t80.5 -28zM414 310q-28 0 -54 23.5t-46 56t-32 67.5t-12 59q0 20 17 37t37 17q15 0 31 -10.5t21 -31.5q10 -41 27.5 -72.5
t49.5 -60.5q8 -7 11.5 -15.5t3.5 -17.5q0 -20 -15 -36t-39 -16zM650 450q13 0 21.5 9t8.5 21v26l24 -12q11 -5 22.5 -2.5t18.5 13.5t4.5 23.5t-13.5 17.5l-28 14l28 14q11 5 13 17.5t-4 23.5t-18 13t-23 -3l-24 -12v27q0 13 -8.5 21.5t-21.5 8.5q-12 0 -21 -8.5t-9 -21.5
v-28l-24 13q-11 6 -22.5 3t-18.5 -14q-6 -11 -3.5 -23.5t13.5 -17.5l26 -11l-24 -16q-11 -7 -14.5 -18.5t2.5 -22.5q7 -11 18.5 -14t22.5 3l24 13v-27q0 -12 9 -21t21 -9zM482 480v0v0v0v0v0v0v0v0v0v0v0v0v0v0v0v0v0v0z" />
    <glyph glyph-name="inactive_order" unicode="INACTIVE_ORDER" 
d="M703 289q0 8 -6 14t-14 6t-14 -6t-6 -14v-120q0 -8 6 -14t14 -6t14 6t6 14v120zM763 289v-120q0 -8 6 -14t14 -6t14 6t6 14v120q0 8 -6 14t-14 6t-14 -6t-6 -14zM270 620h420q13 0 21.5 8.5t8.5 21.5t-8.5 21.5t-21.5 8.5h-420q-13 0 -21.5 -8.5t-8.5 -21.5t8.5 -21.5
t21.5 -8.5zM733 41q-78 0 -133 55.5t-55 131.5q0 78 55 133.5t133 55.5q77 0 132.5 -55.5t55.5 -133.5q0 -76 -55.5 -131.5t-132.5 -55.5zM120 87v693q0 25 17.5 42.5t42.5 17.5h600q25 0 42.5 -17.5t17.5 -42.5v-327q-14 7 -29 11.5t-31 7.5v308v0v0h-600v0v0v-599h310
q3 -18 9 -34.5t14 -32.5l-24 -22q-5 -4 -10.5 -4t-9.5 4l-38 38q-5 5 -11 5t-11 -5l-38 -38q-5 -5 -11 -5t-11 5l-38 38q-5 5 -11 5t-11 -5l-38 -38q-5 -5 -11 -5t-11 5l-38 38q-5 5 -11 5t-11 -5l-38 -38q-1 -1 -11 -5zM270 280h222q4 16 8.5 31t12.5 29h-243
q-13 0 -21.5 -8.5t-8.5 -21.5t8.5 -21.5t21.5 -8.5zM270 450h354q22 11 46 17.5t50 8.5q0 14 -8.5 24t-21.5 10h-420q-13 0 -21.5 -8.5t-8.5 -21.5t8.5 -21.5t21.5 -8.5zM180 181v0v599v0v0v0v0v0v0v0v0v-276.5v-276.5v-23.5v-22.5z" />
    <glyph glyph-name="inpatient" unicode="INPATIENT" 
d="M140 80q-25 0 -42.5 17.5t-17.5 42.5v680q0 25 17.5 42.5t42.5 17.5h400q25 0 42.5 -17.5t17.5 -42.5v-680q0 -25 -17.5 -42.5t-42.5 -17.5h-400zM140 525q20 17 45.5 26t54.5 9h200q29 0 54.5 -9t45.5 -26v295v0v0h-400v0v0v-295zM340 610q-29 0 -49.5 20.5t-20.5 49.5
t20.5 49.5t49.5 20.5t49.5 -20.5t20.5 -49.5t-20.5 -49.5t-49.5 -20.5zM140 140h400v0v0v260q0 42 -29 71t-71 29h-200q-42 0 -71 -29t-29 -71v-260v0v0zM310 290v-50q0 -13 8.5 -21.5t21.5 -8.5t21.5 8.5t8.5 21.5v50h50q13 0 21.5 8.5t8.5 21.5t-8.5 21.5t-21.5 8.5h-50
v50q0 13 -8.5 21.5t-21.5 8.5t-21.5 -8.5t-8.5 -21.5v-50h-50q-13 0 -21.5 -8.5t-8.5 -21.5t8.5 -21.5t21.5 -8.5h50zM140 140v0v0v0h29h71h200h71h29v0v0v0h-400zM791 361q-9 -9 -21 -9t-21 9l-97 98q-9 9 -9 21t9 21l97 98q9 9 21 9t21 -9t9.5 -21t-8.5 -21l-47 -47h135
q13 0 21.5 -8.5t8.5 -21.5t-8.5 -21.5t-21.5 -8.5h-135l46 -46q9 -9 9 -21.5t-9 -21.5z" />
    <glyph glyph-name="lab_panel" unicode="LAB_PANEL" 
d="M100 120q-25 0 -42.5 17.5t-17.5 42.5v240q0 25 17.5 42.5t42.5 17.5h20v163v0q-17 6 -28.5 21.5t-11.5 35.5v80q0 25 17.5 42.5t42.5 17.5h240q25 0 42.5 -17.5t17.5 -42.5v-80q0 -20 -11.5 -35.5t-28.5 -21.5v0v-163h160v163v0q-17 6 -28.5 21.5t-11.5 35.5v80
q0 25 17.5 42.5t42.5 17.5h240q25 0 42.5 -17.5t17.5 -42.5v-80q0 -20 -11.5 -35.5t-28.5 -21.5v0v-163h20q25 0 42.5 -17.5t17.5 -42.5v-240q0 -25 -17.5 -42.5t-42.5 -17.5h-760zM580 700h240v80h-240v-80zM140 700h240v80h-240v-80zM620 480h160v160h-160v-160zM180 480
h160v160h-160v-160zM100 180h760v0v0v240v0v0h-760v0v0v-240v0v0zM140 700v80v0v-80v0zM580 700v80v0v-80v0zM100 180v0v0v240v0v0v0v0v0v-240v0v0v0z" />
    <glyph glyph-name="lab_profile" unicode="LAB_PROFILE" 
d="M350 490q-13 0 -21.5 8.5t-8.5 21.5t8.5 21.5t21.5 8.5h260q13 0 21.5 -8.5t8.5 -21.5t-8.5 -21.5t-21.5 -8.5h-260zM350 650q-13 0 -21.5 8.5t-8.5 21.5t8.5 21.5t21.5 8.5h260q13 0 21.5 -8.5t8.5 -21.5t-8.5 -21.5t-21.5 -8.5h-260zM220 390h320q26 0 49 -12t39 -32
l112 -146v620v0v0h-520v0v0v-430zM220 140h490l-129 169q-8 10 -18.5 15.5t-22.5 5.5h-320v-190v0v0zM740 80h-520q-24 0 -42 18t-18 42v680q0 24 18 42t42 18h520q24 0 42 -18t18 -42v-680q0 -24 -18 -42t-42 -18zM220 140v0v680v0v0v0v0v0v-680v0v0zM220 330v60v0v-60v0z
" />
    <glyph glyph-name="labs" unicode="LABS" 
d="M480 80q-83 0 -141.5 58.5t-58.5 141.5v360v0q-33 0 -56.5 23.5t-23.5 56.5v80q0 33 23.5 56.5t56.5 23.5h400q33 0 56.5 -23.5t23.5 -56.5v-80q0 -33 -23.5 -56.5t-56.5 -23.5v0v-360q0 -83 -58.5 -141.5t-141.5 -58.5zM260 700h440v0v0v120v0v0h-440v0v0v-120v0v0z
M480 140q51 0 88.5 31t48.5 79h-107q-13 0 -21.5 8.5t-8.5 21.5t8.5 21.5t21.5 8.5h110v60h-110q-13 0 -21.5 8.5t-8.5 21.5t8.5 21.5t21.5 8.5h110v60h-110q-13 0 -21.5 8.5t-8.5 21.5t8.5 21.5t21.5 8.5h110v90h-280v-360q0 -58 41 -99t99 -41zM260 700v0v0v120v0v0v0v0v0
v-120v0v0v0z" />
    <glyph glyph-name="lda" unicode="LDA" 
d="M450 213l-213 90q-17 7 -27 22t-10 33v102q0 25 17.5 42.5t42.5 17.5h190v120h-70q-25 0 -42.5 17.5t-17.5 42.5v120q0 25 17.5 42.5t42.5 17.5h200q25 0 42.5 -17.5t17.5 -42.5v-120q0 -25 -17.5 -42.5t-42.5 -17.5h-70v-120h190q25 0 42.5 -17.5t17.5 -42.5v-102
q0 -18 -10 -33t-27 -22l-213 -90v-103q0 -13 -8.5 -21.5t-21.5 -8.5t-21.5 8.5t-8.5 21.5v103zM380 700h200v120h-200v-120zM450 278v182h-190v-102zM510 278l190 80v102h-190v-182zM380 700v120v0v-120v0z" />
    <glyph glyph-name="metabolism" unicode="METABOLISM" 
d="M399 247v140h-59v143q0 21 28.5 34t74.5 13t74.5 -13t28.5 -34v-143h-59v-140h-88zM443 606q-23 0 -38.5 15.5t-15.5 38.5t15.5 38.5t38.5 15.5t38.5 -15.5t15.5 -38.5t-15.5 -38.5t-38.5 -15.5zM443 116q-152 0 -258 106t-106 258q0 76 28.5 142t78 115.5t115.5 78
t142 28.5t142 -28.5t115.5 -78t78 -115.5t28.5 -142v-18l49 49q5 5 10 7t11 2t11.5 -2t9.5 -7q9 -9 9 -21t-9 -21l-100 -100q-9 -9 -21 -9t-21 9l-100 100q-9 9 -9 21t9 21t21 9t21 -9l49 -49v18q0 125 -89.5 214.5t-214.5 89.5t-214.5 -89.5t-89.5 -214.5t89.5 -214.5
t214.5 -89.5q49 0 96 16t85 45q11 8 22.5 7.5t20.5 -9.5t9 -21.5t-10 -20.5q-46 -35 -104.5 -56t-118.5 -21z" />
    <glyph glyph-name="microbiology" unicode="MICROBIOLOGY" 
d="M600 90q-12 0 -21 9t-9 21v41q-28 3 -53 13t-47 27l-39 -39q-9 -8 -21.5 -8.5t-21.5 8.5t-9 21.5t9 21.5l40 39q-5 7 -9.5 14.5t-8.5 15.5l-31 62v0v0l-51 -51q-9 -8 -21.5 -8.5t-21.5 8.5t-9 21t9 21l51 52v0v0l-62 31q-7 4 -13.5 7.5t-12.5 8.5l-35 -35
q-9 -8 -21.5 -8.5t-21.5 8.5t-9 21t9 21l34 34q-17 22 -28.5 48t-14.5 55h-41q-12 0 -21 9t-9 22q0 12 9 20.5t21 8.5h43q5 24 14.5 46t23.5 41l-34 34q-9 9 -9 21t9 21t21 9t21 -9l34 -34q19 14 41 23.5t46 14.5v43q0 13 9 21.5t22 8.5q12 0 20.5 -8.5t8.5 -21.5v-41
q29 -3 55 -14.5t49 -29.5l34 34q9 9 21.5 9t21.5 -9t9 -21t-9 -21l-36 -36l8 -12t7 -13l30 -60v0v0l48 49q9 9 21.5 9t21.5 -9t9 -21.5t-9 -21.5l-50 -49v0v0l65 -33l16 -10l16 -10l39 39q9 9 21 9t21 -9t9 -21.5t-9 -21.5l-39 -38q16 -21 26 -46t13 -52h41q13 0 21.5 -8.5
t8.5 -21.5q0 -12 -8.5 -21t-21.5 -9h-43q-5 -24 -14 -46t-23 -41l32 -32q9 -9 9 -21.5t-9 -21.5q-9 -8 -21.5 -8.5t-21.5 8.5l-32 33q-19 -14 -41 -23.5t-46 -14.5v-43q0 -12 -8.5 -21t-21.5 -9zM594 220q69 0 112 51.5t32 117.5q-6 35 -26.5 63t-52.5 44l-66 34
q-20 11 -36 27t-27 36l-34 66q-19 38 -53.5 59.5t-76.5 21.5q-69 0 -112 -51.5t-32 -117.5q6 -35 26.5 -63t52.5 -44l66 -33q20 -11 36.5 -27.5t27.5 -36.5l33 -66q19 -38 53.5 -59.5t76.5 -21.5zM380 540q25 0 42.5 17.5t17.5 42.5t-17.5 42.5t-42.5 17.5t-42.5 -17.5
t-17.5 -42.5t17.5 -42.5t42.5 -17.5zM580 290q21 0 35.5 14.5t14.5 35.5t-14.5 35.5t-35.5 14.5t-35.5 -14.5t-14.5 -35.5t14.5 -35.5t35.5 -14.5zM480 480v0v0v0v0v0v0v0v0v0v0v0v0v0v0v0v0v0v0v0v0z" />
    <glyph glyph-name="nephrology" unicode="NEPHROLOGY" 
d="M320 280q-99 0 -169.5 66.5t-70.5 163.5v100q0 97 70.5 163.5t169.5 66.5q46 0 78 -32t32 -78t-32 -78t-78 -32h-40q-13 0 -21.5 8.5t-8.5 21.5t8.5 21.5t21.5 8.5h40q21 0 35.5 14.5t14.5 35.5t-14.5 35.5t-35.5 14.5q-74 0 -127 -49t-53 -121v-100q0 -72 53 -121
t127 -49q21 0 35.5 14.5t14.5 35.5t-14.5 35.5t-35.5 14.5h-40q-13 0 -21.5 8.5t-8.5 21.5t8.5 21.5t21.5 8.5h40q46 0 78 -32t32 -78v-240q0 -13 -8.5 -21.5t-21.5 -8.5t-21.5 8.5t-8.5 21.5v142q-11 -6 -24 -9t-26 -3zM640 280q-13 0 -26 3t-24 9v-142q0 -13 -8.5 -21.5
t-21.5 -8.5t-21.5 8.5t-8.5 21.5v240q0 46 32 78t78 32h40q13 0 21.5 -8.5t8.5 -21.5t-8.5 -21.5t-21.5 -8.5h-40q-21 0 -35.5 -14.5t-14.5 -35.5t14.5 -35.5t35.5 -14.5q74 0 127 49t53 121v100q0 72 -53 121t-127 49q-21 0 -35.5 -14.5t-14.5 -35.5t14.5 -35.5t35.5 -14.5
h40q13 0 21.5 -8.5t8.5 -21.5t-8.5 -21.5t-21.5 -8.5h-40q-46 0 -78 32t-32 78t32 78t78 32q99 0 169.5 -66.5t70.5 -163.5v-100q0 -97 -70.5 -163.5t-169.5 -66.5zM140 510v0v0v0v0v0v0v0v0v0v100v0v0v0v0v0v0v0v0v0v-100zM820 610v0v0v0v0v0v0v0v0v0v-100v0v0v0v0v0v0v0v0
v0v100z" />
    <glyph glyph-name="neurology" unicode="NEUROLOGY" 
d="M385 120q-51 0 -86.5 38t-40.5 86q-59 5 -98.5 49.5t-39.5 108.5q0 22 5.5 42.5t16.5 39.5q-11 18 -16.5 38t-5.5 43q0 60 41.5 103t98.5 50v0v0q2 51 38.5 86.5t87.5 35.5q29 0 51.5 -10.5t42.5 -30.5q20 20 42 30.5t51 10.5q50 0 86 -35.5t39 -86.5v0v0
q58 -5 100 -48.5t42 -104.5q0 -23 -6 -43.5t-17 -38.5q11 -20 17 -42t6 -43q0 -64 -39.5 -106.5t-98.5 -47.5q-5 -48 -41 -86t-86 -38q-30 0 -52 10t-43 30q-21 -20 -43 -30t-52 -10zM510 720v-480q0 -25 19.5 -42.5t46.5 -17.5q26 0 45 23t21 47q-23 8 -43 21.5t-34 33.5
q-8 11 -6 22.5t13 19.5t22.5 6t19.5 -13q13 -18 32 -27.5t42 -9.5q38 0 65 26t27 69q0 9 -2 18.5t-4 19.5q-18 -13 -39.5 -19.5t-44.5 -6.5q-13 0 -21.5 8.5t-8.5 21.5t8.5 21.5t21.5 8.5q38 0 64 28t26 67q0 38 -28 65t-64 29q-10 -24 -28.5 -42.5t-42.5 -27.5
q-12 -5 -23 0.5t-15 17.5t1 23.5t17 15.5q18 6 29.5 24t11.5 41q0 29 -19 49t-45 20t-45 -17.5t-19 -42.5zM450 240v480q0 25 -18.5 42.5t-45.5 17.5q-26 0 -45.5 -20t-19.5 -49q0 -23 11 -40.5t29 -23.5q12 -4 17.5 -15.5t1.5 -22.5q-5 -12 -16.5 -18t-23.5 -1
q-24 8 -42 26.5t-28 42.5q-35 -3 -62.5 -29.5t-27.5 -64.5q0 -39 26 -67t64 -28q13 0 21.5 -8.5t8.5 -21.5t-8.5 -21.5t-21.5 -8.5q-23 0 -44.5 7t-39.5 19q-3 -8 -4.5 -17t-1.5 -18q0 -43 26.5 -70.5t64.5 -27.5q22 0 41.5 10t32.5 27q8 10 20 12.5t22 -5.5t12.5 -20
t-5.5 -22q-14 -20 -33.5 -33.5t-42.5 -21.5q2 -24 21 -47t46 -23t46 17.5t19 42.5zM480 480v0v0v0v0v0v0v0v0v0v0v0v0v0v0v0v0v0v0v0v0v0v0v0v0v0v0v0v0v0v0v0v0v0v0v0v0v0v0v0v0v0v0v0v0v0v0v0v0v0v0v0v0v0v0v0v0v0v0v0v0v0v0v0v0v0v0v0v0v0v0v0v0v0v0v0v0v0v0v0v0v0v0v0v0
v0v0v0v0z" />
    <glyph glyph-name="nutrition" unicode="NUTRITION" 
d="M480 120q-117 0 -198.5 81.5t-81.5 198.5q0 100 61.5 176.5t158.5 97.5q-26 5 -50 14.5t-43 28.5q-28 29 -37.5 67t-9.5 78v9v9q86 2 148 -56.5t61 -143.5q14 43 39.5 80t57.5 69q9 9 21 9t21 -9t9 -21t-9 -21q-25 -25 -45 -54t-34 -61q94 -24 152.5 -99.5t58.5 -172.5
q0 -117 -81.5 -198.5t-198.5 -81.5zM480 180q92 0 156 64t64 156t-64 156t-156 64t-156 -64t-64 -156t64 -156t156 -64zM480 400v0v0v0v0v0v0v0v0z" />
    <glyph glyph-name="oncology" unicode="ONCOLOGY" 
d="M120 320q0 46 32 78t78 32h80q75 0 102.5 33t27.5 77q0 32 -17 51t-43 19q-25 0 -42.5 17.5t-17.5 42.5v180q0 13 8.5 21.5t21.5 8.5t21.5 -8.5t8.5 -21.5v-180h-1t1 0q50 0 85 -36.5t35 -93.5q0 -69 -45 -119.5t-145 -50.5h-80q-21 0 -35.5 -14.5t-14.5 -35.5v-210
q0 -13 -8.5 -21.5t-21.5 -8.5t-21.5 8.5t-8.5 21.5v210zM380 670v210v0v-210h-1t1 0q50 0 85 -36.5t35 -93.5v0v0v0v0v0q0 -69 -45 -119.5t-145 -50.5h-80q-21 0 -35.5 -14.5t-14.5 -35.5v-240v0v240q0 21 14.5 35.5t35.5 14.5h80q100 0 145 50.5t45 119.5q0 57 -35 93.5
t-85 36.5q-2 0 -1 0h1zM840 445q-14 11 -28.5 21t-31.5 17v37q0 88 -66 149t-154 61q-25 0 -42.5 17.5t-17.5 42.5v60q0 13 8.5 21.5t21.5 8.5t21.5 -8.5t8.5 -21.5v-60v0q112 0 196 -79t84 -191v-75zM360 160v-50q0 -13 -8.5 -21.5t-21.5 -8.5t-21.5 8.5t-8.5 21.5v50
q0 46 32 78t78 32h50q0 -16 2 -31t6 -29h-58q-21 0 -35.5 -14.5t-14.5 -35.5zM690 181q38 0 64 26t26 64t-26 64t-64 26t-64 -26t-26 -64t26 -64t64 -26zM690 121q-63 0 -106.5 43.5t-43.5 106.5t43.5 106.5t106.5 43.5t106.5 -43.5t43.5 -106.5q0 -24 -7 -45.5t-20 -39.5
l78 -78q9 -9 9 -21t-9 -21t-21 -9t-21 9l-78 78q-17 -11 -37.5 -17t-43.5 -6z" />
    <glyph glyph-name="ophthalmology" unicode="OPHTHALMOLOGY" 
d="M400 840q9 9 21.5 9t21.5 -9l28 -28q10 -10 13.5 -23.5t-1.5 -27.5t-15.5 -23t-24.5 -11q-72 -11 -127 -58.5t-76 -117.5q-3 -10 -10.5 -15.5t-17.5 -5.5h-62q-12 0 -21 8.5t-9 21.5t8.5 21.5t21.5 8.5h40q30 72 89.5 122t134.5 71l-14 14q-9 9 -9 21.5t9 21.5zM610 480
q0 44 19 82.5t56 60.5q-22 27 -47.5 49.5t-57.5 36.5q-11 5 -17.5 16t-2.5 23t15.5 17.5t23.5 0.5q50 -21 89 -58t65 -85q39 -18 58 -58.5t19 -84.5q0 -45 -18.5 -85t-58.5 -58q-26 -48 -65 -85t-89 -58q-12 -5 -23.5 0.5t-15.5 17.5t2.5 23t18.5 16q32 14 57 35.5t47 50.5
q-42 25 -58.5 60.5t-16.5 82.5zM720 390q20 0 35 27.5t15 62.5t-15 62.5t-35 27.5t-35 -27.5t-15 -62.5t15 -62.5t35 -27.5zM395 115q-9 9 -9 21.5t9 21.5l19 19q-75 21 -135 71t-89 122h-40q-12 0 -21 8.5t-9 21.5t8.5 21.5t21.5 8.5h62q10 0 17.5 -5.5t10.5 -15.5
q21 -70 75.5 -117.5t126.5 -58.5q14 -2 25 -11t16 -23t1.5 -27t-13.5 -23l-34 -34q-9 -9 -21 -9t-21 9zM720 480v0v0v0v0v0v0v0v0z" />
    <glyph glyph-name="oral_disease" unicode="ORAL_DISEASE" 
d="M230 80q-13 0 -21.5 8.5t-8.5 21.5v300q0 13 8.5 21.5t21.5 8.5h50v198v0v0l-90 90q-17 17 -17 42t17 42l83 83q9 9 21 9t21 -9t9 -21.5t-9 -21.5l-83 -82v0v0l90 -90q8 -8 13 -19.5t5 -23.5v-197h50q13 0 21.5 -8.5t8.5 -21.5v-300q0 -13 -8.5 -21.5t-21.5 -8.5h-160z
M570 80q-13 0 -21.5 8.5t-8.5 21.5v300q0 13 8.5 21.5t21.5 8.5h50v133q-52 11 -86 53.5t-34 98.5q0 64 43.5 109.5t106.5 45.5t106.5 -45.5t43.5 -109.5q0 -56 -34 -98.5t-86 -53.5v-133h50q13 0 21.5 -8.5t8.5 -21.5v-300q0 -13 -8.5 -21.5t-21.5 -8.5h-160zM650 630
q38 0 64 28t26 67t-26 67t-64 28t-64 -28t-26 -67t26 -67t64 -28zM260 140h100v240h-100v-240zM600 140h100v240h-100v-240zM260 140v0h100v0h-100zM600 140v0h100v0h-100z" />
    <glyph glyph-name="outpatient" unicode="OUTPATIENT" 
d="M70 120q-13 0 -21.5 8.5t-8.5 21.5v660q0 13 8.5 21.5t21.5 8.5h500q13 0 21.5 -8.5t8.5 -21.5v-660q0 -13 -8.5 -21.5t-21.5 -8.5h-199v170h-101v-170h-200zM100 180h110v170h221v-170h109v600h-440v-600zM210 450h60v60h-60v-60zM210 610h60v60h-60v-60zM370 450h60v60
h-60v-60zM370 610h60v60h-60v-60zM210 180v170h221v-170v0v170h-221v-170v0zM640 480q0 13 8.5 21.5t21.5 8.5h135l-32 33q-8 9 -8.5 21t8.5 21t21 9t21 -9l84 -84q9 -9 9 -21t-9 -21l-84 -84q-9 -9 -21 -9t-21 9t-8.5 21t8.5 21l32 33h-135q-13 0 -21.5 8.5t-8.5 21.5z" />
    <glyph glyph-name="outpatient_med" unicode="OUTPATIENT_MED" 
d="M110 780q-13 0 -21.5 8.5t-8.5 21.5t8.5 21.5t21.5 8.5h420q13 0 21.5 -8.5t8.5 -21.5t-8.5 -21.5t-21.5 -8.5h-420zM320 270q21 0 35.5 14.5t14.5 35.5v50h50q21 0 35.5 14.5t14.5 35.5t-14.5 35.5t-35.5 14.5h-50v50q0 21 -14.5 35.5t-35.5 14.5t-35.5 -14.5
t-14.5 -35.5v-50h-50q-21 0 -35.5 -14.5t-14.5 -35.5t14.5 -35.5t35.5 -14.5h50v-50q0 -21 14.5 -35.5t35.5 -14.5zM100 120q-24 0 -42 18t-18 42v480q0 24 18 42t42 18h440q24 0 42 -18t18 -42v-480q0 -24 -18 -42t-42 -18h-440zM100 180h440v0v0v480v0v0h-440v0v0v-480v0
v0zM759 361q-9 9 -9 21t9 21l47 47h-137q-12 0 -20.5 8.5t-8.5 20.5t9 21t21 9h135l-47 47q-9 9 -9 21t9 21t21.5 9t21.5 -9l98 -98q9 -9 9 -21t-9 -21l-97 -97q-9 -9 -21.5 -9t-21.5 9zM320 420v0v0v0v0v0v0v0v0v0v0v0v0z" />
    <glyph glyph-name="pediatrics" unicode="PEDIATRICS" 
d="M320 700q-13 0 -21.5 8.5t-8.5 21.5t8.5 21.5t21.5 8.5h130v90q0 13 8.5 21.5t21.5 8.5t21.5 -8.5t8.5 -21.5v-90h130q13 0 21.5 -8.5t8.5 -21.5t-8.5 -21.5t-21.5 -8.5h-320zM340 80q-25 0 -42.5 17.5t-17.5 42.5v390q0 50 35 85t85 35h160q50 0 85 -35t35 -85v-390
q0 -25 -17.5 -42.5t-42.5 -17.5h-280zM340 140h280v0v0v390q0 26 -17 43t-43 17h-160q-25 0 -42.5 -17t-17.5 -43v-50h100q13 0 21.5 -8.5t8.5 -21.5t-8.5 -21.5t-21.5 -8.5h-100v-110h100q13 0 21.5 -8.5t8.5 -21.5t-8.5 -21.5t-21.5 -8.5h-100v-110v0zM340 140v0v0v0v390
v43v17v0v-17v-43v-50v0v-60v0v-110v0v-60v0v-110v0z" />
    <glyph glyph-name="physical_therapy" unicode="PHYSICAL_THERAPY" 
d="M483 275v0v0v0v0v0v0v0v0v0zM598 75l-216 85v0v0h-232q-13 0 -21.5 8.5t-8.5 21.5v130q0 83 58.5 141.5t141.5 58.5h429q38 0 64.5 -26t26.5 -64q0 -31 -19 -55.5t-48 -32.5l-93 -27v-184q0 -16 -7 -29t-19 -21t-26.5 -10t-29.5 4zM498 300h-123q-14 0 -23 -9t-11 -20
t3.5 -22.5t19.5 -16.5l256 -101v0v0v169v0v0h-122zM180 220h113q-6 10 -9.5 21.5t-3.5 23.5q0 39 28 67t67 28h238l145 40q14 4 19 13t3 20t-10 19t-21 8h-429q-58 0 -99 -41t-41 -99v-100zM483 275v0v0v0v0v0v0v0v0v0v0v0v0v0zM400 560q-66 0 -113 47t-47 113t47 113
t113 47t113 -47t47 -113t-47 -113t-113 -47zM400 620q42 0 71 29t29 71t-29 71t-71 29t-71 -29t-29 -71t29 -71t71 -29zM400 720v0v0v0v0v0v0v0v0z" />
    <glyph glyph-name="pill" unicode="PILL" 
d="M345 120q-94 0 -159.5 65.5t-65.5 159.5q0 45 17 86t49 73l270 270q32 32 73 49t86 17q94 0 159.5 -65.5t65.5 -159.5q0 -45 -17 -86t-49 -73l-270 -270q-32 -32 -73 -49t-86 -17zM618 385l114 113q23 23 35.5 53.5t12.5 63.5q0 69 -48 117t-117 48q-33 0 -63.5 -12.5
t-53.5 -35.5l-113 -114zM345 180q32 0 63 12.5t54 35.5l113 114l-233 233l-114 -113q-23 -23 -35.5 -53.5t-12.5 -63.5q0 -69 48 -117t117 -48z" />
    <glyph glyph-name="podiatry" unicode="PODIATRY" 
d="M671 361l207 207l21 -21q9 -9 9 -21t-9 -21l-165 -165q-9 -9 -21 -9t-21 9zM30 285q0 22 12.5 40t33.5 26q26 10 50 23.5t46 31.5l47 -47q3 -5 10 -5t12 5q4 4 3.5 10.5t-3.5 11.5l-43 44q10 8 19 17.5t18 20.5l43 -43q3 -5 10 -5t12 5q4 4 3.5 10.5t-3.5 11.5l-45 45
l16 22t13 25l52 -54q3 -6 10 -5.5t12 5.5q4 4 4 10.5t-3 11.5l-62 61l58 103q2 4 4.5 7t5.5 6l159 159q17 17 42 17t42 -17l242 -242l-408 -408q-8 -8 -19.5 -13t-23.5 -5h-309q-25 0 -42.5 17.5t-17.5 42.5v55zM399 230v0v0v0v0v0v0l367 366v0v0v0v0v0v0l-367 -366v0z
M92 230h307l367 366l-200 200l-159 -160l-34 -63l24 -25q22 -24 24 -55t-20 -53l-122 -122q-22 -22 -52.5 -22t-51.5 22l-10 10q-18 -11 -36 -19t-37 -16v-63z" />
    <glyph glyph-name="prescriptions" unicode="PRESCRIPTIONS" 
d="M694 120l53 54l-93 93l-54 -53q-20 -20 -19.5 -47t19.5 -47q20 -19 47 -19.5t47 19.5zM788 215l54 53q20 20 19.5 47t-20.5 47t-46.5 20t-46.5 -20l-53 -54zM736 78q-37 -37 -89 -37t-89 37t-37 89t37 89l148 148q37 37 89 37t89 -37t37 -89t-37 -89zM180 180v59v59v149
v26.5v26.5v280v0v0v0v0v0v-600v0v0v0zM180 120q-25 0 -42.5 17.5t-17.5 42.5v600q0 25 17.5 42.5t42.5 17.5h205q5 35 32 57.5t63 22.5t63 -22.5t32 -57.5h205q25 0 42.5 -17.5t17.5 -42.5v-284q-15 4 -30 5t-30 -1v280v0v0h-600v0v0v-600v0v0h281q-1 -15 0.5 -30t5.5 -30
h-287zM480 797q14 0 24.5 10.5t10.5 24.5t-10.5 24.5t-24.5 10.5t-24.5 -10.5t-10.5 -24.5t10.5 -24.5t24.5 -10.5zM280 620v60h400v-60h-400zM280 450v60h400v-49q-3 -2 -6.5 -5t-6.5 -6v0h-387zM280 280v60h277l-42 -42q-5 -5 -8.5 -9t-7.5 -9h-219z" />
    <glyph glyph-name="problem" unicode="PROBLEM" 
d="M261 322q12 0 21 9t9 21t-9 21t-21 9t-21 -9t-9 -21t9 -21t21 -9zM261 452q13 0 21.5 8.5t8.5 21.5v131q0 13 -8.5 21.5t-21.5 8.5t-21.5 -8.5t-8.5 -21.5v-131q0 -13 8.5 -21.5t21.5 -8.5zM440 372h259q13 0 21.5 8.5t8.5 21.5t-8.5 21.5t-21.5 8.5h-259
q-13 0 -21.5 -8.5t-8.5 -21.5t8.5 -21.5t21.5 -8.5zM440 543h259q13 0 21.5 8.5t8.5 21.5t-8.5 21.5t-21.5 8.5h-259q-13 0 -21.5 -8.5t-8.5 -21.5t8.5 -21.5t21.5 -8.5zM132 160q-24 0 -42 18t-18 42v520q0 24 18 42t42 18h696q24 0 42 -18t18 -42v-520q0 -24 -18 -42
t-42 -18h-696zM132 220h696v0v0v520v0v0h-696v0v0v-520v0v0zM132 220v0v0v0v520v0v0v0v0v0v-520v0v0z" />
    <glyph glyph-name="psychiatry" unicode="PSYCHIATRY" 
d="M480 130q-13 0 -21.5 8.5t-8.5 21.5v279h-20q-64 0 -120.5 24.5t-100.5 69.5t-66.5 104t-22.5 123v50q0 13 8.5 21.5t21.5 8.5h48q62 0 119 -24.5t102 -69.5q33 -34 54.5 -76t30.5 -89q8 12 17 23t19 22q45 45 102 69.5t120 24.5h48q13 0 21.5 -8.5t8.5 -21.5v-50
q0 -64 -24 -123t-68 -104q-45 -45 -101.5 -69t-118.5 -24h-18v-160q0 -13 -8.5 -21.5t-21.5 -8.5zM451 500q0 61 -20 113.5t-55 89.5q-35 36 -86 56.5t-110 20.5q0 -63 18.5 -115.5t53.5 -89.5q42 -45 90.5 -60t108.5 -15zM510 380q60 0 111 19.5t86 56.5q35 36 54 88.5
t19 115.5q-60 0 -111 -20.5t-86 -56.5q-43 -45 -58 -94t-15 -109zM510 380v0v0v0v0v0v0v0v0zM451 500v0v0v0v0v0v0v0v0z" />
    <glyph glyph-name="pulmonology" unicode="PULMONOLOGY" 
d="M480 518l-83 -83q-9 -9 -21 -9t-21 9t-9 21.5t9 21.5l95 94v278q0 13 8.5 21.5t21.5 8.5t21.5 -8.5t8.5 -21.5v-278l95 -95q9 -9 9 -21t-9 -21t-21.5 -9t-21.5 9zM190 120q-46 0 -78 32t-32 78v174q0 5 1 10.5t3 10.5l104 269q12 31 40 48.5t61 17.5q42 0 71.5 -29.5
t29.5 -71.5v-29q0 -13 -8.5 -21.5t-21.5 -8.5t-21.5 8.5t-8.5 21.5v29q0 17 -13 29t-30 12q-14 0 -26 -6.5t-17 -19.5l-104 -269v-175q0 -21 14.5 -35.5t35.5 -14.5h140q21 0 35.5 14.5t14.5 35.5v40q0 13 8.5 21.5t21.5 8.5t21.5 -8.5t8.5 -21.5v-40q0 -46 -32 -78t-78 -32
h-140zM770 120h-140q-46 0 -78 32t-32 78v40q0 13 8.5 21.5t21.5 8.5t21.5 -8.5t8.5 -21.5v-40q0 -21 14.5 -35.5t35.5 -14.5h140q21 0 35.5 14.5t14.5 35.5v175l-104 269q-5 13 -17 19.5t-26 6.5q-17 0 -30 -12t-13 -29v-29q0 -13 -8.5 -21.5t-21.5 -8.5t-21.5 8.5
t-8.5 21.5v29q0 42 29.5 71.5t71.5 29.5q33 0 61 -17.5t40 -48.5l104 -269q2 -5 3 -10.5t1 -10.5v-174q0 -46 -32 -78t-78 -32zM355 435v0v0v0v0v0v0v0v0v0v0v0v0v0v0v0v0v0v0v0v0v0v0zM605 435v0v0v0v0v0v0v0v0v0v0v0v0v0v0v0v0v0v0v0v0v0v0z" />
    <glyph glyph-name="radiology" unicode="RADIOLOGY" 
d="M180 80q-24 0 -42 18t-18 42v620q0 24 18 42t42 18h65v60h65v-60h340v60h65v-60h65q24 0 42 -18t18 -42v-620q0 -24 -18 -42t-42 -18h-600zM180 140v0v0h600v0v0v620v0v0h-600v0v0v-620zM360 140v92l-72 84q-11 11 -19.5 30t-8.5 44q0 13 2.5 25.5t8.5 24.5
q-5 11 -8 23.5t-3 26.5q0 25 8.5 44t19.5 30l72 84v112h60v-123q0 -5 -7 -19l-80 -94q-7 -8 -10 -16.5t-3 -17.5q0 -20 13 -34.5t33 -14.5q9 0 17 3t14 10q17 17 38.5 26t44.5 9t44.5 -9t38.5 -26q7 -7 15 -10t16 -3q20 0 33 14.5t13 33.5q0 9 -3.5 17.5t-9.5 16.5l-80 95
q-4 4 -5.5 9t-1.5 10v123h60v-112l73 -86q14 -16 20.5 -34.5t6.5 -38.5q0 -13 -3.5 -25.5t-8.5 -23.5q6 -12 9 -24.5t3 -25.5q0 -25 -8.5 -44t-19.5 -30l-72 -84v-92h-60v103q0 6 7 19l80 94q7 8 10 17t3 18q-11 -5 -22 -7.5t-23 -2.5q-20 0 -40 8t-35 24q-7 8 -17.5 12
t-22.5 4q-11 0 -21.5 -4t-18.5 -12q-15 -16 -34.5 -24t-39.5 -8q-12 0 -23.5 2.5t-22.5 7.5q0 -9 3 -18t10 -17l80 -94q3 -5 5 -9.5t2 -9.5v-103h-60zM180 140v0v0v0v0v0v620v0v0v0v0v0v-620z" />
    <glyph glyph-name="respiratory_rate" unicode="RESPIRATORY_RATE" 
d="M480 480v0v0v0v0v0v0v0v0v0v0v0v0v0v0v0v0v0v0v0v0v0v0zM80 570v170q0 24 18 42t42 18h680q24 0 42 -18t18 -42v-230q0 -13 -8.5 -21.5t-21.5 -8.5t-21.5 8.5t-8.5 21.5v230v0v0h-680v0v0v-170h-60zM140 160q-24 0 -42 18t-18 42v170h60v-170v0v0h230q13 0 21.5 -8.5
t8.5 -21.5t-8.5 -21.5t-21.5 -8.5h-230zM280 290q-9 0 -16 4t-12 12l-71 144h-71q-13 0 -21.5 8.5t-8.5 21.5t8.5 21.5t21.5 8.5h90q8 0 15 -4.5t11 -12.5l54 -106l133 266q4 8 11.5 11.5t15.5 3.5t15.5 -3.5t11.5 -11.5l87 -176q-16 -2 -30 -8.5t-27 -16.5l-57 120
l-134 -266q-4 -8 -11 -12t-15 -4zM510 40q-21 0 -35.5 14.5t-14.5 35.5v134q0 5 1 10.5t3 10.5l48 129q8 20 25.5 33t39.5 13h83v50q0 13 8.5 21.5t21.5 8.5t21.5 -8.5t8.5 -21.5v-50h82q22 0 39.5 -13t25.5 -33l49 -129q2 -5 3 -10.5t1 -10.5v-134q0 -21 -15 -35.5
t-35 -14.5h-80q-21 0 -35.5 14.5t-14.5 35.5v20q0 13 8.5 21.5t21.5 8.5t21.5 -8.5t8.5 -21.5v-10h60v124l-51 136h-89v-52l40 -41q8 -9 8.5 -21t-8.5 -21t-21 -9t-21 9l-28 28l-29 -29q-9 -9 -21.5 -8.5t-21.5 9.5t-8.5 21t9.5 21l41 41v52h-90l-50 -136v-124h60v10
q0 13 8.5 21.5t21.5 8.5t21.5 -8.5t8.5 -21.5v-20q0 -21 -15 -35.5t-35 -14.5h-80zM690 230v0v0v0v0v0v0v0v0v0v0v0v0v0v0v0v0v0v0v0v0v0v0v0v0zM619 267l41 41v52v0v-52l-41 -41v0zM760 267v0l-40 41v52v0v-52z" />
    <glyph glyph-name="rheumatology" unicode="RHEUMATOLOGY" 
d="M411 338v0v0v0v0v0v0v0v0v0v0v0v0v0v0v0v0v0v0v0v0v0zM743 335q-12 4 -18 15t-2 22q4 12 15 18t23 2l138 -47q12 -4 17.5 -15t1.5 -23t-15 -17.5t-22 -1.5zM750 450q-12 0 -21 9t-9 22q0 12 9 20.5t21 8.5h140q13 0 21.5 -8.5t8.5 -21.5q0 -12 -8.5 -21t-21.5 -9h-140z
M763 569q-12 -4 -23.5 1.5t-15.5 17.5t2 23t18 15l137 46q11 4 22 -2t15 -18q4 -11 -1.5 -22t-17.5 -15zM285 400q-52 0 -88.5 36.5t-36.5 88.5q0 26 10 48.5t27 39.5l83 84v183h60v-183q0 -12 -4.5 -23.5t-12.5 -19.5l-84 -83q-9 -9 -14 -21t-5 -25q0 -27 19.5 -46
t45.5 -19q17 0 27.5 6t23.5 17q14 11 32.5 21t41.5 10q17 0 35.5 -7t39.5 -24q13 -11 23 -17t27 -6q27 0 46 19t19 46q0 14 -5 26t-13 21l-84 83q-8 8 -13 19.5t-5 23.5v182h60v-182l84 -84q17 -17 26.5 -40t9.5 -49q0 -52 -36 -88.5t-89 -36.5q-33 0 -53.5 12.5t-34.5 24.5
q-15 12 -23.5 14.5t-13.5 2.5q-9 0 -18.5 -6t-17.5 -11q-15 -12 -35 -24.5t-54 -12.5zM480 80v174q0 12 5 23.5t13 19.5l84 83q8 9 13 20.5t5 24.5q0 14 -5 26t-13 21l42 42q17 -17 26.5 -40t9.5 -49t-9.5 -48t-26.5 -39l-84 -84v-174h-60zM280 80v174l-83 84q-17 17 -27 39
t-10 48t10 49t27 40l42 -42q-9 -10 -14 -21.5t-5 -25.5q0 -13 5.5 -24.5t13.5 -20.5l84 -83q8 -8 12.5 -19.5t4.5 -23.5v-174h-60zM410 655v0v0v0v0v0v0v0v0v0v0v0v0v0v0v0v0v0v0v0v0v0v0v0v0v0z" />
    <glyph glyph-name="source_notes" unicode="SOURCE_NOTES" 
d="M720 40q-59 0 -106 30.5t-72 78.5q-6 11 -1.5 22.5t15.5 16.5t23 1t18 -15q17 -33 49.5 -53.5t73.5 -20.5q58 0 99 41t41 99t-41 99t-99 41q-29 0 -54 -10.5t-44 -29.5h28q13 0 21.5 -8.5t8.5 -21.5t-8.5 -21.5t-21.5 -8.5h-100q-13 0 -21.5 8.5t-8.5 21.5v100
q0 13 8.5 21.5t21.5 8.5t21.5 -8.5t8.5 -21.5v-27q27 26 63 41.5t77 15.5q83 0 141.5 -58.5t58.5 -141.5t-58.5 -141.5t-141.5 -58.5zM180 180v0v0v0v600v0v0v0v0v0v-600v0v0v0v0v0v0zM650 620q13 0 21.5 8.5t8.5 21.5t-8.5 21.5t-21.5 8.5h-340q-13 0 -21.5 -8.5
t-8.5 -21.5t8.5 -21.5t21.5 -8.5h340zM589 510h-279q-13 0 -21.5 -8.5t-8.5 -21.5t8.5 -21.5t21.5 -8.5h196q18 18 39 33.5t44 26.5zM437 340h-127q-13 0 -21.5 -8.5t-8.5 -21.5t8.5 -21.5t21.5 -8.5h113q2 16 5.5 31t8.5 29zM180 120q-25 0 -42.5 17.5t-17.5 42.5v600
q0 25 17.5 42.5t42.5 17.5h600q25 0 42.5 -17.5t17.5 -42.5v-265q-14 6 -29 11t-31 8v246v0v0h-600v0v0v-600v0v0h246q3 -16 8 -31t11 -29h-265z" />
    <glyph glyph-name="surgical" unicode="SURGICAL" 
d="M440 120l61 60h349q13 0 21.5 -8.5t8.5 -21.5t-8.5 -21.5t-21.5 -8.5h-410zM496 346l-150 150l339 339q9 9 21.5 9t21.5 -9l107 -107q9 -9 9 -21.5t-9 -21.5zM496 431l276 276l-65 65l-276 -276zM203 120q-46 0 -88.5 18t-74.5 50l265 264l104 -104q14 -14 22 -32t8 -38
t-8 -38.5t-22 -32.5l-19 -19q-32 -32 -74.5 -50t-88.5 -18h-24zM203 180h24q34 0 65.5 13t55.5 37l20 20q12 12 10.5 28.5t-13.5 28.5l-60 60l-176 -175q18 -6 36.5 -9t37.5 -3zM772 707l-65 65v0l65 -65v0zM305 367v0v0v0v0v0v0v0v0v0v0z" />
    <glyph glyph-name="symptoms" unicode="SYMPTOMS" 
d="M480 500v0v0v0v0v0v0v0v0v0v0v0v0v0v0zM480 200q-146 0 -264 83t-176 217q58 134 176 217t264 83t264 -83t176 -217q-9 -20 -19.5 -39.5t-22.5 -37.5l-42 39q6 9 11 18.5t10 19.5q-53 109 -154.5 174.5t-222.5 65.5t-222.5 -65.5t-155.5 -174.5q54 -109 155.5 -174.5
t222.5 -65.5q15 0 30 1t31 3q-1 -15 1 -30t6 -29q-17 -3 -34 -4t-34 -1zM480 330q-71 0 -120.5 49.5t-49.5 120.5t49.5 120.5t120.5 49.5t121 -49.5t50 -121.5q0 -16 -3 -32t-10 -30l-30 -28q-13 -12 -23.5 -26t-18.5 -30q-19 -11 -41 -17t-45 -6zM480 388q47 0 79.5 32.5
t32.5 79.5t-32.5 79.5t-79.5 32.5t-79.5 -32.5t-32.5 -79.5t32.5 -79.5t79.5 -32.5zM751 105q-63 0 -106.5 44t-44.5 107q0 31 13 59.5t36 49.5l102 96l101 -96q23 -21 35.5 -49t13.5 -59q0 -63 -43.5 -107.5t-106.5 -44.5zM751 165q38 0 64 27t25 65q0 19 -8 35.5t-22 29.5
l-59 56l-60 -56q-14 -13 -22.5 -29.5t-7.5 -36.5q0 -38 26 -64.5t64 -26.5zM751 272v0v0v0v0v0v0v0v0v0v0z" />
    <glyph glyph-name="syringe" unicode="SYRINGE" 
d="M149 520q-8 9 -8 21.5t8 21.5l126 125l-57 58l-26 -26q-9 -9 -21.5 -9t-21.5 9q-8 8 -8 20.5t8 21.5l94 94q9 9 21.5 9t21.5 -9q8 -9 8 -21.5t-8 -20.5l-26 -27l57 -57l126 127q9 8 21.5 8t21.5 -8q8 -9 8 -21.5t-8 -21.5l-34 -34l339 -338q17 -18 17 -43t-17 -42
l-50 -50l146 -146q7 -7 3.5 -16.5t-13.5 -9.5h-29q-9 0 -17.5 3.5t-14.5 9.5l-117 117l-50 -50q-17 -17 -42 -17t-43 17l-338 339l-34 -34q-9 -9 -21.5 -9t-21.5 9zM267 596l339 -339v0v0l142 142v0v0l-85 85l-70 -70q-8 -9 -20.5 -9t-20.5 8q-9 9 -9 21.5t9 21.5l70 70
l-85 85l-70 -70q-9 -9 -21.5 -9t-21.5 9q-8 8 -8 20.5t8 21.5l70 70l-85 85zM260 603v0v0v0l142 142v0v0v0v0v0v0v0v0v0v0v0z" />
    <glyph glyph-name="urology" unicode="UROLOGY" 
d="M430 120v-50q0 -13 -8.5 -21.5t-21.5 -8.5t-21.5 8.5t-8.5 21.5v50h-14q-22 0 -38.5 14t-20.5 36l-20 120q-5 28 13.5 49t46.5 21h14l19 52q-11 -6 -24 -9t-26 -3q-99 0 -169.5 66.5t-70.5 163.5v60q0 97 70.5 163.5t169.5 66.5q46 0 78 -32t32 -78t-32 -78t-78 -32h-40
q-12 0 -21 8.5t-9 21.5t8.5 21.5t21.5 8.5h40q21 0 35.5 14.5t14.5 35.5t-14.5 35.5t-35.5 14.5q-74 0 -127 -49t-53 -121v-60q0 -72 53 -121t127 -49q21 0 35.5 14.5t14.5 35.5t-14.5 35.5t-35.5 14.5h-40q-12 0 -21 8.5t-9 21.5t8.5 21.5t21.5 8.5h40q46 0 78 -32t32 -78
v-150h100v150q0 46 32 78t78 32h40q13 0 21.5 -8.5t8.5 -21.5t-8.5 -21.5t-21.5 -8.5h-40q-21 0 -35.5 -14.5t-14.5 -35.5t14.5 -35.5t35.5 -14.5q74 0 127 49t53 121v60q0 72 -53 121t-127 49q-21 0 -35.5 -14.5t-14.5 -35.5t14.5 -35.5t35.5 -14.5h40q13 0 21.5 -8.5
t8.5 -21.5t-8.5 -21.5t-21.5 -8.5h-40q-46 0 -78 32t-32 78t32 78t78 32q99 0 169.5 -66.5t70.5 -163.5v-60q0 -97 -70.5 -163.5t-169.5 -66.5q-13 0 -25.5 3t-24.5 9v-52h33q28 0 46.5 -21t13.5 -49l-20 -120q-4 -22 -20.5 -36t-38.5 -14h-14v-50q0 -13 -8.5 -21.5
t-21.5 -8.5t-21.5 8.5t-8.5 21.5v50h-100zM336 300l20 -120v0v0h248v0v0l20 120v0v0h-288v0v0zM336 300v0v0v0v0v0l20 -120v0v0v0v0v0z" />
    <glyph glyph-name="vaccines" unicode="VACCINES" 
d="M250 290h-60q-24 0 -42 18t-18 42v320h-10q-13 0 -21.5 8.5t-8.5 21.5t8.5 21.5t21.5 8.5h130v90h-30q-13 0 -21.5 8.5t-8.5 21.5t8.5 21.5t21.5 8.5h120q13 0 21.5 -8.5t8.5 -21.5t-8.5 -21.5t-21.5 -8.5h-30v-90h130q13 0 21.5 -8.5t8.5 -21.5t-8.5 -21.5t-21.5 -8.5
h-10v-320q0 -24 -18 -42t-42 -18h-60v-200q0 -13 -8.5 -21.5t-21.5 -8.5t-21.5 8.5t-8.5 21.5v200zM190 350h180v80h-80q-8 0 -14 6t-6 14t6 14t14 6h80v80h-80q-8 0 -14 6t-6 14t6 14t14 6h80v80h-180v-320zM600 80q-24 0 -42 18t-18 42v266q0 32 8 48.5t21 30.5
q19 20 25 31t6 24v30h-10q-13 0 -21.5 8.5t-8.5 21.5t9 21.5t21 8.5h200q13 0 21.5 -8.5t8.5 -21.5t-8.5 -21.5t-21.5 -8.5h-10v-30q0 -12 7.5 -25t26.5 -33q13 -14 19.5 -29t6.5 -47v-266q0 -24 -18 -42t-42 -18h-180zM600 380h180v26q0 18 -10 32t-22 29q-15 19 -21.5 35
t-6.5 38v30h-60v-30q0 -21 -6 -37t-21 -35q-12 -15 -22.5 -29.5t-10.5 -32.5v-26zM600 260h180v80h-180v-80zM600 140h180v80h-180v-80zM600 260v0h180v0h-180z" />
    <glyph glyph-name="ventilator" unicode="VENTILATOR" 
d="M500 660h200v0v0v120v0v0h-200v0v0v-120v0v0zM160 260q26 0 43 17.5t17 42.5q0 26 -17 43t-43 17q-25 0 -42.5 -17t-17.5 -43q0 -25 17.5 -42.5t42.5 -17.5zM480 130q-73 0 -139 22.5t-120 64.5q-14 -8 -29 -12.5t-32 -4.5q-50 0 -85 35t-35 85q0 26 10.5 48t27.5 39
q-6 17 -11 34t-9 35q-2 12 5 22t20 12t22.5 -6t11.5 -21q2 -12 5.5 -24t7.5 -23q7 2 14.5 3t15.5 1q50 0 85 -35t35 -85q0 -17 -4 -32t-12 -29q40 -29 87 -46t99 -22v209q0 21 -14.5 35.5t-35.5 14.5q-63 0 -106.5 43.5t-43.5 106.5t43.5 106.5t106.5 43.5h40v30
q0 25 17.5 42.5t42.5 17.5h200q25 0 42.5 -17.5t17.5 -42.5v-30h40q13 0 21.5 -8.5t8.5 -21.5t-8.5 -21.5t-21.5 -8.5h-40v-30q0 -25 -17.5 -42.5t-42.5 -17.5h-200q-25 0 -42.5 17.5t-17.5 42.5v30h-40q-38 0 -64 -26t-26 -64t26 -64t64 -26q46 0 78 -32t32 -78v-209
q96 8 173.5 60t121.5 133l-23 11q-6 3 -9.5 7.5t-5 9.5t-1.5 11t3 12t7.5 9.5t9.5 5t11 1.5t12 -3l20 -10q4 11 7.5 22t5.5 22q3 13 12.5 21.5t22.5 6.5t20 -12t5 -22q-4 -17 -8.5 -33t-10.5 -32l15 -7q6 -3 9.5 -7.5t5 -9.5t1.5 -11t-3 -12t-7.5 -9.5t-9.5 -5t-11 -1.5
t-12 3l-12 6q-55 -102 -156 -164.5t-223 -62.5zM500 660v0v0v120v0v0v0v0v0v-120v0v0v0zM160 320v0v0v0v0v0v0v0v0z" />
    <glyph glyph-name="vitals" unicode="VITALS" 
d="M363 190q-16 0 -29 9t-18 23l-97 228h-141q-13 0 -21.5 8.5t-8.5 21.5t8.5 21.5t21.5 8.5h163q9 0 16 -5t11 -13l95 -223l187 467q5 14 18 23t29 9t29 -9t18 -23l97 -226h141q13 0 21.5 -8.5t8.5 -21.5t-8.5 -21.5t-21.5 -8.5h-163q-9 0 -16 5t-11 13l-95 221l-187 -467
q-5 -14 -18 -23t-29 -9z" />
    <glyph glyph-name="ward" unicode="WARD" 
d="M110 880h80q13 0 21.5 -8.5t8.5 -21.5v-770q-23 8 -41.5 22.5t-18.5 37.5v680h-50q-12 0 -21 9t-9 22q0 12 9 20.5t21 8.5zM340 80q-25 0 -42.5 17.5t-17.5 42.5v680q0 25 17.5 42.5t42.5 17.5h400q25 0 42.5 -17.5t17.5 -42.5v-680q0 -25 -17.5 -42.5t-42.5 -17.5h-400z
M340 525q20 17 45.5 26t54.5 9h200q29 0 54.5 -9t45.5 -26v295v0v0h-400v0v0v-295zM540 610q-29 0 -49.5 20.5t-20.5 49.5t20.5 49.5t49.5 20.5t49.5 -20.5t20.5 -49.5t-20.5 -49.5t-49.5 -20.5zM340 140h400v0v0v260q0 42 -29 71t-71 29h-200q-42 0 -71 -29t-29 -71v-260v0
v0zM510 290v-50q0 -13 8.5 -21.5t21.5 -8.5t21.5 8.5t8.5 21.5v50h50q13 0 21.5 8.5t8.5 21.5t-8.5 21.5t-21.5 8.5h-50v50q0 13 -8.5 21.5t-21.5 8.5t-21.5 -8.5t-8.5 -21.5v-50h-50q-13 0 -21.5 -8.5t-8.5 -21.5t8.5 -21.5t21.5 -8.5h50zM340 140v0v0v0h29h71h200h71h29v0
v0v0h-400z" />
    <glyph glyph-name="weight" unicode="WEIGHT" 
d="M217 180h526v0v0l-63 440v0v0h-400v0v0l-63 -440v0v0zM480 680q26 0 43 17.5t17 42.5q0 26 -17 43t-43 17q-25 0 -42.5 -17t-17.5 -43q0 -25 17.5 -42.5t42.5 -17.5zM584 680h96q23 0 40 -14.5t20 -37.5l62 -440q4 -27 -13.5 -47.5t-45.5 -20.5h-526q-28 0 -45.5 20.5
t-13.5 47.5l62 440q3 23 20 37.5t40 14.5h96q-8 14 -12 28.5t-4 31.5q0 50 35 85t85 35t85 -35t35 -85q0 -17 -4 -31.5t-12 -28.5zM217 180v0v0v0v0v0h526v0v0v0v0v0h-526z" />
    <glyph glyph-name="woman" unicode="WOMAN" 
d="M420 110v190h-79q-15 0 -24.5 12.5t-4.5 26.5l90 289q8 25 30 38.5t48 13.5t48 -13.5t30 -38.5l90 -289q5 -14 -4.5 -26.5t-24.5 -12.5h-79v-190q0 -13 -8.5 -21.5t-21.5 -8.5h-60q-13 0 -21.5 8.5t-8.5 21.5zM480 734q-30 0 -51.5 21.5t-21.5 51.5t21.5 51.5t51.5 21.5
t51.5 -21.5t21.5 -51.5t-21.5 -51.5t-51.5 -21.5z" />
    <glyph glyph-name="wounds_injuries" unicode="WOUNDS_INJURIES" 
d="M221 179l-72 -72q-9 -9 -21 -9t-21 9t-9 21.5t9 21.5l72 71l-66 18q-12 3 -18 14t-3 23t14 18t23 3l65 -18l-17 66q-3 12 3 23t18 14t23 -3t14 -18l17 -66l170 169l-66 18q-12 3 -18 14t-3 23t14 18t23 3l66 -18l-18 66q-3 12 3 23t18 14t23 -3t14 -18l18 -66l169 170
l-66 17q-12 3 -18 14t-3 23t14 18t23 3l66 -17l-18 65q-3 12 3 23t18 14t23 -3t14 -18l18 -66l72 72q9 9 21 9t21 -9t9 -21.5t-9 -21.5l-72 -71l66 -18q12 -3 18 -14t3 -23t-14 -18t-23 -3l-65 18l17 -66q3 -12 -3 -23t-18 -14t-23 3t-14 18l-17 66l-170 -169l66 -18
q12 -3 18 -14t3 -23t-14 -18t-23 -3l-66 18l18 -66q3 -12 -3 -23t-18 -14t-23 3t-14 18l-18 66l-169 -170l66 -17q12 -3 18 -14t3 -23t-14 -18t-23 -3l-66 17l18 -65q3 -12 -3 -23t-18 -14t-23 3t-14 18z" />
    <glyph glyph-name="add" unicode="ADD" 
d="M450 450h-220q-13 0 -21.5 8.5t-8.5 21.5t8.5 21.5t21.5 8.5h220v220q0 13 8.5 21.5t21.5 8.5t21.5 -8.5t8.5 -21.5v-220h220q13 0 21.5 -8.5t8.5 -21.5t-8.5 -21.5t-21.5 -8.5h-220v-220q0 -13 -8.5 -21.5t-21.5 -8.5t-21.5 8.5t-8.5 21.5v220z" />
    <glyph glyph-name="add_box" unicode="ADD_BOX" 
d="M450 450v-140q0 -13 8.5 -21.5t21.5 -8.5t21.5 8.5t8.5 21.5v140h140q13 0 21.5 8.5t8.5 21.5t-8.5 21.5t-21.5 8.5h-140v140q0 13 -8.5 21.5t-21.5 8.5t-21.5 -8.5t-8.5 -21.5v-140h-140q-13 0 -21.5 -8.5t-8.5 -21.5t8.5 -21.5t21.5 -8.5h140zM180 120q-24 0 -42 18
t-18 42v600q0 24 18 42t42 18h600q24 0 42 -18t18 -42v-600q0 -24 -18 -42t-42 -18h-600zM180 180h600v0v0v600v0v0h-600v0v0v-600v0v0zM180 780v0v0v0v-600v0v0v0v0v0v600v0v0z" />
    <glyph glyph-name="add_circle" unicode="ADD_CIRCLE_OUTLINE" 
d="M453 446v-136q0 -13 8.5 -21.5t21.5 -8.5t21.5 8.5t8.5 21.5v136h137q13 0 21.5 8.5t8.5 21.5t-8.5 21.5t-21.5 8.5h-137v144q0 13 -8.5 21.5t-21.5 8.5t-21.5 -8.5t-8.5 -21.5v-144h-143q-13 0 -21.5 -8.5t-8.5 -21.5t8.5 -21.5t21.5 -8.5h143zM480 80q-82 0 -155 31.5
t-127.5 86t-86 127.5t-31.5 156q0 82 31.5 155t86 127t127.5 85.5t156 31.5q82 0 155 -31.5t127 -85.5t85.5 -127t31.5 -156q0 -82 -31.5 -155t-85.5 -127.5t-127 -86t-156 -31.5zM481 140q141 0 240 99.5t99 241.5q0 141 -99 240t-241 99q-141 0 -240.5 -99t-99.5 -241
q0 -141 99.5 -240.5t241.5 -99.5zM480 480v0v0v0v0v0v0v0v0z" />
    <glyph glyph-name="archive" unicode="ARCHIVE" 
d="M480 581q-13 0 -21.5 -8.5t-8.5 -21.5v-171l-66 66q-8 8 -20 8t-20 -8t-8 -20t8 -20l115 -115q9 -9 21 -9t21 9l115 115q8 8 8 20t-8 20t-20 8t-20 -8l-66 -66v171q0 13 -8.5 21.5t-21.5 8.5zM180 674v-494v0v0h600v0v0v494h-600zM180 120q-25 0 -42.5 17.5t-17.5 42.5
v529q0 10 3 19t9 17l52 71q8 11 21 17.5t27 6.5h495q14 0 27 -6.5t21 -17.5l53 -71q6 -8 9 -17t3 -19v-529q0 -25 -17.5 -42.5t-42.5 -17.5h-600zM197 734h565l-36 46v0v0h-493v0v0zM480 427v0v0v0v0v0v0v0v0z" />
    <glyph glyph-name="backspace" unicode="BACKSPACE" 
d="M360 200q-22 0 -40 11.5t-31 29.5l-145 204q-11 16 -11 35t11 35l145 204q13 18 31 29.5t40 11.5h420q25 0 42.5 -17.5t17.5 -42.5v-440q0 -25 -17.5 -42.5t-42.5 -17.5h-420zM780 260v0v0v220v220v0v0v0v0v0v-440v0v0v0zM349 260h431v0v0v440v0v0h-431v0v0l-154 -220v0
v0l154 -220v0v0zM560 438l91 -91q9 -9 21 -9t21 9t9 21.5t-9 21.5l-91 90l90 90q9 9 9 21t-9 21t-21.5 9t-21.5 -9l-89 -90l-91 91q-9 9 -21 9t-21 -9t-9 -21.5t9 -21.5l91 -90l-91 -90q-9 -9 -9 -21t9 -21t21.5 -9t21.5 9z" />
    <glyph glyph-name="close" unicode="CLEAR" 
d="M480 438l-210 -210q-9 -9 -21 -9t-21 9t-9 21t9 21l210 210l-210 210q-9 9 -9 21t9 21t21 9t21 -9l210 -210l210 210q9 9 21 9t21 -9t9 -21t-9 -21l-210 -210l210 -210q9 -9 9 -21t-9 -21t-21 -9t-21 9z" />
    <glyph glyph-name="content_copy" unicode="CONTENT_COPY" 
d="M300 200q-24 0 -42 18t-18 42v560q0 24 18 42t42 18h440q24 0 42 -18t18 -42v-560q0 -24 -18 -42t-42 -18h-440zM300 260h440v0v0v560v0v0h-440v0v0v-560v0v0zM180 80q-24 0 -42 18t-18 42v590q0 13 8.5 21.5t21.5 8.5t21.5 -8.5t8.5 -21.5v-590v0v0h470q13 0 21.5 -8.5
t8.5 -21.5t-8.5 -21.5t-21.5 -8.5h-470zM300 260v0v0v560v0v0v0v0v0v-560v0v0v0z" />
    <glyph glyph-name="content_cut" unicode="CONTENT_CUT" 
d="M481 415l-117 -117q11 -17 13.5 -33t2.5 -35q0 -64 -43 -107t-107 -43t-107 43t-43 107t43 107t107 43q18 0 35.5 -5t36.5 -15l116 116l-118 118q-17 -8 -34.5 -11t-35.5 -3q-64 0 -107 43t-43 107t43 107t107 43t107 -43t43 -107q0 -19 -2.5 -36t-10.5 -32l468 -468
q23 -23 10.5 -51.5t-44.5 -28.5q-9 0 -17.5 3.5t-15.5 10.5zM599 527l-66 66l235 235q7 7 15.5 10.5t17.5 3.5q32 0 43.5 -29t-10.5 -51zM230 640q38 0 64 26t26 64t-26 64t-64 26t-64 -26t-26 -64t26 -64t64 -26zM483 457q8 0 13.5 5.5t5.5 13.5t-5.5 13.5t-13.5 5.5
t-13.5 -5.5t-5.5 -13.5t5.5 -13.5t13.5 -5.5zM230 140q38 0 64 26t26 64t-26 64t-64 26t-64 -26t-26 -64t26 -64t64 -26z" />
    <glyph glyph-name="content_paste" unicode="CONTENT_PASTE" 
d="M180 120q-26 0 -43 17t-17 43v600q0 26 17 43t43 17h202q7 35 34.5 57.5t63.5 22.5t63.5 -22.5t34.5 -57.5h202q26 0 43 -17t17 -43v-600q0 -26 -17 -43t-43 -17h-600zM180 180h600v0v0v600v0v0h-60v-60q0 -13 -8.5 -21.5t-21.5 -8.5h-420q-13 0 -21.5 8.5t-8.5 21.5v60
h-60v0v0v-600v0v0zM480 780q17 0 28.5 11.5t11.5 28.5t-11.5 28.5t-28.5 11.5t-28.5 -11.5t-11.5 -28.5t11.5 -28.5t28.5 -11.5z" />
    <glyph glyph-name="edit" unicode="CREATE" 
d="M180 180h44l472 471l-44 44l-472 -471v-44zM150 120q-13 0 -21.5 8.5t-8.5 21.5v73q0 12 5 23.5t13 19.5l557 556q8 8 19 12.5t23 4.5q11 0 22 -4.5t20 -12.5l44 -44q9 -9 13 -20t4 -22t-4.5 -22.5t-12.5 -19.5l-557 -556q-8 -8 -19.5 -13t-23.5 -5h-73zM779 737v0
l-41 41v0zM674 673l-22 22v0l44 -44v0z" />
    <glyph glyph-name="drafts" unicode="DRAFTS" 
d="M511 902l340 -204q17 -9 23 -24.5t6 -30.5v-463q0 -24 -18 -42t-42 -18h-680q-24 0 -42 18t-18 42v463q0 15 6.5 30.5t22.5 24.5l340 204q14 8 31 8t31 -8zM480 454l336 197l-336 202v0v0l-336 -202l336 -197v0v0zM450 405l-310 182v-407v0v0h680v0v0v407l-310 -182
q-14 -8 -30 -8t-30 8zM510 180h310v0v0v0h-680v0v0v0h310h30h30z" />
    <glyph glyph-name="filter_list" unicode="FILTER_LIST" 
d="M430 240q-13 0 -21.5 8.5t-8.5 21.5t8.5 21.5t21.5 8.5h100q13 0 21.5 -8.5t8.5 -21.5t-8.5 -21.5t-21.5 -8.5h-100zM270 450q-13 0 -21.5 8.5t-8.5 21.5t8.5 21.5t21.5 8.5h420q13 0 21.5 -8.5t8.5 -21.5t-8.5 -21.5t-21.5 -8.5h-420zM150 660q-13 0 -21.5 8.5
t-8.5 21.5t8.5 21.5t21.5 8.5h660q13 0 21.5 -8.5t8.5 -21.5t-8.5 -21.5t-21.5 -8.5h-660z" />
    <glyph glyph-name="flag" unicode="ASSISTANT_PHOTO" 
d="M260 429v-279q0 -13 -8.5 -21.5t-21.5 -8.5t-21.5 8.5t-8.5 21.5v620q0 13 8.5 21.5t21.5 8.5h289q11 0 19 -6.5t10 -17.5l14 -62h208q13 0 21.5 -8.5t8.5 -21.5v-310q0 -13 -8.5 -21.5t-21.5 -8.5h-202q-10 0 -18.5 6t-10.5 17l-14 62h-265zM595 404h145v250h-205
q-10 0 -18.5 6.5t-10.5 17.5l-14 62h-232v-251h292q11 0 19 -6t10 -17zM500 572v0v0v0v0v0v0v0v0v0v0v0v0z" />
    <glyph glyph-name="forward" unicode="FORWARD" 
d="M794 524l-171 172q-9 9 -9 21.5t9 21.5t21 9t21 -9l194 -194q5 -5 7 -10t2 -11t-2 -11t-7 -10l-193 -193q-9 -9 -21.5 -9t-21.5 9t-9.5 21t8.5 21zM584 494h-305q-60 0 -99 -39t-39 -99v-126q0 -13 -8.5 -21.5t-21.5 -8.5t-21.5 8.5t-8.5 21.5v126q0 85 56.5 141.5
t141.5 56.5h305l-141 142q-9 9 -9 21.5t9 21.5t21 9t21 -9l194 -194q5 -5 7 -10t2 -11t-2 -11t-7 -10l-193 -193q-9 -9 -21.5 -9t-21.5 9t-9.5 21t8.5 21z" />
    <glyph glyph-name="gesture" unicode="GESTURE" 
d="M561 120q-52 0 -86 36t-34 93q0 76 66 133.5t162 65.5q-3 55 -23.5 81.5t-61.5 26.5q-42 0 -76 -26t-88 -100q-60 -82 -99.5 -112.5t-86.5 -30.5q-53 0 -83.5 34.5t-30.5 94.5q0 32 23 83t77 140q26 39 37.5 64t11.5 42q0 11 -7.5 17.5t-21.5 6.5q-11 0 -22.5 -5
t-24.5 -16q-11 -9 -25 -9.5t-24 10.5q-11 11 -10 26t12 25q23 20 46 30t47 10q43 0 72 -28t29 -70q0 -30 -14.5 -61t-62.5 -106q-45 -69 -58.5 -100.5t-13.5 -63.5q0 -22 15 -37.5t36 -15.5q14 0 27.5 7t29.5 24q13 14 29.5 34t39.5 50q66 86 115.5 120t109.5 34
q63 0 102.5 -47.5t44.5 -128.5h65q15 0 25 -10.5t10 -25.5t-10 -25t-25 -10h-65q-8 -120 -56 -190t-123 -70zM564 191q43 0 73 52t34 135q-66 -7 -112.5 -47t-46.5 -89q0 -24 13.5 -37.5t38.5 -13.5z" />
    <glyph glyph-name="inbox" unicode="INBOX" 
d="M180 120q-24 0 -42 18t-18 42v600q0 24 18 42t42 18h600q24 0 42 -18t18 -42v-600q0 -24 -18 -42t-42 -18h-600zM180 180h600v0v0v136h-146q-26 -40 -67.5 -61.5t-86.5 -21.5t-86.5 21.5t-67.5 61.5h-146v-136v0v0zM480 293q35 0 64.5 17.5t46.5 48.5q7 10 18.5 13.5
t23.5 3.5h147v404v0v0h-600v0v0v-404h147q12 0 23.5 -3.5t18.5 -13.5q17 -31 46.5 -48.5t64.5 -17.5zM180 180v0v0v0h146h67.5h86.5h86.5h67.5h146v0v0v0h-600z" />
    <glyph glyph-name="link" unicode="INSERT_LINK" 
d="M280 280q-83 0 -141.5 58.5t-58.5 141.5t58.5 141.5t141.5 58.5h140q13 0 21.5 -8.5t8.5 -21.5t-8.5 -21.5t-21.5 -8.5h-140q-58 0 -99 -41t-41 -99t41 -99t99 -41h140q13 0 21.5 -8.5t8.5 -21.5t-8.5 -21.5t-21.5 -8.5h-140zM355 450q-13 0 -21.5 8.5t-8.5 21.5
t8.5 21.5t21.5 8.5h250q13 0 21.5 -8.5t8.5 -21.5t-8.5 -21.5t-21.5 -8.5h-250zM540 280q-13 0 -21.5 8.5t-8.5 21.5t8.5 21.5t21.5 8.5h140q58 0 99 41t41 99t-41 99t-99 41h-140q-13 0 -21.5 8.5t-8.5 21.5t8.5 21.5t21.5 8.5h140q83 0 141.5 -58.5t58.5 -141.5
t-58.5 -141.5t-141.5 -58.5h-140z" />
    <glyph glyph-name="redo" unicode="REDO" 
d="M686 584h-295q-70 0 -120.5 -46.5t-50.5 -115.5t50.5 -115.5t120.5 -46.5h280q13 0 21.5 -8.5t8.5 -21.5t-8.5 -21.5t-21.5 -8.5h-279q-95 0 -163.5 64t-68.5 158t68.5 158t163.5 64h294l-93 93q-9 9 -9 21t9 21t21 9t21 -9l144 -144q5 -5 7 -10t2 -11t-2 -11t-7 -10
l-144 -144q-9 -9 -21 -9t-21 9t-9 21t9 21z" />
    <glyph glyph-name="remove" unicode="REMOVE" 
d="M230 450q-13 0 -21.5 8.5t-8.5 21.5t8.5 21.5t21.5 8.5h500q13 0 21.5 -8.5t8.5 -21.5t-8.5 -21.5t-21.5 -8.5h-500z" />
    <glyph glyph-name="do_not_disturb_on" unicode="DO_NOT_DISTURB_ON" 
d="M310 453h340q13 0 21.5 8.5t8.5 21.5t-8.5 21.5t-21.5 8.5h-340q-13 0 -21.5 -8.5t-8.5 -21.5t8.5 -21.5t21.5 -8.5zM480 80q-82 0 -155 31.5t-127.5 86t-86 127.5t-31.5 156q0 82 31.5 155t86 127t127.5 85.5t156 31.5q82 0 155 -31.5t127 -85.5t85.5 -127t31.5 -156
q0 -82 -31.5 -155t-85.5 -127.5t-127 -86t-156 -31.5zM481 140q141 0 240 99.5t99 241.5q0 141 -99 240t-241 99q-141 0 -240.5 -99t-99.5 -241q0 -141 99.5 -240.5t241.5 -99.5zM480 480v0v0v0v0v0v0v0v0z" />
    <glyph glyph-name="reply" unicode="REPLY" 
d="M236 494l142 -142q9 -9 8.5 -21t-9.5 -21t-21.5 -9t-21.5 9l-193 193q-9 9 -9 21t9 21l194 194q9 9 21.5 9t21.5 -9t9 -21.5t-9 -21.5l-142 -142h406q85 0 141.5 -56.5t56.5 -141.5v-126q0 -13 -8.5 -21.5t-21.5 -8.5t-21.5 8.5t-8.5 21.5v126q0 60 -39 99t-99 39h-406z
" />
    <glyph glyph-name="reply_all" unicode="REPLY_ALL" 
d="M166 524l172 -172q9 -9 8.5 -21t-9.5 -21t-21.5 -9t-21.5 9l-193 193q-5 5 -7 10t-2 11t2 11t7 10l194 194q9 9 21.5 9t21.5 -9t9 -21.5t-9 -21.5zM376 494l142 -142q9 -9 8.5 -21t-9.5 -21t-21.5 -9t-21.5 9l-193 193q-5 5 -7 10t-2 11t2 11t7 10l194 194q9 9 21.5 9
t21.5 -9t9 -21.5t-9 -21.5l-142 -142h305q85 0 141.5 -56.5t56.5 -141.5v-126q0 -13 -8.5 -21.5t-21.5 -8.5t-21.5 8.5t-8.5 21.5v126q0 60 -39 99t-99 39h-305z" />
    <glyph glyph-name="report" unicode="REPORT_GMAILERRORRED" 
d="M480 281q14 0 24.5 10.5t10.5 24.5t-10.5 24.5t-24.5 10.5t-24.5 -10.5t-10.5 -24.5t10.5 -24.5t24.5 -10.5zM480 425q13 0 21.5 8.5t8.5 21.5v203q0 13 -8.5 21.5t-21.5 8.5t-21.5 -8.5t-8.5 -21.5v-203q0 -13 8.5 -21.5t21.5 -8.5zM355 120q-12 0 -23.5 5t-19.5 13
l-174 174q-8 8 -13 19.5t-5 23.5v250q0 12 5 23.5t13 19.5l174 174q8 8 19.5 13t23.5 5h250q12 0 23.5 -5t19.5 -13l174 -174q8 -8 13 -19.5t5 -23.5v-250q0 -12 -5 -23.5t-13 -19.5l-174 -174q-8 -8 -19.5 -13t-23.5 -5h-250zM355 180h250l175 175v250l-175 175h-250
l-175 -175v-250zM480 480v0v0v0v0v0v0v0v0z" />
    <glyph glyph-name="save" unicode="SAVE" 
d="M180 120q-24 0 -42 18t-18 42v600q0 24 18 42t42 18h478q12 0 23.5 -5t19.5 -13l121 -121q8 -8 13 -19.5t5 -23.5v-478q0 -24 -18 -42t-42 -18h-600zM780 656l-124 124h-476v0v0v-600v0v0h600v0v0v476zM480 245q43 0 73.5 30.5t30.5 73.5t-30.5 73.5t-73.5 30.5
t-73.5 -30.5t-30.5 -73.5t30.5 -73.5t73.5 -30.5zM263 584h298q13 0 21.5 8.5t8.5 21.5v83q0 13 -8.5 21.5t-21.5 8.5h-298q-13 0 -21.5 -8.5t-8.5 -21.5v-83q0 -13 8.5 -21.5t21.5 -8.5zM180 656v-476v0v0v0v0v0v600v0v0v0v-124z" />
    <glyph glyph-name="select_all" unicode="SELECT_ALL" 
d="M150 780q-13 0 -21.5 8.5t-8.5 21.5t8.5 21.5t21.5 8.5t21.5 -8.5t8.5 -21.5t-8.5 -21.5t-21.5 -8.5zM315 780q-13 0 -21.5 8.5t-8.5 21.5t8.5 21.5t21.5 8.5t21.5 -8.5t8.5 -21.5t-8.5 -21.5t-21.5 -8.5zM480 780q-13 0 -21.5 8.5t-8.5 21.5t8.5 21.5t21.5 8.5
t21.5 -8.5t8.5 -21.5t-8.5 -21.5t-21.5 -8.5zM645 780q-13 0 -21.5 8.5t-8.5 21.5t8.5 21.5t21.5 8.5t21.5 -8.5t8.5 -21.5t-8.5 -21.5t-21.5 -8.5zM810 780q-13 0 -21.5 8.5t-8.5 21.5t8.5 21.5t21.5 8.5t21.5 -8.5t8.5 -21.5t-8.5 -21.5t-21.5 -8.5zM150 615
q-13 0 -21.5 8.5t-8.5 21.5t8.5 21.5t21.5 8.5t21.5 -8.5t8.5 -21.5t-8.5 -21.5t-21.5 -8.5zM810 615q-13 0 -21.5 8.5t-8.5 21.5t8.5 21.5t21.5 8.5t21.5 -8.5t8.5 -21.5t-8.5 -21.5t-21.5 -8.5zM150 450q-13 0 -21.5 8.5t-8.5 21.5t8.5 21.5t21.5 8.5t21.5 -8.5t8.5 -21.5
t-8.5 -21.5t-21.5 -8.5zM810 450q-13 0 -21.5 8.5t-8.5 21.5t8.5 21.5t21.5 8.5t21.5 -8.5t8.5 -21.5t-8.5 -21.5t-21.5 -8.5zM150 285q-13 0 -21.5 8.5t-8.5 21.5t8.5 21.5t21.5 8.5t21.5 -8.5t8.5 -21.5t-8.5 -21.5t-21.5 -8.5zM810 285q-13 0 -21.5 8.5t-8.5 21.5
t8.5 21.5t21.5 8.5t21.5 -8.5t8.5 -21.5t-8.5 -21.5t-21.5 -8.5zM150 120q-13 0 -21.5 8.5t-8.5 21.5t8.5 21.5t21.5 8.5t21.5 -8.5t8.5 -21.5t-8.5 -21.5t-21.5 -8.5zM315 120q-13 0 -21.5 8.5t-8.5 21.5t8.5 21.5t21.5 8.5t21.5 -8.5t8.5 -21.5t-8.5 -21.5t-21.5 -8.5z
M480 120q-13 0 -21.5 8.5t-8.5 21.5t8.5 21.5t21.5 8.5t21.5 -8.5t8.5 -21.5t-8.5 -21.5t-21.5 -8.5zM645 120q-13 0 -21.5 8.5t-8.5 21.5t8.5 21.5t21.5 8.5t21.5 -8.5t8.5 -21.5t-8.5 -21.5t-21.5 -8.5zM810 120q-13 0 -21.5 8.5t-8.5 21.5t8.5 21.5t21.5 8.5t21.5 -8.5
t8.5 -21.5t-8.5 -21.5t-21.5 -8.5zM345 285q-25 0 -42.5 17.5t-17.5 42.5v270q0 25 17.5 42.5t42.5 17.5h270q25 0 42.5 -17.5t17.5 -42.5v-270q0 -25 -17.5 -42.5t-42.5 -17.5h-270zM345 345h270v0v0v270v0v0h-270v0v0v-270v0v0z" />
    <glyph glyph-name="send" unicode="SEND" 
d="M814 452l-652 -274q-15 -6 -28.5 2.5t-13.5 24.5v550q0 16 13.5 24.5t28.5 2.5l652 -274q18 -8 18 -28t-18 -28zM180 253l544 227l-544 230v-168l242 -62l-242 -60v-167zM180 253v227v230v-168v0v-122v0v-167z" />
    <glyph glyph-name="sort" unicode="SORT" 
d="M150 240q-13 0 -21.5 8.5t-8.5 21.5t8.5 21.5t21.5 8.5h180q13 0 21.5 -8.5t8.5 -21.5t-8.5 -21.5t-21.5 -8.5h-180zM150 450q-13 0 -21.5 8.5t-8.5 21.5t8.5 21.5t21.5 8.5h420q13 0 21.5 -8.5t8.5 -21.5t-8.5 -21.5t-21.5 -8.5h-420zM150 660q-13 0 -21.5 8.5
t-8.5 21.5t8.5 21.5t21.5 8.5h660q13 0 21.5 -8.5t8.5 -21.5t-8.5 -21.5t-21.5 -8.5h-660z" />
    <glyph glyph-name="text_format" unicode="TEXT_FORMAT" 
d="M230 200q-13 0 -21.5 8.5t-8.5 21.5t8.5 21.5t21.5 8.5h500q13 0 21.5 -8.5t8.5 -21.5t-8.5 -21.5t-21.5 -8.5h-500zM290 395l154 388q3 8 10 12.5t15 4.5h22q8 0 15 -4.5t10 -12.5l154 -389q5 -13 -2 -23.5t-21 -10.5q-8 0 -14.5 4.5t-9.5 12.5l-39 102h-208l-39 -103
q-3 -8 -9 -12t-14 -4v0q-14 0 -21.5 11t-2.5 24zM393 524h174l-85 222h-4z" />
    <glyph glyph-name="undo" unicode="UNDO" 
d="M289 200q-13 0 -21.5 8.5t-8.5 21.5t8.5 21.5t21.5 8.5h280q70 0 120.5 46.5t50.5 115.5t-50.5 115.5t-120.5 46.5h-295l93 -93q9 -9 9 -21t-9 -21t-21 -9t-21 9l-144 144q-5 5 -7 10t-2 11t2 11t7 10l144 144q9 9 21 9t21 -9t9 -21t-9 -21l-93 -93h294q95 0 163.5 -64
t68.5 -158t-68.5 -158t-163.5 -64h-279z" />
    <glyph glyph-name="font_download" unicode="FONT_DOWNLOAD" 
d="M376 364h209l38 -104q3 -9 10.5 -14.5t17.5 -5.5q17 0 26 13.5t3 28.5l-161 419q-3 9 -10.5 14t-17.5 5h-23q-10 0 -17.5 -5.5t-10.5 -14.5l-160 -418q-6 -15 3 -28.5t26 -13.5q10 0 18 6t12 15zM397 419l82 230h2l82 -230h-166zM140 80q-24 0 -42 18t-18 42v680
q0 24 18 42t42 18h680q24 0 42 -18t18 -42v-680q0 -24 -18 -42t-42 -18h-680zM141 140h680v0v0v680v0v0h-680v0v0v-680v0v0zM141 820v0v0v0v-680v0v0v0v0v0v680v0v0z" />
    <glyph glyph-name="move_to_inbox" unicode="MOVE_TO_INBOX" 
d="M450 538v159q0 13 8.5 21.5t21.5 8.5t21.5 -8.5t8.5 -21.5v-159l59 59q5 5 10.5 7t11 2t11.5 -2t10 -7q9 -9 9 -21.5t-9 -21.5l-111 -111q-5 -5 -10 -7t-11 -2t-11 2t-10 7l-111 111q-4 5 -6.5 10.5t-2 11t3 11.5t6.5 10q9 9 21.5 9t21.5 -9zM180 120q-24 0 -42 18
t-18 42v600q0 24 18 42t42 18h600q24 0 42 -18t18 -42v-600q0 -24 -18 -42t-42 -18h-600zM180 180h600v0v0v136h-146q-26 -40 -67.5 -61.5t-86.5 -21.5t-86.5 21.5t-67.5 61.5h-146v-136v0v0zM480 293q35 0 64.5 17.5t46.5 48.5q7 10 18.5 13.5t23.5 3.5h147v404v0v0h-600v0
v0v-404h147q12 0 23.5 -3.5t18.5 -13.5q17 -31 46.5 -48.5t64.5 -17.5zM180 180v0v0v0h146h67.5h86.5h86.5h67.5h146v0v0v0h-600z" />
    <glyph glyph-name="unarchive" unicode="UNARCHIVE" 
d="M480 279q13 0 21.5 8.5t8.5 21.5v171l66 -66q8 -8 20 -8t20 8t8 20t-8 20l-115 115q-9 9 -21 9t-21 -9l-115 -115q-8 -8 -8 -20t8 -20t20 -8t20 8l66 66v-171q0 -13 8.5 -21.5t21.5 -8.5zM180 674v-494v0v0h600v0v0v494h-600zM180 120q-25 0 -42.5 17.5t-17.5 42.5v529
q0 10 3 19t9 17l52 71q8 11 21 17.5t27 6.5h495q14 0 27 -6.5t21 -17.5l53 -71q6 -8 9 -17t3 -19v-529q0 -25 -17.5 -42.5t-42.5 -17.5h-600zM197 734h565l-36 46v0v0h-493v0v0zM480 427v0v0v0v0v0v0v0v0z" />
    <glyph glyph-name="next_week" unicode="NEXT_WEEK" 
d="M140 120q-24 0 -42 18t-18 42v480q0 24 18 42t42 18h180v100q0 24 18 42t42 18h200q24 0 42 -18t18 -42v-100h180q24 0 42 -18t18 -42v-480q0 -24 -18 -42t-42 -18h-680zM140 180h680v0v0v480v0v0h-680v0v0v-480v0v0zM380 720h200v100v0v0h-200v0v0v-100zM140 180v0v0
v480v0v0v0v0v0v-480v0v0v0zM516 420l-104 -104q-6 -6 -6 -14t6 -14t14 -6t14 6l111 111q9 9 9 21t-9 21l-112 112q-6 6 -14 6t-14 -6t-6 -14t6 -14z" />
    <glyph glyph-name="weekend" unicode="WEEKEND" 
d="M152 692q0 45 31.5 76.5t76.5 31.5h440q45 0 76.5 -31.5t31.5 -76.5v-83v0q48 5 80 -21t32 -75v-245q0 -45 -31.5 -76.5t-76.5 -31.5h-664q-45 0 -76.5 31.5t-31.5 76.5v245q0 49 32.5 75t79.5 21v0v83zM212 692v-112q14 -14 22 -27.5t8 -39.5v-124h476v124q0 26 8 39.5
t22 27.5v112q0 21 -13.5 34.5t-34.5 13.5h-440q-21 0 -34.5 -13.5t-13.5 -34.5zM778 329h-596v184q0 10 -2.5 17.5t-8 13t-13 8t-17.5 2.5q-20 0 -30.5 -10.5t-10.5 -30.5v-245q0 -21 13.5 -34.5t34.5 -13.5h664q21 0 34.5 13.5t13.5 34.5v245q0 20 -10.5 30.5t-30.5 10.5
q-10 0 -17.5 -2.5t-12.5 -8t-8 -13t-3 -17.5v-184zM480 329v0v0v0v0v0v0v0v0v0v0v0v0v0v0v0v0v0v0zM480 220v0v0v0v0v0v0v0v0v0v0v0v0v0v0v0v0v0v0v0v0v0v0zM480 389v0v0v0v0v0v0v0v0v0v0v0v0v0v0z" />
    <glyph glyph-name="delete_sweep" unicode="DELETE_SWEEP" 
d="M185 200q-24 0 -42 18t-18 42v415v0q-13 0 -21.5 8.5t-8.5 21.5t8.5 21.5t21.5 8.5h125v15q0 13 8.5 21.5t21.5 8.5h75q13 0 21.5 -8.5t8.5 -21.5v-15h125q13 0 21.5 -8.5t8.5 -21.5t-8.5 -21.5t-21.5 -8.5v0v-415q0 -24 -18 -42t-42 -18h-265zM630 230q-13 0 -21.5 8.5
t-8.5 21.5t8.5 21.5t21.5 8.5h85q13 0 21.5 -8.5t8.5 -21.5t-8.5 -21.5t-21.5 -8.5h-85zM630 414q-13 0 -21.5 8.5t-8.5 21.5t8.5 21.5t21.5 8.5h175q13 0 21.5 -8.5t8.5 -21.5t-8.5 -21.5t-21.5 -8.5h-175zM630 598q-13 0 -21.5 8.5t-8.5 21.5t8.5 21.5t21.5 8.5h220
q13 0 21.5 -8.5t8.5 -21.5t-8.5 -21.5t-21.5 -8.5h-220zM185 675v-415v0v0h265v0v0v415h-265z" />
    <glyph glyph-name="low_priority" unicode="LOW_PRIORITY" 
d="M140 494q0 -88 62.5 -146.5t149.5 -58.5v0l-46 47q-8 9 -8 21t9 21t21 9t21 -9l94 -97q8 -9 8.5 -21t-8.5 -21l-97 -98q-9 -9 -21 -9t-21 9q-8 8 -8.5 20.5t7.5 21.5l44 46v0q-110 0 -188.5 76.5t-78.5 188.5q0 109 74.5 187.5t181.5 78.5h122q13 0 21.5 -8.5t8.5 -21.5
t-8.5 -21.5t-21.5 -8.5h-122q-82 0 -139 -60.5t-57 -145.5zM602 289h248q13 0 21.5 -8.5t8.5 -21.5t-8.5 -21.5t-21.5 -8.5h-248q-13 0 -21.5 8.5t-8.5 21.5t8.5 21.5t21.5 8.5zM603 525h247q13 0 21.5 -8.5t8.5 -21.5t-8.5 -22t-21.5 -9h-248q-13 0 -21.5 9t-8.5 22t9 21.5
t22 8.5zM578 760h272q13 0 21.5 -8.5t8.5 -21.5t-8.5 -21.5t-21.5 -8.5h-272q-13 0 -21.5 8.5t-8.5 21.5t8.5 21.5t21.5 8.5z" />
    <glyph glyph-name="link_off" unicode="LINK_OFF" 
d="M750 291l-49 49q51 10 85 48t34 89q0 58 -41 99t-99 41h-125q-13 0 -21.5 8.5t-8.5 21.5t8.5 21.5t21.5 8.5h125q83 0 141.5 -58.5t58.5 -141.5q0 -62 -36 -112t-94 -74zM594 447l-60 60h71q13 0 21.5 -8.5t8.5 -21.5t-8.5 -21.5t-21.5 -8.5h-11zM836 78q-9 -9 -21.5 -9
t-21.5 9l-709 708q-9 9 -9 21.5t9 21.5t21.5 9t21.5 -9l709 -709q9 -9 9 -21t-9 -21zM280 280q-83 0 -141.5 58.5t-58.5 141.5q0 72 44.5 127t113.5 69v0l56 -56h-14q-58 0 -99 -41t-41 -99t41 -99t99 -41h140q13 0 21.5 -8.5t8.5 -21.5t-8.5 -21.5t-21.5 -8.5h-140z
M355 450q-13 0 -21.5 8.5t-8.5 21.5t8.5 21.5t21.5 8.5h49l60 -60h-109z" />
    <glyph glyph-name="report_off" unicode="REPORT_OFF" 
d="M771 261l-43 43l52 51v250l-175 175h-250l-52 -51l-42 42l51 51q8 8 19.5 13t23.5 5h250q12 0 23.5 -5t19.5 -13l174 -174q8 -8 13 -19.5t5 -23.5v-250q0 -12 -5 -23.5t-13 -19.5zM510 522v136q0 13 -8.5 21.5t-21.5 8.5t-21.5 -8.5t-8.5 -21.5v-76zM355 120
q-12 0 -23.5 5t-19.5 13l-174 174q-8 8 -13 19.5t-5 23.5v250q0 12 5 23.5t13 19.5l39 38l-127 127q-9 9 -9 21t9 21t21 9t21 -9l763 -763q9 -9 9 -21t-9 -21t-21 -9t-21 9l-126 126l-39 -39q-8 -8 -19.5 -12.5t-23.5 -4.5h-250zM516 516v0v0v0v0v0v0zM355 180h250l39 38
l-426 426l-38 -39v-250zM480 281q-14 0 -24.5 10.5t-10.5 24.5t10.5 24.5t24.5 10.5t24.5 -10.5t10.5 -24.5t-10.5 -24.5t-24.5 -10.5zM431 431v0v0v0v0v0v0z" />
    <glyph glyph-name="download" unicode="DOWNLOAD" 
d="M480 325q-6 0 -11 2t-10 7l-151 151q-9 9 -8.5 21.5t9.5 21.5t21.5 9t21.5 -9l98 -99v341q0 13 8.5 21.5t21.5 8.5t21.5 -8.5t8.5 -21.5v-341l99 99q9 9 21 8.5t21 -9.5t9 -21.5t-9 -21.5l-150 -150q-5 -5 -10 -7t-11 -2zM220 160q-24 0 -42 18t-18 42v113q0 13 8.5 21.5
t21.5 8.5t21.5 -8.5t8.5 -21.5v-113v0v0h520v0v0v113q0 13 8.5 21.5t21.5 8.5t21.5 -8.5t8.5 -21.5v-113q0 -24 -18 -42t-42 -18h-520z" />
    <glyph glyph-name="ballot" unicode="BALLOT" 
d="M651 565q13 0 21.5 8.5t8.5 21.5t-8.5 21.5t-21.5 8.5h-168q-13 0 -21.5 -8.5t-8.5 -21.5t8.5 -21.5t21.5 -8.5h168zM651 335q13 0 21.5 8.5t8.5 21.5t-8.5 21.5t-21.5 8.5h-168q-13 0 -21.5 -8.5t-8.5 -21.5t8.5 -21.5t21.5 -8.5h168zM348 543q21 0 36.5 15.5t15.5 36.5
t-15.5 36.5t-36.5 15.5t-36.5 -15.5t-15.5 -36.5t15.5 -36.5t36.5 -15.5zM348 313q21 0 36.5 15.5t15.5 36.5t-15.5 36.5t-36.5 15.5t-36.5 -15.5t-15.5 -36.5t15.5 -36.5t36.5 -15.5zM180 120q-24 0 -42 18t-18 42v600q0 24 18 42t42 18h600q24 0 42 -18t18 -42v-600
q0 -24 -18 -42t-42 -18h-600zM180 180h600v0v0v600v0v0h-600v0v0v-600v0v0zM180 780v0v0v0v-600v0v0v0v0v0v600v0v0z" />
    <glyph glyph-name="file_copy" unicode="FILE_COPY" 
d="M780 160h-520q-24 0 -42 18t-18 42v640q0 24 18 42t42 18h323q12 0 23.5 -5t19.5 -13l196 -196q8 -8 13 -19.5t5 -23.5v-443q0 -24 -18 -42t-42 -18zM780 662h-157q-19 0 -32 13t-13 32v153h-318v0v0v-640v0v0h520v0v0v442zM140 40q-24 0 -42 18t-18 42v589
q0 13 8.5 21.5t21.5 8.5t21.5 -8.5t8.5 -21.5v-589v0v0h468q13 0 21.5 -8.5t8.5 -21.5t-8.5 -21.5t-21.5 -8.5h-468zM260 860v0v-198v0v0v0v198v-198v0v0v0v-442v0v0v0v0v0v640v0v0z" />
    <glyph glyph-name="how_to_reg" unicode="HOW_TO_REG" 
d="M519 160h-379q-25 0 -42.5 17.5t-17.5 42.5v34q0 34 17 62.5t51 43.5q72 32 132 46t120 14q29 0 61.5 -3.5t66.5 -12.5l-49 -49q-20 2 -39.5 3.5t-39.5 1.5q-58 0 -105.5 -10.5t-122.5 -43.5q-17 -8 -24.5 -23t-7.5 -29v-34h319zM625 228l192 192q9 9 21 9t21 -9t9 -21
t-9 -21l-213 -213q-9 -9 -21 -9t-21 9l-99 99q-9 9 -9 21t9 21t21 9t21 -9zM400 482q-66 0 -108 42t-42 108t42 108t108 42t108 -42t42 -108t-42 -108t-108 -42zM445 234v0v0v0v0v0v0v0v0v0v0v0v0zM400 542q39 0 64.5 25.5t25.5 64.5t-25.5 64.5t-64.5 25.5t-64.5 -25.5
t-25.5 -64.5t25.5 -64.5t64.5 -25.5zM400 632v0v0v0v0v0v0v0v0z" />
    <glyph glyph-name="how_to_vote" unicode="HOW_TO_VOTE" 
d="M180 80q-24 0 -42 18t-18 42v198l135 149l43 -43l-118 -129h600l-111 126l43 43l128 -146v-198q0 -24 -18 -42t-42 -18h-600zM180 140h600v0v0v115h-600v-115v0v0zM442 385l-159 159q-19 19 -17 42.5t20 41.5l212 212q17 17 42 17.5t43 -17.5l159 -159q17 -17 17.5 -40.5
t-19.5 -43.5l-212 -212q-17 -17 -42 -18t-44 18zM691 642v0v0l-150 150v0v0l-208 -208v0v0l150 -150v0v0zM180 140v0v0v115v0v-115v0v0v0z" />
    <glyph glyph-name="waves" unicode="WAVES" 
d="M275 226q-53 0 -83.5 -31t-81.5 -44q-12 -3 -21 4.5t-9 20.5t8.5 23t21.5 15q39 16 70.5 44t94.5 28q37 0 63 -12.5t47.5 -27.5t43.5 -27.5t51 -12.5t51 12.5t43.5 27.5t47.5 27.5t63 12.5q63 0 93.5 -28t70.5 -44q13 -5 22 -14.5t9 -23.5q0 -13 -9.5 -20.5t-21.5 -4.5
q-51 13 -81 44t-83 31q-30 0 -52.5 -12.5t-44 -27.5t-47 -27.5t-61.5 -12.5t-61.5 12.5t-47 27.5t-44 27.5t-52.5 12.5zM275 402q-53 0 -83.5 -31t-81.5 -44q-12 -3 -21 4.5t-9 20.5t8.5 23t21.5 15q39 16 70.5 44t94.5 28q37 0 63 -12.5t47.5 -27.5t43.5 -27.5t51 -12.5
t51 12.5t43.5 27.5t47.5 27.5t63 12.5q63 0 93.5 -28t70.5 -44q13 -5 22 -14.5t9 -23.5q0 -12 -10 -19.5t-21 -4.5q-51 15 -81 44.5t-83 29.5q-30 0 -52 -12.5t-44 -27.5t-47.5 -27.5t-61.5 -12.5t-61.5 12.5t-47 27.5t-44 27.5t-52.5 12.5zM275 578q-53 0 -83.5 -31
t-81.5 -44q-12 -3 -21 4.5t-9 20.5t9 22t21 14q39 14 70.5 44t94.5 30q37 0 63 -12.5t47.5 -27.5t43.5 -27.5t51 -12.5t51 12.5t43.5 27.5t47.5 27.5t63 12.5q63 0 93.5 -30t70.5 -44q13 -5 22 -14t9 -22t-9.5 -20.5t-21.5 -4.5q-51 13 -81 44t-83 31q-30 0 -52.5 -12.5
t-44 -27.5t-47 -27.5t-61.5 -12.5t-61.5 12.5t-47 27.5t-44 27.5t-52.5 12.5zM275 754q-53 0 -83.5 -31t-81.5 -44q-12 -3 -21 4.5t-9 20.5t8.5 23t21.5 15q39 16 70.5 44t94.5 28q37 0 63 -12.5t47.5 -27.5t43.5 -27.5t51 -12.5t51 12.5t43.5 27.5t47.5 27.5t63 12.5
q63 0 93.5 -28t70.5 -44q13 -5 22 -14.5t9 -23.5q0 -13 -9.5 -20.5t-21.5 -4.5q-51 13 -81 44t-83 31q-30 0 -52.5 -12.5t-44 -27.5t-47 -27.5t-61.5 -12.5t-61.5 12.5t-47 27.5t-44 27.5t-52.5 12.5z" />
    <glyph glyph-name="where_to_vote" unicode="WHERE_TO_VOTE" 
d="M438 527l-44 44q-9 9 -21.5 8.5t-21.5 -9.5t-9 -21.5t9 -21.5l66 -65q9 -9 21 -9t21 9l150 150q9 9 9 21.5t-9 21.5t-21.5 9t-21.5 -9zM480 159q133 121 196.5 219.5t63.5 173.5q0 118 -75.5 193t-184.5 75t-184.5 -75t-75.5 -193q0 -75 65 -173.5t195 -219.5zM480 100
q-11 0 -21.5 3.5t-18.5 11.5q-42 38 -91 87.5t-91 106.5t-70 119t-28 124q0 150 96.5 239t223.5 89t223.5 -89t96.5 -239q0 -62 -28 -124t-70 -119t-91 -106.5t-91 -87.5q-8 -8 -18.5 -11.5t-21.5 -3.5zM480 560v0v0v0v0v0v0v0v0z" />
    <glyph glyph-name="add_link" unicode="ADD_LINK" 
d="M700 280h-91q-12 0 -20.5 8.5t-8.5 21.5q0 12 8.5 21t21.5 9h90v90q0 13 8.5 21.5t21.5 8.5t21.5 -8.5t8.5 -21.5v-90h90q13 0 21.5 -8.5t8.5 -21.5t-8.5 -21.5t-21.5 -8.5h-90v-90q0 -13 -8.5 -21.5t-21.5 -8.5t-21.5 8.5t-8.5 21.5v90zM420 280h-140q-83 0 -141.5 58.5
t-58.5 141.5t58.5 141.5t141.5 58.5h140q12 0 21 -9t9 -21q0 -13 -9 -21.5t-21 -8.5h-140q-58 0 -99 -41t-41 -99t41 -99t99 -41h140q12 0 21 -9t9 -21q0 -13 -9 -21.5t-21 -8.5zM355 450q-13 0 -21.5 8.5t-8.5 21.5t8.5 21.5t21.5 8.5h250q13 0 21.5 -8.5t8.5 -21.5
t-8.5 -21.5t-21.5 -8.5h-250zM880 480h-60q0 58 -41 99t-99 41h-141q-12 0 -20.5 8.5t-8.5 21.5q0 12 8.5 21t21.5 9h140q83 0 141.5 -58.5t58.5 -141.5z" />
    <glyph glyph-name="inventory" unicode="INVENTORY" 
d="M620 245l218 218q9 9 21 8.5t21 -9.5t9 -21.5t-9 -21.5l-239 -239q-9 -9 -21 -9t-21 9l-118 118q-9 9 -8.5 21.5t9.5 21.5t21.5 9t21.5 -9zM180 120q-26 0 -43 17t-17 43v600q0 26 17 43t43 17h202q7 35 34.5 57.5t63.5 22.5t63.5 -22.5t34.5 -57.5h202q26 0 43 -17
t17 -43v-177q0 -13 -8.5 -21.5t-21.5 -8.5t-21.5 8.5t-8.5 21.5v177v0v0h-60v-60q0 -13 -8.5 -21.5t-21.5 -8.5h-420q-13 0 -21.5 8.5t-8.5 21.5v60h-60v0v0v-600v0v0h221q13 0 21.5 -8.5t8.5 -21.5t-8.5 -21.5t-21.5 -8.5h-221zM480 780q17 0 28.5 11.5t11.5 28.5
t-11.5 28.5t-28.5 11.5t-28.5 -11.5t-11.5 -28.5t11.5 -28.5t28.5 -11.5z" />
    <glyph glyph-name="mist" unicode="MIST" 
d="M160 210q-13 0 -21.5 8.5t-8.5 21.5t8.5 21.5t21.5 8.5h400q13 0 21.5 -8.5t8.5 -21.5t-8.5 -21.5t-21.5 -8.5h-400zM720 210q-13 0 -21.5 8.5t-8.5 21.5t8.5 21.5t21.5 8.5h80q13 0 21.5 -8.5t8.5 -21.5t-8.5 -21.5t-21.5 -8.5h-80zM160 370q-13 0 -21.5 8.5t-8.5 21.5
t8.5 21.5t21.5 8.5h80q13 0 21.5 -8.5t8.5 -21.5t-8.5 -21.5t-21.5 -8.5h-80zM400 370q-13 0 -21.5 8.5t-8.5 21.5t8.5 21.5t21.5 8.5h400q13 0 21.5 -8.5t8.5 -21.5t-8.5 -21.5t-21.5 -8.5h-400zM160 530q-13 0 -21.5 8.5t-8.5 21.5t8.5 21.5t21.5 8.5h440q13 0 21.5 -8.5
t8.5 -21.5t-8.5 -21.5t-21.5 -8.5h-440zM760 530q-13 0 -21.5 8.5t-8.5 21.5t8.5 21.5t21.5 8.5h40q13 0 21.5 -8.5t8.5 -21.5t-8.5 -21.5t-21.5 -8.5h-40zM160 690q-13 0 -21.5 8.5t-8.5 21.5t8.5 21.5t21.5 8.5h200q13 0 21.5 -8.5t8.5 -21.5t-8.5 -21.5t-21.5 -8.5h-200z
M520 690q-13 0 -21.5 8.5t-8.5 21.5t8.5 21.5t21.5 8.5h280q13 0 21.5 -8.5t8.5 -21.5t-8.5 -21.5t-21.5 -8.5h-280z" />
    <glyph glyph-name="alarm" unicode="ACCESS_ALARMS" 
d="M512 450v160q0 13 -8.5 21.5t-21.5 8.5t-21.5 -8.5t-8.5 -21.5v-172q0 -6 2 -11t7 -10l118 -118q9 -9 21 -9t21 9t9 21t-9 21zM479 82q-74 0 -139.5 28t-114 76.5t-77 114t-28.5 140.5q0 74 28.5 139.5t77 114.5t114 77t139.5 28t139.5 -28t114.5 -77t77 -114.5
t28 -139.5q0 -75 -28 -140.5t-77 -114t-114.5 -76.5t-139.5 -28zM479 439v0v0v0v0v0v0v0v0zM71 688q-9 9 -8.5 21t9.5 21l121 117q9 8 21.5 7.5t20.5 -8.5q9 -9 8.5 -21t-9.5 -21l-121 -117q-9 -8 -21.5 -7.5t-20.5 8.5zM887 688q-8 -8 -20.5 -8.5t-21.5 7.5l-121 117
q-9 8 -9.5 20.5t8.5 21.5q8 8 20.5 8.5t21.5 -7.5l121 -117q9 -8 9.5 -20.5t-8.5 -21.5zM479 142q125 0 212 87t87 212t-87 212t-212 87t-212 -87t-87 -212t87 -212t212 -87z" />
    <glyph glyph-name="schedule" unicode="ACCESS_TIME_FILLED" 
d="M513 492v171q0 13 -8.5 21.5t-21.5 8.5t-21.5 -8.5t-8.5 -21.5v-183q0 -6 2 -11t6 -10l144 -149q9 -10 22.5 -9.5t22.5 9.5t9 22t-9 22zM480 80q-82 0 -155 31.5t-127.5 86t-86 127.5t-31.5 155t31.5 155t86 127.5t127.5 86t155 31.5t155 -31.5t127.5 -86t86 -127.5
t31.5 -155t-31.5 -155t-86 -127.5t-127.5 -86t-155 -31.5zM480 480v0v0v0v0v0v0v0v0zM480 140q140 0 240 100t100 240t-100 240t-240 100t-240 -100t-100 -240t100 -240t240 -100z" />
    <glyph glyph-name="alarm_add" unicode="ALARM_ADD" 
d="M449 411v-97q0 -13 8.5 -21.5t21.5 -8.5t21.5 8.5t8.5 21.5v97h96q13 0 21.5 9t8.5 22t-8.5 21.5t-21.5 8.5h-96v96q0 13 -8.5 21.5t-21.5 8.5t-21.5 -8.5t-8.5 -21.5v-96h-96q-13 0 -21.5 -8.5t-8.5 -21.5t9 -22t22 -9h95zM479 82q-74 0 -139.5 28t-114 76.5t-77 114
t-28.5 140.5q0 74 28.5 139.5t77 114.5t114 77t139.5 28t139.5 -28t114.5 -77t77 -114.5t28 -139.5q0 -75 -28 -140.5t-77 -114t-114.5 -76.5t-139.5 -28zM479 439v0v0v0v0v0v0v0v0zM71 688q-9 9 -8.5 21t9.5 21l121 117q9 8 21.5 7.5t20.5 -8.5q9 -9 8.5 -21t-9.5 -21
l-121 -117q-9 -8 -21.5 -7.5t-20.5 8.5zM887 688q-8 -8 -20.5 -8.5t-21.5 7.5l-121 117q-9 8 -9.5 20.5t8.5 21.5q8 8 20.5 8.5t21.5 -7.5l121 -117q9 -8 9.5 -20.5t-8.5 -21.5zM479 142q125 0 212 87t87 212t-87 212t-212 87t-212 -87t-87 -212t87 -212t212 -87z" />
    <glyph glyph-name="airplanemode_inactive" unicode="AIRPLANEMODE_INACTIVE" 
d="M480 117l-109 -31q-8 -2 -14.5 3t-6.5 13v12q0 4 2 7.5t5 5.5l73 55v251l-318 -94q-12 -4 -22 3.5t-10 20.5v11q0 7 3 12.5t9 8.5l236 139l-251 251q-9 9 -9 21t9 21t21 9t21 -9l708 -709q9 -9 9 -21.5t-9 -20.5q-8 -8 -21 -7.5t-21 8.5l-255 255v-150l72 -54q4 -3 6 -7
t2 -9v-5q0 -10 -8 -16.5t-18 -3.5zM480 880q21 0 35.5 -14.5t14.5 -35.5v-236l336 -198q6 -4 10 -10t4 -14v-5q0 -14 -11 -22.5t-25 -4.5l-219 65l-195 195v230q0 21 14.5 35.5t35.5 14.5z" />
    <glyph glyph-name="airplanemode_active" unicode="AIRPLANEMODE_ACTIVE" 
d="M350 80v42l80 60v251l-350 -103v58l350 206v236q0 21 14.5 35.5t35.5 14.5t35.5 -14.5t14.5 -35.5v-236l350 -206v-58l-350 103v-251l80 -60v-42l-130 37z" />
    <glyph glyph-name="tornado" unicode="TORNADO" 
d="M144 840h672q35 0 52 -30t0 -60l-336 -580q-17 -30 -52 -30t-52 30l-336 580q-17 30 0 60t52 30zM144 780l87 -150h498l87 150v0v0h-672v0v0zM266 570l81 -140h266l81 140h-428zM382 370l98 -170v0v0l98 170h-196z" />
    <glyph glyph-name="battery_alert" unicode="BATTERY_ALERT" 
d="M310 80q-13 0 -21.5 8.5t-8.5 21.5v676q0 13 8.5 21.5t21.5 8.5h90v34q0 13 8.5 21.5t21.5 8.5h100q13 0 21.5 -8.5t8.5 -21.5v-34h90q13 0 21.5 -8.5t8.5 -21.5v-676q0 -13 -8.5 -21.5t-21.5 -8.5h-340zM340 140h280v616h-280v-616zM340 140v0h280v0h-280zM480 403
q13 0 21.5 8.5t8.5 21.5v180q0 13 -8.5 21.5t-21.5 8.5t-21.5 -8.5t-8.5 -21.5v-180q0 -13 8.5 -21.5t21.5 -8.5zM481 253q12 0 20.5 9t8.5 22q0 12 -8.5 20.5t-21.5 8.5q-12 0 -21 -8.5t-9 -21.5q0 -12 9 -21t22 -9z" />
    <glyph glyph-name="shop_two" unicode="SHOP_TWO" 
d="M100 80q-24 0 -42 18t-18 42v429q0 13 8.5 21.5t21.5 8.5t21.5 -8.5t8.5 -21.5v-429v0v0h579q13 0 21.5 -8.5t8.5 -21.5t-8.5 -21.5t-21.5 -8.5h-579zM220 200q-24 0 -42 18t-18 42v488q0 13 8.5 21.5t21.5 8.5h212v82q0 24 18 42t42 18h156q24 0 42 -18t18 -42v-82h212
q13 0 21.5 -8.5t8.5 -21.5v-488q0 -24 -18 -42t-42 -18h-640zM220 260h640v0v0v458h-640v-458v0v0zM462 778h156v82v0v0h-156v0v0v-82zM220 260v0v0v458v0v-458v0v0v0zM450 384q0 -9 7.5 -13.5t15.5 0.5l157 101q7 5 7 13t-7 13l-157 101q-8 5 -15.5 0.5t-7.5 -13.5v-202z
" />
    <glyph glyph-name="priority" unicode="PRIORITY" 
d="M351 120q-97 0 -164 67t-67 164v258q0 97 67 164t164 67h258q97 0 164 -67t67 -164v-258q0 -97 -67 -164t-164 -67h-258zM439 325l240 240l-43 43l-197 -197l-97 97l-43 -43zM351 180h258q71 0 121 50t50 121v258q0 71 -50 121t-121 50h-258q-71 0 -121 -50t-50 -121
v-258q0 -71 50 -121t121 -50zM480 480v0v0v0v0v0v0v0v0v0v0v0v0z" />
    <glyph glyph-name="workspaces" unicode="WORKSPACES_OUTLINE" 
d="M230 120q-63 0 -106.5 43.5t-43.5 106.5t43.5 106.5t106.5 43.5t106.5 -43.5t43.5 -106.5t-43.5 -106.5t-106.5 -43.5zM731 120q-63 0 -106.5 43.5t-43.5 106.5t43.5 106.5t106.5 43.5t106.5 -43.5t43.5 -106.5t-43.5 -106.5t-106.5 -43.5zM230 180q37 0 63.5 26.5
t26.5 63.5t-26.5 63.5t-63.5 26.5t-63.5 -26.5t-26.5 -63.5t26.5 -63.5t63.5 -26.5zM731 180q37 0 63.5 26.5t26.5 63.5t-26.5 63.5t-63.5 26.5t-63.5 -26.5t-26.5 -63.5t26.5 -63.5t63.5 -26.5zM481 541q-63 0 -106.5 43.5t-43.5 106.5t43.5 106.5t106.5 43.5t106.5 -43.5
t43.5 -106.5t-43.5 -106.5t-106.5 -43.5zM481 601q37 0 63.5 26.5t26.5 63.5t-26.5 63.5t-63.5 26.5t-63.5 -26.5t-26.5 -63.5t26.5 -63.5t63.5 -26.5zM481 691v0v0v0v0v0v0v0v0zM731 270v0v0v0v0v0v0v0v0zM230 270v0v0v0v0v0v0v0v0z" />
    <glyph glyph-name="inventory_2" unicode="INVENTORY_&#x32;" 
d="M180 80q-25 0 -42.5 17.5t-17.5 42.5v483q-17 6 -28.5 21.5t-11.5 35.5v140q0 25 17.5 42.5t42.5 17.5h680q25 0 42.5 -17.5t17.5 -42.5v-140q0 -20 -11.5 -35.5t-28.5 -21.5v-483q0 -25 -17.5 -42.5t-42.5 -17.5h-600zM180 620v-480v0v0h600v0v0v480h-600zM140 680h680
v0v0v140v0v0h-680v0v0v-140v0v0zM390 420h180q13 0 21.5 8.5t8.5 21.5t-8.5 21.5t-21.5 8.5h-180q-13 0 -21.5 -8.5t-8.5 -21.5t8.5 -21.5t21.5 -8.5zM480 380v0v0v0v0v0v0v0v0z" />
    <glyph glyph-name="battery_charging_full" unicode="BATTERY_CHARGING_FULL" 
d="M660 200h-53q-9 0 -13.5 7.5t0.5 15.5l92 147q3 5 8.5 3.5t5.5 -7.5v-86h53q9 0 13.5 -7.5t-0.5 -15.5l-92 -148q-3 -5 -8.5 -3.5t-5.5 7.5v87zM340 140v0v0v0v0v0v0v0v0zM310 80q-13 0 -21.5 8.5t-8.5 21.5v676q0 13 8.5 21.5t21.5 8.5h90v34q0 13 8.5 21.5t21.5 8.5
h100q13 0 21.5 -8.5t8.5 -21.5v-34h90q13 0 21.5 -8.5t8.5 -21.5v-333q-16 0 -31 -2t-29 -7v312h-280v-616h152q9 -17 21 -32t26 -28h-229z" />
    <glyph glyph-name="battery_full" unicode="BATTERY_FULL" 
d="M310 80q-13 0 -21.5 8.5t-8.5 21.5v676q0 13 8.5 21.5t21.5 8.5h90v34q0 13 8.5 21.5t21.5 8.5h100q13 0 21.5 -8.5t8.5 -21.5v-34h90q13 0 21.5 -8.5t8.5 -21.5v-676q0 -13 -8.5 -21.5t-21.5 -8.5h-340z" />
    <glyph glyph-name="battery_unknown" unicode="BATTERY_UNKNOWN" 
d="M680 354q-12 0 -21.5 -5.5t-16.5 -14.5q-5 -8 -14.5 -11t-17.5 1q-9 4 -13 13t1 17q13 21 34.5 33.5t47.5 12.5q37 0 64.5 -24t27.5 -60q0 -11 -3 -20.5t-9 -17.5q-11 -16 -26 -28.5t-24 -29.5q0 -1 -5 -14q-2 -10 -8.5 -17t-16.5 -7q-11 0 -18 7.5t-6 17.5q1 8 2.5 14.5
t5.5 13.5q10 17 25.5 29t26.5 28q3 4 7 23q0 17 -13 28t-30 11zM680 80q-14 0 -24 9.5t-10 23.5t10 24t24 10t23.5 -10t9.5 -24t-9.5 -23.5t-23.5 -9.5zM340 140v0v0v0v0v0v0v0v0zM310 80q-13 0 -21.5 8.5t-8.5 21.5v676q0 13 8.5 21.5t21.5 8.5h90v34q0 13 8.5 21.5
t21.5 8.5h100q13 0 21.5 -8.5t8.5 -21.5v-34h90q13 0 21.5 -8.5t8.5 -21.5v-333q-16 0 -31 -2t-29 -7v312h-280v-616h152q9 -17 21 -32t26 -28h-229z" />
    <glyph glyph-name="bluetooth" unicode="BLUETOOTH" 
d="M450 136v272l-173 -173q-9 -9 -21 -9t-21 9t-9 21t9 21l203 203l-203 203q-9 9 -9 21t9 21t21 9t21 -9l173 -173v272q0 14 9.5 22t20.5 8q5 0 10.5 -2t10.5 -7l172 -172q5 -5 7 -10t2 -11t-2 -11t-7 -10l-151 -151l151 -151q5 -5 7 -10t2 -11t-2 -11t-7 -10l-172 -172
q-5 -5 -10.5 -7t-10.5 -2q-11 0 -20.5 8t-9.5 22zM510 552l100 100l-100 98v-198zM510 210l100 98l-100 100v-198z" />
    <glyph glyph-name="bluetooth_connected" unicode="BLUETOOTH_CONNECTED" 
d="M200 432q-20 0 -34.5 14t-14.5 34t14.5 35t34.5 15t34.5 -15t14.5 -35t-14.5 -34t-34.5 -14zM760 432q-20 0 -34.5 14t-14.5 34t14.5 35t34.5 15t34.5 -15t14.5 -35t-14.5 -34t-34.5 -14zM450 136v272l-173 -173q-9 -9 -21 -9t-21 9t-9 21t9 21l203 203l-203 203
q-9 9 -9 21t9 21t21 9t21 -9l173 -173v272q0 14 9.5 22t20.5 8q5 0 10.5 -2t10.5 -7l172 -172q5 -5 7 -10t2 -11t-2 -11t-7 -10l-151 -151l151 -151q5 -5 7 -10t2 -11t-2 -11t-7 -10l-172 -172q-5 -5 -10.5 -7t-10.5 -2q-11 0 -20.5 8t-9.5 22zM510 552l100 100l-100 98
v-198zM510 210l100 98l-100 100v-198z" />
    <glyph glyph-name="bluetooth_disabled" unicode="BLUETOOTH_DISABLED" 
d="M450 408l-173 -173q-9 -9 -21 -9t-21 9t-9 21t9 21l175 175l-333 333q-9 9 -9 21t9 21t21 9t21 -9l708 -708q9 -9 9 -21t-9 -21t-21 -9t-21 9l-161 161l-123 -123q-5 -5 -10.5 -7t-10.5 -2q-11 0 -20.5 8t-9.5 22v272zM510 210l70 70l-70 70v-140zM536 494l-42 43
l116 115l-100 98v-229l-60 60v243q0 14 9.5 22t20.5 8q5 0 10.5 -2t10.5 -7l172 -172q5 -5 7 -10t2 -11t-2 -11t-7 -10z" />
    <glyph glyph-name="bluetooth_searching" unicode="BLUETOOTH_SEARCHING" 
d="M362 408l-173 -173q-9 -9 -21 -9t-21 9t-9 21t9 21l203 203l-203 203q-9 9 -9 21t9 21t21 9t21 -9l173 -173v272q0 14 9.5 22t20.5 8q5 0 10.5 -2t10.5 -7l172 -172q5 -5 7 -10t2 -11t-2 -11t-7 -10l-151 -151l151 -151q5 -5 7 -10t2 -11t-2 -11t-7 -10l-172 -172
q-5 -5 -10.5 -7t-10.5 -2q-11 0 -20.5 8t-9.5 22v272zM422 552l100 100l-100 98v-198zM422 210l100 98l-100 100v-198zM637 416l-53 53q-5 5 -5 10.5t5 10.5l52 52q10 10 20 7.5t13 -15.5q4 -14 5.5 -27t1.5 -27t-2 -28t-6 -28q-3 -13 -12.5 -15.5t-18.5 7.5zM745 309
q-6 6 -6 14.5t4 16.5q15 33 23 68t8 72q0 36 -8 71t-23 67q-5 10 -4 19t9 17q10 10 26.5 7.5t27.5 -24.5q15 -33 23.5 -73.5t8.5 -83.5q0 -42 -9 -82t-26 -78q-8 -18 -24.5 -20.5t-29.5 9.5z" />
    <glyph glyph-name="brightness_auto" unicode="BRIGHTNESS_AUTO" 
d="M402 414h159l32 -93q2 -8 8.5 -12t14.5 -4q13 0 20.5 11t2.5 23l-129 343q-2 7 -8 11t-13 4h-16q-7 0 -13 -4t-8 -11l-129 -343q-5 -12 2 -23t21 -11q8 0 15 5t10 13zM417 462l61 163h5l62 -163h-128zM346 160h-126q-25 0 -42.5 17.5t-17.5 42.5v126l-92 92q-9 9 -13 20
t-4 22t4 22t13 20l92 92v126q0 25 17.5 42.5t42.5 17.5h126l92 92q9 9 20.5 13t22.5 4t22 -4.5t20 -13.5l91 -91h126q25 0 42.5 -17.5t17.5 -42.5v-126l92 -92q9 -9 13 -20t4 -22t-4 -22t-13 -20l-92 -92v-126q0 -25 -17.5 -42.5t-42.5 -17.5h-126l-91 -90q-9 -8 -20 -12.5
t-22 -4.5t-22 4.5t-20 12.5zM370 220l111 -107v0v0l108 107h151v0v0v151l109 109v0v0l-109 109v151v0v0h-151l-108 109v0v0l-110 -109h-151v0v0v-151l-109 -109v0v0l109 -109v-151v0v0h150zM481 481v0v0v0v0v0v0v0v0z" />
    <glyph glyph-name="brightness_high" unicode="BRIGHTNESS_HIGH" 
d="M346 160h-126q-25 0 -42.5 17.5t-17.5 42.5v126l-92 92q-9 9 -13 20t-4 22t4 22t13 20l92 92v126q0 25 17.5 42.5t42.5 17.5h126l92 92q9 9 20.5 13t22.5 4t22 -4.5t20 -13.5l91 -91h126q25 0 42.5 -17.5t17.5 -42.5v-126l92 -92q9 -9 13 -20t4 -22t-4 -22t-13 -20
l-92 -92v-126q0 -25 -17.5 -42.5t-42.5 -17.5h-126l-91 -90q-9 -8 -20 -12.5t-22 -4.5t-22 4.5t-20 12.5zM481 286q81 0 138 57t57 138t-57 138t-138 57t-138 -57t-57 -138t57 -138t138 -57zM481 481v0v0v0v0v0v0v0v0zM370 220l111 -107v0v0l108 107h151v0v0v151l109 109v0
v0l-109 109v151v0v0h-151l-108 109v0v0l-110 -109h-151v0v0v-151l-109 -109v0v0l109 -109v-151v0v0h150zM480 481v0v0v0v0v0v0v0v0v0v0v0v0v0v0v0v0v0v0v0v0v0v0v0v0v0v0v0v0v0v0v0v0z" />
    <glyph glyph-name="brightness_low" unicode="BRIGHTNESS_LOW" 
d="M346 160h-126q-25 0 -42.5 17.5t-17.5 42.5v126l-92 92q-9 9 -13 20t-4 22t4 22t13 20l92 92v126q0 25 17.5 42.5t42.5 17.5h126l92 92q9 9 20.5 13t22.5 4t22 -4.5t20 -13.5l91 -91h126q25 0 42.5 -17.5t17.5 -42.5v-126l92 -92q9 -9 13 -20t4 -22t-4 -22t-13 -20
l-92 -92v-126q0 -25 -17.5 -42.5t-42.5 -17.5h-126l-91 -90q-9 -8 -20 -12.5t-22 -4.5t-22 4.5t-20 12.5zM481 286q81 0 138 57t57 138t-57 138t-138 57t-138 -57t-57 -138t57 -138t138 -57zM481 346q-57 0 -96 39t-39 96t39 96t96 39t96 -39t39 -96t-39 -96t-96 -39z
M370 220l111 -107v0v0l108 107h151v0v0v151l109 109v0v0l-109 109v151v0v0h-151l-108 109v0v0l-110 -109h-151v0v0v-151l-109 -109v0v0l109 -109v-151v0v0h150zM481 481v0v0v0v0v0v0v0v0z" />
    <glyph glyph-name="brightness_medium" unicode="BRIGHTNESS_MEDIUM" 
d="M346 160h-126q-25 0 -42.5 17.5t-17.5 42.5v126l-92 92q-9 9 -13 20t-4 22t4 22t13 20l92 92v126q0 25 17.5 42.5t42.5 17.5h126l92 92q9 9 20.5 13t22.5 4t22 -4.5t20 -13.5l91 -91h126q25 0 42.5 -17.5t17.5 -42.5v-126l92 -92q9 -9 13 -20t4 -22t-4 -22t-13 -20
l-92 -92v-126q0 -25 -17.5 -42.5t-42.5 -17.5h-126l-91 -90q-9 -8 -20 -12.5t-22 -4.5t-22 4.5t-20 12.5zM370 220l111 -107v0v0l108 107h151v0v0v151l109 109v0v0l-109 109v151v0v0h-151l-108 109v0v0l-110 -109h-151v0v0v-151l-109 -109v0v0l109 -109v-151v0v0h150z
M481 286q81 0 138 57t57 138t-57 138t-138 57v-390z" />
    <glyph glyph-name="data_usage" unicode="DATA_SAVER_OFF" 
d="M481 80q-82 0 -155 31.5t-127.5 85.5t-86 127t-31.5 155q0 158 106.5 272t264.5 126v-102q-115 -11 -192 -95.5t-77 -200.5q0 -124 87 -210.5t211 -86.5q72 0 136 32.5t109 91.5l88 -51q-58 -83 -145.5 -129t-187.5 -46zM843 309l-88 49q12 31 18 61.5t6 60.5
q0 116 -76.5 201t-190.5 95v102q157 -11 263 -124.5t106 -269.5q0 -45 -9.5 -88.5t-28.5 -86.5z" />
    <glyph glyph-name="developer_mode" unicode="DEVELOPER_MODE" 
d="M246 480l119 -119q9 -9 8.5 -21t-8.5 -21q-9 -9 -21.5 -9.5t-21.5 8.5l-141 141q-9 9 -9 21t9 21l141 141q9 9 21.5 8.5t21.5 -9.5q8 -9 8.5 -21t-8.5 -21zM200 266h60v-76h440v76h60v-166q0 -24 -18 -42t-42 -18h-440q-24 0 -42 18t-18 42v166zM260 706h-60v154
q0 24 18 42t42 18h440q24 0 42 -18t18 -42v-154h-60v64h-440v-64zM260 130v-30v0v0h440v0v0v30h-440zM260 830h440v30v0v0h-440v0v0v-30zM714 480l-119 119q-9 9 -8.5 21t8.5 21q9 9 21.5 9.5t21.5 -8.5l141 -141q9 -9 9 -21t-9 -21l-141 -141q-9 -9 -21.5 -8.5t-21.5 9.5
q-8 9 -8.5 21t8.5 21zM260 830v30v0v0v0v0v0v-30v0zM260 130v0v-30v0v0v0v0v0v30z" />
    <glyph glyph-name="devices" unicode="DEVICES" 
d="M125 160q-19 0 -32 13t-13 32t13 32t32 13h35v490q0 25 17.5 42.5t42.5 17.5h590q13 0 21.5 -8.5t8.5 -21.5t-8.5 -21.5t-21.5 -8.5h-590v0v0v-490h195q19 0 32 -13t13 -32t-13 -32t-32 -13h-290zM550 160q-13 0 -21.5 8.5t-8.5 21.5v460q0 13 8.5 21.5t21.5 8.5h300
q13 0 21.5 -8.5t8.5 -21.5v-460q0 -13 -8.5 -21.5t-21.5 -8.5h-300zM580 250h240v370h-240v-370zM580 250v0h240v0h-240z" />
    <glyph glyph-name="dvr" unicode="DVR" 
d="M280 407q14 0 23.5 9.5t9.5 23.5t-9.5 23.5t-23.5 9.5t-23.5 -9.5t-9.5 -23.5t9.5 -23.5t23.5 -9.5zM280 567q14 0 23.5 9.5t9.5 23.5t-9.5 23.5t-23.5 9.5t-23.5 -9.5t-9.5 -23.5t9.5 -23.5t23.5 -9.5zM390 410h300q13 0 21.5 8.5t8.5 21.5t-8.5 21.5t-21.5 8.5h-300
q-13 0 -21.5 -8.5t-8.5 -21.5t8.5 -21.5t21.5 -8.5zM390 570h300q13 0 21.5 8.5t8.5 21.5t-8.5 21.5t-21.5 8.5h-300q-13 0 -21.5 -8.5t-8.5 -21.5t8.5 -21.5t21.5 -8.5zM140 200q-24 0 -42 18t-18 42v520q0 24 18 42t42 18h680q24 0 42 -18t18 -42v-520q0 -24 -18 -42
t-42 -18h-190v-50q0 -13 -8.5 -21.5t-21.5 -8.5h-240q-13 0 -21.5 8.5t-8.5 21.5v50h-190zM140 260h680v0v0v520v0v0h-680v0v0v-520v0v0zM140 260v0v0v520v0v0v0v0v0v-520v0v0v0z" />
    <glyph glyph-name="my_location" unicode="GPS_FIXED" 
d="M450 72v45q-137 14 -228 105t-105 228h-45q-13 0 -21.5 8.5t-8.5 21.5t8.5 21.5t21.5 8.5h45q14 137 105 228t228 105v45q0 13 8.5 21.5t21.5 8.5t21.5 -8.5t8.5 -21.5v-45q137 -14 228 -105t105 -228h45q13 0 21.5 -8.5t8.5 -21.5t-8.5 -21.5t-21.5 -8.5h-45
q-14 -137 -105 -228t-228 -105v-45q0 -13 -8.5 -21.5t-21.5 -8.5t-21.5 8.5t-8.5 21.5zM480 176q125 0 214.5 89.5t89.5 214.5t-89.5 214.5t-214.5 89.5t-214.5 -89.5t-89.5 -214.5t89.5 -214.5t214.5 -89.5zM480 330q-63 0 -106.5 43.5t-43.5 106.5t43.5 106.5t106.5 43.5
t106.5 -43.5t43.5 -106.5t-43.5 -106.5t-106.5 -43.5zM480 390q38 0 64 26t26 64t-26 64t-64 26t-64 -26t-26 -64t26 -64t64 -26zM480 480v0v0v0v0v0v0v0v0z" />
    <glyph glyph-name="location_searching" unicode="GPS_NOT_FIXED" 
d="M450 70v45q-137 14 -228 105t-105 228h-45q-13 0 -21.5 8.5t-8.5 21.5t8.5 21.5t21.5 8.5h45q14 137 105 228t228 105v45q0 13 8.5 21.5t21.5 8.5t21.5 -8.5t8.5 -21.5v-45q137 -14 228 -105t105 -228h45q13 0 21.5 -8.5t8.5 -21.5t-8.5 -21.5t-21.5 -8.5h-45
q-14 -137 -105 -228t-228 -105v-45q0 -13 -8.5 -21.5t-21.5 -8.5t-21.5 8.5t-8.5 21.5zM480 174q125 0 214.5 89.5t89.5 214.5t-89.5 214.5t-214.5 89.5t-214.5 -89.5t-89.5 -214.5t89.5 -214.5t214.5 -89.5z" />
    <glyph glyph-name="location_disabled" unicode="GPS_OFF" 
d="M775 264l-44 44q24 35 38.5 78.5t14.5 91.5q0 125 -89.5 214.5t-214.5 89.5q-46 0 -91.5 -14.5t-78.5 -38.5l-43 43q36 30 85.5 47t97.5 22v45q0 13 8.5 21.5t21.5 8.5t21.5 -8.5t8.5 -21.5v-45q137 -14 228 -105t105 -228h45q13 0 21.5 -8.5t8.5 -21.5t-8.5 -21.5
t-21.5 -8.5h-45q-5 -47 -21 -93.5t-47 -90.5zM450 70v45q-137 14 -228 105t-105 228h-45q-13 0 -21.5 8.5t-8.5 21.5t8.5 21.5t21.5 8.5h45q6 51 21.5 95.5t42.5 83.5l-106 106q-9 9 -9 21.5t9 21.5t21.5 9t21.5 -9l720 -720q9 -9 9 -21t-9 -21t-21.5 -9t-21.5 9l-107 106
q-40 -29 -83.5 -44t-94.5 -21v-45q0 -13 -8.5 -21.5t-21.5 -8.5t-21.5 8.5t-8.5 21.5zM480 174q45 0 86 12.5t78 36.5l-419 419q-23 -35 -36 -75.5t-13 -88.5q0 -125 89.5 -214.5t214.5 -89.5z" />
    <glyph glyph-name="graphic_eq" unicode="GRAPHIC_EQ" 
d="M285 270v420q0 13 8.5 21.5t21.5 8.5t21.5 -8.5t8.5 -21.5v-420q0 -13 -8.5 -21.5t-21.5 -8.5t-21.5 8.5t-8.5 21.5zM450 110v740q0 13 8.5 21.5t21.5 8.5t21.5 -8.5t8.5 -21.5v-740q0 -13 -8.5 -21.5t-21.5 -8.5t-21.5 8.5t-8.5 21.5zM120 430v100q0 13 8.5 21.5
t21.5 8.5t21.5 -8.5t8.5 -21.5v-100q0 -13 -8.5 -21.5t-21.5 -8.5t-21.5 8.5t-8.5 21.5zM615 270v420q0 13 8.5 21.5t21.5 8.5t21.5 -8.5t8.5 -21.5v-420q0 -13 -8.5 -21.5t-21.5 -8.5t-21.5 8.5t-8.5 21.5zM780 430v100q0 13 8.5 21.5t21.5 8.5t21.5 -8.5t8.5 -21.5v-100
q0 -13 -8.5 -21.5t-21.5 -8.5t-21.5 8.5t-8.5 21.5z" />
    <glyph glyph-name="network_cell" unicode="NETWORK_CELL" 
d="M152 80q-14 0 -22 9.5t-8 20.5q0 5 2 10.5t7 10.5l698 698q5 5 10.5 7t10.5 2q11 0 20.5 -8t9.5 -22v-683q0 -19 -13 -32t-32 -13h-683zM686 140h134v596l-134 -134v-462z" />
    <glyph glyph-name="network_wifi" unicode="NETWORK_WIFI" 
d="M130 552q75 60 164 94t186 34t186 -34t164 -94l42 42q-85 66 -184.5 106t-207.5 40t-207.5 -40t-184.5 -106zM438 162l-391 391q-9 9 -13.5 20.5t-4.5 22.5q0 13 5.5 25t16.5 21q91 76 200.5 117t228.5 41t228.5 -41t200.5 -117q11 -9 16.5 -21t5.5 -25q0 -11 -4.5 -22.5
t-13.5 -20.5l-391 -391q-9 -9 -20 -13t-22 -4t-22 4t-20 13z" />
    <glyph glyph-name="nfc" unicode="NFC" 
d="M690 240q13 0 21.5 8.5t8.5 21.5v420q0 13 -8.5 21.5t-21.5 8.5h-180q-26 0 -43 -17t-17 -43v-128q-15 -9 -22.5 -22t-7.5 -30q0 -26 17 -43t43 -17t43 17t17 43q0 17 -8 30t-22 22v128h150v-360h-360v360h83q13 0 21.5 8.5t8.5 21.5t-8.5 21.5t-21.5 8.5h-113
q-13 0 -21.5 -8.5t-8.5 -21.5v-420q0 -13 8.5 -21.5t21.5 -8.5h420zM180 120q-24 0 -42 18t-18 42v600q0 24 18 42t42 18h600q24 0 42 -18t18 -42v-600q0 -24 -18 -42t-42 -18h-600zM180 180h600v0v0v600v0v0h-600v0v0v-600v0v0zM180 780v0v0v0v-600v0v0v0v0v0v600v0v0z" />
    <glyph glyph-name="wallpaper" unicode="WALLPAPER" 
d="M180 120q-24 0 -42 18t-18 42v240q0 13 8.5 21.5t21.5 8.5t21.5 -8.5t8.5 -21.5v-240v0v0h240q13 0 21.5 -8.5t8.5 -21.5t-8.5 -21.5t-21.5 -8.5h-240zM780 120h-240q-13 0 -21.5 8.5t-8.5 21.5t8.5 21.5t21.5 8.5h240v0v0v240q0 13 8.5 21.5t21.5 8.5t21.5 -8.5
t8.5 -21.5v-240q0 -24 -18 -42t-42 -18zM448 293l120 155q5 6 12 6t12 -6l117 -156q5 -8 1 -16t-13 -8h-429q-9 0 -13.5 8t1.5 16l87 112q5 6 12 6t12 -6zM120 780q0 24 18 42t42 18h240q13 0 21.5 -8.5t8.5 -21.5t-8.5 -21.5t-21.5 -8.5h-240v0v0v-240q0 -13 -8.5 -21.5
t-21.5 -8.5t-21.5 8.5t-8.5 21.5v240zM840 780v-240q0 -13 -8.5 -21.5t-21.5 -8.5t-21.5 8.5t-8.5 21.5v240v0v0h-240q-13 0 -21.5 8.5t-8.5 21.5t8.5 21.5t21.5 8.5h240q24 0 42 -18t18 -42zM624 570q-23 0 -38.5 15.5t-15.5 38.5t15.5 38.5t38.5 15.5t38.5 -15.5
t15.5 -38.5t-15.5 -38.5t-38.5 -15.5z" />
    <glyph glyph-name="widgets" unicode="WIDGETS" 
d="M658 487l-171 171q-5 5 -7 10t-2 11t2 11t7 10l171 171q5 5 10 7t11 2t11 -2t10 -7l171 -171q5 -5 7 -10t2 -11t-2 -11t-7 -10l-171 -171q-5 -5 -10 -7t-11 -2t-11 2t-10 7zM120 568v241q0 13 8.5 21.5t21.5 8.5h241q13 0 21.5 -8.5t8.5 -21.5v-241q0 -13 -8.5 -21.5
t-21.5 -8.5h-241q-13 0 -21.5 8.5t-8.5 21.5zM538 150v241q0 13 8.5 21.5t21.5 8.5h241q13 0 21.5 -8.5t8.5 -21.5v-241q0 -13 -8.5 -21.5t-21.5 -8.5h-241q-13 0 -21.5 8.5t-8.5 21.5zM120 150v241q0 13 8.5 21.5t21.5 8.5h241q13 0 21.5 -8.5t8.5 -21.5v-241
q0 -13 -8.5 -21.5t-21.5 -8.5h-241q-13 0 -21.5 8.5t-8.5 21.5zM180 598h181v181h-181v-181zM682 547l129 129l-129 129l-129 -129zM598 180h181v181h-181v-181zM180 180h181v181h-181v-181zM361 598v0v0v0v0zM553 676v0v0v0v0zM361 361v0v0v0v0zM598 361v0v0v0v0z" />
    <glyph glyph-name="screen_lock_landscape" unicode="SCREEN_LOCK_LANDSCAPE" 
d="M390 320q-13 0 -21.5 8.5t-8.5 21.5v140q0 13 8.5 21.5t21.5 8.5h10v40q0 33 23.5 56.5t56.5 23.5t56.5 -23.5t23.5 -56.5v-40h10q13 0 21.5 -8.5t8.5 -21.5v-141q0 -12 -9 -20.5t-21 -8.5h-180zM430 520h100v40q0 20 -15 33.5t-35 13.5t-35 -13.5t-15 -33.5v-40z
M100 200q-24 0 -42 18t-18 42v440q0 24 18 42t42 18h760q24 0 42 -18t18 -42v-440q0 -24 -18 -42t-42 -18h-760zM130 260v440h-30v0v0v-440v0v0h30zM190 260h580v440h-580v-440zM830 260h30v0v0v440v0v0h-30v-440zM130 700h-30v0v0v0v0v0h30v0zM830 700v0h30v0v0v0v0v0h-30z
" />
    <glyph glyph-name="screen_lock_portrait" unicode="SCREEN_LOCK_PORTRAIT" 
d="M390 320q-13 0 -21.5 8.5t-8.5 21.5v140q0 13 8.5 21.5t21.5 8.5h10v40q0 33 23.5 56.5t56.5 23.5t56.5 -23.5t23.5 -56.5v-40h10q13 0 21.5 -8.5t8.5 -21.5v-141q0 -12 -9 -20.5t-21 -8.5h-180zM430 520h100v40q0 20 -15 33.5t-35 13.5t-35 -13.5t-15 -33.5v-40zM260 40
q-24 0 -42 18t-18 42v760q0 24 18 42t42 18h440q24 0 42 -18t18 -42v-760q0 -24 -18 -42t-42 -18h-440zM260 130v-30v0v0h440v0v0v30h-440zM260 190h440v580h-440v-580zM260 830h440v30v0v0h-440v0v0v-30zM260 830v30v0v0v0v0v0v-30v0zM260 130v0v-30v0v0v0v0v0v30z" />
    <glyph glyph-name="screen_lock_rotation" unicode="SCREEN_LOCK_ROTATION" 
d="M662 600q-15 0 -27.5 12.5t-12.5 27.5v120q0 15 12.5 27.5t27.5 12.5h1v42q0 33 22.5 55.5t55.5 22.5t55.5 -22.5t22.5 -55.5v-42h2q15 0 27.5 -12.5t12.5 -27.5v-120q0 -15 -12.5 -27.5t-27.5 -12.5h-159zM701 800h80v42q0 18 -11 29t-29 11t-29 -11t-11 -29v-42z
M488 98l-109 109q-9 9 -8.5 21t9.5 21t21.5 9t21.5 -9l174 -174q11 -11 6 -24.5t-19 -16.5q-11 -2 -24 -2.5t-27 -0.5q-99 0 -186 37.5t-152 103t-102.5 152.5t-37.5 186q0 13 8.5 21.5t21.5 8.5t21.5 -8.5t8.5 -21.5q0 -80 29 -151.5t79 -126.5t118.5 -90.5t146.5 -43.5z
M733 490l43 43l53 -53q19 -19 19 -46t-19 -46l-166 -165q-20 -20 -46 -20t-46 20l-325 325q-20 20 -20 46t20 46l166 165q20 20 46 20t46 -20l48 -48l-42 -43l-52 52v0v0l-172 -172v0v0l331 -332v0v0l172 172v0v0zM540 514v0v0v0v0v0v0v0v0v0v0v0v0v0v0v0v0v0z" />
    <glyph glyph-name="screen_rotation" unicode="SCREEN_ROTATION" 
d="M516 191l-325 325q-18 20 -18 46t18 46l166 165q18 20 45 20t47 -20l325 -325q19 -19 19 -46t-19 -46l-166 -165q-18 -20 -45 -20t-47 20zM562 230v0v0l172 172v0v0l-331 332v0v0l-172 -172v0v0zM483 482v0v0v0v0v0v0v0v0v0v0v0v0zM530 892l107 -107q9 -9 9 -21t-9 -21
t-21.5 -9t-21.5 9l-175 174q-11 11 -6 24t19 16q11 2 23 2.5t23 0.5q100 0 187.5 -38t153 -103.5t103.5 -153t38 -187.5q0 -13 -8.5 -21.5t-21.5 -8.5t-21.5 8.5t-8.5 21.5q0 80 -28 151.5t-77.5 127.5t-117.5 91.5t-147 43.5zM433 66l-109 109q-9 9 -8.5 21t9.5 21t21.5 9
t21.5 -9l172 -172q11 -11 6 -25.5t-20 -17.5q-12 -2 -24 -2.5t-24 -0.5q-99 0 -186 37.5t-152 103t-102.5 152.5t-37.5 186q0 13 8.5 21.5t21.5 8.5t21.5 -8.5t8.5 -21.5q0 -80 28.5 -151.5t78.5 -127t118.5 -90.5t147.5 -43z" />
    </font>
</defs>
</svg>
