<?xml version="1.0" encoding="UTF-8"?><svg id="a" xmlns="http://www.w3.org/2000/svg" width="600" height="600" viewBox="0 0 600 600"><defs><style>.b{fill:#111216}</style></defs><ellipse class="b" cx="476.93" cy="422.47" rx="37.17" ry="25.9"/><path class="b" d="m502,392.65c7.03-18.7,10.83-38.68,10.83-59.45-.02-10.18-.93-20.17-2.7-29.92,38.33-12.27-7.93-115.13-9.02-115.38-6.02-1.32-11.98-2.5-17.92-3.57-4.28-.77-8.53-1.47-12.77-2.12-203.22-30.9-358.13,79.08-401.41,155.57-11.57-47.17-34.48-196.15,118.5-252.77,110.47-40.88,243.97,33.78,282.91,97.2,4.23.65,8.5,1.35,12.77,2.12-37.27-73.97-180.87-149.78-299.88-105.73C8.92,143.16,52.2,322.01,61.62,354.27c-23.97,71.95,67.62,123.52,67.98,123.03,3.83-4.93,7.68-9.72,11.57-14.38,39.22,36.62,94.87,59.48,156.57,59.48,41.75,0,80.7-10.47,113.7-28.57,11.97,24.07,36.82,40.6,65.5,40.58,40.35-.02,73.07-32.73,73.07-73.08v-.03c-.02-31.55-20-58.42-48-68.65Zm-138.4-76.57c8.6,23.13-19.28,54.87-62.3,70.87-32.75,12.18-64.8,11.73-82.03.65,15.73-12,31.52-22.38,47.12-31.35.17.92.43,1.8.82,2.67,3.88,8.62,17.6,10.87,30.65,5.02s20.5-17.58,16.63-26.22c-.68-1.5-1.65-2.82-2.88-3.92,17.9-7.58,35.32-13.47,51.88-18,.05.08.08.18.12.28Zm83.32-14.12c-.63,1.02-.93,2.13-.82,3.27.4,3.85,5.43,6.47,11.22,5.83,5.78-.62,10.13-4.22,9.73-8.05-.07-.6-.23-1.17-.52-1.7,8.63-.05,16.1.22,22.23.58-.63,9.58-15.03,17.75-33.03,18.5-18.25.75-33.42-6.38-34.5-16.08,9.13-1.13,17.73-1.88,25.68-2.35Zm-369.33,39.45c41.45-74.15,199.75-184.63,410.61-146.97,1.12.2,47.75,92.57,14.2,101.07,0,0-217.62-31.17-369.65,164.57-.37.48-96.62-44.52-55.17-118.67Zm225.62,166.27c-59.38,0-112.77-22.8-149.68-59.07,11.22-12.52,22.6-24,34.08-34.52,29.35,2.6,95,5.47,138.58-15,57.57-27.05,79.35-73.52,79.35-73.52,0,0,35.02,16,58.47,11.7,20.05-3.68,35.75-21.83,39.87-27.02.68,6,1.03,12.08,1.03,18.25,0,21.58-4.3,42.27-12.17,61.43-5.12-1.13-10.42-1.72-15.87-1.72-40.37.02-73.08,32.75-73.07,73.12,0,7.27,1.07,14.27,3.03,20.88-30.27,16.17-65.73,25.45-103.63,25.45Zm173.73,15.28c-35.6,0-64.45-28.85-64.45-64.45s28.85-64.45,64.45-64.45,64.43,28.85,64.45,64.45c0,35.6-28.85,64.45-64.45,64.45Z"/></svg>